<?xml version="1.0" encoding="UTF-8" standalone="no"?>
<!-- Created with Inkscape (http://www.inkscape.org/) -->

<svg
   xmlns:dc="http://purl.org/dc/elements/1.1/"
   xmlns:cc="http://creativecommons.org/ns#"
   xmlns:rdf="http://www.w3.org/1999/02/22-rdf-syntax-ns#"
   xmlns:svg="http://www.w3.org/2000/svg"
   xmlns="http://www.w3.org/2000/svg"
   xmlns:sodipodi="http://sodipodi.sourceforge.net/DTD/sodipodi-0.dtd"
   xmlns:inkscape="http://www.inkscape.org/namespaces/inkscape"
   id="svg2"
   version="1.1"
   inkscape:version="0.92.2 (unknown)"
   width="913.0686"
   height="761.24298"
   viewBox="0 0 856.00185 713.66527"
   sodipodi:docname="logoGuatemala_MozillaCOLOR.svg"
   inkscape:export-filename="/home/keik/Escritorio/IMAGEN MOZILLA CENTROAMERICA/Guatemala/logoGuatemala_MozillaCOLOR.png"
   inkscape:export-xdpi="300"
   inkscape:export-ydpi="300">
  <title
     id="title4536">LogoMozillaHonduras</title>
  <metadata
     id="metadata8">
    <rdf:RDF>
      <cc:Work
         rdf:about="">
        <dc:format>image/svg+xml</dc:format>
        <dc:type
           rdf:resource="http://purl.org/dc/dcmitype/StillImage" />
        <dc:title>LogoMozillaHonduras</dc:title>
        <cc:license
           rdf:resource="http://creativecommons.org/licenses/by-nd/4.0/" />
        <dc:creator>
          <cc:Agent>
            <dc:title>KarlaLHdz</dc:title>
          </cc:Agent>
        </dc:creator>
        <dc:source>Mozilla El Salvador</dc:source>
        <dc:description>Hecho para Mozilla Centroamerica en el año 2017</dc:description>
      </cc:Work>
      <cc:License
         rdf:about="http://creativecommons.org/licenses/by-nd/4.0/">
        <cc:permits
           rdf:resource="http://creativecommons.org/ns#Reproduction" />
        <cc:permits
           rdf:resource="http://creativecommons.org/ns#Distribution" />
        <cc:requires
           rdf:resource="http://creativecommons.org/ns#Notice" />
        <cc:requires
           rdf:resource="http://creativecommons.org/ns#Attribution" />
      </cc:License>
    </rdf:RDF>
  </metadata>
  <defs
     id="defs6" />
  <sodipodi:namedview
     pagecolor="#ffffff"
     bordercolor="#666666"
     borderopacity="1"
     objecttolerance="10"
     gridtolerance="10"
     guidetolerance="10"
     inkscape:pageopacity="0"
     inkscape:pageshadow="2"
     inkscape:window-width="1366"
     inkscape:window-height="708"
     id="namedview4"
     showgrid="false"
     showborder="true"
     inkscape:zoom="0.6791524"
     inkscape:cx="454.714"
     inkscape:cy="374.7318"
     inkscape:window-x="0"
     inkscape:window-y="0"
     inkscape:window-maximized="1"
     inkscape:current-layer="layer2"
     borderlayer="true"
     inkscape:showpageshadow="false"
     units="px"
     showguides="true"
     fit-margin-top="100"
     fit-margin-left="100"
     fit-margin-right="100"
     fit-margin-bottom="100"
     inkscape:guide-bbox="true" />
  <g
     inkscape:groupmode="layer"
     id="layer2"
     inkscape:label="Layer 2"
     style="opacity:1"
     transform="translate(-64.97849,405.75366)">
    <path
       style="display:inline;opacity:1;fill:#808080;fill-opacity:1;fill-rule:nonzero;stroke:none;stroke-width:2.79876018;stroke-linecap:round;stroke-linejoin:round;stroke-miterlimit:4;stroke-dasharray:none;stroke-dashoffset:0;stroke-opacity:1"
       d="m 593.8034,-391.75394 c -3.91027,0.52967 -10.85514,5.3376 -12.26937,7.1331 -11.35559,14.41693 -15.37095,24.4139 -18.84283,38.17167 -4.99339,19.7872 -2.19755,61.18428 -2.19755,61.18428 0,0 -2.81083,-21.65705 -3.88021,-32.52167 -1.02193,-10.3821 -2.40941,-20.76857 -2.42265,-31.20073 -0.008,-6.54152 -0.29265,-13.46824 1.47085,-19.57111 6.10571,-21.12999 -8.40353,-3.28267 -10.66863,1.15376 -5.52634,10.82406 -9.41569,22.89365 -10.12909,35.02589 -0.85341,14.51333 7.12262,43.02792 7.12262,43.02792 0,0 -8.16952,-16.46071 -10.46935,-25.29061 -2.95246,-11.33494 -5.6235,-23.287 -4.10402,-34.9011 3.00807,-22.98915 -8.35073,-6.80827 -11.27944,-0.22647 -4.61002,10.36016 -5.19547,22.43116 -4.34516,33.73877 0.86794,11.54235 9.53705,33.39059 9.53705,33.39059 0,0 -7.90245,-9.06494 -10.76322,-14.30063 -3.82387,-6.99813 -8.31591,-22.43252 -8.31591,-22.43252 -8.06878,-23.5259 -10.39248,-8.57783 -12.43876,8.22207 0,0 0.60807,14.03464 2.75666,20.63181 1.55845,4.78525 7.19568,13.27233 7.19568,13.27233 -17.643,-15.62049 -28.59512,-19.9802 -20.40695,7.86939 -8.50578,-2.58987 -15.09538,-2.51059 -5.14782,20.56624 -13.50754,4.38016 -4.85122,7.23595 -2.21522,10.50635 -17.91876,5.97163 -18.03003,12.13483 -7.75105,18.41062 -16.77134,3.85722 -15.16165,9.05935 -3.34709,15.00701 -3.38189,6.36667 -17.73929,12.66998 -1.51329,19.1537 -2.28816,7.31092 -9.58031,19.09605 3.17906,12.94941 -3.40895,17.66827 0.26993,16.71807 4.43221,14.49465 -1.09044,12.29166 0.99279,18.38793 9.37959,12.18179 -1.60961,5.51155 -9.43984,15.20728 3.88408,10.66821 -3.34197,14.88631 2.68428,8.94889 6.78195,7.29453 -1.17235,2.63346 -7.79301,8.84919 0.28562,5.40053 l 23.46855,-7.74874 c 2.72143,-0.63162 17.02966,-3.90204 26.73297,-4.9898 10.82835,-1.21405 21.70731,-3.56089 31.74626,-7.79741 7.11533,-3.00274 19.65455,-12.26244 19.65455,-12.26244 0,0 -1.63014,-24.56078 -0.73986,-36.79655 0.51784,-7.11672 5.31713,-14.23327 3.67508,-21.12122 l 35.05066,-44.66954 c 16.18641,-31.09754 11.46696,-32.62047 -2.30751,-21.3372 l -9.32074,7.22547 c 0,0 12.64573,-23.39077 16.91054,-35.91929 2.94725,-8.65803 5.88925,-26.79737 5.88927,-26.79737 1.90043,-13.24571 9.02021,-35.21559 -13.52954,-7.62002 l -14.75613,25.12517 c 0,0 6.15057,-24.62744 10.20691,-36.6406 3.53441,-10.46731 4.61139,-11.71249 4.83027,-25.74314 0.0698,-4.46269 -9.52013,3.02772 -13.98417,7.35371 -6.15802,5.96763 -10.92844,13.83444 -14.82942,21.67038 -4.26455,8.5662 -9.13177,27.21901 -9.13177,27.21902 0,0 0.2428,-25.90235 2.03103,-38.69215 0.92368,-6.60587 1.1756,-13.70325 4.47068,-19.50265 4.65927,-8.20056 3.45595,-10.3774 0.41461,-9.96541 z m -66.21046,144.34489 c 11.9918,10.28702 19.15338,13.02113 26.13857,15.47579 -3.39816,-0.50989 -6.90187,-0.60813 -10.03287,-1.96256 -4.53402,-1.96139 -12.0695,-8.60635 -12.0695,-8.60635 -0.35563,-0.44452 -3.32475,-2.66519 -4.30523,-2.55614 -0.76263,0.0848 -0.78634,1.73382 1.01958,7.23675 l 1.99068,5.57438 c 0,0 -6.86145,-2.00767 -9.09947,-4.55806 -8.15761,-9.29616 -4.17271,2.48018 -3.26621,3.91994 3.2944,5.22988 3.70088,5.7356 5.97123,8.26536 2.96033,3.2986 9.87614,8.90495 9.87614,8.90495 0,0 -5.58956,-3.31888 -8.66222,-4.28481 -3.56707,-1.12137 -7.54162,-0.50684 -11.09302,-1.67701 -3.5873,-1.18196 -7.10749,-2.88402 -10.01352,-5.29669 -8.46412,-7.02707 -4.7407,6.95193 -2.61077,9.41729 3.9712,4.59657 5.87472,5.55996 8.95978,8.16997 2.35699,1.9941 7.28477,5.71414 7.28477,5.71414 0,0 -9.94431,-0.82931 -14.63469,-2.39094 -3.33816,-1.1114 -6.91118,-2.35325 -9.35927,-4.88013 -6.68171,-6.89641 -5.76877,0.0554 -1.47302,6.90819 0,0 3.51127,4.78034 5.93174,6.3911 4.7204,3.14129 15.96985,5.8606 15.96985,5.8606 -2e-5,2e-5 -11.24008,2.43559 -16.94769,2.4441 -3.13733,0.005 -5.41068,0.20717 -9.31851,-1.31771 -1.85626,-0.72435 -11.36122,-10.49622 -3.42894,4.89758 l 3.84289,4.60145 -5.55219,-2.15067 c -6.00714,-2.41513 -5.6835,0.49065 0.5345,8.34559 l 4.29859,4.12368 -7.36757,-0.9976 c 0,0 -6.16456,1.9692 2.52802,7.14669 2.30449,1.37264 4.86964,2.31762 7.44985,3.05066 3.61841,1.02805 11.1262,1.8548 11.1262,1.8548 0,0 1.31955,4.66129 3.28674,5.47496 2.03665,0.84245 6.41538,-1.60929 6.41538,-1.60929 0,0 3.64381,2.50503 3.4013,4.32285 -0.49638,3.72021 -7.03846,3.53333 -9.04016,6.70814 -1.38863,2.20249 -2.14884,5.14915 -1.49546,7.66951 0.51611,1.99046 2.95793,4.392 4.52486,5.79327 -3.70818,-0.92083 -9.48838,-2.8326 -10.66866,-6.07076 -0.96693,-2.65371 1.57885,-5.61386 3.43821,-7.73989 1.78871,-2.04527 6.944,-4.27507 6.944,-4.27507 0,0 -5.57423,-1.42746 -7.16625,-3.56864 -0.7062,-0.94966 -0.59773,-3.49844 -0.59773,-3.49844 0,0 -12.68366,0.69717 -17.82226,-2.38634 -4.43353,-2.66038 -8.24564,-7.17351 -9.05117,-12.59678 -0.3408,-2.29579 6.49666,-2.51552 6.49666,-2.51552 0,0 -9.77093,-15.69297 -4.85119,-13.32828 2.62966,1.26391 7.7597,2.52366 7.7597,2.52366 -3.40935,-4.56769 -8.02006,-15.26513 -4.03242,-13.06127 4.59734,2.54085 7.72298,6.00825 12.35769,6.76605 2.9143,0.47642 8.71833,-1.55564 8.71833,-1.55564 0,0 -6.3307,-3.53851 -10.19383,-11.89121 -1.67544,-3.62258 -5.3291,-15.44327 -0.20338,-11.97175 2.39894,1.6247 8.45758,8.85761 16.73921,9.97687 0,0 -6.56423,-7.96148 -7.96843,-12.78066 -1.13296,-3.88839 -1.86327,-9.47557 -0.11626,-12.14486 2.51646,-3.84539 7.82381,3.78335 12.46955,5.88443 4.64567,2.10115 14.48539,4.23493 14.48539,4.23493 0,0 -7.09201,-7.25614 -9.00547,-11.82548 -1.11519,-2.66406 -1.22636,-8.57803 -1.22636,-8.57803 1.66657,-0.87798 5.41546,2.12707 7.84708,4.1331 1.5251,1.25819 5.04422,3.11392 5.04422,3.11392 0,0 -2.62322,-6.62721 -2.003,-9.95598 0.20756,-1.11534 1.82605,-2.87214 1.82605,-2.87214 z m 26.85754,1.21227 c 0.28092,-0.0576 0.62951,-0.0701 1.05477,-0.0271 4.44152,0.4516 9.33165,4.04049 13.9945,6.06687 1.64588,-2.52758 3.36157,-1.84269 5.05236,-2.2357 0,0 0.48259,-2.44721 1.45388,-2.96528 1.6689,-0.8903 5.62395,0.76325 5.62395,0.76325 0,0 2.40021,-3.30949 4.09682,-3.09063 2.35383,0.30362 4.41126,5.59254 4.41126,5.59254 2.53177,-1.91559 6.12917,0.9964 5.33372,2.84878 -4.29164,9.99366 -5.66017,18.21697 -5.09357,23.1434 -1.28526,-1.52209 -2.93437,-2.86987 -2.93435,-2.86985 0,0 0.31684,-9.01371 2.65198,-12.62445 2.48884,-3.8485 5.5721,-13.57432 -0.005,-7.93607 -2.86553,-6.77047 -5.40358,-6.63446 -8.35917,-2.62282 -2.07936,-0.69849 -4.81848,-3.48732 -5.15718,1.33942 -6.18381,-0.49019 -3.87093,2.50145 -3.46646,4.71445 0,0 -7.0733,-4.07259 -9.51795,-5.59497 -1.02165,-0.63623 -13.82829,-6.87787 -4.00655,3.63864 2.14845,2.30044 4.27322,3.72948 5.55956,5.03948 2.26275,2.30443 6.17209,7.47382 6.17209,7.47382 0,0 -3.67279,-1.64044 -7.5967,-3.23145 -3.48421,-6.03822 -13.24662,-16.58506 -9.26876,-17.42241 z m 75.24049,64.11717 c -0.41546,0.10355 -0.82078,0.22269 -1.21403,0.36994 l 10e-4,0.007 c -0.44883,0.17066 -0.88518,0.36509 -1.31243,0.6052 -0.34866,0.70372 3.99354,1.26127 2.07417,2.09108 -3.2447,1.4026 -5.82301,-0.58002 -8.4912,0.78338 -1.06969,0.54667 0.0603,2.22249 -0.50151,3.18378 -0.0375,1.78558 -9.09694,1.91821 -11.96649,0.53805 -3.65025,1.71274 -5.60029,5.7802 -8.85742,5.31176 -0.80599,1.7179 -1.45453,7.90761 -1.83423,9.93223 -3.40907,2.76469 -15.50736,12.39038 -23.37137,15.99052 -24.25773,11.10495 -53.30376,8.79238 -77.47571,20.08298 -46.50977,21.7243 -49.53692,43.798197 -76.84835,62.268054 -10.21804,6.910202 -32.32871,18.010355 -32.32872,18.010355 0,0 19.75505,-0.781026 28.82107,-4.263882 13.55905,-5.209076 36.28734,-24.127087 36.28734,-24.127087 0,0 -8.89358,19.416617 -15.02495,28.084693 -5.74613,8.12368 -12.47579,15.686205 -20.12829,22.046421 -6.56575,5.456928 -21.75741,13.520113 -21.75741,13.520113 0,0 28.50584,-8.186068 40.76217,-16.141552 10.38965,-6.743815 26.55949,-25.987917 26.55949,-25.987917 0,0 21.01896,-3.218794 31.55566,-2.605018 9.19244,0.535473 17.93115,5.133578 27.04027,5.951489 0.81801,-1.609145 2.47505,-4.806121 3.96803,-6.724542 1.32287,-1.699626 4.62651,-4.507525 4.62651,-4.507525 l -12.10961,4.473967 c 0,0 4.81507,-14.303503 8.86345,-20.581406 6.58438,-10.210625 19.82848,-15.743864 24.5502,-26.938423 2.41027,-5.71439 1.10243,-18.57291 1.10243,-18.57291 0,0 2.81145,14.10605 0.56466,20.59743 -3.80408,10.99126 -15.62554,17.310939 -22.31563,26.825263 -3.25954,4.635576 -8.61622,14.654588 -8.61622,14.654588 l 17.9381,-4.528168 c 0,0 -9.08181,6.66403 -12.43909,11.090628 -0.81554,1.07535 -1.6562,2.696561 -2.42785,4.317576 l -6.22445,11.333606 c -7.45647,11.572961 -1.1012,7.49267 1.52562,7.635984 l 4.25049,-2.242846 c 0.29182,1.989955 -3.46102,4.138699 2.95833,5.889934 -0.16357,2.92297 0.61504,5.289089 5.02405,5.497301 -2.51198,4.050108 -4.16407,7.558742 2.86697,5.605801 -0.75309,5.493322 1.65472,9.1437372 3.68052,13.01700649 2.60047,1.68744581 3.01077,7.28392011 11.5324,-1.60286649 1.71349,4.8298788 0.32568,13.718997 8.16101,10.537903 l 3.17788,9.268331 c 4.56432,10.125409 7.83127,2.955484 11.57177,2.151304 4.29468,4.312194 8.14124,15.528526 13.20784,7.867219 0,0 5.3826,10.277071 10.37412,11.035188 2.93579,0.445823 7.75659,-4.389502 7.75659,-4.389502 0,0 3.28765,16.763855 10.00776,17.754234 3.72286,0.548567 8.15014,-7.819263 8.15013,-7.819263 4.32766,4.20464 8.1248,14.863158 13.09941,11.195981 l 2.91627,-9.78008 c 2.05587,-0.358521 2.4425,6.028568 6.32568,-1.702398 l 2.8823,-8.052717 c 0,0 4.01112,11.63807 8.0295,16.081219 7.67465,8.492735 34.98177,27.94371 24.77031,14.571281 0,0 -8.08595,-12.621683 -9.59823,-19.797217 -0.70741,-3.364016 0.37248,-10.310711 0.37248,-10.310711 0,0 9.20583,8.533386 14.67621,11.47051 6.59645,3.541751 13.85461,6.365744 21.30422,7.114941 18.51745,1.862165 12.32835,-0.612928 9.47284,-2.143673 -5.89385,-3.153015 -8.43035,-4.602116 -11.81245,-7.929051 -5.28951,-5.20332 -12.71068,-18.280838 -12.71068,-18.280854 0,0 12.49432,11.149101 20.04179,14.434587 7.64732,3.32899 16.20086,5.145596 24.5378,4.900142 4.69896,-0.138276 13.64438,-3.568706 13.64438,-3.568706 0,0 -15.78296,-1.503872 -22.61498,-5.116702 -7.36075,-3.892331 -18.26898,-17.0376 -18.26898,-17.0376 0,0 13.79454,5.579141 20.97415,7.451856 9.33177,2.434197 18.88193,4.511585 28.51932,4.866779 6.90272,0.254407 14.0873,0.241917 20.63029,-1.971709 4.42254,-1.492915 11.88561,-7.405693 11.88561,-7.405693 0,0 -14.48427,1.944804 -21.76349,1.843511 -8.60116,-0.120167 -17.50562,-0.111198 -25.64551,-2.893985 -10.24881,-3.503628 -19.81587,-9.526326 -27.76328,-16.8851721 -3.37835,-3.1281815 -8.06283,-11.2124505 -8.06283,-11.2124505 0,0 19.42254,13.3509866 30.39482,17.2738746 8.54173,3.053859 17.74882,4.746229 26.81892,4.600893 8.18303,-0.1311 15.9547,-3.753827 24.05446,-4.925578 5.13946,-0.743327 15.52213,-1.330475 15.52213,-1.330507 7.24448,-3.1441454 4.37401,-3.767851 0.36113,-4.1129845 l -7.09775,0.6560895 4.87542,-4.559639 c 7.32832,-5.3897138 -2.18408,-4.4653739 -3.68092,-3.61744399 C 791.43833,4.1757005 786.79062,7.350827 779.0689,8.395897 772.21562,9.32327 765.22968,7.1678571 758.53038,5.4513538 c -7.02961,-1.8012945 -20.37926,-7.6561052 -20.37926,-7.6561052 0,0 15.41678,2.75752909 23.12144,2.05420109 4.6769,-0.4268756 13.57164,-3.76912259 13.57164,-3.76913889 0,0 -8.43296,-1.3163207 -12.6885,-1.4138307 -10.90724,-0.249841 -18.89118,-0.6940499 -28.04158,-2.8136051 -9.68815,-2.244085 -18.45411,-7.487061 -27.96943,-10.377484 -11.84757,-3.598807 -14.08937,-1.462684 -36.12953,-8.625613 l -0.0416,9.270614 c -2.68958,6.334224 -6.56274,1.309994 -9.87946,1.612552 -0.1448,4.853001 -3.91278,3.776183 -6.25793,5.032873 l -6.19367,-1.873318 c -0.18373,2.633228 -2.58217,2.090791 -4.82228,1.773509 l 0.56642,5.2377575 -4.75762,-2.1763985 c 1.92497,-0.450943 0.2281,-5.550654 0.75043,-7.802289 3.1525,1.400444 6.50221,3.677646 6.47053,-8.981084 0,0 2.09862,6.905082 5.06742,7.81323 1.6845,0.515205 3.92188,3.697066 4.86426,-2.065273 l 0.0986,-15.955483 c 0,0 0.27024,5.971366 1.38418,8.681069 0.99635,2.423794 1.98675,6.024801 4.58188,6.389453 2.24055,0.314886 4.9972,0.644724 5.32198,-4.216217 L 666.36085,-34.8754 c 0,0 7.28834,4.505536 11.2449,6.093515 7.0423,2.826699 14.43814,5.022339 21.96346,5.998874 5.9035,0.76609 12.06145,1.202929 17.85704,-0.15719 10.49242,-2.463368 -0.93618,-4.307026 -3.47806,-4.315211 -8.67649,-0.02854 -13.65358,-0.856638 -20.04965,-3.046815 -4.66423,-1.59711 -8.91307,-4.326104 -12.91619,-7.203808 -16.28185,-11.704438 -31.71896,-25.020513 -44.52244,-40.453095 -3.65774,-4.408922 -5.89032,-6.565721 -9.00588,-14.41458 -1.2331,-5.69661 -3.23193,-13.3234 -5.94257,-17.60843 -2.17425,-3.43737 -5.246,-6.79204 -9.0824,-8.14277 -8.29383,-2.92 -26.34304,1.41649 -26.34304,1.41649 0,0 17.50464,-7.38885 25.96432,-4.93214 4.71039,1.3679 8.07492,5.94448 10.73889,10.06291 3.21928,4.97719 5.88791,14.49833 7.26269,19.964209 2.74727,-3.74424 5.49779,-8.502109 7.58918,-12.424319 1.06981,-1.68635 1.98993,-3.12567 3.11923,-4.93552 l -0.34208,3.5627 10.18318,-19.49973 1.24547,-2.81543 c 1.47483,-2.69706 2.8666,-5.33046 4.02837,-7.76736 3.04817,-6.39333 5.21495,-13.18956 7.32441,-19.95098 0.85918,-2.75396 -0.0233,-5.06814 2.16388,-8.37654 -0.71362,2.7378 0.0163,8.03075 0.0163,8.03075 0,0 8.07144,0.0605 13.91017,-4.93016 l -9.4263,-8.29238 c 2.50377,-3.78729 -2.9542,-5.43761 -4.92356,-7.63176 -3.08093,-3.4325 -2.63569,-2.27081 -6.20501,-6.09502 -1.02458,-1.36406 -2.74822,-2.38095 -3.82421,-1.83125 2.21338,1.4177 0.64484,2.16176 -1.61045,1.69445 -2.91664,-0.60453 -7.98142,-1.05321 -12.16045,0.003 -5.01523,0.33468 -8.53839,0.0757 -11.44846,0.79337 z m -31.13466,28.16787 c -0.82797,2.21301 -0.87682,4.31417 -0.84731,7.1114 l 3.14485,-2.20456 c 0.76153,4.5391 0.52783,11.40346 2.36149,13.42279 0.94358,-0.91706 1.621,-2.24627 3.02294,-2.45682 0.80627,3.73827 5.77025,6.39332 9.14095,9.46671 -3.38694,-2.55192 -7.63486,-4.3207 -9.88801,-7.898 -0.93261,0.93115 -1.53047,2.06237 -2.04866,4.202 -1.56109,-1.6235 -4.73364,-6.79358 -4.0842,-13.37928 -2.14137,1.25393 -1.75841,3.06725 -3.19394,4.81087 0.20987,-4.68083 0.0261,-9.80474 2.39189,-13.07511 z m 37.47946,-0.67492 c 1.60564,-0.21149 3.6248,0.9834 4.291,2.4212 0.73353,1.58437 0.12213,4.25126 -1.43605,5.03892 -1.66888,0.84379 -4.44239,-0.27777 -5.25315,-1.96282 -0.80857,-1.68097 0.0333,-4.56898 1.74084,-5.31999 0.20719,-0.0911 0.42802,-0.14708 0.65736,-0.17726 z m -228.46645,83.95564 c -9.26743,2.100673 -37.47915,15.026072 -43.97526,17.986464 -48.41435,22.06317 -71.54939,47.6876239 -116.6378,75.932424 -15.5566,9.745071 -48.84152,25.438957 -48.84153,25.438957 0,0 18.53421,-0.629429 27.29458,-3.322435 10.63171,-3.268218 20.69232,-8.038498 30.49164,-13.406541 0,0 45.41936,-34.9115866 69.90744,-49.651847 18.11134,-10.901837 56.65428,-28.500839 56.65428,-28.500855 21.21426,-5.983368 40.85869,-20.585891 59.54644,-40.453631 0,0 -14.05139,11.356139 -34.43979,15.977464 z m -25.10665,24.476167 c 0,0 -37.95442,19.996885 -55.9684,31.590554 C 301.3944,1.5898412 259.89811,32.985619 242.02248,46.656253 231.23391,58.113 218.07665,72.271265 209.47387,82.309258 182.39643,113.90374 155.54451,145.87139 131.92442,180.12767 114.02784,206.08318 83.542084,261.40018 83.5421,261.4002 c 0,0 19.88199,-19.13113 28.89081,-29.55279 16.6248,-19.23216 30.05432,-41.04502 46.24563,-60.64351 23.99694,-29.0466 75.33218,-84.267382 75.33218,-84.267382 22.87944,-25.794477 50.50143,-52.315975 87.77793,-80.3139998 z m 168.9788,-44.667093 c -2.73108,7.363673 -7.69403,15.493827 -5.89133,21.302491 4.74595,4.095113 10.55972,1.906991 16.02786,1.767835 0,0 -4.98923,8.94301 -6.22735,13.851223 -0.26315,1.042558 -0.38112,2.582875 -0.44519,3.974741 -0.9371,5.482398 -2.52986,12.418756 -0.26592,10.776625 l 4.14299,-3.009849 c 0,0 -3.23846,6.131704 -3.72713,10.029122 -0.37118,2.959887 2.30375,9.732727 5.89878,6.737358 0,0 3.33829,-7.28798 5.50153,-10.645848 2.50754,-3.892135 8.60011,-10.910024 8.60011,-10.910024 0,0 -4.93302,8.859834 -6.91053,13.516429 -1.11864,2.634141 -2.78595,8.119164 -2.78595,8.11918 0.0889,4.6051 1.51015,6.38505 5.61925,2.452753 l 3.73056,-8.840461 -0.13941,11.191057 c 1.71692,12.524499 5.42594,7.450046 6.47041,4.944005 1.6954,-4.068143 2.80018,-8.316043 5.01666,-12.066642 0.66672,-1.128247 1.59305,-2.434947 2.59126,-3.779543 -2.00333,4.267338 -4.19039,10.267533 -4.08344,16.199846 0.0587,3.227844 -3.15898,7.045314 -6.3781,7.290948 -2.44098,0.186117 -4.41797,-2.595023 -5.61911,-4.728113 -1.68947,-3.000782 -1.58886,-10.211097 -1.58886,-10.211097 l -3.95265,6.341383 -3.78978,-8.787288 -4.15217,3.915747 c -2.93146,-1.363836 -4.44747,-4.073181 -5.10024,-6.632168 l -0.4525,-6.505845 c -1.72116,0.565966 -3.17093,-0.228611 -3.44694,-6.804605 l 2.40543,-8.09438 2.17526,-7.010713 -0.13958,0.0212 c 1.75226,-4.474358 4.75288,-10.696218 4.75281,-10.696201 0,0 -9.22509,2.284572 -16.54672,0.192753 -0.89978,-8.55416 4.78223,-16.093824 8.70998,-23.902292 z m -163.86743,52.141045 c 0,0 -112.05659,83.320424 -157.36658,135.713689 -26.92054,31.129112 -39.09511,73.276382 -66.30424,104.153532 -8.91878,10.12122 -31.13047,25.85396 -31.13047,25.85396 0,0 31.24258,-5.35996 38.36014,-17.47565 27.96538,-47.6032 40.02989,-78.77968 69.14982,-111.35386 22.80506,-25.510183 52.50238,-44.040699 80.61176,-63.552283 21.42968,-14.875094 66.88434,-40.635769 66.88434,-40.635769 20.84281,-12.774063 35.50397,-25.419161 38.58933,-37.819361 -12.7572,2.871494 -25.49968,5.869521 -38.7941,5.115742 z m 210.73009,-4.298694 c 0,0 -3.24177,7.647219 -3.94554,11.703311 -0.75344,4.342002 -0.68603,9.089356 -0.24221,13.216152 1.14959,10.691375 8.47641,13.303177 9.15143,11.592234 l 4.9654,-10.162782 c -0.76801,5.044923 -1.13885,10.4158844 -1.98475,14.1741635 0,0 -5.90851,-0.4591452 -8.36498,-1.9279598 -2.10054,-1.2560373 -3.93088,-3.2508847 -4.84428,-5.5214987 -2.82976,-7.034601 -1.84825,-20.651784 -1.41804,-25.275652 3.35204,-4.111191 6.68297,-7.797968 6.68297,-7.797968 z m 19.46989,6.853669 c 0,0 -0.39745,12.411123 1.46512,18.206955 1.09949,3.421576 3.34256,6.410276 5.55959,9.238638 2.20386,2.8114861 7.08871,5.0193715 5.70606,-0.76141 l -0.30366,-7.857012 4.4684,7.221208 c 0,0 -2.34041,7.6123068 -5.60705,8.290393 -3.70634,0.767476 -7.23552,-3.1272846 -9.58499,-6.094819 -3.36622,-4.251895 -5.6979,-13.600061 -6.66922,-18.096775 z m 102.04879,28.02493 c 19.43955,13.2334854 35.50523,16.623966 51.72981,20.484141 0,0 -20.22449,-1.29827 -29.44543,-5.0660225 C 733.74718,3.9009928 719.82281,-8.100996 719.82281,-8.100996 Z"
       id="path4157-3"
       inkscape:connector-curvature="0"
       sodipodi:nodetypes="ccccccsccccccsccccccccccccccccccccccccccccccccssccccccccccccscccsccccccccccccccccccccccccccccccccccccccccccccccccccccccccccccccccccccccscccccccccccccccccccccccsccccccccccccccccccccccccccccccccccccccccccccccccccccccccccccccccccccccccccccccccccccccccccccccccccccccccccccccscccccccccccccccccccccccccccccccccsccccscccccsccccccccccccccccccccccccccccccccccccccccccsscccccccccccccccccccccccccccc" />
    <rect
       style="opacity:1;fill:#37abc8;fill-opacity:1;stroke:none;stroke-width:3.63575721;stroke-linecap:round;stroke-linejoin:round;stroke-miterlimit:4;stroke-dasharray:none;stroke-opacity:1;paint-order:stroke markers fill"
       id="rect4496"
       width="639.82739"
       height="116.07314"
       x="259.8876"
       y="146.40164" />
    <rect
       x="494.57849"
       id="rect4"
       height="116.0727"
       width="406.08527"
       y="17.643961"
       style="opacity:1;stroke-width:1.12801456" />
    <path
       style="opacity:1;fill:#ffffff;stroke-width:1.12801456"
       inkscape:connector-curvature="0"
       id="path6"
       d="m 882.38991,101.00426 c -0.78955,0.2256 -1.46635,0.3384 -2.14316,0.3384 -2.3689,0 -3.49691,-1.01521 -3.49691,-3.94805 V 75.398327 c 0,-11.618549 -9.24972,-17.258622 -20.1914,-17.258622 -8.34736,0 -12.85942,1.015213 -21.77074,4.62486 l -1.80482,11.731347 11.61855,1.240821 1.69203,-5.752873 c 2.36883,-1.240821 4.73764,-1.466424 7.78334,-1.466424 8.23445,0 8.34732,6.20408 8.34732,11.392944 v 1.692028 c -2.5945,-0.338406 -5.52734,-0.451208 -8.34732,-0.451208 -11.61859,0 -23.68835,2.932838 -23.68835,15.4538 0,10.60334 8.34731,14.55139 15.67941,14.55139 8.23454,0 13.42342,-4.96326 16.35626,-10.15213 0.6768,6.20408 4.39919,10.15213 11.16728,10.15213 3.15844,0 6.42974,-0.90241 9.13698,-2.36883 z m -31.1332,-0.3384 c -4.39925,0 -5.97847,-2.59443 -5.97847,-5.86568 0,-5.527278 4.51211,-6.993692 9.70098,-6.993692 2.36877,0 4.96326,0.338406 7.33203,0.676812 -0.33834,8.46011 -5.86568,12.18256 -11.05454,12.18256 z M 831.74206,32.420972 809.74577,109.91558 h -14.32579 l 21.99629,-77.494608 z m -29.55399,0 -21.99628,77.494608 h -14.32578 l 21.99628,-77.494608 z m -60.91278,26.733946 h 15.22819 V 77.42875 h -15.22819 z m 0,32.599622 h 15.22819 v 18.27384 h -15.22819 z m -22.2219,-0.67681 11.50575,1.12801 -3.15844,17.82264 h -44.33098 l -1.46642,-7.67051 27.97476,-32.148406 h -15.90501 l -2.25602,7.896097 -10.49054,-1.128019 1.80483,-17.822624 h 44.55658 l 1.12802,7.6705 -28.20038,32.148412 h 16.46902 z M 646.29645,58.139705 c -18.27384,0 -27.29797,12.295351 -27.29797,27.185154 0,16.243401 10.82895,25.831531 26.50835,25.831531 16.24342,0 27.97477,-10.26493 27.97477,-26.508343 0,-14.212991 -8.91132,-26.508342 -27.18515,-26.508342 z m -0.33841,41.736535 c -7.89611,0 -11.95695,-6.76809 -11.95695,-15.566598 0,-9.588126 4.62485,-15.115395 12.06975,-15.115395 6.88088,0 12.40816,4.624854 12.40816,14.889791 0,9.813732 -4.96327,15.792202 -12.52096,15.792202 z m -40.04452,-1.01521 h 6.76808 v 11.05455 H 591.47493 V 81.376804 c 0,-8.798512 -2.93284,-12.182557 -8.68571,-12.182557 -6.99368,0 -9.81373,4.96326 -9.81373,12.069755 V 98.97383 h 6.76809 v 11.05455 H 558.4241 V 81.376804 c 0,-8.798512 -2.93283,-12.182557 -8.68571,-12.182557 -6.99369,0 -9.81373,4.96326 -9.81373,12.069755 V 98.97383 h 9.70093 v 11.05455 h -30.9076 V 98.97383 h 6.76809 V 70.209464 h -6.76809 V 59.154918 h 21.31948 v 7.6705 c 3.04563,-5.414471 8.3473,-8.685713 15.4538,-8.685713 7.33209,0 14.10018,3.496846 16.58181,10.94174 2.82004,-6.768085 8.57291,-10.94174 16.58181,-10.94174 9.13692,0 17.48424,5.527271 17.48424,17.597028 V 98.86103 Z"
       class="st0" />
    <text
       xml:space="preserve"
       style="font-style:normal;font-weight:normal;font-size:105.30221558px;line-height:1;font-family:sans-serif;text-align:end;letter-spacing:0px;word-spacing:0px;text-anchor:end;opacity:1;fill:#ffffff;fill-opacity:1;stroke:none;stroke-width:11.2823782"
       x="887.7865"
       y="228.26097"
       id="text4512"><tspan
         sodipodi:role="line"
         id="tspan4510"
         x="887.7865"
         y="228.26097"
         style="font-style:normal;font-variant:normal;font-weight:normal;font-stretch:normal;font-family:'Zilla Slab';-inkscape-font-specification:'Zilla Slab';text-align:end;text-anchor:end;fill:#ffffff;stroke-width:11.2823782">guatemala</tspan></text>
  </g>
</svg>
