<?xml version="1.0" encoding="UTF-8" standalone="no"?>
<!-- Created with Inkscape (http://www.inkscape.org/) -->

<svg
   xmlns:dc="http://purl.org/dc/elements/1.1/"
   xmlns:cc="http://creativecommons.org/ns#"
   xmlns:rdf="http://www.w3.org/1999/02/22-rdf-syntax-ns#"
   xmlns:svg="http://www.w3.org/2000/svg"
   xmlns="http://www.w3.org/2000/svg"
   xmlns:sodipodi="http://sodipodi.sourceforge.net/DTD/sodipodi-0.dtd"
   xmlns:inkscape="http://www.inkscape.org/namespaces/inkscape"
   id="svg2"
   version="1.1"
   inkscape:version="0.92.2 (unknown)"
   width="1340.2804"
   height="685.28052"
   viewBox="0 0 1256.5129 642.4505"
   sodipodi:docname="logoGuatemala_MozillaCOLOR.svg"
   inkscape:export-filename="/media/keik/Datos/GITHUB/logosMozCA/PorPais/Guatemala/logoGuatemala_MozillaCOLOR.png"
   inkscape:export-xdpi="300"
   inkscape:export-ydpi="300">
  <title
     id="title4536">LogoMozillaHonduras</title>
  <metadata
     id="metadata8">
    <rdf:RDF>
      <cc:Work
         rdf:about="">
        <dc:format>image/svg+xml</dc:format>
        <dc:type
           rdf:resource="http://purl.org/dc/dcmitype/StillImage" />
        <dc:title>LogoMozillaHonduras</dc:title>
        <cc:license
           rdf:resource="http://creativecommons.org/licenses/by-nd/4.0/" />
        <dc:creator>
          <cc:Agent>
            <dc:title>KarlaLHdz</dc:title>
          </cc:Agent>
        </dc:creator>
        <dc:source>Mozilla El Salvador</dc:source>
        <dc:description>Hecho para Mozilla Centroamerica en el año 2017</dc:description>
      </cc:Work>
      <cc:License
         rdf:about="http://creativecommons.org/licenses/by-nd/4.0/">
        <cc:permits
           rdf:resource="http://creativecommons.org/ns#Reproduction" />
        <cc:permits
           rdf:resource="http://creativecommons.org/ns#Distribution" />
        <cc:requires
           rdf:resource="http://creativecommons.org/ns#Notice" />
        <cc:requires
           rdf:resource="http://creativecommons.org/ns#Attribution" />
      </cc:License>
    </rdf:RDF>
  </metadata>
  <defs
     id="defs6" />
  <sodipodi:namedview
     pagecolor="#ffffff"
     bordercolor="#666666"
     borderopacity="1"
     objecttolerance="10"
     gridtolerance="10"
     guidetolerance="10"
     inkscape:pageopacity="0"
     inkscape:pageshadow="2"
     inkscape:window-width="1332"
     inkscape:window-height="715"
     id="namedview4"
     showgrid="false"
     showborder="true"
     inkscape:zoom="0.53794714"
     inkscape:cx="670.1402"
     inkscape:cy="342.64026"
     inkscape:window-x="34"
     inkscape:window-y="0"
     inkscape:window-maximized="1"
     inkscape:current-layer="layer2"
     borderlayer="true"
     inkscape:showpageshadow="false"
     units="px"
     showguides="true"
     fit-margin-top="0"
     fit-margin-left="0"
     fit-margin-right="0"
     fit-margin-bottom="0"
     inkscape:guide-bbox="true"
     inkscape:measure-start="0,0"
     inkscape:measure-end="0,0">
    <sodipodi:guide
       position="1090.1971,627.5121"
       orientation="1,0"
       id="guide1228"
       inkscape:locked="false" />
    <sodipodi:guide
       position="166.31595,476.13455"
       orientation="1,0"
       id="guide1321"
       inkscape:locked="false" />
    <sodipodi:guide
       position="1090.197,476.13455"
       orientation="0,1"
       id="guide1343"
       inkscape:locked="false" />
    <sodipodi:guide
       position="1090.197,166.31595"
       orientation="0,1"
       id="guide1345"
       inkscape:locked="false" />
  </sodipodi:namedview>
  <g
     inkscape:groupmode="layer"
     id="layer2"
     inkscape:label="Layer 2"
     style="opacity:1"
     transform="translate(-29.083954,391.35416)">
    <g
       id="g981"
       transform="translate(1.7836798,-0.11632355)">
      <g
         id="g970">
        <rect
           style="opacity:1;fill:#ffffff;fill-opacity:1;stroke:none;stroke-width:21.59464264;stroke-linecap:round;stroke-linejoin:round;stroke-miterlimit:4;stroke-dasharray:none;stroke-dashoffset:0;stroke-opacity:1;paint-order:stroke markers fill"
           id="rect942"
           width="463.94724"
           height="112.57552"
           x="200.40767"
           y="-27.795115"
           rx="8.9870005"
           ry="1.3427939" />
        <g
           transform="matrix(1.4937757,0,0,1.4937757,-627.29597,-254.58326)"
           style="opacity:1"
           id="g824">
          <rect
             style="opacity:1;stroke-width:1.03907907"
             y="19.778772"
             width="374.06848"
             height="106.92123"
             id="rect4"
             x="550.74927" />
          <path
             class="st0"
             d="m 907.98463,96.566727 c -0.7273,0.207819 -1.35075,0.311723 -1.97419,0.311723 -2.18212,0 -3.2212,-0.935168 -3.2212,-3.636774 V 72.979634 c 0,-10.702513 -8.52046,-15.897909 -18.59946,-15.897909 -7.68924,0 -11.84554,0.935171 -20.05428,4.260224 l -1.66252,10.806422 10.70252,1.142988 1.55861,-5.299304 c 2.18207,-1.142987 4.36413,-1.350803 7.16969,-1.350803 7.58522,0 7.68918,5.714935 7.68918,10.494698 v 1.558619 c -2.38993,-0.311723 -5.09153,-0.415631 -7.68918,-0.415631 -10.70256,0 -21.8207,2.701605 -21.8207,14.235383 0,9.767349 7.68918,13.404119 14.44319,13.404119 7.58533,0 12.3651,-4.57195 15.06669,-9.351713 0.62345,5.714943 4.05236,9.351713 10.28683,9.351713 2.90943,0 5.92281,-0.83126 8.4166,-2.18206 z m -28.67858,-0.311722 c -4.0524,0 -5.50711,-2.389881 -5.50711,-5.403211 0,-5.091487 4.15636,-6.44229 8.93613,-6.44229 2.182,0 4.57194,0.311724 6.75395,0.623447 -0.31166,7.793094 -5.40321,11.222054 -10.18297,11.222054 z M 861.32999,33.390723 841.06794,104.77545 h -13.19631 l 20.26204,-71.384727 z m -27.22388,0 -20.26204,71.384727 H 800.64776 L 820.9098,33.390723 Z m -56.11027,24.626173 h 14.02757 v 16.833081 h -14.02757 z m 0,30.029385 h 14.02757 v 16.833079 h -14.02757 z m -20.46987,-0.623448 10.59862,1.039079 -2.90942,16.417448 h -40.83582 l -1.3508,-7.065732 25.76916,-29.613758 H 734.1467 l -2.07817,7.273554 -9.66343,-1.039079 1.66253,-16.417449 h 41.04363 l 1.03908,7.065737 -25.97699,29.613753 h 15.17056 z m -67.0206,-30.341108 c -16.83308,0 -25.14571,11.325962 -25.14571,25.041805 0,14.962738 9.97516,23.79491 24.41836,23.79491 14.96274,0 25.76915,-9.455617 25.76915,-24.418357 0,-13.092396 -8.20872,-24.418358 -25.0418,-24.418358 z m -0.31172,38.445925 c -7.27356,0 -11.01424,-6.234474 -11.01424,-14.339291 0,-8.832172 4.26022,-13.923659 11.11815,-13.923659 6.33838,0 11.42986,4.260224 11.42986,13.715843 0,9.039988 -4.57194,14.547107 -11.53377,14.547107 z m -36.88731,-0.935172 h 6.23448 V 104.77545 H 640.00614 V 78.486753 c 0,-8.104816 -2.70161,-11.222053 -8.00092,-11.222053 -6.44229,0 -9.03998,4.571948 -9.03998,11.118146 v 16.31354 h 6.23447 v 10.182974 h -19.6386 V 78.486753 c 0,-8.104816 -2.7016,-11.222053 -8.0009,-11.222053 -6.44229,0 -9.03999,4.571948 -9.03999,11.118146 v 16.31354 h 8.93608 V 104.87936 H 572.98553 V 94.696386 H 579.22 V 68.19987 h -6.23447 V 58.016896 h 19.6386 v 7.065737 c 2.80551,-4.987579 7.68918,-8.000908 14.23538,-8.000908 6.75402,0 12.98849,3.221145 15.27446,10.079066 2.5977,-6.234473 7.897,-10.079066 15.27446,-10.079066 8.41654,0 16.10573,5.091487 16.10573,16.209634 v 21.301119 z"
             id="path6"
             inkscape:connector-curvature="0"
             style="opacity:1;fill:#ffffff;stroke-width:1.03907907" />
        </g>
        <g
           aria-label="guatemala"
           style="font-style:normal;font-weight:normal;font-size:104.11315918px;line-height:1;font-family:sans-serif;text-align:end;letter-spacing:0px;word-spacing:0px;text-anchor:end;opacity:1;fill:#37abc8;fill-opacity:1;stroke:none;stroke-width:11.15497875"
           id="text4512-7">
          <path
             style="font-style:normal;font-variant:normal;font-weight:normal;font-stretch:normal;font-family:'Zilla Slab Highlight';-inkscape-font-specification:'Zilla Slab Highlight';text-align:end;text-anchor:end;fill:#37abc8;fill-opacity:1;stroke-width:11.89864349"
             d="M 177.4043,382.63477 V 508.125 h 26.20898 c -4.88638,-0.22211 -9.2183,-1.51757 -12.99414,-3.88672 -3.77584,-2.36915 -6.29217,-5.92185 -7.55078,-10.66016 l 6.21875,-3.10937 c 0.66632,1.92494 1.55352,3.55212 2.66406,4.88477 1.18458,1.40668 2.48004,2.55492 3.88672,3.44336 1.48072,0.88843 3.03722,1.51849 4.66602,1.88867 1.62879,0.44421 3.29326,0.66601 4.99609,0.66601 4.7383,0 8.58934,-1.62913 11.55078,-4.88672 3.03548,-3.18354 4.55274,-7.88449 4.55274,-14.10351 v -7.9961 c -1.48072,2.88741 -3.62804,5.40374 -6.44141,7.55079 -2.81337,2.14704 -6.55253,3.2207 -11.2168,3.2207 -2.96144,0 -5.73686,-0.51818 -8.32812,-1.55469 -2.51722,-1.0365 -4.73912,-2.59105 -6.66407,-4.66406 -1.92493,-2.07301 -3.44219,-4.58934 -4.55273,-7.55078 -1.11053,-2.96144 -1.66601,-6.40422 -1.66601,-10.32813 -10e-6,-3.33162 0.40631,-6.58989 1.2207,-9.77344 0.88843,-3.25758 2.22118,-6.14488 3.99804,-8.6621 1.8509,-2.59126 4.14739,-4.664 6.88672,-6.21875 2.81337,-1.55476 6.14427,-2.33204 9.99414,-2.33204 3.77584,0 7.10674,0.77728 9.99414,2.33204 2.88741,1.48072 5.1466,3.62803 6.7754,6.4414 v -7.77344 h 15.88086 v 6.33008 h -7.9961 v 41.31055 c 0,7.62571 -2.03543,13.69669 -6.10742,18.21289 -3.99795,4.5162 -9.69992,6.92261 -17.10352,7.21875 h 31.64258 2.67383 61.95898 53.26172 40.70313 51.77148 95.59375 53.12696 29.04101 53.16406 V 382.63477 h -53.16406 -29.04101 -53.12696 -95.59375 -51.77148 -40.70313 -53.26172 -61.95898 -2.67383 z m 420.10547,25.43164 h 16.54882 v 70.07421 h 8.66211 v 6.33008 h -25.09961 v -6.33008 h 8.66211 v -63.74414 h -8.77343 z m -233.64258,11.10547 h 7.77343 v 15.88085 h 19.32422 v 6.21875 h -19.32422 v 27.65235 c 10e-6,3.03547 0.55548,5.44188 1.66602,7.21875 1.18458,1.77686 3.2946,2.66406 6.33008,2.66406 1.92493,0 3.55407,-0.59081 4.88672,-1.77539 1.33264,-1.18458 2.36901,-3.77745 3.10937,-7.77539 l 5.9961,1.88867 c -0.74036,4.81234 -2.29491,8.43962 -4.66407,10.88281 -2.36915,2.36916 -5.77463,3.55469 -10.21679,3.55469 -4.96042,0 -8.69957,-1.37004 -11.2168,-4.10937 -2.44319,-2.81337 -3.66406,-6.66245 -3.66406,-11.54883 v -28.65235 h -7.9961 v -6.21875 h 7.9961 z m -36.37305,14.88085 c 5.77481,0 10.14403,1.37005 13.10547,4.10938 3.03548,2.73933 4.55273,6.8848 4.55273,12.4375 v 23.54297 c 0,3.55373 1.40734,5.33203 4.22071,5.33203 1.18458,0 2.29553,-0.22375 3.33203,-0.66797 l 0.10937,5.10938 c -0.88843,0.51825 -1.88751,0.92456 -2.99804,1.2207 -1.11055,0.29614 -2.25683,0.44531 -3.44141,0.44531 -2.8874,0 -5.1093,-0.88915 -6.66406,-2.66601 -1.48072,-1.77687 -2.25799,-4.22057 -2.33203,-7.33008 v -0.22071 c -1.55476,2.6653 -3.77666,5.03442 -6.66407,7.10743 -2.81337,2.07301 -6.21885,3.10937 -10.21679,3.10937 -1.6288,0 -3.33056,-0.2218 -5.10743,-0.66601 -1.77686,-0.44422 -3.406,-1.18616 -4.88671,-2.22266 -1.40669,-1.11054 -2.59222,-2.55321 -3.55469,-4.33008 -0.96247,-1.77686 -1.44336,-3.99876 -1.44336,-6.66406 0,-3.10951 0.66736,-5.62585 2,-7.55078 1.40668,-1.99897 3.18303,-3.55352 5.33008,-4.66406 2.22107,-1.18458 4.70207,-1.96186 7.4414,-2.33204 2.73933,-0.44421 5.51476,-0.66601 8.32813,-0.66601 1.48072,0 2.96069,0.0353 4.44141,0.10937 1.55475,0.074 2.99938,0.18591 4.33203,0.33399 v -4.44141 c 0,-3.55373 -0.77728,-6.44103 -2.33203,-8.66211 -1.48073,-2.22108 -4.44261,-3.33203 -8.88477,-3.33203 -1.70283,0 -3.36925,0.14722 -4.99805,0.44336 -1.55475,0.29614 -3.07201,0.81433 -4.55273,1.55469 l -1.88672,8.55078 -6.44141,-0.77735 1.77539,-11.4375 c 2.59126,-1.70282 5.33135,-2.9237 8.21875,-3.66406 2.88741,-0.74036 5.95921,-1.11133 9.2168,-1.11133 z m 94.36328,0 c 3.40566,0 6.40484,0.59277 8.9961,1.77735 2.59126,1.11054 4.77586,2.66509 6.55273,4.66406 1.77686,1.99897 3.10961,4.3308 3.99805,6.99609 0.96246,2.59127 1.44336,5.33135 1.44336,8.21875 0,1.92494 -0.2218,3.8858 -0.66602,5.88477 h -34.75976 c 0.2221,5.5527 1.66477,9.84734 4.33007,12.88281 2.6653,2.96144 6.44175,4.44141 11.32813,4.44141 3.92391,0 6.95842,-0.8872 9.10547,-2.66406 2.22107,-1.8509 3.73833,-4.3319 4.55273,-7.44141 l 6.55274,1.44336 c -0.37018,2.14704 -1.07287,4.14715 -2.10938,5.99805 -1.0365,1.8509 -2.44383,3.47808 -4.2207,4.88476 -1.70283,1.33265 -3.77557,2.40631 -6.21875,3.22071 -2.4432,0.81439 -5.18328,1.22265 -8.21875,1.22265 -3.4797,0 -6.66338,-0.55547 -9.55078,-1.66601 -2.88741,-1.11054 -5.36645,-2.73968 -7.43946,-4.88672 -1.99897,-2.14705 -3.55352,-4.77526 -4.66406,-7.88477 -1.11054,-3.10951 -1.66601,-6.66221 -1.66602,-10.66015 0,-3.84988 0.51819,-7.36724 1.55469,-10.55079 1.03651,-3.25758 2.51647,-6.03496 4.44141,-8.33007 1.99897,-2.36916 4.40538,-4.22009 7.21875,-5.55274 2.81337,-1.33265 5.95976,-1.99805 9.43945,-1.99805 z m 61.2793,0 c 3.84987,0 7.18272,0.96179 9.99609,2.88672 2.88741,1.8509 4.84826,4.85008 5.88477,8.9961 1.48072,-3.4797 3.66532,-6.3297 6.55273,-8.55078 2.96144,-2.22109 6.58873,-3.33204 10.88281,-3.33204 4.73832,0 8.66198,1.51726 11.77149,4.55274 3.18355,2.96144 4.77539,7.69967 4.77539,14.21484 v 25.32031 h 8.14844 v 6.33008 h -23.14063 v -6.33008 h 7.21875 v -22.98828 c 0,-5.33059 -1.03637,-9.06975 -3.10937,-11.21679 -2.07301,-2.22108 -4.7758,-3.33008 -8.10742,-3.33008 -2.29512,0 -4.33056,0.48089 -6.10743,1.44336 -1.70282,0.96247 -3.14745,2.18334 -4.33203,3.66406 -1.18457,1.48072 -2.10906,3.10985 -2.77539,4.88672 -0.59229,1.70283 -0.92596,3.33196 -1,4.88672 v 22.65429 h 8.55078 v 6.33008 h -23.54297 v -6.33008 h 7.10743 v -22.98828 c 0,-5.40463 -1.03637,-9.17912 -3.10938,-11.32617 -1.99897,-2.14704 -4.62718,-3.2207 -7.88476,-3.2207 -2.29512,0 -4.33056,0.48089 -6.10743,1.44336 -1.77686,0.88843 -3.25878,2.07201 -4.44336,3.55273 -1.18457,1.40669 -2.10906,2.99853 -2.77539,4.77539 -0.59228,1.70283 -0.92596,3.33197 -1,4.88672 v 22.87695 h 9.10743 v 6.33008 H 450.1543 v -6.33008 h 8.66211 v -36.75781 h -8.77344 v -6.33008 h 16.54687 v 9.2168 c 1.6288,-3.03548 3.77612,-5.47918 6.44141,-7.33008 2.73934,-1.92493 6.10752,-2.88672 10.10547,-2.88672 z m 85.55469,0 c 5.77481,0 10.14208,1.37005 13.10351,4.10938 3.03548,2.73933 4.55274,6.8848 4.55274,12.4375 v 23.54297 c 0,3.55373 1.40733,5.33203 4.2207,5.33203 1.18458,0 2.29552,-0.22375 3.33203,-0.66797 l 0.11133,5.10938 c -0.88844,0.51825 -1.88947,0.92456 -3,1.2207 -1.11054,0.29614 -2.25683,0.44531 -3.44141,0.44531 -2.88741,0 -5.10931,-0.88915 -6.66406,-2.66601 -1.48073,-1.77687 -2.258,-4.22057 -2.33203,-7.33008 v -0.22071 c -1.55475,2.6653 -3.77665,5.03442 -6.66406,7.10743 -2.81337,2.07301 -6.21886,3.10937 -10.2168,3.10937 -1.62879,0 -3.33056,-0.2218 -5.10742,-0.66601 -1.77687,-0.44422 -3.406,-1.18616 -4.88672,-2.22266 -1.40669,-1.11054 -2.59222,-2.55321 -3.55469,-4.33008 -0.96247,-1.77686 -1.44336,-3.99876 -1.44336,-6.66406 0,-3.10951 0.66735,-5.62585 2,-7.55078 1.40669,-1.99897 3.18304,-3.55352 5.33008,-4.66406 2.22108,-1.18458 4.70208,-1.96186 7.44141,-2.33204 2.73933,-0.44421 5.51475,-0.66601 8.32812,-0.66601 1.48072,0 2.96068,0.0353 4.44141,0.10937 1.55475,0.074 2.99938,0.18591 4.33203,0.33399 v -4.44141 c 0,-3.55373 -0.77728,-6.44103 -2.33203,-8.66211 -1.48073,-2.22108 -4.44261,-3.33203 -8.88477,-3.33203 -1.70282,0 -3.3673,0.14722 -4.99609,0.44336 -1.55476,0.29614 -3.07397,0.81433 -4.55469,1.55469 l -1.88672,8.55078 -6.4414,-0.77735 1.77734,-11.4375 c 2.59126,-1.70282 5.32939,-2.9237 8.2168,-3.66406 2.8874,-0.74036 5.96116,-1.11133 9.21875,-1.11133 z m 82.20507,0 c 5.77481,0 10.14208,1.37005 13.10352,4.10938 3.03548,2.73933 4.55469,6.8848 4.55469,12.4375 v 23.54297 c 0,3.55373 1.40538,5.33203 4.21875,5.33203 1.18457,0 2.29553,-0.22375 3.33203,-0.66797 l 0.11133,5.10938 c -0.88844,0.51825 -1.88751,0.92456 -2.99805,1.2207 -1.11054,0.29614 -2.25878,0.44531 -3.44336,0.44531 -2.8874,0 -5.10735,-0.88915 -6.66211,-2.66601 -1.48072,-1.77687 -2.25995,-4.22057 -2.33398,-7.33008 v -0.22071 c -1.55476,2.6653 -3.77471,5.03442 -6.66211,7.10743 -2.81337,2.07301 -6.21885,3.10937 -10.2168,3.10937 -1.62879,0 -3.33251,-0.2218 -5.10937,-0.66601 -1.77686,-0.44422 -3.406,-1.18616 -4.88672,-2.22266 -1.40669,-1.11054 -2.59027,-2.55321 -3.55274,-4.33008 -0.96247,-1.77686 -1.44336,-3.99876 -1.44336,-6.66406 0,-3.10951 0.6654,-5.62585 1.99805,-7.55078 1.40668,-1.99897 3.18499,-3.55352 5.33203,-4.66406 2.22108,-1.18458 4.70012,-1.96186 7.43945,-2.33204 2.73934,-0.44421 5.51671,-0.66601 8.33008,-0.66601 1.48072,0 2.96069,0.0353 4.44141,0.10937 1.55476,0.074 2.99743,0.18591 4.33008,0.33399 v -4.44141 c 0,-3.55373 -0.77728,-6.44103 -2.33203,-8.66211 -1.48072,-2.22108 -4.44066,-3.33203 -8.88282,-3.33203 -1.70282,0 -3.36925,0.14722 -4.99804,0.44336 -1.55476,0.29614 -3.07202,0.81433 -4.55274,1.55469 l -1.88867,8.55078 -6.44141,-0.77735 1.77735,-11.4375 c 2.59126,-1.70282 5.33134,-2.9237 8.21875,-3.66406 2.88741,-0.74036 5.95921,-1.11133 9.21679,-1.11133 z m -410.30273,1 h 15.87109 v 29.42774 c 0,5.33059 1.07366,9.06975 3.22071,11.2168 2.22108,2.14704 5.10838,3.2207 8.66211,3.2207 2.07301,0 3.99852,-0.4436 5.77539,-1.33203 1.77686,-0.88843 3.29412,-2.03668 4.55273,-3.44336 1.33265,-1.40669 2.36902,-2.99853 3.10938,-4.77539 0.74036,-1.77687 1.14861,-3.55322 1.22265,-5.33008 v -22.6543 h -10.32812 v -6.33008 h 18.10156 v 43.08789 h 8.88477 v 6.33008 h -16.65821 v -9.32812 c -1.55476,3.10951 -3.81395,5.62584 -6.77539,7.55078 -2.96144,1.92494 -6.43955,2.88867 -10.4375,2.88867 -2.44319,0 -4.70239,-0.37097 -6.77539,-1.11133 -2.07301,-0.74036 -3.88665,-1.85131 -5.44141,-3.33203 -1.48071,-1.55475 -2.66625,-3.51561 -3.55468,-5.88476 -0.88844,-2.36916 -1.33203,-5.21916 -1.33203,-8.55079 v -25.32031 h -8.09766 z m 181.04297,5.44141 c -2.29512,0 -4.29522,0.40631 -5.99805,1.2207 -1.62879,0.8144 -2.99883,1.92535 -4.10937,3.33204 -1.11055,1.40668 -1.99774,3.03581 -2.66407,4.88671 -0.66632,1.8509 -1.11188,3.81176 -1.33398,5.88477 h 27.09766 c 0.2221,-1.8509 0.11218,-3.66454 -0.33203,-5.44141 -0.44422,-1.8509 -1.22345,-3.48003 -2.33399,-4.88672 -1.0365,-1.48072 -2.40459,-2.6643 -4.10742,-3.55273 -1.70283,-0.96247 -3.77557,-1.44336 -6.21875,-1.44336 z m -214.69336,0.33203 c -2.81337,0 -5.21977,0.55548 -7.21875,1.66602 -1.99897,1.0365 -3.66344,2.48113 -4.99609,4.33203 -1.25862,1.77686 -2.18506,3.8496 -2.77735,6.21875 -0.59229,2.36915 -0.88867,4.85014 -0.88867,7.44141 0,3.03547 0.37096,5.66368 1.11133,7.88476 0.74036,2.22108 1.77673,4.07201 3.10937,5.55274 1.33265,1.48072 2.8872,2.58971 4.66407,3.33007 1.77686,0.74036 3.66508,1.11133 5.66406,1.11133 2.29512,0 4.40514,-0.4436 6.33008,-1.33203 1.99897,-0.88843 3.70269,-2.03667 5.10937,-3.44336 1.40669,-1.48072 2.48034,-3.10985 3.2207,-4.88672 0.8144,-1.8509 1.258,-3.70183 1.33204,-5.55273 v -8.55078 c 0,-2.07301 -0.40827,-3.96124 -1.22266,-5.66407 -0.74036,-1.70282 -1.77672,-3.1455 -3.10938,-4.33007 -1.33265,-1.18458 -2.8872,-2.11102 -4.66406,-2.77735 -1.77687,-0.66632 -3.66509,-1 -5.66406,-1 z m 121.21875,20.76758 c -1.8509,0 -3.6665,0.14917 -5.44336,0.44531 -1.70283,0.22211 -3.25738,0.66571 -4.66406,1.33203 -1.33265,0.66633 -2.40631,1.59082 -3.22071,2.77539 -0.81439,1.18458 -1.2207,2.73913 -1.2207,4.66407 0,1.55475 0.25909,2.8875 0.77734,3.99804 0.59229,1.03651 1.33227,1.88837 2.22071,2.55469 0.88843,0.66633 1.85217,1.14722 2.88867,1.44336 1.11054,0.22211 2.21954,0.33398 3.33008,0.33398 1.70282,10e-6 3.40655,-0.29638 5.10937,-0.88867 1.70284,-0.66632 3.22009,-1.55547 4.55274,-2.66601 1.33265,-1.18458 2.44359,-2.58996 3.33203,-4.21875 0.88843,-1.62879 1.40662,-3.44244 1.55469,-5.44141 v -3.77734 c -1.40669,-0.14807 -2.88666,-0.258 -4.44141,-0.33203 -1.48073,-0.14808 -3.07256,-0.22266 -4.77539,-0.22266 z m 241.19531,0 c -1.8509,0 -3.66454,0.14917 -5.4414,0.44531 -1.70283,0.22211 -3.25934,0.66571 -4.66602,1.33203 -1.33265,0.66633 -2.40436,1.59082 -3.21875,2.77539 -0.81439,1.18458 -1.22266,2.73913 -1.22266,4.66407 0,1.55475 0.2591,2.8875 0.77735,3.99804 0.59228,1.03651 1.33227,1.88837 2.2207,2.55469 0.88843,0.66633 1.85217,1.14722 2.88867,1.44336 1.11054,0.22211 2.21954,0.33398 3.33008,0.33398 1.70283,10e-6 3.40655,-0.29638 5.10938,-0.88867 1.70283,-0.66632 3.22009,-1.55547 4.55273,-2.66601 1.33265,-1.18458 2.4436,-2.58996 3.33203,-4.21875 0.88844,-1.62879 1.40662,-3.44244 1.55469,-5.44141 v -3.77734 c -1.40669,-0.14807 -2.88666,-0.258 -4.44141,-0.33203 -1.48072,-0.14808 -3.07256,-0.22266 -4.77539,-0.22266 z m 82.20508,0 c -1.85089,0 -3.66454,0.14917 -5.44141,0.44531 -1.70282,0.22211 -3.25737,0.66571 -4.66406,1.33203 -1.33265,0.66633 -2.40631,1.59082 -3.2207,2.77539 -0.8144,1.18458 -1.22071,2.73913 -1.22071,4.66407 0,1.55475 0.2591,2.8875 0.77735,3.99804 0.59229,1.03651 1.33227,1.88837 2.2207,2.55469 0.88843,0.66633 1.85021,1.14722 2.88672,1.44336 1.11054,0.22211 2.2215,0.33398 3.33203,0.33398 1.70284,10e-6 3.4046,-0.29638 5.10742,-0.88867 1.70283,-0.66632 3.22204,-1.55547 4.55469,-2.66601 1.33264,-1.18458 2.44165,-2.58996 3.33008,-4.21875 0.88843,-1.62879 1.40661,-3.44244 1.55469,-5.44141 v -3.77734 c -1.40669,-0.14807 -2.88665,-0.258 -4.44141,-0.33203 -1.48072,-0.14808 -3.07256,-0.22266 -4.77539,-0.22266 z"
             transform="matrix(0.93750002,0,0,0.93750002,29.083954,-391.35416)"
             id="path944"
             inkscape:connector-curvature="0" />
        </g>
      </g>
      <g
         transform="matrix(0.94605379,0,0,0.94605379,49.76453,-5.0304443)"
         id="g939">
        <path
           style="display:inline;opacity:1;fill:#808080;fill-opacity:1;fill-rule:nonzero;stroke:none;stroke-width:1.76088083;stroke-linecap:round;stroke-linejoin:round;stroke-miterlimit:4;stroke-dasharray:none;stroke-dashoffset:0;stroke-opacity:1"
           d="m 849.22266,183.55859 c -1.39005,0.12669 -1.68761,1.73354 0.77148,6.30664 1.98769,3.69611 2.04317,8.16541 2.52734,12.33399 0.93724,8.07092 0.71094,24.36523 0.71094,24.36523 0,0 -2.78693,-11.8033 -5.34375,-17.2539 -2.33884,-4.98594 -5.22581,-10.00576 -9.01172,-13.84961 -2.7445,-2.78647 -8.66391,-7.63809 -8.68554,-4.83008 -0.0682,8.82842 0.59045,9.62798 2.66015,16.26367 2.37535,7.61568 5.88281,23.19727 5.88282,23.19727 l -8.91211,-16.02149 c -13.77917,-17.68799 -9.62425,-3.76361 -8.62305,4.59571 0,0 1.58366,11.45234 3.31055,16.9414 2.49886,7.94287 10.11132,22.8418 10.11132,22.8418 l -5.75781,-4.6836 c -8.4987,-7.29903 -11.48903,-6.40877 -1.76367,13.38868 l 21.39062,28.61132 c -1.1338,4.30841 1.78065,8.85393 2.00196,13.3379 0.38067,7.70926 -1.00196,23.13281 -1.00196,23.13281 0,0 7.74817,6.00894 12.17969,8.00195 6.25231,2.81192 13.06233,4.44874 19.85547,5.3711 6.08735,0.82644 15.03776,3.09213 16.74023,3.52929 l 14.6504,5.21875 c 5.03089,2.28763 0.95658,-1.71897 0.25781,-3.39258 2.55312,1.10066 6.25692,4.92218 4.37305,-4.49023 8.31412,3.05038 3.53122,-3.16007 2.5996,-6.65039 5.18427,4.02657 6.58381,0.22197 6.07813,-7.52539 2.58548,1.45953 4.88518,2.10851 3,-9.05469 7.93547,4.05325 3.52148,-3.46364 2.18945,-8.0957 10.3011,-3.84036 1.36394,-8.01615 -0.66992,-12.07032 7.51843,-3.56785 8.60577,-6.81627 -1.88672,-9.48828 6.55742,-3.79676 6.57781,-7.67648 -4.60547,-11.69531 1.70597,-2.01841 7.19177,-3.68751 -1.24023,-6.64062 6.59529,-14.36936 2.45446,-14.51605 -2.9336,-13.01172 5.55859,-17.39718 -1.39634,-14.81462 -12.72265,-5.24805 0,0 3.67033,-5.2571 4.7207,-8.24414 1.44817,-4.11809 2.03711,-12.93555 2.03711,-12.93555 -1.04083,-10.59704 -2.28497,-20.03289 -7.70508,-5.35351 0,0 -3.0508,9.64255 -5.55859,13.98828 -1.8762,3.25127 -6.98047,8.83398 -6.98047,8.83398 0,0 5.77319,-13.61203 6.48828,-20.85937 0.70059,-7.09997 0.50953,-14.70111 -2.23828,-21.28516 -1.74563,-4.18284 -8.65265,-14.52758 -7.09766,-0.0234 0.7855,7.32748 -1.06852,14.80626 -3.09179,21.89258 -1.576,5.52026 -6.95703,15.75391 -6.95703,15.75391 0,0 5.43534,-17.81963 5.11132,-26.96094 -0.27086,-7.64155 -2.54205,-15.28844 -5.85937,-22.17773 -1.3597,-2.82369 -10.2221,-14.26491 -6.69141,-0.88477 1.01977,3.86453 0.73968,8.21958 0.63672,12.33399 -0.16124,6.56158 -1.18747,13.07455 -1.98242,19.58984 -0.83194,6.81812 -2.91602,20.39844 -2.91602,20.39844 0,0 2.36638,-25.99834 -0.48437,-38.51758 -1.98214,-8.70445 -4.36173,-15.05052 -11.29297,-24.28516 -0.8632,-1.15007 -5.16149,-4.27554 -7.61328,-4.66601 -0.23835,-0.038 -0.45964,-0.0512 -0.6582,-0.0332 z m 3.62695,90.76953 c 1.07043,-0.11278 2.53125,2.00391 2.53125,2.00391 0,0 2.51223,-0.98291 3.54883,-0.39844 0.60335,0.34009 0.86914,1.88672 0.86914,1.88672 1.05774,0.27197 2.15023,-0.1335 3.14844,1.48047 2.96257,-1.20625 6.09027,-3.39045 8.89062,-3.60937 0.26644,-0.0206 0.48292,-0.009 0.6582,0.0312 h 0.004 c 2.47981,0.59058 -3.80899,7.0772 -6.08789,10.82226 -2.49143,0.94324 -4.82422,1.92188 -4.82422,1.92188 0,0 2.5351,-3.19504 3.99219,-4.61133 0.82826,-0.80514 2.18526,-1.67436 3.57031,-3.08985 6.33202,-6.47083 -1.81685,-2.73091 -2.46875,-2.3457 -1.56003,0.92174 -6.06836,3.38086 -6.06836,3.38086 0.28686,-1.38602 1.78544,-3.23525 -2.11133,-3.01758 -0.14227,-3.04095 -1.90649,-1.32485 -3.22461,-0.91601 -1.80031,-2.56662 -3.39141,-2.69121 -5.29296,1.52539 -3.42221,-3.62812 -1.62627,2.53307 -0.11719,4.99023 1.41575,2.30537 1.48242,7.98242 1.48242,7.98242 0,-1e-5 -1.05588,0.8232 -1.88672,1.76172 0.42866,-3.09038 -0.31234,-8.28394 -2.86523,-14.63281 -0.47312,-1.17679 1.83015,-2.95684 3.39453,-1.71484 0,0 1.37246,-3.29471 2.85742,-3.45118 z m 36.5625,1.02344 c 0,0 0.99322,1.13138 1.10742,1.83594 0.34131,2.10287 -1.40625,6.23242 -1.40625,6.23242 0,0 2.24102,-1.1177 3.21875,-1.88672 1.55886,-1.22616 3.95873,-3.05912 4.99414,-2.48242 0,0 -0.15403,3.71566 -0.89453,5.375 -1.2705,2.84605 -5.83984,7.3086 -5.83984,7.3086 0,0 6.21902,-1.19769 9.17187,-2.45118 2.953,-1.25347 6.40515,-5.97514 7.93164,-3.51953 1.05972,1.70457 0.51771,5.20952 -0.25195,7.63867 -0.95388,3.01066 -5.19922,7.92188 -5.19922,7.92188 5.22548,-0.5826 9.14307,-5.04448 10.67578,-6.03125 3.27497,-2.10842 0.80426,5.27332 -0.30273,7.52734 -2.55231,5.19717 -6.5879,7.33008 -6.58789,7.33008 0,0 3.62286,1.36241 5.46289,1.10547 2.92631,-0.40871 4.94021,-2.54147 7.86914,-4.07227 2.54056,-1.32775 -0.51518,5.33124 -2.72656,8.1543 0,0 3.24731,-0.71623 4.91992,-1.47266 3.12911,-1.41527 -3.24805,8.3125 -3.24805,8.3125 0,0 4.29685,0.23869 4.04883,1.67774 -0.58622,3.39938 -3.05126,6.18264 -5.87891,7.79101 -3.27736,1.86419 -11.24414,1.23829 -11.24414,1.23829 0,0 0.0304,1.60637 -0.42773,2.19335 -1.03275,1.32344 -4.5586,2.13868 -4.5586,2.13868 0,0 3.20953,1.47832 4.30469,2.79101 1.13831,1.36451 2.69591,3.26494 2.04883,4.91992 -0.78987,2.01949 -4.45487,3.13729 -6.80078,3.66211 1.0061,-0.85842 2.57785,-2.33566 2.93164,-3.58007 0.44787,-1.57573 0.015,-3.44 -0.82617,-4.84571 -1.21253,-2.02627 -5.33215,-2.00431 -5.58985,-4.35156 -0.12588,-1.14696 2.20508,-2.66992 2.20508,-2.66992 0,0 2.71639,1.60745 4.00977,1.10742 1.24927,-0.48296 2.14648,-3.39648 2.14648,-3.39648 0,0 4.73634,-0.41031 7.02734,-1.00391 1.63368,-0.42326 3.25889,-0.979 4.72852,-1.80859 5.54351,-3.12919 1.69727,-4.45704 1.69727,-4.45704 l -4.64844,0.51758 2.76172,-2.53125 c 4.02623,-4.84955 4.27282,-6.67127 0.45898,-5.24023 l -3.52344,1.27148 2.48438,-2.83789 c 5.21498,-9.56632 -0.90578,-3.56121 -2.08399,-3.13281 -2.48034,0.90183 -3.90758,0.74197 -5.88085,0.69336 -3.58994,-0.0891 -10.62305,-1.78319 -10.62305,-1.7832 0,0 7.11377,-1.54841 10.1289,-3.45508 1.54604,-0.97768 3.82618,-3.93164 3.82618,-3.93164 2.8025,-4.24733 3.47768,-8.60704 -0.82618,-4.36719 -1.57688,1.5535 -3.84103,2.28346 -5.95703,2.93359 -2.97311,0.91349 -9.24218,1.28907 -9.24218,1.28907 0,0 3.15425,-2.26856 4.66601,-3.48829 1.97878,-1.59645 3.1906,-2.1748 5.75586,-5.00781 1.37583,-1.51946 3.92296,-10.25685 -1.5039,-5.96094 -1.86323,1.47497 -4.10129,2.49469 -6.375,3.18555 -2.25098,0.68398 -4.74189,0.23759 -7.00196,0.89063 -1.94687,0.56253 -5.51172,2.56836 -5.51172,2.56836 0,0 4.43339,-3.42369 6.34375,-5.45508 1.46509,-1.55792 1.72618,-1.87007 3.875,-5.11133 0.59132,-0.89233 3.27127,-8.2413 -1.99609,-2.51367 -1.44508,1.57138 -5.79102,2.73242 -5.79102,2.73242 l 1.33399,-3.47656 c 1.21656,-3.43484 1.22647,-4.47256 0.74805,-4.53711 -0.61512,-0.0829 -2.51395,1.27054 -2.74415,1.54492 0,0 -4.83814,4.06908 -7.71875,5.23633 -1.98922,0.80603 -4.1949,0.81697 -6.33984,1.08789 4.42964,-1.44159 8.97441,-3.05885 16.66797,-9.35352 z m -81.57813,37.56055 c -0.62204,0.0605 -1.36531,0.56366 -1.86328,1.19531 -2.30105,2.35309 -2.00202,1.62834 -3.99023,3.74219 -1.27083,1.35125 -4.72828,2.30961 -3.20899,4.72851 l -6.05078,5.07813 c 3.59947,3.22462 8.67969,3.30469 8.67969,3.30469 0,0 0.53751,-3.32021 0.12891,-5.05274 1.32657,2.11301 0.73635,3.55597 1.23632,5.30078 0.0857,0.29897 0.17746,0.59739 0.26368,0.89649 -1.00375,0.47618 -2.93542,0.34382 -5.30078,-0.75586 0,0 2.60893,6.48805 4.38281,9.48633 2.1504,3.63467 5.86477,6.31151 7.52344,10.19531 0.85482,2.0016 1.11523,6.43164 1.11523,6.43164 0.19247,-1.26531 0.61589,-2.63926 0.92383,-3.95898 l 4.68945,9.51171 -0.16406,-2.24804 c 0.68369,1.15493 1.24047,2.074 1.88867,3.15039 1.25794,2.4977 2.92072,5.5304 4.59375,7.92578 0.94482,-3.41785 2.7614,-9.36383 4.85938,-12.44727 1.73597,-2.55142 3.91953,-5.38443 6.90234,-6.17578 5.35713,-1.42123 16.26172,3.48438 16.26172,3.48438 0,0 -11.29125,-2.99438 -16.55078,-1.2793 -2.43287,0.79336 -4.41415,2.86003 -5.83203,4.99024 -1.76778,2.65552 -3.13701,7.42517 -3.9961,10.99023 -2.0746,4.89122 -3.51159,6.21402 -5.87695,8.93359 -8.27937,9.51931 -18.18494,17.66768 -28.59766,24.79102 -2.56018,1.75137 -5.27145,3.40561 -8.22851,4.3418 -4.0553,1.28383 -7.1963,1.73236 -12.6543,1.62304 -1.59895,-0.0321 -8.81543,0.96081 -2.25195,2.66407 3.62563,0.94047 7.50596,0.75666 11.23047,0.36132 4.74775,-0.50391 9.43136,-1.77643 13.90234,-3.45117 C 794.36152,409.72909 799.00977,407 799.00977,407 l -0.66016,6.57422 c 0.13303,3.06226 1.87118,2.89177 3.28516,2.72656 1.63756,-0.19131 2.31433,-2.43927 2.97656,-3.94922 0.74036,-1.68805 0.99804,-5.4414 0.99805,-5.4414 l -0.17188,10.03906 c 0.50823,3.63829 1.96224,1.6685 3.0293,1.36914 1.88069,-0.5277 3.30078,-4.8418 3.30078,-4.8418 -0.20555,7.9618 1.93799,6.5788 3.9414,5.74414 0.29557,1.42393 -0.84874,4.60805 0.35547,4.91992 l -3.02343,1.29883 0.43164,-3.28515 c -1.41373,0.16672 -2.92895,0.47148 -3.00586,-1.1875 l -3.92383,1.08789 c -1.45662,-0.82482 -3.84263,-0.20317 -3.86328,-3.25781 -2.08177,-0.23892 -4.59067,2.86541 -6.18946,-1.15821 l 0.10938,-5.83203 c -13.96813,4.18234 -15.34684,2.80458 -22.85156,4.89453 -6.02758,1.67858 -11.61945,4.84965 -17.7461,6.11914 -5.78656,1.19905 -10.81349,1.36018 -17.67773,1.35742 -2.67811,-9.5e-4 -8.00195,0.70313 -8.00195,0.70313 0,1e-5 5.54687,2.2352 8.48242,2.57226 4.83589,0.55535 14.57226,-0.95507 14.57226,-0.95507 0,0 -8.48178,3.48762 -12.92968,4.51757 -4.23902,0.98146 -8.66579,2.23457 -12.96289,1.55079 -4.84151,-0.77053 -7.71965,-2.83509 -13.3418,-6.19532 -0.92914,-0.55529 -6.89576,-1.27878 -2.36524,2.21875 l 2.99805,2.93946 -4.45508,-0.51563 c -2.5292,0.15826 -4.34455,0.50795 0.16602,2.5918 0,2e-5 6.52422,0.52156 9.74609,1.06445 5.07741,0.85576 9.91152,3.24875 15.05664,3.45117 5.70293,0.22438 11.5201,-0.70436 16.9375,-2.5 6.95895,-2.30663 19.36914,-10.41992 19.36914,-10.41992 0,0 -3.06358,5.01747 -5.23437,6.93555 -5.10673,4.51216 -11.21322,8.15909 -17.71094,10.21289 -5.1608,1.63103 -10.76005,1.49581 -16.17187,1.44531 -4.58005,-0.0429 -13.66211,-1.47851 -13.66211,-1.47851 0,0 4.60738,3.82816 7.36718,4.83203 4.08306,1.48827 8.59981,1.60181 12.94532,1.54297 6.06699,-0.0822 12.10644,-1.25023 18.01171,-2.64453 4.54337,-1.07268 13.30274,-4.38086 13.30274,-4.38086 0,0 -7.05717,8.11082 -11.74414,10.45117 -4.35037,2.1723 -14.29688,2.88672 -14.29688,2.88672 0,0 5.5756,2.28749 8.5293,2.44336 5.24021,0.27659 10.64696,-0.7389 15.50586,-2.72071 4.79541,-1.9559 12.81641,-8.78711 12.81641,-8.78711 0,2e-5 -4.85837,8.11718 -8.26172,11.3125 -2.17603,2.04304 -3.79344,2.91763 -7.54688,4.81446 -1.81849,0.92096 -5.74889,2.38617 5.92578,1.48632 4.6968,-0.36202 9.30464,-2.03106 13.50586,-4.16211 3.48385,-1.76723 9.40039,-6.99804 9.40039,-6.99804 0,0 0.57643,4.38271 0.082,6.48828 -1.05634,4.4912 -6.32813,12.3125 -6.32813,12.3125 -6.61898,8.26149 10.84308,-3.57337 15.79492,-8.80274 2.5925,-2.73581 5.28711,-9.99609 5.28711,-9.99609 l 1.69336,5.10742 c 2.3292,4.91965 2.6672,0.90646 3.95508,1.16211 l 1.6914,6.19532 c 3.07528,2.37957 5.62056,-4.27031 8.4043,-6.85157 0,0 2.66206,5.32953 5.01172,5.03907 4.24157,-0.52443 6.55469,-11.01954 6.55469,-11.01954 0,0 2.95945,3.11042 4.8125,2.87305 3.15076,-0.40367 6.6875,-6.78906 6.6875,-6.78906 3.07461,4.89319 5.65933,-2.10453 8.42383,-4.75391 2.34096,0.56065 4.28927,5.11831 7.30859,-1.18359 l 2.13477,-5.78321 c 4.88173,2.11575 4.14048,-3.49496 5.28906,-6.50781 5.22976,5.71466 5.57009,2.19906 7.23047,1.17578 1.33098,-2.40657 2.89705,-4.6665 2.5039,-8.13281 4.39389,1.33146 3.40739,-0.90005 1.88672,-3.48437 2.7763,-0.0663 3.30019,-1.5419 3.24024,-3.38282 4.06338,-1.00741 1.73455,-2.41472 1.94726,-3.66211 l 2.64063,1.47266 c 1.65434,-0.0517 5.59271,2.60739 1.07226,-4.78125 l -3.74804,-7.21875 c -0.46163,-1.03092 -0.96767,-2.0636 -1.46485,-2.75195 -2.04684,-2.83352 -7.66015,-7.15821 -7.66015,-7.15821 l 11.21289,3.11133 c 0,0 -3.22086,-6.38022 -5.20313,-9.34375 -4.06855,-6.08252 -11.41102,-10.23196 -13.64258,-17.20117 -1.31806,-4.11598 0.65625,-12.94726 0.65625,-12.94727 0,0 -1.00848,8.06958 0.42383,11.69922 2.80581,7.11054 11.05306,10.78379 15.04492,17.30274 2.45431,4.00811 5.27344,13.07617 5.27344,13.07617 l -7.55078,-2.99219 c 0,0 2.03658,1.81586 2.84375,2.9043 0.91099,1.22856 1.90556,3.26297 2.39648,4.28711 5.74162,-0.38093 11.30784,-3.14559 17.09766,-3.34766 6.63652,-0.23159 19.80664,2.10352 19.80664,2.10352 0,0 9.88997,12.34025 16.32617,16.73437 7.5925,5.18362 25.40235,10.75 25.40235,10.75 0,0 -9.43648,-5.29363 -13.48633,-8.82226 -4.72015,-4.11272 -8.84264,-8.97008 -12.33789,-14.16406 -3.72947,-5.54206 -9.03907,-17.88282 -9.03907,-17.88282 0,0 14.01854,12.23178 22.47071,15.70703 5.6514,2.3236 18.06836,3.10352 18.06836,3.10352 0,0 -13.74456,-7.30648 -20.07031,-11.80273 -16.90802,-12.01781 -18.48987,-25.94672 -47.42579,-40.29297 -15.03844,-7.45606 -33.34234,-6.42508 -48.4375,-13.76563 -4.89354,-2.37976 -12.36292,-8.61338 -14.46679,-10.40234 -0.20911,-1.27904 -0.52595,-5.18107 -1.00782,-6.27344 -2.05551,0.24691 -3.22136,-2.33989 -5.49218,-3.4707 -1.82519,0.82603 -7.52377,0.61001 -7.52149,-0.51368 -0.33846,-0.61286 0.3972,-1.65218 -0.26758,-2.01171 -1.65839,-0.89671 -3.30968,0.31261 -5.33007,-0.61719 -1.19505,-0.55007 1.54487,-0.83546 1.33593,-1.2832 -0.26527,-0.1573 -0.53459,-0.28846 -0.81445,-0.40235 v -0.004 c -0.24525,-0.0984 -0.50188,-0.17689 -0.76172,-0.24805 l -0.004,-0.004 c -1.81994,-0.49412 -4.03989,-0.38199 -7.18946,-0.66601 -2.61319,-0.72504 -5.80116,-0.51718 -7.64453,-0.17969 -1.42539,0.26088 -2.40332,-0.23057 -0.99023,-1.08984 -0.16667,-0.0901 -0.36165,-0.11723 -0.56836,-0.0977 z m 11.61914,19.2168 c 0.13243,-0.007 0.26284,-0.002 0.38868,0.0176 0.14392,0.0223 0.28135,0.0628 0.41015,0.12305 1.06281,0.49739 1.5507,2.32563 1.01758,3.37109 -0.53467,1.04798 -2.29479,1.71339 -3.33203,1.15821 -0.96855,-0.51829 -1.31662,-2.20363 -0.83203,-3.18945 0.38512,-0.78278 1.42072,-1.43492 2.34765,-1.48047 z m 23.95313,0.99414 c 1.44067,2.09175 1.24769,5.31053 1.31055,8.25781 -0.87738,-1.11776 -0.60701,-2.25215 -1.93555,-3.07227 0.31199,4.15189 -1.76195,7.35717 -2.76758,8.35547 -0.29454,-1.35342 -0.65166,-2.07445 -1.22461,-2.67383 -1.46974,2.21709 -4.16821,3.26873 -6.33594,4.82422 2.1653,-1.88373 5.32487,-3.48272 5.88672,-5.82226 0.87887,0.153 1.28518,0.99919 1.86524,1.58984 1.18288,-1.24327 1.13997,-5.5643 1.68554,-8.4082 l 1.94336,1.43555 c 0.0596,-1.759 0.0607,-3.08222 -0.42773,-4.48633 z m 28.70898,40.37304 h 0.002 c 2.3561,4.96906 5.81637,9.7948 5.125,15.16211 -4.63593,1.20842 -10.40235,-0.36523 -10.40235,-0.36523 -5e-5,-1e-5 1.7955,3.9588 2.83204,6.79883 l -0.0879,-0.0156 1.26758,4.44141 1.39258,5.125 c -0.27,4.13222 -1.19332,4.61168 -2.26758,4.23047 l -0.3789,4.08593 c -0.44813,1.60003 -1.44277,3.28279 -3.30664,4.09766 l -2.55664,-2.52539 -2.50977,5.47266 -2.39453,-4.04688 c 0,0 -0.0418,4.53573 -1.14844,6.39844 -0.78683,1.32409 -2.071,3.04348 -3.60352,2.89062 -2.02128,-0.20169 -3.99079,-2.64635 -3.90624,-4.67578 0.15429,-3.72981 -1.1305,-7.53652 -2.32813,-10.25 0.6082,0.86037 1.1694,1.69462 1.57227,2.41407 1.3392,2.3916 1.97186,5.08037 2.97851,7.66406 0.62025,1.5916 2.87898,4.83703 4.14258,-3.01563 l 0.0781,-7.04101 2.21485,5.61523 c 2.52697,2.53362 3.44671,1.43433 3.57031,-1.46094 0,-2e-5 -0.96777,-3.47323 -1.63281,-5.14648 -1.17558,-2.95795 -4.14649,-8.60352 -4.14649,-8.60352 0,0 3.72792,4.5034 5.24805,6.98829 1.31143,2.14379 3.30274,6.77734 3.30274,6.77734 2.21737,1.93677 4.00063,-2.28515 3.81054,-4.15234 -0.25026,-2.45863 -2.19726,-6.36133 -2.19726,-6.36133 l 2.5625,1.95312 c 1.39991,1.06608 0.49736,-3.32108 -0.0117,-6.7832 -0.0198,-0.87642 -0.0704,-1.84625 -0.22071,-2.50586 -0.70687,-3.10538 -3.71484,-8.80274 -3.71484,-8.80273 3.43737,0.16768 7.06414,1.62928 10.10938,-0.87696 1.21904,-3.62718 -1.78465,-8.8146 -3.39454,-13.48633 z m 68.76954,4.25391 c 11.46325,12.77063 22.81786,17.52047 40.27407,26.84535 0,1e-5 20.57396,11.10815 31.80596,18.23082 2.9159,1.84909 6.3098,4.18124 9.8848,6.73633 -7.4631,-4.17396 -15.3715,-7.58098 -23.2246,-10.9707 -10.18176,-4.39485 -34.34554,-10.77299 -34.34554,-10.77299 0,0 36.87604,17.90964 52.52714,29.09916 15.0338,10.74814 26.1588,22.51488 40.4077,32.18295 15.9002,10.78845 30.9977,16.42051 46.3423,16.15689 11.1969,-0.19236 24.0184,-2.48997 31.9434,-10.40234 3.5803,-3.57464 6.737,-7.8767 9.2871,-12.58203 2.7163,6.79322 0.3693,13.81181 -4.2255,17.84195 -15.0661,13.21454 -40.414,14.10474 -59.8096,6.10922 -25.5069,-11.4554 -43.5338,-22.86923 -69.2676,-47.3125 -16.98736,-16.13539 -61.84768,-33.39649 -61.84768,-33.39649 9.12094,9.49147 19.36513,18.84155 31.20043,25.20335 26.93545,14.40903 35.66175,24.60061 56.85035,46.99197 -4.6277,-7.37867 -10.1575,-15.31168 -14.5,-22.10742 42.1142,47.08707 81.3053,51.56393 135.9102,52.27343 -7.4799,-2.30059 -25.5008,-4.36267 -31.6563,-6.69336 9.1252,-0.7891 18.4409,-7.10207 23.7756,-14.75274 6.7901,-11.95822 4.763,-27.53455 -3.0762,-37.21947 0.2242,-15.83953 -7.8037,-39.19993 -7.8037,-39.19993 0,0 1.4607,22.08291 -0.9309,31.3323 -11.5511,-11.05598 -23.7109,-19.43945 -23.7109,-19.43945 0,0 12.1752,12.0089 21.4668,26.17968 -2.1257,5.21775 -5.0277,10.09755 -8.459,14.22071 -7.2324,8.69077 -20.8686,11.3065 -32.1735,11.50246 -13.2219,0.22919 -22.3254,-4.33605 -34.2327,-12.83449 -2.3306,-1.66336 -4.3737,-3.70748 -6.543,-5.58594 5.9143,3.39351 11.9955,6.43037 18.4375,8.57617 5.4707,1.82231 17.1191,2.48828 17.1191,2.48828 0,0 -19.3929,-12.19678 -29.035,-18.55442 -27.9463,-18.42678 -42.123,-34.62086 -73.56456,-47.63308 -4.04266,-1.9573 -21.59814,-10.50182 -27.39649,-11.95898 C 949.55801,385.09902 940.88477,377.75 940.88477,377.75 Z m -98.94532,25.15234 c 1e-5,0 2.03781,2.36691 4.08594,5.00196 0.20288,2.91468 0.6214,11.4937 -1.26172,15.87695 -0.6078,1.41481 -1.78727,2.6431 -3.12695,3.40234 -1.5666,0.88787 -5.28906,1.08985 -5.28906,1.08985 -0.47693,-2.37634 -0.63183,-5.75888 -1.04102,-8.94336 l 2.97461,6.46484 c 0.3995,1.08607 5.04606,-0.44829 5.92578,-7.15625 0.33966,-2.58923 0.44936,-5.57426 0.0391,-8.3164 -0.38318,-2.56158 -2.30664,-7.41993 -2.30664,-7.41993 z m -12.34765,4.02539 2.97461,6.45508 c -0.67695,2.81416 -2.2813,8.65814 -4.46094,11.28321 -1.52137,1.83213 -3.79912,4.23238 -6.11914,3.69531 -2.04469,-0.47439 -3.40625,-5.29688 -3.40625,-5.29688 l 2.91992,-4.47656 -0.30859,4.9375 c -0.95437,3.61581 2.15068,2.29861 3.57812,0.5625 1.43605,-1.74651 2.89101,-3.59443 3.63281,-5.73047 1.25644,-3.61825 1.18946,-11.42969 1.18946,-11.42969 z m -64.59961,16.13086 c 0,0 -8.93368,7.34493 -14.24219,9.3711 -5.85511,2.23473 -18.5957,2.7539 -18.5957,2.7539 10.26171,-2.19018 20.41654,-4.08619 32.83789,-12.125 z"
           transform="matrix(0.99095848,0,0,0.99095848,-23.74522,-408.22985)"
           id="path4157-3"
           inkscape:connector-curvature="0"
           sodipodi:nodetypes="ccccccccccccccccccccccccccccccccccccccccccccscccccccccccccccccccccccccccccccccccccccccccccccccccccccccccccccccccccccccccccccccccccccccccccccccccccccccccccccccccccccccccccccccccccccccccccccccccccccccccccccccccccccscccccccccsccccccccccccccccccccccccccccccccccccccccccccccccccccccccccccccccccccccccccccccccccccccccccccccccccccccccccccccccccccccccccscccccsccscccasccccccccccsccccscccccccccccccccccccccccccccccccc" />
      </g>
    </g>
  </g>
</svg>
