<?xml version="1.0" encoding="UTF-8" standalone="no"?>
<!-- Created with Inkscape (http://www.inkscape.org/) -->

<svg
   xmlns:dc="http://purl.org/dc/elements/1.1/"
   xmlns:cc="http://creativecommons.org/ns#"
   xmlns:rdf="http://www.w3.org/1999/02/22-rdf-syntax-ns#"
   xmlns:svg="http://www.w3.org/2000/svg"
   xmlns="http://www.w3.org/2000/svg"
   xmlns:sodipodi="http://sodipodi.sourceforge.net/DTD/sodipodi-0.dtd"
   xmlns:inkscape="http://www.inkscape.org/namespaces/inkscape"
   version="1.1"
   id="svg2"
   width="563"
   height="563"
   viewBox="0 0 563 563"
   sodipodi:docname="perfilfacebook.svg"
   inkscape:version="0.92.1 unknown"
   inkscape:export-filename="/home/keik/Escritorio/IMAGEN MOZILLA CENTROAMERICA/Panama/perfil_facebook.png"
   inkscape:export-xdpi="300"
   inkscape:export-ydpi="300">
  <metadata
     id="metadata8">
    <rdf:RDF>
      <cc:Work
         rdf:about="">
        <dc:format>image/svg+xml</dc:format>
        <dc:type
           rdf:resource="http://purl.org/dc/dcmitype/StillImage" />
        <dc:title />
      </cc:Work>
    </rdf:RDF>
  </metadata>
  <defs
     id="defs6" />
  <sodipodi:namedview
     pagecolor="#ffffff"
     bordercolor="#666666"
     borderopacity="1"
     objecttolerance="10"
     gridtolerance="10"
     guidetolerance="10"
     inkscape:pageopacity="0"
     inkscape:pageshadow="2"
     inkscape:window-width="1366"
     inkscape:window-height="708"
     id="namedview4"
     showgrid="false"
     borderlayer="true"
     inkscape:showpageshadow="false"
     inkscape:zoom="0.64933252"
     inkscape:cx="117.14304"
     inkscape:cy="275.33983"
     inkscape:window-x="0"
     inkscape:window-y="0"
     inkscape:window-maximized="1"
     inkscape:current-layer="layer2" />
  <g
     inkscape:groupmode="layer"
     id="layer1"
     inkscape:label="Layer 1"
     style="display:inline">
    <rect
       style="opacity:1;fill:#005293;fill-opacity:1;stroke:#f2f2f2;stroke-width:1.00558317;stroke-linecap:round;stroke-linejoin:round;stroke-miterlimit:4;stroke-dasharray:none;stroke-opacity:0.97254902;paint-order:stroke markers fill"
       id="rect4488"
       width="593.48572"
       height="576.06213"
       x="-13.43144"
       y="-7.0755544" />
  </g>
  <g
     inkscape:groupmode="layer"
     id="layer2"
     inkscape:label="Layer 2">
    <rect
       style="opacity:1;fill:#aa0000;fill-opacity:1;stroke:none;stroke-width:0.92477041;stroke-linecap:round;stroke-linejoin:round;stroke-miterlimit:4;stroke-dasharray:none;stroke-opacity:0.97254902;paint-order:stroke markers fill"
       id="rect4506"
       width="588.76605"
       height="102.90536"
       x="-12.711799"
       y="463.01355" />
    <path
       style="opacity:1;fill:#ffffff;stroke-width:1.21537626"
       inkscape:connector-curvature="0"
       id="path6"
       d="m 550.46127,428.49459 c -0.85069,0.24308 -1.5799,0.36462 -2.30913,0.36462 -2.55236,0 -3.76773,-1.09385 -3.76773,-4.25383 v -23.69983 c 0,-12.51837 -9.96609,-18.59526 -21.75518,-18.59526 -8.99382,0 -13.85534,1.09384 -23.4568,4.98305 l -1.94462,12.63991 12.5184,1.33692 1.82305,-6.19842 c 2.55229,-1.33692 5.10458,-1.58 8.38614,-1.58 8.87218,0 8.99379,6.68458 8.99379,12.2753 v 1.82307 c -2.79543,-0.36461 -5.95539,-0.48615 -8.99379,-0.48615 -12.51842,0 -25.52294,3.15998 -25.52294,16.65065 0,11.42453 8.99377,15.67836 16.89372,15.67836 8.8723,0 14.46303,-5.34766 17.62301,-10.93839 0.72922,6.68456 4.73991,10.93839 12.03216,10.93839 3.40306,0 6.92772,-0.97232 9.84461,-2.55229 z m -33.54437,-0.3646 c -4.73995,0 -6.44147,-2.79538 -6.44147,-6.31997 0,-5.95534 4.86155,-7.53534 10.45228,-7.53534 2.55221,0 5.34765,0.36462 7.89987,0.72923 -0.36454,9.11533 -6.31995,13.12608 -11.91068,13.12608 z m -21.026,-73.53027 -23.69983,83.49634 h -15.4353 l 23.69984,-83.49634 z m -31.84287,0 -23.69984,83.49634 h -15.43527 l 23.69984,-83.49634 z m -65.63031,28.80441 h 16.40759 v 19.6891 h -16.40759 z m 0,35.12438 h 16.40759 v 19.68908 h -16.40759 z m -23.94292,-0.72923 12.39685,1.21538 -3.40306,19.20293 H 335.7043 l -1.57998,-8.26456 30.14133,-34.63821 h -17.1368 l -2.43078,8.50764 -11.30297,-1.21538 1.94459,-19.20295 h 48.00737 l 1.21538,8.26457 -30.38442,34.63821 h 17.74449 z m -78.39176,-35.48899 c -19.68911,0 -29.41209,13.24761 -29.41209,29.29057 0,17.50141 11.6676,27.83212 28.56133,27.83212 17.50141,0 30.14132,-11.05992 30.14132,-28.56133 0,-15.31375 -9.60146,-28.56136 -29.29056,-28.56136 z m -0.3646,44.96893 c -8.50766,0 -12.883,-7.29226 -12.883,-16.77219 0,-10.3307 4.98304,-16.28605 13.00454,-16.28605 7.41377,0 13.36912,4.98305 13.36912,16.04297 0,10.57377 -5.34765,17.01527 -13.49066,17.01527 z m -43.14587,-1.09385 h 7.29226 v 11.91069 h -22.84906 v -30.74902 c 0,-9.47993 -3.15998,-13.12606 -9.3584,-13.12606 -7.53535,0 -10.57378,5.34765 -10.57378,13.00453 v 19.0814 h 7.29226 v 11.91068 h -22.97062 v -30.87055 c 0,-9.47993 -3.15996,-13.12606 -9.35838,-13.12606 -7.53534,0 -10.57377,5.34765 -10.57377,13.00453 v 19.0814 h 10.45224 v 11.91068 H 158.624 v -11.91068 h 7.29225 V 395.31482 H 158.624 v -11.91069 h 22.97061 v 8.26457 c 3.28151,-5.83381 8.99377,-9.35841 16.65066,-9.35841 7.89994,0 15.19219,3.76767 17.86602,11.78915 3.03845,-7.29225 9.23685,-11.78915 17.86603,-11.78915 9.84454,0 18.83834,5.95534 18.83834,18.95988 v 24.9152 z"
       class="st0" />
    <text
       xml:space="preserve"
       style="font-style:normal;font-weight:normal;font-size:99.6545639px;line-height:1;font-family:sans-serif;text-align:end;letter-spacing:0px;word-spacing:0px;text-anchor:end;opacity:1;fill:#ffffff;fill-opacity:1;stroke:none;stroke-width:10.67727375;"
       x="554.67786"
       y="535.39856"
       id="text4512"><tspan
         sodipodi:role="line"
         id="tspan4510"
         x="554.67786"
         y="535.39856"
         style="font-style:normal;font-variant:normal;font-weight:normal;font-stretch:normal;font-family:'Zilla Slab';-inkscape-font-specification:'Zilla Slab';text-align:end;text-anchor:end;fill:#ffffff;stroke-width:10.67727375;">panamá</tspan></text>
    <path
       style="display:inline;opacity:1;fill:#ffffff;fill-opacity:1;fill-rule:nonzero;stroke:none;stroke-width:1.66631973;stroke-linecap:round;stroke-linejoin:round;stroke-miterlimit:4;stroke-dasharray:none;stroke-dashoffset:0;stroke-opacity:1"
       d="M 73.900391 16.835938 C 71.238497 16.771127 69.032188 17.675183 67.654297 20.128906 C 65.44399 24.064987 69.700081 27.793204 74.582031 30.849609 L 70.255859 23.964844 L 73.679688 18.542969 L 87.662109 23.679688 L 110.49023 35.380859 L 129.32422 50.21875 L 137.59961 60.205078 L 130.17969 56.210938 L 125.04297 56.78125 C 125.04297 56.78125 125.04276 56.495329 125.32812 54.783203 C 125.61347 53.071109 125.90039 52.215834 125.90039 50.789062 C 125.90039 49.362291 120.76367 48.505859 120.76367 48.505859 C 120.76367 48.505859 113.91428 51.075389 113.62891 52.216797 C 113.34356 53.358212 114.48437 56.496094 114.48438 56.496094 C 114.48438 56.496094 111.91779 57.067179 109.34961 58.779297 C 106.78143 60.491417 105.06836 62.488281 105.06836 62.488281 L 99.076172 60.777344 L 102.21484 58.208984 L 103.64062 53.072266 L 105.38867 49.753906 C 98.776121 46.709565 80.484517 38.635139 69.517578 37.318359 C 60.315692 36.213508 43.480193 31.023631 41.857422 40.148438 C 41.104009 44.384814 46.709745 45.918613 52.119141 46.947266 C 55.083981 44.564548 60.267578 38.804687 60.267578 38.804688 L 75.392578 39.375 L 95.082031 46.507812 L 93.083984 50.789062 C 93.083984 50.789062 86.520331 49.932212 85.378906 51.929688 C 84.450547 53.554322 82.10451 54.75508 81.226562 55.164062 C 85.150576 56.584344 87.742188 57.615234 87.742188 57.615234 C 87.742188 57.615234 83.984814 56.39437 78.576172 54.857422 L 73.109375 53.642578 L 92.228516 59.634766 L 88.804688 63.628906 L 83.666016 66.482422 L 82.564453 72.318359 L 78.53125 74.472656 L 75.962891 76.755859 L 75.730469 82.052734 L 52.121094 81.431641 C 52.121094 81.431641 50.368211 81.412378 47.839844 81.455078 C 49.061442 81.543778 50.149267 81.607422 50.851562 81.607422 C 53.990451 81.607422 51.421875 83.890625 51.421875 83.890625 C 51.421875 83.890625 45.42951 88.170494 42.861328 90.167969 C 40.991137 91.622554 40.639993 94.422237 40.583984 95.845703 C 46.759674 95.890823 51.680834 96.069899 55.384766 96.257812 L 55.988281 94.447266 L 56.558594 91.595703 L 58.556641 87.599609 L 61.410156 83.605469 L 71.111328 84.175781 L 67.402344 88.169922 C 67.402344 88.169922 61.694148 92.450589 60.552734 93.306641 C 59.411319 94.162709 62.890625 96.757812 62.890625 96.757812 L 53.134766 100.72656 C 53.134766 100.72656 49.708984 105.86211 49.708984 107.57422 C 49.708984 108.76368 49.033764 111.2666 48.613281 112.72266 C 50.983684 112.59869 52.742188 112.49805 52.742188 112.49805 C 52.742188 112.49805 39.281763 119.97583 32.652344 123.88867 C 28.213372 126.50866 21.148677 131.90243 23.365234 136.68359 C 24.559547 139.25973 27.842794 139.90735 31.228516 139.58008 L 32.302734 137.25 L 36.298828 128.4043 C 36.298828 128.4043 37.725773 123.83845 38.867188 122.98242 C 40.008603 122.12635 51.707031 117.84766 51.707031 117.84766 C 51.707031 117.84766 44.574219 125.83691 44.574219 127.26367 C 44.574219 128.69044 45.144531 130.97461 45.144531 130.97461 L 42.238281 135.81641 C 44.299235 134.97428 46.542796 134.13671 48.792969 133.33008 L 52.564453 131.54492 L 54.244141 131.43945 C 57.791249 130.25202 60.928642 129.26741 62.771484 128.70117 C 60.973911 129.26536 58.166125 130.1945 55.041016 131.38867 L 61.695312 130.97461 L 56.273438 132.9707 L 53.419922 141.24609 L 51.802734 145.45312 L 51.992188 145.52734 L 50.566406 148.66602 L 51.802734 145.45312 L 48.283203 144.09961 L 46.285156 140.67578 L 47.712891 136.67969 L 43.619141 136.67969 C 41.590081 137.86922 39.789482 139.13646 38.453125 140.45703 C 35.180739 143.69073 30.186349 148.87695 32.445312 152.88477 C 34.249857 156.08636 39.809599 154.5967 43.421875 153.91992 C 49.528248 152.77587 54.741528 148.73795 60.085938 145.57031 C 64.748077 142.80707 73.453125 136.31445 73.453125 136.31445 C 73.453125 136.31445 65.320523 143.86648 60.691406 146.87695 C 55.236511 150.42444 49.602297 154.33478 43.214844 155.57617 C 38.8645 156.42166 32.410098 158.23454 29.960938 154.54102 C 28.29064 152.02211 31.585939 146.42933 32.828125 145.93945 C 26.255106 149.54797 19.272164 153.75468 18.363281 160.54688 C 18.121375 162.35467 19.416482 164.50874 21.054688 165.31055 C 27.447416 168.43942 35.406815 164.39063 42.179688 162.20312 C 44.210619 161.54717 46.583292 160.54467 49.0625 159.37305 L 47.998047 156.94141 L 56.84375 153.23047 L 55.130859 158.08203 L 56.84375 159.50977 L 57.128906 165.21484 L 60.552734 165.50195 C 60.552734 165.50195 60.553514 167.21288 59.412109 170.06641 C 58.270685 172.91995 58.556641 172.91951 58.556641 176.34375 C 58.556641 179.768 64.263672 178.91211 64.263672 178.91211 L 57.699219 180.91016 C 57.699219 180.91016 53.99063 179.76857 53.419922 178.3418 C 52.849215 176.91503 54.847656 171.7793 54.847656 171.7793 L 51.560547 172.08008 C 51.412591 172.28808 50.640163 172.88716 48.248047 174.41797 C 47.252281 175.05522 46.35386 175.57462 45.5 176.05078 L 46.285156 179.19727 L 50.566406 184.90625 L 51.447266 186.66797 C 54.162593 185.30207 56.817774 183.79451 59.470703 182.33203 C 66.21963 178.6116 79.015625 169.98047 79.015625 169.98047 L 82.525391 177.77148 L 84.523438 181.76562 L 85.941406 183.18359 L 92.919922 178.35742 C 92.919922 178.35742 90.257742 180.66754 86.515625 183.75781 L 87.947266 185.18945 L 87.091797 192.32422 C 87.091797 192.32422 85.379094 191.46954 85.09375 190.32812 C 84.808387 189.1867 82.525391 188.89922 82.525391 187.75781 C 82.525391 187.56343 82.505926 187.3102 82.478516 187.03906 C 78.623347 190.1301 74.305862 193.45549 70.507812 196.02344 C 71.249972 198.17885 73.394531 199.74219 73.394531 199.74219 C 73.394531 199.74219 75.107411 200.0293 77.960938 200.0293 C 80.814474 200.0293 82.525391 201.45508 82.525391 201.45508 C 82.525391 201.45508 82.985778 201.90399 83.789062 202.51562 C 91.19024 197.12602 100.99805 188.91992 100.99805 188.91992 C 100.99805 188.91992 98.905059 190.88199 95.90625 193.59766 L 93.654297 198.60156 L 99.646484 200.59961 C 99.646484 200.59961 102.21462 200.88458 105.35352 201.16992 C 108.49241 201.45527 103.07031 205.16406 103.07031 205.16406 L 98.220703 205.16406 C 98.220703 205.16406 96.793769 202.88302 95.652344 202.59766 C 94.51093 202.31231 93.083984 201.16992 93.083984 201.16992 L 90.273438 198.61523 C 88.496853 200.16666 86.642483 201.75243 84.830078 203.25391 C 85.800994 203.89561 87.039404 204.59551 88.517578 205.16406 C 92.227174 206.59082 94.796471 208.59062 95.367188 210.30273 C 95.937885 212.01484 92.512726 212.58361 88.232422 213.1543 C 83.952108 213.72502 83.096107 210.87266 82.525391 208.58984 C 82.288471 207.64214 80.869661 207.48507 79.292969 207.62109 C 76.267998 209.80386 72.317746 211.99616 68.332031 214.42188 L 69.970703 214.86719 C 69.970703 214.86719 75.106642 212.86914 76.248047 212.86914 C 77.389471 212.86914 78.816376 212.86903 81.669922 213.1543 C 84.523449 213.43967 81.955078 217.43555 81.955078 217.43555 C 81.955078 217.43555 87.376558 222.28613 87.947266 223.71289 C 88.517962 225.13966 85.094934 225.99629 83.382812 225.71094 C 81.670691 225.4256 79.672665 225.13867 78.53125 225.13867 C 77.389836 225.13867 77.673828 218.86328 77.673828 218.86328 L 71.396484 218.29102 C 71.396484 218.29102 72.253718 224.85429 72.539062 226.56641 C 72.824416 228.27853 74.25 230.84766 74.25 230.84766 C 74.25 230.84766 76.819129 232.2746 78.53125 233.41602 C 80.243381 234.55743 73.96583 235.69922 72.539062 235.69922 C 71.112296 235.69922 64.262705 234.55704 62.835938 233.98633 C 61.409169 233.41561 60.839655 231.41698 61.125 229.99023 C 61.410353 228.56346 64.833984 223.42773 64.833984 223.42773 L 61.822266 218.72266 C 61.625876 218.86771 61.428024 219.01109 61.234375 219.1582 C 57.17941 222.23856 54.432683 229.52042 57.091797 233.86328 C 59.665239 238.0662 66.680373 237.19091 71.589844 236.76172 C 77.845448 236.21486 83.550831 234.15447 89.140625 229.91797 C 98.400209 222.90013 114.45898 201.76172 114.45898 201.76172 C 114.45898 201.76172 99.755282 224.54513 89.193359 232.61914 C 84.626978 236.10991 77.101636 235.22075 73.453125 239.66211 C 73.298134 239.85078 73.146716 240.04931 72.998047 240.25391 L 78.53125 239.97852 C 78.53125 239.97852 84.524018 243.117 86.521484 243.40234 C 88.518959 243.68769 87.947266 248.25391 87.947266 248.25391 L 91.085938 251.67773 L 94.992188 256.64453 C 95.689292 255.96784 96.331674 254.38422 96.748047 253.14844 C 96.531054 253.95742 96.210397 255.21955 95.814453 256.83594 L 103.07031 258.52539 L 111.91797 259.66797 L 115.62695 266.51562 L 117.91016 261.09375 L 122.18945 265.375 L 127.61133 259.66797 L 125.61328 267.94336 L 131.03516 267.94336 L 134.45898 270.50977 L 133.0332 276.21875 C 133.0332 276.21875 127.6114 276.21753 122.74414 274.24805 C 122.74414 274.24805 123.2631 277.32301 125.00391 278.47852 C 128.28293 280.65504 132.05497 278.99997 134.96289 277.35547 C 140.53675 274.20332 143.54322 267.79763 146.74414 262.18359 L 140.45312 259.66797 L 131.03516 257.09961 L 122.18945 256.5293 L 119.05078 250.82227 L 124.47266 250.53516 C 124.47266 250.53516 130.1793 252.81952 130.75 253.96094 C 131.32071 255.10235 136.45703 257.09961 136.45703 257.09961 L 146.16016 257.95508 L 151.75 260.58789 C 178.00984 232.06201 185.31641 226.95117 185.31641 226.95117 C 185.31641 226.95117 162.95211 256.67638 153.11914 264.66406 C 151.12653 268.34314 144.99126 270.5436 142.65039 274.21094 C 143.15731 274.19764 143.68202 274.05047 144.16211 273.65039 C 144.80416 273.11536 145.48597 272.94 146.08789 272.93164 C 147.09108 272.91774 147.87109 273.36523 147.87109 273.36523 L 147.58594 278.5 L 143.5918 283.92188 C 143.5918 283.92188 145.01872 283.35235 149.01367 282.21094 C 153.0086 281.06954 150.72461 286.49023 150.72461 286.49023 L 149.01367 293.05469 L 151.29688 300.75781 L 154.43555 307.60742 L 161.85352 307.32227 L 166.41992 308.17773 C 166.41992 308.17773 165.84961 314.45604 165.84961 315.88281 C 165.84961 317.30958 172.41211 318.44922 172.41211 318.44922 L 178.68945 320.16211 C 178.68945 320.16211 179.83124 315.02599 180.97266 314.16992 C 182.11407 313.31388 188.10742 311.60156 188.10742 311.60156 L 188.67773 315.31055 L 194.38477 309.60547 C 194.38477 309.60547 196.09667 304.75331 197.52344 305.60938 C 198.9502 306.46544 201.80273 308.74805 201.80273 308.74805 C 201.80273 308.74805 201.23299 305.03867 203.23047 305.60938 C 205.22793 306.18009 206.6543 306.75 206.6543 306.75 L 210.36328 304.75391 L 214.64453 299.33203 L 217.7832 298.76172 L 220.06641 291.3418 L 227.76953 285.63477 L 233.19141 287.0625 L 236.61719 290.48633 L 242.60938 287.34766 L 245.11523 284.83984 C 241.57801 280.51265 237.70354 275.03788 236.65234 270.72656 C 235.28314 265.111 238.93164 253.53906 238.93164 253.53906 C 238.93164 253.53906 237.06128 264.69948 238.51758 270.72656 C 238.97533 272.62099 241.96467 273.21533 243.90234 273.00586 C 247.34919 272.63322 250.04133 269.54781 252.39258 267 C 255.60439 263.51968 259.64256 254.7793 259.64258 254.7793 L 270.2168 251.71875 C 270.2168 251.71875 274.84529 259.03537 278.28125 260.78711 C 282.2752 262.82333 287.1221 263.84264 291.53711 263.06445 C 295.92217 262.29156 300.44606 259.98672 303.13477 256.4375 C 304.68168 254.39551 304.66797 251.07422 304.66797 251.07422 C 304.66797 251.07422 300.46678 254.82139 297.12891 255.60938 C 293.39707 256.49035 288.77917 255.49692 285.94336 252.91602 C 284.05427 251.19675 282.21904 247.90116 283.45898 245.66797 C 284.80028 243.25221 290.87538 244.47442 293.62891 244.24414 C 297.07487 243.95596 298.65818 243.20257 301.89258 244.42578 C 304.51471 245.41744 308.51953 249.60352 308.51953 249.60352 C 308.51953 249.60352 307.60452 242.71562 305.41211 240.2832 C 302.16452 236.68009 296.99321 234.66733 292.1582 234.27734 C 288.73622 234.00135 284.79459 234.78597 281.22461 235.64844 C 276.12787 236.8798 271.49354 237.90539 266.44531 241.0332 C 263.99669 242.55033 261.72404 247.13114 259.22656 248.56641 C 255.71338 250.58538 251.47204 251.58787 247.42188 251.4668 C 240.89683 251.27174 228.7168 245.66797 228.7168 245.66797 L 211.80078 257.26562 L 228.36914 243.18359 C 228.36914 243.18359 240.70202 248.19338 247.21484 248.36133 C 250.748 248.45243 254.57713 247.96148 257.57031 246.08203 C 260.69316 244.12117 264.4043 237.38281 264.4043 237.38281 C 259.758 238.81674 254.07714 242.77711 249.44141 242.02344 C 245.06209 241.21862 239.50865 239.52343 237.8418 235.39453 C 236.94939 233.18392 238.90542 227.5734 241.83008 227.65039 C 244.73925 227.72699 248.28731 228.54591 249.9082 230.96289 C 250.98483 232.56829 249.9082 236.76172 249.9082 236.76172 C 249.9082 236.76172 255.47105 231.81003 255.5 228.47852 C 255.5286 225.18514 247.58203 222.28711 247.58203 222.28711 C 247.9881 220.96734 257.52021 222.58422 257.36328 228.68555 C 257.32118 230.32596 255.5 233.24219 255.5 233.24219 C 255.5 233.24219 262.01688 228.39539 261.71289 224.95703 C 261.33865 220.72406 256.51464 217.29059 252.39258 216.25781 C 245.87898 214.62584 238.35868 217.48917 232.92578 221.43555 C 229.53284 223.90013 226.0918 231.99805 226.0918 231.99805 L 215.11523 239.24805 L 220.91406 232.61914 C 220.91406 232.61914 224.95917 224.28794 225.67578 219.7793 C 226.76033 212.95588 224.84766 199.06836 224.84766 199.06836 C 224.84766 199.06836 228.20779 212.65051 226.99023 219.92188 C 226.47015 223.0279 223.39844 229.51367 223.39844 229.51367 C 223.39844 229.51367 229.39102 220.41028 233.66602 217.85938 C 240.03701 214.05779 246.74579 212.85677 253.84375 215.01562 C 258.44442 216.41493 264.49471 219.34975 265.02734 224.12891 C 265.52296 228.57593 256.74219 234.69141 256.74219 234.69141 L 253.35742 240.39258 C 253.35742 240.39258 262.39979 235.37917 265.44141 231.37891 C 270.05836 225.30678 273.51455 217.9203 273.72461 210.04492 C 273.86694 207.25112 275.58984 202.38281 275.58984 202.38281 L 278.28125 194.7207 C 278.28125 194.7207 273.76224 200.48185 271.24023 199.27539 C 267.83505 197.64644 270.0625 188.01367 270.0625 188.01367 C 270.0625 188.01367 263.07937 194.89091 259.43555 194.7207 C 257.50342 194.6305 256.58722 191.67585 254.67188 191.40625 C 251.27778 190.92851 244.9375 194.7207 244.9375 194.7207 C 244.9375 194.7207 251.17258 187.57395 248.45703 186.02148 C 245.3472 184.24361 236.52887 186.87158 234.78906 182.5 C 233.73373 179.84835 239.8905 178.0534 239.3457 175.25195 C 239.05309 173.7473 236.15303 173.99472 235.61719 172.55859 C 235.19574 171.429 236.44531 169.03906 236.44531 169.03906 C 236.44531 169.03906 229.24973 172.42821 226.0918 170.90234 C 223.19954 169.50482 220.80894 165.54112 221.53516 162.41211 C 222.24906 159.33611 229.23242 156.89062 229.23242 156.89062 C 222.87604 151.11816 217.98523 147.58798 213.66406 141.90625 C 209.58831 136.31504 209.35608 128.40916 204.9668 123.06055 C 200.79709 117.97955 192.15548 117.2384 189.01758 111.46289 C 184.69399 103.505 189.40615 93.200172 187.56836 84.332031 C 185.16099 72.71539 188.62148 67.745534 175.1875 50.964844 C 172.50002 47.607876 158.17657 42.385986 157.53906 46.638672 C 157.10871 49.509366 159.32683 52.347434 161.26562 54.507812 C 163.64595 57.160201 173.93238 60.371735 170.37891 60.099609 C 164.69425 59.66428 163.80655 58.612078 161.06055 56.787109 C 158.41511 55.028956 155.66755 53.895883 152.50781 54.220703 C 148.59764 54.622677 148.3755 57.617144 148.63281 59.892578 C 148.95438 62.736293 152.51862 64.190139 154.93555 65.722656 C 158.24989 67.824207 165.85352 70.130859 165.85352 70.130859 C 153.96878 70.256955 151.14894 64.227786 147.23047 66.757812 C 144.87532 68.278436 145.22965 71.784019 146.97656 73.976562 C 150.52403 78.428943 162.7168 80.603516 162.7168 80.603516 C 162.7168 80.603516 148.05376 79.326404 143.45508 74.390625 C 140.30487 71.009433 142.6346 64.81825 140.14062 60.927734 C 130.2163 45.446213 113.57424 34.4872 96.970703 26.582031 C 90.477437 23.490497 80.70303 17.001539 73.900391 16.835938 z M 178.68945 320.16211 C 178.68945 320.16211 176.40763 322.44512 174.41016 322.73047 C 172.41269 323.01582 172.41134 326.1541 170.69922 326.43945 C 168.98711 326.7248 166.42051 325.5836 165.56445 323.30078 C 164.70838 321.01794 161.56836 318.16602 161.56836 318.16602 C 161.56836 318.16602 156.43203 315.31133 155.86133 314.16992 C 155.29062 313.02852 150.72461 309.88867 150.72461 309.88867 L 145.58984 313.31445 L 148.1582 309.0332 C 148.1582 309.0332 143.02033 306.18009 141.87891 305.60938 C 140.73749 305.03866 142.16347 302.46993 143.01953 300.75781 C 143.87559 299.04569 146.16016 295.05273 146.16016 295.05273 L 141.87891 290.77148 L 133.31836 294.76562 L 131.03516 305.60938 L 129.03711 312.17188 L 131.89258 313.88477 L 134.17578 321.30469 L 135.60156 324.72852 L 143.5918 320.44727 C 143.5918 320.44727 148.44275 322.4453 149.29883 325.29883 C 150.15488 328.15237 151.8658 331.86113 153.86328 332.14648 C 155.86075 332.43184 163.85156 332.14706 163.85156 334.14453 L 163.85156 336.14258 C 163.85156 336.14258 174.12421 332.14824 175.26562 332.43359 L 183.25586 334.43164 L 188.96289 331.00586 L 194.09961 324.44141 C 194.09961 324.44141 197.52361 328.15234 200.0918 328.15234 C 202.65997 328.15234 206.94024 322.73047 208.65234 322.73047 C 210.36446 322.73047 217.7832 322.44494 217.7832 320.16211 C 217.7832 317.87929 218.35447 313.02793 219.78125 312.17188 C 221.20803 311.31581 226.34375 307.60742 226.34375 307.60742 L 230.625 298.19141 L 235.18945 297.33398 L 233.19141 293.05469 C 233.19141 293.05469 230.05313 288.48864 229.48242 290.77148 C 228.91171 293.05429 226.34375 297.33398 226.34375 297.33398 C 226.34375 297.33398 222.63301 295.33672 222.34766 297.04883 C 222.0623 298.76097 220.06641 304.75391 220.06641 304.75391 L 215.21484 309.88867 C 215.21484 309.88867 211.50624 307.03611 210.93555 308.46289 C 210.36484 309.88966 205.22852 317.30859 205.22852 317.30859 L 202.94531 324.44141 L 198.23633 318.87891 L 188.39062 318.44922 L 185.25391 321.30469 L 178.68945 320.16211 z M 133.31836 294.76562 C 133.31836 294.76562 137.02872 289.63048 137.88477 287.34766 C 138.74083 285.06484 139.02617 283.35216 137.88477 282.49609 C 137.38245 282.11933 136.60892 281.69574 135.89453 281.33008 C 135.27096 281.70812 134.61723 282.04363 133.92773 282.32617 C 132.83157 282.77535 131.70778 282.9549 130.5625 282.94922 L 128.4668 287.34766 L 127.04102 293.05469 L 123.90234 299.33203 L 117.91016 305.89453 L 126.75586 301.32812 L 133.31836 294.76562 z M 79.015625 169.98047 C 79.073905 170.10351 63.642523 182.38795 52.222656 188.21875 L 53.134766 190.04102 L 57.128906 195.17773 C 57.128906 195.17773 54.276745 200.0015 52.617188 202.52539 C 58.756594 200.98704 66.878906 196.37109 66.878906 196.37109 C 66.878906 196.37109 63.407433 189.18555 61.695312 189.18555 C 59.98319 189.18555 59.126953 185.75977 59.126953 185.75977 L 65.689453 183.19336 C 65.689453 183.19336 69.399798 186.90232 70.255859 189.75586 C 71.042922 192.37944 70.390774 191.90134 70.279297 194.01953 L 82.296875 185.70703 C 82.137301 184.69655 81.955078 183.76367 81.955078 183.76367 C 81.955078 183.76367 80.527354 183.76381 77.673828 183.47852 C 74.820292 183.19317 79.101759 180.62423 78.816406 178.91211 C 78.531051 177.2 74.822266 178.3418 74.822266 178.3418 L 79.015625 169.98047 z M 73.109375 53.642578 L 73.398438 53.435547 C 64.328922 51.032971 52.934653 48.491095 45.287109 48.501953 C 38.144294 48.51207 25.508427 46.010725 24.347656 53.058594 C 23.841524 56.131657 25.861383 58.460529 29.015625 60.041016 C 29.370957 59.838939 29.734375 59.634766 29.734375 59.634766 L 34.300781 57.636719 L 35.15625 53.927734 L 42.291016 48.791016 L 73.109375 53.642578 z M 88.804688 28.246094 L 78.40625 33.082031 C 79.676541 33.786925 80.905055 34.456458 81.943359 35.041016 C 84.826192 36.664031 87.92587 38.489597 90.949219 40.3125 L 90.515625 39.375 L 97.078125 29.671875 L 88.804688 28.246094 z M 103.35742 33.953125 L 101.64453 37.091797 C 101.64453 37.091797 97.079112 38.234176 95.652344 38.519531 C 94.792152 38.691567 93.729601 40.309534 93.017578 41.572266 C 98.145537 44.695909 102.84984 47.666026 105.57227 49.404297 L 106.49609 47.650391 L 106.78125 45.652344 L 110.77539 43.083984 L 109.63477 36.521484 L 103.35742 33.953125 z M 74.25 41.373047 C 72.823232 41.373047 66.832031 46.224609 66.832031 46.224609 C 66.832031 46.224609 65.690637 48.790615 63.978516 49.361328 C 63.855902 49.402248 63.66827 49.429133 63.451172 49.445312 C 67.229178 50.481178 70.946684 51.644059 74.330078 52.769531 L 81.099609 47.935547 L 80.814453 44.226562 C 80.814453 44.226562 75.676777 41.373048 74.25 41.373047 z M 59.982422 54.212891 C 59.982422 54.212891 50.282237 55.353316 48.855469 55.638672 C 47.727786 55.864203 44.11119 60.536964 42.078125 62.630859 C 46.629162 63.036098 51.309319 64.29857 55.917969 65.431641 L 55.988281 63.058594 L 60.839844 57.921875 L 59.982422 54.212891 z M 77.673828 58.208984 L 68.257812 59.064453 L 64.548828 66.482422 L 61.951172 66.865234 C 65.647298 67.769815 70.044675 68.923319 73.857422 69.945312 L 74.535156 67.910156 L 77.673828 65.912109 L 77.673828 58.208984 z M 42.585938 67.332031 C 40.957105 68.561845 38.051886 70.802561 37.439453 71.619141 C 36.720064 72.578329 37.18864 77.923755 37.363281 79.685547 C 39.764024 79.814179 42.172709 79.827648 44.582031 79.828125 L 45.144531 75.330078 L 50.28125 71.333984 L 52.154297 67.587891 C 49.716775 67.486302 46.296384 67.380026 42.585938 67.332031 z M 32.630859 67.419922 C 30.028978 67.520669 27.596868 67.691706 25.611328 67.970703 C 21.596432 68.534843 15.565073 72.363147 16.705078 76.253906 C 18.295547 81.682098 27.31739 79.183778 33.351562 79.394531 L 29.451172 76.470703 L 28.308594 73.902344 L 32.630859 67.419922 z M 62.246094 68.853516 C 61.732833 69.582214 60.721847 70.559166 60.267578 71.619141 C 59.525939 73.349625 56.984086 78.647727 56.226562 80.224609 C 60.066668 80.52006 64.489237 80.932332 68.263672 81.300781 L 70.255859 73.902344 L 73.402344 70.755859 L 62.246094 68.853516 z M 37.619141 81.955078 C 33.18949 82.341506 28.66341 83.003566 25.517578 84.130859 C 21.884053 85.432911 15.52201 86.701502 15.876953 90.544922 C 16.297925 95.103267 23.93303 96.02551 28.509766 95.929688 C 30.625949 95.885378 32.63242 95.861476 34.576172 95.847656 L 32.873047 91.308594 L 35.728516 90.167969 L 38.294922 87.599609 L 37.619141 81.955078 z M 54.769531 96.591797 C 46.81136 96.568867 34.88652 96.93307 27.888672 99.037109 C 25.223619 99.838409 21.436236 100.51096 20.640625 103.17773 C 19.554926 106.8168 22.020876 113.29744 25.818359 113.32617 C 29.780633 113.35627 33.868907 113.28063 37.666016 113.16992 L 39.722656 111.57031 L 38.867188 108.42969 L 42.291016 103.00781 L 43.716797 97.015625 L 55.130859 97.015625 L 55.271484 96.597656 C 55.086926 96.596846 54.958673 96.592497 54.769531 96.591797 z M 65.404297 100.72656 L 73.109375 103.00781 L 67.6875 103.00781 L 67.402344 108.14453 L 62.835938 108.42969 L 60.267578 109.28711 L 61.980469 104.43555 L 65.404297 100.72656 z M 342.04102 114.08398 C 339.21321 114.11888 336.41293 114.4027 333.65234 115.0918 C 321.10622 118.22358 310.08784 126.31096 300.01367 134.41797 C 297.22531 136.66185 292.79883 142.36914 292.79883 142.36914 C 292.79883 142.36914 300.62841 144.62382 303.92773 146.89453 C 307.42083 149.29863 311.29214 152.16005 312.61328 156.18945 C 313.80288 159.81761 309.31055 169.40039 309.31055 169.40039 L 306.61914 165.97461 C 306.61914 165.97461 296.95283 169.23943 293.28711 172.58008 C 289.49857 176.03265 287.35194 181.00989 285.21289 185.66797 C 282.01655 192.62838 280.47601 200.23624 278.24219 207.5625 C 275.48012 216.62122 270.29102 234.83984 270.29102 234.83984 C 270.29102 234.83984 283.28006 230.93119 289.98438 230.67969 C 294.58833 230.507 299.37857 231.31803 303.43945 233.49414 C 306.1643 234.95432 308.4874 236.68688 309.79883 239.48633 C 310.11945 240.17072 310.38904 241.00993 310.61914 241.91992 L 315.66016 237.41016 L 314.80273 234.55664 L 313.37695 231.98828 L 312.51953 234.27148 L 308.24023 234.55664 L 309.66797 230.84766 L 312.80664 228.84961 L 311.66406 224.2832 L 308.52539 217.15039 L 306.24219 224.56836 L 303.95898 228.84961 L 303.67578 221.42969 L 308.52539 217.15039 L 308.81055 207.44727 L 315.66016 208.01953 L 319.08398 203.16797 L 319.6543 207.16211 L 314.23242 212.29883 L 311.09375 218.86328 L 315.66016 213.72461 L 322.22266 211.15625 L 327.07227 218.86328 C 327.07227 218.86328 322.50899 219.14648 320.79688 219.14648 C 319.08475 219.14648 317.08594 223.71289 317.08594 223.71289 L 316.23047 231.98828 C 316.23047 231.98828 317.37286 230.84709 317.6582 228.84961 C 317.94356 226.85214 317.94297 227.70821 318.51367 225.99609 C 319.08438 224.28397 322.22266 223.42773 322.22266 223.42773 L 328.5 223.42773 L 326.78906 229.70508 L 321.9375 231.70312 C 321.9375 231.70312 319.08419 236.26874 318.79883 237.41016 C 318.53651 238.45939 311.78732 241.5552 310.65625 242.06836 C 311.74862 246.51604 311.87891 252.69727 311.87891 252.69727 C 311.87891 252.69727 309.08929 251.91127 307.96484 252.57422 C 304.96463 254.34307 305.93393 259.71989 303.19336 261.86914 C 298.47765 265.56736 291.67897 266.48118 285.70312 266.0293 C 281.79996 265.73416 277.97402 263.94094 274.81836 261.625 C 272.64674 260.03122 269.67969 255.38672 269.67969 255.38672 L 260.99609 257.09961 C 260.99609 257.09961 257.33202 265.52442 254.39062 268.96484 C 251.29539 272.5852 243.13867 277.77148 243.13867 277.77148 C 243.13867 277.77148 251.00142 287.20913 255.61328 291.22656 C 259.85202 294.919 263.95943 299.61856 269.43555 300.88867 C 273.05311 301.72772 278.04432 302.0124 280.44336 299.17773 C 282.68236 296.53218 280.32227 288.7793 280.32227 288.7793 L 274.57227 279.60547 C 274.57227 279.60547 278.74891 285.33042 281.91211 286.33398 C 283.44016 286.81879 285.43825 286.73262 286.68164 285.7207 C 288.62173 284.14177 289.02004 281.12598 289.12891 278.62695 C 289.27524 275.26801 286.68164 268.8418 286.68164 268.8418 C 286.68164 268.8418 289.31914 273.30858 291.45312 274.5918 C 293.34445 275.72912 295.82358 276.57796 297.93555 275.9375 C 301.32914 274.90835 303.84783 271.54372 305.39648 268.35352 C 306.38366 266.31993 306.25195 261.62499 306.25195 261.625 C 306.25195 261.625 309.45084 256.20912 312.12305 254.89844 C 314.61654 253.67543 318.10702 255.91283 320.44141 254.4082 C 322.64882 252.9854 321.95791 248.94078 324.11133 247.4375 C 326.13497 246.02484 329.47084 247.93438 331.44922 246.45898 C 334.24345 244.37516 335.47789 240.39449 335.73047 236.91797 C 336.24951 229.77384 329.76874 223.49532 329.85938 216.24609 C 329.86638 215.74768 329.90773 215.44048 329.98047 215.28906 C 329.72057 214.01126 329.43076 211.85072 330.21289 210.87305 C 331.3543 209.4463 335.06445 209.44531 335.06445 209.44531 L 332.78125 215.15234 L 340.48438 214.86719 L 342.19727 221.14453 C 342.19727 221.14453 339.34318 222.28653 337.3457 223.14258 C 336.14477 223.65726 335.25389 224.47422 334.42383 224.42969 C 335.5129 226.68672 336.71262 228.73582 337.93164 229.70117 C 340.34755 231.61436 343.96716 233.86389 346.73828 232.51562 C 349.78923 231.03123 347.17264 224.32511 350.28516 222.97461 C 350.42823 222.91251 350.57159 222.86347 350.71484 222.82422 C 349.84611 221.95959 346.82506 218.96162 345.33594 217.7207 C 343.62381 216.29393 345.33573 216.00803 345.62109 212.86914 C 345.90644 209.73025 342.19749 209.72989 339.05859 207.73242 C 335.9197 205.73494 337.91602 203.73828 337.91602 203.73828 L 336.20508 192.89453 L 341.62695 196.0332 C 341.62695 196.0332 341.34101 201.45487 342.48242 204.59375 C 343.62383 207.73263 345.05078 203.45312 345.05078 203.45312 C 345.05078 203.45312 348.76075 203.16797 350.1875 203.16797 C 351.61429 203.16797 350.47266 209.44531 350.47266 209.44531 L 349.90234 215.72266 L 354.4668 211.15625 C 354.4668 211.15625 357.89218 217.43398 358.46289 219.7168 C 358.86057 221.30756 355.27081 222.47065 353.03906 223.03711 C 356.60632 224.46771 360.20453 230.159 363.74023 228.59961 C 366.23526 227.49922 364.38659 222.45989 366.26758 220.70117 L 363.0293 213.72461 C 363.0293 213.72461 367.87852 209.73125 368.44922 208.58984 C 369.01992 207.44843 368.44922 206.5918 368.44922 206.5918 L 375.01367 204.59375 L 379.29297 198.60156 L 380.43359 198.03125 C 380.43359 198.03125 380.43437 203.16698 379.29297 204.59375 C 378.15155 206.02051 377.58203 209.16016 377.58203 209.16016 L 372.44531 205.45117 L 373.87109 212.86914 C 373.87109 212.86914 371.58909 213.1543 369.87695 213.1543 C 368.61239 213.1543 367.50691 217.81049 367.01367 220.25195 C 370.16399 219.06432 374.22456 224.51902 377.31641 222.85156 C 379.99608 221.40638 378.45082 216.54249 380.49805 214.28906 C 382.50901 212.07558 387.03805 212.94512 388.57031 210.37695 C 390.01312 207.95876 386.85401 204.40722 388.20312 201.93555 C 389.56 199.44965 394.13241 200.11014 395.54297 197.6543 C 396.63954 195.74514 396.26401 193.13103 395.54297 191.05078 C 393.86007 186.19545 386.00195 178.93945 386.00195 178.93945 L 379.57812 174.91797 L 383.28711 168.92578 L 383.85938 166.35742 L 388.42578 169.49609 C 388.42578 169.49609 388.99473 172.91893 388.13867 174.3457 C 387.28262 175.77244 386.00195 178.93945 386.00195 178.93945 C 386.00195 178.93945 388.65266 180.62833 391.60547 182.14453 C 391.99719 180.20567 392.74046 177.48633 393.8457 177.48633 C 395.55783 177.48633 397.55664 176.62891 397.55664 176.62891 C 397.55664 176.62891 399.26837 178.0576 398.12695 179.48438 C 396.98554 180.91115 394.70312 183.47852 394.70312 183.47852 L 394.51367 183.50977 C 395.36399 183.86257 396.17674 184.15075 396.88867 184.32227 C 399.78248 185.01947 403.99689 186.80108 405.81641 184.44531 C 407.3159 182.50388 404.97681 179.53538 403.85938 177.35156 C 402.40623 174.51163 401.69887 173.76299 397.86719 169.89062 C 397.6979 169.71953 397.604 169.56617 397.5625 169.42383 C 395.77941 168.45053 392.8024 166.83285 390.70703 165.78516 C 387.85349 164.35839 375.58398 157.51172 375.58398 157.51172 L 369.87695 154.08789 C 369.87695 154.08789 370.73339 146.0959 372.16016 145.81055 C 373.14106 145.61437 373.85092 144.74397 374.94141 144.77539 C 375.43709 144.78969 376.01122 144.9923 376.72461 145.52734 C 379.00743 147.23947 380.15039 151.51953 380.15039 151.51953 L 377.86719 156.08398 L 381.00586 159.79297 L 384.42969 159.22266 L 384.42969 153.80078 C 384.42969 153.80078 388.6757 147.32645 389.54883 150.56445 C 390.42197 153.80242 394.41641 155.7996 393.8457 157.51172 C 393.27499 159.22384 389.85156 162.36133 389.85156 162.36133 C 389.85156 162.36133 388.13903 164.9291 393.27539 165.78516 C 397.51202 166.49126 399.60875 165.45078 400.21484 164.42383 C 400.32897 163.81598 400.41016 163.49241 400.41016 163.78906 C 400.41016 163.989 400.3436 164.20574 400.21484 164.42383 C 400.04893 165.30752 399.81197 166.8035 399.61328 168.08594 C 401.92113 167.45555 405.39143 166.88642 405.93945 165.11914 C 406.71206 162.62775 404.40359 159.94427 402.63672 158.02539 C 400.74898 155.97519 396.9569 153.92504 393.92773 152.48633 C 395.07302 152.86097 396.23585 153.11439 397.13281 153.00977 C 398.93164 152.79994 401.00607 151.83401 401.78125 150.19727 C 403.13865 147.33116 402.26147 143.37025 400.43555 140.77734 C 396.61326 135.34946 382.82031 131.48242 382.82031 131.48242 L 374.72852 129.83203 L 379.86328 125.83594 L 380.43359 119.84375 L 384.14453 119.27344 L 383.00391 128.11914 L 382.82031 131.48242 L 386.14258 125.26562 L 391.84766 121.8418 L 390.70703 126.12305 L 389.03516 131.61914 C 390.37292 131.52714 391.69139 131.32732 392.73242 130.94531 L 395.84375 124.98047 L 395.84375 129.12891 C 398.37558 127.29761 400.67975 124.73527 400.06836 122.06445 C 399.05119 117.62096 392.27872 116.96752 387.83594 115.94727 C 381.31851 114.45061 374.46407 116.26041 367.77734 116.19336 C 359.24185 116.10776 350.52444 113.97922 342.04102 114.08398 z M 73.964844 115.56445 C 77.389078 115.56445 69.400391 116.99023 69.400391 116.99023 L 64.263672 122.98242 L 59.697266 127.54883 L 60.267578 123.83984 L 59.126953 115.84961 L 62.265625 116.41992 C 62.265625 116.41992 70.540601 115.56445 73.964844 115.56445 z M 71.681641 130.11719 L 70.541016 134.39648 L 67.972656 136.67969 L 65.119141 138.10742 L 66.546875 134.68359 L 66.259766 130.6875 L 71.681641 130.11719 z M 378.72266 132.9707 C 378.72266 132.9707 378.15234 137.53572 378.15234 139.5332 C 378.15234 141.53067 377.58106 142.67362 379.00781 142.95898 C 380.43459 143.24434 383.00352 139.81936 383.57422 138.39258 C 384.14494 136.96581 387.28262 136.10994 388.13867 138.10742 C 388.99473 140.10489 389.56641 142.95819 389.56641 144.09961 C 389.56641 145.24103 389.8504 146.66777 388.70898 146.95312 C 387.56757 147.23847 385.56993 148.37929 383.28711 147.80859 C 381.00428 147.23788 373.58594 141.53125 373.58594 141.53125 L 371.87305 139.5332 L 372.73047 133.82617 L 378.72266 132.9707 z M 369.30664 142.10156 L 366.45117 154.08789 L 364.16992 159.79297 L 364.16992 163.21875 L 362.74219 159.22266 L 366.45117 154.08789 L 365.88086 146.95312 L 369.30664 142.10156 z M 284.18359 143.45898 C 281.97431 143.41068 279.97539 144.01726 277.88086 144.42969 C 275.77158 144.84502 273.87881 145.31093 271.65625 146.11523 C 269.43371 146.91952 266.91201 146.56616 264.7832 147.67188 C 262.6544 148.77759 261.29858 150.0281 259.33594 152.59961 C 257.37332 155.17113 252.4246 160.58205 253.88867 163.36523 C 255.35274 166.14839 258.9298 162.60685 260.63281 164.27148 C 262.33582 165.93611 260.35338 169.47094 261.79883 171.66406 C 263.24429 173.85716 267.55803 174.43746 268.80273 176.07422 C 270.04745 177.71101 268.59321 178.93946 269.96875 179.96289 C 271.34429 180.98635 274.29483 179.34836 276.19531 179.96289 C 278.0958 180.57742 278.64298 183.52731 280.86328 183.33594 C 283.08358 183.14457 284.69601 179.94486 286.18164 177.89062 C 287.66726 175.83642 287.40069 173.14812 289.68359 171.14453 C 291.96647 169.14096 297.00078 168.70183 299.66992 167.51367 C 302.33905 166.3255 305.76367 164.27148 305.76367 164.27148 C 305.76367 164.27148 304.47506 162.14437 302.78125 161.67773 C 301.08742 161.21108 298.74406 163.12504 296.29688 162.84375 C 293.84971 162.56247 288.77539 159.60352 288.77539 159.60352 C 288.77539 159.60352 292.96916 161.4111 295.51758 161.54883 C 298.066 161.68655 301.17594 159.278 303.68945 160.12305 C 306.20294 160.96811 308.87695 165.69727 308.87695 165.69727 C 308.87695 165.69727 311.01622 160.83791 310.43359 158.30469 C 309.85095 155.77147 307.27041 152.81668 305.50391 151.95117 C 303.73742 151.08566 302.01031 153.07867 301.74414 151.95117 C 301.47796 150.82368 304.5957 150.52344 304.5957 150.52344 C 304.5957 150.52344 296.84704 145.73965 292.53711 144.42969 C 290.16178 143.70773 287.74552 143.81034 285.14453 143.52148 C 284.81942 143.48538 284.4992 143.46588 284.18359 143.45898 z M 71.111328 145.24023 L 69.310547 148.11914 L 69.970703 154.6582 C 69.970703 154.6582 71.112699 154.94393 71.96875 156.94141 C 72.824821 158.9389 72.824219 161.21991 72.824219 162.36133 C 72.824219 163.50274 74.250799 164.64512 73.109375 166.64258 C 71.96799 168.64005 69.683594 170.63672 69.683594 170.63672 L 68.830078 161.2207 L 65.689453 160.93555 L 65.689453 158.08203 L 65.689453 153.80078 L 63.121094 152.08984 L 62.550781 148.95117 L 71.111328 145.24023 z M 288.77734 151.05664 C 289.28407 151.05064 289.75678 151.07858 290.17773 151.14648 C 292.44045 151.51116 295.84909 153.86884 296.29688 154.2793 L 292.86328 153.04883 C 292.86328 153.04883 292.68943 154.88249 292.08008 155.47461 C 291.18802 156.34142 289.71592 156.77239 288.49805 156.51953 C 287.46889 156.30585 286.58548 155.51393 286.07227 154.50391 C 285.36975 153.12141 286.03516 152.45117 286.03516 152.45117 C 283.62134 152.6058 282.05668 152.68724 280.06641 152.71289 C 280.0664 152.71289 285.2303 151.09689 288.77734 151.05664 z M 250.60938 152.63672 C 248.09891 152.69372 245.82546 154.53707 243.31445 154.51562 C 241.09773 154.49662 239.11026 152.96502 236.9043 152.74609 C 234.33126 152.49069 229.16602 153.29883 229.16602 153.29883 C 229.16602 153.29883 235.7842 159.85309 233.36719 159.37891 C 230.2853 158.77432 227.99339 160.9691 227.61914 163.24805 C 227.3636 164.80422 229.03296 166.40786 230.49219 167.00586 C 233.17774 168.10638 236.19193 167.04848 239.11523 165.79102 C 240.44516 165.21887 237.51526 168.62955 238.00977 169.99023 C 238.75004 172.02714 242.45039 171.76049 243.31445 173.74805 C 244.41135 176.27118 240.75566 179.59286 242.21094 181.92773 C 243.75168 184.39969 248.81922 182.31245 250.5 184.69141 C 251.62701 186.28655 248.83279 189.36823 250.38867 190.54883 C 252.2273 191.94394 255.26733 187.05866 257.02148 188.55859 C 257.64325 189.09025 256.07018 190.45763 256.68945 190.99219 C 258.69315 192.72174 261.83735 189.70688 264.31641 188.7793 C 267.43513 187.61238 273.38086 184.58008 273.38086 184.58008 C 273.38086 184.58008 272.12141 188.45822 272.27539 190.43945 C 272.41175 192.19384 272.39075 194.80661 274.04297 195.41211 C 275.76368 196.0427 277.7679 194.16492 278.79688 192.64844 C 280.19826 190.58307 279.90234 185.24414 279.90234 185.24414 C 279.90234 185.24414 277.87822 182.12409 276.25391 181.48438 C 274.19444 180.67328 271.42102 183.1093 269.62305 181.81836 C 268.19239 180.79114 269.25102 178.13481 268.18555 176.73242 C 266.38506 174.36262 262.29112 174.50979 260.55859 172.08984 C 259.17439 170.15645 260.92774 166.5351 259.01172 165.12695 C 257.2538 163.83499 254.0377 167.21748 252.49023 165.67969 C 251.15327 164.3511 252.26089 161.80249 252.93164 160.04102 C 253.82061 157.70645 257.46289 154.07422 257.46289 154.07422 C 257.46289 154.07422 252.9428 152.58375 250.60938 152.63672 z M 370.73242 158.65234 C 371.87383 158.65234 375.58398 159.79297 375.58398 159.79297 L 378.15234 166.35742 L 373.87109 171.20703 L 370.16211 170.06641 L 369.02148 160.36328 C 369.02148 160.36328 369.59099 158.65234 370.73242 158.65234 z M 49.144531 159.56055 C 46.508461 161.09271 43.972454 162.58252 41.832031 163.88867 L 44.287109 168.35352 L 44.859375 173.49023 L 45.300781 175.25586 C 47.512343 174.22014 51.060547 172.12695 51.060547 172.12695 C 51.060547 172.12695 51.706628 168.06915 52.277344 166.92773 C 52.848042 165.78633 49.425781 166.64258 49.425781 166.64258 L 49.996094 161.50586 L 49.144531 159.56055 z M 44.859375 173.49023 C 44.859375 173.49023 40.008789 177.20077 38.582031 177.77148 C 37.155263 178.34218 36.298828 176.91602 36.298828 176.91602 C 36.298828 176.91602 36.584775 171.77949 35.443359 171.49414 C 34.301944 171.20877 36.013672 168.06836 36.013672 168.06836 L 37.550781 166.44531 C 36.38915 167.14546 35.266689 167.89609 34.310547 168.8457 C 32.479356 170.66443 29.971987 172.67108 29.960938 175.25195 C 29.953637 176.99432 31.208418 179.04264 32.859375 179.59961 C 34.353206 180.10355 35.861723 179.89321 37.367188 179.34375 L 44.859375 173.49023 z M 361.88672 166.07227 L 367.02344 170.92383 C 367.02344 170.92383 365.02539 173.77558 365.02539 176.34375 C 365.02539 178.91194 362.45801 176.91466 361.03125 176.05859 C 359.60448 175.20254 359.60352 171.20784 359.60352 170.06641 C 359.60352 168.925 361.88672 166.07227 361.88672 166.07227 z M 356.69141 175.44531 C 357.88271 175.53931 359.88867 180.05469 359.88867 180.05469 L 360.17578 181.19531 C 360.17578 181.19531 359.0332 188.04314 359.0332 190.61133 C 359.0332 193.17949 356.46427 191.46722 354.4668 188.04297 C 352.46932 184.61873 353.32617 183.47777 353.32617 178.91211 C 353.32617 174.34647 355.32342 176.05897 356.46484 175.48828 C 356.53614 175.45268 356.61199 175.43911 356.69141 175.44531 z M 371.87305 175.48828 L 375.01367 178.91211 L 373.01562 186.33203 L 370.16211 189.18555 C 370.16211 189.18555 371.01758 194.03572 371.01758 196.0332 L 371.01758 201.74023 C 371.01758 201.74023 367.59258 202.02619 366.45117 200.88477 C 365.30976 199.74336 363.3125 196.60352 363.3125 196.60352 L 364.16992 202.88281 L 362.17188 207.73242 L 359.31836 209.44531 L 354.18164 206.5918 L 353.89648 201.16992 L 357.32031 198.31641 C 357.32031 198.31641 355.60819 196.6041 357.32031 195.74805 L 361.31641 193.75 C 361.31641 193.75 361.31678 187.758 363.59961 187.47266 C 365.88243 187.18729 366.73828 186.04688 366.73828 186.04688 L 366.73828 182.9082 L 371.58984 185.47656 L 367.59375 179.19727 L 371.87305 175.48828 z M 37.904297 181.23828 C 37.738575 181.44072 37.576922 181.65426 37.416016 181.87891 C 35.49446 184.56176 32.543351 188.92798 34.724609 191.4043 C 36.570286 193.49965 40.33729 190.97974 43.007812 190.16406 C 44.15853 189.81258 45.289704 189.40611 46.40625 188.96094 C 46.071141 188.79223 45.714844 188.61523 45.714844 188.61523 L 43.716797 187.1875 C 41.719322 185.76073 40.57988 185.19064 40.865234 183.47852 C 41.02614 182.51308 39.37755 181.73855 37.904297 181.23828 z M 383.28711 183.19336 L 387.2832 185.18945 L 385 191.75391 L 378.72266 194.32227 L 378.72266 192.60938 L 378.4375 188.04297 L 383.28711 183.19336 z M 344.48047 184.90625 L 355.03906 193.17969 L 350.1875 200.59961 C 350.1875 200.59961 349.04475 200.31349 346.47656 198.88672 C 343.90839 197.45996 343.62324 193.46582 343.33789 192.03906 C 343.05255 190.61228 344.48047 184.90625 344.48047 184.90625 z M 48.326172 190.00391 C 47.997026 190.13381 47.672624 190.25804 47.357422 190.36914 C 43.456812 191.74393 39.01307 196.87446 40.523438 200.72461 C 41.691342 203.70179 46.652585 203.21403 49.84375 203.00391 C 50.420556 202.96591 51.050147 202.86116 51.701172 202.72852 C 51.607952 202.58833 51.518522 202.46712 51.421875 202.3125 C 49.995107 200.02968 49.424026 199.17305 49.138672 197.46094 C 48.853309 195.74881 50.566012 193.75079 51.136719 192.60938 C 51.443167 191.99648 49.860577 190.89725 48.326172 190.00391 z M 67.189453 198.14453 C 67.139373 198.17423 67.082824 198.21113 67.033203 198.24023 C 62.371344 200.97969 58.840053 202.39253 52.996094 204.56055 C 53.225516 204.87217 53.445732 205.1713 53.640625 205.4707 C 55.880887 206.4786 59.412109 207.16211 59.412109 207.16211 L 62.835938 213.43945 L 66.832031 214.01172 L 66.902344 214.03125 C 69.715957 212.35588 72.603904 210.32153 75.394531 208.35352 C 74.98171 208.46526 74.535156 208.58984 74.535156 208.58984 L 72.539062 203.73828 C 72.539062 203.73828 68.828511 203.73907 68.257812 202.59766 C 67.903018 201.88807 67.47664 199.73276 67.189453 198.14453 z M 53.640625 205.4707 C 53.15592 205.25264 52.73316 205.01803 52.417969 204.77344 C 51.260931 205.20157 50.181925 205.60245 48.806641 206.11133 C 46.015811 207.14397 47.606152 212.66258 49.427734 215.01562 C 51.15051 217.24104 50.884478 218.07232 57.435547 217.69531 C 58.475635 217.63551 59.578461 217.39323 60.726562 217.01172 L 60.267578 216.29492 C 60.267578 216.29492 55.988666 214.58143 55.417969 212.58398 C 54.847261 210.5865 55.131265 209.44474 54.560547 207.44727 C 54.336684 206.66372 54.022914 206.058 53.640625 205.4707 z M 330.21289 201.45508 L 333.35156 205.16406 L 328.21484 209.73047 L 326.21875 207.73242 L 330.21289 201.45508 z M 303.67578 209.44531 L 305.38672 211.44336 L 301.67773 214.29688 C 301.67773 214.29688 300.82227 222.85707 300.82227 217.7207 L 300.82227 212.01367 L 303.67578 209.44531 z M 113.91406 216.86523 L 116.76758 217.43555 L 122.18945 222.57227 C 122.18945 222.57227 124.47284 222.85742 127.04102 222.85742 C 129.6092 222.85742 128.18359 227.70703 128.18359 227.70703 L 125.04297 227.99414 L 122.76172 224.85547 L 118.76562 225.99609 L 117.33984 222 L 109.63477 221.14453 L 113.91406 216.86523 z M 104.7832 223.99805 L 110.49023 224.85547 C 110.49023 224.85547 111.34705 224.28397 112.20312 225.99609 C 113.05918 227.70821 115.91211 228.84961 115.91211 228.84961 L 121.33398 236.55273 L 130.75 239.4082 L 131.32227 242.83203 L 133.0332 243.11719 L 140.45312 241.11914 L 142.73633 235.12695 L 140.45312 244.83008 L 143.5918 245.68555 L 139.88086 250.25195 L 136.17188 245.68555 L 130.17969 246.54102 L 127.89648 243.97266 L 123.04492 240.26367 L 121.33398 236.55273 L 111.3457 227.70703 L 99.646484 224.85547 L 104.7832 223.99805 z M 133.0332 226.56641 L 137.31445 227.70703 L 146.16016 228.84961 L 154.43359 238.55078 L 149.58398 236.26953 L 144.73242 231.41797 L 139.31055 230.84766 L 133.0332 226.56641 z M 111.91797 230.56055 L 101.64453 245.40039 L 107.92188 246.54102 L 115.3418 251.10742 L 109.0625 253.39062 L 105.06836 248.53906 L 98.505859 249.10938 L 97.648438 245.11328 L 93.939453 245.40039 L 91.65625 240.83398 L 86.521484 238.26562 L 93.369141 234.55664 L 92.798828 238.83789 L 99.361328 241.11914 L 102.21484 242.54688 L 111.91797 230.56055 z M 331.06836 232.27344 L 329.07031 239.97852 C 329.07031 239.97852 326.2176 245.97089 325.07617 245.68555 C 323.93477 245.40019 323.07812 244.54297 323.07812 244.54297 C 323.07812 244.54297 321.93614 248.25292 321.08008 249.67969 C 320.22401 251.10646 314.80273 250.82227 314.80273 250.82227 L 320.22461 246.25586 L 321.65234 241.69141 L 325.64648 241.69141 L 329.64258 236.55273 L 331.06836 232.27344 z M 197.15234 240.6543 L 206.35352 257.08398 C 200.62431 254.2699 198.54984 247.8001 197.15234 240.6543 z M 71.908203 242.02344 C 70.652889 244.45097 70.053229 247.36035 71.173828 249.60156 C 72.390107 252.03412 75.970258 252.35221 78.630859 252.91602 C 79.342554 253.06684 80.8125 252.91406 80.8125 252.91406 L 76.533203 249.10742 L 73.394531 247.9668 L 71.908203 242.02344 z M 80.84375 253.04883 C 80.75767 253.47537 80.578998 254.27555 80.080078 256.32227 C 79.624032 258.19308 80.23819 260.48545 81.529297 261.91406 C 82.862045 263.38875 85.287814 263.35158 87.121094 262.88477 C 87.92321 262.68052 88.811191 262.19402 89.691406 261.58008 L 86.521484 260.52344 L 81.669922 256.5293 L 80.84375 253.04883 z M 95.154297 259.69531 C 94.172968 264.84093 94.437253 271.72929 98.720703 274.24805 C 101.3371 275.78655 105.12362 273.54374 107.41797 271.55664 C 107.79824 271.22728 108.16948 270.83768 108.5293 270.40234 L 105.63867 269.36914 L 100.21875 266.23047 L 95.367188 263.66211 L 95.154297 259.69531 z M 109.74609 270.81055 C 109.63995 271.74492 109.61419 272.62651 109.69727 273.41992 C 109.86108 274.98715 110.57358 276.84125 111.97461 277.5625 C 114.0759 278.64425 116.98182 277.93827 119.01562 276.73438 C 120.06927 276.11066 121.12594 275.13962 122.14453 273.98633 C 119.38178 272.67331 120.73847 271.61389 121.73633 271.11328 L 114.48438 274.2207 L 111.91797 271.08203 L 109.74609 270.81055 z M 113.95508 278.67773 C 113.00745 278.65523 112.06989 278.75211 111.14648 279.01172 C 107.0876 280.15298 102.97117 283.17242 101.41211 287.08984 C 99.714963 291.35424 99.094825 298.46077 103.06836 300.75781 C 103.59489 301.06219 104.19107 301.22285 104.82617 301.2832 L 103.35742 297.9043 L 103.07031 288.77344 L 108.49219 281.07031 L 115.62695 282.21094 L 105.35352 291.05664 L 107.06641 298.47461 L 106.92578 301.14453 C 109.60182 300.60849 112.63079 298.87101 115.07227 297.20508 C 113.84783 295.74707 112.67551 293.97545 113.62891 293.33984 C 115.34104 292.19843 124.75781 286.77539 124.75781 286.77539 L 122.57617 280.95508 C 119.68553 279.87402 116.77557 278.74467 113.95508 278.67773 z M 247.86328 288.0625 L 242.60938 293.05469 C 242.60938 293.05469 238.61328 293.34041 238.61328 298.19141 C 238.61328 303.04242 237.47266 303.89648 237.47266 303.89648 C 237.47266 303.89648 230.62325 303.61192 230.33789 305.60938 C 230.05255 307.60685 226.62891 316.16797 226.62891 316.16797 L 220.06641 320.16211 L 217.49805 325.01367 L 209.22266 329.86328 L 204.65625 335.57227 C 204.65625 335.57227 200.37658 334.14413 198.09375 334.71484 C 195.81091 335.28555 184.39648 340.13672 184.39648 340.13672 L 175.26562 341.84961 C 175.26562 341.84961 173.26878 339.28182 168.70312 341.2793 C 164.13747 343.27676 158.71484 344.70312 158.71484 344.70312 L 150.1543 341.84961 L 143.01953 334.43164 C 143.01953 334.43164 137.88419 328.15115 135.88672 329.86328 C 133.88924 331.5754 121.33398 333.85938 121.33398 333.85938 L 117.91016 322.44531 L 120.47852 314.45508 L 114.77148 307.03711 L 117.05273 299.33203 C 117.05273 299.33203 116.05047 298.37156 115.07812 297.21484 C 112.6801 298.88851 109.68447 300.71334 106.90039 301.62891 L 106.78125 303.89648 L 101.64453 311.31641 L 108.20898 313.88477 L 104.7832 322.16016 C 104.7832 322.16016 106.37778 323.47972 107.74023 324.81836 C 111.26346 323.9546 113.83789 323.12695 113.83789 323.12695 C 113.83789 323.12695 111.4307 324.04443 108.33203 325.42188 C 109.06394 326.19376 109.63477 326.9117 109.63477 327.29688 C 109.63477 328.43829 105.63866 333.85996 108.49219 335.85742 C 111.34573 337.8549 114.48438 338.14062 114.48438 338.14062 C 114.48438 338.14062 117.21102 338.26815 120.61719 339.00391 C 123.1446 337.03078 124.81445 335.55273 124.81445 335.55273 C 124.81445 335.55273 123.97435 337.24415 122.93555 339.58008 C 124.01597 339.8879 125.11705 340.25714 126.18555 340.70703 C 131.60726 342.98985 133.60506 349.83906 134.17578 350.98047 C 134.74647 352.12189 138.16989 354.11913 143.87695 354.11914 C 149.58401 354.11913 150.44059 351.55055 157.28906 354.68945 C 164.13755 357.82832 173.26816 356.97303 175.26562 356.40234 C 177.26309 355.83163 185.25391 352.97852 185.25391 352.97852 L 194.40234 347.15039 C 194.40234 347.15039 200.94706 346.12951 204.08594 345.27344 C 207.22483 344.41738 212.6457 338.70996 213.78711 337.2832 C 214.92852 335.85643 216.42162 330.75417 219.49609 330.15039 C 222.57054 329.54663 220.92241 323.01701 225.77344 321.01953 C 230.62443 319.02206 237.75781 308.46289 237.75781 308.46289 L 245.46289 303.89648 L 251.56445 292.06055 C 251.56445 292.06055 249.97252 290.44581 247.86328 288.0625 z M 194.40234 347.15039 C 194.40234 347.15039 197.29224 353.34899 200.20312 354.39844 C 204.04966 355.78521 208.97362 354.4077 212.21484 351.91406 C 214.05032 350.50247 215.32031 345.70117 215.32031 345.70117 C 215.32031 345.70117 212.93243 347.8408 211.79102 349.26758 C 210.64961 350.69435 202.94531 352.4082 202.94531 352.4082 L 200.37695 350.98047 L 194.40234 347.15039 z M 194.40234 347.15039 L 192.38672 362.39453 L 186.39453 367.81641 C 186.39453 367.81641 179.26055 368.10156 178.11914 368.10156 C 176.97773 368.10156 170.06641 360.91992 170.06641 360.91992 C 170.06641 360.91992 170.20359 363.55801 171.82812 365.79102 C 174.73076 369.78089 181.11518 371.50054 185.91211 370.3457 C 189.99365 369.36311 193.26621 365.3409 194.81641 361.43945 C 196.57609 357.01078 194.40234 347.15039 194.40234 347.15039 z M 170.06641 360.91992 L 162.71094 368.67188 C 162.71094 368.67188 159.00098 370.09942 157.57422 370.38477 C 156.14745 370.67012 151.00977 367.53125 151.00977 367.53125 L 148.42578 362.40039 L 136.17188 368.95898 L 133.31836 365.81836 L 130.46484 358.9707 L 125.32812 359.54102 L 121.61914 358.11523 L 118.44141 354.66992 C 117.92235 358.00672 117.67928 361.51266 120.05078 363.30469 C 122.07076 364.83107 125.13408 362.73615 127.50781 361.85547 C 128.61352 361.44525 129.85304 359.53492 130.58789 360.07617 C 130.42756 360.53595 130.23277 361.16339 129.99219 362.0625 C 129.17348 365.12222 129.8891 369.68649 132.68555 371.17383 C 136.32884 373.1116 141.10119 369.80163 144.49023 367.44727 C 145.93482 366.44374 147.60256 363.77841 148.16797 362.83398 C 148.07107 363.30748 148.05844 364.29953 148.42578 366.41211 C 149.00279 369.73095 152.12649 373.22437 155.4668 373.66016 C 160.25673 374.28509 164.68183 369.81041 167.89453 366.20312 C 170.01107 363.8266 170.06641 360.91992 170.06641 360.91992 z M 215.32031 345.70117 C 215.32031 345.70117 220.36105 346.50037 222.1543 345.08008 C 224.55021 343.18248 225.09599 339.43691 225.05469 336.38086 C 225.02199 333.95695 222.57031 329.54492 222.57031 329.54492 L 221.20703 340.13672 L 215.32031 345.70117 z M 222.57031 329.54492 C 222.57031 329.54492 227.97876 330.54413 230.23242 329.33984 C 232.02319 328.38293 231.88672 325.16479 233.75391 324.36719 C 235.48674 323.62695 237.73639 326.17741 239.3457 325.19727 C 241.7137 323.75503 242.03906 317.32619 242.03906 317.32617 L 236.33203 322.73047 L 228.3418 323.01562 L 226.05859 329.58008 L 222.57031 329.54492 z M 242.03906 317.32617 C 248.79781 319.11168 262.5785 322.48497 266.47656 319.39844 C 269.48765 316.79006 269.6444 311.35789 268.33984 307.59375 C 267.34573 304.72534 264.47902 301.68407 261.39258 299.05469 C 258.75055 299.43488 254.78411 300.18596 254.59375 301.32812 C 254.30839 303.04026 244.89258 311.03125 244.89258 311.03125 L 242.03906 317.32617 z M 98.927734 292.68164 C 98.927734 292.68164 84.247051 300.29656 84.222656 307.17969 C 84.210596 310.59675 91.470703 314.42773 91.470703 314.42773 C 91.470703 314.42773 82.952819 317.68953 83.1875 321.26172 C 83.40097 324.5111 88.282994 325.77413 91.470703 326.43945 C 93.4852 326.85991 96.070591 326.79601 98.759766 326.49219 L 94.226562 325.58398 C 94.226562 325.58398 86.521868 319.30527 88.804688 318.44922 C 91.087517 317.59316 97.365234 315.02734 97.365234 315.02734 L 97.648438 310.46094 C 97.648438 310.46094 93.084774 309.31974 91.943359 307.32227 C 90.801955 305.3248 94.796875 299.61719 94.796875 299.61719 C 94.796875 299.61719 95.082405 297.04938 97.365234 299.04688 C 99.648059 301.04435 106.21094 304.4668 106.21094 304.4668 L 105.16992 302.07422 C 104.50977 302.19312 103.8736 302.24762 103.27734 302.20703 C 101.84412 302.10943 100.49027 300.95727 99.755859 299.72266 C 98.547609 297.69146 98.927734 292.68164 98.927734 292.68164 z M 262.86914 303.04102 C 262.86914 303.04102 266.57772 307.0363 267.14844 308.17773 C 267.71914 309.31914 268.00586 315.59766 268.00586 315.59766 C 268.00586 315.59766 266.29432 317.59471 264.29688 319.02148 C 262.29938 320.44825 258.30469 319.30664 258.30469 319.30664 C 258.30469 319.30664 248.31523 317.59375 247.17383 317.59375 C 246.03241 317.59375 253.73828 313.88477 253.73828 313.88477 L 262.01367 305.32422 L 262.86914 303.04102 z M 103.88867 327.51758 C 100.80675 329.07775 97.724201 330.88393 95.820312 332.65234 C 92.297686 335.92429 86.511786 340.3533 88.15625 344.87109 C 89.769227 349.30234 96.931966 349.7384 101.61914 349.2207 C 103.19494 349.04666 104.94038 348.50413 106.74219 347.73438 C 109.77323 344.81849 115.3418 340.99414 115.3418 340.99414 L 97.648438 346.41602 L 91.65625 345.55859 L 92.513672 341.84961 L 104.21289 327.58203 L 103.88867 327.51758 z "
       id="path4155" />
  </g>
</svg>
