<?xml version="1.0" encoding="UTF-8" standalone="no"?>
<!-- Created with Inkscape (http://www.inkscape.org/) -->

<svg
   xmlns:dc="http://purl.org/dc/elements/1.1/"
   xmlns:cc="http://creativecommons.org/ns#"
   xmlns:rdf="http://www.w3.org/1999/02/22-rdf-syntax-ns#"
   xmlns:svg="http://www.w3.org/2000/svg"
   xmlns="http://www.w3.org/2000/svg"
   xmlns:sodipodi="http://sodipodi.sourceforge.net/DTD/sodipodi-0.dtd"
   xmlns:inkscape="http://www.inkscape.org/namespaces/inkscape"
   id="svg2"
   version="1.1"
   inkscape:version="0.92.2 (unknown)"
   width="1340.2804"
   height="685.28052"
   viewBox="0 0 1256.5129 642.4505"
   sodipodi:docname="logoHonduras_MozillaCOLOR.svg"
   inkscape:export-filename="/media/keik/Datos/GITHUB/logosMozCA/PorPais/Honduras/LogoHN_MozillaCOLOR.png"
   inkscape:export-xdpi="300"
   inkscape:export-ydpi="300">
  <title
     id="title4536">LogoMozillaHonduras</title>
  <metadata
     id="metadata8">
    <rdf:RDF>
      <cc:Work
         rdf:about="">
        <dc:format>image/svg+xml</dc:format>
        <dc:type
           rdf:resource="http://purl.org/dc/dcmitype/StillImage" />
        <dc:title>LogoMozillaHonduras</dc:title>
        <cc:license
           rdf:resource="http://creativecommons.org/licenses/by-nd/4.0/" />
        <dc:creator>
          <cc:Agent>
            <dc:title>KarlaLHdz</dc:title>
          </cc:Agent>
        </dc:creator>
        <dc:source>Mozilla El Salvador</dc:source>
        <dc:description>Hecho para Mozilla Centroamerica en el año 2017</dc:description>
      </cc:Work>
      <cc:License
         rdf:about="http://creativecommons.org/licenses/by-nd/4.0/">
        <cc:permits
           rdf:resource="http://creativecommons.org/ns#Reproduction" />
        <cc:permits
           rdf:resource="http://creativecommons.org/ns#Distribution" />
        <cc:requires
           rdf:resource="http://creativecommons.org/ns#Notice" />
        <cc:requires
           rdf:resource="http://creativecommons.org/ns#Attribution" />
      </cc:License>
    </rdf:RDF>
  </metadata>
  <defs
     id="defs6" />
  <sodipodi:namedview
     pagecolor="#ffffff"
     bordercolor="#666666"
     borderopacity="1"
     objecttolerance="10"
     gridtolerance="10"
     guidetolerance="10"
     inkscape:pageopacity="0"
     inkscape:pageshadow="2"
     inkscape:window-width="1332"
     inkscape:window-height="715"
     id="namedview4"
     showgrid="false"
     showborder="true"
     inkscape:zoom="0.53794714"
     inkscape:cx="670.1402"
     inkscape:cy="342.64026"
     inkscape:window-x="34"
     inkscape:window-y="0"
     inkscape:window-maximized="1"
     inkscape:current-layer="layer2"
     borderlayer="true"
     inkscape:showpageshadow="false"
     units="px"
     showguides="true"
     fit-margin-top="0"
     fit-margin-left="0"
     fit-margin-right="0"
     fit-margin-bottom="0"
     inkscape:guide-bbox="true"
     inkscape:measure-start="0,0"
     inkscape:measure-end="0,0">
    <sodipodi:guide
       position="1090.1971,627.5121"
       orientation="1,0"
       id="guide1228"
       inkscape:locked="false" />
    <sodipodi:guide
       position="166.31595,476.13455"
       orientation="1,0"
       id="guide1321"
       inkscape:locked="false" />
    <sodipodi:guide
       position="1090.197,476.13455"
       orientation="0,1"
       id="guide1343"
       inkscape:locked="false" />
    <sodipodi:guide
       position="1090.197,166.31595"
       orientation="0,1"
       id="guide1345"
       inkscape:locked="false" />
  </sodipodi:namedview>
  <g
     inkscape:groupmode="layer"
     id="layer2"
     inkscape:label="Layer 2"
     style="opacity:1"
     transform="translate(-29.083954,391.35416)">
    <g
       transform="matrix(1.3880519,0,0,1.3880519,-164.41408,-252.49217)"
       style="opacity:1"
       id="g824">
      <rect
         style="opacity:1;stroke-width:1.03907907"
         y="19.778772"
         width="374.06848"
         height="106.92123"
         id="rect4"
         x="550.74927" />
      <path
         class="st0"
         d="m 907.98463,96.566727 c -0.7273,0.207819 -1.35075,0.311723 -1.97419,0.311723 -2.18212,0 -3.2212,-0.935168 -3.2212,-3.636774 V 72.979634 c 0,-10.702513 -8.52046,-15.897909 -18.59946,-15.897909 -7.68924,0 -11.84554,0.935171 -20.05428,4.260224 l -1.66252,10.806422 10.70252,1.142988 1.55861,-5.299304 c 2.18207,-1.142987 4.36413,-1.350803 7.16969,-1.350803 7.58522,0 7.68918,5.714935 7.68918,10.494698 v 1.558619 c -2.38993,-0.311723 -5.09153,-0.415631 -7.68918,-0.415631 -10.70256,0 -21.8207,2.701605 -21.8207,14.235383 0,9.767349 7.68918,13.404119 14.44319,13.404119 7.58533,0 12.3651,-4.57195 15.06669,-9.351713 0.62345,5.714943 4.05236,9.351713 10.28683,9.351713 2.90943,0 5.92281,-0.83126 8.4166,-2.18206 z m -28.67858,-0.311722 c -4.0524,0 -5.50711,-2.389881 -5.50711,-5.403211 0,-5.091487 4.15636,-6.44229 8.93613,-6.44229 2.182,0 4.57194,0.311724 6.75395,0.623447 -0.31166,7.793094 -5.40321,11.222054 -10.18297,11.222054 z M 861.32999,33.390723 841.06794,104.77545 h -13.19631 l 20.26204,-71.384727 z m -27.22388,0 -20.26204,71.384727 H 800.64776 L 820.9098,33.390723 Z m -56.11027,24.626173 h 14.02757 v 16.833081 h -14.02757 z m 0,30.029385 h 14.02757 v 16.833079 h -14.02757 z m -20.46987,-0.623448 10.59862,1.039079 -2.90942,16.417448 h -40.83582 l -1.3508,-7.065732 25.76916,-29.613758 H 734.1467 l -2.07817,7.273554 -9.66343,-1.039079 1.66253,-16.417449 h 41.04363 l 1.03908,7.065737 -25.97699,29.613753 h 15.17056 z m -67.0206,-30.341108 c -16.83308,0 -25.14571,11.325962 -25.14571,25.041805 0,14.962738 9.97516,23.79491 24.41836,23.79491 14.96274,0 25.76915,-9.455617 25.76915,-24.418357 0,-13.092396 -8.20872,-24.418358 -25.0418,-24.418358 z m -0.31172,38.445925 c -7.27356,0 -11.01424,-6.234474 -11.01424,-14.339291 0,-8.832172 4.26022,-13.923659 11.11815,-13.923659 6.33838,0 11.42986,4.260224 11.42986,13.715843 0,9.039988 -4.57194,14.547107 -11.53377,14.547107 z m -36.88731,-0.935172 h 6.23448 V 104.77545 H 640.00614 V 78.486753 c 0,-8.104816 -2.70161,-11.222053 -8.00092,-11.222053 -6.44229,0 -9.03998,4.571948 -9.03998,11.118146 v 16.31354 h 6.23447 v 10.182974 h -19.6386 V 78.486753 c 0,-8.104816 -2.7016,-11.222053 -8.0009,-11.222053 -6.44229,0 -9.03999,4.571948 -9.03999,11.118146 v 16.31354 h 8.93608 V 104.87936 H 572.98553 V 94.696386 H 579.22 V 68.19987 h -6.23447 V 58.016896 h 19.6386 v 7.065737 c 2.80551,-4.987579 7.68918,-8.000908 14.23538,-8.000908 6.75402,0 12.98849,3.221145 15.27446,10.079066 2.5977,-6.234473 7.897,-10.079066 15.27446,-10.079066 8.41654,0 16.10573,5.091487 16.10573,16.209634 v 21.301119 z"
         id="path6"
         inkscape:connector-curvature="0"
         style="opacity:1;fill:#ffffff;stroke-width:1.03907907" />
    </g>
    <path
       style="opacity:1;fill:#808080;fill-opacity:1;fill-rule:nonzero;stroke:none;stroke-width:2.5588448;stroke-linecap:round;stroke-linejoin:round;stroke-miterlimit:4;stroke-dasharray:none;stroke-dashoffset:0;stroke-opacity:1"
       d="m 339.99422,-225.03821 c -0.4823,0.0684 -0.96674,0.23076 -1.4544,0.50079 -6.45722,3.57665 3.6e-4,15.02114 2.34548,22.02032 2.86013,8.53626 13.89572,23.15783 13.89572,23.15783 0,0 -14.69865,-14.9601 -23.87116,-19.66952 -5.16061,-2.64957 -12.76364,-8.61223 -16.82002,-4.46525 -2.6928,2.75296 0.67647,8.19694 3.20963,11.09746 5.00078,5.72593 12.96259,9.11718 18.7883,13.16459 13.21976,9.18444 27.62339,28.25105 27.62339,28.25105 0,0 -16.68998,-19.26838 -27.71063,-25.076 -7.35835,-3.87769 -16.51612,-8.80627 -24.27056,-5.7978 -2.89262,1.12225 -5.52261,4.61432 -5.22616,7.70279 0.36899,3.84443 5.05062,5.95419 8.21005,8.17541 5.90513,4.15159 13.15308,5.96745 19.57215,9.26925 7.49487,3.85519 22.0923,12.29592 22.0923,12.29592 0,0 -13.3799,-6.45705 -20.23805,-9.30112 -5.79478,-2.4031 -11.38341,-6.13354 -17.64305,-6.54826 -3.69943,-0.24511 -8.84096,-0.65801 -10.84759,2.45954 -1.17989,1.83303 -0.50082,5.21497 1.32531,6.40541 7.49973,4.88889 14.81813,3.68671 21.94549,6.37547 7.67389,2.89498 22.27494,10.45109 22.27494,10.45109 0,0 -15.05688,-6.73115 -23.0721,-8.36981 -6.48028,-1.32485 -13.64294,-3.47966 -19.81305,-1.09657 -2.12294,0.81993 -4.86073,2.5871 -4.7934,4.86186 0.0784,2.65078 3.29222,5.7378 5.91186,5.325 20.0166,-3.1542 37.53798,7.94807 37.53798,7.94807 0,0 -20.76872,-7.41628 -31.41241,-6.43974 -4.0023,0.3672 -10.05701,0.66935 -11.17353,4.53029 -0.83956,2.9031 3.30701,7.43338 5.28656,7.36487 18.20183,-0.63001 32.79977,3.81797 32.79977,3.81797 0,0 -21.26606,-3.70212 -31.56534,-1.49146 -1.70728,0.36645 -4.26473,0.67416 -4.67153,2.37224 -0.59851,2.49826 2.01903,6.69765 4.54439,6.22642 12.76017,-2.38084 29.15697,1.5457 29.15697,1.5457 0,0 -19.41594,-2.62212 -28.74874,-0.44165 -1.89889,0.44364 -4.66577,0.79854 -5.20423,2.67273 -0.65386,2.27575 1.27793,6.340966 3.63382,6.104019 18.84783,-1.895699 27.22849,0.422197 27.12681,0.413091 0.0188,0.01718 -15.79614,-0.96864 -25.43238,1.233321 -2.07261,0.473611 -3.56797,3.32251 -3.33498,5.435697 0.31844,2.888648 2.64331,7.151834 6.06894,6.26005 14.11136,-3.673606 24.99625,-2.606819 24.99625,-2.606819 -0.93087,0.426718 -17.8694,1.532262 -23.38988,4.590684 -1.64641,0.912119 -2.14305,3.756669 -1.37823,5.476443 1.12938,2.539652 2.16341,4.598995 7.36657,3.904798 6.45129,-0.860696 19.8814,-2.610854 19.8814,-2.610839 -0.35282,-0.05114 -8.70531,1.750118 -18.82901,4.173307 -2.18708,0.523483 -3.34839,4.066062 -2.39925,5.999381 1.08535,2.210883 3.92115,3.023441 7.10675,2.025999 14.59289,-4.569263 17.82364,-4.286041 17.82364,-4.286041 0,0 -13.68512,4.141285 -15.88317,7.048916 -0.89894,1.189152 -2.73758,3.009085 -1.95164,4.412609 1.30711,2.334437 4.87533,2.815543 7.95488,1.0697 6.96384,-3.947931 12.55023,-5.640396 12.55023,-5.640396 0,0 -5.23678,3.131354 -9.6066,5.57352 -1.42272,0.795121 -3.03567,3.122334 -2.06663,4.432837 1.76722,2.389994 6.40977,0.488416 8.83127,-1.235387 2.84859,-2.027851 6.48512,-2.449947 6.48512,-2.449947 0,0 -6.3108,2.597682 -8.00742,5.314694 -0.48149,0.770974 -0.94286,2.007281 -0.35757,2.702687 1.17555,1.396581 3.70749,0.682162 5.47313,0.218667 4.90896,-1.288628 12.95306,-8.000643 12.95306,-8.000643 -5e-5,0 -2.13361,-0.92903 -2.9843,-1.69447 -0.68677,-0.617974 -1.70569,-1.333985 -1.6156,-2.253476 0.44679,-4.560972 11.97453,-5.261526 10.02528,-9.409126 -0.42628,-0.907068 -2.34997,1.148713 -2.98506,0.373351 -1.12586,-1.374619 2.50644,-3.473483 1.69336,-5.053393 -1.45287,-2.823227 -7.56926,-0.0121 -9.1086,-2.789158 -2.15468,-3.887192 5.73433,-9.071348 3.44553,-12.88115 -1.10831,-1.844919 -5.34845,0.480621 -6.28999,-1.454764 -1.20268,-2.472215 4.28192,-4.835185 3.4966,-7.469864 -0.61316,-2.057008 -5.0592,-1.281048 -5.47773,-3.386288 -0.623,-3.13392 5.93921,-4.59785 5.60741,-7.77583 -0.15075,-1.44402 -3.18316,-1.47813 -3.22249,-2.92947 -0.0648,-2.3886 4.47787,-2.78066 5.03353,-5.10463 0.62723,-2.62331 -3.54271,-5.23626 -2.4619,-7.7075 1.10683,-2.53081 6.38682,-0.98257 7.50721,-3.5074 0.96119,-2.16564 -3.54025,-4.92118 -2.08836,-6.79358 1.60642,-2.07166 6.28678,2.46774 7.85601,0.36776 1.87364,-2.50737 -5.36375,-6.73082 -3.08005,-8.87142 3.05541,-2.86395 8.13312,7.25879 11.57793,4.87741 1.93303,-1.33629 -2.25161,-5.7884 -0.26548,-7.04435 5.35753,-3.38786 10.62318,7.67075 16.86191,8.79271 0.98643,0.17742 2.98312,-0.37466 2.98312,-0.37466 l -20.98507,-29.29026 c 0,0 -14.94892,-32.60022 -26.54355,-45.9644 -3.53118,-4.07008 -7.91662,-12.17213 -12.57901,-11.51117 z m 44.66037,82.63979 c -0.5781,0.089 -1.08708,0.32316 -1.49326,0.74061 -1.6177,1.66253 5.5948,7.42037 2.71193,6.4095 -4.09675,-1.43651 -6.77806,-2.79608 -11.53101,-4.22488 -2.45047,-0.73665 4.08098,5.37707 2.38813,7.29588 -1.73156,1.96275 -5.95711,-3.4366 -7.71025,-1.49311 -1.38217,1.53222 2.62152,4.03469 1.79482,5.92537 -1.16509,2.66463 -6.80689,1.09609 -7.84755,3.81176 -0.68972,1.79993 2.58347,3.47094 2.18112,5.35607 -0.45654,2.13882 -4.55394,2.35878 -4.74009,4.53785 -0.12749,1.49215 2.63086,2.11473 2.67131,3.61178 0.0773,2.86321 -5.43559,4.39757 -4.72886,7.17329 0.5306,2.08423 5.01843,0.99281 5.69525,3.03422 0.77844,2.34795 -4.24561,4.482981 -3.16893,6.709963 0.69453,1.436546 3.728,-0.207097 4.66235,1.086377 2.63229,3.644053 -3.92232,9.836716 -1.22177,13.430488 1.5724,2.092457 6.27439,-0.695993 7.70867,1.493434 0.96756,1.476981 -2.21926,3.760776 -1.15386,5.168852 0.53735,0.710276 2.29217,-0.658782 2.6678,0.148796 2.33783,5.026441 -11.92806,8.103198 -9.98963,13.296762 0.67693,1.813682 5.67704,1.221088 5.67704,1.221088 l 3.73418,-1.855148 c -9.3427,5.249618 -21.18397,11.965311 -31.33303,17.900827 -4.90712,0.06439 -12.66298,0.245215 -17.46913,0.832514 -9.10584,1.112691 -15.76972,0.445803 -26.95545,5.555246 -5.88598,2.688597 19.26738,2.383347 19.26738,2.383347 5e-5,0 -22.60861,7.280269 -44.63996,17.562896 -10.34482,4.828195 22.21888,-0.250149 25.05144,-2.115301 -6.02508,6.057405 -33.53734,11.3245125 -40.78535,20.2152203 -5.1514,6.3189103 14.58137,-0.823184 22.22155,-3.66804553 C 288.19855,-4.5312985 307.02529,-17.71605 307.02529,-17.71605 l 8.87105,-5.641254 c -2.48633,2.901688 -3.81936,4.883843 -1.82839,3.701939 8.99774,-5.341395 31.02715,-15.577679 23.85857,-10.63583 -10.29128,7.094594 -53.56408,46.361981 -41.30912,40.1051614 12.25495,-6.2568248 44.2253,-30.5217724 39.37532,-23.4053954 -4.84997,7.1163993 -7.37549,5.5318059 -10.73807,10.9212781 -3.36257,5.3894875 4.85779,-2.8633852 3.82534,-0.732754 -1.40083,2.89104064 -11.40035,20.7975399 -2.38864,11.8899624 9.01171,-8.90757371 16.44929,-19.4604235 29.31399,-29.6453145 5.29054,-4.188483 13.99484,-10.582275 22.43982,-16.687507 -0.28186,0.390171 -0.53612,0.777815 -0.74488,1.158707 -3.58755,6.546531 14.25875,-5.839005 21.71515,-5.47927 2.44232,0.11783 4.48895,2.105333 6.90682,2.46969 2.59036,0.390354 5.68546,-1.822738 7.85106,-0.348793 0.63136,0.429728 0.0953,1.764928 0.74427,2.167664 3.03398,1.882992 7.46921,-3.047204 10.62451,-1.375344 1.04218,0.552236 0.54454,2.619731 1.59387,3.158341 1.39409,0.715603 3.11979,-1.08097 4.64602,-0.725444 2.26896,0.528545 3.38936,3.936983 5.71765,4.018822 2.18565,0.07682 3.43533,-3.47887 5.62036,-3.386838 3.77891,0.159137 5.43364,7.074851 9.1922,6.652362 2.44757,-0.275116 2.45027,-5.11907 4.87478,-5.552548 2.26671,-0.40527 3.88589,4.009471 6.07348,3.290818 1.39573,-0.458486 0.5679,-3.317804 1.87553,-3.987427 4.07924,-2.089038 9.97769,5.437161 13.51529,2.523449 1.06276,-0.875342 -0.94016,-3.156117 0.0332,-4.129852 3.60959,-3.610801 13.11442,4.475736 15.31716,-0.130242 0.60448,-1.26389 -3.16765,-2.007429 -2.6102,-3.29272 2.01006,-4.634205 14.01091,3.6879 15.10218,-1.244163 0.73651,-3.328615 -3.85416,-3.814317 -8.88723,-5.060377 -5.27102,-1.304953 14.03611,-1.416605 15.44755,-6.34804 1.24901,1.326924 2.53455,3.078991 2.04577,4.357486 -0.91915,2.404094 -9.2973,0.226284 -7.45269,2.02126 1.336,1.30005 3.99553,3.50903 3.18081,5.447849 -1.84099,4.380751 -9.9684,1.688119 -13.82425,3.479217 -0.84935,0.394537 0.92573,2.099528 0.29778,2.79428 -3.50796,3.881086 -11.37902,-3.040842 -15.6938,-0.08258 -1.77126,1.214354 -0.33751,5.131416 -2.2913,6.022807 -3.91941,1.788185 -8.01916,-5.713771 -12.13656,-4.446423 -1.99796,0.61496 -1.64566,4.523314 -3.65633,5.095236 -2.24069,0.63733 -4.20998,-3.314606 -6.45251,-2.683918 -2.46298,0.692651 -1.97155,5.902309 -4.5116,6.208952 -3.87074,0.467307 -5.14751,-6.611157 -8.93065,-7.553967 -3.09495,-0.771291 -6.24515,2.754707 -9.35101,2.028697 -1.7455,-0.408021 -2.48532,-2.845815 -4.2054,-3.350122 -2.5845,-0.757732 -6.26454,2.853625 -8.0363,0.825281 -0.92731,-1.061625 1.97791,-3.10125 0.99367,-4.110278 -2.33573,-2.394534 -6.67673,3.292659 -9.80882,2.118086 -1.33527,-0.500751 -1.2787,-2.800529 -2.55842,-3.429844 -2.83401,-1.393648 -6.45778,1.08903 -9.4733,0.150668 -1.12923,-0.351413 -1.72325,-1.852898 -2.88783,-2.058979 -0.9603,-0.169953 -2.82104,0.777841 -2.82104,0.777841 l -20.72811,8.365412 0.45689,-2.582627 c 0,0 -13.73082,6.855634 -11.00604,11.372917 1.91654,3.177405 12.24588,-3.651833 12.24588,-3.651833 0.69988,0.711378 -6.34657,4.055768 -5.76179,5.261082 -0.22671,4.260752 5.0391,2.12353 5.0391,2.12353 0,0 -0.99179,2.930032 0.30976,4.096365 1.22182,1.094855 4.10286,-0.904651 4.10286,-0.904651 l 15.59866,-7.649906 -12.48274,7.171775 c 0,0 -1.34369,3.885029 -0.11035,5.011366 1.12316,1.025685 4.5342,-0.512336 4.5342,-0.512336 l 14.91338,-10.607441 -12.95245,11.537895 c 0,0 -0.0505,2.306129 0.77783,2.8210471 1.71728,1.0676092 5.95732,-1.1411419 5.95732,-1.1411419 l 14.00643,-11.6227492 -12.06426,11.8443789 c 0,0 -1.25544,2.5348723 -0.36778,3.0388071 2.69193,1.5282825 3.49848,-0.3773403 5.38478,-2.8320268 2.31931,-3.0181602 -2.05306,3.6910847 -0.13861,4.7971386 4.69852,2.7144714 17.23355,-19.9809528 17.91675,-19.9428548 l -9.92228,16.7654907 c 0,0 -1.19392,4.4775927 0.33543,5.4691885 2.38205,1.54445958 6.69259,-3.8633527 6.69259,-3.8633527 l 12.03137,-16.5578475 -9.71104,18.133559 c 0,0 -0.31639,3.34332251 0.88273,3.98830467 1.94807,1.04787083 6.19735,-2.37615787 6.19735,-2.37615787 l 10.46916,-18.5145668 -8.3857,18.2341914 c 0,0 -0.94067,2.70238592 1.11663,3.3498321 1.86277,0.5862073 5.37237,-2.3351671 5.37237,-2.3351671 l 3.13239,-5.3510929 c 0,0 -1.81063,4.1059558 -1.31706,6.14023428 0.47934,1.97561582 1.87451,4.32378692 3.86967,4.71393712 3.08414,0.6030826 6.27045,-2.0858245 8.28601,-4.49683103 1.99859,-2.39068707 2.93201,-8.87642347 2.93201,-8.87642347 l -0.98817,9.09775366 c 0,0 0.68162,5.45107844 2.98955,6.21431894 2.14801,0.7103224 4.83249,-3.1990763 4.83249,-3.1990763 l 3.10689,-24.7083527 -0.69071,23.0564854 c 0,0 2.96854,5.6615879 5.66746,5.7966513 2.87221,0.1437405 6.6172,-5.5359628 6.6172,-5.5359628 l -0.46205,-24.7354469 2.86717,24.27472716 c 0,0 4.18836,4.33743804 6.65,3.71471414 3.52027,-0.89055 6.08405,-5.5731222 5.84081,-9.1961517 -1.65203,-9.0389126 -2.37569,-10.5721026 -3.46533,-19.4427716 3.32871,7.75735 3.31351,14.808444 6.36478,20.3138793 1.37798,2.4863205 2.94191,4.44670828 5.30861,5.0466643 2.0577,0.5216474 4.90355,0.060264 6.14853,-1.65912676 1.66411,-2.29815544 -0.45767,-8.49984414 -0.45767,-8.49984414 l -6.55194,-10.7949217 c -1.75611,-2.893311 8.78923,9.342703 9.39575,10.0479453 0.61325,0.7130669 5.10659,5.722317 8.61864,6.5451233 2.68809,0.6297643 6.90212,0.9131343 8.13337,-1.5579837 2.0321,-4.0782199 -6.56506,-11.0195329 -6.56506,-11.0195329 l -7.91667,-8.325288 11.37067,8.062248 c 0,0 9.33529,10.4471811 14.25721,8.0788894 2.57153,-1.237368 4.55342,-2.5252454 2.66938,-4.6687324 -5.57307,-5.148643 -16.58648,-11.798945 -16.58648,-11.798945 0,0 12.35409,6.257127 18.8913,9.574742 4.59873,2.333815 9.96259,3.343592 15.11922,3.28142 4.00965,-0.04837 10.11763,-0.909762 11.6917,-2.834943 1.37593,-1.68288 -2.04811,-3.735774 -3.90119,-4.241239 -4.29111,-1.170476 -7.34672,-1.52288 -11.34811,-3.084737 -4.5493,-2.019448 -7.98029,-3.575941 -7.98029,-3.575941 0,0 6.12036,1.834849 9.25679,2.407057 4.07664,0.743728 7.88488,1.458233 12.36128,1.321594 7.31213,-0.223207 17.02132,-1.836319 21.38655,-4.927814 2.71152,-1.920305 -8.94222,-3.275609 -8.94222,-3.275609 0,0 -14.52592,-1.671289 -22.21382,-3.10978 -7.59885,-1.421834 -23.76628,-6.255682 -23.76628,-6.255682 0,0 16.61836,3.863593 24.99355,5.13036 7.74572,1.171548 17.50628,2.802958 25.28393,1.866667 7.12766,-0.858037 13.79695,-2.375112 18.22381,-7.173295 1.75743,-1.904812 4.16622,-5.686367 2.25738,-7.439433 -3.93737,-3.616179 -9.59599,5.241436 -14.89593,5.942172 -19.97078,2.640443 -47.58412,-3.390383 -60.02365,-7.03156 -7.35606,-2.153195 -11.41081,-4.392239 -13.53897,-5.879097 0.0367,-0.186746 0.0557,-0.378784 0.0403,-0.579279 -0.2383,-3.030894 -5.75336,-2.239646 -8.78663,-2.445447 -4.04674,-0.27456 -8.51283,-0.324447 -12.0561,1.649577 -1.77595,0.989376 -2.06965,3.782855 -3.88252,4.702641 -1.84585,0.936515 -4.31749,-0.498169 -6.1996,0.3632 -1.79824,0.823 -2.25514,3.634191 -4.13271,4.255282 -2.83854,0.938984 -6.02444,-2.406506 -8.85331,-1.438689 -1.64539,0.562944 -1.83588,3.578606 -3.55862,3.816256 -1.51506,0.20901 -2.40119,-2.206205 -3.92028,-2.383647 -2.59474,-0.303088 -4.84457,2.307996 -7.45457,2.418536 -1.06279,0.045 -2.13254,-1.146708 -3.10877,-0.724148 -0.98378,0.425815 -0.63902,2.330979 -1.61086,2.783332 -2.2005,1.024205 -4.74489,-1.160584 -7.16975,-1.2659 -3.19968,-0.138966 -6.74555,2.35013 -9.5714,0.84285 -1.85344,-0.988581 -1.1678,-4.562798 -3.03705,-5.521173 -1.39695,-0.716245 -3.15575,0.953568 -4.67672,0.565092 -1.51746,-0.387558 -2.27519,-2.488636 -3.82234,-2.73147 -4.46021,-0.700023 -9.53895,7.1338 -12.90224,4.121868 -0.95623,-0.856354 1.73886,-2.942459 0.76263,-3.775943 -3.20734,-2.738229 -8.59405,7.086769 -11.85714,4.415278 -0.98506,-0.806487 -0.74452,-2.629195 -0.22942,-4.332265 0.0599,0.406668 0.21788,0.751073 0.56907,0.978265 4.1194,2.665023 9.36061,-5.220667 14.24712,-3.697619 1.02571,0.319683 0.93766,1.708203 1.78462,1.958194 3.08301,0.909961 6.29601,-3.537155 9.32448,-2.459522 1.0576,0.376335 0.93659,2.313562 1.98195,2.722695 2.16775,0.848401 4.6377,-2.078591 6.85065,-1.356391 2.22662,0.726704 2.44221,4.822727 4.75887,5.167616 1.66509,0.247889 2.67295,-2.589392 4.35609,-2.557767 2.23101,0.04194 3.42655,3.887207 5.64001,3.604551 1.46837,-0.187527 1.60275,-2.832403 3.02185,-3.25376 1.65524,-0.491486 3.334,1.60244 5.02588,1.257595 1.33583,-0.272293 1.95042,-2.096813 3.26248,-2.467016 2.81411,-0.794013 6.15102,2.231627 8.72904,0.851876 0.65253,-0.349262 0.40301,-1.591716 1.04637,-1.957695 2.98373,-1.697353 7.12322,1.800562 10.28765,0.470193 0.9872,-0.415025 1.20387,-1.877477 2.14153,-2.394773 2.06352,-1.138398 5.02277,0.153975 6.97074,-1.172435 1.08341,-0.737713 0.98291,-2.577521 2.02791,-3.368677 2.99807,-2.269852 14.2668,-1.337399 10.88255,-2.976818 -12.31817,-5.967252 -33.65607,-0.06495 -47.01479,-8.763537 -3.7505,-2.442156 -7.58854,-11.076236 -7.58854,-11.076236 0,0 5.78366,9.368661 10.57258,9.821064 3.10484,0.293303 6.3061,-2.307179 7.92723,-4.971967 1.05279,-1.730584 0.69952,-4.040034 0.50045,-6.056324 -0.22568,-2.286147 -1.89991,-6.624417 -1.89991,-6.624417 0,0 3.40839,-3.494149 5.45242,-4.786246 4.54521,-2.873156 18.33273,-2.391451 14.81267,-6.385897 -4.00827,-4.548434 -12.02514,-3.643534 -18.14035,-3.131844 -14.05316,1.17588 -39.91554,14.023698 -39.91554,14.023698 0,0 -15.03219,-8.668857 -19.83983,-15.563448 -3.82549,-5.48623 -6.1628,-19.09421 -6.1628,-19.09421 0,0 0.41179,-11.3997 1.5131,-13.50327 1.90289,-3.6347 -10.27693,5.26836 -9.7152,7.55683 0.59101,2.40774 -5.50523,0.35547 -7.08318,2.26768 -0.69881,0.84686 0.17131,2.32767 -0.39124,3.27059 -1.57402,2.63842 -5.85962,2.73257 -7.53364,5.30874 -0.54587,0.84009 -0.19018,2.02799 -0.58331,2.94949 -0.56934,1.33441 -2.43726,2.11432 -2.49771,3.56384 -0.0519,1.24277 1.98577,1.98472 1.87955,3.22404 -0.14401,1.67982 -3.35635,2.19186 -3.25238,3.87462 0.0864,1.39892 2.58133,1.55174 3.07898,2.862 0.5752,1.514523 -1.16549,3.377357 -0.46576,4.838567 0.72859,1.521532 3.47679,1.270697 4.22871,2.780842 0.5578,1.120282 -1.10637,2.839147 -0.24416,3.74619 1.77411,1.86628 5.52373,-1.453188 7.72306,-0.113942 1.65376,1.007048 2.12581,3.320044 2.59209,5.199327 0.43695,1.76127 0.60244,3.691513 0.13014,5.443625 -0.60452,2.242789 -3.76447,3.618142 -3.64581,5.937943 0.082,1.605459 1.20616,3.182573 2.59464,4.159059 -2.22488,-0.243869 -4.64311,-0.844397 -5.50899,-2.274372 -0.80105,-1.322829 0.5956,-3.046128 1.11707,-4.501989 0.76856,-2.145588 2.86952,-3.894747 2.94109,-6.172716 0.0708,-2.254813 -0.5655,-5.157434 -2.52255,-6.279563 -2.25075,-1.290485 -5.55787,2.609548 -7.69873,1.143973 -1.33762,-0.91571 -0.35022,-3.291307 -1.07295,-4.74229 -0.884,-1.774794 -3.5297,-2.584675 -3.84024,-4.542967 -0.20182,-1.272308 1.60005,-2.298244 1.46012,-3.578814 -0.21794,-1.995023 -3.69766,-2.965443 -3.42359,-4.953543 0.1683,-1.22112 2.46276,-1.18902 2.84695,-2.36029 0.60694,-1.85015 -2.07724,-3.83645 -1.41465,-5.66742 0.38634,-1.06762 2.23258,-0.99876 2.74774,-2.01051 0.89869,-1.76495 -1.18116,-4.36461 0.0168,-5.94166 1.54107,-2.02838 5.52976,-0.29418 7.35702,-2.0691 1.80242,-1.75079 0.0609,-5.96037 2.25019,-7.19378 1.91583,-1.07938 4.46548,2.60976 6.40661,1.57663 1.38991,-0.73975 0.63841,-3.20638 1.62362,-4.43449 1.45588,-1.8148 5.87865,-3.76539 5.87865,-3.76539 0,0 -7.47906,-6.45854 -11.52575,-5.83558 z m 99.32101,47.746263 c -13.71727,3.10938 -0.92063,2.435371 -14.48816,13.099489 -0.77417,1.391328 0.38088,0.898652 2.44103,1.957981 1.88629,0.969996 -0.23034,2.344615 -0.91547,4.129199 5.40798,-0.795111 9.93876,-1.724744 12.7117,-5.399926 1.89925,-2.517272 1.56959,-6.260518 1.16661,-9.388061 -0.21819,-1.693568 -0.91571,-4.398682 -0.91571,-4.398682 z m -11.60198,2.142159 c -0.5209,0.08583 -1.06632,0.30671 -1.56458,0.633862 -1.36645,0.897181 -2.04159,2.349875 -1.50746,3.243541 0.53276,0.893152 2.07056,0.890882 3.43558,-0.0051 1.36533,-0.896713 2.04036,-2.348136 1.50772,-3.2419 -0.31773,-0.534712 -1.01797,-0.770623 -1.87126,-0.630437 z m -70.84788,22.070855 c 3.80268,-0.72672 9.49936,-0.944387 9.49936,-0.944387 0,0 -10.93988,1.894573 -15.48316,4.824891 -1.59775,1.030546 -2.9545,5.275626 -3.79233,4.261323 0.39731,-4.62367 4.65673,-6.701154 8.2848,-7.798484 0.44372,-0.125467 0.94811,-0.239451 1.49133,-0.343334 z m -82.6374,51.234337 c 0,0 -10.05237,3.566233 -14.69242,6.145728 -10.23558,5.690095 -20.70578,11.743635 -28.62207,20.3736333 -1.44394,1.5741507 -4.46535,3.7625217 -3.25399,5.5219437 1.67367,2.430887 6.49798,0.452848 8.73065,-1.477318 7.14621,-6.1780016 11.68474,-7.5287148 11.68474,-7.5287148 0,0 -24.32725,17.3222968 -34.83426,27.8344528 -6.62515,6.628389 -14.47885,12.396243 -17.53986,21.97226 -0.99986,3.127997 9.96982,-2.392105 12.45407,-4.539801 11.17293,-9.659147 31.30828,-25.786807 31.30828,-25.786807 0,0 -8.43367,9.303019 -20.04484,19.122446 -1.29676,1.096656 -1.4272,4.167072 -0.005,5.094567 2.86762,1.869469 9.39407,-4.150411 9.39407,-4.150411 l 29.73143,-26.855288 -9.6027,11.243184 c 0,0 -2.90175,3.994993 -1.55075,5.19568 2.21018,1.964291 5.67801,-1.885457 8.14282,-3.518892 8.08297,-5.356669 21.03388,-20.095569 21.03388,-20.095569 l 3.00777,-7.8257103 -4.57312,0.6809377 3.26101,-6.5037039 c 0,0 -12.86925,9.3503054 -19.80717,13.1995823 -4.55746,2.5285622 -7.77976,5.0168262 -14.24373,6.4516122 -5.54356,1.230475 3.86487,-8.6947578 8.67427,-13.0261505 7.50932,-6.7629028 21.34651,-21.5276615 21.34651,-21.5276615 z m 42.68032,-1.25507 c -3.59331,0.723218 -9.07399,6.211038 -9.07399,6.211038 0,0 -9.54503,11.5325131 -14.6358,17.0143282 -4.60174,4.9552348 -9.48442,11.5777478 -14.36108,14.3308888 -0.85537,0.482927 -1.29579,-2.647192 -1.29579,-2.647192 0,0 -14.61151,12.641005 -22.57542,20.903101 -2.9595,3.070288 -8.8504,6.921846 -12.09942,4.159758 -1.12164,-0.953559 0.74538,-4.352759 0.74538,-4.352759 0,0 -10.10585,10.248528 -16.33092,13.654874 -3.27181,1.790333 -10.6733,3.36078 -10.6733,3.36078 l -3.27772,-2.004649 -13.84851,7.390229 c 0,0 -8.40484,3.534007 -10.14367,0.6268 -4.50685,-7.535183 13.86993,-22.393847 13.86993,-22.393847 l 21.18586,-18.531923 c 0,0 -3.26861,-0.842166 -3.5799,-2.209674 -0.52746,-2.317409 3.8509,-6.0009782 3.8509,-6.0009782 L 236.58935,26.375732 c 0,0 -4.05342,4.030341 -2.83483,5.806349 1.42111,2.071128 7.50685,-0.649232 7.50685,-0.649232 L 256.62275,25.169055 212.87589,56.4443 c 0,0 -5.45717,3.593563 -4.20167,5.542314 1.4006,2.173969 7.56583,-1.713846 7.56583,-1.713846 l 16.31179,-11.018737 c 0,0 -28.28425,14.74149 -35.71171,27.894002 -1.11182,1.968807 -2.58986,5.332493 -0.81506,6.734003 4.93539,3.897354 17.69436,-6.546062 17.69436,-6.546062 l 27.6679,-17.668595 -4.80635,5.13064 c 0,0 -4.09307,4.697041 -2.48406,6.264978 2.90462,2.83048 11.19122,-4.774538 11.19122,-4.774538 l 15.92089,-13.050516 -4.34741,4.781522 c 0,0 -1.7699,4.327486 -0.29582,5.318286 1.99442,1.340546 6.51355,-3.089767 6.51355,-3.089767 l 12.24753,-10.240186 c 0,0 -4.61102,6.546139 -2.34873,8.344027 2.4103,1.915505 8.09611,-4.444565 8.09611,-4.444565 l 31.75693,-27.925153 c 0,0 -2.84579,4.222731 -1.36043,5.259307 3.32136,2.317858 9.99121,-6.912571 9.99121,-6.912571 0,0 13.84592,-14.4248696 20.55506,-21.8340352 3.74815,-4.1392642 11.00223,-12.6324658 11.00223,-12.6324658 0,0 -4.58735,9.1168645 -7.76107,13.0649485 -3.63903,4.5269143 -9.36081,7.7233435 -11.71421,13.0334455 -0.85578,1.930962 -2.41297,4.009135 -1.10652,5.212373 2.48451,2.288191 6.71174,-1.345806 9.7042,-2.912217 5.08715,-2.663038 9.35932,-6.477946 13.47025,-10.7373362 6.65842,-6.89885894 12.6538,-27.5959148 12.6538,-27.5959148 -4.21209,1.135755 -4.04628,-0.921082 -6.69705,-0.387517 z"
       id="path4155"
       inkscape:connector-curvature="0"
       sodipodi:nodetypes="csscsssscssssscssssscsssscssscssccssscssscssscssscscscssscsssccsssssssscsssssssssssccssccssssssscsssssssssscccsscscssccssssssssccssssssssssssssssssscsssssssssssssssssssscccscscccccscccscccsssccscccscccscccaaacscccsaccssccsaacssscccssccssssccascscsssssscssssssssssssssssssssccssssssssscssssssssscsascssscscsssscsssssssssssscsssssssscssssssssccccscssccsscccscsscscsssccssscsscccssccccssscscssccscscccsccsccscccscccscccacccsccsccscscssssscsccscc" />
    <g
       id="g952"
       transform="translate(-1.1468571e-4,-2.4632177e-6)">
      <rect
         ry="1.272833"
         rx="14.613562"
         y="-30.839911"
         x="643.92377"
         height="103.88493"
         width="469.99246"
         id="rect945"
         style="opacity:1;fill:#ffffff;fill-opacity:1;stroke:none;stroke-width:26.81005478;stroke-linecap:round;stroke-linejoin:round;stroke-miterlimit:4;stroke-dasharray:none;stroke-dashoffset:0;stroke-opacity:1;paint-order:stroke markers fill" />
      <text
         id="text4512"
         y="60.63451"
         x="880.04846"
         style="font-style:normal;font-weight:normal;font-size:116.89484406px;line-height:1;font-family:sans-serif;text-align:center;letter-spacing:0px;word-spacing:0px;text-anchor:middle;fill:#003380;fill-opacity:1;stroke:none;stroke-width:12.52444458"
         xml:space="preserve"><tspan
           style="font-style:normal;font-variant:normal;font-weight:normal;font-stretch:normal;font-family:'Zilla Slab Highlight';-inkscape-font-specification:'Zilla Slab Highlight';fill:#003380;fill-opacity:1;stroke-width:12.52444458"
           y="60.63451"
           x="880.04846"
           id="tspan4510"
           sodipodi:role="line">honduras</tspan></text>
    </g>
  </g>
</svg>
