<?xml version="1.0" encoding="UTF-8" standalone="no"?>
<!-- Created with Inkscape (http://www.inkscape.org/) -->

<svg
   xmlns:dc="http://purl.org/dc/elements/1.1/"
   xmlns:cc="http://creativecommons.org/ns#"
   xmlns:rdf="http://www.w3.org/1999/02/22-rdf-syntax-ns#"
   xmlns:svg="http://www.w3.org/2000/svg"
   xmlns="http://www.w3.org/2000/svg"
   xmlns:sodipodi="http://sodipodi.sourceforge.net/DTD/sodipodi-0.dtd"
   xmlns:inkscape="http://www.inkscape.org/namespaces/inkscape"
   id="svg2"
   version="1.1"
   inkscape:version="0.92.2 (unknown)"
   width="913.0686"
   height="761.24298"
   viewBox="0 0 856.00185 713.66527"
   sodipodi:docname="logoHN_MozillaCOLOR.svg"
   inkscape:export-filename="/home/keik/Escritorio/IMAGEN MOZILLA CENTROAMERICA/Honduras/LogoHN_MozillaCOLOR.png"
   inkscape:export-xdpi="100"
   inkscape:export-ydpi="100">
  <title
     id="title4536">LogoMozillaHonduras</title>
  <metadata
     id="metadata8">
    <rdf:RDF>
      <cc:Work
         rdf:about="">
        <dc:format>image/svg+xml</dc:format>
        <dc:type
           rdf:resource="http://purl.org/dc/dcmitype/StillImage" />
        <dc:title>LogoMozillaHonduras</dc:title>
        <cc:license
           rdf:resource="http://creativecommons.org/licenses/by-nd/4.0/" />
        <dc:creator>
          <cc:Agent>
            <dc:title>KarlaLHdz</dc:title>
          </cc:Agent>
        </dc:creator>
        <dc:source>Mozilla El Salvador</dc:source>
        <dc:description>Hecho para Mozilla Centroamerica en el año 2017</dc:description>
      </cc:Work>
      <cc:License
         rdf:about="http://creativecommons.org/licenses/by-nd/4.0/">
        <cc:permits
           rdf:resource="http://creativecommons.org/ns#Reproduction" />
        <cc:permits
           rdf:resource="http://creativecommons.org/ns#Distribution" />
        <cc:requires
           rdf:resource="http://creativecommons.org/ns#Notice" />
        <cc:requires
           rdf:resource="http://creativecommons.org/ns#Attribution" />
      </cc:License>
    </rdf:RDF>
  </metadata>
  <defs
     id="defs6" />
  <sodipodi:namedview
     pagecolor="#ffffff"
     bordercolor="#666666"
     borderopacity="1"
     objecttolerance="10"
     gridtolerance="10"
     guidetolerance="10"
     inkscape:pageopacity="0"
     inkscape:pageshadow="2"
     inkscape:window-width="1366"
     inkscape:window-height="708"
     id="namedview4"
     showgrid="false"
     showborder="true"
     inkscape:zoom="0.6791524"
     inkscape:cx="358.91171"
     inkscape:cy="362.55338"
     inkscape:window-x="0"
     inkscape:window-y="0"
     inkscape:window-maximized="1"
     inkscape:current-layer="layer2"
     borderlayer="true"
     inkscape:showpageshadow="false"
     units="px"
     showguides="true"
     fit-margin-top="100"
     fit-margin-left="100"
     fit-margin-right="100"
     fit-margin-bottom="100"
     inkscape:guide-bbox="true" />
  <g
     inkscape:groupmode="layer"
     id="layer2"
     inkscape:label="Layer 2"
     style="opacity:1"
     transform="translate(-64.97849,405.75366)">
    <path
       style="opacity:1;fill:#808080;fill-opacity:1;fill-rule:nonzero;stroke:none;stroke-width:5.01583195;stroke-linecap:round;stroke-linejoin:round;stroke-miterlimit:4;stroke-dasharray:none;stroke-dashoffset:0;stroke-opacity:1"
       d="m 375.99793,-359.35728 c -0.94541,0.13411 -1.89507,0.45233 -2.8509,0.98166 -12.65744,7.01091 6.7e-4,29.44433 4.59758,43.16408 5.6064,16.73272 27.23824,45.39383 27.23824,45.39383 0,0 -28.81221,-29.32469 -46.79211,-38.55608 -10.11571,-5.19364 -25.01917,-16.88162 -32.97045,-8.75273 -5.27844,5.39632 1.326,16.06758 6.2915,21.75316 9.80246,11.22394 25.40922,17.87143 36.82872,25.80516 25.91329,18.00326 54.14721,55.37752 54.14721,55.37752 0,0 -32.71568,-37.76976 -54.31822,-49.15382 -14.42385,-7.60103 -32.3748,-17.26199 -47.57498,-11.36482 -5.67009,2.19982 -10.82544,9.04496 -10.24435,15.09897 0.72334,7.53584 9.90022,11.67137 16.09332,16.02539 11.57517,8.1379 25.78255,11.69737 38.36515,18.16952 14.69145,7.55692 43.30526,24.1024 43.30526,24.1024 0,0 -26.22721,-12.65708 -39.67048,-18.232 -11.35898,-4.71055 -22.31374,-12.02293 -34.58385,-12.83587 -7.25156,-0.48047 -17.32997,-1.28982 -21.26342,4.82117 -2.31274,3.5931 -0.98168,10.22236 2.59798,12.55585 14.70088,9.58317 29.04638,7.22667 43.01733,12.49717 15.04237,5.6747 43.66325,20.48616 43.66325,20.48616 0,0 -29.51441,-13.19436 -45.22581,-16.40646 -12.70266,-2.59696 -26.74283,-6.82079 -38.83745,-2.14949 -4.16135,1.60721 -9.52795,5.07122 -9.39595,9.53018 0.15383,5.19606 6.45342,11.24721 11.5884,10.43804 39.23636,-6.18284 73.58168,15.57975 73.58168,15.57975 0,0 -40.71066,-14.53735 -61.57438,-12.62313 -7.84532,0.71977 -19.71368,1.31206 -21.90231,8.88023 -1.64572,5.69066 6.48243,14.5709 10.36274,14.43659 35.6791,-1.23495 64.29389,7.48395 64.29389,7.48395 0,0 -41.68562,-7.25686 -61.87426,-2.92356 -3.34652,0.71833 -8.35968,1.3215 -9.15706,4.65006 -1.17317,4.89709 3.95765,13.1287 8.90786,12.20499 25.01241,-4.66691 57.15332,3.02987 57.15332,3.02987 0,0 -38.05903,-5.13986 -56.35308,-0.8657 -3.72218,0.8696 -9.14577,1.56529 -10.2013,5.23907 -1.28167,4.4609 2.50499,12.42949 7.12301,11.96503 36.94533,-3.71592 53.3731,0.8276 53.17376,0.80975 0.0366,0.0338 -30.96349,-1.89873 -49.85241,2.41755 -4.06262,0.92837 -6.99391,6.51276 -6.53722,10.655019 0.62428,5.66231 5.1815,14.01898 11.89631,12.27091 27.66107,-7.20098 48.99757,-5.10987 48.99757,-5.10987 -1.82476,0.83645 -35.02749,3.00353 -45.84878,8.99864 -3.22724,1.78792 -4.20079,7.363792 -2.70159,10.73488 2.21385,4.978212 4.24071,9.014917 14.43989,7.654165 12.64584,-1.687134 38.97148,-5.117779 38.97147,-5.117757 -0.69163,-0.10024 -17.06409,3.43058 -36.90855,8.180493 -4.28704,1.026134 -6.56349,7.970272 -4.703,11.759955 2.12757,4.333753 7.68628,5.92653 13.93058,3.971348 28.60499,-8.956641 34.93782,-8.401472 34.93782,-8.401472 0,0 -26.82547,8.117712 -31.1341,13.817234 -1.7621,2.330976 -5.36619,5.898397 -3.82558,8.649578 2.56221,4.575944 9.55659,5.519003 15.59308,2.096823 13.65056,-7.738715 24.60091,-11.056282 24.60091,-11.056282 0,0 -10.26506,6.138068 -18.83075,10.925187 -2.78885,1.558593 -5.95051,6.120379 -4.05104,8.689219 3.46414,4.684845 12.5644,0.957397 17.31098,-2.421598 5.58381,-3.974986 12.71213,-4.802372 12.71213,-4.802372 0,0 -12.37037,5.091964 -15.69614,10.417828 -0.94376,1.511266 -1.8482,3.934671 -0.70083,5.29779 2.30425,2.737566 7.26739,1.337165 10.72838,0.428641 9.62247,-2.525969 25.39044,-15.682821 25.39044,-15.682821 -10e-6,0 -4.18228,-1.821076 -5.84971,-3.321485 -1.34623,-1.211346 -3.3435,-2.614868 -3.16693,-4.417254 0.87581,-8.940388 23.47234,-10.313603 19.65149,-18.443701 -0.83561,-1.778035 -4.60642,2.251692 -5.85126,0.731835 -2.20694,-2.694525 4.91305,-6.808694 3.31928,-9.905636 -2.84796,-5.534067 -14.83719,-0.0237 -17.85458,-5.467294 -4.22363,-7.619642 11.24034,-17.781594 6.7539,-25.249544 -2.17259,-3.6164 -10.48407,0.94211 -12.32963,-2.85162 -2.35751,-4.846019 8.39339,-9.477909 6.85401,-14.642389 -1.20189,-4.03213 -9.91703,-2.51109 -10.73747,-6.63778 -1.22115,-6.14307 11.64203,-9.01268 10.99163,-15.24212 -0.29553,-2.83056 -6.23958,-2.89743 -6.31671,-5.74234 -0.12693,-4.68211 8.77751,-5.45063 9.86672,-10.00605 1.2295,-5.14219 -6.94436,-10.26408 -4.82582,-15.1082 2.16961,-4.96088 12.5194,-1.92603 14.71566,-6.87519 1.88407,-4.24506 -6.93961,-9.64647 -4.09364,-13.31672 3.14887,-4.06085 12.32334,4.83724 15.39933,0.72088 3.67269,-4.91492 -10.51401,-13.19372 -6.03753,-17.3897 5.98921,-5.6139 15.94248,14.22863 22.69504,9.56068 3.7891,-2.61939 -4.41366,-11.3464 -0.52043,-13.80831 10.50176,-6.64086 20.8235,15.03615 33.05259,17.23542 1.9336,0.34776 5.84745,-0.7344 5.84745,-0.7344 l -41.13474,-57.4146 c 0,0 -29.30276,-63.90274 -52.03053,-90.09912 -6.92176,-7.97814 -15.51808,-23.85973 -24.65726,-22.56413 z m 87.54291,161.98998 c -1.13316,0.17462 -2.13088,0.63349 -2.92711,1.45177 -3.17097,3.25887 10.96695,14.54536 5.31593,12.56385 -8.03041,-2.81583 -13.28633,-5.48085 -22.60296,-8.28158 -4.80341,-1.44398 7.99946,10.5401 4.68121,14.30135 -3.39423,3.84736 -11.67714,-6.73642 -15.11366,-2.92679 -2.70928,3.00343 5.13871,7.90877 3.51824,11.61485 -2.28381,5.22319 -13.34283,2.14858 -15.38269,7.47179 -1.35203,3.52824 5.06406,6.80372 4.27537,10.49894 -0.89489,4.19251 -8.92658,4.62367 -9.29154,8.89508 -0.24987,2.9249 5.1571,4.14528 5.23631,7.07977 0.1515,5.61247 -10.65472,8.62011 -9.2695,14.06105 1.04015,4.08549 9.83718,1.9461 11.16384,5.94765 1.52585,4.60243 -8.32223,8.78752 -6.21167,13.15283 1.36142,2.815909 7.30755,-0.40595 9.13907,2.129509 5.1598,7.14305 -7.68848,19.281873 -2.39486,26.326358 3.08218,4.101621 12.29896,-1.364275 15.11045,2.927418 1.89664,2.895178 -4.35016,7.37186 -2.26183,10.131956 1.05337,1.392279 4.49311,-1.291342 5.22939,0.291676 4.58269,9.852791 -23.38128,15.883838 -19.58154,26.064224 1.32692,3.555167 11.12807,2.393572 11.12807,2.393572 l 7.31972,-3.636452 c -18.3135,10.290265 -41.52465,23.454322 -61.41877,35.08908938 -9.61888,0.126217 -24.82191,0.48067 -34.24296,1.63189102 -17.84915,2.181082 -30.91167,0.87386 -52.83788,10.8893526 -11.53765,5.270173 37.76786,4.671826 37.76786,4.671826 5e-5,-4e-6 -44.31729,14.270736 -87.50302,34.426673 -20.27784,9.464206 43.55331,-0.490338 49.10563,-4.146395 -11.81027,11.873681 -65.73961,22.19824 -79.94713,39.62575 -10.09775,12.386289 28.5823,-1.613598 43.55854,-7.190083 19.36498,-7.210642 56.26909,-33.055305 56.26909,-33.055305 l 17.38892,-11.057947 c -4.87366,5.687866 -7.4867,9.573278 -3.58402,7.25652 C 342.81473,32.762724 385.9966,12.697613 371.9448,22.384594 351.77185,36.291378 266.94882,113.26306 290.97091,100.99848 314.993,88.733903 377.66104,41.169896 368.15417,55.119382 358.6473,69.068897 353.69683,65.962781 347.1055,76.527204 c -6.59134,10.564432 9.52214,-5.612801 7.49843,-1.43635 -2.74596,5.667005 -22.34694,40.767206 -4.68226,23.306632 17.66473,-17.460566 32.24378,-38.146192 57.46107,-58.110554 10.3705,-8.210246 27.43268,-20.743315 43.98647,-32.7107566 -0.55258,0.764814 -1.05095,1.524676 -1.46011,2.2712952 -7.03234,12.8324654 27.94988,-11.4455822 42.56592,-10.74043522 4.78738,0.230972 8.79918,4.12686802 13.53864,4.84107402 5.07764,0.765164 11.14458,-3.57291502 15.3896,-0.683698 1.23762,0.842352 0.18695,3.459593 1.45894,4.249036 5.9472,3.6910336 14.64112,-5.973115 20.82604,-2.695935 2.04291,1.082492 1.06744,5.1351843 3.12429,6.1909526 2.73276,1.402724 6.11548,-2.1189096 9.10713,-1.4220053 4.44759,1.0360433 6.64382,7.7172523 11.20767,7.8776703 4.28432,0.150588 6.73394,-6.819263 11.01708,-6.638863 7.40734,0.311943 10.65093,13.868081 18.01845,13.039922 4.79767,-0.539282 4.80298,-10.034365 9.55556,-10.88407 4.44311,-0.794407 7.61703,7.859346 11.90518,6.450647 2.73585,-0.89873 1.11321,-6.503543 3.67632,-7.81614 7.99611,-4.0949136 19.55823,10.657886 26.49261,4.946446 2.08322,-1.715834 -1.84286,-6.186591 0.0652,-8.0952996 7.07555,-7.077874 25.7068,8.7733026 30.02468,-0.2553 1.1849,-2.477471 -6.20926,-3.934948 -5.11649,-6.454373 3.94008,-9.083942 27.46403,7.229006 29.60312,-2.43879302 1.44364,-6.52472898 -7.55489,-7.47681198 -17.42065,-9.91932738 -10.33223,-2.55796 27.51342,-2.776822 30.28011,-12.443393 2.44837,2.601035 4.96821,6.035421 4.01013,8.541532 -1.80166,4.7124854 -18.22449,0.443557 -14.60871,3.962046 2.61885,2.5483564 7.83205,6.8783874 6.23496,10.67884138 -3.6087,8.58712602 -19.53999,3.30904902 -27.09813,6.81994702 -1.66485,0.773369 1.81466,4.1154696 0.58373,5.4773236 -6.87635,7.607677 -22.30507,-5.9606306 -30.76294,-0.16187 -3.47195,2.380371 -0.66157,10.058569 -4.49139,11.805872 -7.68281,3.505191 -15.71905,-11.200096 -23.79002,-8.715853 -3.91637,1.205452 -3.22576,8.866574 -7.1671,9.987654 -4.39217,1.249284 -8.25231,-6.497272 -12.64819,-5.261003 -4.82784,1.357735 -3.8646,11.569665 -8.84358,12.170753 -7.58742,0.916007 -10.09009,-12.959154 -17.50579,-14.807238 -6.06665,-1.51188 -12.24172,5.399755 -18.32977,3.97664 -3.42149,-0.799795 -4.8717,-5.578346 -8.24347,-6.566898 -5.06604,-1.4853 -12.27966,5.593666 -15.75267,1.617718 -1.81771,-2.080988 3.87713,-6.07905 1.9478,-8.0569456 -4.57853,-4.69375 -13.08771,6.4542606 -19.22718,4.1518586 -2.61743,-0.981568 -2.50653,-5.4895786 -5.01503,-6.7231566 -5.5552,-2.731818 -12.65849,2.134717 -18.56945,0.295339 -2.21353,-0.688831 -3.37793,-3.632041 -5.66071,-4.036004 -1.8824,-0.333138 -5.52977,1.524724 -5.52977,1.524724 L 444.13013,20.0347 l 0.89554,-5.062455 c 0,0 -26.91506,13.438366 -21.57402,22.293117 3.75684,6.228333 24.00433,-7.158293 24.00433,-7.158293 1.37195,1.394433 -12.44047,7.950094 -11.29415,10.312737 -0.44446,8.351905 9.8776,4.162531 9.8776,4.162531 0,0 -1.94417,5.743435 0.60715,8.029671 2.39499,2.146134 8.04236,-1.773288 8.04236,-1.773288 L 485.2653,35.84341 460.79677,49.901488 c 0,0 -2.63396,7.615409 -0.21633,9.823246 2.20162,2.010544 8.88791,-1.004279 8.88791,-1.004279 l 29.23306,-20.792629 -25.38929,22.616497 c 0,0 -0.0989,4.520471 1.52474,5.529801 3.36613,2.092725 11.67744,-2.236859 11.67744,-2.236859 L 513.96973,41.05442 490.32138,64.271707 c 0,0 -2.46081,4.968836 -0.7209,5.95665 5.2767,2.995734 6.85771,-0.739662 10.55526,-5.551316 4.54633,-5.916184 -4.02443,7.235243 -0.27166,9.403316 9.20997,5.320885 33.78104,-39.166537 35.12023,-39.091856 L 515.55474,67.85211 c 0,0 -2.34031,8.776947 0.65747,10.720664 4.66927,3.027444 13.11883,-7.572917 13.11883,-7.572917 l 23.58375,-32.45658 -19.03549,35.545281 c 0,0 -0.62016,6.553551 1.73029,7.817851 3.81867,2.054028 12.148,-4.657741 12.148,-4.657741 l 20.52166,-36.292133 -16.43758,35.742552 c 0,0 -1.84393,5.297193 2.18878,6.566318 3.65136,1.149081 10.53087,-4.577383 10.53087,-4.577383 l 6.14006,-10.489177 c 0,0 -3.54919,8.048474 -2.58168,12.03605 0.93962,3.872595 3.67444,8.475468 7.58532,9.240225 6.04546,1.182161 12.29127,-4.088615 16.24217,-8.814652 3.91763,-4.686214 5.74734,-17.399516 5.74734,-17.399516 l -1.93702,17.833364 c 0,0 1.33607,10.685175 5.8601,12.181269 4.21048,1.39237 9.47265,-6.270814 9.47265,-6.270814 l 6.09009,-48.433162 -1.35393,45.19519 c 0,0 5.8189,11.097805 11.10928,11.362557 5.63016,0.281757 12.971,-10.851564 12.971,-10.851564 l -0.90567,-48.486258 5.62024,47.583163 c 0,0 8.20992,8.502221 13.03523,7.281552 6.90043,-1.745639 11.92597,-10.924398 11.44916,-18.026233 -3.23838,-17.718025 -4.6568,-20.723367 -6.79272,-38.111603 6.52486,15.205919 6.49509,29.027419 12.47618,39.819139 2.70113,4.873672 5.76671,8.71641 10.40585,9.892449 4.03357,1.022519 9.61186,0.11812 12.05234,-3.252216 3.26196,-4.504828 -0.8971,-16.661337 -0.8971,-16.661337 L 683.50714,43.156309 c -3.44227,-5.671452 17.22852,18.313504 18.41745,19.695919 1.20213,1.397754 10.00989,11.216842 16.89422,12.829712 5.26918,1.234453 13.52947,1.789909 15.94301,-3.053949 3.98324,-7.994103 -12.86886,-21.600428 -12.86886,-21.600428 l -15.5182,-16.319176 22.28873,15.803577 c 0,0 18.29899,20.478488 27.94685,15.836181 5.04078,-2.425485 8.92565,-4.949968 5.23255,-9.151613 C 750.91858,47.104184 729.3302,34.068308 729.3302,34.068308 c 0,0 24.21637,12.265181 37.0306,18.768347 9.01435,4.574736 19.52862,6.554097 29.63662,6.432216 7.85969,-0.09476 19.83247,-1.783313 22.91795,-5.557038 2.69714,-3.298762 -4.01469,-7.322839 -7.64715,-8.313649 -8.4114,-2.294362 -14.40095,-2.985137 -22.24445,-6.046671 -8.91749,-3.958508 -15.64294,-7.00954 -15.64294,-7.00954 0,0 11.99712,3.596656 18.14517,4.718293 7.99095,1.457849 15.45592,2.858422 24.23044,2.590582 14.33327,-0.437539 33.36509,-3.599542 41.92181,-9.659469 5.31507,-3.764175 -17.52852,-6.420838 -17.52852,-6.420838 0,0 -28.47353,-3.276044 -43.54334,-6.095766 -14.8952,-2.787068 -46.58652,-12.2623496 -46.58652,-12.2623496 0,0 32.57519,7.5733896 48.99222,10.0564986 15.18306,2.296464 34.31565,5.49434 49.56136,3.659034 13.97158,-1.681917 27.04473,-4.655677 35.72225,-14.0610566 3.44483,-3.733784 8.16657,-11.146375 4.42492,-14.582724 -7.71806,-7.0884054 -18.81006,10.27422598 -29.19892,11.647804 -39.14658,5.175791 -93.27411,-6.6458 -117.65803,-13.7832094 -14.41932,-4.220683 -22.36736,-8.609635 -26.53901,-11.524167 0.0722,-0.366068 0.10929,-0.742486 0.0785,-1.135498 -0.46711,-5.941146 -11.27767,-4.390143 -17.22347,-4.793552 -7.93245,-0.538192 -16.68678,-0.635984 -23.63232,3.233489 -3.4811,1.939363 -4.05682,7.41512 -7.61044,9.218085 -3.61825,1.835751 -8.46311,-0.976508 -12.1524,0.711942 -3.5249,1.613238 -4.42054,7.1237214 -8.10091,8.3411784 -5.56407,1.840595 -11.80911,-4.7172224 -17.35417,-2.8201154 -3.22536,1.1034824 -3.59874,7.0147594 -6.97567,7.4806074 -2.96976,0.409699 -4.70681,-4.324596 -7.68444,-4.672409 -5.08618,-0.594113 -9.49627,4.524119 -14.61245,4.7408 -2.08332,0.0882 -4.18018,-2.247774 -6.09379,-1.419474 -1.92833,0.834676 -1.25257,4.56917298 -3.15757,5.45586498 -4.3134,2.00764602 -9.30088,-2.27495798 -14.05415,-2.48139898 -6.27196,-0.272397 -13.22252,4.606706 -18.76171,1.65214598 -3.63312,-1.93780898 -2.28914,-8.94397698 -5.95326,-10.82257638 -2.73826,-1.403966 -6.18584,1.8691884 -9.16733,1.1076994 -2.97442,-0.7596924 -4.45976,-4.8782114 -7.4925,-5.3542164 -8.74282,-1.372168 -18.69816,13.98363638 -25.29081,8.0796614 -1.87444,-1.678618 3.40848,-5.7677834 1.49481,-7.4015774 -6.28691,-5.367459 -16.84597,13.89143538 -23.24223,8.6548064 -1.93096,-1.580885 -1.45944,-5.1537404 -0.44968,-8.4920824 0.11736,0.797142 0.42706,1.47225 1.11543,1.91759 8.07485,5.2239524 18.34859,-10.233524 27.92714,-7.248057 2.01056,0.626646 1.83797,3.348415 3.49822,3.838445 6.04325,1.783699 12.34141,-6.933512 18.27773,-4.821146 2.07313,0.737692 1.83595,4.535025 3.88505,5.33701 4.24915,1.663038 9.0908,-4.074441 13.42862,-2.658787 4.36459,1.424475 4.78717,9.4534804 9.32823,10.1295284 3.26393,0.485909 5.23951,-5.0757114 8.53883,-5.0137184 4.37317,0.08218 6.71674,7.6196814 11.05547,7.0656204 2.87838,-0.367586 3.14172,-5.5520534 5.92343,-6.3780054 3.2446,-0.963398 6.53532,3.1410954 9.85171,2.4651434 2.61848,-0.533757 3.82318,-4.1101674 6.39508,-4.8358334 5.5162,-1.556425 12.05724,4.3744084 17.11056,1.669834 1.27918,-0.684615 0.79005,-3.120069 2.05119,-3.837458 5.84863,-3.327135 13.96289,3.529442 20.16578,0.921671 1.93511,-0.813528 2.35982,-3.680225 4.19783,-4.69423 4.04489,-2.231474 9.84553,0.301834 13.66396,-2.29819 2.12367,-1.446055 1.92674,-5.052443 3.97512,-6.603266 5.87677,-4.449342 27.96561,-2.621555 21.33191,-5.835127 -24.146,-11.696976 -65.97246,-0.127312 -92.15812,-17.17824 -7.35171,-4.787094 -14.87504,-21.711569 -14.87504,-21.711569 0,0 11.33708,18.364397 20.72435,19.251185 6.08603,0.57493 12.36121,-4.522517 15.53891,-9.746011 2.06367,-3.392278 1.3712,-7.919251 0.981,-11.871569 -0.44241,-4.481296 -3.72421,-12.985146 -3.72421,-12.985146 0,0 6.68104,-6.84921 10.68779,-9.38197 8.90947,-5.631949 35.93566,-4.687709 29.03569,-12.517589 -7.85696,-8.9158 -23.57159,-7.14204 -35.55861,-6.13904 -27.54693,2.30496 -78.24217,27.489179 -78.24217,27.489179 0,0 -29.46607,-16.992639 -38.88988,-30.507399 -7.49877,-10.75406 -12.08039,-37.42833 -12.08039,-37.42833 0,0 0.80726,-22.34562 2.96603,-26.46902 3.73002,-7.1247 -20.14476,10.327 -19.04365,14.81285 1.15848,4.71962 -10.79135,0.69678 -13.88442,4.44509 -1.36982,1.66002 0.33579,4.56268 -0.76687,6.41099 -3.0854,5.17182 -11.48603,5.35636 -14.76742,10.40617 -1.07003,1.64671 -0.37279,3.97525 -1.14346,5.78155 -1.11592,2.61571 -4.77741,4.14449 -4.896,6.98584 -0.10174,2.43607 3.8925,3.89043 3.6843,6.31974 -0.28223,3.29276 -6.57908,4.29645 -6.37527,7.59499 0.16945,2.74214 5.05987,3.04172 6.03538,5.61008 1.12756,2.96876 -2.28452,6.62028 -0.91297,9.48453 1.42821,2.98251 6.81523,2.49081 8.28911,5.45099 1.09334,2.195969 -2.16873,5.565289 -0.47859,7.343259 3.47757,3.65827 10.82763,-2.84852 15.13864,-0.22335 3.24173,1.97401 4.16702,6.50793 5.08099,10.19169 0.85654,3.452428 1.181,7.236079 0.25519,10.670555 -1.18503,4.396309 -7.37912,7.092268 -7.14658,11.639532 0.16092,3.147011 2.36435,6.238451 5.08605,8.152558 -4.36117,-0.478029 -9.10142,-1.655181 -10.79872,-4.45821 -1.57016,-2.592998 1.1675,-5.970995 2.18971,-8.824764 1.50647,-4.205779 5.62478,-7.63447 5.76506,-12.099729 0.13882,-4.419872 -1.10843,-10.109572 -4.94463,-12.309162 -4.41189,-2.5296 -10.89454,5.11522 -15.09105,2.24241 -2.62198,-1.79497 -0.68648,-6.4516 -2.10316,-9.29581 -1.73282,-3.478939 -6.91896,-5.066459 -7.52767,-8.905089 -0.39553,-2.49398 3.13642,-4.50501 2.86218,-7.01517 -0.42724,-3.91066 -7.24811,-5.81285 -6.71096,-9.7099 0.32992,-2.39362 4.82755,-2.33073 5.58065,-4.62664 1.18964,-3.62665 -4.07177,-7.52017 -2.77304,-11.10923 0.75728,-2.09274 4.3763,-1.95777 5.38614,-3.941 1.76161,-3.45964 -2.31534,-8.55549 0.0332,-11.6468 3.02078,-3.97601 10.83939,-0.57667 14.42116,-4.05584 3.53313,-3.4319 0.11942,-11.68347 4.41079,-14.10121 3.75541,-2.11579 8.75321,5.11565 12.55825,3.09049 2.72445,-1.45005 1.25138,-6.28511 3.18262,-8.69245 2.85373,-3.55734 11.52332,-7.38087 11.52332,-7.38087 0,0 -14.66043,-12.66001 -22.5927,-11.43889 z m 194.68846,93.59194 c -26.88855,6.094989 -1.80467,4.773799 -28.39967,25.677535 -1.51747,2.72728 0.74666,1.761541 4.7849,3.83803 3.69758,1.901374 -0.45143,4.595892 -1.79442,8.094035 10.60067,-1.558573 19.48187,-3.380845 24.91732,-10.584913 3.72293,-4.934338 3.0767,-12.271828 2.28683,-18.402418 -0.42771,-3.31972 -1.79496,-8.622269 -1.79496,-8.622269 z m -22.74212,4.199049 c -1.02114,0.16825 -2.09018,0.60121 -3.06694,1.24249 -2.67845,1.75865 -4.00184,4.60622 -2.95484,6.35797 1.04428,1.75076 4.05867,1.7463 6.73433,-0.01 2.67632,-1.75773 3.9995,-4.6028 2.95543,-6.35475 -0.62281,-1.04814 -1.9954,-1.51057 -3.66798,-1.23578 z M 496.6116,-56.31315 c 7.45395,-1.424511 18.62053,-1.851186 18.62053,-1.851186 0,0 -21.44429,3.713723 -30.34997,9.457721 -3.13191,2.020069 -5.79137,10.341242 -7.43366,8.35302 0.77882,-9.063288 9.12809,-13.135561 16.23977,-15.286544 0.86982,-0.245937 1.8585,-0.469366 2.92333,-0.672999 z M 334.62625,44.116067 c 0,0 -19.70451,6.990511 -28.79999,12.046822 -20.0637,11.153696 -40.58731,23.0198 -56.10477,39.936264 -2.83042,3.085639 -8.75296,7.375277 -6.37845,10.824087 3.28071,4.76501 12.73729,0.88767 17.11375,-2.89584 14.00797,-12.110083 22.90438,-14.757738 22.90438,-14.757738 0,0 -47.68614,33.955058 -68.28192,54.560918 -12.98658,12.99293 -28.38134,24.29904 -34.38152,43.06989 -1.95992,6.13147 19.54278,-4.68899 24.41238,-8.89889 21.90111,-18.93381 61.37032,-50.54713 61.37032,-50.54713 0,0 -16.53164,18.2357 -39.29178,37.48368 -2.54192,2.14966 -2.79759,8.16827 -0.009,9.98635 5.62109,3.66452 18.4142,-8.13562 18.4142,-8.13562 l 58.27938,-52.64156 -18.82317,22.03882 c 0,0 -5.68799,7.83096 -3.03976,10.18454 4.33238,3.85038 11.13003,-3.69586 15.96145,-6.89772 15.84423,-10.5001 41.23055,-39.39119 41.23055,-39.39119 l 5.89581,-15.339917 -8.96423,1.334773 6.39222,-12.748522 c 0,0 -25.22622,18.328412 -38.82592,25.873745 -8.93346,4.956471 -15.24981,9.833941 -27.92043,12.646401 -10.86647,2.41197 7.57587,-17.043413 17.00329,-25.533772 14.7196,-13.256603 41.8432,-42.198391 41.8432,-42.198391 z m 83.6617,-2.460184 c -7.04357,1.417654 -17.78674,12.174847 -17.78674,12.174847 0,0 -18.71009,22.605954 -28.68898,33.351372 -9.02032,9.713225 -18.5913,22.694638 -28.15049,28.091328 -1.67676,0.94663 -2.54004,-5.18902 -2.54004,-5.18902 0,0 -28.64138,24.77882 -44.25222,40.97413 -5.80117,6.01836 -17.34847,13.56816 -23.71718,8.15393 -2.19865,-1.86916 1.46107,-8.53225 1.46107,-8.53225 0,0 -19.80941,20.0891 -32.01177,26.7662 -6.41337,3.5094 -20.92174,6.58777 -20.92174,6.58777 l -6.42496,-3.92949 -27.14576,14.48628 c 0,0 -16.47511,6.92733 -19.88355,1.22865 -8.8343,-14.77043 27.18774,-43.89628 27.18774,-43.89628 l 41.52839,-36.32616 c 0,0 -6.40712,-1.6508 -7.01728,-4.33139 -1.03394,-4.54257 7.54848,-11.763069 7.54848,-11.763069 l -64.16861,33.960009 c 0,0 -7.94549,7.90026 -5.55682,11.38158 2.78565,4.05981 14.71488,-1.27263 14.71488,-1.27263 l 30.11129,-12.47426 -85.75234,61.30553 c 0,0 -10.6971,7.04409 -8.23609,10.86402 2.74545,4.26139 14.83052,-3.35948 14.83052,-3.35948 l 31.97424,-21.59885 -70.001824,54.67765 c 0,0 -5.076638,10.45271 -1.597694,13.19994 9.674318,7.63958 34.684368,-12.83155 34.684368,-12.83155 l 54.23444,-34.63387 -9.42137,10.05705 c 0,0 -8.02322,9.20712 -4.86925,12.28058 5.69361,5.54828 21.93697,-9.35903 21.93697,-9.35903 l 31.20801,-25.58153 -8.52175,9.3727 c 0,0 -3.46935,8.48272 -0.57987,10.42487 3.90946,2.62773 12.76781,-6.05654 12.76781,-6.05654 l 24.00755,-20.07275 c 0,0 -9.03851,12.83171 -4.60397,16.35591 4.72465,3.75476 15.86993,-8.71221 15.86993,-8.71221 l 62.24978,-54.73871 c 0,0 -5.57837,8.27738 -2.66677,10.30927 6.5105,4.54345 19.58477,-13.54998 19.58477,-13.54998 0,0 27.14071,-28.27553 40.29186,-42.798936 7.3471,-8.113763 21.56652,-24.762069 21.56652,-24.762069 0,0 -8.99211,17.870811 -15.21323,25.609819 -7.13321,8.873632 -18.34896,15.139246 -22.96205,25.548076 -1.67749,3.78506 -4.72995,7.85868 -2.16901,10.21726 4.87004,4.4853 13.15629,-2.63804 19.02207,-5.70851 9.97182,-5.22007 18.34614,-12.69803 26.40433,-21.047246 13.05173,-13.52311 24.80384,-54.093354 24.80384,-54.093354 -8.25647,2.226304 -7.9315,-1.805486 -13.1275,-0.759607 z"
       id="path4155"
       inkscape:connector-curvature="0"
       sodipodi:nodetypes="csscsssscssssscssssscsssscssscssccssscssscssscssscscscssscsssccsssssssscsssssssssssccssccssssssscsssssssssscccsscscssccssssssssccssssssssssssssssssscsssssssssssssssssssscccscscccccscccscccsssccscccscccscccaaacscccsaccssccsaacssscccssccssssccascscsssssscssssssssssssssssssssccssssssssscssssssssscsascssscscsssscsssssssssssscsssssssscssssssssccccscssccsscccscsscscsssccssscsscccssccccssscscssccscscccsccsccscccscccscccscccsccsccscscssssscsccscc" />
    <g
       style="opacity:1"
       id="g4515"
       transform="translate(-7.8656935,-132.54711)">
      <rect
         y="166.3864"
         x="599.8244"
         height="131.74529"
         width="231.20776"
         id="rect4489"
         style="opacity:1;fill:#003380;fill-opacity:1;stroke:none;stroke-width:1.9074316;stroke-linecap:round;stroke-linejoin:round;stroke-miterlimit:4;stroke-dasharray:none;stroke-opacity:1;paint-order:stroke markers fill" />
      <g
         transform="matrix(1.2363301,0,0,1.2363301,-513.54273,146.28707)"
         id="g4491">
        <rect
           x="550.74927"
           id="rect4-3"
           height="106.92123"
           width="374.06848"
           y="16.193968"
           style="opacity:1;stroke-width:1.03907907" />
        <path
           style="opacity:1;fill:#ffffff;stroke-width:1.03907907"
           inkscape:connector-curvature="0"
           id="path6-6"
           d="m 907.98463,96.566727 c -0.7273,0.207819 -1.35075,0.311723 -1.97419,0.311723 -2.18212,0 -3.2212,-0.935168 -3.2212,-3.636774 V 72.979634 c 0,-10.702513 -8.52046,-15.897909 -18.59946,-15.897909 -7.68924,0 -11.84554,0.935171 -20.05428,4.260224 l -1.66252,10.806422 10.70252,1.142988 1.55861,-5.299304 c 2.18207,-1.142987 4.36413,-1.350803 7.16969,-1.350803 7.58522,0 7.68918,5.714935 7.68918,10.494698 v 1.558619 c -2.38993,-0.311723 -5.09153,-0.415631 -7.68918,-0.415631 -10.70256,0 -21.8207,2.701605 -21.8207,14.235383 0,9.767349 7.68918,13.404119 14.44319,13.404119 7.58533,0 12.3651,-4.57195 15.06669,-9.351713 0.62345,5.714943 4.05236,9.351713 10.28683,9.351713 2.90943,0 5.92281,-0.83126 8.4166,-2.18206 z m -28.67858,-0.311722 c -4.0524,0 -5.50711,-2.389881 -5.50711,-5.403211 0,-5.091487 4.15636,-6.44229 8.93613,-6.44229 2.182,0 4.57194,0.311724 6.75395,0.623447 -0.31166,7.793094 -5.40321,11.222054 -10.18297,11.222054 z M 861.32999,33.390723 841.06794,104.77545 h -13.19631 l 20.26204,-71.384727 z m -27.22388,0 -20.26204,71.384727 H 800.64776 L 820.9098,33.390723 Z m -56.11027,24.626173 h 14.02757 v 16.833081 h -14.02757 z m 0,30.029385 h 14.02757 v 16.833079 h -14.02757 z m -20.46987,-0.623448 10.59862,1.039079 -2.90942,16.417448 h -40.83582 l -1.3508,-7.065732 25.76916,-29.613758 H 734.1467 l -2.07817,7.273554 -9.66343,-1.039079 1.66253,-16.417449 h 41.04363 l 1.03908,7.065737 -25.97699,29.613753 h 15.17056 z m -67.0206,-30.341108 c -16.83308,0 -25.14571,11.325962 -25.14571,25.041805 0,14.962738 9.97516,23.79491 24.41836,23.79491 14.96274,0 25.76915,-9.455617 25.76915,-24.418357 0,-13.092396 -8.20872,-24.418358 -25.0418,-24.418358 z m -0.31172,38.445925 c -7.27356,0 -11.01424,-6.234474 -11.01424,-14.339291 0,-8.832172 4.26022,-13.923659 11.11815,-13.923659 6.33838,0 11.42986,4.260224 11.42986,13.715843 0,9.039988 -4.57194,14.547107 -11.53377,14.547107 z m -36.88731,-0.935172 h 6.23448 V 104.77545 H 640.00614 V 78.486753 c 0,-8.104816 -2.70161,-11.222053 -8.00092,-11.222053 -6.44229,0 -9.03998,4.571948 -9.03998,11.118146 v 16.31354 h 6.23447 v 10.182974 h -19.6386 V 78.486753 c 0,-8.104816 -2.7016,-11.222053 -8.0009,-11.222053 -6.44229,0 -9.03999,4.571948 -9.03999,11.118146 v 16.31354 h 8.93608 V 104.87936 H 572.98553 V 94.696386 H 579.22 V 68.19987 h -6.23447 V 58.016896 h 19.6386 v 7.065737 c 2.80551,-4.987579 7.68918,-8.000908 14.23538,-8.000908 6.75402,0 12.98849,3.221145 15.27446,10.079066 2.5977,-6.234473 7.897,-10.079066 15.27446,-10.079066 8.41654,0 16.10573,5.091487 16.10573,16.209634 v 21.301119 z"
           class="st0" />
      </g>
      <text
         id="text4512"
         y="282.82849"
         x="729.74506"
         style="font-style:normal;font-weight:normal;font-size:152.50526428px;line-height:1;font-family:sans-serif;text-align:center;letter-spacing:0px;word-spacing:0px;text-anchor:middle;fill:#ffffff;fill-opacity:1;stroke:none;stroke-width:16.33984756"
         xml:space="preserve"><tspan
           style="font-style:normal;font-variant:normal;font-weight:normal;font-stretch:normal;font-family:'Zilla Slab';-inkscape-font-specification:'Zilla Slab';fill:#ffffff;stroke-width:16.33984756"
           y="282.82849"
           x="729.74506"
           id="tspan4510"
           sodipodi:role="line">hn</tspan></text>
    </g>
  </g>
</svg>
