<?xml version="1.0" encoding="UTF-8" standalone="no"?>
<!-- Created with Inkscape (http://www.inkscape.org/) -->

<svg
   xmlns:dc="http://purl.org/dc/elements/1.1/"
   xmlns:cc="http://creativecommons.org/ns#"
   xmlns:rdf="http://www.w3.org/1999/02/22-rdf-syntax-ns#"
   xmlns:svg="http://www.w3.org/2000/svg"
   xmlns="http://www.w3.org/2000/svg"
   xmlns:sodipodi="http://sodipodi.sourceforge.net/DTD/sodipodi-0.dtd"
   xmlns:inkscape="http://www.inkscape.org/namespaces/inkscape"
   version="1.1"
   id="svg2"
   width="2000"
   height="1414.6667"
   viewBox="0 0 2000 1414.6667"
   sodipodi:docname="LogoMozillaCentroamerica_FullNegro.svg"
   inkscape:version="0.92.1 unknown"
   inkscape:export-filename="/home/keik/Escritorio/IMAGEN MOZILLA CENTROAMERICA/CA/LogoMozillaCentroamerica_FullNegro.png"
   inkscape:export-xdpi="72"
   inkscape:export-ydpi="72">
  <metadata
     id="metadata8">
    <rdf:RDF>
      <cc:Work
         rdf:about="">
        <dc:format>image/svg+xml</dc:format>
        <dc:type
           rdf:resource="http://purl.org/dc/dcmitype/StillImage" />
        <dc:title></dc:title>
      </cc:Work>
    </rdf:RDF>
  </metadata>
  <defs
     id="defs6">
    <clipPath
       clipPathUnits="userSpaceOnUse"
       id="clipPath4505">
      <rect
         style="opacity:0.775;fill:#808080;fill-opacity:1;stroke:none;stroke-width:4;stroke-linecap:round;stroke-linejoin:round;stroke-miterlimit:4;stroke-dasharray:none;stroke-opacity:1;paint-order:stroke markers fill"
         id="rect4507"
         width="1652.7247"
         height="870.14319"
         x="186.06836"
         y="8.2088976" />
    </clipPath>
    <clipPath
       clipPathUnits="userSpaceOnUse"
       id="clipPath5132">
      <rect
         style="opacity:1;fill:#006680;fill-opacity:0.53877552;stroke:none;stroke-width:6;stroke-linecap:round;stroke-linejoin:round;stroke-miterlimit:4;stroke-dasharray:none;stroke-opacity:1;paint-order:markers fill stroke"
         id="rect5134"
         width="50.284119"
         height="24.111647"
         x="1074.1018"
         y="1085.5531" />
    </clipPath>
    <clipPath
       clipPathUnits="userSpaceOnUse"
       id="clipPath5153">
      <path
         style="fill:#006680;fill-opacity:1;stroke:none;stroke-width:1px;stroke-linecap:butt;stroke-linejoin:miter;stroke-opacity:1"
         d="m 1120.8167,1085.7241 5.4916,-0.044 v 14.166 l 38.4961,0.058 1.4469,-14.4696 -39.943,0.2456 -0.09,-13.9435 -5.2091,5.7878 z"
         id="path5155"
         inkscape:connector-curvature="0" />
    </clipPath>
    <clipPath
       clipPathUnits="userSpaceOnUse"
       id="clipPath5191">
      <rect
         style="opacity:1;fill:#80b3ff;fill-opacity:1;stroke:none;stroke-width:6.03133202;stroke-linecap:round;stroke-linejoin:round;stroke-miterlimit:4;stroke-dasharray:none;stroke-opacity:1;paint-order:markers fill stroke"
         id="rect5193"
         width="46.937687"
         height="27.368502"
         x="1510.6561"
         y="766.61469" />
    </clipPath>
    <clipPath
       clipPathUnits="userSpaceOnUse"
       id="clipPath5216">
      <path
         style="fill:#00b0ea;fill-opacity:1;stroke:none;stroke-width:1px;stroke-linecap:butt;stroke-linejoin:miter;stroke-opacity:1"
         d="m 1547.5256,754.5612 c 3.5444,3.12052 6.003,7.32679 7.6576,12.33709 l 31.9062,-0.42541 -11.0608,-19.8528 -24.5324,-2.26889 z"
         id="path5218"
         inkscape:connector-curvature="0"
         sodipodi:nodetypes="cccccc" />
    </clipPath>
    <clipPath
       clipPathUnits="userSpaceOnUse"
       id="clipPath5237">
      <rect
         style="opacity:1;fill:#afc6e9;fill-opacity:1;stroke:none;stroke-width:6;stroke-linecap:round;stroke-linejoin:round;stroke-miterlimit:4;stroke-dasharray:none;stroke-opacity:1;paint-order:markers fill stroke"
         id="rect5239"
         width="23.213442"
         height="51.702663"
         x="1825.0688"
         y="909.24683" />
    </clipPath>
    <clipPath
       clipPathUnits="userSpaceOnUse"
       id="clipPath4623">
      <rect
         style="opacity:1;fill:#fed503;fill-opacity:1;stroke:#000000;stroke-width:13;stroke-linecap:round;stroke-linejoin:round;stroke-miterlimit:4;stroke-dasharray:none;stroke-opacity:1;paint-order:markers fill stroke"
         id="rect4625"
         width="552.73248"
         height="374.87302"
         x="957.70477"
         y="749.74603" />
    </clipPath>
  </defs>
  <sodipodi:namedview
     pagecolor="#ffffff"
     bordercolor="#666666"
     borderopacity="1"
     objecttolerance="10"
     gridtolerance="10"
     guidetolerance="10"
     inkscape:pageopacity="0"
     inkscape:pageshadow="2"
     inkscape:window-width="1366"
     inkscape:window-height="708"
     id="namedview4"
     showgrid="false"
     inkscape:zoom="0.36545709"
     inkscape:cx="1000"
     inkscape:cy="707.33337"
     inkscape:window-x="0"
     inkscape:window-y="0"
     inkscape:window-maximized="1"
     inkscape:current-layer="layer2" />
  <g
     inkscape:groupmode="layer"
     id="layer2"
     inkscape:label="LogoMozCA"
     style="display:inline;opacity:1">
    <circle
       style="opacity:0.8;fill:#000000;fill-opacity:1;stroke:none;stroke-width:6;stroke-linecap:round;stroke-linejoin:round;stroke-miterlimit:4;stroke-dasharray:none;stroke-opacity:1;paint-order:markers fill stroke"
       id="path4779-1-6-3"
       cx="1816.7456"
       cy="825.65546"
       r="21.793777" />
    <circle
       style="display:inline;opacity:0.8;fill:#000000;fill-opacity:1;stroke:none;stroke-width:6;stroke-linecap:round;stroke-linejoin:round;stroke-miterlimit:4;stroke-dasharray:none;stroke-opacity:1;paint-order:markers fill stroke"
       id="path4779-1-2-7-0-97-0"
       cx="1450.9443"
       cy="647.2027"
       r="21.793777" />
    <circle
       style="display:inline;opacity:0.8;fill:#000000;fill-opacity:1;stroke:none;stroke-width:6;stroke-linecap:round;stroke-linejoin:round;stroke-miterlimit:4;stroke-dasharray:none;stroke-opacity:1;paint-order:markers fill stroke"
       id="path4779-1-9-8"
       cx="962.31323"
       cy="915.32434"
       r="21.793777" />
    <g
       id="g4569"
       transform="translate(-77.102209,-126.96977)">
      <rect
         style="stroke-width:1.80568814"
         x="189.40039"
         y="643.57001"
         width="650.04773"
         height="185.80531"
         id="rect4" />
      <path
         style="fill:#ffffff;fill-opacity:1;stroke-width:1.80568814"
         inkscape:connector-curvature="0"
         class="st0"
         d="m 810.19604,777.0104 c -1.26398,0.36114 -2.34739,0.54171 -3.43081,0.54171 -3.79194,0 -5.59763,-1.62512 -5.59763,-6.31991 v -35.21092 c 0,-18.59859 -14.80664,-27.62703 -32.32182,-27.62703 -13.36209,0 -20.58484,1.62512 -34.84978,7.40332 l -2.8891,18.77916 18.59859,1.98626 2.70853,-9.20901 c 3.79195,-1.98626 7.58389,-2.3474 12.45925,-2.3474 13.18152,0 13.36209,9.93129 13.36209,18.23745 v 2.70854 c -4.15308,-0.54171 -8.84787,-0.72228 -13.36209,-0.72228 -18.59859,0 -37.91945,4.69479 -37.91945,24.73793 0,16.97347 13.36209,23.29337 25.09906,23.29337 13.18153,0 21.48769,-7.94502 26.18248,-16.25119 1.08341,9.93129 7.04219,16.25119 17.87631,16.25119 5.05593,0 10.29243,-1.44455 14.62608,-3.79194 z m -49.83699,-0.54171 c -7.04218,0 -9.57015,-4.15308 -9.57015,-9.38957 0,-8.84788 7.22275,-11.19527 15.52892,-11.19527 3.79195,0 7.94503,0.54171 11.73697,1.08341 -0.5417,13.54266 -9.38958,19.50143 -17.69574,19.50143 z M 729.12064,667.22456 693.90973,791.27534 h -22.9323 l 35.21098,-124.05078 z m -47.30902,0 -35.21098,124.05078 H 623.6684 l 35.21092,-124.05078 z m -97.50722,42.79481 h 24.37679 v 29.25215 H 584.3044 Z m 0,52.18439 h 24.37679 v 29.25215 H 584.3044 Z m -35.57205,-1.08341 18.41801,1.80568 -5.05592,28.52988 h -70.96355 l -2.34739,-12.27868 44.78107,-51.46211 h -25.46021 l -3.61137,12.63981 -16.7929,-1.80569 2.8891,-28.52987 h 71.32468 l 1.80569,12.27868 -45.14221,51.46211 h 26.36305 z m -116.46689,-52.7261 c -29.25215,0 -43.69765,19.682 -43.69765,43.51709 0,26.00191 17.3346,41.35025 42.43367,41.35025 26.00191,0 44.78107,-16.43176 44.78107,-42.43367 0,-22.75167 -14.26494,-42.43367 -43.51709,-42.43367 z m -0.54171,66.81046 c -12.63981,0 -19.14029,-10.83413 -19.14029,-24.91849 0,-15.34835 7.40332,-24.19622 19.32086,-24.19622 11.0147,0 19.86257,7.40332 19.86257,23.83508 0,15.70949 -7.94502,25.27963 -20.04314,25.27963 z m -64.10192,-1.62512 h 10.83413 v 17.69575 h -33.94694 v -45.68391 c 0,-14.08437 -4.69479,-19.50143 -13.9038,-19.50143 -11.19527,0 -15.70949,7.94502 -15.70949,19.32086 v 28.3493 h 10.83413 v 17.69575 h -34.1275 v -45.86448 c 0,-14.08437 -4.69479,-19.50143 -13.9038,-19.50143 -11.19527,0 -15.70949,7.94502 -15.70949,19.32086 v 28.3493 h 15.52892 v 17.69575 h -49.47586 v -17.69575 h 10.83413 v -46.04504 h -10.83413 v -17.69575 h 34.12751 v 12.27868 c 4.87536,-8.6673 13.36209,-13.9038 24.73793,-13.9038 11.73697,0 22.5711,5.59764 26.54361,17.51518 4.51422,-10.83413 13.72323,-17.51518 26.54362,-17.51518 14.62607,0 27.98816,8.84787 27.98816,28.16874 v 37.0166 z"
         id="path6" />
    </g>
    <path
       style="fill:#000000;fill-opacity:1;stroke-width:2.8596921"
       d="M 112.29883 720.56836 L 112.29883 906.375 L 1208.8691 906.375 L 1191.0859 883.07422 L 1210.5586 857.58789 L 1245.5781 857.22461 L 1270.7285 857.92383 L 1303.5645 867.00586 L 1319.6328 862.81445 L 1356.7324 906.375 L 1742.7129 906.375 L 1742.7129 720.56836 L 1312.041 720.56836 L 1302.6758 747.79297 L 1304.4141 784.26562 L 1292.3887 802.53125 L 1305.3496 835.11133 L 1300.3887 843.0625 L 1287.4551 837.13867 L 1253.2051 831.18555 L 1196.7383 828.58008 L 1180.7324 810.28906 L 1125.0957 746.26953 L 1109.8535 726.45312 L 1130.6797 720.56836 L 112.29883 720.56836 z "
       id="rect4-3" />
    <path
       inkscape:connector-curvature="0"
       style="opacity:0.8;fill:#000000;fill-opacity:1;stroke:none;stroke-width:3.11383677;stroke-linecap:round;stroke-linejoin:round;stroke-miterlimit:4;stroke-dasharray:none;stroke-opacity:1;paint-order:markers fill stroke"
       d="m 1693.2911,778.34521 v 32.68947 h 23.9727 v 49.03715 h -25.0625 v 15.2559 h 25.0625 70.83 v -15.2559 -49.03715 h 1.0899 v -32.68947 z"
       id="rect4903-6-7-0" />
    <circle
       style="display:inline;opacity:0.8;fill:#000000;fill-opacity:1;stroke:none;stroke-width:6;stroke-linecap:round;stroke-linejoin:round;stroke-miterlimit:4;stroke-dasharray:none;stroke-opacity:1;paint-order:markers fill stroke"
       id="path4779-2-1-6"
       cx="1794.1703"
       cy="825.38129"
       r="21.793777" />
    <rect
       style="opacity:0.8;fill:#000000;fill-opacity:1;stroke:none;stroke-width:6;stroke-linecap:round;stroke-linejoin:round;stroke-miterlimit:4;stroke-dasharray:none;stroke-opacity:1;paint-order:markers fill stroke"
       id="rect4903-2"
       width="184.15741"
       height="63.201954"
       x="1404.1694"
       y="642.28607" />
    <path
       inkscape:connector-curvature="0"
       style="opacity:0.8;fill:#000000;fill-opacity:0.69803922;stroke:none;stroke-width:6.10170221;stroke-linecap:round;stroke-linejoin:round;stroke-miterlimit:4;stroke-dasharray:none;stroke-opacity:1;paint-order:markers fill stroke"
       d="m 991.31567,877.87893 v 37.0508 h 76.27733 v 14.166 h 55.5742 v -14.166 -22.8848 -14.166 z"
       id="rect4745-3" />
    <path
       inkscape:connector-curvature="0"
       style="opacity:0.8;fill:#000000;fill-opacity:0.69803922;stroke:none;stroke-width:6.10170221;stroke-linecap:round;stroke-linejoin:round;stroke-miterlimit:4;stroke-dasharray:none;stroke-opacity:1;paint-order:markers fill stroke"
       d="m 1067.593,966.14653 v -37.0508 h -76.27733 v -14.166 h -55.5742 v 14.166 22.8848 14.166 z"
       id="rect4745-9-7" />
    <circle
       style="opacity:0.8;fill:#000000;fill-opacity:1;stroke:none;stroke-width:6;stroke-linecap:round;stroke-linejoin:round;stroke-miterlimit:4;stroke-dasharray:none;stroke-opacity:1;paint-order:markers fill stroke"
       id="path4779-5"
       cx="912.12732"
       cy="915.47375"
       r="21.793777" />
    <circle
       style="display:inline;opacity:0.8;fill:#000000;fill-opacity:1;stroke:none;stroke-width:6;stroke-linecap:round;stroke-linejoin:round;stroke-miterlimit:4;stroke-dasharray:none;stroke-opacity:1;paint-order:markers fill stroke"
       id="path4779-1-2-2-4"
       cx="1008.3967"
       cy="915.45593"
       r="21.793777" />
    <circle
       style="opacity:0.8;fill:#000000;fill-opacity:1;stroke:none;stroke-width:6;stroke-linecap:round;stroke-linejoin:round;stroke-miterlimit:4;stroke-dasharray:none;stroke-opacity:1;paint-order:markers fill stroke"
       id="path4779-1-2-7-3-3"
       cx="1545.829"
       cy="643.37579"
       r="21.793777" />
    <circle
       style="opacity:0.8;fill:#000000;fill-opacity:1;stroke:none;stroke-width:6;stroke-linecap:round;stroke-linejoin:round;stroke-miterlimit:4;stroke-dasharray:none;stroke-opacity:1;paint-order:markers fill stroke"
       id="path4779-1-2-7-3-6-6"
       cx="799.59589"
       cy="684.93347"
       r="21.793777" />
    <circle
       style="opacity:0.8;fill:#000000;fill-opacity:1;stroke:none;stroke-width:6;stroke-linecap:round;stroke-linejoin:round;stroke-miterlimit:4;stroke-dasharray:none;stroke-opacity:1;paint-order:markers fill stroke"
       id="path4779-1-2-7-3-6-0-1"
       cx="849.72162"
       cy="683.84381"
       r="21.793777" />
    <circle
       style="opacity:0.8;fill:#000000;fill-opacity:1;stroke:none;stroke-width:6;stroke-linecap:round;stroke-linejoin:round;stroke-miterlimit:4;stroke-dasharray:none;stroke-opacity:1;paint-order:markers fill stroke"
       id="path4779-1-2-1-9"
       cx="1865.9081"
       cy="825.65546"
       r="21.793777" />
    <rect
       style="opacity:0.8;fill:#000000;fill-opacity:1;stroke:none;stroke-width:6.26679564;stroke-linecap:round;stroke-linejoin:round;stroke-miterlimit:4;stroke-dasharray:none;stroke-opacity:1;paint-order:markers fill stroke"
       id="rect5157"
       width="23.010107"
       height="36.912048"
       x="1403.8645"
       y="668.68109" />
    <rect
       style="opacity:0.8;fill:#000000;fill-opacity:1;stroke:none;stroke-width:6;stroke-linecap:round;stroke-linejoin:round;stroke-miterlimit:4;stroke-dasharray:none;stroke-opacity:1;paint-order:markers fill stroke"
       id="rect4901-2"
       width="80.636971"
       height="81.726662"
       x="1346.4159"
       y="668.4386" />
    <circle
       style="display:inline;opacity:0.8;fill:#000000;fill-opacity:1;stroke:none;stroke-width:6;stroke-linecap:round;stroke-linejoin:round;stroke-miterlimit:4;stroke-dasharray:none;stroke-opacity:1;paint-order:markers fill stroke"
       id="path4779-1-2-7-0-9-8-3"
       cx="1480.4401"
       cy="645.50104"
       r="21.793777" />
    <text
       xml:space="preserve"
       style="font-style:normal;font-variant:normal;font-weight:normal;font-stretch:normal;font-size:154.52262878px;line-height:1;font-family:'Zilla Slab';-inkscape-font-specification:'Zilla Slab';text-align:end;letter-spacing:0px;word-spacing:0px;text-anchor:end;fill:#ffffff;fill-opacity:1;stroke:none;stroke-width:10.53563309;"
       x="1103.6072"
       y="848.67059"
       id="text5254"><tspan
         sodipodi:role="line"
         id="tspan5252"
         x="1103.6072"
         y="848.67059"
         style="font-style:normal;font-variant:normal;font-weight:normal;font-stretch:normal;font-family:'Zilla Slab';-inkscape-font-specification:'Zilla Slab';stroke-width:10.53563309;fill:#ffffff;">centroamerica</tspan></text>
    <g
       id="g4647"
       style="fill:#000000;fill-opacity:1"
       transform="translate(-54.496495,-152.04025)">
      <path
         style="color:#000000;font-style:normal;font-variant:normal;font-weight:normal;font-stretch:normal;font-size:medium;line-height:normal;font-family:sans-serif;font-variant-ligatures:normal;font-variant-position:normal;font-variant-caps:normal;font-variant-numeric:normal;font-variant-alternates:normal;font-feature-settings:normal;text-indent:0;text-align:start;text-decoration:none;text-decoration-line:none;text-decoration-style:solid;text-decoration-color:#000000;letter-spacing:normal;word-spacing:normal;text-transform:none;writing-mode:lr-tb;direction:ltr;text-orientation:mixed;dominant-baseline:auto;baseline-shift:baseline;text-anchor:start;white-space:normal;shape-padding:0;clip-rule:nonzero;display:inline;overflow:visible;visibility:visible;opacity:1;isolation:auto;mix-blend-mode:normal;color-interpolation:sRGB;color-interpolation-filters:linearRGB;solid-color:#000000;solid-opacity:1;vector-effect:none;fill:#000000;fill-opacity:1;fill-rule:nonzero;stroke:none;stroke-width:14;stroke-linecap:round;stroke-linejoin:round;stroke-miterlimit:4;stroke-dasharray:none;stroke-dashoffset:0;stroke-opacity:1;paint-order:markers fill stroke;color-rendering:auto;image-rendering:auto;shape-rendering:auto;text-rendering:auto;enable-background:accumulate"
         d="m 1262.8887,995.20117 c -2.6883,0.0126 -5.2857,0.3373 -7.9903,2.27149 -1.3522,0.96709 -2.7584,2.53114 -3.4277,4.62694 -0.405,1.2684 -0.3944,2.5856 -0.2227,3.8457 -1.4356,1.78 -3.4532,4.8102 -3.1777,8.6856 0.3701,5.2067 -0.08,7.4057 -2.2734,11.6132 l -3.6426,6.9864 a 7.0007,7.0007 0 0 0 -0.1191,6.2285 l 4.2226,8.9277 c 2.8658,6.0579 7.967,12.3511 13.2266,17.8321 2.6298,2.7404 5.2652,5.1914 7.8086,7.1367 2.5434,1.9452 4.0879,4.0429 9.2871,4.0429 -0.4568,0 3.0627,0.8216 5.6601,2.3086 2.5975,1.487 4.8401,4.3631 4.168,2.9766 0.38,0.7839 0.7209,1.4585 1.1953,2.2109 0.4744,0.7524 0.3818,1.7775 3.5039,3.2461 1.5611,0.7343 4.9948,0.8581 7.0508,-0.5097 2.056,-1.3678 2.5344,-2.807 2.8438,-3.6582 0.6186,-1.7026 0.5285,-2.3708 0.5625,-3.168 -0.066,1.5455 -0.2084,0.9698 0.078,0.498 0.2865,-0.4717 0.8208,-1.1231 1.166,-1.4355 0.8537,-0.7726 1.5712,-1.3915 2.4102,-2.3301 0.6461,-0.7229 1.6609,-1.8447 2.1464,-3.7305 3.196,2.3785 7.0283,5.5916 10.3594,8.8555 2.1134,2.0708 3.2201,3.5244 3.5274,4.0469 -0.3634,2.0773 -0.3297,4.4343 0.5918,6.4648 1.1278,2.4853 2.9231,4.1702 4.8027,5.5 3.7592,2.6596 8.4123,4.4164 15.1074,6.5762 2.1833,0.7044 4.1929,1.5258 5.377,2.1152 0.049,0.025 0.029,0.017 0.076,0.041 0.8064,1.2371 1.8496,2.1664 2.7793,2.7364 1.087,0.6664 2.1716,1.0112 3.2657,1.2285 0.089,0.098 0.1959,0.2592 0.2832,0.3516 0.7347,0.7779 1.4598,1.4087 2.2949,2.0878 1.6701,1.3584 3.7292,2.8173 6.0176,4.2637 3.9891,2.5216 6.3066,5.2346 6.9961,6.6543 0.6894,1.4197 0.6132,0.4959 0.332,0.8067 -2.965,3.2768 -4.7005,7.7201 -3.9375,12.1816 0.763,4.462 4.117,8.2344 8.207,10.0352 -0.8186,-0.3605 2.5532,2.3085 3.3008,3.5742 1.1507,1.9479 2.4904,3.6006 4.0605,5.0215 1.5702,1.4208 2.8841,3.2226 7.2754,3.2226 2.9116,0 6.1279,-1.8377 7.6133,-4.0351 1.0629,-1.5724 1.4268,-3.0944 1.5977,-4.5645 0.4879,1.9874 0.9899,4.0788 1.5234,5.6113 a 7.0007,7.0007 0 0 0 0.7656,1.5332 c 0.2062,0.4524 0.2197,0.7481 0.7051,1.4121 0.5062,0.6926 1.2942,1.6563 2.877,2.4161 1.5827,0.7597 3.9953,0.872 5.5957,0.3164 3.2008,-1.1113 3.6596,-2.6006 4.2207,-3.4707 0.561,-0.8702 0.9058,-1.5908 1.289,-2.4102 -0.5457,1.1668 2.2657,-2.3478 3.8106,-3.2344 3.4218,-1.9638 7.0356,-4.4531 8.125,-9.3066 1.0256,-4.5695 -0.8894,-8.1856 -3.002,-11.2891 1.2138,-0.4553 2.4179,-1.0333 3.5821,-2.0547 1.6939,-1.4862 3.2097,-4.2179 3.1582,-6.9707 -0.096,-5.1392 -3.2935,-7.558 -6.3379,-9.2636 -0.1345,-0.6889 -0.375,-2.8928 -0.375,-7.1758 0,-5.2927 0.7424,-9.1768 1.6836,-11.4121 0.9411,-2.2353 1.6441,-2.7223 2.6113,-3.0801 1.5216,-0.5629 4.7147,-2.313 5.5762,-5.9805 0.8614,-3.6675 -0.5951,-5.8269 -1.5723,-7.3652 -1.9544,-3.0767 -4.6479,-5.7901 -9.4219,-10.707 -2.9722,-3.0612 -5.6823,-6.0209 -7.5664,-8.2168 -0.859,-1.0013 -1.4822,-1.7823 -1.8965,-2.3282 0.1572,0.3709 0.3145,0.9339 0.3145,2.4532 0,-1.2725 -0.1795,-1.9769 -0.3828,-2.5352 -0.024,-0.032 -0.093,-0.113 -0.1153,-0.1426 -0.1969,-0.2656 -0.3101,-0.4497 -0.2519,-0.3515 0.024,0.04 0.1789,0.07 0.3242,0.2226 -0.2341,-0.5569 -0.5133,-0.8508 -0.6992,-1.1699 -0.3737,-0.6415 -0.7001,-1.0727 -1.041,-1.5078 -0.682,-0.8702 -1.4286,-1.6906 -2.3086,-2.6035 -1.76,-1.8259 -4.0154,-3.9425 -6.5156,-6.0957 -2.0975,-1.8064 -4.0414,-3.7624 -5.293,-5.2266 -0.5368,-0.6279 -0.8563,-1.0773 -1.0606,-1.3769 0.1063,0.2818 0.2246,0.7072 0.2246,1.8945 0,-0.9529 -0.2043,-1.351 -0.3105,-2.0059 -0.014,-0.022 -0.078,-0.099 -0.09,-0.1172 -0.037,-0.059 0.042,0 0.068,-0.025 -0.3431,-1.945 -0.9547,-3.1909 -1.6816,-4.6738 -0.9824,-2.004 -2.2305,-4.1332 -3.6582,-6.1933 -1.5378,-2.219 -3.9166,-8.3705 -4.1758,-10.3028 -0.3104,-2.3137 -0.7639,-4.389 -1.4238,-6.289 -0.33,-0.95 -0.6668,-1.8392 -1.3789,-2.959 -0.3561,-0.5599 -0.7911,-1.2022 -1.6895,-1.9707 -0.8984,-0.7686 -2.5263,-1.8223 -4.8672,-1.8223 -3.0984,0 -5.3901,1.643 -6.8379,3.8125 -0.5907,0.2147 -0.9455,0.4773 -1.4062,0.6777 -0.9318,0.4054 -1.8002,0.8352 -2.7305,1.2793 -1.8606,0.8883 -3.9323,1.8134 -5.7949,2.3497 -3.0854,0.8883 -1.9275,0.7308 -4.3008,-0.4395 -2.3733,-1.1703 -7.207,-3.6692 -14.5801,-4.1992 -0.4225,-0.03 -4.97,-1.426 -8.7597,-3.0469 -1.8949,-0.8104 -3.7424,-1.6357 -5.4043,-2.3164 -0.831,-0.3404 -1.6089,-0.6441 -2.4336,-0.9141 -0.8248,-0.2699 -1.4417,-0.6269 -3.4258,-0.6269 -3.0659,0 -4.581,1.0735 -5.8867,2.1504 -0.667,-0.4572 -1.2906,-0.898 -2.0645,-1.377 -1.2374,-0.7658 -1.7814,-2.0607 -6.0019,-2.041 v 0 c -2.4614,0.011 -3.9815,0.4138 -6.4336,0.8027 -2.4528,0.3891 -5.3218,0.828 -8.1836,1.1036 -5.7235,0.551 -11.3807,-0.5062 -11.7988,-0.8086 -6.1818,-4.47277 -12.3226,-6.42561 -17.6992,-6.40043 z m 2.166,14.42773 c 1.9241,0.3984 4.4026,1.1992 7.3262,3.3145 6.8922,4.9868 14.5846,4.0535 21.3476,3.4023 3.3815,-0.3256 6.5403,-0.8172 9.0352,-1.2129 1.8522,-0.2937 2.6272,-0.3814 3.1972,-0.4668 0.6577,0.4228 1.5108,1.0103 2.5176,1.6895 1.1358,0.7661 2.2649,1.5703 4,2.3222 0.8676,0.376 1.878,0.857 3.8399,0.8555 1.6406,0 4.3082,-1.1628 5.9218,-2.9512 1.269,0.5336 2.7445,1.1772 4.4766,1.918 4.028,1.7228 8.1324,3.7719 13.2617,4.1406 5.1221,0.3683 6.4686,1.3493 9.3926,2.791 2.924,1.4418 8.4955,3.0266 14.3672,1.336 3.2136,-0.9253 5.9446,-2.2101 7.9512,-3.168 0.4563,-0.2178 0.6737,-0.3165 1.039,-0.4902 1.0984,4.744 3.1847,9.4375 5.9336,13.4043 1.0065,1.4523 1.9718,3.1121 2.5938,4.3808 0.6219,1.2688 0.5839,3.1317 0.5839,0.6602 0,3.456 1.04,4.2044 1.754,5.3379 0.7139,1.1335 1.5138,2.1594 2.4394,3.2422 1.8512,2.1655 4.1886,4.4904 6.7988,6.7382 2.2075,1.9011 4.2314,3.8101 5.5742,5.2032 0.4654,0.4827 0.6906,0.7564 0.9473,1.0547 0.2761,0.7313 0.6045,1.074 0.8106,1.4218 0.3558,0.6008 0.6807,1.0562 1.0488,1.5528 0.7361,0.9931 1.6285,2.0795 2.7031,3.332 2.1492,2.5049 4.9993,5.614 8.1465,8.8555 2.8068,2.8908 3.3242,3.6174 4.6055,5.0918 -1.9752,1.9391 -3.5765,4.2843 -4.6582,6.8535 -2.024,4.8068 -2.7793,10.366 -2.7793,16.8457 0,4.8218 -10e-5,7.9372 0.8633,11.2051 0.3951,1.4958 1.2599,2.9914 2.2851,4.3203 -1.6516,1.4609 -2.9498,3.3307 -3.5547,5.4941 -1.2041,4.3065 0.1853,8.5363 2.5293,11.8828 0.2592,0.37 0.2122,0.3551 0.3594,0.6055 -0.244,0.1681 -0.1987,0.1789 -0.6016,0.4102 -0.7298,0.4188 -1.2862,0.927 -1.9609,1.3554 -1.7466,-3.6357 -4.5396,-5.8363 -7.4688,-8.1347 -3.7827,-2.9683 -7.3684,-5.7715 -13.375,-5.7715 -2.2985,0 -4.6606,1.1342 -6.416,2.6875 1.6228,-4.0398 1.3344,-8.8464 -0.4531,-12.5274 -2.3966,-4.9352 -6.6083,-8.8938 -12.1094,-12.3711 -1.8704,-1.1822 -3.5931,-2.42 -4.664,-3.291 -0.3341,-0.2716 -0.4261,-0.3687 -0.5938,-0.5234 -0.9421,-1.7617 -2.3797,-2.9635 -3.5019,-3.5625 -0.9736,-0.5196 -1.9054,-0.8118 -2.834,-0.9942 -0.516,-0.5472 -0.9926,-0.9831 -1.4063,-1.2871 -1.0042,-0.738 -1.9201,-1.2338 -2.957,-1.75 -2.0739,-1.0323 -4.5587,-2.0159 -7.3184,-2.9062 -5.8567,-1.8894 -9.4668,-3.5512 -10.9101,-4.4746 0.2397,-2.6472 -0.4453,-5.4454 -1.6055,-7.5098 -1.4697,-2.6151 -3.4237,-4.7416 -6.0137,-7.2793 -3.9592,-3.8793 -8.3182,-7.5615 -12.1875,-10.4101 -1.9346,-1.4244 -3.729,-2.6354 -5.4355,-3.6036 -1.1703,-0.6639 -2.2848,-1.2667 -3.9043,-1.666 -0.4707,-0.4419 -1.2048,-1.2407 -1.8262,-2.0937 -1.3478,-1.8504 -2.8199,-3.3665 -4.7109,-4.6035 -0.9455,-0.6185 -1.9925,-1.2 -3.5254,-1.5625 -1.5329,-0.3626 -3.9498,-0.4914 -6.2774,0.9472 -3.7498,2.3176 -4.2564,6.1107 -4.2304,8.4278 0.026,2.317 0.5395,4.2739 1.25,6.2363 0.3218,0.8889 0.8523,1.7222 1.2519,2.5937 -3.4152,-1.9005 -6.7941,-3.5293 -11.3476,-3.5293 2.9446,0 0.9122,0.1312 -0.7813,-1.164 -1.6935,-1.2953 -3.9554,-3.3565 -6.2129,-5.709 -4.5149,-4.705 -9.1553,-10.9152 -10.6738,-14.125 l -2.7344,-5.7832 2.0332,-3.9024 c 2.9621,-5.6828 4.1594,-11.6167 3.8321,-18.1855 0.6094,-0.556 1.9203,-1.612 2.8691,-3.9512 0.1179,-0.2906 0.061,-0.6409 0.1426,-0.9492 z m 38.4043,46.9219 c 1.4396,0 2.0353,0.2029 2.3828,0.4043 -0.7178,-0.1635 -1.2367,-0.4043 -2.3828,-0.4043 z m 95.5,3.8965 c 0,1.3986 0.1856,1.921 0.3613,2.4609 -0.1889,-0.3987 -0.3613,-1.0774 -0.3613,-2.4609 z m -99.8262,16.375 c 0.3209,0.3716 0.3026,0.5898 0.3125,0.6054 0.013,0.021 -0.1616,-0.3135 -0.3125,-0.6054 z m 60.3008,24.0566 c 0.2598,0.6357 0.457,1.3388 0.457,2.1836 0,-0.9591 -0.2513,-1.5369 -0.457,-2.1836 z m 5.1523,2.5234 c 0.2351,0.5051 0.4414,1.2696 0.4414,2.6055 0,-0.9709 -0.17,-1.8343 -0.4414,-2.6055 z m -18.1211,2.4903 c 0.015,0.038 0.038,0.068 0.053,0.1054 -0.02,-0.039 -0.033,-0.064 -0.053,-0.1054 z m 4.5625,0.1152 c 0,1.0089 0.1895,1.5556 0.3614,2.1328 -0.2196,-0.6124 -0.3614,-1.3156 -0.3614,-2.1328 z m 39.0743,39.8379 c 0.3572,0.1659 0.2983,0.3047 0.098,0.1231 -0.025,-0.022 -0.07,-0.097 -0.098,-0.1231 z m -6.6153,3.5215 c 0.011,0.01 0.017,0.02 0.027,0.029 -0.2405,-0.1996 -0.032,0.2945 -0.035,-0.01 0,0 0.01,-0.019 0.01,-0.022 z"
         id="path4685"
         inkscape:connector-curvature="0" />
      <path
         style="color:#000000;font-style:normal;font-variant:normal;font-weight:normal;font-stretch:normal;font-size:medium;line-height:normal;font-family:sans-serif;font-variant-ligatures:normal;font-variant-position:normal;font-variant-caps:normal;font-variant-numeric:normal;font-variant-alternates:normal;font-feature-settings:normal;text-indent:0;text-align:start;text-decoration:none;text-decoration-line:none;text-decoration-style:solid;text-decoration-color:#000000;letter-spacing:normal;word-spacing:normal;text-transform:none;writing-mode:lr-tb;direction:ltr;text-orientation:mixed;dominant-baseline:auto;baseline-shift:baseline;text-anchor:start;white-space:normal;shape-padding:0;clip-rule:nonzero;display:inline;overflow:visible;visibility:visible;opacity:1;isolation:auto;mix-blend-mode:normal;color-interpolation:sRGB;color-interpolation-filters:linearRGB;solid-color:#000000;solid-opacity:1;vector-effect:none;fill:#000000;fill-opacity:1;fill-rule:nonzero;stroke:none;stroke-width:14;stroke-linecap:round;stroke-linejoin:round;stroke-miterlimit:4;stroke-dasharray:none;stroke-dashoffset:0;stroke-opacity:1;paint-order:markers fill stroke;color-rendering:auto;image-rendering:auto;shape-rendering:auto;text-rendering:auto;enable-background:accumulate"
         d="m 1031.4688,780.54297 c -1.5581,-0.0703 -3.1199,0.0128 -4.7383,0.32617 -1.6185,0.31335 -3.4146,0.8434 -5.2325,2.35352 -1.8178,1.51011 -3.2949,4.42511 -3.2949,7.0039 0,-1.69744 -0.9237,2.39558 -2.5566,4.84375 -0.7869,1.17969 -1.6358,2.20449 -2.1758,2.75391 -1.109,0.22478 -2.207,0.58342 -3.2949,1.27539 -0.9769,0.62136 -2.0313,1.65614 -2.8184,2.99609 -0.414,0.22265 -0.8643,0.477 -1.541,0.71289 -5.0775,1.77006 -8.086,5.13824 -10.99804,8.81446 -2.91204,3.67621 -5.69236,6.96798 -5.71094,12.93945 -0.0102,3.26804 1.17734,4.40253 1.94922,5.44531 0.77188,1.04279 1.55714,1.83981 2.41797,2.64453 1.72166,1.60945 3.75383,3.16558 5.9707,4.6875 4.43379,3.04384 8.78899,5.86878 13.99219,7.00586 3.0356,0.66342 10.4297,3.0567 18.6641,6.23047 4.9214,1.89686 10.2757,3.63364 15.0312,4.93945 4.7555,1.30582 8.3532,2.2642 12.0977,2.31055 0.1556,0.002 3.5887,1.21559 3.623,1.24219 4.3572,3.37978 10.1867,3.88684 17.0723,3.0957 4.2627,-0.48976 12.2289,-0.94579 16.7597,-0.95312 3.6297,-0.006 6.1342,-0.016 8.9805,-0.83399 1.4232,-0.40897 3.1465,-1.10067 4.6895,-2.76757 0.4829,-0.52173 0.7534,-1.2046 1.084,-1.84766 3.7764,-0.70196 7.9402,-3.47194 9.4863,-6.99219 1.7793,-4.05141 1.9616,-8.1543 1.9824,-13.72461 0.035,-9.43903 -3.7561,-17.84877 -10.9062,-23.13867 -2.2736,-1.68203 -5.3349,-3.45289 -8.8145,-3.76953 -3.4796,-0.31664 -6.4118,0.33441 -10.873,1.25586 -7.5327,1.55585 -11.5663,1.86806 -12.7383,1.66211 -1.1721,-0.20596 -1.0865,-0.10896 -3.375,-3.10938 -3.3162,-4.3478 -8.113,-8.79842 -12.6895,-11.73437 -3.0993,-1.98838 -7.6313,-5.43362 -8.7226,-6.44727 -5.2738,-4.89826 -12.1796,-7.41784 -18.6016,-8.625 -1.6055,-0.30179 -3.1607,-0.52541 -4.7187,-0.5957 z m 0.1015,14.2168 c 0.7443,0.0316 1.0222,-0.0526 2.0293,0.13671 4.1757,0.78492 9.682,3.28589 11.6621,5.125 2.6749,2.48435 6.8774,5.52901 10.6895,7.97461 2.3351,1.49805 7.3522,6.12542 9.1172,8.43946 2.8787,3.77432 6.837,7.4862 12.0839,8.4082 5.247,0.922 10.1798,-0.12619 17.9942,-1.74023 4.2516,-0.87815 6.3737,-1.06159 6.7715,-1.0254 0.3978,0.0362 0.036,-0.19202 1.7578,1.08204 4.1523,3.072 5.2585,5.27292 5.2344,11.83203 -0.015,3.92523 -0.3858,6.15127 -0.627,7.22265 -1.7246,0.14608 -3.4717,0.50487 -5.2422,1.61914 -1.1155,0.70208 -2.1872,1.84059 -2.9941,3.18555 -0.8172,0.085 -1.2688,0.18791 -3.3848,0.19141 -5.3553,0.009 -13.1813,0.45292 -18.334,1.04492 -5.7174,0.65692 -6.2105,0.28056 -6.8945,-0.25 -3.7319,-2.89468 -7.3419,-4.11976 -12.0293,-4.17774 -0.1982,-0.002 -4.2879,-0.6382 -8.5645,-1.8125 -4.2765,-1.17429 -9.2985,-2.80353 -13.705,-4.50195 -8.5867,-3.30957 -15.8419,-5.78202 -20.709,-6.8457 -0.4212,-0.092 -5.4824,-2.41533 -9.0567,-4.86914 -1.341,-0.92064 -2.321,-1.74768 -3.2519,-2.53125 0.4283,-0.91589 0.9066,-1.98021 1.6758,-2.95117 1.8824,-2.37637 4.8748,-4.37344 4.6328,-4.28907 1.889,-0.65852 3.5623,-1.44009 5.1172,-2.45312 0.7774,-0.50652 1.5265,-1.04298 2.3691,-1.9375 0.089,-0.0946 0.21,-0.2854 0.3106,-0.39063 2.786,-0.62274 3.8201,-2.18469 5.0195,-3.37304 1.5187,-1.50478 2.8265,-3.19976 4.0508,-5.03516 1.7212,-2.58057 3.4029,-4.90936 4.2773,-8.07812 z m -18.1387,3.11328 c -0.01,0.0105 -0.033,0.0446 -0.043,0.0547 -0.3118,0.30887 -0.3945,0.14866 0.043,-0.0547 z m -6.5058,5.1289 c -0.032,0.0737 -0.072,0.13955 -0.1016,0.21485 0.042,-0.0808 0.058,-0.1445 0.1016,-0.21485 z"
         id="path4780"
         inkscape:connector-curvature="0" />
      <path
         style="color:#000000;font-style:normal;font-variant:normal;font-weight:normal;font-stretch:normal;font-size:medium;line-height:normal;font-family:sans-serif;font-variant-ligatures:normal;font-variant-position:normal;font-variant-caps:normal;font-variant-numeric:normal;font-variant-alternates:normal;font-feature-settings:normal;text-indent:0;text-align:start;text-decoration:none;text-decoration-line:none;text-decoration-style:solid;text-decoration-color:#000000;letter-spacing:normal;word-spacing:normal;text-transform:none;writing-mode:lr-tb;direction:ltr;text-orientation:mixed;dominant-baseline:auto;baseline-shift:baseline;text-anchor:start;white-space:normal;shape-padding:0;clip-rule:nonzero;display:inline;overflow:visible;visibility:visible;opacity:1;isolation:auto;mix-blend-mode:normal;color-interpolation:sRGB;color-interpolation-filters:linearRGB;solid-color:#000000;solid-opacity:1;vector-effect:none;fill:#000000;fill-opacity:1;fill-rule:nonzero;stroke:none;stroke-width:14;stroke-linecap:round;stroke-linejoin:round;stroke-miterlimit:4;stroke-dasharray:none;stroke-dashoffset:0;stroke-opacity:1;paint-order:markers fill stroke;color-rendering:auto;image-rendering:auto;shape-rendering:auto;text-rendering:auto;enable-background:accumulate"
         d="m 932.59961,566.45508 a 7.0007,7.0007 0 0 0 -7,7 v 13.62304 6.88086 l -6.53125,0.2461 -13.26563,0.5 a 7.0007,7.0007 0 0 0 -3.76171,12.72265 l 8.52929,5.99219 c 11.53711,8.1056 21.56505,17.80876 28.51367,26.99805 6.94863,9.18929 10.48243,18.02509 10.48243,22.78125 v 0.83203 h -15.89649 c -14.53652,0 -22.52733,0.0109 -28.86328,1.37109 -6.33595,1.36019 -10.91113,5.41691 -13.83984,9.49024 -2.24153,3.11756 -5.41981,7.13155 -5.9043,7.66211 -1.09024,1.19387 -1.89687,2.40413 -2.57227,3.72265 -0.28093,0.54845 -0.55102,1.09993 -0.79296,1.71094 -0.13084,0.15247 -0.36458,0.35051 -0.48243,0.46094 -0.67389,0.63147 -1.06202,1.12757 -1.45898,1.65039 -0.79393,1.04564 -1.51,2.17448 -2.30469,3.51562 -1.58937,2.68229 -3.397,6.14003 -5.1914,9.96289 -3.4182,7.28227 -7.26947,15.41908 -8.46289,17.88477 -0.87991,1.81797 -1.49609,3.55665 -1.81055,5.48633 -0.15723,0.96484 -0.27656,1.96577 -0.0742,3.38867 0.16897,1.18825 0.69364,3.1148 2.46875,4.73438 -0.0307,-0.0461 0.0832,0.12252 0.0391,0.76171 -0.0937,1.35703 -0.80464,3.50989 -1.88672,4.97657 -3.33417,4.51921 -5.4082,9.58 -5.4082,15.29297 0,2.70448 -0.45279,5.26047 2.06641,8.74218 1.25959,1.74086 3.39715,2.99491 5.02539,3.45118 1.62823,0.45626 2.85083,0.46484 4.00195,0.46484 -1.74903,0 -0.0417,0.0538 1.69336,1.10937 1.73507,1.05555 4.01274,2.75223 6.28906,4.79883 2.49414,2.24245 4.9371,4.26674 7.01563,5.83008 1.03926,0.78167 1.9708,1.44298 2.91015,2.02148 0.46968,0.28926 0.92997,0.55833 1.55274,0.84571 0.33361,0.15395 0.69466,0.35915 1.25781,0.52929 0.33579,0.23063 0.75863,0.52609 1.38086,1.01954 1.52795,1.2117 3.61008,3.02867 5.67773,5.00976 3.45779,3.31305 6.09873,5.66251 9.29688,7.36133 3.19815,1.69882 6.79054,2.28906 10.04687,2.28906 1.89479,0 7.43878,1.30901 8.96875,2.07227 5.8188,2.90282 13.2684,3.75164 21.48047,4.11523 6.63187,0.29366 16.8992,1.63438 21.12696,2.64844 5.33593,1.27987 9.49972,2.66827 14.64062,0.25781 2.57045,-1.20522 4.46572,-3.42869 5.58203,-5.44922 1.11631,-2.02052 1.77449,-4.0028 2.48438,-6.27929 -0.86636,2.77822 -0.37479,0.83882 0.92773,-0.25196 1.30252,-1.09077 3.2191,-2.45799 5.125,-3.64648 1.90591,-1.18849 3.86592,-2.22587 5.04496,-2.7207 0.5151,-0.21621 0.7487,-0.26472 0.6641,-0.25391 0.5237,0.0362 1.1308,0.20237 1.541,0.12305 1.7324,-0.33499 2.5002,-0.9553 3.0508,-1.37305 1.1011,-0.83551 1.401,-1.32497 1.7578,-1.79492 0.7134,-0.9399 1.1969,-1.7736 1.7636,-2.79297 1.1335,-2.03874 2.4031,-4.66522 3.7071,-7.67188 2.0468,-4.71959 7.0144,-11.66415 8.6582,-13.10742 2.9013,-2.5474 5.4264,-4.60035 6.8672,-8.39453 1.4407,-3.79418 0.889,-7.03667 0.375,-10.78711 -0.2992,-2.18244 -0.3345,-3.3579 -0.291,-3.67187 0.043,-0.31398 -0.1218,-0.15757 0.621,-1.03907 1.4857,-1.76298 6.9609,-5.97858 17.8067,-13.58984 10.025,-7.03527 16.3644,-11.7801 20.7168,-16.1875 4.3524,-4.4074 6.8808,-9.58559 6.8808,-14.4707 0,-4.16212 -0.6979,-8.2982 -4.8789,-11.3125 -2.0905,-1.50716 -5.3928,-2.14962 -8.0156,-1.3711 -1.7425,0.51722 -3.0155,1.47077 -4.1191,2.52735 -0.4665,-0.0228 -1.0528,-0.0439 -1.9707,-0.28711 -2.3562,-0.62416 -5.2242,-2.33901 -5.916,-3.10352 -2.3915,-2.64261 -4.5245,-3.54072 -7.295,-4.88086 -2.7704,-1.34014 -5.9351,-2.58492 -9.1425,-3.53711 l -5.0235,-1.49023 0.8906,-32.29492 c 0.5701,-20.65865 1.4898,-44.15084 1.9942,-51.50391 l 0.9687,-14.12305 a 7.0007,7.0007 0 0 0 -6.9824,-7.47851 h -46.37503 z m 7,14 h 39.375 38.87699 l -0.4551,6.64258 c -0.5613,8.18228 -1.4482,31.30227 -2.0215,52.07812 l -1.0391,37.66797 a 7.0007,7.0007 0 0 0 5.0059,6.90234 l 10.1758,3.02149 c 2.3898,0.70946 5.0028,1.73754 7.0312,2.71875 2.0285,0.98121 3.7177,2.45409 3.0098,1.67187 3.6019,3.98008 8.155,6.03531 12.7109,7.24219 2.0785,0.5506 4.1639,0.84716 6.377,0.78516 -0.2867,0.30636 -0.2679,0.37239 -0.6504,0.75976 -2.9915,3.02927 -8.9605,7.661 -18.7949,14.5625 -10.8783,7.63407 -16.5514,11.37814 -20.4707,16.0293 -1.9597,2.32558 -3.3904,5.30318 -3.7832,8.14062 -0.3928,2.83744 -0.035,5.14411 0.2871,7.49219 0.4786,3.49222 0.2725,4.27019 0.4062,3.91797 0.1338,-0.35222 -0.2998,0.45901 -3.0136,2.8418 -5.0165,4.40455 -9.3277,11.27964 -12.2676,18.05859 -1.02647,2.36682 -1.97498,4.26546 -2.74026,5.69922 -0.77905,0.22877 -1.59791,0.42501 -2.31641,0.72656 -2.2915,0.96175 -4.65626,2.26778 -7.0332,3.75 -2.37694,1.48222 -4.70289,3.11299 -6.70898,4.79297 -2.0061,1.67998 -3.88857,2.28145 -5.30274,6.81641 a 7.0007,7.0007 0 0 0 0,0.002 c -0.47664,1.52853 -0.79357,2.2388 -1.06836,2.85938 -0.88129,-0.0831 -2.52452,-0.2403 -5.00781,-0.83594 a 7.0007,7.0007 0 0 0 -0.82031,-0.14063 c -6.16545,-1.39777 -15.52563,-2.55197 -22.95313,-2.88086 -6.88364,-0.30477 -15.1505,-2.30651 -15.85156,-2.65625 -4.66308,-2.32626 -10.00308,-3.54492 -15.2168,-3.54492 -2.07029,0 -2.41393,-0.0869 -3.47851,-0.65234 -1.06458,-0.56549 -3.01036,-2.0688 -6.17969,-5.10547 -2.35439,-2.25582 -4.67067,-4.29029 -6.66406,-5.87109 -0.9967,-0.79041 -1.89624,-1.4619 -2.82422,-2.0586 -0.46399,-0.29835 -0.92371,-0.58027 -1.55859,-0.88281 -0.35279,-0.16811 -0.77123,-0.38433 -1.39258,-0.56445 -0.36435,-0.23473 -0.89291,-0.59198 -1.60938,-1.13086 -1.63424,-1.22918 -3.85199,-3.05631 -6.07031,-5.05078 -2.83417,-2.54815 -5.6669,-4.70211 -8.375,-6.34961 -1.91771,-1.16666 -3.54527,-2.23277 -5.80273,-2.77149 0.32577,-1.49161 1.29834,-4.50336 2.41406,-6.01562 2.80405,-3.80071 4.29376,-8.06233 4.58789,-12.32422 0.20098,-2.91209 -0.207,-6.28192 -2.02149,-9.14258 0.02,-0.0436 0.0121,-0.0502 0.0332,-0.0937 1.30489,-2.69599 5.10125,-10.72358 8.5332,-18.03516 1.63067,-3.47404 3.30409,-6.64835 4.56445,-8.77539 0.47201,-0.79658 0.77544,-1.22867 1.05664,-1.63672 2.78356,-1.58108 4.53907,-4.58056 4.53907,-7.66211 0,1.72295 -0.24288,1.40285 -0.14258,1.20704 0.1003,-0.19582 0.36449,-0.57109 0.45117,-0.66602 1.86935,-2.0471 4.46742,-5.49774 6.93359,-8.92773 2.36051,-3.28305 1.80509,-3.20026 5.41211,-3.97461 3.60703,-0.77435 11.48247,-1.06055 25.92383,-1.06055 h 22.89649 a 7.0007,7.0007 0 0 0 7,-7 v -7.83203 c 0,-10.26644 -5.33539,-20.67261 -13.31446,-31.22461 -6.26998,-8.29181 -14.42437,-16.54258 -23.77148,-24.03906 l 6.38281,-0.24024 a 7.0007,7.0007 0 0 0 6.73633,-6.99414 V 587.07812 Z M 889.9707,699.53125 c -0.55865,0.3937 -1.53097,0.75586 -3.51367,0.75586 1.28754,0 2.46644,-0.27817 3.51367,-0.75586 z m -17.0957,24.56641 c 0.75087,0.46407 1.25655,0.97348 1.66602,1.48437 -0.53976,-0.50332 -0.97305,-1.0561 -1.66602,-1.48437 z m 18.24805,46.07031 c 1.21214,0 1.71504,0.12685 2.00781,0.25781 -0.48963,-0.13246 -1.0348,-0.25781 -2.00781,-0.25781 z m -2.00586,13.75 c 0.47885,0.12936 1.02085,0.25 2.00586,0.25 -1.12916,0 -1.67602,-0.11956 -2.00586,-0.25 z m 107.42383,4.32226 c 1.16452,1.16442 3.04993,1.67278 4.71288,1.81641 -0.4638,0.14615 -2.12149,0.775 -4.71288,-1.81641 z"
         id="path4782"
         inkscape:connector-curvature="0" />
      <g
         transform="matrix(1.3899483,0,0,1.3899483,929.41643,517.01074)"
         style="fill:#000000;fill-opacity:1"
         id="g5940">
        <path
           inkscape:connector-curvature="0"
           id="path4778"
           transform="matrix(0.71945122,0,0,0.71945122,-629.46221,-262.57846)"
           d="m 1403.8164,927.78711 c -2.0854,-0.0163 -3.7966,0.39777 -5.6055,0.93164 -4.1345,1.22029 -8.2963,2.79726 -11.7363,7.08008 -3.7645,4.68689 -4.5107,10.40892 -4.5391,17.38867 -0.017,4.24408 -0.01,7.37378 1.1836,10.76172 0.8576,2.43516 2.4165,4.32179 4.0762,5.98828 -0.6275,0.42491 -1.5519,1.11803 -1.8066,1.26562 -0.7632,0.44231 -1.566,0.91552 -2.5429,1.86524 -0.977,0.94974 -2.2586,2.72111 -2.5254,4.99609 -0.2669,2.27497 0.5382,4.21787 1.2265,5.34961 0.6884,1.13175 1.3298,1.79047 1.9512,2.41797 v 0 c -0.7829,-0.79062 0.082,0.38101 0.039,1.72656 -0.01,0.25195 -0.096,0.36281 -0.1504,0.57813 -2.1907,0.53229 -2.7834,1.28568 -3.3418,1.78125 -1.2854,1.1408 -2.0475,2.16499 -2.9785,3.49414 -2.7463,3.92109 -4.1283,8.33729 -2.4941,13.48629 0.2883,0.9087 0.5139,1.7286 1.1425,2.9434 0.6287,1.2148 2.2634,3.6881 5.5352,4.3574 3.2718,0.6693 5.295,-0.6967 6.3477,-1.4043 1.0516,-0.7068 1.6885,-1.3064 2.4355,-1.9824 -0.2013,0.2087 2.7481,-1.0132 2.6309,-1.0098 3.4169,-0.099 6.6695,-0.6728 9.9003,-1.9375 -1.1795,0.4598 -0.5214,0.1168 0.545,0.2051 1.085,0.09 2.7036,0.3568 4.4883,0.7852 3.5693,0.8567 7.8744,2.3656 11.1035,3.9804 3.5446,1.7727 6.6064,2.2266 10.2578,2.2266 1.5386,0 7.1257,1.777 12.6504,5.3047 5.5247,3.5277 11.3509,8.5272 15.5566,13.6113 2.6122,3.1578 5.1378,6.0158 7.2227,8.1953 1.0424,1.0898 1.9555,1.9985 2.8457,2.7852 0.4451,0.3933 0.8648,0.7508 1.4746,1.1699 0.6097,0.4191 0.6516,1.459 4.4414,1.459 3.1664,0 4.426,-1.3159 5.3125,-2.0957 0.8865,-0.7798 1.4216,-1.4757 1.9238,-2.1914 0.7317,-1.0429 1.2423,-2.2276 1.7715,-3.4102 0.1376,-7e-4 0.2705,-0.015 0.4062,-0.022 2.7598,7.5468 4.5573,13.1402 5.0547,15.7325 0.4251,2.2147 0.8807,4.2432 1.3555,5.9863 0.045,0.2782 0.1059,0.5534 0.1836,0.8242 1.0169,3.4079 3.0485,4.3069 4.2676,4.9336 1.2191,0.6267 2.2369,0.9102 3.291,1.1523 2.1081,0.4843 4.3322,0.671 6.7441,0.6231 6.1656,-0.1223 12.0259,-2.484 16.418,-6.6836 2.8789,-2.7526 3.0666,-2.8378 9.2988,-3.207 l 8.9004,-0.5293 c 5.6671,-0.3371 8.5975,-6.9248 5.0528,-11.3594 l -7.1895,-8.9902 c -6.1869,-7.7381 -10.682,-13.73 -13.4922,-17.9454 -1.2381,-1.8571 -2.0063,-3.2077 -2.5644,-4.2714 0.3303,-0.2952 0.5059,-0.5163 0.9277,-0.8223 1.7878,-1.297 4.7027,-1.9629 3.6074,-1.9629 3.4555,0 5.0155,-1.2925 6.5293,-2.4551 1.5138,-1.1626 2.7843,-2.5289 3.8652,-4.2597 -0.217,0.3475 1.6657,-0.1328 -0.5195,-0.1328 3.5071,0 5.0611,-1.0373 7.1094,-2.1036 2.0483,-1.0662 4.0844,-2.408 5.9902,-4.0117 2.4735,-2.08123 4.6907,-4.17267 6.0957,-7.27928 1.278,-2.82567 1.3759,-5.70918 1.2188,-8.47851 l 0.7148,-0.0449 c 3.487,-0.22811 6.4351,-0.50911 9.4961,-2.06445 3.061,-1.55535 5.1771,-4.28172 6.6016,-6.76367 l 2.0722,-3.60742 c 4.2651,-0.002 4.1913,0.098 8.3614,2.80078 3.6699,2.3786 8.6969,5.20735 12.2676,6.85156 1.2304,0.56663 2.626,1.30583 3.7167,1.95508 1.0908,0.64926 2.1035,1.53152 1.5489,0.98242 2.2068,2.18471 4.5704,3.68425 7.2246,5.24805 0.7468,0.44 3.4537,3.26238 3.5234,3.38476 0.5238,0.91929 1.0477,1.95567 2.2051,3.25 1.1574,1.29434 3.1362,2.5668 4.8965,3.0918 2.9818,0.88928 5.4116,0.75628 8.834,0.64838 -2.729,0.9362 -4.4655,2.8666 -5.2071,5.1934 -2.8502,1.5804 -4.5696,4.3065 -5.1328,7.0039 -0.542,2.5961 -0.03,5.9487 2.0489,8.4941 -0.073,-0.2921 0.05,-0.4655 0.055,-0.4492 0.01,0.026 0.038,0.3141 0.062,0.5547 0.5997,0.7098 1.267,1.3883 2.1368,1.9258 -1.4525,-0.8977 -1.9284,-1.4623 -2.1289,-1.8535 0.01,0.074 0.02,0.1028 0.02,0.1699 0,4.0653 1.282,7.1642 2.8555,10.5547 1.5734,3.3904 3.5137,6.6656 6.0761,9.416 -0.076,-0.082 2.9918,4.1267 4.6875,7.0937 2.0382,3.5662 3.8897,6.7384 6.0156,9.2403 0.4782,0.5602 1.0418,1.0413 1.67,1.4258 0.5767,0.5374 0.941,1.08 1.8593,1.5839 1.7432,0.9567 4.6429,1.4114 6.8379,0.7579 4.3901,-1.307 5.5394,-3.7045 7.3496,-6.1329 1.6392,-2.1989 2.5275,-4.9791 3.0645,-7.9941 0.6605,0.2746 1.3201,0.5544 1.998,0.7246 1.9344,0.4855 4.73,0.769 7.3515,-0.25 2.6215,-1.019 4.2046,-2.701 5.5508,-4.2676 0.131,-0.1525 0.5594,-0.5151 0.8535,-0.6972 1.7531,-0.1293 3.8738,-0.6746 5.7227,-2.3457 1.9366,-1.7505 2.635,-4.1989 2.7949,-6.1621 -0.053,0.031 0,-0.07 -0.086,0.012 0.048,-0.048 0.065,-0.1029 0.1113,-0.1504 0.014,-0.2036 0.1211,-0.4612 0.1211,-0.6504 0,0.4275 0.046,0.2865 0.082,0.3809 0.8499,-0.9136 1.5727,-1.8255 2.1426,-2.8555 0.453,-0.8188 0.8617,-1.7756 1.1269,-3.0723 2.1241,-2.0674 2.9258,-4.4121 3.1973,-6.334 0.3089,-2.1863 0.1692,-4.2102 -0.1855,-6.2402 -0.7096,-4.06 -1.9998,-8.119 -5.6622,-11.5898 -0.3413,-0.3236 -0.6698,-0.7324 -0.8925,-1.0313 0.092,0.2663 0.1954,0.5691 0.2129,1.8027 -0.01,-0.6517 -0.1632,-1.2793 -0.3067,-1.9082 -0.013,-0.017 -0.046,-0.051 -0.057,-0.066 -0.031,-0.046 0.03,-0.035 0.031,-0.092 -0.2662,-1.0732 -0.6762,-2.1215 -1.416,-3.1054 -0.4361,-0.5801 -1.1533,-1.09339 -1.8476,-1.60157 -0.1263,-0.33317 -0.2238,-0.52048 -0.3672,-1.08593 -0.4747,-1.87132 -0.5429,-4.70651 -0.5039,-4.91407 v -0.002 c 0.4296,-2.29008 0.4437,-5.88606 -0.8809,-8.73242 -1.3246,-2.84637 -3.0729,-4.82321 -5.6973,-7.89844 -4.0177,-4.70802 -8.4518,-9.05121 -12.5117,-12.39258 -2.0299,-1.67067 -3.9499,-3.08942 -5.8476,-4.22265 -1.8903,-1.12881 -3.3645,-2.31877 -6.9727,-2.32813 0,-0.005 9e-4,-0.004 0,-0.01 0.7161,10e-4 0.2948,0.0157 0.01,-0.22657 -0.1793,-2.68477 -1.0668,-3.69277 -1.8633,-5.08789 -0.8904,-1.55952 -1.9694,-3.05155 -3.2793,-4.47461 -1.8276,-1.98548 -4.471,-3.9859 -7.5293,-5.17578 -3.0584,-1.18986 -6.4573,-1.92089 -11.6992,-2.95508 -6.8555,-1.3525 -15.574,-2.7952 -20.2617,-3.30859 -1.5638,-0.17124 -2.0899,-0.31902 -2.8418,-0.47461 -0.09,-0.1358 -0.1068,-0.27815 -0.2071,-0.41211 -1.3262,-1.77111 -3.6663,-3.04491 -5.8144,-3.22656 -1.3146,-0.1112 -2.4342,0.10783 -3.4649,0.45117 -0.8619,-0.42792 -1.7313,-0.92392 -2.5742,-1.07031 -1.2544,-0.21788 -2.3673,-0.25944 -3.4766,-0.20508 -1.1092,0.0543 -2.2116,0.20477 -3.4394,0.37305 -1.8902,0.25908 -3.586,0.61227 -5.1719,1.125 -0.793,0.25637 -1.5348,0.51055 -2.5449,1.09179 -0.1417,0.0816 -0.3715,0.3105 -0.5293,0.41016 -0.8822,0.0858 -2.1545,0.16186 -3.5684,0.14648 -1.5635,-0.0169 -3.1642,-0.12717 -4.1894,-0.26171 0.4929,0.24174 1.1886,0.82255 2.1601,2.39453 -0.5777,-0.93484 -1.4664,-1.71164 -2.3847,-2.42188 -0.3815,-0.0619 -0.7345,-0.13774 -0.6465,-0.11133 0.038,0.0111 0.3146,0.008 0.5801,0.043 -1.2743,-0.96743 -2.6914,-1.72536 -4.1446,-1.96679 -2.537,-0.42153 -4.7274,0.16334 -6.5175,1.02539 -3.2898,1.58413 -5.692,4.23024 -7.2051,7.66601 -0.14,0.0878 -0.3206,0.20044 -0.2969,0.19141 -1.6026,0.60931 -3.1314,1.44663 -4.5137,2.88281 -1.182,1.22815 -2.2861,3.10291 -2.5214,5.32617 -0.081,4.8e-4 -0.1608,-0.002 -0.2422,-0.002 v 0 c -5.3348,0.0139 -9.5851,1.80491 -13.7696,4.57617 -0.8829,0.58475 -2.2267,1.26649 -3.3711,1.70703 -1.1388,0.43845 -2.3365,0.54194 -1.6484,0.54102 -4.3592,0.0125 -7.4546,0.86025 -10.918,4.32226 1.4039,-1.4033 -0.948,0.49394 -3.5371,1.60547 -2.589,1.11154 -6.0121,2.40114 -9.5078,3.58789 -3.4957,1.18677 -7.0881,2.28138 -10.0332,3.04492 -2.9451,0.76355 -5.7027,1.08845 -5.4141,1.0918 -0.5676,-0.007 -4.0827,-1.30902 -3.873,-1.15039 -2.8942,-2.18908 -5.2822,-3.66751 -9.4473,-3.88672 -0.078,-0.0267 -0.1557,-0.0471 -0.2422,-0.10547 -0.5105,-0.34466 -1.2451,-1.01428 -1.664,-1.54687 -1.5142,-1.92495 -1.6974,-3.54802 -5.9375,-5.14649 -2.1201,-0.79923 -6.2858,-0.0638 -8.0352,1.54688 -0.4622,0.42557 -0.6277,0.75492 -0.9179,1.12695 -0.7477,-0.0161 -1.5367,0.0132 -4.1211,-0.31836 -6.3392,-0.81239 -10.4055,-2.05581 -13.0645,-3.61328 -2.659,-1.55745 -4.3095,-3.38273 -6.123,-6.97461 -2.0367,-4.03374 -4.3909,-9.62527 -4.3926,-9.63086 -1.7026,-5.44725 -6.8874,-7.71452 -11.502,-7.85351 -0.4661,-0.57158 -0.8766,-1.27455 -1.3984,-1.61914 -1.876,-1.23882 -3.4078,-1.40677 -4.666,-1.49024 -0.3146,-0.0209 -0.6201,-0.0309 -0.918,-0.0332 z m 8.3262,5.23242 c 0.4652,0.7973 0.875,1.76666 0.875,3.00781 0,-0.96222 -0.4308,-2.00499 -0.875,-3.00781 z m 181.2793,1.18945 c 0.2469,0.22509 0.381,0.38476 0.3125,0.29102 -0.073,-0.1003 -0.1904,-0.1955 -0.3125,-0.29102 z m -11.0313,5.00782 c 0,1.56605 -0.468,2.6041 -0.9785,3.41601 0.5296,-0.9514 0.9785,-2.07067 0.9785,-3.41601 z m -36.2968,0.20898 c 0,0.0185 -0.013,0.0553 -0.047,0.084 -0.029,0.0246 -0.053,0.0339 -0.096,0.0625 0.082,-0.11932 0.1378,-0.17198 0.1426,-0.14649 z m -143.9649,2.74219 c 0.8329,0.67472 1.6632,1.28054 2.416,1.60156 1.757,0.74921 3.4317,0.93945 5.2012,0.99219 1.1058,2.97257 2.5529,6.20315 4.4512,9.96289 2.6662,5.28079 6.4611,9.76873 11.541,12.74414 5.0799,2.97541 11.0461,4.48413 18.3633,5.42187 3.8006,0.48707 6.336,0.83051 9.3418,0.38868 0.8314,-0.12218 1.7482,-0.37885 2.6777,-0.75391 0.8612,0.81584 1.6412,1.77029 2.6035,2.41992 1.7869,1.20626 3.4385,2.45508 7.0039,2.45508 -1.5939,0 1.5552,0.7046 2.0723,1.0957 3.8649,2.92334 7.566,3.93301 12.1601,3.98633 3.1892,0.037 5.6864,-0.66109 9.0879,-1.54297 3.4016,-0.88189 7.2463,-2.0569 11.0196,-3.33789 3.7732,-1.28097 7.4526,-2.65677 10.5312,-3.97851 3.0787,-1.32173 4.9637,-1.62496 7.9102,-4.57032 -0.9738,0.97337 1.3106,-0.22044 1.0605,-0.22265 2.7609,-0.007 4.5694,-0.67798 6.6387,-1.47461 2.0693,-0.79665 4.1306,-1.81761 6.0722,-3.10352 0.5269,-0.34892 1.1971,-0.45353 2.1856,-0.80859 -0.1041,1.19269 -0.047,2.4791 0.4199,4.19141 0.4777,1.75107 2.0456,4.09464 4.002,5.1914 1.055,0.59145 1.9902,0.85809 2.832,0.99805 -1.064,1.36945 -1.5818,3.08505 -1.4531,4.81445 l 0.4785,6.22656 c 0.1653,2.15335 0,2.44996 -0.014,2.47266 -0.01,0.0227 -0.4135,0.70351 -2.3535,2.33594 -1.0184,0.85697 -2.3761,1.74912 -3.4434,2.30469 -1.0673,0.55556 -2.3507,0.52343 -0.6464,0.52343 -5.7909,0 -8.7826,2.60311 -11.3516,6.7168 -0.053,0.0848 -0.1728,0.19561 -0.2891,0.32031 -4.2576,0.45251 -7.1742,2.34744 -10.0605,4.44144 -1.6429,1.1918 -3.1499,2.4947 -4.4824,4.0859 -1.3326,1.5912 -2.9532,3.3609 -2.9532,7.1797 0,2.9539 0.8731,4.5722 1.8282,6.5078 0.9551,1.9356 2.2055,4.0015 3.8164,6.418 3.0014,4.5022 7.5581,10.4821 13.2343,17.6269 -5.5449,0.9425 -10.1687,3.0169 -13.832,6.5196 -2.6438,2.5279 -3.1149,2.7271 -7.0234,2.8046 -0.5642,0.011 -0.8529,-0.07 -1.3574,-0.1074 -0.1937,-0.8736 -0.295,-1.2284 -0.4532,-2.0527 -0.9483,-4.9414 -3.1508,-11.4896 -6.9531,-21.5332 -0.7343,-1.9396 -1.0456,-3.9043 -4.2715,-6.0645 -1.6129,-1.08 -4.4442,-1.657 -6.5234,-1.1093 -1.1876,0.3128 -2.0183,0.7878 -2.7149,1.2929 0.3845,-0.084 0.8653,0.093 1.8946,0.4883 -0.6594,-0.2518 -1.3453,-0.3243 -2.0274,-0.3887 0.017,-0.01 0.039,-0.028 0.061,-0.051 -0.022,0.016 -0.048,0.032 -0.07,0.049 -2.8258,-0.2636 -5.6806,0.855 -7.2559,2.2461 -0.6329,0.5589 -1.0405,1.1697 -1.5019,1.7695 -1.3273,-1.4801 -2.5534,-2.7925 -4.0547,-4.6074 -5.3295,-6.4426 -12.0472,-12.1709 -18.8086,-16.4883 -6.7614,-4.3174 -13.2056,-7.5039 -20.1836,-7.5039 -0.9195,0 -4.2709,-0.8855 -3.9961,-0.748 -4.4645,-2.23276 -9.4797,-3.96196 -14.0977,-5.07036 -2.3089,-0.5542 -4.502,-0.9532 -6.5996,-1.12695 -2.0976,-0.17375 -3.9449,-0.40938 -6.7949,0.70898 -0.1469,0.0577 -0.9519,0.15978 -1.4492,0.27344 1.0598,-2.32234 1.4313,-4.74999 1.5058,-7.0957 0.078,-2.4418 -0.1768,-4.97622 -1.1562,-7.44336 0.978,-0.69949 1.9399,-1.26467 2.8476,-1.97852 0.861,-0.67704 1.6501,-1.21324 2.7344,-2.40625 1.0843,-1.19301 2.764,-4.28886 2.1817,-7.2832 -0.5824,-2.99434 -2.0181,-4.1757 -2.9825,-5.12305 -0.9643,-0.94735 -1.8999,-1.70795 -3.0703,-2.67969 -1.7318,-1.43787 -1.6279,-1.43335 -1.7539,-1.79101 -0.1259,-0.35765 -0.4045,-2.16258 -0.3887,-6.05469 0.023,-5.52356 1.263,-8.439 1.4532,-8.67578 -0.1905,0.2371 2.6497,-1.76115 4.7402,-2.40039 z m 78.7012,83.42973 c 0.023,-0.017 0.049,-0.032 0.072,-0.049 0,9e-4 -0.01,-10e-4 -0.014,0 -0.017,0 -0.037,0.027 -0.059,0.049 z m 115.5332,-82.67973 c -0.1805,0.29207 -0.568,0.84609 -1.2871,1.29492 0.3861,-0.44285 1.0542,-0.91806 1.2871,-1.29492 z m -15.6758,0.73437 c -0.04,0.0437 -0.096,0.14922 -0.1328,0.1875 -0.053,0.0556 -0.054,0.0328 -0.1035,0.082 0.082,-0.0924 0.1541,-0.16806 0.2363,-0.26954 z m 2.8691,0.53516 c 0.7474,0.90491 1.7681,1.81268 4.084,2.41602 1.0457,0.27243 2.2979,0.19289 3.5098,-0.0527 0.6846,0.35613 1.4256,0.85688 2.0449,1.06055 2.16,0.7103 4.3282,1.02818 7.1563,1.33789 3.6343,0.39802 12.6182,1.85054 19.0781,3.125 5.0525,0.99681 7.9529,1.73179 9.3301,2.26758 1.3771,0.53578 1.3052,0.51929 2.3086,1.60937 0.521,0.566 1.1055,1.38146 1.4218,1.93555 0.051,0.0895 0.067,0.18033 0.092,0.27148 0,-0.0589 0,-0.20818 -0.01,-0.28515 0.01,0.12392 0.024,0.24205 0.035,0.36328 0.035,0.16824 0.042,0.2738 0.023,0.2539 0.421,3.64413 2.4017,6.05999 4.5,7.94532 2.3652,2.12506 5.2886,3.82812 9.3379,3.82812 -2.0552,0 -1.1624,-0.23485 -0.1738,0.35547 0.9885,0.59033 2.4815,1.65233 4.1308,3.00977 3.2987,2.71486 7.2996,6.61952 10.7578,10.67187 2.4417,2.86118 3.4889,4.43124 3.5977,4.64258 -0.036,0.0409 -0.058,-0.059 -0.1289,0.32031 -0.7609,4.056 -0.1647,7.54674 0.6953,10.93749 0.43,1.6954 0.9331,3.2628 1.8008,4.9023 0.4338,0.8198 0.9306,1.6779 1.9219,2.6738 0.1002,0.1008 0.3157,0.2126 0.4336,0.3204 0.425,1.0273 0.9523,1.7062 1.4394,2.4218 0.8455,1.2423 1.8176,2.3843 2.9824,3.4883 -0.092,-0.087 1.1877,2.0524 1.5,3.8399 0.1283,0.7344 0.1091,1.2262 0.096,1.539 -0.4669,0.5239 -1.0667,0.9861 -1.4414,1.5821 -0.5523,0.8786 -1.0283,1.9733 -1.3105,3.4238 -0.025,0.034 -0.067,0.084 -0.047,0.064 -1.6578,1.6579 -2.5678,3.2521 -3.1523,5.0684 -0.9175,0.3474 -1.6908,0.7946 -2.4649,1.2519 -1.0353,0.6117 -1.9117,1.5196 -2.8261,2.3516 -0.2325,-0.3307 -0.4491,-0.7428 -0.6719,-1.0371 -1.0152,-1.3411 -2.1118,-2.3813 -3.3164,-3.3125 -1.2047,-0.9312 -2.407,-1.7525 -4.3047,-2.3731 -0.9489,-0.3103 -2.1187,-0.6376 -3.9043,-0.4179 -1.7856,0.2197 -4.3944,1.5523 -5.6621,3.6035 -1.7202,2.7831 -1.1027,2.9206 -1.2031,3.6894 -0.1005,0.7689 -0.1542,1.5148 -0.1934,2.3458 -0.078,1.6618 -0.082,3.6098 -0.01,5.6542 0.045,1.2586 0.01,1.53 0.016,2.1856 -0.566,-0.8967 -0.7598,-1.1085 -1.2403,-1.9492 -2.0976,-3.6703 -4.1074,-7.0144 -6.5996,-9.6895 -0.9627,-1.0333 -2.5494,-3.4543 -3.6211,-5.7636 -1.0717,-2.3094 -1.5527,-4.9171 -1.5527,-4.6641 0,-1.6248 -0.1948,-3.106 -0.6231,-4.6172 -0.071,-0.2511 -0.1821,-0.563 -0.2363,-0.8301 0.9254,-0.719 1.6962,-1.6173 2.2539,-2.7558 2.9392,-0.4529 4.7357,-2.0313 5.8477,-3.502 0.4115,-0.5442 0.6868,-1.1304 0.9824,-1.7109 0.8939,0.031 1.7725,0.1131 2.7637,0 0.8056,-0.091 1.7135,-0.2095 2.9804,-0.7773 1.267,-0.5679 3.1491,-1.9259 4.0508,-4.1387 0.9017,-2.2128 0.5248,-4.36503 0.076,-5.61128 -0.4486,-1.24625 -0.9593,-1.96943 -1.4336,-2.61132 -0.9486,-1.28379 -1.8952,-2.20944 -3.0547,-3.32032 -1.8289,-1.75223 -4.4053,-3.82769 -7.5918,-4.625 -3.1865,-0.79728 -5.912,-0.65597 -10.3769,-0.57422 -3.9173,0.0717 -5.1478,-0.0725 -5.3711,-0.0254 -2.167,-3.73876 -4.8671,-6.25657 -8.4727,-8.38085 -1.7511,-1.03174 -4.6562,-3.30491 -4.4824,-3.13282 -1.5712,-1.55538 -2.6982,-2.14658 -4.2402,-3.06445 -1.5421,-0.91787 -3.2719,-1.83781 -5.0196,-2.64258 -2.3856,-1.09852 -7.607,-3.9976 -10.5097,-5.87891 -5.6222,-3.64388 -10.4803,-5.00401 -18.4864,-5.06054 -2.2103,-0.0156 -4.3408,-0.13123 -5.7969,-0.27735 -0.4698,-0.0471 -0.6797,-0.085 -0.957,-0.12695 -0.044,-0.0242 -0.1052,-0.0888 -0.1484,-0.11133 -0.094,-3.46746 -1.4684,-4.8104 -2.4805,-6.02734 -1.0469,-1.25877 -2.167,-2.25908 -3.3926,-3.20117 -0.3102,-0.23849 -0.666,-0.4202 -0.9804,-0.65039 0.3427,-0.48405 0.6686,-1.04483 0.9707,-1.72461 0.2812,0.0489 0.638,0.15921 0.8691,0.22851 1.0573,0.31702 1.949,0.46397 2.9004,0.59375 1.9029,0.25959 3.9617,0.37205 6.0293,0.39453 2.0676,0.0225 4.0647,-0.0412 5.9336,-0.27539 0.9345,-0.11703 1.79,-0.23066 3.0137,-0.64843 0.6118,-0.2089 1.3383,-0.444 2.4218,-1.26563 0.06,-0.0457 0.1445,-0.18283 0.209,-0.23633 0.5477,-0.14947 1.2963,-0.34048 2.2891,-0.47656 1.2103,-0.16589 1.2049,-0.13714 1.5976,-0.15039 z m 49.0762,14.30273 c -0.01,-0.0834 -0.015,-0.16921 -0.023,-0.2539 -0.01,-0.0249 -0.02,-0.0518 -0.027,-0.0781 0.018,0.22718 0.037,0.31709 0.051,0.33203 z m -67.9473,-0.53515 c 0.061,0.0265 0.1247,0.0551 0.1954,0.0937 z m -98.957,5.44531 c 0.5185,0 0.834,0.0196 1.0391,0.043 -0.3416,-0.0174 -0.672,-0.043 -1.0391,-0.043 z m 1.0879,0.0527 c 0.3197,0.0454 0.2321,0.0747 0,0 z m -88.3418,31.59766 c 0,0.20824 0.025,0.43854 0.072,0.6836 0.1403,0.73516 0.4733,1.60837 0.8867,2.45507 -0.5289,-0.95954 -0.7797,-1.81441 -0.8867,-2.45507 -0.044,-0.26599 -0.072,-0.50476 -0.072,-0.6836 z m 296.2715,1.15625 c 1.3589,0 2.3014,0.379 3.0293,0.80664 -0.9264,-0.40862 -1.8832,-0.80664 -3.0293,-0.80664 z m -294.7695,2.98438 c 0.038,0.0582 0.082,0.11044 0.1211,0.16797 -0.011,-0.0139 -0.033,-0.0141 -0.045,-0.0273 -0.044,-0.0528 -0.034,-0.0883 -0.076,-0.14062 z m 142.6191,0.40429 c -0.068,0.0703 -0.1429,0.16856 -0.1777,0.19532 -0.052,0.0399 -0.076,-0.0724 0.1777,-0.19532 z m 98.1855,6.80273 c -0.1771,0.7871 -0.3378,1.5829 -0.3378,2.3711 0,-1.0822 0.1377,-1.8038 0.3378,-2.3711 z m 65.1836,21.9161 c -0.01,0.01 -0.02,0.098 -0.025,0.1074 -0.1183,0.1882 -0.1432,0.2316 -0.4239,0.4472 0.2239,-0.1712 0.2511,-0.3775 0.4492,-0.5546 z m -209.914,5.7089 c 0.453,0.2438 0.4911,0.5045 0.584,0.5684 0.1787,0.1229 0.058,0.046 -0.1328,-0.123 -0.086,-0.076 -0.3312,-0.3327 -0.4512,-0.4454 z m 183.2285,0.9278 c 0.018,0.01 0.031,0.03 0.031,0.072 v 0 c -2e-4,0.041 -0.2044,0.3764 -0.2324,0.461 0.01,-0.1098 0.023,-0.34 0.029,-0.3906 0.01,-0.058 0.1189,-0.1647 0.1738,-0.1426 z m -7.3652,3.3711 c 0,0.5181 0.2526,0.9435 0.3418,1.4375 -0.03,-0.01 -0.1024,0 -0.1289,-0.01 -0.098,-0.3369 -0.2129,-0.6342 -0.2129,-1.4277 z m 22.5156,4.4433 c 0.085,0 0.042,0.042 -0.2207,0.08 0.01,0 0.016,-0.014 0.023,-0.018 0.073,-0.043 0.1493,-0.061 0.1973,-0.062 z"
           style="color:#000000;font-style:normal;font-variant:normal;font-weight:normal;font-stretch:normal;font-size:medium;line-height:normal;font-family:sans-serif;font-variant-ligatures:normal;font-variant-position:normal;font-variant-caps:normal;font-variant-numeric:normal;font-variant-alternates:normal;font-feature-settings:normal;text-indent:0;text-align:start;text-decoration:none;text-decoration-line:none;text-decoration-style:solid;text-decoration-color:#000000;letter-spacing:normal;word-spacing:normal;text-transform:none;writing-mode:lr-tb;direction:ltr;text-orientation:mixed;dominant-baseline:auto;baseline-shift:baseline;text-anchor:start;white-space:normal;shape-padding:0;clip-rule:nonzero;display:inline;overflow:visible;visibility:visible;opacity:1;isolation:auto;mix-blend-mode:normal;color-interpolation:sRGB;color-interpolation-filters:linearRGB;solid-color:#000000;solid-opacity:1;vector-effect:none;fill:#000000;fill-opacity:1;fill-rule:nonzero;stroke:none;stroke-width:14;stroke-linecap:round;stroke-linejoin:round;stroke-miterlimit:4;stroke-dasharray:none;stroke-dashoffset:0;stroke-opacity:1;paint-order:markers fill stroke;color-rendering:auto;image-rendering:auto;shape-rendering:auto;text-rendering:auto;enable-background:accumulate"
           sodipodi:nodetypes="ccccccccccccccccccscccccccssccccssccccccscccccccccccsccccccccccccccscccccccccccsccccccccccsccccccccccccccccccccccccccsccccscccccccccccccccccccccccccccccccccccccccccccccccccccccccccccccccccccccsscccccccccccccccccccccccccccssccsccccccccccccccssccscccccsccccccccccccccccccccccccccccccccccccccccccccccccccccccccccsccccccccccccccccsccccccccccsccccccccccccccccccccccccccccccccccccccccccccccccccccccccccccccccccscccsscccs" />
      </g>
      <path
         style="color:#000000;font-style:normal;font-variant:normal;font-weight:normal;font-stretch:normal;font-size:medium;line-height:normal;font-family:sans-serif;font-variant-ligatures:normal;font-variant-position:normal;font-variant-caps:normal;font-variant-numeric:normal;font-variant-alternates:normal;font-feature-settings:normal;text-indent:0;text-align:start;text-decoration:none;text-decoration-line:none;text-decoration-style:solid;text-decoration-color:#000000;letter-spacing:normal;word-spacing:normal;text-transform:none;writing-mode:lr-tb;direction:ltr;text-orientation:mixed;dominant-baseline:auto;baseline-shift:baseline;text-anchor:start;white-space:normal;shape-padding:0;clip-rule:nonzero;display:inline;overflow:visible;visibility:visible;opacity:1;isolation:auto;mix-blend-mode:normal;color-interpolation:sRGB;color-interpolation-filters:linearRGB;solid-color:#000000;solid-opacity:1;vector-effect:none;fill:#000000;fill-opacity:1;fill-rule:nonzero;stroke:none;stroke-width:14;stroke-linecap:round;stroke-linejoin:round;stroke-miterlimit:4;stroke-dasharray:none;stroke-dashoffset:0;stroke-opacity:1;paint-order:markers fill stroke;color-rendering:auto;image-rendering:auto;shape-rendering:auto;text-rendering:auto;enable-background:accumulate"
         d="m 1238.8945,674.60742 c -1.5072,-0.0432 -2.987,0.0547 -4.4218,0.22461 -4.3485,0.51501 -9.213,1.86515 -13.1875,3.67578 -1.6159,0.73608 -7.4827,2.12312 -13.7188,2.57227 -6.4572,0.46504 -16.4361,1.82123 -23.1797,3.13672 -9.1708,1.78895 -11.586,1.91411 -19.6855,1.02734 -7.5589,-0.82759 -14.0188,-0.76017 -20.3125,0.32227 -3.6929,0.63513 -5.3659,0.73934 -5.6426,0.71093 -0.2767,-0.0284 -0.2647,0.0277 -2.2383,-1.13672 -3.2474,-1.91597 -6.6558,-3.06837 -10.0117,-3.55273 -1.678,-0.24218 -3.3349,-0.33696 -5.2109,-0.0332 -1.8761,0.30376 -4.4226,0.97644 -6.4082,3.7207 0.912,-1.26042 0.925,-0.98018 0.7929,-0.88477 -0.132,0.0954 -0.491,0.33438 -0.9453,0.60743 -0.9087,0.54608 -2.2256,1.26171 -3.5527,1.92773 -1.3271,0.66603 -2.6916,1.29561 -3.6797,1.70117 -0.4941,0.20279 -0.9018,0.34838 -1.0664,0.40039 -0.1646,0.052 -0.3753,-0.10487 1.0957,-0.10156 -3.9345,-0.009 -5.1057,1.87556 -5.9121,2.79102 -0.8066,0.91563 -1.2463,1.67506 -1.6699,2.46679 -0.8473,1.58348 -1.4881,3.27561 -2.0196,5.17383 -0.5298,1.8924 -0.4071,1.75736 -1.5703,3 -1.1631,1.24265 -3.9385,3.52033 -9.0566,7.35352 -3.1462,2.3563 -6.3218,4.64758 -8.8457,6.40039 -2.524,1.75281 -5.3088,3.31866 -4.2911,2.84961 -1.274,0.58716 -2.3694,1.24401 -3.457,2.14453 -0.5438,0.45026 -1.0909,0.94473 -1.709,1.76367 -0.09,0.11948 -0.2022,0.33918 -0.3047,0.47656 -0.3228,0.19397 -0.6346,0.39544 -1.1347,0.6211 -3.4709,1.56598 -6.8866,3.96358 -9.8223,6.54882 l -4.1406,3.64649 a 7.0007,7.0007 0 0 0 -2.291,6.33203 l 1.2832,8.21289 c 0.4841,3.10093 0.4891,3.85037 0.5566,4.18164 -3.4785,2.65861 -5.5506,4.14416 -7.4453,6.39453 -1.0091,1.19851 -2.7151,3.4859 -2.1269,6.97071 0.5881,3.48481 2.8659,4.94584 3.832,5.58203 2.7842,1.83335 3.6127,1.58471 5.4062,2.0039 1.7935,0.4192 3.8309,0.78319 5.9102,1.04297 4.0213,0.50244 4.6611,0.94237 5.6094,1.89063 2.6959,2.69601 6.7106,5.58874 10.6113,8.08398 2.367,1.5142 8.321,6.70037 11.3027,10.08789 2.3439,2.66282 4.3661,4.72945 6.4473,6.37305 2.0812,1.6436 4.2581,3.28516 8.0273,3.28516 4.1818,0 8.1335,-1.08847 12.7969,-2.26758 2.3317,-0.58956 4.5908,-1.22194 6.5234,-1.85156 0.3772,-0.12287 0.6953,-0.25519 1.0489,-0.37891 0.2743,0.26826 0.4818,0.60789 0.7812,0.86133 1.1024,0.93299 1.6338,2.42578 5.9473,2.42578 -1.6819,0 -1.4462,-0.29181 -1.0957,-0.0918 0.3505,0.20001 0.996,0.65749 1.5566,1.1543 0.4471,0.39614 0.7475,0.75334 0.9805,1.0332 0.1296,0.91382 0.3486,1.83698 0.8164,2.8457 0.232,0.50024 0.7694,1.08727 1.1934,1.64844 0.038,0.16157 0.038,0.13119 0.078,0.33203 0.2792,1.39919 0.6012,3.66858 0.8203,6.14453 l 0.8652,9.76563 a 7.0007,7.0007 0 0 0 7.2969,6.375 l 6.4082,-0.29688 c 3.4978,-0.16202 4.798,0.31832 5.25,0.58008 -0.019,0.12734 0.1192,0.77928 0.1192,3.28125 0,2.16475 0.099,4.2035 0.289,5.9668 0.095,0.88165 0.2028,1.67883 0.3945,2.54492 0.096,0.43305 0.2038,0.87838 0.4278,1.48438 0.2239,0.60599 0.3318,1.38049 1.7871,2.83593 a 7.0007,7.0007 0 0 0 0,0.002 c 3.1484,3.1479 4.5633,2.36513 5.9844,2.46093 1.4212,0.0958 2.7598,0.004 4.2012,-0.26953 0.7506,-0.14218 6.3821,-0.86354 10.9121,-1.29101 4.1934,-0.39568 7.2262,-0.54343 10.6016,-2.24414 3.3754,-1.70071 5.2978,-4.04979 8.1132,-7.18555 l 5.6875,-6.33594 a 7.0007,7.0007 0 0 0 1.7793,-4.25781 l 0.8457,-14.13477 c 0.2454,-4.10371 0.3376,-6.9614 0.5137,-8.53711 0.3201,-0.0639 0.4166,-0.11315 0.9649,-0.16796 2.2242,-0.22239 5.9184,-0.35336 11.0312,-0.65039 l 13.1582,-0.76563 a 7.0007,7.0007 0 0 0 4.4844,-1.97852 l 6.7266,-6.5664 c 1.2347,-1.20554 2.3482,-2.13037 3.4277,-3.03711 0.066,0.0647 0.1159,0.0949 0.1816,0.16016 0.8148,0.80983 1.5972,1.68982 2.0098,2.22656 0.06,0.0776 0.032,0.0417 0.074,0.10156 0.7799,2.47715 2.6605,3.94217 3.9219,4.5957 1.613,0.83569 3.0135,1.06055 4.5019,1.06055 5.731,0 8.8164,-4.932 8.8164,-9.25 0,1.66614 -0.2982,1.69051 -0.2441,1.57422 0.054,-0.11629 0.2842,-0.54423 0.6191,-1.06055 0.6699,-1.03264 1.7536,-2.46008 2.8594,-3.74804 0.9027,-1.05139 1.7261,-1.8523 2.4024,-2.48438 0.3191,-0.0481 0.6039,-0.0461 0.9511,-0.13867 2.9612,-0.78985 5.412,-4.60543 5.5098,-7.03516 -0.067,2.21181 -0.8088,3.08067 -1.1543,3.57032 -0.3539,0.50162 -0.5431,0.65862 -0.6406,0.75 -0.195,0.18274 -0.056,0.045 0.1992,-0.12696 0.5098,-0.34393 1.5315,-0.93776 2.623,-1.46094 3.5911,-1.72115 6.5852,-4.22213 9.1719,-6.91992 1.2934,-1.34889 2.4478,-2.73055 3.4317,-4.27148 0.6904,-1.08125 1.3099,-2.37314 1.7031,-4.04492 -0.083,0.0866 -0.1873,0.20817 -0.211,0.24414 -0.076,0.11609 0.01,0.0226 -0.094,0.10547 0.1409,-0.11693 0.1778,-0.25707 0.3086,-0.375 0.1638,-0.70531 0.4062,-1.28181 0.4062,-2.25391 0,1.19614 -0.1342,1.7809 -0.2773,2.09766 1.0202,-0.95241 1.8692,-1.91371 2.4844,-3.01368 0.4962,-0.88723 0.8924,-1.93529 1.1484,-3.21093 -0.01,-0.0117 -0.052,0.0385 -0.045,0.0234 0,-0.01 0.047,-0.0806 0.055,-0.0957 0.1092,-0.56793 0.2656,-1.05803 0.2656,-1.80469 0,0.98789 -0.082,1.37003 -0.1582,1.61719 0.096,-0.17873 0.1819,-0.34766 0.3965,-0.6875 0.6057,-0.95913 1.5844,-2.30976 2.625,-3.55469 2.3992,-2.87018 3.5248,-2.77468 3.1113,-2.80664 -0.4134,-0.0319 0.4813,-0.10221 2.2149,3.01758 1.1955,2.15162 3.8947,4.37701 6.3515,5.20899 2.4568,0.83197 4.6795,0.99304 7.5684,1.14648 2.37,0.12589 4.3501,0.12786 6.2832,-0.12891 0.9665,-0.12838 1.8941,-0.24989 3.2871,-0.86914 0.6192,-0.27529 1.42,-0.77356 2.2832,-1.58593 1.3942,-0.35021 2.4323,-0.83736 3.623,-1.38282 1.8521,-0.84836 3.8099,-1.89836 5.7032,-3.01367 1.8932,-1.11531 3.6813,-2.26631 5.2246,-3.43555 0.7716,-0.58461 1.4723,-1.14746 2.2363,-1.93554 0.5334,-0.5502 1.5214,-0.93485 2.084,-2.65039 1.0344,-0.45965 2.8447,-1.13967 5.9316,-1.86914 2.0147,-0.47609 3.8946,-1.00005 5.4766,-1.52539 0.791,-0.26268 1.4927,-0.51499 2.2285,-0.8379 0.3679,-0.16145 0.7405,-0.33108 1.2402,-0.625 0.2424,-0.14256 0.5222,-0.25134 0.8829,-0.51367 -0.2635,0.14716 -0.3653,0.0686 -0.3809,0.0762 -0.023,0.0113 0.2486,-0.0951 0.4902,-0.18554 -0.019,0.0124 -0.076,0.0893 -0.094,0.0996 0.027,-0.0201 0.071,-0.0815 0.1,-0.10352 0.088,-0.033 0.069,-0.0292 0.1777,-0.0664 0.8294,-0.28271 2.1921,-0.66411 3.6582,-1.00585 2.9322,-0.68349 6.6869,-1.1875 7.541,-1.1875 1.4861,0 2.8096,-0.10494 4.293,-0.47657 0.7417,-0.18581 1.5102,-0.37278 2.7012,-1.0957 0.5955,-0.36146 1.3443,-0.8615 2.1543,-1.93359 0.81,-1.0721 1.6183,-3.00119 1.4512,-4.98829 a 7.0007,7.0007 0 0 0 0,-0.002 c -0.2511,-2.97866 -1.0697,-3.31826 -1.4942,-3.91797 -0.4245,-0.59971 -0.7922,-1.01756 -1.207,-1.47461 -0.8297,-0.91409 -1.8418,-1.91489 -3.2266,-3.23242 -2.7695,-2.63506 -6.988,-6.46164 -13.2441,-12.04687 a 7.0007,7.0007 0 0 0 0,-0.002 c -2.516,-2.24611 -5.7707,-4.53773 -8.7403,-6.16992 -2.2284,-1.22477 -5.6912,-3.13177 -7.6816,-4.23047 -0.8655,-0.47774 -1.741,-1.00174 -2.3477,-1.39062 -0.3033,-0.19444 -0.5454,-0.36026 -0.6328,-0.42383 -0.087,-0.0636 -0.1967,-0.35252 0.6914,0.69141 -2.0062,-2.35803 -2.5862,-2.08526 -3.5078,-2.51563 -0.9216,-0.43037 -1.8601,-0.7844 -2.9004,-1.08594 -6.6977,-1.94148 -18.3407,-7.01612 -23.0898,-9.94726 a 7.0007,7.0007 0 0 0 0,-0.002 c -3.2534,-2.00796 -5.9735,-3.60966 -9.4902,-4.39453 -3.5168,-0.78486 -6.8354,-0.726 -12.375,-0.69921 -6.6439,0.0321 -17.2378,0.51506 -24.2051,1.0996 l -10.252,0.86133 -7.7539,-3.73047 c -4.1999,-2.02009 -7.0683,-3.33538 -10.1562,-4.11523 -1.544,-0.38992 -3.0788,-0.57398 -4.586,-0.61719 z m -2.7754,14.12696 c 2.1825,-0.25849 2.6833,-0.25132 3.9336,0.0644 1.2504,0.31577 3.5105,1.23178 7.5157,3.1582 l 9.4726,4.55469 a 7.0007,7.0007 0 0 0 3.6192,0.66797 l 12.1543,-1.01953 c 6.402,-0.53712 17.0958,-1.02177 23.1015,-1.05078 5.4639,-0.0264 8.0383,0.0915 9.2559,0.36328 1.2175,0.27173 2.0734,0.72254 5.1875,2.64453 6.8519,4.22902 18.0778,9.02806 26.5449,11.48242 0.2178,0.0631 0.452,0.15949 0.6543,0.24219 -0.1846,-0.1376 -0.3641,-0.25866 -1.0098,-1.01758 0.7413,0.87122 0.9309,0.9085 1.2188,1.0957 0,0.001 0.01,0.003 0.012,0.004 0,0.002 -10e-5,0.007 0,0.01 0.1175,0.076 0.3772,0.35984 0.5,0.44922 0.4261,0.31008 0.8499,0.59281 1.3145,0.89063 0.9291,0.59563 2.0049,1.23466 3.1367,1.85937 2.0041,1.10627 5.4639,3.01345 7.7031,4.24414 1.4979,0.82332 4.9493,3.26298 6.1621,4.34571 3.3531,2.99347 4.7399,4.30697 6.9668,6.33593 -1.7149,0.40477 -3.3391,0.83775 -4.7891,1.33203 -0.7566,0.25794 -1.4614,0.51917 -2.25,0.9004 -0.4714,0.2279 -1.0448,0.48655 -1.7382,1.01757 -0.1824,0.0687 -0.2659,0.10657 -0.5508,0.20118 -1.0508,0.34892 -2.6362,0.80025 -4.2832,1.18945 -4.0117,0.948 -7.1018,1.86206 -9.8457,3.27539 -1.372,0.70666 -2.7108,1.53605 -3.9903,2.95703 -0.5896,0.65488 -1.133,1.53845 -1.5722,2.50195 0.2499,-0.18161 0.5316,-0.3061 0.5605,-0.33593 0.077,-0.0797 -0.2084,0.19353 -0.6386,0.51953 -0.013,0.01 -0.044,0.0274 -0.057,0.0371 -0.4506,1.06395 -0.7422,2.25376 -0.7422,3.46875 0,-1.94811 0.2941,-2.8731 0.6113,-3.38282 -0.8742,0.64913 -2.2229,1.54623 -3.6894,2.41016 -1.5411,0.9079 -3.1883,1.77989 -4.4277,2.34766 -1.2395,0.56777 -3.0089,0.52734 -0.6075,0.52734 -1.8273,0 -3.5866,0.44492 -5.2812,1.61914 -0.1796,0.12442 -0.3309,0.40002 -0.5117,0.55078 -0.6893,0.0306 -1.2668,0.0833 -2.5039,0.0176 -2.0467,-0.1087 -2.8237,-0.28275 -3.2032,-0.35742 -2.8913,-4.68594 -6.9851,-8.55858 -12.5957,-8.99219 -6.0931,-0.4709 -11.0552,3.15008 -14.9297,7.78516 -1.4305,1.71139 -2.6976,3.43866 -3.7207,5.05859 -0.5115,0.80997 -0.9606,1.58021 -1.371,2.44531 -0.2926,0.61662 -0.6192,1.34031 -0.8243,2.52539 -0.8096,0.75099 -1.556,1.49963 -2.1504,2.40235 -0.7346,1.1157 -1.6875,2.06004 -1.6875,5.17578 0,-1.96141 0.3768,-1.66441 0.086,-1.20898 -0.2908,0.45542 -0.9357,1.28214 -1.7363,2.11718 -1.6013,1.67008 -3.9756,3.43524 -5.1172,3.98242 -1.6399,0.786 -3.1049,1.60458 -4.4004,2.47852 -0.3506,0.23647 -0.7082,0.55444 -1.0528,0.82227 -0.6934,0.20702 -1.385,0.42142 -1.8164,0.65039 -1.1968,0.63522 -1.9406,1.24759 -2.7168,1.91015 -1.5522,1.32512 -3.0225,2.87903 -4.4746,4.57031 -0.9137,1.06431 -1.6885,2.19058 -2.5058,3.30274 -1.0378,-1.00755 -2.0919,-1.98334 -3.2071,-2.83008 -0.6339,-0.48131 -1.2686,-0.93229 -2.0937,-1.38476 -0.8251,-0.45248 -1.6156,-1.16797 -4.2344,-1.16797 -3.9832,0 -3.9542,1.00564 -4.8516,1.55859 -0.8973,0.55295 -1.7217,1.15508 -2.6171,1.85547 -1.791,1.40078 -3.7992,3.17309 -5.8184,5.14453 l -4.8535,4.73828 -10.5449,0.61328 c -4.9349,0.2867 -8.5272,0.38676 -11.6133,0.69532 -3.0862,0.30855 -6.1842,0.66512 -9.1797,3.16406 -2.9956,2.49893 -3.9272,6.14406 -4.2715,8.95508 -0.3443,2.81101 -0.372,5.7131 -0.6094,9.68359 l -0.6992,11.69141 -4.0566,4.51757 c -2.7802,3.09647 -3.7728,3.92458 -3.9961,4.03711 -0.2234,0.11254 -1.4745,0.41593 -5.6153,0.80664 -3.3937,0.32025 -6.0205,0.68876 -8.6445,1.04688 -0.01,-0.31497 -0.039,-0.52076 -0.039,-0.8418 0,-3.25115 0.1069,-5.54334 -0.9102,-8.48633 -1.0171,-2.94298 -3.6125,-5.29208 -5.3965,-6.46093 -3.9384,-2.58059 -8.579,-3.13617 -13.7109,-2.89844 l 0.2969,-0.0137 -0.2735,-3.08008 c -0.2562,-2.89506 -0.6099,-5.5096 -1.0371,-7.65039 -0.2136,-1.0704 -0.4182,-1.98489 -0.7871,-3.03906 -0.1844,-0.52709 -0.3613,-1.07164 -0.9316,-1.98047 -0.077,-0.12285 -0.3108,-0.33361 -0.4082,-0.47461 -0.3412,-2.28568 -1.3095,-3.4517 -2.1153,-4.56055 -0.986,-1.35691 -2.0772,-2.48642 -3.2695,-3.54297 -1.1923,-1.05655 -2.4611,-2.01047 -3.9043,-2.83398 -0.8391,-0.4788 -1.7838,-0.92943 -2.9199,-1.27539 0.2578,0.21037 0.1819,0.42089 0.1738,0.41406 -0.015,-0.0125 -0.2359,-0.25182 -0.3906,-0.44922 -0.7791,-0.21828 -1.5583,-0.43945 -2.7051,-0.43945 1.6688,0 2.3164,0.20861 2.6836,0.41406 -0.015,-0.0194 -0.026,-0.0264 -0.039,-0.0449 -0.9802,-1.39943 -2.0057,-3.03678 -4.8574,-4.20117 -2.8517,-1.1644 -6.9007,-0.002 -8.5879,1.31836 0.9476,-0.74183 0.7305,-0.45494 0.3887,-0.31446 -0.3418,0.14049 -0.9555,0.3645 -1.7012,0.60743 -1.4913,0.48584 -3.5275,1.06294 -5.6191,1.59179 -3.8099,0.96329 -7.8719,1.55245 -8.5293,1.67578 -0.096,-0.0596 -0.063,-0.0109 -0.1856,-0.10742 -0.9555,-0.75464 -2.585,-2.328 -4.6172,-4.63672 -4.0691,-4.62273 -9.6207,-9.65953 -14.2656,-12.63086 a 7.0007,7.0007 0 0 0 0,-0.002 c -3.1116,-1.99048 -7.5878,-5.51945 -8.2558,-6.1875 -2.6138,-2.6137 -6.0642,-4.25176 -9.9786,-5.19141 0.2628,-0.2674 0.4488,-0.33026 0.7305,-0.67968 1.0514,-1.30427 1.9152,-3.32136 2.1602,-4.9961 0.4898,-3.34947 -0.1012,-5.47829 -0.7227,-9.45898 l -0.6894,-4.41797 1.2578,-1.10938 c 1.6189,-1.42561 5.4714,-3.90645 6.3281,-4.29296 1.4493,-0.65395 2.7295,-1.35967 3.9336,-2.20899 0.602,-0.42466 1.1803,-0.85671 1.8789,-1.58984 0.3548,-0.37236 0.9244,-0.75516 1.4023,-1.54102 2.1344,-1.05247 3.431,-2.05561 5.9102,-3.77734 2.6973,-1.87317 5.9742,-4.23857 9.2519,-6.69336 5.2292,-3.91631 8.3798,-6.316 10.8848,-8.99219 2.505,-2.67619 4.0397,-5.96992 4.8301,-8.79297 0.1477,-0.52759 0.2883,-0.78114 0.4531,-1.20117 0.3152,-0.11924 0.6317,-0.22079 0.9551,-0.35352 1.4649,-0.60128 3.0588,-1.34578 4.6426,-2.14062 1.5838,-0.79484 3.1319,-1.62743 4.4863,-2.44141 0.6772,-0.40698 1.3014,-0.80242 1.9316,-1.25781 0.1403,-0.10131 0.2933,-0.21509 0.4336,-0.30859 0.113,0.009 0.062,-0.005 0.1934,0.0137 1.3209,0.19064 3.426,0.88711 4.8984,1.75586 v -0.002 c 2.2675,1.33784 4.8281,2.6902 7.9219,3.00781 3.0938,0.31761 5.6126,-0.18262 9.4453,-0.8418 4.8577,-0.83546 9.7645,-0.92942 16.416,-0.20117 8.7827,0.96157 14.1933,0.68658 23.8907,-1.20508 5.906,-1.1521 16.0357,-2.51829 21.5039,-2.91211 7.2805,-0.52437 13.5518,-1.53563 18.5156,-3.79687 1.8302,-0.83377 6.9639,-2.26882 9.0312,-2.51367 z m -125.955,13.72656 c -0.6523,0.25771 -1.4544,0.46714 -2.67,0.46484 1.6187,0.003 2.0732,-0.25315 2.67,-0.46484 z m -41.8653,21.48828 c -0.4843,0.78592 -0.9355,1.79107 -0.9355,3.62305 0,-2.27318 0.4732,-3.12295 0.9355,-3.62305 z m 286.3262,7.52734 c -0.4361,0.36041 -0.8528,0.66388 -1.4746,1.52539 0.7745,-1.07292 1.1799,-1.36923 1.4746,-1.52539 z m 9.877,9.71875 c -0.2085,0.28888 -0.2497,0.25011 -0.416,0.45117 0.1526,-0.18431 0.2385,-0.20791 0.4141,-0.45117 z m -83.379,15.91602 c -0.1483,0.12308 -0.2205,0.27587 -0.3593,0.40039 2e-4,-4e-4 0,-0.005 0,-0.006 0.065,-0.11693 0.023,-0.11726 0.3574,-0.39453 z m 45.752,3.71875 c -0.4596,0.14033 -0.8944,0.19531 -1.3184,0.19531 0.6317,0 0.834,-0.14704 1.3184,-0.19531 z m -57.916,12.59375 c 0.7586,0.18256 1.2854,0.50788 1.6582,0.73828 -0.7111,-0.43948 -1.3868,-0.55566 -2.0664,-0.72266 0.1102,0.0187 0.3064,-0.0401 0.4082,-0.0156 z m -7.8848,6.19726 c 0,0.0437 -0.019,0.0549 -0.02,0.0996 v -0.0312 c 4e-4,-0.0195 0.017,-0.0485 0.018,-0.0684 z M 1246,791.97461 c 0.1111,-0.0685 0.1157,0.10682 -0.3867,0.2793 0.1047,-0.0716 0.3331,-0.24629 0.3867,-0.2793 z m -0.6953,2.26562 c 0,0.84411 0.1725,1.56325 0.3828,2.24415 -0.1711,-0.24036 -0.3828,-0.7001 -0.3828,-2.24415 z m -115.9629,11.34375 c 0.032,0.04 0.1365,0.13616 0.1582,0.16602 0.091,0.12463 -0.026,0.13629 -0.1582,-0.16602 z m 5.0781,6.89844 c 0.8287,0.33422 1.7471,0.59375 2.7617,0.59375 -1.0856,0 -2.0047,-0.257 -2.7617,-0.59375 z m 27.9824,24.80664 c 0.033,0.005 0.1622,0.13465 0.1993,0.14453 -0.01,9.6e-4 -0.018,10e-4 -0.024,0.002 -0.255,0.0483 -0.6493,0.057 -0.6543,0.0566 0,-1.7e-4 0.07,-0.26951 0.4785,-0.20313 z"
         id="path4830"
         inkscape:connector-curvature="0" />
      <path
         style="color:#000000;font-style:normal;font-variant:normal;font-weight:normal;font-stretch:normal;font-size:medium;line-height:normal;font-family:sans-serif;font-variant-ligatures:normal;font-variant-position:normal;font-variant-caps:normal;font-variant-numeric:normal;font-variant-alternates:normal;font-feature-settings:normal;text-indent:0;text-align:start;text-decoration:none;text-decoration-line:none;text-decoration-style:solid;text-decoration-color:#000000;letter-spacing:normal;word-spacing:normal;text-transform:none;writing-mode:lr-tb;direction:ltr;text-orientation:mixed;dominant-baseline:auto;baseline-shift:baseline;text-anchor:start;white-space:normal;shape-padding:0;clip-rule:nonzero;display:inline;overflow:visible;visibility:visible;opacity:1;isolation:auto;mix-blend-mode:normal;color-interpolation:sRGB;color-interpolation-filters:linearRGB;solid-color:#000000;solid-opacity:1;vector-effect:none;fill:#000000;fill-opacity:1;fill-rule:nonzero;stroke:none;stroke-width:14;stroke-linecap:round;stroke-linejoin:round;stroke-miterlimit:4;stroke-dasharray:none;stroke-dashoffset:0;stroke-opacity:1;paint-order:markers fill stroke;color-rendering:auto;image-rendering:auto;shape-rendering:auto;text-rendering:auto;enable-background:accumulate"
         d="m 1092.4883,520.125 c -1.4897,-0.0413 -2.8906,0.13573 -4.0332,0.34766 -3.3948,0.62965 -7.1563,1.9795 -9.9766,4.70898 -2.8202,2.72949 -4.487,5.93305 -6.623,10.31836 -0.8799,1.80647 -1.7759,3.52824 -2.4532,4.74805 -0.3189,0.57454 -0.5781,1.01174 -0.7363,1.26562 -0.5071,0.53772 -0.7674,0.9491 -0.998,1.30078 -0.3547,0.54097 -0.6365,1.0403 -0.9219,1.57813 -0.5708,1.07565 -1.1276,2.277 -1.6465,3.56054 -0.1103,0.27276 -0.067,0.20064 -0.1016,0.29883 0.1013,-0.0922 -0.3619,0.18072 -2.4335,0.625 -2.9966,0.64266 -7.6695,1.12891 -6.8887,1.12891 -1.628,0 -3.1544,0.25196 -4.8613,1.12695 -0.8739,0.44796 -2.0225,1.24559 -2.9454,2.44727 -1.3309,0.85924 -2.1943,1.9678 -2.5644,2.61523 -0.644,1.12642 -0.8,1.80797 -0.9727,2.47657 -0.3454,1.33719 -0.5069,2.57204 -0.6816,4.20898 -0.3495,3.27388 -0.625,7.96633 -0.8906,14.77539 -0.5313,13.61813 -0.9884,35.56942 -1.5118,69.42383 l -0.2246,14.52539 a 7.0007,7.0007 0 0 0 5.2149,6.87695 l 5.3691,1.41602 c 4.4546,1.17455 6.992,2.67446 11.9512,1.17773 2.4796,-0.74836 4.7747,-2.99761 5.7383,-4.77344 0.9636,-1.77583 1.2866,-3.16134 1.6797,-4.62109 0.5096,-1.89252 0.4509,-1.95045 2.0879,-3.91406 1.6369,-1.96362 5.0348,-5.3095 11.164,-11.06055 7.8367,-7.35309 10.092,-10.52483 13.3106,-18.25976 1.2763,-3.06721 2.2389,-6.16199 2.666,-9.86915 0.427,-3.70715 0.4512,-7.95851 0.3828,-14.6914 -0.044,-4.3766 -0.2206,-8.57682 -0.4805,-11.95703 -0.1299,-1.69011 -0.2783,-3.16505 -0.4648,-4.45117 -0.1358,-0.93639 -0.1753,-1.67252 -0.6582,-2.92969 0.043,-0.22313 0.086,-0.48975 0.2461,-0.91797 0.4243,-1.13524 1.5764,-2.38989 1.0996,-2.03516 0.5475,-0.40732 1.173,-0.8778 1.9316,-1.87695 0.7587,-0.99915 1.7923,-2.94103 1.5371,-5.37891 -0.2066,-1.97381 -1.2143,-3.36788 -2.1367,-4.32812 -0.07,-0.42502 -0.1485,-0.79567 -0.1797,-1.33984 -0.01,-0.1819 0.01,-0.2082 0.01,-0.38477 0.3921,-0.44345 0.8567,-0.90595 1.1445,-1.32422 0.956,-1.38917 1.6599,-2.79871 2.3379,-4.35547 1.3559,-3.11352 2.4955,-6.60128 2.9219,-10.23047 0.2265,-1.92836 1.1899,-6.47813 1.8515,-8.63672 l 1.5411,-5.02929 a 7.0007,7.0007 0 0 0 -1.8438,-7.09961 l -5.2598,-5.05469 c -2.4694,-2.37266 -4.1395,-4.14455 -7.1308,-5.46875 -1.4957,-0.6621 -3.0728,-0.92158 -4.5625,-0.96289 z m -0.875,13.9668 c -0.1322,-0.0271 0.7401,0.51501 2.8691,2.56054 l 2.1563,2.07227 -0.2813,0.91211 c -1.0339,3.37316 -1.97,7.70771 -2.3691,11.10547 -0.1682,1.43195 -0.9909,4.29915 -1.8516,6.27539 -0.3492,0.80187 -0.6389,1.29068 -0.8418,1.63086 -1.3089,0.9193 -2.2213,2.07024 -2.6094,2.82422 -0.7109,1.38139 -0.8507,2.28613 -0.9921,3.15039 -0.283,1.72852 -0.2789,3.25061 -0.1875,4.84765 0.091,1.59704 0.2801,3.16191 0.705,4.79883 0,0.0182 0.017,0.0423 0.022,0.0605 -0.9112,1.40775 -1.5497,2.88722 -2.1152,4.40039 -0.5648,1.51113 -0.9831,3.05455 -1.1484,4.78515 -0.1654,1.73061 -0.282,3.7639 1.164,6.34766 -1.2474,-2.22917 -0.4576,-1.16014 -0.3437,-0.375 0.1138,0.78514 0.2452,2.03121 0.3593,3.51563 0.2283,2.96884 0.3979,6.93868 0.4395,11.02539 0.067,6.60562 -0.01,10.47706 -0.291,12.94531 -0.2843,2.46825 -0.6476,3.604 -1.6836,6.09375 -3.0937,7.43472 -2.2674,6.20898 -9.9629,13.42969 -6.1915,5.80941 -9.7643,9.21755 -12.3379,12.30468 -2.2405,2.6876 -3.5583,5.48554 -4.4004,8.06446 -0.8436,-0.12659 -1.4523,-0.1673 -2.7363,-0.50586 l -0.068,-0.0195 0.1387,-9.04492 c 0.5229,-33.82181 0.9815,-55.7528 1.5019,-69.09571 0.2603,-6.67145 0.544,-11.22723 0.8223,-13.83398 0.025,-0.23442 0.031,-0.19086 0.057,-0.39453 0.048,-0.0448 0.087,-0.10579 0.1347,-0.15235 2.5161,-0.20601 4.9161,-0.65058 7.7383,-1.25586 2.7726,-0.59462 5.1373,-1.09159 7.6621,-2.81054 2.5248,-1.71895 4.0636,-4.44616 4.916,-6.55469 0.3391,-0.83867 0.7453,-1.70167 1.0332,-2.24414 0.144,-0.27124 0.2666,-0.46924 0.2637,-0.46485 0,0.004 0.2964,0.09 -1.2227,1.22657 1.392,-1.04149 1.4062,-1.35381 1.6661,-1.70508 0.2598,-0.35127 0.4463,-0.63883 0.6386,-0.94336 0.3848,-0.60906 0.7647,-1.26725 1.1856,-2.02539 0.8418,-1.51628 1.8188,-3.4021 2.7988,-5.41406 1.9439,-3.99097 3.2374,-5.86797 3.7734,-6.38672 0.536,-0.51875 0.5282,-0.58384 2.793,-1.00391 0.5286,-0.098 0.5003,-0.11263 0.6055,-0.14648 z m -39.9434,18.33593 c -0.593,0 -1.0635,0.1553 -1.5683,0.26954 0.5344,-0.18141 1.0558,-0.26954 1.5683,-0.26954 z m 41.086,5.38868 c -0.1834,0.0756 -0.32,0.1936 -0.4922,0.28125 0.1637,-0.11045 0.2677,-0.17547 0.4922,-0.28125 z m 5.0898,12.91992 c -0.7167,0.30891 -1.5122,0.5332 -2.4395,0.5332 1.0545,0 1.7247,-0.2858 2.4395,-0.5332 z m -5.8027,9.23047 c 0.447,0.29729 0.6733,0.62699 1.3086,0.88476 -0.1007,-0.0408 -0.4352,-0.12382 -1.17,-0.72265 -0.038,-0.0309 -0.098,-0.1262 -0.1386,-0.16211 z"
         id="path5007"
         inkscape:connector-curvature="0" />
      <path
         inkscape:connector-curvature="0"
         id="ni"
         transform="translate(54.496495,152.04025)"
         d="m 1332.3926,602.38867 c -1.0684,0.008 -2.1599,0.15105 -3.2227,0.46875 -1.8575,0.55544 -3.4061,1.61156 -4.8203,2.82422 -3.0581,0.52874 -6.7602,0.93458 -11.0976,3.26367 -7.5057,4.03036 -21.5119,11.27528 -28.3946,13.61914 -4.6404,1.58013 -7.7067,3.46063 -9.334,4 -1.6273,0.53937 -1.554,0.80288 -4.1875,-0.62109 -0.7267,-0.393 -2.469,-2.56599 -5.707,-5.29688 -1.619,-1.36545 -4.0149,-2.98899 -7.2871,-3.31054 -3.2722,-0.32154 -6.6134,0.95175 -9.2051,2.87304 v -0.002 c -4.4842,3.3227 -6.5279,7.69701 -7.9531,10.72461 -1.4252,3.0276 -2.3114,4.71927 -3.6035,5.78516 -3.7269,3.07437 -5.3561,7.30613 -5.9922,10.22851 -5.5817,2.31776 -11.7042,5.49306 -17.1055,9.85547 -2.4752,1.99914 -4.7828,4.32439 -6.7871,6.90039 -0.3555,-0.79335 -0.6486,-1.405 -1.1133,-2.34375 -0.5313,-1.0734 -1.1231,-2.45131 -3.0078,-3.97265 -1.8846,-1.52134 -5.6203,-2.21567 -7.9414,-1.51172 -4.6421,1.40791 -6.0324,3.80589 -9.0664,7.34179 -0.7601,0.88616 -1.2864,1.94834 -1.5312,3.08985 0.2387,-1.11193 0.2587,-0.59734 -0.4688,0.12304 -0.7794,0.77175 -2.1056,1.80805 -3.5527,2.69922 -2.1662,1.3339 -4.3552,1.90346 -5.2149,2.22461 -3.2401,-1.77423 -6.6835,-2.35194 -10.3515,-2.53125 -4.7505,-0.23223 -10.4126,0.0918 -14.5586,5.29492 -2.3942,3.00318 -2.8185,5.87187 -3.1758,8.66602 -0.3575,2.79528 -0.3911,5.63383 -0.3555,8.40234 0.06,4.65819 0.1086,8.3673 0.061,10.26953 -0.9996,0.35335 -2.0546,0.80453 -3.0879,1.51758 l -0.01,0.004 c -3.671,2.53726 -5.0031,6.43319 -5.4453,7.73633 0.1385,-0.0486 -2.4752,0.35502 -4.9336,0.5039 -2.4838,0.15041 -4.9684,0.21235 -7.1602,0.48438 -0.064,0.008 -0.1277,0.0173 -0.1914,0.0273 -2.1594,0.32898 -4.6029,2.08846 -5.9804,3.98438 -0.6027,-0.31314 -0.9358,-0.50499 -1.7774,-0.88477 -2.4068,-4.42239 -8.5552,-4.93424 -11.6601,-0.9707 -3.8153,4.7351 -4.378,11.11266 -2.9434,16.14258 1.4346,5.02992 4.3027,9.3219 7.5645,13.33007 6.5235,8.01638 15.0812,14.94603 19.7715,18.95704 13.1994,11.28635 18.9578,29.12417 34.5644,43.87109 v 0.002 c 7.6213,7.20095 15.5664,13.11876 18.7539,19.91602 0.014,0.0307 0.028,0.0613 0.043,0.0918 2.7013,5.55077 8.5493,7.56116 13.1152,8.07617 4.5658,0.51502 9.0196,0.0678 12.9883,-0.24024 3.5617,-0.2764 6.3504,-0.28345 7.8418,-0.13086 0.5942,1.95548 2.0133,3.55364 3.8848,4.375 1.732,0.75716 3.9907,1.60036 6.5253,2.19727 2.5346,0.5969 5.1031,1.91546 9.7422,-0.57031 l 0.01,-0.004 c 2.6282,-1.41156 5.3175,-2.38603 8.3516,-3.02539 0.047,0.061 0.1868,0.17394 0.8183,0.61328 1.4304,0.99514 3.9261,3.43537 8.4824,4.21289 4.1706,0.71141 7.0275,-0.32525 8.5508,-0.91797 1.6669,2.01578 3.5034,2.44357 4.5938,2.66797 1.2486,0.25695 2.1345,0.25539 3,0.24219 1.7311,-0.0264 3.323,-0.22491 4.8437,-0.4043 1.0794,-0.12734 1.8737,-0.20187 2.6758,-0.27734 5.1973,4.86405 12.2971,6.08232 19.4024,6.41992 4.1282,0.1961 8.3053,-0.15686 12.2773,-1.44727 3.9721,-1.29033 8.0365,-3.67074 10.4199,-7.98242 0.9447,-1.70921 1.6832,-3.51186 1.8653,-5.6914 0.1821,-2.17953 -0.4627,-4.76808 -1.7559,-6.59375 -2.5863,-3.65133 -5.712,-4.257 -7.9824,-4.83985 -2.2704,-0.58285 -4.2655,-0.88852 -5.4961,-1.21679 -0.377,-0.10057 -0.4203,-0.15653 -0.5645,-0.23438 -2.1503,-4.36075 -4.5027,-7.44109 -5.0976,-8.55859 -0.3503,-0.658 -0.2383,-0.45358 -0.2344,-0.51367 0,-0.0601 0.089,-0.77753 1.1133,-2.43946 v -0.002 c 1.4043,-2.27612 2.0105,-4.31599 2.6699,-6.97266 0.6597,-2.6573 1.1496,-5.64217 1.0527,-8.83008 -0.092,-3.03628 -0.6149,-6.67142 -3.6054,-9.8125 1.3777,-1.36808 2.1254,-3.24688 2.0644,-5.1875 -0.1272,-3.87796 1.0151,-8.59362 1.4688,-14.31835 0,-0.0332 -6e-4,-0.0721 0,-0.10547 3.5292,-1.35242 6.3011,-4.26694 7.5879,-7.05469 1.5835,-3.4306 2.0215,-6.83021 2.2812,-10.17383 0.5193,-6.68642 0.2139,-13.91138 0.4961,-15.61328 v -0.002 c 2.7217,-16.36642 0.9838,-30.86486 5.0098,-44.04102 v -0.002 c 1.4672,-4.79656 4.0251,-8.58481 7.1933,-12.93555 3.1686,-4.35128 6.9768,-9.22171 9.5723,-15.83203 3.4746,-8.8418 0.1252,-17.01017 -2.0059,-23.21875 -0.8766,-2.55405 -1.4517,-4.58246 -1.8652,-6.38672 2.4299,-0.79541 4.0488,-2.23682 5.1582,-3.37695 2.6864,-2.76088 4.5396,-4.55252 3.4668,-4.04883 4.3348,-2.03539 5.3922,-7.72471 2.0781,-11.18164 -2.5599,-2.67069 -5.0902,-5.67077 -9.6191,-7.48242 -1.1312,-0.45249 -2.4545,-0.77601 -3.8496,-0.88086 v 0 c -0.348,-0.0259 -0.6999,-0.0378 -1.0547,-0.0352 z m -9.5977,17.99414 c -1.2568,3.38475 -1.2778,6.87929 -0.7969,9.86328 0.5948,3.68994 1.7839,6.98627 2.8458,10.08008 2.1239,6.18761 3.2081,11.03832 2.2187,13.55469 v 0.002 c -1.7238,4.39039 -4.5523,8.16548 -7.8594,12.70703 -3.3072,4.54155 -7.0623,9.89398 -9.2617,17.08594 -4.9716,16.26867 -3.2842,31.25575 -5.3223,44.7832 -2.7131,1.42057 -4.8623,4.03804 -5.6113,6.04883 -0.9234,2.47879 -1.0178,4.20533 -1.2734,5.4375 -0.2556,1.23217 -0.5136,1.81415 -0.7227,2.10157 -0.2091,0.28741 -0.383,0.61917 -1.959,1.12304 -4.6527,1.48779 -6.3898,7.16274 -3.3672,11 2.4416,3.09872 2.6343,5.39814 2.3106,9.48242 -0.024,0.30206 -0.1061,0.72725 -0.1406,1.04297 -1.2686,0.96768 -2.1685,2.33965 -2.5508,3.88867 -0.038,0.15727 -0.032,0.32223 -0.066,0.48047 l -0.033,-0.006 c -0.6813,3.97845 -5.2053,9.98178 -5.168,19.34961 0.018,4.20678 3.7159,7.44772 7.8887,6.91407 -0.046,1.27027 -0.1863,2.79168 -0.5391,4.21289 -0.4202,1.69275 -1.2186,3.35127 -0.998,2.99609 -1.776,2.87896 -2.9631,5.77385 -3.168,8.86328 -0.2049,3.08942 0.7583,5.98048 1.8438,8.01953 2.171,4.07809 4.228,5.9673 5.6152,9.37696 0.2048,0.50408 0.4676,0.98257 0.7832,1.42578 2.4886,3.49213 5.5712,4.27838 7.8867,4.89453 -1.502,0.23839 -3.1502,0.38912 -4.9277,0.30469 -5.5525,-0.26371 -11.1772,-3.38508 -11.1856,-3.39649 -0.3216,-0.43528 -0.6925,-0.83181 -1.1054,-1.18164 -2.275,-1.92732 -3.7041,-1.8079 -4.7539,-1.91601 -1.0497,-0.10812 -1.8656,-0.079 -2.6797,-0.0352 -1.6284,0.0877 -3.2011,0.29491 -4.6582,0.4668 -0.9116,0.10755 -1.4656,0.13835 -2.1387,0.19336 -1.1528,-1.09132 -2.4464,-2.04141 -4.0215,-2.60547 -2.7418,-0.98185 -5.4237,-0.56762 -7.0215,-0.13282 -3.1941,0.86918 -3.4568,1.1206 -3.8105,1.06055 0.2753,0.047 -0.7016,-0.41729 -2.8418,-1.90625 -2.1394,-1.48836 -6.3783,-3.92167 -11.3535,-2.90625 -3.8788,0.78703 -7.5361,2.04007 -10.9766,3.73047 -0.1759,0.0436 -0.737,0.1791 -1.373,0.0293 -0.3955,-0.0931 -0.7726,-0.27399 -1.2129,-0.41016 -0.5069,-1.05578 -1.1139,-2.05823 -1.92,-2.86133 -2.19,-2.18192 -4.7291,-3.00727 -6.9277,-3.43359 -4.3972,-0.85262 -8.4633,-0.37862 -12.4863,-0.0664 -4.023,0.3122 -7.9105,0.55853 -10.334,0.28516 -1.7654,-0.19913 -2.1204,-0.38478 -2.1445,-0.38086 -5.3589,-11.26956 -15.2509,-17.85392 -21.7227,-23.96875 -12.3953,-11.71254 -18.309,-29.99392 -35.082,-44.33594 v 0.002 c -4.9338,-4.21922 -12.837,-10.79545 -18.0117,-17.15429 -0.995,-1.22272 -1.7505,-2.38735 -2.4864,-3.53321 1.0894,0.42029 2.3095,0.85205 3.8946,1.30469 3.0364,0.86716 6.2774,-0.40573 7.9121,-3.10742 0.979,-1.61871 1.2081,-2.83199 1.2656,-3.86719 0.6419,-0.037 0.8862,-0.0594 1.5508,-0.0996 2.69,-0.1629 5.1053,-0.17234 8.0996,-1.05664 2.3328,-0.68698 4.5436,-1.85838 6.1758,-3.55273 1.6321,-1.69434 2.4201,-3.62344 2.8144,-4.75196 0.2514,-0.71948 0.3264,-1.02761 0.3535,-1.20898 0.2184,-0.0248 0.5792,-0.0813 1.3203,-0.22461 1.2627,-0.24419 3.8182,-1.24233 5.3633,-3.12695 1.5441,-1.88333 2.0018,-3.74284 2.3028,-5.48242 v -0.004 c 0.8567,-4.93743 0.1985,-9.82293 0.1347,-14.77734 -0.032,-2.47786 0.033,-4.81346 0.2422,-6.44727 0.082,-0.64123 0.2167,-1.02425 0.3262,-1.36914 0.4514,-0.1086 1.4272,-0.45373 2.8379,-0.38477 2.3706,0.11589 5.2116,1.44719 4.9375,1.22071 1.0214,0.84434 2.2615,1.38143 3.5761,1.54883 6.362,0.80816 10.6547,-1.7995 15.0782,-4.52344 2.2117,-1.36196 4.2677,-2.8947 6.0625,-4.67188 0.8734,-0.86486 1.7443,-1.75127 2.498,-2.84179 1.7422,2.94905 4.3768,6.33449 8.5098,8.92968 4.2057,2.64037 9.747,0.18425 10.6152,-4.70507 0.5482,-3.08906 3.0848,-6.71336 7.2363,-10.06641 3.9416,-3.18343 9.0789,-5.952 13.6993,-7.87891 2.2977,-0.39199 5.0187,-1.44215 6.709,-4.00586 2.0385,-3.09183 1.5191,-5.23771 1.5312,-6.06445 0.024,-1.6535 -0.909,-0.42982 1.2715,-2.22852 4.2071,-3.47053 6.0025,-7.73443 7.3613,-10.62109 1.2196,-2.59088 2.0662,-3.9869 3.2461,-5.02344 1.1839,1.22092 3.2821,4.06155 7.582,6.38672 5.2946,2.86289 11.1779,2.94542 15.25,1.59571 4.0722,-1.34971 6.5949,-3.06713 9.4434,-4.03711 9.3799,-3.19424 22.8827,-10.44475 30.5039,-14.53711 0.7399,-0.39729 1.7802,-0.64024 2.916,-0.89649 z m -203.5586,103.34571 c 0.01,0.0709 0.03,0.33232 0.031,0.36914 0,0.10467 -0.082,-0.007 -0.031,-0.36914 z m 78.2735,96.28906 c 0.01,0.0108 0.01,0.007 0.016,0.0215 l 0.043,0.0918 c -0.018,-0.0389 -0.04,-0.0744 -0.059,-0.11328 z m 77.5293,10.82812 c 0.2452,0.21433 0.4927,0.53538 0.7461,0.84766 -0.2224,-0.30125 -0.5033,-0.55893 -0.7461,-0.84766 z"
         style="color:#000000;font-style:normal;font-variant:normal;font-weight:normal;font-stretch:normal;font-size:medium;line-height:normal;font-family:sans-serif;font-variant-ligatures:normal;font-variant-position:normal;font-variant-caps:normal;font-variant-numeric:normal;font-variant-alternates:normal;font-feature-settings:normal;text-indent:0;text-align:start;text-decoration:none;text-decoration-line:none;text-decoration-style:solid;text-decoration-color:#000000;letter-spacing:normal;word-spacing:normal;text-transform:none;writing-mode:lr-tb;direction:ltr;text-orientation:mixed;dominant-baseline:auto;baseline-shift:baseline;text-anchor:start;white-space:normal;shape-padding:0;clip-rule:nonzero;display:inline;overflow:visible;visibility:visible;opacity:1;isolation:auto;mix-blend-mode:normal;color-interpolation:sRGB;color-interpolation-filters:linearRGB;solid-color:#000000;solid-opacity:1;vector-effect:none;fill:#000000;fill-opacity:1;fill-rule:nonzero;stroke:none;stroke-width:14;stroke-linecap:round;stroke-linejoin:round;stroke-miterlimit:4;stroke-dasharray:none;stroke-dashoffset:0;stroke-opacity:1;paint-order:markers fill stroke;color-rendering:auto;image-rendering:auto;shape-rendering:auto;text-rendering:auto;enable-background:accumulate"
         sodipodi:nodetypes="cccccscccccsccccccccccccscccccccccccccsccccccccccccccscccscccccscscccccccccccccccccccccccccccccccccccccccsccccccccccccsccccccccccccccccccccccccccccccccccccccccccccccccccccccsccccccccccccccccccccc" />
    </g>
  </g>
</svg>
