<?xml version="1.0" encoding="UTF-8" standalone="no"?>
<!-- Created with Inkscape (http://www.inkscape.org/) -->

<svg
   xmlns:dc="http://purl.org/dc/elements/1.1/"
   xmlns:cc="http://creativecommons.org/ns#"
   xmlns:rdf="http://www.w3.org/1999/02/22-rdf-syntax-ns#"
   xmlns:svg="http://www.w3.org/2000/svg"
   xmlns="http://www.w3.org/2000/svg"
   xmlns:sodipodi="http://sodipodi.sourceforge.net/DTD/sodipodi-0.dtd"
   xmlns:inkscape="http://www.inkscape.org/namespaces/inkscape"
   id="svg2"
   version="1.1"
   inkscape:version="0.92.2 (unknown)"
   width="1340.2804"
   height="685.28052"
   viewBox="0 0 1256.5129 642.4505"
   sodipodi:docname="logoPanama_MozillaCOLOR.svg"
   inkscape:export-filename="/media/keik/Datos/GITHUB/logosMozCA/PorPais/Panama/LogoPanama_MozillaCOLOR.png"
   inkscape:export-xdpi="300"
   inkscape:export-ydpi="300">
  <title
     id="title4536">LogoMozillaHonduras</title>
  <metadata
     id="metadata8">
    <rdf:RDF>
      <cc:Work
         rdf:about="">
        <dc:format>image/svg+xml</dc:format>
        <dc:type
           rdf:resource="http://purl.org/dc/dcmitype/StillImage" />
        <dc:title>LogoMozillaHonduras</dc:title>
        <cc:license
           rdf:resource="http://creativecommons.org/licenses/by-nd/4.0/" />
        <dc:creator>
          <cc:Agent>
            <dc:title>KarlaLHdz</dc:title>
          </cc:Agent>
        </dc:creator>
        <dc:source>Mozilla El Salvador</dc:source>
        <dc:description>Hecho para Mozilla Centroamerica en el año 2017</dc:description>
      </cc:Work>
      <cc:License
         rdf:about="http://creativecommons.org/licenses/by-nd/4.0/">
        <cc:permits
           rdf:resource="http://creativecommons.org/ns#Reproduction" />
        <cc:permits
           rdf:resource="http://creativecommons.org/ns#Distribution" />
        <cc:requires
           rdf:resource="http://creativecommons.org/ns#Notice" />
        <cc:requires
           rdf:resource="http://creativecommons.org/ns#Attribution" />
      </cc:License>
    </rdf:RDF>
  </metadata>
  <defs
     id="defs6" />
  <sodipodi:namedview
     pagecolor="#ffffff"
     bordercolor="#666666"
     borderopacity="1"
     objecttolerance="10"
     gridtolerance="10"
     guidetolerance="10"
     inkscape:pageopacity="0"
     inkscape:pageshadow="2"
     inkscape:window-width="1332"
     inkscape:window-height="715"
     id="namedview4"
     showgrid="false"
     showborder="true"
     inkscape:zoom="0.53794714"
     inkscape:cx="671.99912"
     inkscape:cy="342.64026"
     inkscape:window-x="34"
     inkscape:window-y="0"
     inkscape:window-maximized="1"
     inkscape:current-layer="layer2"
     borderlayer="true"
     inkscape:showpageshadow="false"
     units="px"
     showguides="true"
     fit-margin-top="0"
     fit-margin-left="0"
     fit-margin-right="0"
     fit-margin-bottom="0"
     inkscape:guide-bbox="true"
     inkscape:measure-start="0,0"
     inkscape:measure-end="0,0">
    <sodipodi:guide
       position="1090.1971,627.5121"
       orientation="1,0"
       id="guide1228"
       inkscape:locked="false" />
    <sodipodi:guide
       position="166.31595,476.13455"
       orientation="1,0"
       id="guide1321"
       inkscape:locked="false" />
    <sodipodi:guide
       position="1090.197,476.13455"
       orientation="0,1"
       id="guide1343"
       inkscape:locked="false" />
    <sodipodi:guide
       position="1090.197,166.31595"
       orientation="0,1"
       id="guide1345"
       inkscape:locked="false" />
  </sodipodi:namedview>
  <g
     inkscape:groupmode="layer"
     id="layer2"
     inkscape:label="Layer 2"
     style="opacity:1"
     transform="translate(-29.083954,391.35416)">
    <rect
       style="opacity:1;fill:#ffffff;fill-opacity:1;stroke:none;stroke-width:27.00563431;stroke-linecap:round;stroke-linejoin:round;stroke-miterlimit:4;stroke-dasharray:none;stroke-dashoffset:0;stroke-opacity:1;paint-order:stroke markers fill"
       id="rect909"
       width="402.20483"
       height="113.85219"
       x="717.07642"
       y="-29.0718"
       rx="9.9019089"
       ry="1.9059956" />
    <g
       aria-label="panamá"
       style="font-style:normal;font-variant:normal;font-weight:normal;font-stretch:normal;font-size:117.13467407px;line-height:1;font-family:'Zilla Slab Highlight';-inkscape-font-specification:'Zilla Slab Highlight';text-align:center;letter-spacing:0px;word-spacing:0px;text-anchor:middle;fill:#005293;fill-opacity:1;stroke:none;stroke-width:12.55014229"
       id="text4512-6">
      <path
         style="font-style:normal;font-variant:normal;font-weight:normal;font-stretch:normal;font-family:'Zilla Slab Highlight';-inkscape-font-specification:'Zilla Slab Highlight';fill:#005293;fill-opacity:1;stroke-width:13.38681793"
         d="M 733.74414 366.69922 L 733.74414 507.88672 L 736.61719 507.88672 L 736.61719 500.76367 L 746.48828 500.76367 L 746.48828 432.79492 L 736.49219 432.79492 L 736.49219 425.67188 L 755.23438 425.67188 L 755.23438 437.29297 C 756.06733 435.62705 757.06628 434.04425 758.23242 432.54492 C 759.48186 430.9623 760.89785 429.58802 762.48047 428.42188 C 764.14638 427.25573 765.97942 426.33824 767.97852 425.67188 C 770.06091 424.92221 772.39244 424.54883 774.97461 424.54883 C 778.55633 424.54883 781.80535 425.17244 784.7207 426.42188 C 787.63605 427.67131 790.1344 429.46264 792.2168 431.79492 C 794.38249 434.1272 796.0487 437.00089 797.21484 440.41602 C 798.38098 443.74785 798.96484 447.57878 798.96484 451.91016 C 798.96484 455.65847 798.46439 459.36624 797.46484 463.03125 C 796.54859 466.61297 795.04919 469.86199 792.9668 472.77734 C 790.9677 475.6927 788.34424 478.06593 785.0957 479.89844 C 781.93047 481.64765 778.09759 482.52148 773.59961 482.52148 C 769.60142 482.52148 766.02071 481.73106 762.85547 480.14844 C 759.69023 478.56582 757.15017 476.23429 755.23438 473.15234 L 755.23438 500.76367 L 768.10352 500.76367 L 768.10352 507.88672 L 801.82812 507.88672 L 804.83594 507.88672 L 864.67383 507.88672 L 935.83203 507.88672 L 995.71875 507.88672 L 1103.1094 507.88672 L 1162.8809 507.88672 L 1162.8809 366.69922 L 1103.1094 366.69922 L 995.71875 366.69922 L 935.83203 366.69922 L 864.67383 366.69922 L 804.83594 366.69922 L 801.82812 366.69922 L 733.74414 366.69922 z M 1143.3887 395.93555 L 1148.3867 403.30859 L 1126.8965 416.30273 L 1124.1465 412.42969 L 1143.3887 395.93555 z M 832.81445 424.54883 C 839.31152 424.54883 844.22481 426.08993 847.55664 429.17188 C 850.97177 432.25382 852.67969 436.91688 852.67969 443.16406 L 852.67969 469.65234 C 852.67969 473.65054 854.26249 475.65039 857.42773 475.65039 C 858.76046 475.65039 860.00964 475.40017 861.17578 474.90039 L 861.30078 480.64844 C 860.30124 481.23151 859.17717 481.6883 857.92773 482.02148 C 856.6783 482.35467 855.38742 482.52148 854.05469 482.52148 C 850.80615 482.52148 848.30781 481.52254 846.55859 479.52344 C 844.89268 477.52434 844.01689 474.77577 843.93359 471.27734 L 843.93359 471.02734 C 842.18439 474.02599 839.68604 476.69116 836.4375 479.02344 C 833.27227 481.35572 829.44134 482.52148 824.94336 482.52148 C 823.11085 482.52148 821.19441 482.27321 819.19531 481.77344 C 817.19622 481.27366 815.36319 480.43958 813.69727 479.27344 C 812.11465 478.024 810.78206 476.39949 809.69922 474.40039 C 808.61637 472.40129 808.07422 469.90294 808.07422 466.9043 C 808.07422 463.40587 808.82489 460.57389 810.32422 458.4082 C 811.90684 456.15922 813.90669 454.40959 816.32227 453.16016 C 818.82114 451.82742 821.61142 450.95359 824.69336 450.53711 C 827.77531 450.03733 830.89726 449.78711 834.0625 449.78711 C 835.72841 449.78711 837.39463 449.82881 839.06055 449.91211 C 840.80976 449.99541 842.43427 450.12052 843.93359 450.28711 L 843.93359 445.28906 C 843.93359 441.29087 843.05975 438.04184 841.31055 435.54297 C 839.64463 433.0441 836.3122 431.79492 831.31445 431.79492 C 829.39865 431.79492 827.52391 431.96174 825.69141 432.29492 C 823.94219 432.62811 822.23623 433.21196 820.57031 434.04492 L 818.44531 443.66406 L 811.19922 442.79102 L 813.19727 429.92188 C 816.11262 428.00607 819.19483 426.62983 822.44336 425.79688 C 825.69189 424.96392 829.14944 424.54883 832.81445 424.54883 z M 904.5957 424.54883 C 907.34447 424.54883 909.88452 424.96392 912.2168 425.79688 C 914.54908 426.62983 916.54893 427.92266 918.21484 429.67188 C 919.96406 431.33779 921.29664 433.5025 922.21289 436.16797 C 923.21244 438.83343 923.71289 441.99905 923.71289 445.66406 L 923.71289 474.15039 L 932.87305 474.15039 L 932.87305 481.27344 L 905.2207 481.27344 L 905.2207 474.15039 L 914.8418 474.15039 L 914.8418 448.28711 C 914.8418 442.28981 913.63432 438.08355 911.21875 435.66797 C 908.80317 433.1691 905.72097 431.91992 901.97266 431.91992 C 899.47378 431.91992 897.182 432.37867 895.09961 433.29492 C 893.10051 434.21118 891.35284 435.41865 889.85352 436.91797 C 888.43749 438.41729 887.31148 440.16692 886.47852 442.16602 C 885.64556 444.08182 885.18877 446.07972 885.10547 448.16211 L 885.10547 474.15039 L 894.84961 474.15039 L 894.84961 481.27344 L 866.61328 481.27344 L 866.61328 474.15039 L 876.35938 474.15039 L 876.35938 432.79492 L 866.36328 432.79492 L 866.36328 425.67188 L 885.10547 425.67188 L 885.10547 435.54297 C 887.02127 432.04455 889.60303 429.33768 892.85156 427.42188 C 896.1834 425.50607 900.09773 424.54883 904.5957 424.54883 z M 963.85938 424.54883 C 970.35645 424.54883 975.26974 426.08993 978.60156 429.17188 C 982.01669 432.25382 983.72461 436.91688 983.72461 443.16406 L 983.72461 469.65234 C 983.72461 473.65054 985.30742 475.65039 988.47266 475.65039 C 989.80539 475.65039 991.05457 475.40017 992.2207 474.90039 L 992.3457 480.64844 C 991.34615 481.23151 990.22209 481.6883 988.97266 482.02148 C 987.72322 482.35467 986.43234 482.52148 985.09961 482.52148 C 981.85107 482.52148 979.35077 481.52254 977.60156 479.52344 C 975.93564 477.52434 975.06181 474.77577 974.97852 471.27734 L 974.97852 471.02734 C 973.2293 474.02599 970.73096 476.69116 967.48242 479.02344 C 964.31718 481.35572 960.4843 482.52148 955.98633 482.52148 C 954.15382 482.52148 952.23933 482.27321 950.24023 481.77344 C 948.24114 481.27366 946.4081 480.43958 944.74219 479.27344 C 943.15957 478.024 941.82699 476.39949 940.74414 474.40039 C 939.6613 472.40129 939.11914 469.90294 939.11914 466.9043 C 939.11914 463.40587 939.86982 460.57389 941.36914 458.4082 C 942.95176 456.15922 944.94965 454.40959 947.36523 453.16016 C 949.86411 451.82742 952.65439 450.95359 955.73633 450.53711 C 958.81827 450.03733 961.94218 449.78711 965.10742 449.78711 C 966.77333 449.78711 968.43955 449.82881 970.10547 449.91211 C 971.85467 449.99541 973.47919 450.12052 974.97852 450.28711 L 974.97852 445.28906 C 974.97852 441.29087 974.10468 438.04184 972.35547 435.54297 C 970.68956 433.0441 967.35712 431.79492 962.35938 431.79492 C 960.44357 431.79492 958.56883 431.96174 956.73633 432.29492 C 954.98712 432.62811 953.2792 433.21196 951.61328 434.04492 L 949.49023 443.66406 L 942.24219 442.79102 L 944.24219 429.92188 C 947.15754 428.00607 950.23975 426.62983 953.48828 425.79688 C 956.73682 424.96392 960.19437 424.54883 963.85938 424.54883 z M 1034.7656 424.54883 C 1039.097 424.54883 1042.8465 425.63119 1046.0117 427.79688 C 1049.2603 429.87927 1051.4667 433.25341 1052.6328 437.91797 C 1054.2987 434.00307 1056.7554 430.79575 1060.0039 428.29688 C 1063.3357 425.798 1067.4169 424.54883 1072.248 424.54883 C 1077.579 424.54883 1081.9937 426.25675 1085.4922 429.67188 C 1089.0739 433.00371 1090.8652 438.33404 1090.8652 445.66406 L 1090.8652 474.15039 L 1100.0332 474.15039 L 1100.0332 481.27344 L 1073.998 481.27344 L 1073.998 474.15039 L 1082.1191 474.15039 L 1082.1191 448.28711 C 1082.1191 442.28981 1080.9533 438.08355 1078.6211 435.66797 C 1076.2888 433.1691 1073.2483 431.91992 1069.5 431.91992 C 1066.9179 431.91992 1064.6281 432.46208 1062.6289 433.54492 C 1060.7131 434.62777 1059.0886 436.00205 1057.7559 437.66797 C 1056.4231 439.33388 1055.3825 441.16496 1054.6328 443.16406 C 1053.9664 445.07986 1053.5911 446.9129 1053.5078 448.66211 L 1053.5078 474.15039 L 1063.1289 474.15039 L 1063.1289 481.27344 L 1036.6406 481.27344 L 1036.6406 474.15039 L 1044.6367 474.15039 L 1044.6367 448.28711 C 1044.6367 442.20652 1043.4709 437.95855 1041.1387 435.54297 C 1038.8896 433.12739 1035.9326 431.91992 1032.2676 431.91992 C 1029.6854 431.91992 1027.3936 432.46208 1025.3945 433.54492 C 1023.3954 434.54447 1021.7292 435.87705 1020.3965 437.54297 C 1019.0638 439.12559 1018.0231 440.91692 1017.2734 442.91602 C 1016.6071 444.83182 1016.2317 446.6629 1016.1484 448.41211 L 1016.1484 474.15039 L 1026.3945 474.15039 L 1026.3945 481.27344 L 997.6582 481.27344 L 997.6582 474.15039 L 1007.4023 474.15039 L 1007.4023 432.79492 L 997.5332 432.79492 L 997.5332 425.67188 L 1016.1484 425.67188 L 1016.1484 436.04297 C 1017.9809 432.62784 1020.3978 429.87927 1023.3965 427.79688 C 1026.4784 425.63119 1030.2677 424.54883 1034.7656 424.54883 z M 1131.0195 424.54883 C 1137.5166 424.54883 1142.4299 426.08993 1145.7617 429.17188 C 1149.1769 432.25382 1150.8848 436.91688 1150.8848 443.16406 L 1150.8848 469.65234 C 1150.8848 473.65054 1152.4676 475.65039 1155.6328 475.65039 C 1156.9655 475.65039 1158.2147 475.40017 1159.3809 474.90039 L 1159.5059 480.64844 C 1158.5063 481.23151 1157.3822 481.6883 1156.1328 482.02148 C 1154.8834 482.35467 1153.5925 482.52148 1152.2598 482.52148 C 1149.0113 482.52148 1146.5129 481.52254 1144.7637 479.52344 C 1143.0978 477.52434 1142.222 474.77577 1142.1387 471.27734 L 1142.1387 471.02734 C 1140.3895 474.02599 1137.8911 476.69116 1134.6426 479.02344 C 1131.4774 481.35572 1127.6464 482.52148 1123.1484 482.52148 C 1121.3159 482.52148 1119.3995 482.27321 1117.4004 481.77344 C 1115.4012 481.27366 1113.5683 480.43958 1111.9023 479.27344 C 1110.3198 478.024 1108.9872 476.39949 1107.9043 474.40039 C 1106.8215 472.40129 1106.2812 469.90294 1106.2812 466.9043 C 1106.2812 463.40587 1107.03 460.57389 1108.5293 458.4082 C 1110.1119 456.15922 1112.1118 454.40959 1114.5273 453.16016 C 1117.0262 451.82742 1119.8165 450.95359 1122.8984 450.53711 C 1125.9804 450.03733 1129.1043 449.78711 1132.2695 449.78711 C 1133.9355 449.78711 1135.5997 449.82881 1137.2656 449.91211 C 1139.0148 449.99541 1140.6394 450.12052 1142.1387 450.28711 L 1142.1387 445.28906 C 1142.1387 441.29087 1141.2648 438.04184 1139.5156 435.54297 C 1137.8497 433.0441 1134.5173 431.79492 1129.5195 431.79492 C 1127.6037 431.79492 1125.7309 431.96174 1123.8984 432.29492 C 1122.1492 432.62811 1120.4413 433.21196 1118.7754 434.04492 L 1116.6504 443.66406 L 1109.4043 442.79102 L 1111.4023 429.92188 C 1114.3177 428.00607 1117.3999 426.62983 1120.6484 425.79688 C 1123.8969 424.96392 1127.3545 424.54883 1131.0195 424.54883 z M 772.72656 432.04492 C 770.22769 432.04492 767.93591 432.62878 765.85352 433.79492 C 763.77113 434.87777 761.94004 436.29376 760.35742 438.04297 C 758.85809 439.79218 757.64867 441.74837 756.73242 443.91406 C 755.81617 446.07975 755.31767 448.20472 755.23438 450.28711 L 755.23438 458.5332 C 755.23438 460.86548 755.64947 463.0302 756.48242 465.0293 C 757.39867 467.0284 758.60809 468.77802 760.10742 470.27734 C 761.60674 471.77667 763.35441 472.94243 765.35352 473.77539 C 767.35261 474.60835 769.51928 475.02539 771.85156 475.02539 C 774.9335 475.02539 777.59867 474.44153 779.84766 473.27539 C 782.17994 472.02595 784.05467 470.36169 785.4707 468.2793 C 786.88673 466.1969 787.92739 463.82171 788.59375 461.15625 C 789.34342 458.49079 789.71875 455.6588 789.71875 452.66016 C 789.71875 445.9132 788.09424 440.79139 784.8457 437.29297 C 781.68047 433.79455 777.64102 432.04492 772.72656 432.04492 z M 833.56445 455.53516 C 831.48206 455.53516 829.4405 455.70002 827.44141 456.0332 C 825.5256 456.28309 823.77598 456.78354 822.19336 457.5332 C 820.69404 458.28286 819.48656 459.32352 818.57031 460.65625 C 817.65405 461.98898 817.19531 463.73861 817.19531 465.9043 C 817.19531 467.65351 817.48724 469.15291 818.07031 470.40234 C 818.73667 471.56848 819.57076 472.52573 820.57031 473.27539 C 821.56986 474.02505 822.65222 474.56721 823.81836 474.90039 C 825.0678 475.15028 826.31697 475.27539 827.56641 475.27539 C 829.48221 475.27539 831.39865 474.94176 833.31445 474.27539 C 835.23025 473.52573 836.93622 472.52678 838.43555 471.27734 C 839.93487 469.94461 841.18599 468.3618 842.18555 466.5293 C 843.1851 464.69679 843.76701 462.65524 843.93359 460.40625 L 843.93359 456.1582 C 842.35098 455.99161 840.68476 455.86845 838.93555 455.78516 C 837.26963 455.61856 835.48025 455.53516 833.56445 455.53516 z M 964.60742 455.53516 C 962.52503 455.53516 960.48542 455.70002 958.48633 456.0332 C 956.57052 456.28309 954.8209 456.78354 953.23828 457.5332 C 951.73896 458.28286 950.53149 459.32352 949.61523 460.65625 C 948.69898 461.98898 948.24023 463.73861 948.24023 465.9043 C 948.24023 467.65351 948.53217 469.15291 949.11523 470.40234 C 949.7816 471.56848 950.61374 472.52573 951.61328 473.27539 C 952.61283 474.02505 953.69714 474.56721 954.86328 474.90039 C 956.11272 475.15028 957.36189 475.27539 958.61133 475.27539 C 960.52713 475.27539 962.44162 474.94176 964.35742 474.27539 C 966.27323 473.52573 967.98115 472.52678 969.48047 471.27734 C 970.9798 469.94461 972.22897 468.3618 973.22852 466.5293 C 974.22807 464.69679 974.81192 462.65524 974.97852 460.40625 L 974.97852 456.1582 C 973.3959 455.99161 971.72968 455.86845 969.98047 455.78516 C 968.31456 455.61856 966.52323 455.53516 964.60742 455.53516 z M 1131.7695 455.53516 C 1129.6872 455.53516 1127.6456 455.70002 1125.6465 456.0332 C 1123.7307 456.28309 1121.9811 456.78354 1120.3984 457.5332 C 1118.8991 458.28286 1117.6917 459.32352 1116.7754 460.65625 C 1115.8591 461.98898 1115.4023 463.73861 1115.4023 465.9043 C 1115.4023 467.65351 1115.6923 469.15291 1116.2754 470.40234 C 1116.9417 471.56848 1117.7759 472.52573 1118.7754 473.27539 C 1119.775 474.02505 1120.8574 474.56721 1122.0234 474.90039 C 1123.2729 475.15028 1124.5221 475.27539 1125.7715 475.27539 C 1127.6873 475.27539 1129.6037 474.94176 1131.5195 474.27539 C 1133.4353 473.52573 1135.1433 472.52678 1136.6426 471.27734 C 1138.1419 469.94461 1139.3911 468.3618 1140.3906 466.5293 C 1141.3902 464.69679 1141.9721 462.65524 1142.1387 460.40625 L 1142.1387 456.1582 C 1140.5561 455.99161 1138.8899 455.86845 1137.1406 455.78516 C 1135.4747 455.61856 1133.6853 455.53516 1131.7695 455.53516 z "
         transform="matrix(0.93750002,0,0,0.93750002,29.083954,-391.35416)"
         id="path911" />
    </g>
    <rect
       x="600.0545"
       id="rect4"
       height="148.41222"
       width="519.22644"
       y="-225.03821"
       style="opacity:1;stroke-width:1.44229567;fill:#aa0000;fill-opacity:1" />
    <path
       style="opacity:1;fill:#ffffff;stroke-width:1.44229567"
       inkscape:connector-curvature="0"
       id="path6"
       d="m 1095.9157,-118.45254 c -1.0095,0.28846 -1.8749,0.43269 -2.7403,0.43269 -3.0289,0 -4.4712,-1.29807 -4.4712,-5.04803 v -28.12477 c 0,-14.85564 -11.8268,-22.06712 -25.817,-22.06712 -10.673,0 -16.4422,1.29806 -27.8364,5.91341 l -2.3076,14.99987 14.8556,1.58653 2.1635,-7.35571 c 3.0288,-1.58652 6.0576,-1.87498 9.9519,-1.87498 10.5286,0 10.6729,7.93262 10.6729,14.56718 v 2.16345 c -3.3173,-0.43269 -7.0673,-0.57692 -10.6729,-0.57692 -14.8557,0 -30.2883,3.74997 -30.2883,19.75945 0,13.55759 10.673,18.60561 20.0479,18.60561 10.5288,0 17.1634,-6.3461 20.9133,-12.98066 0.8654,7.93264 5.6249,12.98066 14.2787,12.98066 4.0384,0 8.2212,-1.15383 11.6827,-3.02881 z m -39.8073,-0.43269 c -5.625,0 -7.6442,-3.31728 -7.6442,-7.49993 0,-7.06725 5.7692,-8.94224 12.4038,-8.94224 3.0287,0 6.3461,0.43269 9.3748,0.86538 -0.4326,10.81722 -7.4999,15.57679 -14.1344,15.57679 z m -24.9518,-87.25888 -28.1247,99.0857 h -18.31719 l 28.12479,-99.0857 z m -37.78811,0 -28.12476,99.0857 h -18.31717 l 28.12477,-99.0857 z m -77.88397,34.1824 h 19.471 v 23.36519 h -19.471 z m 0,41.68235 h 19.471 v 23.36518 h -19.471 z m -28.41324,-0.86538 14.71144,1.4423 -4.03843,22.78826 h -56.68224 l -1.87498,-9.8076 35.76893,-41.10543 h -20.33636 l -2.88461,10.09607 -13.41334,-1.4423 2.30768,-22.78827 h 56.97069 l 1.4423,9.80761 -36.05742,41.10543 h 21.05753 z m -93.02807,-42.11503 c -23.36519,0 -34.90355,15.72102 -34.90355,34.75932 0,20.76906 13.84604,33.02857 33.89395,33.02857 20.76906,0 35.76892,-13.12489 35.76892,-33.89394 0,-18.17293 -11.39413,-33.89395 -34.75932,-33.89395 z m -0.43268,53.36494 c -10.09608,0 -15.28834,-8.65378 -15.28834,-19.90368 0,-12.25952 5.91341,-19.32677 15.43257,-19.32677 8.798,0 15.86524,5.91342 15.86524,19.03831 0,12.54797 -6.34609,20.19214 -16.00947,20.19214 z m -51.2015,-1.29807 h 8.65378 v 14.13449 h -27.11515 v -36.49007 c 0,-11.24991 -3.74998,-15.5768 -11.10569,-15.5768 -8.94224,0 -12.54796,6.34611 -12.54796,15.43257 v 22.64404 h 8.65376 v 14.13449 h -27.25939 v -36.6343 c 0,-11.24991 -3.74996,-15.5768 -11.10567,-15.5768 -8.94223,0 -12.54797,6.34611 -12.54797,15.43257 v 22.64404 h 12.40374 v 14.13449 h -39.51891 v -14.13449 h 8.65377 v -36.77854 h -8.65377 v -14.1345 h 27.2594 v 9.80761 c 3.89419,-6.92302 10.67298,-11.10567 19.75945,-11.10567 9.37493,0 18.02869,4.47111 21.20174,13.99026 3.60574,-8.65377 10.96144,-13.99026 21.20174,-13.99026 11.6826,0 22.35559,7.06725 22.35559,22.49981 v 29.56706 z"
       class="st0" />
    <path
       inkscape:connector-curvature="0"
       style="display:inline;opacity:1;fill:#808080;fill-opacity:1;fill-rule:nonzero;stroke:none;stroke-width:1.60831702;stroke-linecap:round;stroke-linejoin:round;stroke-miterlimit:4;stroke-dasharray:none;stroke-dashoffset:0;stroke-opacity:1"
       d="m 232.21858,-224.32134 c -2.47057,0.70787 -4.24213,2.17687 -4.80376,4.83435 -0.90089,4.26292 4.09452,6.4697 9.47268,7.87719 l -5.97022,-5.09406 1.59026,-5.98146 14.36057,0.69945 24.40138,4.19524 21.62686,8.23624 10.5022,6.81219 -7.98632,-1.5394 -4.56701,2.00657 c 0,0 -0.0829,-0.26325 -0.31356,-1.92265 -0.23087,-1.6593 -0.21318,-2.52985 -0.62464,-3.84407 -0.41142,-1.3142 -5.38987,-0.62183 -5.38987,-0.62183 0,0 -5.56805,4.34196 -5.50177,5.47559 0.0663,1.13365 2.02197,3.69501 2.02197,3.69501 0,0 -2.19941,1.26616 -4.07129,3.58377 -1.87189,2.31763 -2.87398,4.65094 -2.87398,4.65094 l -6.0128,0.15199 2.15044,-3.27085 -0.16798,-5.1426 0.65327,-3.56065 c -6.96877,-0.89735 -26.14567,-3.06013 -36.62714,-1.11048 -8.7945,1.6358 -25.79839,1.71013 -24.6619,10.58301 0.52765,4.11942 6.13345,3.91571 11.41267,3.30334 2.04389,-3.0497 5.15757,-9.8499 5.15757,-9.8499 l 14.09626,-3.83619 20.19293,0.89239 -0.60582,4.51961 c 0,0 -6.29294,1.1035 -6.7683,3.27254 -0.38664,1.76416 -2.20133,3.54669 -2.8921,4.17657 4.02402,0.17668 6.70845,0.37894 6.70845,0.37894 0,0 -3.81305,-0.041 -9.23818,0.10288 l -5.38578,0.45742 19.33868,0.006 -2.00194,4.66636 -3.91042,4.1102 0.66824,5.69316 -3.09382,3.14739 -1.70733,2.84369 1.31335,4.946 -21.9259,6.23599 c 0,0 -1.62016,0.48771 -3.93671,1.25622 1.15085,-0.2704 2.17116,-0.5255 2.81803,-0.72811 2.89127,-0.90515 1.18373,1.93862 1.18373,1.93862 0,0 -4.28547,5.67021 -6.07505,8.25066 -1.30318,1.87912 -0.8193,4.55921 -0.46042,5.88652 5.70147,-1.73931 10.28607,-2.99343 13.75196,-3.88842 l 0.0339,-1.84176 -0.29697,-2.79103 0.68807,-4.25701 1.4766,-4.50188 9.10031,-2.27216 -2.26461,4.74859 c 0,0 -4.02342,5.58897 -4.82797,6.70665 -0.80452,1.11767 3.14866,2.50472 3.14866,2.50472 l -7.84177,6.46892 c 0,0 -1.6746,5.71822 -1.18088,7.29529 0.34295,1.09563 0.44279,3.59579 0.47534,5.05821 2.14763,-0.79771 3.73841,-1.39751 3.73841,-1.39751 0,0 -10.24218,10.76936 -15.22027,16.2852 -3.33325,3.6933 -8.28525,10.69877 -4.86483,14.46358 1.84295,2.028491 5.05392,1.678252 8.07816,0.40049 l 0.31756,-2.45604 1.13006,-9.30017 c 0,0 -0.002,-4.61712 0.80226,-5.73476 0.80452,-1.11767 10.34622,-8.43223 10.34622,-8.43223 0,0 -4.26628,9.41583 -3.85488,10.73001 0.41146,1.3142 1.59542,3.25373 1.59542,3.25373 l -1.28076,5.29788 c 1.65549,-1.37 3.48057,-2.78845 5.32062,-4.18033 l 2.95919,-2.73187 1.51672,-0.58152 c 2.92488,-2.11663 5.53084,-3.92826 7.06499,-4.98123 -1.49308,1.03802 -3.81142,2.70353 -6.34561,4.70465 l 6.00989,-2.30022 -4.41851,3.40206 -0.24201,8.44539 -0.27646,4.341457 0.19595,0.01375 -0.40824,3.302207 0.2123,-3.315934 -3.63217,-0.231817 -2.82773,-2.577563 0.1629,-4.09255 -3.77083,1.1805 c -1.52595,1.6808 -2.81908,3.36728 -3.66919,4.96904 -2.08174,3.922229 -5.18659,10.139494 -1.95013,13.179726 2.58541,2.428658 7.27696,-0.546725 10.40911,-2.211682 5.29471,-2.814659 8.93231,-8.037351 12.94166,-12.496224 3.49751,-3.88963 9.64356,-12.38026 9.64356,-12.38026 0,0 -5.31321,9.30138 -8.70905,13.40923 -4.00156,4.840615 -8.0637,10.067175 -13.58925,13.052546 -3.76334,2.033259 -9.18576,5.564333 -12.5068,2.868455 -2.26491,-1.838531 -0.84231,-7.940332 0.16061,-8.749764 -5.01391,5.219263 -10.23288,11.10772 -9.11141,17.626156 0.2985,1.734924 2.11255,3.345596 3.85274,3.611756 6.79064,1.038595 12.95458,-4.985995 18.56232,-8.953978 1.68158,-1.189836 3.57796,-2.797447 5.52374,-4.591556 l -1.68167,-1.932852 7.07775,-5.968968 -0.17875,4.962755 1.98942,0.821182 1.90783,5.17275 3.23653,-0.722866 c 0,0 0.49395,1.575776 0.26557,4.533291 -0.22851,2.957557 0.0347,2.874704 1.02217,6.02879 0.98745,3.154108 5.9974,0.720045 5.9974,0.720045 l -5.4704,3.733367 c 0,0 -3.74521,0.0179 -4.6823,-1.131751 -0.93713,-1.149628 -0.5773,-6.456478 -0.5773,-6.456478 l -2.94103,1.224929 c -0.0763,0.234267 -0.61505,1.008824 -2.37701,3.108662 -0.73346,0.874121 -1.41123,1.61161 -2.06044,2.296435 l 1.63057,2.671855 5.58976,4.024029 1.31937,1.368727 c 2.10726,-2.041153 4.11823,-4.195433 6.14015,-6.307555 5.14361,-5.373056 14.44126,-17.013168 14.44126,-17.013168 l 5.47948,6.164274 2.99221,3.102859 1.71497,0.897225 5.03627,-6.457777 c 0,0 -1.78599,2.89554 -4.34178,6.821105 l 1.73154,0.905874 1.26944,6.818577 c 0,0 -1.82406,-0.293369 -2.41601,-1.262466 -0.59197,-0.969088 -2.77781,-0.575545 -3.1069,-1.626922 -0.0559,-0.1791 -0.14696,-0.406697 -0.25047,-0.648528 -2.6597,3.95887 -5.67762,8.266937 -8.43555,11.727515 1.30517,1.771345 3.73136,2.592934 3.73136,2.592934 0,0 1.66054,-0.229473 4.28892,-1.05232 2.62847,-0.822868 4.61552,-0.0029 4.61552,-0.0029 0,0 0.55353,0.280738 1.46982,0.612474 5.26311,-7.09864 11.93085,-17.485563 11.93085,-17.485563 0,0 -1.36209,2.410814 -3.34126,5.777001 l -0.63131,5.258511 6.09561,0.112484 c 0,0 2.44771,-0.478066 5.42124,-1.120388 2.97352,-0.642385 -0.9513,4.337426 -0.9513,4.337426 l -4.46704,1.398461 c 0,0 -1.97207,-1.689613 -3.10581,-1.623314 -1.1336,0.0663 -2.7774,-0.574482 -2.7774,-0.574482 l -3.32551,-1.542692 c -1.18903,1.941347 -2.43984,3.93674 -3.67627,5.842398 1.07933,0.311098 2.42186,0.598675 3.94738,0.696119 3.82838,0.244479 6.77164,1.345618 7.79102,2.758096 1.01941,1.412464 -1.97151,2.924044 -5.7496,4.68401 -3.77806,1.75998 -5.38904,-0.620514 -6.57302,-2.558663 -0.4915,-0.804616 -1.84366,-0.540158 -3.25677,0.03979 -2.15688,2.882852 -5.16329,6.041313 -8.1351,9.425006 l 1.63784,-0.06237 c 0,0 4.15459,-3.321444 5.20593,-3.650583 1.05135,-0.329128 2.36569,-0.740717 5.07635,-1.300804 2.71068,-0.560007 1.4972,3.861267 1.4972,3.861267 0,0 6.39252,2.904552 7.32966,4.054176 0.93708,1.149644 -1.96887,2.925774 -3.62821,3.156644 -1.65933,0.230888 -3.58247,0.54275 -4.63385,0.871903 -1.05136,0.329134 -2.59937,-5.533073 -2.59937,-5.533073 l -5.94711,1.283055 c 0,0 2.68222,5.798281 3.43877,7.293053 0.75654,1.494761 2.81051,3.450119 2.81051,3.450119 0,0 2.77791,0.573517 4.68407,1.131179 1.90623,0.557644 -3.54681,3.419574 -4.86102,3.831003 -1.31422,0.411431 -7.95279,1.334531 -9.43157,1.220277 -1.47881,-0.114267 -2.57972,-1.790996 -2.72831,-3.187458 -0.14855,-1.396504 1.52402,-7.114324 1.52402,-7.114324 l -4.1309,-3.465388 c -0.13908,0.190237 -0.27997,0.379362 -0.4159,0.570706 -2.84682,4.006659 -3.27704,11.506093 0.42462,14.739541 3.58239,3.129265 9.79172,0.300105 14.1901,-1.510945 5.60441,-2.307606 10.26552,-5.850675 14.19265,-11.364843 6.5054,-9.134316 15.20172,-33.23585 15.20172,-33.23585 0,0 -6.97377,25.225999 -14.37421,35.708717 -3.1995,4.53214 -10.38756,5.883167 -12.4675,11.02623 -0.0884,0.218479 -0.17063,0.44502 -0.24857,0.676362 l 5.0173,-1.849253 c 0,0 6.42499,1.162781 8.34718,0.849612 1.92215,-0.313149 2.71229,4.057682 2.71229,4.057682 l 3.87842,2.248615 5.03029,3.4485396 c 0.44695,-0.8243116 0.58202,-2.4682476 0.60921,-3.7265996 0.0334,0.807734 0.102,2.06275 0.20339,3.6658019 l 7.17058,-0.5361539 8.47915,-1.498912 5.39097,5.2378843 0.53962,-5.6525173 5.17627,2.709489 3.34842,-6.820256 0.5459,8.1986966 4.99412,-1.563469 3.89377,1.3766327 0.33297,5.6697231 c 0,0 -4.99433,1.56250215 -10.04562,1.151763 0,0 1.36472,2.6827227 3.30143,3.2450815 3.64797,1.0592589 6.64515,-1.55295287 8.84944,-3.9062512 4.22515,-4.510777 5.14727,-11.2780697 6.47679,-17.3722407 l -6.52013,-0.50305 -9.41556,0.350059 -8.31233,2.025481 -4.53673,-4.351729 4.91133,-1.827927 c 0,0 5.91513,0.458564 6.76996,1.34536 0.85483,0.886786 6.16189,1.245344 6.16189,1.245344 l 9.18431,-2.010052 5.90806,0.813191 c 15.9623,-33.847766 21.21865,-40.662355 21.21865,-40.662355 0,0 -12.02825,33.829192 -18.78209,44.022176 -0.77453,3.96343 -5.79118,7.75947 -6.88988,11.8125146 0.46308,-0.1584255 0.90398,-0.4452898 1.23084,-0.9522503 0.4371,-0.6779598 1.01456,-1.0360968 1.56658,-1.2173744 0.92004,-0.3020513 1.76755,-0.1148225 1.76755,-0.1148225 l 1.21802,4.8119071 -2.11554,6.145899 c 0,0 1.15011,-0.93607571 4.50074,-3.1394314 3.35063,-2.2033373 2.80996,3.4483147 2.80996,3.4483147 l 0.31698,6.5399572 4.32438,6.437007 4.86627,5.404152 6.75051,-2.401726 4.45282,-0.52881 c 0,0 1.28539,5.947392 1.69658,7.26167 0.41141,1.314206 6.78481,0.47154 6.78481,0.47154 l 6.27604,-0.232096 c 0,0 -0.42934,-5.060172 0.37517,-6.177841 0.80451,-1.117655 5.83124,-4.423145 5.83124,-4.423145 l 1.59484,3.251925 3.61169,-6.900713 c 0,0 0.17767,-4.9630145 1.73875,-4.5859092 1.56104,0.3771036 4.84673,1.6570686 4.84673,1.6570686 0,0 -1.59445,-3.2524451 0.41005,-3.3027686 2.00441,-0.050312 3.48261,0.063327 3.48261,0.063327 l 2.84078,-2.9081498 2.37999,-6.2287001 2.72661,-1.4303934 -0.0365,-7.4929485 5.44972,-7.478098 5.40583,-0.24837 4.14282,2.165844 4.61438,-4.618975 1.58501,-3.032577 c -4.50595,-2.965819 -9.65351,-6.891408 -11.86499,-10.559469 -2.88052,-4.777714 -2.85677,-16.48881 -2.85677,-16.48881 0,0 1.49546,10.819294 4.57484,15.950944 0.96792,1.612965 3.89281,1.29841 5.6172,0.546702 3.0675,-1.337195 4.65748,-4.955487 6.08854,-7.980319 1.95487,-4.131926 3.15401,-13.347212 3.15406,-13.347228 l 8.85744,-5.868327 c 0,0 6.37316,5.404727 10.04323,6.027446 4.266,0.723878 9.02449,0.265086 12.86676,-1.724827 3.81627,-1.976423 7.31861,-5.403947 8.77176,-9.4485 0.83603,-2.326958 -0.13435,-5.382272 -0.13435,-5.382272 0,0 -2.78924,4.663025 -5.63652,6.351361 -3.18337,1.887603 -7.72345,2.304187 -11.07979,0.744648 -2.23581,-1.038893 -4.87658,-3.545281 -4.37843,-5.959839 0.53884,-2.611958 6.48712,-3.23802 8.95702,-4.24414 3.091,-1.259141 4.33217,-2.40966 7.66412,-2.215646 2.70123,0.157302 7.5972,2.858291 7.5972,2.858291 0,0 -2.82903,-6.080648 -5.54992,-7.688952 -4.03036,-2.382376 -9.37413,-2.745111 -13.94016,-1.710097 -3.23159,0.732537 -6.636,2.591899 -9.67565,4.415788 -4.33954,2.603922 -8.31253,4.884983 -12.06053,9.221753 -1.81796,2.103539 -2.59037,6.97831 -4.47698,9.020549 -2.65381,2.872754 -6.27148,5.019206 -10.03699,6.075606 -6.06654,1.701845 -18.90161,0.05246 -18.90161,0.05246 l -12.23712,15.560664 11.20051,-17.748804 c 0,0 12.80449,1.058213 18.85198,-0.665159 3.2807,-0.934935 6.66616,-2.491329 8.88127,-5.085633 2.31103,-2.706681 3.78628,-9.983595 3.78628,-9.983595 -3.86627,2.660634 -7.9569,7.946714 -12.44426,8.589281 -4.26591,0.521514 -9.87008,0.561477 -12.596,-2.761034 -1.45952,-1.778866 -1.27566,-7.510813 1.44049,-8.283262 2.70171,-0.768345 6.20602,-1.037156 8.39601,0.721739 1.45462,1.168282 1.67217,5.341339 1.67217,5.341339 0,0 3.69609,-6.165166 2.76209,-9.242193 -0.92332,-3.041825 -9.0787,-3.419709 -9.0787,-3.419709 -0.007,-1.332735 9.2398,-2.592138 10.85468,3.0731 0.43425,1.523134 -0.40234,4.734468 -0.40234,4.734468 0,0 4.60513,-6.343672 3.33363,-9.423113 -1.56538,-3.791103 -6.99887,-5.56264 -11.09359,-5.325278 -6.4703,0.375064 -12.57167,5.181092 -16.43794,10.382782 -2.41456,3.248551 -3.24897,11.69988 -3.24897,11.69988 l -8.01998,9.84326 3.42983,-7.778116 c 0,0 1.32353,-8.840392 0.68347,-13.199982 -0.96862,-6.597868 -6.73507,-18.838223 -6.73507,-18.838223 0,0 7.01166,11.54169 7.98697,18.590511 0.41659,3.010954 -0.54249,9.870812 -0.54249,9.870812 0,0 2.89468,-10.113247 6.09685,-13.695662 4.77215,-5.338841 10.60533,-8.379677 17.76582,-8.437938 4.64122,-0.03775 11.06051,0.920852 12.92926,5.169381 1.7389,3.953265 -4.58566,12.118342 -4.58566,12.118342 l -1.47372,6.227435 c 0,0 6.88329,-7.225376 8.53143,-11.78715 2.50173,-6.924454 3.55522,-14.724833 1.47775,-22.0395 -0.67459,-2.61441 -0.49137,-7.5955 -0.49137,-7.5955 l 0.26962,-7.83373 c 0,0 -2.50119,6.60976 -5.17214,6.22574 -3.60629,-0.5185 -4.33231,-10.03365 -4.33231,-10.03365 0,0 -4.44908,8.34837 -7.85448,9.24233 -1.80573,0.47404 -3.50166,-1.98327 -5.34363,-1.67929 -3.26409,0.53867 -8.01066,5.86001 -8.01066,5.86001 0,0 3.68231,-8.3809 0.73335,-9.02783 -3.3772,-0.74084 -10.74199,4.22269 -13.60518,0.6977 -1.73668,-2.13815 3.41673,-5.56687 2.10706,-7.99021 -0.70336,-1.30157 -3.30331,-0.23739 -4.21101,-1.40572 -0.7139,-0.91895 -0.25209,-3.48066 -0.25209,-3.48066 0,0 -5.65063,5.19673 -8.99942,4.70188 -3.06709,-0.45326 -6.41206,-3.41488 -6.64546,-6.50645 -0.2294,-3.03921 5.49785,-7.30552 5.49785,-7.30552 -7.51951,-3.4841 -13.04245,-5.32543 -18.6611,-9.31288 -5.36655,-3.97479 -7.86022,-11.19 -13.44555,-14.85095 -5.30594,-3.47774 -13.4795,-1.66848 -18.03529,-6.0835 -6.27725,-6.08332 -4.90838,-16.93402 -9.15843,-24.57257 -5.5673,-10.00596 -3.81292,-15.58163 -21.02601,-27.16459 -3.4435,-2.31717 -18.14279,-2.99673 -17.50363,1.10428 0.43136,2.76832 3.2929,4.74287 5.70172,6.17373 2.95738,1.75674 13.35842,1.74869 10.00679,2.5227 -5.36169,1.23831 -6.4828,0.52507 -9.5384,-0.36407 -2.94372,-0.85659 -5.80129,-1.10797 -8.61807,0.10238 -3.4858,1.49782 -2.82691,4.32009 -1.93378,6.34182 1.11627,2.52664 4.81856,2.83798 7.48674,3.55264 3.65885,0.98002 11.32776,0.91209 11.32776,0.91209 -10.91076,3.54329 -15.24673,-1.1971 -18.12646,2.26328 -1.73086,2.07978 -0.39361,5.20664 1.84771,6.72247 4.55151,3.07816 16.40945,1.56522 16.40945,1.56522 0,0 -13.87448,3.05188 -19.53369,-0.16838 -3.87672,-2.20599 -3.51607,-8.58058 -6.93521,-11.44497 -13.60565,-11.39835 -32.09498,-16.69382 -49.66822,-19.18745 -6.87241,-0.97498 -17.74692,-4.13343 -24.06062,-2.32433 z M 416.20903,24.857499 c 0,0 -1.44346,2.760889 -3.20107,3.599733 -1.75758,0.838832 -0.85389,3.729919 -2.34864,4.48647 -1.49477,0.756556 -4.18792,0.445484 -5.63476,-1.410373 -1.44685,-1.855892 -5.1615,-3.577341 -5.1615,-3.577341 0,0 -5.55433,-1.148334 -6.40911,-2.035147 -0.85487,-0.886778 -5.96607,-2.462245 -5.96607,-2.462245 l -3.7418,4.636198 1.13116,-4.684112 c 0,0 -5.55527,-1.146446 -6.77118,-1.342984 -1.21598,-0.19655 -0.64313,-2.973857 -0.34839,-4.79774 0.29481,-1.823914 1.24772,-6.160648 1.24772,-6.160648 l -5.17805,-2.7089189 -6.73345,6.1475789 1.02387,10.646668 0.0519,6.620934 3.12414,0.754365 4.24271,6.17614 2.30063,2.742575 6.12534,-6.247602 c 0,0 5.04441,0.441567 6.65576,2.823123 1.61141,2.381563 4.25681,5.304369 6.17901,4.991202 1.92214,-0.313138 9.20042,-2.879723 9.77642,-1.039828 l 0.5762,1.840397 c 0,0 8.31039,-6.641474 9.44399,-6.707771 l 7.93606,-0.463677 4.26895,-4.801218 2.83852,-7.527808 c 0,0 4.22395,2.430805 6.58955,1.690225 2.36557,-0.740567 4.74468,-6.968973 6.3217,-7.462682 1.57706,-0.493725 8.32817,-2.896001 7.66986,-4.998733 -0.65826,-2.102737 -1.53098,-6.7361044 -0.46363,-7.9360518 1.06733,-1.1999522 4.7285,-6.09674881 4.7285,-6.09674881 l 1.22829,-9.90773539 3.9571,-2.105991 -3.07442,-3.365531 c 0,0 -4.20737,-3.300855 -4.07477,-1.033536 0.13261,2.267267 -0.99865,6.9498398 -0.99865,6.9498398 0,0 -3.99394,-0.7696468 -3.76307,0.889679 0.23088,1.659362 0.12061,7.7550477 0.12061,7.7550477 l -2.98815,6.1286873 c 0,0 -4.2386,-1.5580952 -4.35287,-0.079295 -0.11416,1.4787757 -2.70599,9.7935422 -2.70599,9.7935422 l -0.0462,7.228492 -5.9415,-3.765785 -9.19288,2.443382 -2.06584,3.534704 z M 367.09389,14.54797 c 0,0 1.93688,-5.7999618 2.06708,-8.1495204 0.13023,-2.3496052 -0.1008,-4.0094376 -1.399,-4.4688284 -0.57134,-0.2021888 -1.40599,-0.3693066 -2.16948,-0.5000991 -0.46534,0.5280173 -0.97074,1.0255745 -1.52438,1.4846539 -0.88017,0.729832 -1.86349,1.2192625 -2.92006,1.5442971 l -0.66207,4.6557826 0.33243,5.6679173 -1.0809,6.687189 -3.62705,7.772713 6.83108,-6.756947 z m -86.00225,-99.281651 c 0.0892,0.09654 -10.58239,15.861674 -19.41995,24.525546 l 1.36562,1.41549 5.16032,3.579695 c 0,0 -1.23615,5.265672 -2.03701,8.069019 5.21146,-3.187377 11.3619,-9.781355 11.3619,-9.781355 0,0 -5.26964,-5.617605 -6.84671,-5.12388 -1.57702,0.493704 -3.35361,-2.414901 -3.35361,-2.414901 l 5.30476,-4.256338 c 0,0 4.48714,2.346424 6.0985,4.727986 1.48151,2.189648 0.74296,1.937322 1.25116,3.920514 l 8.67246,-11.122137 c -0.43837,-0.884742 -0.87523,-1.691476 -0.87523,-1.691476 0,0 -1.31502,0.411823 -4.02571,0.971897 -2.71072,0.560017 0.49217,-3.040871 -0.26438,-4.535638 -0.75651,-1.494751 -3.84349,0.626455 -3.84349,0.626455 z m -38.98794,-105.456649 0.20655,-0.27405 c -9.04685,0.4023 -20.27515,1.34664 -27.31625,3.56193 -6.57652,2.06861 -18.93669,3.40876 -17.97352,10.23534 0.41995,2.97656 2.95203,4.53928 6.31318,5.08548 0.26903,-0.28859 0.54489,-0.58145 0.54489,-0.58145 l 3.62999,-3.1572 -0.28156,-3.66307 5.09065,-6.78888 z m 7.13366,-27.91887 -8.18362,7.45297 c 1.37338,0.28295 2.69803,0.54542 3.82297,0.78447 3.12342,0.66366 6.505,1.45135 9.81552,2.25863 l -0.66979,-0.7385 3.24678,-10.83001 z m 15.05031,1.06032 -0.67263,3.38498 c 0,0 -3.87587,2.36877 -5.10776,3.04304 -0.74274,0.40652 -1.25492,2.20323 -1.54662,3.57169 5.62416,1.39847 10.81381,2.77772 13.82272,3.59379 l 0.34514,-1.88193 -0.31346,-1.92264 2.9384,-3.51752 -2.94299,-5.71585 z m -24.67142,15.22806 c -1.31421,0.41144 -5.43375,6.60791 -5.43375,6.60791 0,0 -0.31142,2.69269 -1.72388,3.71209 -0.10114,0.0729 -0.2662,0.15189 -0.46154,0.22939 3.77865,-0.13528 7.53824,-0.13615 10.97926,-0.0751 l 4.84148,-6.4047 -1.33216,-3.33417 c 0,0 -5.55522,-1.14687 -6.86942,-0.73545 z m -9.43945,15.94114 c 0,0 -8.60607,3.84767 -9.83797,4.52192 -0.97367,0.53293 -2.95751,5.87994 -4.22639,8.39491 4.30886,-0.93913 8.98384,-1.12579 13.55567,-1.41109 l -0.61957,-2.2061 2.98755,-6.13049 z m 17.44802,-1.42072 -8.42647,3.50322 -1.27729,7.90229 -2.28238,1.10168 c 3.66541,-0.2326 8.04852,-0.43816 11.85515,-0.59622 l 0.0374,-2.07005 2.3149,-2.7455 z m -29.68895,18.52139 c -1.14571,1.60252 -3.1756,4.5042 -3.50425,5.43296 -0.38604,1.09097 1.58701,5.87958 2.25593,7.45201 2.24841,-0.57383 4.47097,-1.25599 6.69035,-1.95031 l -0.77896,-4.30539 3.57915,-5.16206 0.64501,-3.99069 c -2.27446,0.60938 -5.45568,1.49774 -8.88723,2.52348 z m -9.14437,2.95168 c -2.36759,0.84302 -4.55849,1.70195 -6.30693,2.53149 -3.53549,1.67739 -7.98705,6.94292 -5.81503,10.19798 3.03029,4.54131 10.61994,-0.36149 16.23886,-1.9074 l -4.43583,-1.56841 -1.79304,-2.03628 z m 27.69223,-7.21949 c -0.26264,0.81921 -0.91218,2.01062 -1.02495,3.11799 -0.18409,1.80781 -0.99761,7.42092 -1.24069,9.09186 3.62237,-0.83523 7.81493,-1.7308 11.39779,-2.47993 l -0.29841,-7.38924 1.9909,-3.80557 z m -18.90607,19.1695 c -3.96875,1.63329 -7.94686,3.54827 -10.51943,5.49378 -2.9714,2.2471 -8.46573,5.2502 -7.03048,8.68806 1.70222,4.07732 9.00094,2.72511 13.18898,1.31709 1.93645,-0.65105 3.77772,-1.25163 5.56415,-1.82488 l -2.87768,-3.68986 2.3013,-1.87406 1.6233,-3.10579 z m 20.01808,8.53642 c -7.33694,2.27375 -18.21602,6.0479 -24.05506,10.00389 -2.22374,1.50658 -5.51839,3.21824 -5.48222,5.90405 0.0493,3.66504 4.18953,8.92333 7.69569,7.85474 3.65836,-1.11488 7.4023,-2.36346 10.86794,-3.56038 l 1.43311,-2.06648 -1.69363,-2.64617 1.59026,-5.98145 -0.41465,-5.93059 10.51359,-3.29139 0.009,-0.42555 c -0.17019,0.0528 -0.28978,0.0849 -0.46418,0.13892 z m 10.98805,0.7419 7.75507,-0.12058 -4.99415,1.56347 1.21863,4.8137 -4.12395,1.57944 -2.11847,1.5304 0.17874,-4.96276 z m 258.66417,-67.46846 c -2.59463,0.84755 -5.09217,1.91651 -7.43629,3.34733 -10.65321,6.50254 -18.47023,17.12919 -25.41187,27.50165 -1.92131,2.87093 -4.35279,9.40437 -4.35279,9.40437 0,0 7.86205,-0.18094 11.55586,0.95922 3.9108,1.20714 8.30179,2.72647 10.68065,6.05701 2.142,2.99891 0.7674,13.12109 0.7674,13.12109 l -3.46698,-2.37939 c 0,0 -7.96225,5.79466 -10.37545,9.92882 -2.49406,4.27266 -3.03608,9.47627 -3.66315,14.38369 -0.93706,7.33299 -0.16221,14.7849 -0.10718,22.17733 0.068,9.140538 0.54194,27.418212 0.54194,27.418212 0,0 10.83721,-7.345865 16.94007,-9.510818 4.19093,-1.486663 8.83712,-2.120951 13.20517,-1.287541 2.93093,0.559235 5.57038,1.485218 7.58562,3.68564 0.49267,0.53795 0.98296,1.233207 1.45731,2.005056 l 3.3429,-5.607629 -1.61263,-2.381146 -2.05393,-1.954594 -0.13133,2.350321 -3.85947,1.49666 0.24556,-3.828077 2.31489,-2.745515 -2.36923,-3.876649 -4.9479,-5.66503 0.036,7.491146 -0.86856,4.601886 -2.4005,-6.752862 3.23305,-5.34017 -2.53538,-9.01985 6.47426,-1.44806 1.75469,-5.4561 1.67709,3.51456 -3.5129,6.29498 -0.99808,6.95163 2.72436,-6.05006 5.30409,-4.25813 6.68948,5.70057 c 0,0 -4.12165,1.57675 -5.69866,2.07044 -1.57708,0.49373 -2.10137,5.27627 -2.10137,5.27627 l 1.59837,7.869209 c 0,0 0.72313,-1.380576 0.40997,-3.302762 -0.31315,-1.922167 -0.0669,-1.133467 -0.0349,-2.875087 0.032,-1.74162 2.67575,-3.43527 2.67575,-3.43527 l 5.78213,-1.81017 0.2342,6.2755 -3.89266,3.239424 c 0,0 -1.31164,5.028219 -1.24535,6.161881 0.061,1.042095 -5.26305,5.839902 -6.15692,6.638724 2.28874,3.7818 4.19121,9.437823 4.19121,9.437823 0,0 -2.79621,0.08042 -3.64076,1.015327 -2.25348,2.494453 0.18986,7.167569 -1.71478,9.937548 -3.2772,4.7663 -9.27604,7.568522 -14.91072,8.875502 -3.68034,0.853701 -7.72159,0.305212 -11.29609,-0.91805 -2.4599,-0.841828 -6.53218,-4.264316 -6.53218,-4.264316 l -7.50458,4.081788 c 0,0 -0.94559,8.816741 -2.66285,12.83393 -1.80707,4.227297 -7.82476,11.356537 -7.82476,11.356537 0,0 9.96395,6.425762 15.37044,8.796355 4.96913,2.178829 10.10766,5.323206 15.51797,4.913996 3.57413,-0.27031 8.25366,-1.447381 9.64604,-4.750215 1.29949,-3.082501 -3.11006,-9.543164 -3.11006,-9.543164 l -7.94181,-6.791991 c 0,0 5.49802,4.0689 8.70106,4.081141 1.54735,0.0059 3.36294,-0.649622 4.21642,-1.940259 1.33173,-2.013813 0.82894,-4.906551 0.2086,-7.239805 -0.83379,-3.136146 -5.07586,-8.307485 -5.07586,-8.307485 0,0 3.71748,3.353823 6.05314,3.920443 2.07009,0.502204 4.59842,0.569179 6.3591,-0.629771 2.8291,-1.926546 4.17882,-5.752026 4.68537,-9.137127 0.32285,-2.157817 -1.15231,-6.44438 -1.15231,-6.44437 0,0 1.38475,-5.911043 3.46824,-7.888906 1.94411,-1.845563 5.80439,-0.791198 7.52072,-2.850275 1.62299,-1.947094 -0.17972,-5.473392 1.37031,-7.479048 1.4566,-1.884756 5.07995,-1.087809 6.47683,-3.017305 1.97287,-2.725178 1.96207,-6.747774 1.19218,-10.02286 -1.58194,-6.730202 -9.362,-10.644562 -11.36892,-17.348032 -0.13684,-0.46124 -0.1874,-0.75609 -0.16421,-0.91649 -0.60789,-1.10204 -1.49783,-3.00856 -1.05934,-4.13465 0.63993,-1.64332 4.05706,-2.71412 4.05706,-2.71412 l -0.45737,5.9152 7.01324,-2.48396 3.38791,5.28816 c 0,0 -2.29962,1.87493 -3.89266,3.23944 -0.95778,0.82039 -1.54277,1.82979 -2.32024,2.02813 1.65402,1.76494 3.34999,3.30641 4.7512,3.84408 2.77704,1.06559 6.75974,2.09389 8.92345,0.0529 2.38225,-2.24707 -1.96175,-7.66958 0.51577,-9.81108 0.11386,-0.0984 0.23182,-0.18498 0.35244,-0.26245 -1.04953,-0.5459 -4.69674,-2.43619 -6.42623,-3.1498 -1.9885,-0.8205 -0.49408,-1.57749 -1.13636,-4.55104 -0.64196,-2.97361 -4.05875,-1.90434 -7.52602,-2.83908 -3.46727,-0.93477 -2.20418,-3.34958 -2.20418,-3.34958 l -4.70295,-9.49487 5.89922,1.32757 c 0,0 1.30006,5.07642 3.25654,7.63853 1.9565,2.56209 2.03682,-1.79126 2.03682,-1.79126 0,0 3.33505,-1.33249 4.64926,-1.74392 1.31422,-0.41142 2.07283,5.69988 2.07283,5.69988 l 1.28466,5.94661 2.88757,-5.52238 c 0,0 4.96545,4.7947 6.14941,6.73286 0.82503,1.35057 -2.14615,3.45707 -4.03848,4.6224 3.69836,0.28906 8.65387,4.49377 11.46095,2.03783 1.9809,-1.73306 -1.17514,-5.84172 0.0504,-8.00411 l -4.99462,-5.49236 c 0,0 3.31516,-5.07667 3.51168,-6.29259 0.19653,-1.21592 -0.57616,-1.84042 -0.57616,-1.84042 l 5.4704,-3.73336 2.21377,-6.75345 0.88615,-0.85423 c 0,0 1.48155,4.73038 0.84176,6.37369 -0.63992,1.64333 -0.25918,4.69953 -0.25918,4.69953 l -5.80099,-1.93514 3.45237,6.4216 c 0,0 -2.01973,0.92071 -3.59681,1.41444 -1.16478,0.36464 -0.84038,4.97229 -0.59066,7.36337 2.55933,-2.00238 7.87246,1.85108 10.23958,-0.57642 2.05153,-2.10389 -0.77442,-6.13847 0.4615,-8.80446 1.21404,-2.61875 5.63652,-3.12381 6.30731,-5.93122 0.63167,-2.64349 -3.30235,-5.00386 -2.77242,-7.66956 0.53297,-2.68106 4.93513,-3.39121 5.52625,-6.06005 0.45953,-2.07476 -0.64018,-4.37435 -1.90421,-6.08257 -2.95025,-3.98699 -12.28081,-8.40456 -12.28081,-8.40456 l -7.07673,-1.85181 1.68847,-6.58899 -0.2135,-2.53076 5.11125,1.57428 c 0,0 1.51108,2.98873 1.13396,4.54982 -0.37705,1.56103 -0.64345,4.84746 -0.64345,4.84746 0,0 2.92862,0.79129 6.08566,1.33639 -0.19825,-1.89886 -0.2978,-4.61798 0.72027,-4.93671 1.57709,-0.49373 3.17092,-1.85989 3.17092,-1.85989 0,0 1.98865,0.8224 1.34873,2.46575 -0.63994,1.64336 -2.00197,4.66637 -2.00197,4.66637 l -0.1655,0.0834 c 0.88495,0.0797 1.7167,0.11082 2.42189,0.0635 2.86658,-0.19229 7.26225,0.23376 8.2589,-2.46112 0.82137,-2.22066 -2.18916,-4.28047 -3.84821,-5.96976 -2.15741,-2.19685 -3.02488,-2.68244 -7.6709,-5.14441 -0.20524,-0.10881 -0.33601,-0.22296 -0.41524,-0.34211 -1.92309,-0.38234 -5.13173,-1.01394 -7.36393,-1.37473 -3.03983,-0.49136 -16.31572,-3.25978 -16.31572,-3.25978 l -6.24408,-1.50802 c 0,0 -1.51574,-7.60846 -0.2838,-8.28273 0.84691,-0.46353 1.24979,-1.46998 2.26331,-1.75549 0.4607,-0.12976 1.04799,-0.10872 1.85935,0.17841 2.59643,0.91876 4.88346,4.53158 4.88346,4.53158 l -0.78684,4.86273 3.96059,2.51131 2.98928,-1.51264 -1.56347,-4.99413 c 0,0 2.04404,-7.18792 3.782,-4.45717 1.73799,2.73074 5.9932,3.41851 5.96125,5.16011 -0.032,1.74162 -2.28063,5.61879 -2.28063,5.61879 0,0 -0.83695,2.85902 4.14105,2.16641 4.10603,-0.5713 5.73725,-2.13432 5.99941,-3.25503 -0.0702,-0.59279 -0.0887,-0.91426 -0.003,-0.64101 0.0574,0.1842 0.0587,0.40303 0.003,0.64101 0.10197,0.86184 0.31512,2.30811 0.50196,3.54667 1.94399,-1.24615 4.97638,-2.7711 4.97156,-4.55699 -0.007,-2.51764 -2.90697,-4.32371 -5.08775,-5.58171 -2.33004,-1.3441 -6.41413,-2.13901 -9.61919,-2.59072 1.16296,0.0149 2.30713,-0.0871 3.10315,-0.44208 1.5964,-0.71198 3.22867,-2.19991 3.4707,-3.93104 0.42385,-3.03144 -1.52635,-6.42691 -3.95592,-8.28874 -5.08593,-3.89746 -18.90586,-3.48201 -18.90586,-3.48201 l -7.92931,0.8132 3.57735,-5.16154 -1.20245,-5.68393 3.25372,-1.59542 1.50015,8.47673 0.80075,3.15091 1.26748,-6.68436 4.26768,-4.79886 0.18393,4.27241 0.0449,5.5446 c 1.20571,-0.47045 2.36254,-1.03477 3.21127,-1.68684 l 1.14583,-6.39145 1.19626,3.82116 c 1.80401,-2.41691 3.18749,-5.44155 1.85416,-7.72534 -2.21825,-3.79964 -8.64484,-2.44858 -13.0313,-2.10721 -6.43488,0.50082 -12.22667,4.14441 -18.40524,6.01085 -7.88677,2.38252 -16.53025,2.93567 -24.31416,5.47847 z m -246.50024,78.66722 c 3.1541,-0.98743 -3.7932,2.62951 -3.7932,2.62951 l -3.00358,7.0007 -2.88933,5.52293 -0.54421,-3.58084 -3.35477,-7.03094 3.05555,-0.37975 c 0,0 7.37545,-3.1742 10.52954,-4.16161 z m 2.0934,14.06301 0.18336,4.27064 -1.70733,2.84369 -2.2167,2.13793 0.32777,-3.56541 -1.41677,-3.59804 z m 283.64084,-85.91117 c 0,0 0.79106,4.36931 1.36688,6.20927 0.57599,1.83989 0.37941,3.05738 1.77588,2.90883 1.39647,-0.14859 2.77514,-4.04416 2.88934,-5.52295 0.11436,-1.47876 2.75761,-3.17192 4.12214,-1.57889 1.36454,1.59303 2.71387,4.05637 3.04303,5.10775 0.32913,1.05138 1.00215,2.28365 0.0331,2.87565 -0.9691,0.59198 -2.48013,2.21884 -4.74746,2.35146 -2.26732,0.13261 -10.74593,-2.98466 -10.74593,-2.98466 l -2.15396,-1.34648 -0.85592,-5.50403 z m -6.04012,11.12575 0.82617,11.86412 -0.45614,5.91281 0.9879,3.15551 -2.46746,-3.26911 1.9357,-5.79921 -2.5827,-6.40745 z m -78.01614,25.79673 c -2.04892,0.59262 -3.71522,1.72774 -5.52558,2.71161 -1.82308,0.99082 -3.4322,1.96578 -5.24749,3.34752 -1.81526,1.38175 -4.23993,1.78344 -5.88196,3.4158 -1.64198,1.63235 -2.53024,3.17517 -3.59655,6.10977 -1.0662,2.93459 -4.0642,9.34566 -1.91307,11.48708 2.15113,2.14141 4.42475,-2.15223 6.47341,-1.11001 2.04866,1.04222 1.24195,4.86983 3.20579,6.47313 1.9638,1.60326 6.10456,0.89386 7.72306,2.04256 1.61851,1.14873 0.63305,2.69966 2.1954,3.24564 1.56213,0.54607 3.80759,-1.81353 5.73531,-1.79551 1.92779,0.0181 3.28246,2.57739 5.27239,1.76088 1.98995,-0.81653 2.55249,-4.22879 3.32857,-6.54938 0.77603,-2.32053 -0.24469,-4.71986 1.28032,-7.2237 1.52502,-2.50379 6.03555,-4.36001 8.1515,-6.22411 2.11592,-1.8641 4.67806,-4.74362 4.67806,-4.74362 0,0 -1.80033,-1.58772 -3.49506,-1.5291 -1.6948,0.0586 -3.30137,2.4973 -5.63661,2.94388 -2.33519,0.44652 -7.86245,-0.81566 -7.86245,-0.81566 0,0 4.38414,0.45564 6.77126,-0.15238 2.38708,-0.60799 4.55713,-3.72334 7.11601,-3.66977 2.55888,0.0535 6.38568,3.63858 6.38568,3.63858 0,0 0.56924,-5.0929 -0.69795,-7.25825 -1.26716,-2.16536 -4.49618,-4.1429 -6.37287,-4.43075 -1.87673,-0.2878 -2.89285,2.04598 -3.46315,1.08419 -0.57035,-0.96177 2.21489,-2.13737 2.21489,-2.13737 0,0 -8.51684,-2.17194 -12.86448,-2.13575 -2.39614,0.02 -4.59222,0.81124 -7.0713,1.29519 -0.30993,0.0603 -0.61041,0.13493 -0.90314,0.21943 z m -195.74894,63.08311 -0.82854,3.17107 2.49369,5.832832 c 0,0 1.1343,-0.06613 2.49882,1.526917 1.36452,1.593039 2.02175,3.694267 2.3509,4.745626 0.32913,1.051364 1.97261,1.692251 1.4972,3.861279 -0.47531,2.169003 -2.00373,4.666901 -2.00373,4.666901 l -3.50143,-8.427039 -2.97511,0.642955 -0.82282,-2.628409 -1.23459,-3.943488 -2.85909,-0.835344 -1.43038,-2.726603 z m 202.17117,-57.4095 c 0.46494,-0.15198 0.90848,-0.26232 1.31581,-0.32111 2.18937,-0.31658 6.00894,0.87216 6.53979,1.12111 l -3.51753,-0.14332 c 0,0 0.36875,1.73911 -0.0219,2.46026 -0.57175,1.05566 -1.80344,1.87713 -2.99813,1.99541 -1.00959,0.1 -2.05169,-0.37474 -2.81569,-1.15708 -1.04571,-1.07088 -0.62607,-1.88012 -0.62607,-1.88012 -2.17882,0.8385 -3.59654,1.36471 -5.42239,1.96226 0,0 4.2905,-2.9776 7.54609,-4.03751 z m -34.70117,12.4617 c -2.29603,0.77636 -3.85855,3.12994 -6.1776,3.83426 -2.04736,0.62174 -4.31967,-0.21601 -6.41477,0.21853 -2.44366,0.50681 -6.96838,2.74056 -6.96838,2.74056 0,0 7.9861,4.12875 5.62302,4.38895 -3.01312,0.33183 -4.4913,3.01436 -4.17887,5.22143 0.21337,1.50708 2.21348,2.50283 3.73001,2.63287 2.79105,0.23928 5.26232,-1.60439 7.59244,-3.60557 1.06004,-0.91053 -0.65521,3.07594 0.19266,4.1867 1.26924,1.66275 4.60076,0.35007 5.9698,1.93167 1.73792,2.00778 -0.6715,6.12157 1.34228,7.85259 2.13202,1.83264 6.19787,-1.55122 8.43206,0.15542 1.49807,1.14432 -0.18702,4.78863 1.58652,5.42743 2.09584,0.75484 3.48734,-4.62166 5.53561,-3.74591 0.72605,0.31042 -0.32862,2.02356 0.39596,2.33736 2.34439,1.01532 4.37112,-2.66836 6.38711,-4.23764 2.53619,-1.9742 7.13848,-6.48181 7.13848,-6.48181 0,0 -0.0418,3.93538 0.67135,5.71588 0.63151,1.57668 1.36556,3.98939 3.06207,4.07068 1.76682,0.0846 3.0714,-2.22295 3.58191,-3.91651 0.69525,-2.30654 -1.11688,-7.13893 -1.11688,-7.13893 0,0 -2.76417,-2.29022 -4.44477,-2.41108 -2.13088,-0.15332 -3.98307,2.89037 -6.01145,2.21974 -1.61401,-0.53364 -1.40489,-3.28566 -2.7907,-4.27017 -2.34183,-1.66364 -6.07033,-0.34756 -8.36399,-2.07698 -1.83255,-1.38171 -1.26174,-5.22298 -3.43268,-5.96753 -1.9918,-0.68311 -3.97878,3.35994 -5.8476,2.38972 -1.61464,-0.83826 -1.32928,-3.5052 -1.21943,-5.32113 0.14566,-2.40672 2.45317,-6.80271 2.45317,-6.80271 0,0 -4.5933,-0.0694 -6.72734,0.65222 z m 112.38099,-29.09814 c 1.05134,-0.32913 4.79769,-0.34837 4.79769,-0.34837 l 4.25871,5.30594 -2.54503,5.70159 -3.74529,0.0189 -3.84869,-8.60871 c 0,0 0.0312,-1.7402 1.08261,-2.06934 z m -295.95534,93.570948 c -1.98628,2.171431 -3.89262,4.274998 -5.4875,6.095315 l 3.54888,3.404663 2.00836,4.566455 0.91574,1.499036 c 1.73841,-1.59174 4.40307,-4.542964 4.40307,-4.542964 0,0 -0.57498,-3.923998 -0.37845,-5.139928 0.19654,-1.215916 -2.7088,0.559596 -2.7088,0.559596 l -0.95598,-4.895919 z m 0.0697,14.066433 c 0,0 -3.39794,4.816547 -4.54757,5.753653 -1.14961,0.937091 -2.34975,-0.129579 -2.34975,-0.129579 0,0 -1.21779,-4.813749 -2.35145,-4.747449 -1.13366,0.06629 -0.46255,-3.319976 -0.46255,-3.319976 l 0.9478,-1.938248 c -0.86807,0.979874 -1.68552,1.994978 -2.29241,3.145384 -1.16227,2.203304 -2.89319,4.774678 -2.15913,7.155127 0.49557,1.607058 2.24215,3.131901 3.92348,3.168851 1.52132,0.03341 2.85016,-0.595311 4.07843,-1.535566 z m 289.87737,-98.252031 6.13053,2.98755 c 0,0 -1.01809,3.20293 -0.27752,5.5685 0.74057,2.3656 -2.20019,1.26622 -3.76127,0.88911 -1.56106,-0.3771 -2.71388,-4.05635 -3.04304,-5.10775 -0.32912,-1.05136 0.95131,-4.33742 0.95131,-4.33742 z m -2.08255,10.13171 c 1.12424,-0.25757 4.2742,3.32376 4.2742,3.32376 l 0.59336,0.96785 c 0,0 0.92224,6.63707 1.66279,9.00266 0.74057,2.36555 -2.11945,1.52915 -4.94678,-1.04896 -2.8273,-2.57809 -2.36706,-3.87614 -3.68362,-8.08161 -1.3166,-4.20542 1.01692,-3.20395 1.90372,-4.05878 0.0555,-0.0534 0.12137,-0.0876 0.19632,-0.10494 z m 13.99634,-4.33824 3.88014,2.24806 0.29922,7.41073 -1.80552,3.45125 c 0,0 2.18656,4.22085 2.76259,6.06073 l 1.64569,5.25681 c 0,0 -3.07231,1.25104 -4.45287,0.52882 -1.38048,-0.72223 -4.12563,-3.03843 -4.12563,-3.03843 l 2.60056,5.53667 -0.44197,5.04317 -2.13449,2.4006 -5.55432,-1.14714 -1.82615,-4.91191 2.3309,-3.61569 c 0,0 -2.07085,-1.08351 -0.74066,-2.36573 l 3.1047,-2.99277 c 0,0 -1.72755,-5.51937 0.29289,-6.4405 2.02037,-0.92114 2.47986,-2.21838 2.47986,-2.21838 l -0.90509,-2.89106 5.20946,0.96671 -5.49158,-4.63155 z M 246.47,-62.508976 c -0.0942,0.234257 -0.18157,0.47756 -0.26501,0.730886 -0.9963,3.025303 -2.45553,7.898053 0.26772,9.550013 2.30429,1.39784 5.04743,-2.009545 7.27207,-3.530959 0.9586,-0.655582 1.88331,-1.356175 2.78338,-2.088197 -0.35727,-0.05875 -0.73653,-0.119058 -0.73653,-0.119058 l -2.25212,-0.738941 c -2.25133,-0.738196 -3.46524,-0.934744 -3.69612,-2.594071 -0.13025,-0.935662 -1.8721,-1.173709 -3.37339,-1.209673 z m 318.69873,-97.795154 4.25642,0.6863 -0.20962,6.70498 -5.04149,4.1759 -0.49393,-1.57777 -1.57942,-4.12391 z m -35.25117,12.76819 12.11135,4.57603 -2.32918,8.23358 c 0,0 -1.13509,0.066 -3.91211,-0.50766 -2.77698,-0.57363 -4.19139,-4.17046 -4.86568,-5.40237 -0.67423,-1.23195 -1.00438,-6.89958 -1.00438,-6.89958 z m -271.32015,90.095757 c -0.26575,0.214576 -0.5287,0.422544 -0.78706,0.615776 -3.19642,2.391129 -5.8101,8.398307 -3.30867,11.509189 1.93429,2.405518 6.36347,0.525596 9.24231,-0.588172 0.52033,-0.201282 1.07004,-0.479364 1.63149,-0.789279 -0.12627,-0.10225 -0.24362,-0.188109 -0.3773,-0.302647 -1.97245,-1.691301 -2.7455,-2.315672 -3.50205,-3.810436 -0.75658,-1.494757 0.24485,-3.829035 0.44139,-5.044966 0.10559,-0.65292 -1.6692,-1.209053 -3.34011,-1.589465 z m 19.72257,2.058903 c -0.0376,0.04173 -0.079,0.09206 -0.11632,0.133182 -3.50414,3.867658 -6.3494,6.187325 -11.10717,9.8695 0.30118,0.220884 0.5903,0.432907 0.85614,0.652484 2.35418,0.282371 5.80392,-0.10632 5.80392,-0.10632 l 4.96389,4.7948 3.84585,-0.625207 0.0704,-0.0023 c 2.10849,-2.354533 4.18197,-5.061169 6.18494,-7.678633 -0.34802,0.221964 -0.7234,0.465483 -0.7234,0.465483 l -3.23763,-3.893218 c 0,0 -3.41764,1.070639 -4.27243,0.183934 -0.53144,-0.551296 -1.5457,-2.413611 -2.26824,-3.79373 z m -10.36735,10.655192 c -0.50933,-0.0611 -0.96638,-0.155278 -1.32724,-0.289689 -0.94233,0.728019 -1.82058,1.408412 -2.94061,2.273721 -2.2729,1.755957 0.78336,6.380588 3.13978,8.022715 2.22857,1.553061 2.22325,2.395471 8.14877,0.159124 0.94078,-0.355049 1.88674,-0.896184 2.83421,-1.578665 l -0.62942,-0.527909 c 0,0 -4.43548,-0.344425 -5.53712,-2.019722 -1.10172,-1.675315 -1.16935,-2.8089 -2.27101,-4.484213 -0.43218,-0.657182 -0.89585,-1.124636 -1.41736,-1.555358 z m 253.59501,-83.452312 3.9606,2.51128 -3.4147,5.68741 -2.41477,-1.26483 z m -22.13943,15.01221 2.1521,1.34704 -2.59353,3.69794 c 0,0 1.6804,8.131572 0.19936,3.40041 l -1.64571,-5.2568 z m -172.65145,61.555006 2.79287,-0.297534 6.47538,3.168007 c 0,0 2.18547,-0.395808 4.55103,-1.136365 2.36556,-0.740568 2.45092,4.137533 2.45092,4.137533 l -2.81006,1.170109 -3.00639,-2.233222 -3.35192,2.202961 -2.46561,-3.269689 -7.34392,1.433891 z m -6.35365,9.203109 5.50406,-0.855925 c 0,0 0.62441,-0.773489 1.90667,0.556693 1.28221,1.330197 4.23921,1.558867 4.23921,1.558867 l 7.21543,5.53194 9.49661,-0.08505 1.51444,2.988687 1.65817,-0.230698 6.25836,-3.980055 0.37515,-6.177854 0.69499,9.59602 3.13776,-0.117099 -2.10143,5.276253 -4.73314,-3.136612 -5.2728,2.515916 -2.84367,-1.707351 -5.53836,-2.017368 -2.64608,-2.924788 -11.75106,-5.267595 -11.59853,0.747041 z m 26.76194,-5.78055 4.27241,-0.18393 8.47732,-1.498345 10.41822,6.550073 -5.12486,-0.702818 -5.86786,-3.069796 -5.15855,1.038144 z m -18.29762,9.767906 -5.18369,16.631592 6.11103,-0.759516 8.15133,2.066512 -5.12552,3.913794 -5.07808,-3.317036 -5.88026,2.417699 -1.94213,-3.43359 -3.33356,1.334 -3.41989,-3.54776 -5.4703,-0.885056 5.23789,-5.390993 0.70924,4.107964 6.7026,0.208856 3.04014,0.492239 z m 202.35515,-61.617341 0.38143,7.673386 c 0,0 -0.8997,6.342239 -2.03337,6.408564 -1.13359,0.06627 -2.16988,-0.476278 -2.16988,-0.476278 0,0 0.018,3.746577 -0.35915,5.307631 -0.37712,1.561072 -5.45265,2.862606 -5.45265,2.862606 l 3.67731,-5.769625 -9.8e-4,-4.616065 3.67907,-1.151771 2.199,-5.885588 z m -120.93441,46.336255 13.21299,12.480241 c -6.0887,-0.939973 -9.86516,-6.301165 -13.21299,-12.480241 z m -114.96862,37.37704 c -0.45628,2.598009 -0.16965,5.450779 1.50882,7.1920423 1.82179,1.8899141 5.21121,1.1505248 7.82451,0.9026249 0.69904,-0.066304 2.0089,-0.6310427 2.0089,-0.6310427 l -5.03939,-2.2723625 -3.22,-0.145548 z m 11.40996,7.578879 c 0.0438,0.4177014 0.10987,1.2062873 0.24051,3.2354098 0.1194,1.8547375 1.34613,3.7891402 2.94738,4.73274586 1.65284,0.97402376 3.87653,0.24028316 5.43055,-0.71834376 0.67995,-0.4194501 1.35756,-1.1236133 1.99133,-1.9429571 l -3.22458,-0.059174 -5.62058,-2.2800231 z m 15.09814,1.995491 c 0.5799,5.0226511 2.80972,11.2913528 7.48157,12.3762169 2.85361,0.6626529 5.69466,-2.4951205 7.23499,-4.98706849 0.25526,-0.41301188 0.4849,-0.87894104 0.69078,-1.38368465 l -2.96051,-0.11815258 -5.89738,-1.32814898 -5.20948,-0.9667105 z m 16.64588,6.03057391 c 0.17176,0.89125011 0.40225,1.7107192 0.70755,2.41756529 0.60284,1.3963555 1.79373,2.8987349 3.29224,3.1590723 2.24745,0.3904729 4.72055,-1.0977303 6.24674,-2.7931604 0.79065,-0.8783503 1.48398,-2.07749502 2.08961,-3.4335243 -2.92339,-0.4127523 -1.97923,-1.7798094 -1.20447,-2.5286809 l -5.78376,4.9534766 -3.26901,-2.1509964 z m 6.14556,6.03280539 c -0.87937,0.2524791 -1.71508,0.6121077 -2.49071,1.1175344 -3.4096,2.2216738 -6.33059,6.1899313 -6.63697,10.2478683 -0.33357,4.417367 1.14444,11.142087 5.46693,12.112064 0.57275,0.128555 1.16821,0.104628 1.77064,-0.02294 l -2.32727,-2.688789 -2.89748,-8.327728 2.77287,-8.6589022 6.9008,-1.0067513 -6.91217,11.1103345 3.71684,6.338819 0.64027,2.499853 c 2.31032,-1.265412 4.59933,-3.739276 6.3678,-5.977813 -1.5483,-0.989894 -3.13898,-2.283686 -2.44408,-3.14409 1.24792,-1.545077 8.35794,-9.2557423 8.35794,-9.2557423 l -3.6878,-4.732043 c -2.97438,-0.1622003 -5.98044,-0.3633189 -8.59767,0.388336 z m 126.05015,-29.9699193 -3.39987,6.113401 c 0,0 -3.59842,1.415494 -2.19955,5.883787 1.39881,4.4683024 0.5945,5.5838877 0.5945,5.5838877 0,0 -6.39114,1.7130224 -6.07798,3.6351856 0.31316,1.9221899 -0.37165,10.795155 -0.37165,10.795155 l -4.89301,5.5714177 -0.96671,5.209434 -6.22413,6.853345 -2.55983,6.575394 c 0,0 -4.35387,-0.08138 -6.29205,1.102599 -1.93816,1.183965 -11.05317,8.943927 -11.05317,8.943927 l -7.91658,4.210764 c 0,0 -2.57981,-1.789375 -6.20927,1.367003 -3.62947,3.156459 -8.21296,6.03397 -8.21296,6.03397 l -8.708,-0.159719 -8.71099,-4.775327 c 0,0 -6.54124,-4.304173 -7.88745,-2.151114 -1.34616,2.153065 -12.25226,7.87733 -12.25226,7.87733 l -6.44518,-9.526291 0.0617,-8.100493 -7.39582,-5.187052 -0.12061,-7.755041 c 0,0 -1.20016,-0.595676 -2.42933,-1.380754 -1.72619,2.233134 -3.9593,4.77783 -6.25972,6.423999 l 0.54413,2.123033 -2.59183,8.315815 6.78721,0.472794 -0.76921,8.610388 c 0,0 1.84932,0.755637 3.49028,1.595802 2.99622,-1.811605 5.12887,-3.316335 5.12887,-3.316335 0,0 -1.95272,1.539261 -4.4097,3.701561 0.89676,0.499937 1.62955,0.996645 1.74062,1.351439 0.32914,1.051351 -1.78826,7.197627 1.41613,8.214651 3.20442,1.017043 6.17786,0.37514 6.17786,0.37514 0,0 2.54831,-0.668791 5.89793,-0.973303 1.75901,-2.546274 2.87091,-4.389247 2.87091,-4.389247 0,0 -0.28605,1.800241 -0.56934,4.251434 1.08394,-0.02802 2.20466,-0.0054 3.3186,0.100812 5.65227,0.539288 9.46749,6.272068 10.32235,7.158845 0.85483,0.886798 4.58408,1.739294 9.84092,0.09359 5.25679,-1.645718 5.30514,-4.258666 12.51843,-3.342237 7.21336,0.916372 15.37701,-2.504387 17.05232,-3.606043 1.67531,-1.101694 8.213,-6.033979 8.213,-6.033979 l 6.74604,-8.006407 c 0,0 5.73403,-2.827622 8.37837,-4.521274 2.64444,-1.693687 5.99186,-8.514012 6.63179,-10.157362 0.63992,-1.643347 0.54388,-6.773627 3.20171,-8.216343 2.65779,-1.442696 -0.74323,-6.98192 3.14912,-10.220694 3.89227,-3.2387285 7.41801,-15.0218784 7.41801,-15.0218784 l 5.78044,-6.4280313 2.20711,-12.6616323 c 0,0 -1.93199,-1.028291 -4.56204,-2.615358 z m -32.20451,69.842564 c 0,0 4.44938,4.876235 7.43322,5.003504 3.94301,0.168147 8.08106,-2.52121 10.3477,-5.752131 1.28364,-1.829526 1.06891,-6.618261 1.06891,-6.618261 0,0 -1.58251,2.659422 -2.22244,4.302771 -0.63993,1.643349 -7.24219,5.443634 -7.24219,5.443634 l -2.77746,-0.574464 z m 0,0 2.53927,14.62274 -3.95594,6.722047 c 0,0 -6.48898,2.319853 -7.54039,2.649005 -1.05133,0.329129 -9.48833,-4.292961 -9.48833,-4.292961 0,0 0.88713,2.390406 3.02739,3.9788 3.82416,2.838083 10.20083,2.581021 14.28628,0.134033 3.47621,-2.082045 5.33073,-6.730622 5.63356,-10.771307 0.3438,-4.586716 -4.50184,-13.042357 -4.50184,-13.042357 z m -18.44539,19.700831 -4.53975,9.26144 c 0,0 -3.00564,2.384736 -4.23758,3.059005 -1.2319,0.674274 -6.86943,-0.735456 -6.86943,-0.735456 l -3.85965,-3.980948 -9.39593,9.574758 -3.53406,-2.06998 -4.60302,-5.484589 -4.56698,2.006562 -3.82753,-0.243767 -3.92054,-2.257156 c 0.4841,3.223233 1.27118,6.522681 3.97235,7.489476 2.30081,0.823467 4.51834,-1.989543 6.45081,-3.48523 0.90022,-0.696724 1.49105,-2.813747 2.32401,-2.527103 -0.015,0.469723 -0.0136,1.103846 0.0241,2.001389 0.12818,3.054427 2.1035,7.05227 5.10825,7.615852 3.91463,0.734302 7.356,-3.690699 9.79881,-6.836621 1.04119,-1.340901 1.8088,-4.276878 2.05725,-5.309856 0.0473,0.464072 0.32142,1.381588 1.2693,3.221493 1.48852,2.890621 5.37314,5.207694 8.5756,4.645874 4.59228,-0.805626 7.37791,-6.203323 9.29692,-10.452452 1.2643,-2.799358 0.47707,-5.492692 0.47707,-5.492691 z m 37.29522,-27.067719 c 0,0 4.87352,-0.717413 6.11576,-2.542775 1.65969,-2.438786 1.0823,-6.046236 0.16302,-8.849286 -0.72902,-2.223264 -4.25961,-5.580228 -4.25961,-5.580228 l 1.79856,10.149309 z m 2.01917,-16.972289 c 0,0 5.2699,-0.639232 6.99846,-2.398373 1.37358,-1.397824 0.31988,-4.322717 1.80974,-5.595824 1.38267,-1.181529 4.19032,0.519 5.39003,-0.847872 1.76526,-2.0113197 0.21106,-8.0268008 0.21106,-8.0268137 l -3.69837,6.6236527 -7.27765,2.566752 -0.20962,6.704987 z M 473.74307,3.9775707 c 6.74046,-0.3043408 20.40666,-1.1710288 23.10715,-5.1381141 2.02138,-3.2708794 0.59935,-8.3197092 -1.68776,-11.4107016 -1.74281,-2.355455 -5.26035,-4.330137 -8.86151,-5.862066 -2.32399,1.112054 -5.7609,2.947663 -5.6069,4.054627 0.23085,1.659355 -6.13782,11.7350979 -6.13782,11.7350979 z M 334.81547,22.545403 c 0,0 -11.32664,11.247552 -9.36426,17.594705 0.97425,3.150956 8.76632,4.586141 8.76632,4.586141 0,0 -6.90529,5.460725 -5.65905,8.683431 1.13361,2.931479 5.99474,2.687049 9.12278,2.380665 1.97685,-0.193627 4.33985,-0.997992 6.7292,-2.053342 l -4.43746,0.470656 c 0,0 -8.90738,-3.561634 -7.05152,-5.008422 1.85586,-1.446805 6.89842,-5.620491 6.89842,-5.620491 l -1.0559,-4.287802 c 0,0 -4.53271,0.264808 -6.16005,-1.245915 -1.62739,-1.510744 0.40652,-7.920085 0.40652,-7.920085 0,0 -0.47758,-2.447536 2.20124,-1.265927 2.67874,1.181614 9.71078,2.441554 9.71078,2.441554 l -1.64882,-1.903636 c -0.57379,0.299893 -1.14405,0.53353 -1.70497,0.66808 -1.3483,0.323355 -2.92759,-0.347467 -3.96007,-1.272894 -1.69867,-1.522551 -2.79317,-6.246747 -2.79317,-6.246747 z m 153.99505,-37.732691 c 0,0 4.5681,2.610665 5.42291,3.497483 0.85484,0.88679 2.92944,6.5872915 2.92944,6.5872915 0,0 -1.00063,2.3330579 -2.42907,4.22324364 -1.42847,1.89021456 -5.43723,1.99060496 -5.43723,1.99060496 0,0 -9.69529,1.3028502 -10.74663,1.6319826 -1.0514,0.3291643 4.97701,-5.3093284 4.97701,-5.3093284 l 5.15397,-10.2715143 z M 349.43048,53.202518 c -2.38892,2.325804 -4.70742,4.878396 -5.95114,7.05631 -2.30124,4.029615 -6.35351,9.777654 -3.53599,13.464827 2.76354,3.616529 9.48693,1.952716 13.65501,0.12426 1.40132,-0.614734 2.85259,-1.617778 4.29032,-2.846379 1.95106,-3.559898 5.97752,-8.688305 5.97752,-8.688305 l -14.73405,10.096262 -5.76672,0.938162 -0.27974,-3.66364 6.662,-16.515606 z"
       id="path4155-3" />
  </g>
</svg>
