<?xml version="1.0" encoding="UTF-8" standalone="no"?>
<!-- Created with Inkscape (http://www.inkscape.org/) -->

<svg
   xmlns:dc="http://purl.org/dc/elements/1.1/"
   xmlns:cc="http://creativecommons.org/ns#"
   xmlns:rdf="http://www.w3.org/1999/02/22-rdf-syntax-ns#"
   xmlns:svg="http://www.w3.org/2000/svg"
   xmlns="http://www.w3.org/2000/svg"
   xmlns:sodipodi="http://sodipodi.sourceforge.net/DTD/sodipodi-0.dtd"
   xmlns:inkscape="http://www.inkscape.org/namespaces/inkscape"
   id="svg2"
   version="1.1"
   inkscape:version="0.92.2 (unknown)"
   width="967.33325"
   height="823.0285"
   viewBox="0 0 906.87496 771.5892"
   sodipodi:docname="logoPA_MozillaCOLOR.svg"
   inkscape:export-filename="/home/keik/Escritorio/IMAGEN MOZILLA CENTROAMERICA/Panama/LogoPA_MozillaCOLOR.png"
   inkscape:export-xdpi="100"
   inkscape:export-ydpi="100">
  <title
     id="title4536">LogoMozillaHonduras</title>
  <metadata
     id="metadata8">
    <rdf:RDF>
      <cc:Work
         rdf:about="">
        <dc:format>image/svg+xml</dc:format>
        <dc:type
           rdf:resource="http://purl.org/dc/dcmitype/StillImage" />
        <dc:title>LogoMozillaHonduras</dc:title>
        <cc:license
           rdf:resource="http://creativecommons.org/licenses/by-nd/4.0/" />
        <dc:creator>
          <cc:Agent>
            <dc:title>KarlaLHdz</dc:title>
          </cc:Agent>
        </dc:creator>
        <dc:source>Mozilla El Salvador</dc:source>
        <dc:description>Hecho para Mozilla Centroamerica en el año 2017</dc:description>
      </cc:Work>
      <cc:License
         rdf:about="http://creativecommons.org/licenses/by-nd/4.0/">
        <cc:permits
           rdf:resource="http://creativecommons.org/ns#Reproduction" />
        <cc:permits
           rdf:resource="http://creativecommons.org/ns#Distribution" />
        <cc:requires
           rdf:resource="http://creativecommons.org/ns#Notice" />
        <cc:requires
           rdf:resource="http://creativecommons.org/ns#Attribution" />
      </cc:License>
    </rdf:RDF>
  </metadata>
  <defs
     id="defs6" />
  <sodipodi:namedview
     pagecolor="#ffffff"
     bordercolor="#666666"
     borderopacity="1"
     objecttolerance="10"
     gridtolerance="10"
     guidetolerance="10"
     inkscape:pageopacity="0"
     inkscape:pageshadow="2"
     inkscape:window-width="1366"
     inkscape:window-height="708"
     id="namedview4"
     showgrid="false"
     showborder="true"
     inkscape:zoom="0.62816779"
     inkscape:cx="483.66663"
     inkscape:cy="411.51425"
     inkscape:window-x="0"
     inkscape:window-y="0"
     inkscape:window-maximized="1"
     inkscape:current-layer="layer2"
     borderlayer="true"
     inkscape:showpageshadow="false"
     units="px"
     showguides="true"
     fit-margin-top="100"
     fit-margin-left="100"
     fit-margin-right="100"
     fit-margin-bottom="100"
     inkscape:guide-bbox="true" />
  <g
     inkscape:groupmode="layer"
     id="layer2"
     inkscape:label="Layer 2"
     style="opacity:1"
     transform="translate(-41.54831,387.95176)">
    <g
       id="g848"
       transform="matrix(1.257514,0,0,1.257514,-127.46577,0.55549746)">
      <path
         id="path4155"
         d="m 265.51979,-274.33283 c -4.15307,0.26287 -7.46443,1.97198 -9.27426,5.98043 -2.90315,6.43005 4.23259,11.65265 12.25086,15.74377 l -7.67626,-10.12732 4.58937,-8.90911 22.47083,6.08605 37.1396,15.09696 31.35001,20.52632 14.24859,14.41629 -12.09772,-5.20418 -7.91924,1.59 c 0,0 -0.0395,-0.44511 0.17086,-3.14967 0.21025,-2.7045 0.54005,-4.07525 0.34505,-6.29657 -0.19502,-2.22128 -8.30928,-2.85253 -8.30928,-2.85253 0,0 -10.31236,4.93659 -10.60062,6.75261 -0.28824,1.81603 1.91672,6.54536 1.91674,6.54536 0,0 -3.91777,1.23992 -7.68205,4.25647 -3.76431,3.01656 -6.1584,6.35955 -6.1584,6.35955 l -9.56286,-1.84467 4.53543,-4.42761 1.51765,-8.19202 2.26791,-5.40517 c -10.71092,-3.83584 -40.29208,-13.90649 -57.54611,-14.45756 -14.47709,-0.46239 -41.39704,-6.24122 -42.67629,8.18666 -0.59392,6.69844 8.3431,8.32016 16.90537,9.18226 4.29019,-4.1148 11.57308,-13.79063 11.57308,-13.79063 l 23.62552,-1.17938 31.62873,8.41364 -2.52552,6.9384 c 0,0 -10.33584,-0.43685 -11.83985,2.82897 -1.22328,2.65621 -4.71161,4.84628 -6.02259,5.60301 6.30331,1.67485 10.47898,2.92558 10.47898,2.92558 0,0 -6.01656,-1.38715 -14.64716,-3.04072 l -8.67711,-1.14414 30.58493,6.7158 -4.78452,6.68633 -7.6102,5.14488 -0.91731,9.23632 -5.98471,3.90521 -3.68651,3.90568 0.36213,8.27828 -36.84147,2.25999 c 0,0 -2.73164,0.20955 -6.66212,0.62177 1.91399,-0.0287 3.61629,-0.0784 4.70965,-0.17446 4.88683,-0.42903 1.19997,3.47669 1.19997,3.47669 0,0 -8.74431,7.48222 -12.46962,10.94302 -2.71281,2.52022 -2.87684,6.92695 -2.76947,9.15075 9.62088,-0.77389 17.30693,-1.16769 23.09914,-1.3814 l 0.69211,-2.90127 0.49815,-4.51745 2.56449,-6.49446 3.89662,-6.60836 15.18138,-0.43807 -5.22848,6.72529 c 0,0 -8.30178,7.44461 -9.96181,8.9334 -1.66003,1.48878 4.11149,5.05345 4.11149,5.05345 l -14.64611,7.51225 c 0,0 -4.63153,8.46356 -4.39752,11.12909 0.16258,1.85184 -0.54656,5.84084 -1.00216,8.16518 3.67343,-0.51698 6.39743,-0.91402 6.39743,-0.91402 0,0 -19.93398,13.48167 -29.72027,20.47955 -6.55276,4.685692 -16.81432,14.048662 -12.70993,21.189342 2.21149,3.847444 7.41157,4.406954 12.63795,3.434684 l 1.35393,-3.774474 5.01233,-14.31773 c 0,0 1.59749,-7.303442 3.25753,-8.792192 1.66002,-1.48877 19.28806,-9.74907 19.28806,-9.74907 0,0 -10.01283,13.4131 -9.81783,15.634362 0.19502,2.22128 1.39511,5.69949 1.39511,5.69949 l -3.86285,7.93524 c 3.09352,-1.59277 6.47196,-3.2034 9.86492,-4.76678 l 5.62767,-3.29472 2.60064,-0.39382 c 5.36009,-2.33352 10.11001,-4.29521 12.90166,-5.42865 -2.72146,1.12405 -6.96581,2.95436 -11.66797,5.24066 l 10.30324,-1.55413 -8.1683,3.8487 -3.31144,13.273664 -1.94271,6.770809 0.3051,0.08962 -1.79075,5.081373 1.48565,-5.171018 -5.66444,-1.626184 -3.57866,-5.05734 1.67662,-6.416514 -6.37342,0.55954 c -2.99639,2.12927 -5.62648,4.348294 -7.52651,6.586904 -4.65266,5.481707 -11.71939,14.238578 -7.65469,20.16945 3.24702,4.737802 11.69918,1.658677 17.23049,0.111308 9.35042,-2.615774 16.91486,-9.614824 24.80246,-15.276888 6.88062,-4.93921 19.54576,-16.237164 19.54576,-16.237164 0,0 -11.62911,12.869074 -18.42456,18.188689 -8.00764,6.268534 -16.24489,13.126483 -26.0196,15.932218 -6.65733,1.910905 -16.45816,5.615516 -20.77601,0.199952 -2.94473,-3.6933 1.42119,-12.850891 3.28815,-13.78335 -9.74009,6.516383 -20.0366,14.020084 -20.52323,24.718851 -0.12953,2.847536 2.18119,6.024108 4.84125,7.048519 10.38026,3.997453 22.21858,-3.393872 32.46403,-7.72525 3.07222,-1.298786 6.62912,-3.183859 10.32878,-5.346775 l -1.98957,-3.640239 13.26434,-6.986471 -2.00361,7.787348 2.86187,1.988681 1.22373,8.843039 5.36969,-0.02101 c 0,0 0.23484,2.663616 -1.15195,7.262162 -1.38701,4.598576 -0.94188,4.558815 -0.47386,9.889882 0.46804,5.331104 9.23613,3.218553 9.23613,3.218553 l -9.94685,4.007921 c 0,0 -5.92981,-1.270402 -7.01333,-3.413692 -1.08353,-2.143279 1.32582,-10.412065 1.32582,-10.412065 l -5.07649,0.917562 c -0.20193,0.344046 -1.3226,1.38232 -4.83757,4.092533 -1.46317,1.128207 -2.79089,2.059642 -4.05516,2.917663 l 1.65245,4.791356 7.44565,8.3029436 1.61216,2.62236 c 4.04071,-2.497658 7.96841,-5.2076356 11.89876,-7.8471346 9.99864,-6.714647 28.74057,-21.901111 28.74057,-21.901111 l 6.52913,11.649827 3.6566,5.945224 2.40138,2.013788 10.20495,-8.467519 c 0,0 -3.82887,3.960402 -9.23249,9.283005 l 2.42455,2.033205 -0.35665,11.2247886 c 0,0 -2.78326,-1.096524 -3.38352,-2.83456 -0.60027,-1.738027 -4.19388,-1.873567 -4.34989,-3.650586 -0.0265,-0.302616 -0.0913,-0.6942136 -0.17114,-1.1125986 -5.5795,5.3392546 -11.84671,11.10656856 -17.40879,15.6236316 1.45006,3.254243 5.00255,5.3950304 5.00255,5.3950304 0,0 2.70594,0.212869 7.14849,-0.177153 4.44258,-0.3900256 7.3011,1.595868 7.3011,1.595868 0,0 0.77813,0.635974 2.11233,1.478399 10.78598,-9.4024694 24.93378,-23.518794 24.93378,-23.518794 0,0 -2.99032,3.3407416 -7.28788,7.9785536 l -2.82204,8.098197 9.60212,2.291677 c 0,0 4.03718,0.09264 8.96302,0.10785 4.92582,0.01522 -3.00873,6.5304024 -3.00873,6.5304024 l -7.55017,0.662849 c 0,0 -2.53331,-3.356227 -4.34937,-3.644493 -1.81602,-0.288234 -4.19373,-1.871747 -4.19373,-1.871747 l -4.7248,-3.5931664 c -2.55386,2.658204 -5.22411,5.3804814 -7.84056,7.9658084 1.59928,0.866327 3.623,1.786719 6.00201,2.469831 5.97034,1.714243 10.24372,4.476474 11.36628,7.064005 1.12249,2.587515 -4.13226,3.941159 -10.71812,5.414684 -6.58586,1.47357 -8.3084,-2.850173 -9.50894,-6.326202 -0.49838,-1.443061 -2.72875,-1.493667 -5.16485,-1.066397 -4.41112,3.811722 -10.26149,7.76478 -16.13517,12.086061 l 2.61208,0.469313 c 0,0 7.72285,-3.812688 9.49986,-3.968695 1.77704,-0.156011 3.99853,-0.351212 8.4801,-0.29711 4.48156,0.05426 1.02911,6.626344 1.02911,6.626344 0,0 9.1035,6.810683 10.18703,8.953953 1.08351,2.143288 -4.1286,3.944807 -6.83315,3.734565 -2.70453,-0.210212 -5.85441,-0.383835 -7.63145,-0.227825 -1.777,0.156008 -2.1926,-9.652741 -2.1926,-9.652741 l -9.85119,-0.03293 c 0,0 2.23168,10.100943 2.90993,12.72749 0.67828,2.626533 3.24886,6.43147 3.24886,6.43147 0,0 4.19482,1.87039 7.01635,3.41341 2.8216,1.543016 -6.79566,4.178638 -9.01691,4.373649 -2.22131,0.195014 -13.0413,-0.646992 -15.34057,-1.340498 -2.29931,-0.693518 -3.45914,-3.72728 -3.20991,-5.987524 0.24925,-2.260292 4.87741,-10.723877 4.87741,-10.723877 l -5.33192,-6.913482 c -0.28593,0.25266 -0.57435,0.502928 -0.85574,0.758434 -5.89201,5.349943 -9.173,17.062229 -4.43952,23.460017 4.58095,6.19164 15.38292,3.870086 22.96765,2.530872 9.66438,-1.706406 18.26527,-5.693979 26.38877,-13.053651 13.4567,-12.191426 35.56882,-47.2959804 35.56882,-47.2959804 0,0 -19.77762,37.4803874 -35.11754,51.4941314 -6.63208,6.058775 -18.46955,5.703042 -23.54276,13.116309 -0.21549,0.31492 -0.42411,0.644699 -0.6276,0.983565 l 8.57679,-1.185031 c 0,0 9.75891,4.067081 12.90771,4.238305 3.14879,0.171242 2.88285,7.358365 2.88285,7.358365 l 5.35447,4.901422 6.76035,7.198713 c 0.9928,-1.148784 1.77646,-3.702076 2.25579,-5.682922 -0.22725,1.289133 -0.55396,3.297915 -0.94945,5.868538 l 11.52728,1.638509 13.93077,0.569537 6.71031,10.153899 2.81359,-8.753172 7.24745,6.080412 7.66109,-9.626124 -1.97961,13.156744 8.44112,-0.74106 5.68121,3.52758 -1.43944,9.08296 c 0,0 -8.44114,0.73947 -16.28801,-1.66179 0,0 1.22823,4.71637 4.09637,6.27741 5.40249,2.94036 11.04882,-0.15192 15.35129,-3.10964 8.2469,-5.66931 12.05202,-16.05303 16.26809,-25.230826 l -10.1381,-3.056607 -15.01354,-2.711336 -13.84951,0.321155 -5.66651,-8.456091 8.40188,-1.188047 c 0,0 9.19668,2.776453 10.24119,4.475484 1.04453,1.699009 9.31407,4.106432 9.31407,4.106432 l 15.22339,0.0055 9.06246,3.334904 c 36.98405,-48.000072 47.66083,-56.955618 47.66083,-56.955618 0,0 -30.75529,49.334877 -44.97213,63.11459 -2.59936,6.00017 -11.85037,10.26456 -14.99353,16.29406 0.78739,-0.09 1.58417,-0.39083 2.27694,-1.07931 0.92643,-0.92072 1.96396,-1.28693 2.89993,-1.38222 1.55993,-0.1587 2.83545,0.43131 2.83545,0.43131 l 0.25789,8.03312 -5.47726,8.98705 c 0,0 2.14367,-1.08173 8.20727,-3.40478 6.06354,-2.32302 3.24858,6.42843 3.24858,6.42843 l -1.76644,10.45382 4.60749,11.68064 5.82272,10.23493 11.50978,-1.45784 7.22618,0.70769 c 0,0 -0.0297,9.85242 0.16525,12.07373 0.19501,2.22127 10.5677,3.09856 10.5677,3.09856 l 10.00709,1.80874 c 0,0 1.0756,-8.1523 2.73563,-9.64108 1.66001,-1.48876 10.75681,-4.97378 10.75681,-4.97378 l 1.39484,5.69644 8.1053,-9.66208 c 0,0 2.002,-7.78815 4.3403,-6.65037 2.33827,1.13777 7.09127,4.30158 7.09127,4.30158 0,0 -1.39402,-5.69712 1.79381,-5.08162 3.18776,0.61549 5.48633,1.30781 5.48633,1.30781 l 5.50153,-3.61458 5.92427,-9.02631 4.80853,-1.31688 2.5405,-11.86388 11.21264,-9.93794 8.6363,1.48172 5.80144,4.86219 8.90001,-5.70548 3.55851,-4.24684 c -6.09842,-6.25338 -12.87875,-14.24729 -15.10458,-20.815743 -2.89922,-8.555517 1.19935,-27.070127 1.19935,-27.070127 0,0 -1.38648,17.630892 1.70455,26.815185 0.97159,2.886785 5.70684,3.403525 8.69489,2.812555 5.31536,-1.05127 9.08493,-6.22279 12.39725,-10.510752 4.52468,-5.857373 9.61692,-20.016903 9.61695,-20.016906 l 16.04431,-6.210162 c 0,0 8.20596,10.758371 13.79471,13.015951 6.49634,2.624227 14.18165,3.548668 20.94884,1.73369 6.72129,-1.802647 13.44936,-6.009287 17.1502,-11.902447 2.12924,-3.390525 1.65393,-8.559448 1.65393,-8.559448 0,0 -6.02852,6.408053 -11.11743,8.09107 -5.68956,1.881623 -13.0148,0.966167 -17.7825,-2.664336 -3.17604,-2.418474 -6.4837,-7.298425 -4.85852,-10.944664 1.75803,-3.944349 11.38319,-2.87189 15.63859,-3.606745 5.32551,-0.919658 7.68752,-2.308987 12.89023,-0.846711 4.21786,1.185498 11.02497,7.155273 11.02497,7.155273 0,0 -2.36599,-10.598467 -6.11175,-14.085747 -5.54853,-5.165675 -13.87466,-7.592445 -21.45542,-7.538759 -5.36528,0.03804 -11.39461,1.798331 -16.83471,3.629036 -7.76662,2.613688 -14.84148,4.843817 -22.27336,10.403384 -3.6048,2.696646 -6.5169,10.138976 -10.20897,12.714862 -5.1936,3.623438 -11.65975,5.763882 -17.98186,6.128978 -10.18528,0.588116 -29.91384,-6.471405 -29.91384,-6.471405 l -24.75079,20.368069 23.86996,-24.188399 c 0,0 19.88533,6.113896 30.04788,5.485187 5.5131,-0.341097 11.40743,-1.628799 15.81053,-4.963952 4.59383,-3.479632 9.45058,-14.477581 9.45058,-14.477581 -7.03768,2.867496 -15.3407,9.809724 -22.66091,9.269973 -6.928,-0.654429 -15.80566,-2.534558 -18.96506,-8.734862 -1.69152,-3.319647 0.58691,-12.321813 5.15073,-12.601691 4.53965,-0.278394 10.17542,0.511621 13.0293,4.052987 1.89558,2.352231 0.7926,9.027985 0.7926,9.027985 0,0 7.98378,-8.469446 7.5735,-13.660108 -0.40559,-5.131267 -13.17345,-8.556954 -13.17345,-8.556954 0.4518,-2.110196 15.513,-0.895802 16.10262,8.624594 0.15868,2.559642 -2.27808,7.348744 -2.27808,7.348744 0,0 9.48344,-8.43655 8.5402,-13.748054 -1.1612,-6.539013 -9.1408,-11.225114 -15.69948,-12.2696 -10.36385,-1.650467 -21.68056,3.835228 -29.59944,10.721776 -4.94548,4.300776 -9.19589,17.378463 -9.19589,17.378463 l -16.09809,12.787544 8.12195,-11.112897 c 0,0 5.15896,-13.523435 5.65837,-20.640722 0.75588,-10.771383 -4.12005,-32.130937 -4.12005,-32.130937 0,0 7.08767,20.6863034 6.18599,32.173257 -0.38517,4.906729 -4.28093,15.424038 -4.28093,15.424038 0,0 8.08536,-14.991816 14.39229,-19.547533 9.39919,-6.789352 19.67969,-9.5761244 31.02532,-7.1852536 7.35387,1.5497076 17.17448,5.2918726 18.65692,12.6595716 1.37946,6.855659 -11.45516,17.576792 -11.45516,17.576792 l -4.49036,9.338585 c 0,0 13.39247,-9.041114 17.58111,-15.684718 6.35801,-10.084527 10.72925,-22.056659 9.97987,-34.34627144 -0.16027,-4.36902396 1.85665,-12.18380056 1.85665,-12.18380056 l 3.14288,-12.296733 c 0,0 -6.24803,9.586995 -10.33936,8.053401 -5.52403,-2.070624 -3.37284,-17.371982 -3.37284,-17.371982 0,0 -9.93177,11.661375 -15.62798,11.894431 -3.0204,0.123593 -4.85063,-4.35109 -7.8694,-4.509038 -5.34947,-0.27988 -14.70209,6.490645 -14.70209,6.490645 0,0 8.73033,-11.978741 4.2904,-14.024559 -5.08458,-2.342842 -18.45431,2.95385 -21.7605,-3.614296 -2.00542,-3.984027 7.33448,-7.620029 6.10341,-11.907044 -0.66121,-2.302533 -5.14238,-1.520952 -6.1729,-3.683591 -0.81054,-1.701009 0.80821,-5.592621 0.80821,-5.592621 0,0 -10.73931,6.25996 -15.86433,4.316023 -4.69387,-1.78045 -8.95747,-7.624624 -8.25454,-12.595332 0.69101,-4.886492 11.22891,-9.648282 11.22891,-9.648282 -10.68499,-8.118134 -18.78184,-12.945664 -26.28588,-21.200724 -7.10962,-8.147672 -8.55176,-20.424312 -16.11632,-28.151452 -7.18614,-7.34051 -20.74124,-7.31321 -26.41593,-15.87601 -7.81893,-11.79841 -1.89122,-28.4857 -5.96451,-42.04099 -5.33573,-17.75648 -0.6275,-25.96686 -23.83598,-50.25594 -4.6429,-4.85903 -27.65629,-11.03106 -28.06753,-4.32305 -0.27763,4.52808 3.56359,8.6434 6.87731,11.74181 4.06839,3.80406 20.52191,7.39803 14.95244,7.46005 -8.90973,0.0993 -10.43559,-1.41755 -14.96016,-3.88345 -4.35891,-2.37561 -8.79137,-3.76412 -13.66625,-2.82654 -6.03265,1.16025 -5.96921,5.85259 -5.2576,9.35996 0.88931,4.38333 6.63709,6.15961 10.60937,8.21519 5.44722,2.8188 17.6003,5.37069 17.6003,5.37069 -18.48567,1.82074 -23.69986,-7.18045 -29.45457,-2.70596 -3.45882,2.68929 -2.42802,8.0986 0.59133,11.27332 6.13152,6.44687 25.41122,8.16587 25.41122,8.16587 0,0 -23.00291,0.0159 -30.83706,-7.03994 -5.36661,-4.83343 -2.58576,-14.79069 -7.0003,-20.50681 -17.56686,-22.74617 -44.97418,-37.5332 -71.90409,-47.57109 -10.53169,-3.92558 -26.63604,-12.69205 -37.24945,-12.02008 z M 470.12103,183.5821 c 0,0 -3.24045,3.86621 -6.31122,4.58348 -3.07079,0.71727 -2.64397,5.60333 -5.27049,6.2816 -2.62651,0.67827 -6.77834,-0.74763 -8.42314,-4.18466 -1.6448,-3.43709 -6.92318,-7.44793 -6.92318,-7.44793 0,0 -8.38675,-3.74232 -9.43126,-5.44136 -1.04453,-1.699 -8.58235,-5.96324 -8.58235,-5.96324 l -7.5259,6.03531 3.41342,-7.01637 c 0,0 -8.38893,-3.73966 -10.24396,-4.47215 -1.85506,-0.73253 0.0138,-4.9266 1.11267,-7.70915 1.09875,-2.78255 4.10974,-9.3113 4.10974,-9.3113 l -7.25046,-6.08014 -12.78172,7.38837 -2.07249,17.19434 -2.21372,10.49001 4.67969,2.27648 4.5688,11.23971 2.68771,5.13558 11.85456,-7.75745 c 0,0 7.82536,2.44763 9.54819,6.77317 1.72278,4.32558 4.89338,9.86577 8.04219,10.037 3.14877,0.17126 15.55046,-1.36431 15.82347,1.7455 l 0.2731,3.11067 c 0,0 15.44718,-7.62272 17.26318,-7.33447 l 12.71281,2.01858 8.41683,-6.11352 7.09994,-10.92204 c 0,0 5.83792,5.30941 9.83624,4.95838 3.99829,-0.35102 9.92103,-9.37717 12.58654,-9.61118 2.66554,-0.23402 14.17647,-1.69253 13.86445,-5.24659 -0.31201,-3.55405 -0.0857,-11.18504 2.01859,-12.71281 2.10429,-1.52779 9.59304,-8.00322 9.59304,-8.00322 l 5.37834,-15.24462 6.98903,-1.95875 -3.69558,-6.38919 c 0,0 -5.50996,-6.67977 -6.08646,-3.0477 -0.57649,3.63202 -3.98951,10.64592 -3.98951,10.64592 0,0 -6.05011,-2.60228 -6.26034,0.10224 -0.21026,2.70458 -2.49845,12.30758 -2.49845,12.30758 l -6.85142,8.65724 c 0,0 -6.16368,-3.93416 -6.85715,-1.63485 -0.69352,2.29929 -7.67604,14.55159 -7.67604,14.55159 l -2.57972,11.41691 -8.09153,-8.01645 -15.38715,0.67678 -4.49315,4.8743 z m -74.10785,-33.33754 c 0,0 5.07467,-8.50184 6.09539,-12.17287 1.02076,-3.67107 1.23089,-6.37647 -0.66312,-7.55324 -0.83353,-0.51791 -2.09572,-1.07166 -3.2579,-1.54328 -0.91914,0.67377 -1.89105,1.28547 -2.92588,1.81959 -1.64518,0.84913 -3.37023,1.28225 -5.15406,1.42996 l -2.66155,7.13422 -1.43969,9.07993 -4.02851,10.20197 -8.43204,11.03595 13.14742,-8.31832 z M 294.41546,-36.60676 c 0.10742,0.183601 -22.23796,21.417965 -39.2202,32.0565946 l 1.66911,2.71236 6.92043,7.451243 c 0,0 -3.7811,7.8997834 -6.01985,12.0559784 9.34796,-3.234146 21.36238,-11.5307274 21.36238,-11.5307274 0,0 -6.38673,-10.712412 -9.05229,-10.478396 -2.66553,0.234013 -4.46682,-4.982434 -4.46682,-4.982434 l 9.86615,-4.8925176 c 0,0 6.28344,5.2672076 8.00624,9.5927686 1.58394,3.97698496 0.5033,3.321789 0.61937,6.634738 l 17.57355,-14.5839916 c -0.38656,-1.551368 -0.79774,-2.978823 -0.79774,-2.978823 0,0 -2.22275,0.195354 -6.7043,0.141218 -4.48156,-0.05423 1.83297,-4.638918 1.1547,-7.265455 -0.67828,-2.626511 -6.29628,-0.341969 -6.29628,-0.341969 z m -25.09641,-180.31502 0.42173,-0.36182 c -14.44839,-2.50084 -32.53515,-4.90084 -44.43986,-3.83865 -11.11905,0.9913 -31.13321,-1.17514 -31.97705,9.9561 -0.36796,4.8535 3.095,8.20317 8.22175,10.23264 0.52558,-0.36316 1.06347,-0.7307 1.06347,-0.7307 l 6.83617,-3.73483 0.8249,-5.89132 10.40578,-8.97236 z m 20.96424,-41.68411 -15.52797,8.95015 c 2.07403,0.9238 4.07816,1.79826 5.77455,2.56643 4.71001,2.13279 9.78533,4.55126 14.74145,6.97606 l -0.80322,-1.40031 8.89069,-16.00341 z m 23.43667,6.89598 -2.23773,5.1206 c 0,0 -6.9516,2.40255 -9.13387,3.04181 -1.31568,0.38541 -2.74881,3.04958 -3.68473,5.11282 8.41047,4.16219 16.14041,8.14327 20.61645,10.4774 l 1.19855,-2.85686 0.17083,-3.14965 5.8673,-4.54452 -2.67276,-10.06101 z m -44.30211,15.53025 c -2.2213,0.19501 -10.88568,8.56711 -10.88568,8.56711 0,0 -1.42627,4.15092 -4.0138,5.27346 -0.18529,0.0805 -0.47374,0.14804 -0.80954,0.20276 6.02343,1.09634 11.97006,2.39867 17.39136,3.68845 l 9.87851,-8.45113 -0.9509,-5.73542 c 0,0 -8.38867,-3.74031 -10.60995,-3.5453 z m -20.45773,21.93999 c 0,0 -14.946,3.10132 -17.12828,3.74058 -1.72482,0.50527 -6.7167,8.27444 -9.59571,11.81224 7.14074,0.009 14.59967,1.33467 21.92959,2.46879 l -0.21492,-3.70412 6.85113,-8.6603 z m 28.0893,3.80328 -14.54253,2.61886 -4.76049,12.05572 -3.99188,0.95102 c 5.87801,0.90313 12.88179,2.09793 18.95741,3.16792 l 0.77698,-3.2611 4.61339,-3.53968 z m -53.38012,18.99922 c -2.36778,2.13728 -6.58456,6.02285 -7.42641,7.37786 -0.9889,1.59165 0.47123,9.84971 0.98395,12.56872 3.7552,-0.12788 7.50705,-0.43614 11.25808,-0.76472 l 0.26095,-7.07973 7.45098,-6.92344 2.40404,-6.08819 c -3.80875,0.17508 -9.14836,0.47706 -14.93157,0.9095 z m -15.4867,1.49751 c -4.037,0.51238 -7.80009,1.11118 -10.85317,1.81693 -6.17355,1.42704 -15.04028,8.21157 -12.73366,14.11313 3.21808,8.23356 16.92238,3.11091 26.34558,2.61427 l -6.47202,-4.01889 -2.12987,-3.84243 z m 46.30284,-1.81593 c -0.69948,1.20463 -2.13993,2.86378 -2.70228,4.57612 -0.91809,2.7955 -4.15126,11.39135 -5.1151,13.9499 6.0189,-0.0649 12.9606,-0.0276 18.88724,0.0301 l 2.09033,-11.79066 4.46859,-5.3287 z m -36.55009,23.76339 c -6.84353,1.20706 -13.79953,2.85643 -18.54309,5.04145 -5.47894,2.52374 -15.21039,5.36834 -14.13247,11.3035 1.27844,7.03919 13.29133,7.43142 20.40359,6.6567 3.28854,-0.35825 6.40907,-0.66966 9.43334,-0.95687 l -3.27194,-6.83392 4.28968,-2.16609 3.6445,-4.34938 z m 28.7014,20.44324 c -12.39293,1.05204 -30.90851,3.24895 -41.51562,7.48113 -4.0396,1.61179 -9.84412,3.17651 -10.71827,7.43706 -1.1929,5.81392 3.53203,15.56635 9.44812,15.09203 6.17283,-0.49472 12.52738,-1.17127 18.42384,-1.8626 l 2.98326,-2.77148 -1.76111,-4.7726 4.58938,-8.9091 1.40073,-9.52388 17.77014,-1.56009 0.16181,-0.66994 c -0.28745,0.0243 -0.4878,0.0338 -0.78235,0.0587 z m 17.12202,4.9837 12.30757,2.49845 -8.44113,0.74107 0.25815,8.03615 -7.0703,1.06809 -3.88139,1.68595 2.00362,-7.78735 z m 432.51147,-17.0153 c -4.39774,0.44081 -8.71861,1.26546 -12.92227,2.71562 -19.10457,6.59055 -35.1533,20.68751 -49.72932,34.68597 -4.0344,3.87454 -10.14576,13.36501 -10.14576,13.36501 0,0 12.49776,2.4401 17.94472,5.52433 5.76689,3.2654 12.18508,7.191112 14.79267,13.283752 2.34793,5.48598 -3.33622,21.019071 -3.33622,21.019071 l -4.65841,-4.965597 c 0,0 -14.60289,6.404069 -19.8533,12.106051 -5.42634,5.892989 -8.08806,13.93529 -10.7816,21.479652 -4.02492,11.273284 -5.38349,23.328255 -7.85988,35.0395706 -3.06201,14.480717 -8.65059,43.5538874 -8.65059,43.5538874 0,0 19.68795,-7.860593 30.09127,-9.168511 7.14412,-0.898118 14.71273,-0.29019 21.33241,2.542667 4.44179,1.900868 8.29535,4.280713 10.71969,8.459823 0.59271,1.021686 1.12714,2.291357 1.60973,3.676648 l 7.2318,-7.710097 -1.72493,-4.32534 -2.57079,-3.803715 -1.02282,3.671826 -6.6233,1.028857 1.71584,-5.969523 4.6134,-3.539704 -2.40299,-6.953093 -5.86142,-10.6758174 -2.54072,11.8608284 -2.96948,6.977392 -1.45509,-11.513091 6.96529,-7.3251294 -0.88227,-15.14542 10.74214,-0.04529 4.6673,-8.0211806 1.43384,6.140368 -7.73906,8.7382586 -3.98924,10.648946 6.40693,-8.62434804 9.86587,-4.89555996 8.60359,11.335948 c 0,0 -7.0657,1.064616 -9.73122,1.298629 -2.66556,0.234017 -5.15329,7.6164954 -5.15329,7.6164954 l -0.20074,13.000585 c 0,0 1.62256,-1.932828 1.79376,-5.081636 0.17126,-3.14878 0.28735,-1.815924 0.94184,-4.559462 0.6545,-2.743539 5.42334,-4.505539 5.42334,-4.505539 l 9.77296,-0.857993 -1.80571,10.006841 -7.28011,3.773787 c 0,0 -3.81817,7.498044 -4.10645,9.314082 -0.26498,1.669358 -10.34943,7.411614 -12.04018,8.365115 2.30856,6.77513 3.35629,16.380667 3.35629,16.380667 0,0 -4.45052,-0.842414 -6.1105,0.343404 -4.42917,3.163921 -2.18518,11.402416 -6.15812,15.123085 -6.83623,6.402183 -17.29596,8.754117 -26.66131,8.867381 -6.11703,0.07401 -12.3186,-2.194851 -17.54808,-5.369146 -3.59874,-2.184482 -8.85285,-9.009782 -8.85285,-9.009782 l -13.28507,3.853612 c 0,0 -4.55295,13.617085 -8.66207,19.375379 -4.32401,6.059471 -16.31406,15.248676 -16.31406,15.248676 0,0 13.53118,13.61845 21.26033,19.24269 7.10384,5.16927 14.14086,11.92443 22.84003,13.15333 5.74671,0.81185 13.55627,0.57284 16.90381,-4.16825 3.12421,-4.42481 -1.6098,-16.17239 -1.6098,-16.17239 L 613.8542,107.33557 c 0,0 7.28497,8.3421 12.34681,9.47216 2.44524,0.54593 5.54421,0.13868 7.34168,-1.6067 2.80465,-2.72334 3.01256,-7.47297 2.84048,-11.37849 -0.23127,-5.249408 -5.1475,-14.899658 -5.1475,-14.899658 0,0 4.71675,6.593677 8.21447,8.299803 3.09997,1.51215 7.07567,2.494815 10.27619,1.20904 5.14268,-2.066088 8.60406,-7.648615 10.57907,-12.82699 1.25893,-3.300948 0.41216,-10.592329 0.41217,-10.592313 0,0 4.23999,-8.869005 8.22112,-11.274809 3.71488,-2.244871 9.45486,0.761373 12.88356,-1.900197 3.24217,-2.51681 1.61368,-8.719297 4.76079,-11.354039 2.95746,-2.475916 8.41194,0.04103 11.29036,-2.526369 4.06544,-3.626143 5.44319,-9.992231 5.36126,-15.439227 C 703.06626,21.3244 692.11842,12.435403 691.2687,1.1369386 c -0.0565,-0.77696304 -0.0346,-1.26083604 0.0577,-1.50650804 -0.57929,-1.95384096 -1.32578,-5.27788996 -0.24174,-6.90689896 1.582,-2.377261 7.35805,-2.8859176 7.35805,-2.8859176 l -2.77458,9.19714156 11.95376,-1.49679996 3.52472,9.538835 c 0,0 -4.28735,2.1680478 -7.28014,3.7738064 -1.79933,0.965445 -3.07464,2.359106 -4.37303,2.403227 2.00402,3.365043 4.1519,6.391231 6.1817,7.727522 4.02275,2.648374 9.96544,5.655847 14.09542,3.178021 4.54703,-2.728008 -0.44324,-12.810874 4.21794,-15.3388504 0.21426,-0.116207 0.43074,-0.212173 0.64839,-0.292866 -1.47067,-1.227371 -6.5838,-5.481887 -9.07178,-7.210292 -2.86056,-1.98727604 -0.2344,-2.66637 -0.21916,-7.592199 0.0152,-4.9258246 -5.75916,-4.4194326 -10.91902,-7.1001986 -5.15984,-2.680777 -2.32474,-6.062163 -2.32474,-6.062163 l -4.14584,-16.648385 8.87013,4.145404 c 0,0 0.29585,8.479899 2.50189,13.2107 2.20605,4.730792 3.84269,-2.126852 3.84269,-2.126852 0,0 5.73695,-0.951029 7.9582,-1.146038 2.22132,-0.195016 1.30195,9.733976 1.30195,9.733976 l -0.0299,9.8509426 6.48211,-7.7331566 c 0,0 6.1909,9.30538456 7.39143,12.7814316 0.83657,2.422228 -4.59323,4.723658 -7.99034,5.910605 5.74929,1.7396574 12.12909,10.1084264 17.42055,7.1974004 3.73401,-2.054187 0.16711,-9.6470554 2.85517,-12.6422414 l -5.99512,-10.418935 c 0,0 7.00374,-6.8799166 7.73627,-8.7349406 0.73248,-1.855022 -0.27309,-3.110676 -0.27309,-3.110676 l 9.94684,-4.00792 5.84326,-9.913927 1.69785,-1.043803 c 0,0 0.70295,7.995548 -0.87882,10.372832 -1.58202,2.377261 -2.03957,7.343127 -2.03957,7.343127 l -8.50411,-5.072304 3.23364,11.353883 c 0,0 -3.51381,0.7558626 -6.17936,0.9898806 -1.96874,0.17284 -3.05342,7.572999 -3.48762,11.441439 4.74229,-2.27956204 11.8096,5.657659 16.39528,2.639043 3.97435,-2.616199 0.90379,-9.977412 3.78304,-13.765511 2.82826,-3.7209546 9.99821,-2.9862136 12.03271,-7.1939466 1.91574,-3.962009 -3.48799,-9.059479 -1.72544,-13.091933 1.77269,-4.055663 8.9816,-3.652328 10.84199,-7.668537 1.44625,-3.12219 0.5043,-7.140663 -0.90258,-10.28079 -3.28368,-7.329055 -16.50948,-17.55161 -16.50948,-17.55161 l -10.55069,-5.382886 4.95539,-9.835974 0.5399,-4.076794 7.53826,4.262334 c 0,0 1.35361,5.25113 0.21584,7.58944 -1.13772,2.338239 -2.6987,7.44388 -2.6987,7.44388 0,0 4.35764,2.267051 9.162,4.223979 0.34486,-3.072076 1.13032,-7.407302 2.85107,-7.558372 2.66555,-0.23402 5.66021,-1.842116 5.66021,-1.842116 0,0 2.86022,1.990322 1.27819,4.367635 -1.582,2.377302 -4.7845,6.686316 -4.7845,6.686316 l -0.29071,0.07435 c 1.37204,0.433032 2.67679,0.770601 3.80861,0.940333 4.60055,0.689909 11.40533,2.887602 13.9161,-1.028701 2.06914,-3.227493 -1.97825,-7.529336 -4.01642,-10.776511 -2.65052,-4.222773 -3.85412,-5.291613 -10.34881,-10.796663 -0.28693,-0.24322 -0.45408,-0.46916 -0.53814,-0.685084 -2.90905,-1.27157 -7.76497,-3.38319 -11.17038,-4.72789 -4.63759,-1.83128 -24.67535,-10.81358 -24.67535,-10.81358 l -9.35304,-4.550412 c 0,0 0.24099,-12.5595 2.42329,-13.19876 1.50032,-0.4395 2.48651,-1.89161 4.18853,-1.99174 0.77365,-0.0455 1.69521,0.19146 2.87898,0.92695 3.78808,2.35351 6.15251,8.86079 6.15251,8.86079 l -2.93077,7.418292 5.39343,5.34539 5.25249,-1.35587 -0.74106,-8.441132 c 0,0 5.72554,-10.65997 7.52745,-5.7382 1.80194,4.92175 8.2937,7.48511 7.63922,10.228662 -0.65453,2.74354 -5.5555,8.09609 -5.5555,8.09609 0,0 -2.31521,4.23174 5.79842,4.86246 6.69235,0.52024 9.81446,-1.38624 10.6177,-3.0679 0.0947,-0.96193 0.17677,-1.47679 0.21732,-1.01495 0.0274,0.31129 -0.0466,0.65782 -0.21732,1.01495 -0.13751,1.39848 -0.30195,3.7599 -0.436,5.78364 3.50684,-1.29685 8.83185,-2.65725 9.44349,-5.48359 0.86231,-3.98436 -3.09844,-7.84662 -6.11148,-10.59256 -3.2192,-2.933872 -9.40316,-5.607372 -14.31582,-7.433222 1.83429,0.42673 3.67929,0.66233 5.06142,0.37686 2.77185,-0.57254 5.86943,-2.3599 6.85257,-5.01403 1.72156,-4.64767 -0.18548,-10.69438 -3.38258,-14.48162 -6.69268,-7.92804 -28.69498,-12.06324 -28.69498,-12.06324 l -12.82339,-1.46345 7.44794,-6.92322 0.0689,-9.40696 5.69949,-1.3951 -0.56675,13.92743 0.17385,5.2613 4.32261,-10.1328 8.41406,-6.11022 -1.19066,6.82123 -1.85164,8.78517 c 2.07013,-0.32599 4.0955,-0.81738 5.66403,-1.55441 l 4.02863,-9.7117 0.56702,6.45855 c 3.69142,-3.19712 6.92846,-7.50129 5.61156,-11.57582 -2.19093,-6.77888 -12.82406,-6.87051 -19.8803,-7.85167 -10.35136,-1.43928 -20.77539,2.31519 -31.1949,3.12474 -13.30027,1.03345 -27.16304,-1.08895 -40.35626,0.23367 z m -417.15579,38.94581 c 5.33107,-0.46802 -6.91136,2.84363 -6.91136,2.84363 l -7.17817,10.03111 -6.48512,7.7334 0.38095,-5.85234 -2.86792,-12.28378 4.96444,0.45889 c 0,0 12.76608,-2.46289 18.09718,-2.93091 z m -1.56556,22.968692 -1.19091,6.81821 -3.68651,3.90567 -4.2474,2.61279 1.75483,-5.52557 -0.99318,-6.18212 z m 478.41115,-37.524132 c 0,0 -0.26397,7.18505 0.009,10.29487 0.273,3.1098 -0.46017,4.96727 1.80007,5.21655 2.26031,0.24925 5.79167,-5.4341 6.48514,-7.73342 0.69353,-2.29928 5.46149,-4.06062 7.06724,-1.06782 1.6058,2.99278 2.88583,7.35684 3.04184,9.13388 0.15601,1.77704 0.79315,3.95946 -0.94488,4.55972 -1.73802,0.60026 -4.69216,2.64941 -8.3242,2.07293 -3.63206,-0.57651 -15.96138,-8.44703 -15.96138,-8.44703 l -2.93983,-2.87656 0.55484,-9.00225 z m -13.41145,15.5025 -2.8073,19.05136 -2.77181,9.193842 0.46824,5.33346 -2.76897,-6.0262 5.07254,-8.501102 -1.86305,-11.02991 z m -132.33949,13.74801 c -3.44615,0.22678 -6.47529,1.44435 -9.67982,2.37274 -3.22709,0.9349 -6.11021,1.91897 -9.46048,3.47492 -3.35027,1.555982 -7.3245,1.350502 -10.48765,3.362932 -3.16312,2.01241 -5.10303,4.14459 -7.80713,8.41634 -2.70405,4.27176 -9.66896,13.372224 -7.00919,17.505144 2.65976,4.132893 7.74471,-1.86972 10.62358,0.489099 2.87888,2.358838 0.27563,8.133043 2.82575,11.349875 2.55014,3.216792 9.34537,3.530634 11.50691,5.908722 2.16159,2.378143 0.0654,4.489431 2.34684,5.894751 2.28143,1.405384 6.65112,-1.548028 9.69391,-0.851053 3.0428,0.696997 4.29787,5.214776 7.72843,4.613371 3.43055,-0.601412 5.50354,-5.803322 7.5357,-9.204549 2.03213,-3.401164 1.24968,-7.550034 4.52999,-10.9814 3.28028,-3.431297 11.058,-4.803073 15.05109,-7.017687 3.99306,-2.214639 9.04399,-5.880559 9.04399,-5.880559 0,0 -2.29693,-3.13548 -4.99774,-3.63044 -2.70084,-0.49502 -6.08753,2.80504 -9.9359,2.70159 -3.84837,-0.10344 -12.15283,-4.016544 -12.15283,-4.016544 0,0 6.77619,2.240944 10.76256,2.107054 3.98639,-0.1339 8.49892,-4.308754 12.52762,-3.336694 4.02868,0.97211 8.83812,7.969284 8.83812,7.969284 0,0 2.66636,-7.857764 1.41305,-11.722014 -1.25333,-3.86424 -5.67475,-8.11174 -8.54323,-9.21778 -2.86849,-1.10601 -5.28495,2.23287 -5.85347,0.5139 -0.56851,-1.71896 4.24437,-2.61253 4.24437,-2.61253 0,0 -12.71748,-6.388612 -19.6065,-7.838972 -3.79675,-0.79933 -7.54451,-0.30932 -11.63339,-0.40353 -0.51107,-0.0117 -1.01227,0.002 -1.50459,0.0339 z m -331.48109,31.896106 -2.41006,4.72821 1.92152,10.090205 c 0,0 1.81701,0.288743 3.42277,3.281551 1.6058,2.992799 1.91664,6.544112 2.07265,8.321124 0.15601,1.777023 2.53315,3.360585 1.02911,6.626366 -1.50396,3.265784 -4.78753,6.686573 -4.78753,6.686573 l -2.61582,-14.542794 -4.9285,-0.01468 -0.39002,-4.442537 -0.58517,-6.66532 -4.23243,-2.312662 -1.31689,-4.808538 z M 618.3994,-94.739028 c 0.78803,-0.0791 1.52785,-0.0999 2.19248,-0.0516 3.5726,0.25847 9.20162,3.46318 9.9549,4.041 l -5.51384,-1.44636 c 0,0 -0.02,2.87851 -0.88777,3.88363 -1.27034,1.47144 -3.50329,2.34362 -5.43391,2.11642 -1.63148,-0.19201 -3.11507,-1.30417 -4.05214,-2.8065 -1.28267,-2.05633 -0.33835,-3.19076 -0.33835,-3.19076 -3.73684,0.57067 -6.16167,0.91131 -9.25675,1.22329 -10e-6,0 7.8186,-3.22171 13.33536,-3.76919 z m -59.20636,7.67682 c -3.90068,0.43174 -7.18817,3.61245 -11.1004,3.92226 -3.45374,0.27344 -6.7573,-1.83946 -10.22162,-1.87878 -4.04076,-0.0459 -11.97187,1.91822 -11.97187,1.91822 0,0 11.19945,9.299534 7.37168,8.891654 -4.88073,-0.52003 -8.14895,3.210209 -8.42011,6.809348 -0.18514,2.45768 2.63302,4.726153 4.98658,5.45773 4.33144,1.346294 8.87952,-0.71281 13.25886,-3.069943 1.99231,-1.072547 -2.10297,4.637883 -1.1471,6.688685 1.43089,3.070003 7.1554,2.149091 8.77228,5.125364 2.05258,3.778246 -3.18482,9.449305 -0.6,12.885474 2.73658,3.637912 10.34076,-0.304262 13.28268,3.169715 1.97262,2.329382 -1.9564,7.509055 0.62727,9.134424 3.05317,1.920688 7.11838,-6.100534 10.05436,-4.005119 1.04068,0.742737 -1.22149,3.086576 -0.18429,3.834171 3.35588,2.418814 7.83889,-2.704657 11.57168,-4.487623 4.69592,-2.243012 13.53816,-7.776561 13.53816,-7.776561 0,0 -1.43074,6.209889 -0.92021,9.273343 0.45207,2.712716 0.7765,6.783303 3.43155,7.500161 2.7651,0.746564 5.62874,-2.450832 7.02345,-4.95242 1.89946,-3.407054 0.70901,-11.678579 0.70901,-11.678579 0,0 -3.57773,-4.580841 -6.19398,-5.354781 -3.31719,-0.981271 -7.30206,3.190343 -10.27771,1.426287 -2.36774,-1.403705 -1.08266,-5.683941 -2.93315,-7.721645 -3.12703,-3.443363 -9.4806,-2.654682 -12.50869,-6.1854 -2.41927,-2.820838 -0.18449,-8.698435 -3.35995,-10.628851 -2.91343,-1.771118 -7.45814,3.934525 -10.07752,1.751916 -2.26307,-1.88572 -0.88699,-6.004926 -0.0835,-8.838986 1.06493,-3.75612 6.239,-9.908824 6.239,-9.908824 0,0 -7.24087,-1.70266 -10.86646,-1.30124 z m 187.83747,-7.05306 c 1.77701,-0.15601 7.70911,1.11268 7.70911,1.11268 l 4.89583,9.86892 -6.00249,8.135364 -5.93027,-1.26886 -3.10204,-14.950534 c 0,0 0.6528,-2.74156 2.42986,-2.89757 z m -500.54448,45.368933 c -3.89461,2.745664 -7.63918,5.411711 -10.79301,7.737759 l 4.43248,6.615608 1.59302,7.918951 0.92855,2.688505 c 3.30155,-1.914748 8.53951,-5.658536 8.53951,-5.658536 0,0 0.45123,-6.405761 1.18375,-8.26079 0.7325,-1.855006 -4.47846,-0.05418 -4.47846,-0.05418 l 0.1858,-8.075114 z m -4.76751,22.272318 c 0,0 -7.04453,6.439796 -9.18781,7.523318 -2.14325,1.083505 -3.67155,-1.019772 -3.67155,-1.019772 0,0 -0.25686,-8.035952 -2.0729,-8.324199 -1.81604,-0.288265 0.41965,-5.411434 0.41965,-5.411434 l 2.17124,-2.736955 c -1.7128,1.248805 -3.35773,2.570867 -4.71652,4.179956 -2.60233,3.081816 -6.23169,6.548597 -5.89614,10.568179 0.22652,2.713648 2.46027,5.73107 5.10671,6.372543 2.39459,0.580388 4.71439,0.04673 6.98308,-1.014467 z m 492.55459,-54.880391 8.66031,6.851134 c 0,0 -2.72093,4.712882 -2.36991,8.711172 0.35102,3.998327 -3.91902,1.239743 -6.25731,0.10197 -2.3383,-1.137725 -2.88579,-7.356802 -3.0418,-9.133862 -0.15601,-1.77703 3.00871,-6.530414 3.00871,-6.530414 z m -6.80728,15.302648 c 1.86753,-0.01656 5.60773,6.739187 5.60773,6.739187 l 0.60287,1.736547 c 0,0 -0.84285,10.817311 -0.49183,14.815635 0.35102,3.99827 -3.8825,1.683613 -7.46032,-3.374449 -3.57783,-5.058069 -2.39977,-6.951502 -3.02381,-14.059609 -0.62403,-7.108075 2.71948,-4.714938 4.41851,-5.759433 0.10605,-0.06519 0.22237,-0.09666 0.34685,-0.09794 z m 23.64164,-2.008114 5.35748,4.901174 -2.09652,11.824902 -4.0525,4.832567 c 0,0 1.99476,7.434126 2.26779,10.543929 l 0.78003,8.885071 c 0,0 -5.29315,0.913342 -7.22621,-0.707686 -1.93301,-1.621021 -5.47165,-6.236343 -5.47165,-6.236343 l 2.19316,9.658821 -2.44784,7.823275 -4.20843,3.056751 -8.38718,-3.740423 -1.18502,-8.40217 4.94042,-4.910487 c 0,0 -2.89958,-2.43182 -0.35104,-3.998589 l 5.94829,-3.656887 c 0,0 -0.81843,-9.328769 2.69664,-10.085034 3.51502,-0.756294 4.69159,-2.648748 4.69159,-2.648748 l -0.42899,-4.886495 7.90427,3.335474 -7.07965,-9.229812 z m -519.15804,54.599153 c -0.23034,0.337829 -0.45282,0.69237 -0.67263,1.064111 -2.62488,4.4394756 -6.62259,11.64044156 -2.88819,15.1975966 3.15985,3.009928 8.68013,-1.428119 12.72628,-3.06303204 1.74348,-0.704482 3.44902,-1.49191396 5.12648,-2.33760196 -0.54479,-0.216844 -1.12368,-0.443717 -1.12368,-0.443717 l -3.30584,-1.949697 c -3.30481,-1.948255 -5.15667,-2.680069 -4.94644,-5.3845986 0.11856,-1.525056 -2.55395,-2.50558 -4.91598,-3.083061 z m 537.9813,-44.163478 6.4942,2.561448 -2.6574,10.53204 -9.42191,4.856581 -0.23412,-2.66673 -1.06809,-7.070296 z m -60.18254,7.97086 17.56912,11.437461 -6.53907,12.214938 c 0,0 -1.81821,-0.289263 -6.01153,-2.159536 -4.1933,-1.870232 -5.18317,-8.049598 -5.82245,-10.231869 -0.63923,-2.182296 0.80393,-11.260994 0.80393,-11.260994 z M 249.37298,-1.2382984 c -0.49469,0.24723196 -0.98277,0.48498596 -1.45831,0.70102296 -5.88479,2.67350804 -12.10187,11.26841244 -9.22419,17.05614844 2.2252,4.475424 9.88252,3.037947 14.82202,2.274641 0.89281,-0.137926 1.85868,-0.387134 2.8541,-0.682622 -0.16429,-0.205517 -0.32009,-0.381998 -0.4917,-0.609514 -2.5333,-3.359025 -3.53948,-4.614625 -4.21774,-7.241151 -0.67828,-2.6265454 1.71507,-5.9712814 2.44756,-7.8263044 0.39334,-0.996091 -2.22079,-2.49112504 -4.73174,-3.672221 z m 30.48022,10.095587 c -0.0738,0.05296 -0.15696,0.118193 -0.23017,0.170316 -6.88346,4.9021554 -12.18808,7.5844194 -20.99,11.7584874 0.39975,0.453791 0.78349,0.889402 1.12785,1.328878 3.62553,1.262962 9.21658,1.844444 9.21658,1.844444 l 6.18845,9.305001 6.29957,0.34475 0.11212,0.02079 c 4.15142,-2.992895 8.3695,-6.554825 12.44515,-10.000167 -0.62744,0.230391 -1.30563,0.485371 -1.30563,0.485371 l -3.77077,-7.280393 c 0,0 -5.77672,0.508255 -6.82121,-1.19062 -0.64938,-1.056244 -1.60777,-4.353479 -2.27198,-6.7868914 z M 259.76089,22.115002 c -0.78445,-0.273242 -1.47468,-0.580702 -1.99883,-0.918421 -1.74284,0.824697 -3.36791,1.596284 -5.43948,2.576518 -4.2038,1.98914 -0.97357,10.363481 2.18401,13.777879 2.98629,3.229203 2.68575,4.559745 12.83334,3.077396 1.6111,-0.235331 3.29493,-0.763192 5.03021,-1.51408 l -0.81253,-1.053228 c 0,0 -6.89591,-2.08283 -8.05739,-5.114584 -1.16154,-3.031788 -0.87544,-4.848176 -2.03699,-7.879953 -0.45563,-1.189295 -1.02692,-2.089425 -1.70234,-2.951527 z m 430.03654,-44.053943 5.39342,5.345379 -7.37303,7.8113776 -3.38073,-2.8378696 z m -40.22257,16.0668126 2.9368,2.876842 -5.38437,4.949495 c 0,0 -0.16181,13.4439794 -0.86386,5.447345 l -0.78004,-8.885063 z m -294.41903,37.4886414 4.5205,0.49788 9.14321,7.256117 c 0,0 3.5939,0.13183 7.59221,-0.219191 3.99828,-0.35102 2.44169,7.394015 2.44169,7.394015 l -4.85031,0.876264 -3.98059,-4.574674 -6.06547,2.321978 -2.76594,-6.026501 -12.11266,-0.278709 z m -13.24058,12.352848 9.00226,0.554842 c 0,0 1.25584,-1.006858 2.82265,1.541668 1.56676,2.548529 6.16439,3.935588 6.16439,3.935588 l 9.494,11.251649 15.04974,3.158585 1.35894,5.252215 2.70266,0.21011 11.27869,-4.124852 2.73564,-9.641099 -2.22841,15.418517 5.00342,0.902865 -5.15329,7.616478 -6.39851,-6.602317 -9.2121,2.150864 -3.90571,-3.686518 -8.06016,-5.11128 -3.17091,-5.543568 -16.75943,-12.406353 -18.60386,-2.840417 z m 44.33246,0.137336 6.82122,1.190623 13.92773,0.569804 14.20657,13.972586 -7.86199,-2.888742 -8.21633,-6.890108 -8.51907,-0.146834 z m -32.32762,9.10439 -13.96603,24.507798 9.9289,0.917809 12.17594,6.095101 -9.46395,4.412893 -6.88146,-7.007298 -10.13895,1.784886 -1.8811,-6.1042 -5.73513,0.953946 -4.17878,-6.79721 -8.34519,-3.296765 10.15393,-6.710325 -0.30274,6.743289 10.52873,2.654622 4.63768,1.832768 z m 341.42147,-27.28697 -2.05754,12.26887 c 0,0 -3.62226,9.719206 -5.4383,9.430992 -1.81601,-0.288267 -3.26687,-1.505746 -3.26687,-1.505746 0,0 -1.27083,5.931977 -2.40857,8.270259 -1.13779,2.338302 -9.61683,2.636839 -9.61683,2.636839 l 7.81699,-7.850347 1.59891,-7.301372 6.21835,-0.545924 5.51901,-8.546391 z m -207.34352,31.351661 16.5706,24.321158 C 495.26442,77.998872 491.15045,68.209808 487.99804,57.275778 Z M 293.19708,76.525841 c -1.62256,3.950914 -2.1585,8.56238 -0.10754,11.898482 2.22607,3.620914 7.84335,3.626798 12.0626,4.140918 1.12865,0.13754 3.39626,-0.301471 3.39626,-0.301471 l -7.1826,-5.341571 -5.0424,-1.346791 z m 15.4184,15.943707 c -0.0757,0.675831 -0.24452,1.946024 -0.74151,5.200679 -0.45431,2.974943 0.81519,6.459893 3.02052,8.507593 2.27647,2.11372 6.04797,1.72429 8.83834,0.74697 1.22087,-0.42764 2.53682,-1.30641 3.82331,-2.38255 l -5.07958,-1.21177 -8.09914,-5.555225 z m 23.18801,8.391692 c -0.82447,8.14517 0.52849,18.83326 7.5415,22.16917 4.28364,2.03762 9.87221,-1.97168 13.17259,-5.37892 0.54701,-0.56473 1.07173,-1.22203 1.57243,-1.94897 l -4.64154,-1.21347 -8.86707,-4.14568 -7.90427,-3.33547 z m 24.23668,15.31048 c -0.0376,1.46921 0.0429,2.84524 0.28078,4.0691 0.46924,2.41758 1.83192,5.20678 4.11172,6.13817 3.41928,1.39693 7.84688,-0.0993 10.8487,-2.25164 1.55515,-1.11507 3.06751,-2.77127 4.49569,-4.70601 -4.4807,-1.66658 -2.51333,-3.50137 -1.02821,-4.41716 l -10.86556,5.82904 -4.42455,-4.5357 z m 7.62813,11.67285 c -1.4784,0.0944 -2.92484,0.37341 -4.32696,0.90385 -6.16314,2.33156 -12.15917,7.59506 -14.05095,13.90704 -2.05938,6.87105 -2.05354,18.01972 4.44669,21.05278 0.86133,0.40193 1.81147,0.57057 2.80849,0.57771 l -2.74849,-5.05973 -1.69499,-14.17628 7.38825,-12.7338 11.26375,0.80064 -14.78531,15.17573 3.68065,11.31465 0.14598,4.17591 c 4.09296,-1.20029 8.57119,-4.31932 12.14454,-7.24665 -2.10559,-2.10256 -4.17287,-4.70049 -2.77542,-5.82037 2.50954,-2.01103 16.42894,-11.74107 16.42894,-11.74107 l -4.19205,-8.76324 c -4.64809,-1.28795 -9.33287,-2.64847 -13.73312,-2.36717 z m 209.75958,-3.6919 -7.49728,8.49028 c 0,0 -6.18233,0.99101 -5.51929,8.54335 0.66304,7.55235 -0.99602,9.03791 -0.99602,9.03791 0,0 -10.7025,0.49316 -10.87375,3.64194 -0.1712,3.14881 -4.33121,16.94526 -4.33121,16.94526 l -9.671,7.11529 -3.33547,7.90427 -12.22082,8.68126 -6.32895,9.51229 c 0,0 -6.85808,-1.63848 -10.33411,-0.43794 -3.47606,1.20053 -20.58373,10.31328 -20.58373,10.31328 l -13.98139,3.91474 c 0,0 -3.45979,-3.72476 -10.29486,0.009 -6.83509,3.73383 -15.08243,6.69564 -15.08243,6.69564 l -13.71761,-3.27225 -12.12177,-10.57358 c 0,0 -8.85345,-9.07597 -11.72922,-6.1374 -2.8758,2.93858 -22.11044,8.21049 -22.11044,8.21049 l -6.89054,-17.30221 2.90648,-12.79076 -9.89895,-10.76871 2.49843,-12.30757 c 0,0 -1.69163,-1.35833 -3.36356,-3.02628 -3.50462,2.93344 -7.91902,6.18389 -12.1283,7.98984 l 0.12444,3.54657 -6.983,12.25394 10.57101,3.10136 -4.2024,13.35188 c 0,0 2.6629,1.83643 4.96702,3.7343 5.36715,-1.82633 9.26205,-3.46674 9.26205,-3.46674 0,0 -3.62227,1.75742 -8.25819,4.32543 1.24499,1.10169 2.23182,2.14141 2.28447,2.74108 0.15601,1.77701 -5.32436,10.76401 -0.6088,13.48376 4.71558,2.71979 9.6411,2.73561 9.6411,2.73561 0,0 4.26244,-0.17411 9.66596,0.50578 3.66512,-3.41734 6.06285,-5.9467 6.06285,-5.9467 0,0 -1.07676,2.74815 -2.37474,6.52684 1.72414,0.33156 3.48884,0.75594 5.21382,1.31031 8.75291,2.81299 12.79935,13.20322 13.8439,14.90224 1.0445,1.69902 6.64728,4.34054 15.5324,3.56051 8.88511,-0.78007 9.86762,-4.89607 20.95877,-0.94527 11.0912,3.95073 25.18942,1.37117 28.2212,0.20968 3.03179,-1.16155 15.08244,-6.69564 15.08244,-6.69564 l 13.44626,-10.32402 c 0,0 10.04971,-2.48393 14.8195,-4.24572 4.76982,-1.76181 12.42929,-11.38839 14.01131,-13.76569 1.582,-2.37729 3.20915,-10.5249 7.91316,-11.88511 4.70398,-1.36021 1.24559,-11.30067 8.52498,-15.07354 7.2793,-3.77281 16.94178,-21.18701 16.94178,-21.18701 l 11.37162,-8.16242 7.88153,-19.2609 c 0,0 -2.6991,-2.29634 -6.30865,-5.71853 z m -75.15523,99.29891 c 0,0 5.34643,9.25538 10.0217,10.49138 6.17809,1.63325 13.65565,-1.18543 18.36104,-5.50962 2.66466,-2.44854 3.98561,-10.0971 3.98561,-10.0971 0,0 -3.42515,3.65751 -5.00716,6.03481 -1.58201,2.37729 -13.34231,6.09856 -13.34231,6.09856 l -4.19372,-1.87172 z m 0,0 -1.05446,24.00856 -8.58796,9.26013 c 0,0 -11.06765,1.41903 -12.8447,1.57504 -1.77701,0.15601 -13.51858,-10.08019 -13.51858,-10.08019 0,0 0.57416,4.08841 3.40852,7.34286 5.06437,5.81494 15.23908,7.61957 22.54941,5.166 6.22009,-2.08763 10.76525,-8.79696 12.64545,-15.08289 2.13427,-7.13535 -2.59768,-22.18951 -2.59768,-22.18951 z m -36.0057,24.76354 -10.39191,13.07411 c 0,0 -5.58079,2.72956 -7.76306,3.36882 -2.1823,0.63928 -10.60999,-3.54532 -10.60999,-3.54532 l -4.72419,-7.63486 -18.18123,11.88571 -4.87183,-4.49948 -5.37847,-10.27086 -7.91923,1.59 -5.96925,-1.71281 -5.4182,-4.92954 c -0.35204,5.26589 -0.25128,10.75738 3.68579,13.22319 3.35345,2.10028 7.83629,-1.57994 11.41148,-3.27548 1.66538,-0.7898 3.33403,-3.93331 4.55208,-3.1911 -0.18676,0.73771 -0.40427,1.7412 -0.65594,3.17385 -0.85642,4.87548 0.88148,11.88362 5.43854,13.81697 5.93696,2.51887 12.91446,-3.28657 17.86894,-7.41523 2.11184,-1.75979 4.34402,-6.13729 5.09518,-7.68494 -0.086,0.75043 0.0298,2.29665 0.89046,5.53542 1.35194,5.08812 6.6926,10.09996 11.95257,10.32187 7.54269,0.31823 13.82038,-7.25306 18.32904,-13.30824 2.97035,-3.98919 2.65922,-8.52208 2.65922,-8.52208 z M 530.641,218.33624 c 0,0 7.95698,0.55528 10.55471,-1.90103 3.47073,-3.28178 3.80848,-9.18771 3.32649,-13.93993 -0.38212,-3.76922 -4.80218,-10.30305 -4.80218,-10.30305 l -0.67475,16.67632 z m 9.07902,-26.14401 c 0,0 8.55679,0.8164 11.90082,-1.36654 2.6572,-1.73456 2.00488,-6.7261 4.80282,-8.22307 2.5966,-1.3893 6.4476,2.27393 8.8191,0.52804 3.48953,-2.56905 3.11737,-12.62235 3.11737,-12.62238 l -8.14639,9.19381 -12.40073,1.53606 -2.65741,10.53204 z m 28.64011,-21.68395 c 10.76651,1.856 32.68222,5.22419 38.32912,-0.11389 4.33133,-4.47244 3.83292,-12.95102 1.28739,-18.63298 -1.93975,-4.32985 -6.81851,-8.67287 -11.98307,-12.3446 -4.06132,0.953 -10.13387,2.66448 -10.27411,4.46871 -0.21027,2.70456 -13.77718,16.43241 -13.77718,16.43241 z M 342.18682,151.70062 c 0,0 -21.81502,13.86198 -20.91221,24.58143 0.44825,5.32153 12.27492,10.29353 12.27492,10.29353 0,0 -12.81537,6.24241 -11.96176,11.77175 0.77648,5.02967 8.54976,6.32875 13.60353,6.92886 3.19378,0.37925 7.21012,-0.0736 11.35527,-0.91422 l -7.18172,-0.79434 c 0,0 -12.85334,-8.72203 -9.41629,-10.3668 3.43704,-1.64478 12.85989,-6.49748 12.85989,-6.49748 l -0.18324,-7.14796 c 0,0 -7.26098,-1.15295 -9.31101,-4.1067 -2.05001,-2.95379 3.38938,-12.38581 3.38938,-12.38581 0,0 0.0935,-4.03675 3.92064,-1.23894 3.82707,2.79779 14.51238,7.22904 14.51238,7.22904 l -1.94776,-3.58262 c -1.01151,0.27535 -1.9945,0.44713 -2.92832,0.46543 -2.24467,0.0439 -4.50992,-1.56476 -5.82204,-3.38649 -2.15871,-2.99717 -2.25166,-10.84873 -2.25166,-10.84873 z m 256.65041,-6.27952 c 0,0 6.31984,5.71322 7.36437,7.41227 1.04451,1.69903 2.34905,11.43462 2.34905,11.43462 0,0 -2.39165,3.34308 -5.30639,5.83736 -2.91483,2.49431 -9.29004,1.26299 -9.29004,1.26299 0,0 -15.78637,-1.30136 -17.56337,-1.14535 -1.77705,0.15601 9.71299,-6.67163 9.71299,-6.67163 l 11.71361,-14.4587 z m -244.16549,59.83628 c -4.58489,2.85022 -9.13712,6.08353 -11.8595,9.09695 -5.03706,5.57544 -13.43955,13.26163 -10.26183,20.07046 3.11684,6.67837 14.32785,6.37826 21.55439,4.93163 2.42951,-0.48636 5.07278,-1.56957 7.77274,-3.01423 4.32038,-4.95394 12.46716,-11.66904 12.46716,-11.66904 l -26.8051,10.85947 -9.44622,-0.51587 0.82796,-5.89159 16.26399,-23.81173 z"
         style="display:inline;opacity:1;fill:#808080;fill-opacity:1;fill-rule:nonzero;stroke:none;stroke-width:2.60421133;stroke-linecap:round;stroke-linejoin:round;stroke-miterlimit:4;stroke-dasharray:none;stroke-dashoffset:0;stroke-opacity:1"
         inkscape:connector-curvature="0" />
      <g
         transform="translate(-4.2128918,-108.93527)"
         id="g4515"
         style="opacity:1">
        <rect
           style="opacity:1;fill:#005293;fill-opacity:1;stroke:none;stroke-width:1.9074316;stroke-linecap:round;stroke-linejoin:round;stroke-miterlimit:4;stroke-dasharray:none;stroke-opacity:1;paint-order:stroke markers fill"
           id="rect4489-3"
           width="231.20776"
           height="131.74529"
           x="599.8244"
           y="166.3864" />
        <g
           id="g4491"
           transform="matrix(1.2363301,0,0,1.2363301,-513.54273,146.28707)">
          <rect
             style="opacity:1;fill:#aa0000;fill-opacity:1;stroke-width:1.03907907"
             y="16.193968"
             width="374.06848"
             height="106.92123"
             id="rect4-3"
             x="550.74927" />
          <path
             class="st0"
             d="m 907.98463,96.566727 c -0.7273,0.207819 -1.35075,0.311723 -1.97419,0.311723 -2.18212,0 -3.2212,-0.935168 -3.2212,-3.636774 V 72.979634 c 0,-10.702513 -8.52046,-15.897909 -18.59946,-15.897909 -7.68924,0 -11.84554,0.935171 -20.05428,4.260224 l -1.66252,10.806422 10.70252,1.142988 1.55861,-5.299304 c 2.18207,-1.142987 4.36413,-1.350803 7.16969,-1.350803 7.58522,0 7.68918,5.714935 7.68918,10.494698 v 1.558619 c -2.38993,-0.311723 -5.09153,-0.415631 -7.68918,-0.415631 -10.70256,0 -21.8207,2.701605 -21.8207,14.235383 0,9.767349 7.68918,13.404119 14.44319,13.404119 7.58533,0 12.3651,-4.57195 15.06669,-9.351713 0.62345,5.714943 4.05236,9.351713 10.28683,9.351713 2.90943,0 5.92281,-0.83126 8.4166,-2.18206 z m -28.67858,-0.311722 c -4.0524,0 -5.50711,-2.389881 -5.50711,-5.403211 0,-5.091487 4.15636,-6.44229 8.93613,-6.44229 2.182,0 4.57194,0.311724 6.75395,0.623447 -0.31166,7.793094 -5.40321,11.222054 -10.18297,11.222054 z M 861.32999,33.390723 841.06794,104.77545 h -13.19631 l 20.26204,-71.384727 z m -27.22388,0 -20.26204,71.384727 H 800.64776 L 820.9098,33.390723 Z m -56.11027,24.626173 h 14.02757 v 16.833081 h -14.02757 z m 0,30.029385 h 14.02757 v 16.833079 h -14.02757 z m -20.46987,-0.623448 10.59862,1.039079 -2.90942,16.417448 h -40.83582 l -1.3508,-7.065732 25.76916,-29.613758 H 734.1467 l -2.07817,7.273554 -9.66343,-1.039079 1.66253,-16.417449 h 41.04363 l 1.03908,7.065737 -25.97699,29.613753 h 15.17056 z m -67.0206,-30.341108 c -16.83308,0 -25.14571,11.325962 -25.14571,25.041805 0,14.962738 9.97516,23.79491 24.41836,23.79491 14.96274,0 25.76915,-9.455617 25.76915,-24.418357 0,-13.092396 -8.20872,-24.418358 -25.0418,-24.418358 z m -0.31172,38.445925 c -7.27356,0 -11.01424,-6.234474 -11.01424,-14.339291 0,-8.832172 4.26022,-13.923659 11.11815,-13.923659 6.33838,0 11.42986,4.260224 11.42986,13.715843 0,9.039988 -4.57194,14.547107 -11.53377,14.547107 z m -36.88731,-0.935172 h 6.23448 V 104.77545 H 640.00614 V 78.486753 c 0,-8.104816 -2.70161,-11.222053 -8.00092,-11.222053 -6.44229,0 -9.03998,4.571948 -9.03998,11.118146 v 16.31354 h 6.23447 v 10.182974 h -19.6386 V 78.486753 c 0,-8.104816 -2.7016,-11.222053 -8.0009,-11.222053 -6.44229,0 -9.03999,4.571948 -9.03999,11.118146 v 16.31354 h 8.93608 V 104.87936 H 572.98553 V 94.696386 H 579.22 V 68.19987 h -6.23447 V 58.016896 h 19.6386 v 7.065737 c 2.80551,-4.987579 7.68918,-8.000908 14.23538,-8.000908 6.75402,0 12.98849,3.221145 15.27446,10.079066 2.5977,-6.234473 7.897,-10.079066 15.27446,-10.079066 8.41654,0 16.10573,5.091487 16.10573,16.209634 v 21.301119 z"
             id="path6-6"
             inkscape:connector-curvature="0"
             style="opacity:1;fill:#ffffff;stroke-width:1.03907907" />
        </g>
        <text
           xml:space="preserve"
           style="font-style:normal;font-weight:normal;font-size:152.50526428px;line-height:1;font-family:sans-serif;text-align:center;letter-spacing:0px;word-spacing:0px;text-anchor:middle;fill:#ffffff;fill-opacity:1;stroke:none;stroke-width:16.33984756"
           x="729.74506"
           y="253.00789"
           id="text4512-6"><tspan
             sodipodi:role="line"
             id="tspan4510-7"
             x="729.74506"
             y="253.00789"
             style="font-style:normal;font-variant:normal;font-weight:normal;font-stretch:normal;font-family:'Zilla Slab';-inkscape-font-specification:'Zilla Slab';fill:#ffffff;stroke-width:16.33984756">pa</tspan></text>
      </g>
    </g>
  </g>
</svg>
