<?xml version="1.0" encoding="UTF-8" standalone="no"?>
<!-- Created with Inkscape (http://www.inkscape.org/) -->

<svg
   xmlns:dc="http://purl.org/dc/elements/1.1/"
   xmlns:cc="http://creativecommons.org/ns#"
   xmlns:rdf="http://www.w3.org/1999/02/22-rdf-syntax-ns#"
   xmlns:svg="http://www.w3.org/2000/svg"
   xmlns="http://www.w3.org/2000/svg"
   xmlns:sodipodi="http://sodipodi.sourceforge.net/DTD/sodipodi-0.dtd"
   xmlns:inkscape="http://www.inkscape.org/namespaces/inkscape"
   version="1.1"
   id="svg2"
   width="563"
   height="563"
   viewBox="0 0 563 563"
   sodipodi:docname="perfilfacebook.svg"
   inkscape:version="0.92.1 unknown"
   inkscape:export-filename="/home/keik/Escritorio/IMAGEN MOZILLA CENTROAMERICA/Costa Rica/perfil_facebook.png"
   inkscape:export-xdpi="300"
   inkscape:export-ydpi="300">
  <metadata
     id="metadata8">
    <rdf:RDF>
      <cc:Work
         rdf:about="">
        <dc:format>image/svg+xml</dc:format>
        <dc:type
           rdf:resource="http://purl.org/dc/dcmitype/StillImage" />
        <dc:title />
      </cc:Work>
    </rdf:RDF>
  </metadata>
  <defs
     id="defs6" />
  <sodipodi:namedview
     pagecolor="#ffffff"
     bordercolor="#666666"
     borderopacity="1"
     objecttolerance="10"
     gridtolerance="10"
     guidetolerance="10"
     inkscape:pageopacity="0"
     inkscape:pageshadow="2"
     inkscape:window-width="1366"
     inkscape:window-height="708"
     id="namedview4"
     showgrid="false"
     borderlayer="true"
     inkscape:showpageshadow="false"
     inkscape:zoom="0.91829485"
     inkscape:cx="281.5"
     inkscape:cy="281.5"
     inkscape:window-x="0"
     inkscape:window-y="0"
     inkscape:window-maximized="1"
     inkscape:current-layer="layer1" />
  <g
     inkscape:groupmode="layer"
     id="layer1"
     inkscape:label="Layer 1"
     style="display:inline">
    <rect
       style="opacity:1;fill:#214478;fill-opacity:1;stroke:#f2f2f2;stroke-width:1.00558317;stroke-linecap:round;stroke-linejoin:round;stroke-miterlimit:4;stroke-dasharray:none;stroke-opacity:0.97254902;paint-order:stroke markers fill"
       id="rect4488"
       width="593.48572"
       height="576.06213"
       x="-13.43144"
       y="-7.0755544" />
  </g>
  <g
     inkscape:groupmode="layer"
     id="layer2"
     inkscape:label="Layer 2">
    <rect
       style="opacity:1;fill:#d40000;fill-opacity:1;stroke:none;stroke-width:0.92477041;stroke-linecap:round;stroke-linejoin:round;stroke-miterlimit:4;stroke-dasharray:none;stroke-opacity:0.97254902;paint-order:stroke markers fill"
       id="rect4506"
       width="588.76605"
       height="102.90536"
       x="-12.711799"
       y="463.01355" />
    <path
       style="opacity:1;fill:#ffffff;stroke-width:1.21537626"
       inkscape:connector-curvature="0"
       id="path6"
       d="m 550.46127,428.49459 c -0.85069,0.24308 -1.5799,0.36462 -2.30913,0.36462 -2.55236,0 -3.76773,-1.09385 -3.76773,-4.25383 v -23.69983 c 0,-12.51837 -9.96609,-18.59526 -21.75518,-18.59526 -8.99382,0 -13.85534,1.09384 -23.4568,4.98305 l -1.94462,12.63991 12.5184,1.33692 1.82305,-6.19842 c 2.55229,-1.33692 5.10458,-1.58 8.38614,-1.58 8.87218,0 8.99379,6.68458 8.99379,12.2753 v 1.82307 c -2.79543,-0.36461 -5.95539,-0.48615 -8.99379,-0.48615 -12.51842,0 -25.52294,3.15998 -25.52294,16.65065 0,11.42453 8.99377,15.67836 16.89372,15.67836 8.8723,0 14.46303,-5.34766 17.62301,-10.93839 0.72922,6.68456 4.73991,10.93839 12.03216,10.93839 3.40306,0 6.92772,-0.97232 9.84461,-2.55229 z m -33.54437,-0.3646 c -4.73995,0 -6.44147,-2.79538 -6.44147,-6.31997 0,-5.95534 4.86155,-7.53534 10.45228,-7.53534 2.55221,0 5.34765,0.36462 7.89987,0.72923 -0.36454,9.11533 -6.31995,13.12608 -11.91068,13.12608 z m -21.026,-73.53027 -23.69983,83.49634 h -15.4353 l 23.69984,-83.49634 z m -31.84287,0 -23.69984,83.49634 h -15.43527 l 23.69984,-83.49634 z m -65.63031,28.80441 h 16.40759 v 19.6891 h -16.40759 z m 0,35.12438 h 16.40759 v 19.68908 h -16.40759 z m -23.94292,-0.72923 12.39685,1.21538 -3.40306,19.20293 H 335.7043 l -1.57998,-8.26456 30.14133,-34.63821 h -17.1368 l -2.43078,8.50764 -11.30297,-1.21538 1.94459,-19.20295 h 48.00737 l 1.21538,8.26457 -30.38442,34.63821 h 17.74449 z m -78.39176,-35.48899 c -19.68911,0 -29.41209,13.24761 -29.41209,29.29057 0,17.50141 11.6676,27.83212 28.56133,27.83212 17.50141,0 30.14132,-11.05992 30.14132,-28.56133 0,-15.31375 -9.60146,-28.56136 -29.29056,-28.56136 z m -0.3646,44.96893 c -8.50766,0 -12.883,-7.29226 -12.883,-16.77219 0,-10.3307 4.98304,-16.28605 13.00454,-16.28605 7.41377,0 13.36912,4.98305 13.36912,16.04297 0,10.57377 -5.34765,17.01527 -13.49066,17.01527 z m -43.14587,-1.09385 h 7.29226 v 11.91069 h -22.84906 v -30.74902 c 0,-9.47993 -3.15998,-13.12606 -9.3584,-13.12606 -7.53535,0 -10.57378,5.34765 -10.57378,13.00453 v 19.0814 h 7.29226 v 11.91068 h -22.97062 v -30.87055 c 0,-9.47993 -3.15996,-13.12606 -9.35838,-13.12606 -7.53534,0 -10.57377,5.34765 -10.57377,13.00453 v 19.0814 h 10.45224 v 11.91068 H 158.624 v -11.91068 h 7.29225 V 395.31482 H 158.624 v -11.91069 h 22.97061 v 8.26457 c 3.28151,-5.83381 8.99377,-9.35841 16.65066,-9.35841 7.89994,0 15.19219,3.76767 17.86602,11.78915 3.03845,-7.29225 9.23685,-11.78915 17.86603,-11.78915 9.84454,0 18.83834,5.95534 18.83834,18.95988 v 24.9152 z"
       class="st0" />
    <text
       xml:space="preserve"
       style="font-style:normal;font-weight:normal;font-size:99.6545639px;line-height:1;font-family:sans-serif;text-align:end;letter-spacing:0px;word-spacing:0px;text-anchor:end;opacity:1;fill:#ffffff;fill-opacity:1;stroke:none;stroke-width:10.67727375;"
       x="554.67786"
       y="535.39856"
       id="text4512"><tspan
         sodipodi:role="line"
         id="tspan4510"
         x="554.67786"
         y="535.39856"
         style="font-style:normal;font-variant:normal;font-weight:normal;font-stretch:normal;font-family:'Zilla Slab';-inkscape-font-specification:'Zilla Slab';text-align:end;text-anchor:end;fill:#ffffff;stroke-width:10.67727375;">costa rica</tspan></text>
    <path
       style="display:inline;opacity:1;fill:#ffffff;fill-opacity:1;fill-rule:nonzero;stroke:none;stroke-width:5.01139021;stroke-linecap:round;stroke-linejoin:round;stroke-miterlimit:4;stroke-dasharray:none;stroke-dashoffset:0;stroke-opacity:1"
       d="m 218.74927,26.691566 c -4.02868,-0.06946 -7.94603,0.628234 -11.16667,2.828282 -9.59325,6.553228 -6.62606,5.718619 -6.8072,11.893293 -0.0781,2.664914 -0.42162,8.967117 -0.18406,11.639468 0.22816,2.566814 -3.01853,5.34959 -3.63612,7.884902 -1.0521,4.319083 7.45009,11.017989 9.05799,15.080874 2.73785,6.918112 9.18179,11.83717 12.04178,18.70359 3.7109,8.909385 6.28085,28.328955 6.28085,28.328975 0,0 19.38378,-15.34328 30.894,-18.70688 7.55228,-2.207 23.56044,-0.53401 23.56044,-0.53401 0,0 -23.89845,5.4018 -34.55596,11.22412 -12.80872,6.99754 -34.0328,27.79166 -34.0328,27.79166 0,0 -57.9846,73.83603 -69.63829,109.03061 -2.26111,6.82862 16.23333,-13.8942 16.23333,-13.89419 0,0 -41.39218,60.66982 -65.97312,87.65038 -20.37248,22.36131 -37.19666,36.37233 -67.01937,60.93002 -3.58624,2.95313 -8.78982,9.28463 -5.75771,12.82616 2.76116,3.22507 8.28373,-1.83639 12.04179,-3.74138 23.73209,-12.02991 82.41378,-67.40292 64.400476,-47.56656 -20.836566,22.94535 -28.013736,30.72299 -43.982076,43.8252 -5.20661,4.27206 -12.49945,5.96642 -16.75324,11.22411 -2.04321,2.52544 -5.49476,6.39736 -3.66516,9.08808 2.98713,4.39311 10.66917,0.92956 15.70695,-0.53731 12.78177,-3.72167 23.45961,-12.83988 34.55596,-20.3089 10.92767,-7.35547 21.0023,-15.95659 31.41715,-24.05029 7.72167,-6.00073 10.37332,-11.02467 23.03731,-18.17287 3.5261,-1.99032 -6.7271,9.08462 -3.66517,11.75815 3.2622,2.84838 7.26735,-5.26964 11.51864,-5.87743 5.62729,-0.80451 11.56334,5.56897 16.75324,3.20738 4.29214,-1.95309 3.38464,-9.68999 7.33034,-12.29546 4.72576,-3.12057 11.7941,0.57495 16.75646,-2.13604 4.47301,-2.44364 5.18534,-9.96828 9.94601,-11.75814 4.30818,-1.61974 9.14455,3.20573 13.61443,2.13606 11.21987,-2.68509 28.27189,-20.30893 28.27189,-20.30893 0,0 -2.50578,10.35662 1.04949,12.29216 10.20096,5.55347 21.03943,-10.13013 30.36766,-17.10155 3.8847,-2.90324 5.74371,-9.21484 10.46914,-10.15611 5.15312,-1.02647 9.43599,5.352 14.6607,5.88073 4.93985,0.49988 10.54165,0.15474 14.66069,-2.67335 3.25439,-2.23442 5.19396,-6.31031 6.28408,-10.1561 1.45529,-5.13408 -4.59553,-13.47242 0,-16.03354 2.5495,-1.42083 4.55497,3.93771 7.33033,4.8127 6.0055,1.89333 13.98314,4.59538 18.849,0.53401 3.15419,-2.63268 2.28411,-8.13767 2.09254,-12.29216 -0.0936,-2.02902 -2.92721,-4.39578 -1.5694,-5.88071 1.8217,-1.99223 5.18622,1.71972 7.85348,1.60204 4.35912,-0.19233 10.27107,0.0473 12.56493,-3.74137 2.05169,-3.38874 -4.32852,-8.49317 -2.09256,-11.75816 2.94267,-4.29688 11.80017,1.27407 15.18385,-2.67005 2.99174,-3.48725 -2.63869,-10.57023 0.52312,-13.89746 3.53241,-3.71723 12.55931,3.36392 15.18384,-1.06804 2.46598,-4.16424 -7.74333,-8.93821 -5.76095,-13.36348 1.97438,-4.40739 12.50073,0.43577 13.61443,-4.27538 2.17136,-9.18531 -11.74508,-15.29533 -19.89529,-19.7749 -11.48405,-6.31189 -26.21354,-3.35999 -38.22436,-8.55077 -16.00239,-6.91583 -43.4557,-29.39699 -43.4557,-29.39699 0,0 30.15504,18.813 46.59775,25.12161 13.43301,5.15388 29.70126,2.41481 41.8863,10.1528 9.99932,6.34999 22.51417,27.79496 22.51417,27.79496 0,0 -15.656,-1.86866 -17.27635,3.20736 21.98357,30.908 62.30469,118.64939 62.30469,118.64939 0,0 9.28544,4.31431 12.56815,1.60534 3.13343,-2.58576 -1.64092,-9.23068 1.04628,-12.29543 1.18702,-1.35378 4.10619,0.33702 5.23458,-1.06803 2.5449,-3.16883 -2.83842,-9.39474 0,-12.29216 1.85113,-1.88963 5.91243,1.79315 7.85347,0 3.90146,-3.60417 2.96208,-10.85285 1.57262,-16.03352 -10.8121,-40.31361 -47.80138,-67.89527 -72.7803,-101.01384 -14.76558,-19.57706 -28.32569,-40.36613 -45.55148,-57.72266 -24.15203,-24.33532 -55.05174,-40.7735 -80.10743,-64.1374 C 265.65966,63.959176 257.0399,41.343537 238.47339,32.189904 232.65744,29.32254 225.46372,26.80745 218.74927,26.691566 Z m 0.48116,7.001481 c 2.60239,7.28e-4 4.71161,2.007692 4.71144,4.483068 1.7e-4,2.475376 -2.10905,4.48234 -4.71144,4.483052 -2.60364,9.81e-4 -4.71484,-2.006474 -4.71469,-4.483052 -1.5e-4,-2.476578 2.11105,-4.484049 4.71469,-4.483068 z m -23.08898,2.363494 c -3.56269,-0.06234 -5.89775,0.554818 -8.95464,0.847171 -3.86444,0.369584 -7.54095,0.480104 -11.55094,1.20647 -4.07998,0.739056 -11.97399,3.41503 -11.97399,3.41503 0,0 9.69373,4.133959 14.34747,6.605917 5.93497,3.152534 17.25699,10.459375 17.25699,10.459375 0,0 2.75672,-2.083309 3.34547,-3.63259 0.92332,-2.429728 -0.10974,-7.818986 -0.10974,-7.818986 0,0 -8.07675,-0.946537 -12.08054,-1.651479 -5.64965,-0.994717 -16.82752,-3.63259 -16.82752,-3.63259 0,0 11.14132,1.734358 16.72094,2.531609 4.09428,0.585008 12.29691,1.65148 12.29691,1.65148 0,0 1.24907,-4.419668 0.8622,-6.605918 -0.2173,-1.228004 -0.66211,-3.228782 -1.72441,-3.302958 -0.56483,-0.0394 -1.0992,-0.06361 -1.60815,-0.07247 z"
       id="path4186"
       inkscape:connector-curvature="0" />
  </g>
</svg>
