<?xml version="1.0" encoding="UTF-8" standalone="no"?>
<!-- Created with Inkscape (http://www.inkscape.org/) -->

<svg
   xmlns:dc="http://purl.org/dc/elements/1.1/"
   xmlns:cc="http://creativecommons.org/ns#"
   xmlns:rdf="http://www.w3.org/1999/02/22-rdf-syntax-ns#"
   xmlns:svg="http://www.w3.org/2000/svg"
   xmlns="http://www.w3.org/2000/svg"
   xmlns:sodipodi="http://sodipodi.sourceforge.net/DTD/sodipodi-0.dtd"
   xmlns:inkscape="http://www.inkscape.org/namespaces/inkscape"
   version="1.1"
   id="svg2"
   width="563"
   height="563"
   viewBox="0 0 563 563"
   sodipodi:docname="perfilfacebook.svg"
   inkscape:version="0.92.1 unknown"
   inkscape:export-filename="/home/keik/Escritorio/IMAGEN MOZILLA CENTROAMERICA/Honduras/perfil_facebook.png"
   inkscape:export-xdpi="300"
   inkscape:export-ydpi="300">
  <metadata
     id="metadata8">
    <rdf:RDF>
      <cc:Work
         rdf:about="">
        <dc:format>image/svg+xml</dc:format>
        <dc:type
           rdf:resource="http://purl.org/dc/dcmitype/StillImage" />
        <dc:title />
      </cc:Work>
    </rdf:RDF>
  </metadata>
  <defs
     id="defs6" />
  <sodipodi:namedview
     pagecolor="#ffffff"
     bordercolor="#666666"
     borderopacity="1"
     objecttolerance="10"
     gridtolerance="10"
     guidetolerance="10"
     inkscape:pageopacity="0"
     inkscape:pageshadow="2"
     inkscape:window-width="1366"
     inkscape:window-height="708"
     id="namedview4"
     showgrid="false"
     borderlayer="true"
     inkscape:showpageshadow="false"
     inkscape:zoom="0.74182851"
     inkscape:cx="320.35813"
     inkscape:cy="341.97392"
     inkscape:window-x="0"
     inkscape:window-y="0"
     inkscape:window-maximized="1"
     inkscape:current-layer="layer2"
     showguides="true"
     inkscape:guide-bbox="true" />
  <g
     inkscape:groupmode="layer"
     id="layer1"
     inkscape:label="Layer 1"
     style="display:inline">
    <rect
       style="opacity:1;fill:#003380;fill-opacity:1;stroke:#f2f2f2;stroke-width:1.00558317;stroke-linecap:round;stroke-linejoin:round;stroke-miterlimit:4;stroke-dasharray:none;stroke-opacity:0.97254902;paint-order:stroke markers fill"
       id="rect4488"
       width="593.48572"
       height="576.06213"
       x="-13.43144"
       y="-7.0755544" />
  </g>
  <g
     inkscape:groupmode="layer"
     id="layer2"
     inkscape:label="Layer 2">
    <rect
       style="opacity:1;fill:#ffffff;fill-opacity:1;stroke:none;stroke-width:0.92477041;stroke-linecap:round;stroke-linejoin:round;stroke-miterlimit:4;stroke-dasharray:none;stroke-opacity:0.97254902;paint-order:stroke markers fill"
       id="rect4506"
       width="588.76605"
       height="102.90536"
       x="-12.711799"
       y="463.01355" />
    <path
       style="opacity:1;fill:#ffffff;stroke-width:1.21537626"
       inkscape:connector-curvature="0"
       id="path6"
       d="m 550.46127,428.49459 c -0.85069,0.24308 -1.5799,0.36462 -2.30913,0.36462 -2.55236,0 -3.76773,-1.09385 -3.76773,-4.25383 v -23.69983 c 0,-12.51837 -9.96609,-18.59526 -21.75518,-18.59526 -8.99382,0 -13.85534,1.09384 -23.4568,4.98305 l -1.94462,12.63991 12.5184,1.33692 1.82305,-6.19842 c 2.55229,-1.33692 5.10458,-1.58 8.38614,-1.58 8.87218,0 8.99379,6.68458 8.99379,12.2753 v 1.82307 c -2.79543,-0.36461 -5.95539,-0.48615 -8.99379,-0.48615 -12.51842,0 -25.52294,3.15998 -25.52294,16.65065 0,11.42453 8.99377,15.67836 16.89372,15.67836 8.8723,0 14.46303,-5.34766 17.62301,-10.93839 0.72922,6.68456 4.73991,10.93839 12.03216,10.93839 3.40306,0 6.92772,-0.97232 9.84461,-2.55229 z m -33.54437,-0.3646 c -4.73995,0 -6.44147,-2.79538 -6.44147,-6.31997 0,-5.95534 4.86155,-7.53534 10.45228,-7.53534 2.55221,0 5.34765,0.36462 7.89987,0.72923 -0.36454,9.11533 -6.31995,13.12608 -11.91068,13.12608 z m -21.026,-73.53027 -23.69983,83.49634 h -15.4353 l 23.69984,-83.49634 z m -31.84287,0 -23.69984,83.49634 h -15.43527 l 23.69984,-83.49634 z m -65.63031,28.80441 h 16.40759 v 19.6891 h -16.40759 z m 0,35.12438 h 16.40759 v 19.68908 h -16.40759 z m -23.94292,-0.72923 12.39685,1.21538 -3.40306,19.20293 H 335.7043 l -1.57998,-8.26456 30.14133,-34.63821 h -17.1368 l -2.43078,8.50764 -11.30297,-1.21538 1.94459,-19.20295 h 48.00737 l 1.21538,8.26457 -30.38442,34.63821 h 17.74449 z m -78.39176,-35.48899 c -19.68911,0 -29.41209,13.24761 -29.41209,29.29057 0,17.50141 11.6676,27.83212 28.56133,27.83212 17.50141,0 30.14132,-11.05992 30.14132,-28.56133 0,-15.31375 -9.60146,-28.56136 -29.29056,-28.56136 z m -0.3646,44.96893 c -8.50766,0 -12.883,-7.29226 -12.883,-16.77219 0,-10.3307 4.98304,-16.28605 13.00454,-16.28605 7.41377,0 13.36912,4.98305 13.36912,16.04297 0,10.57377 -5.34765,17.01527 -13.49066,17.01527 z m -43.14587,-1.09385 h 7.29226 v 11.91069 h -22.84906 v -30.74902 c 0,-9.47993 -3.15998,-13.12606 -9.3584,-13.12606 -7.53535,0 -10.57378,5.34765 -10.57378,13.00453 v 19.0814 h 7.29226 v 11.91068 h -22.97062 v -30.87055 c 0,-9.47993 -3.15996,-13.12606 -9.35838,-13.12606 -7.53534,0 -10.57377,5.34765 -10.57377,13.00453 v 19.0814 h 10.45224 v 11.91068 H 158.624 v -11.91068 h 7.29225 V 395.31482 H 158.624 v -11.91069 h 22.97061 v 8.26457 c 3.28151,-5.83381 8.99377,-9.35841 16.65066,-9.35841 7.89994,0 15.19219,3.76767 17.86602,11.78915 3.03845,-7.29225 9.23685,-11.78915 17.86603,-11.78915 9.84454,0 18.83834,5.95534 18.83834,18.95988 v 24.9152 z"
       class="st0" />
    <text
       xml:space="preserve"
       style="font-style:normal;font-weight:normal;font-size:99.6545639px;line-height:1;font-family:sans-serif;text-align:end;letter-spacing:0px;word-spacing:0px;text-anchor:end;opacity:1;fill:#000000;fill-opacity:1;stroke:none;stroke-width:10.67727375"
       x="555.72473"
       y="547.37726"
       id="text4512"><tspan
         sodipodi:role="line"
         id="tspan4510"
         x="555.72473"
         y="547.37726"
         style="font-style:normal;font-variant:normal;font-weight:normal;font-stretch:normal;font-family:'Zilla Slab';-inkscape-font-specification:'Zilla Slab';text-align:end;text-anchor:end;fill:#000000;stroke-width:10.67727375">honduras</tspan></text>
    <rect
       style="opacity:1;fill:#0044a9;fill-opacity:1;stroke:none;stroke-width:0.26036686;stroke-linecap:round;stroke-linejoin:round;stroke-miterlimit:4;stroke-dasharray:none;stroke-opacity:0.97254902;paint-order:stroke markers fill"
       id="rect4506-3"
       width="46.670914"
       height="102.90536"
       x="-175.79971"
       y="408.36444" />
    <path
       style="opacity:1;fill:#ffffff;fill-opacity:1;fill-rule:nonzero;stroke:none;stroke-width:3.40026546;stroke-linecap:round;stroke-linejoin:round;stroke-miterlimit:4;stroke-dasharray:none;stroke-dashoffset:0;stroke-opacity:1"
       d="m 202.40278,27.653707 c -0.6409,0.09092 -1.28468,0.306633 -1.93264,0.665471 -8.58057,4.75274 4.6e-4,19.960506 3.11673,29.261214 3.80061,11.343222 18.46498,30.772776 18.46498,30.772776 0,0 -19.53199,-19.879399 -31.72068,-26.13742 -6.8575,-3.520803 -16.96066,-11.444162 -22.35088,-5.933533 -3.5783,3.658201 0.8989,10.892318 4.26504,14.74661 6.64516,7.608779 17.22509,12.115163 24.96644,17.493489 17.56679,12.204526 36.70675,37.540786 36.70675,37.540786 0,0 -22.17818,-25.60437 -36.82268,-33.321696 -9.77802,-5.15279 -21.94709,-11.70202 -32.2514,-7.704292 -3.84379,1.491274 -7.33863,6.13164 -6.94471,10.235692 0.49036,5.108596 6.71143,7.912106 10.90977,10.863716 7.84689,5.51674 17.47816,7.92973 26.00799,12.31724 9.95943,5.12289 29.35692,16.33918 29.35692,16.33918 0,0 -17.77959,-8.58032 -26.89288,-12.35959 -7.70033,-3.19332 -15.12663,-8.15042 -23.44462,-8.70152 -4.91588,-0.32572 -11.7481,-0.87438 -14.41461,3.2683 -1.56782,2.43579 -0.66549,6.92981 1.76118,8.51168 9.96583,6.49651 19.69075,4.89901 29.16174,8.47193 10.19732,3.8469 29.5996,13.88769 29.5996,13.88769 0,0 -20.00801,-8.94453 -30.65886,-11.12204 -8.61123,-1.76049 -18.12915,-4.62386 -26.32818,-1.45715 -2.821,1.08953 -6.45906,3.4378 -6.36958,6.46057 0.10429,3.52244 4.37482,7.62455 7.85587,7.07601 26.59857,-4.19138 49.8815,10.56162 49.8815,10.56162 0,0 -27.59803,-9.85497 -41.74168,-8.55731 -5.31839,0.48794 -13.36404,0.88945 -14.84772,6.01997 -1.11565,3.85774 4.39448,9.87772 7.02497,9.78666 24.18709,-0.83718 43.58525,5.07341 43.58525,5.07341 0,0 -28.25895,-4.91946 -41.94497,-1.98189 -2.26863,0.48695 -5.66708,0.89586 -6.20764,3.1523 -0.79529,3.31977 2.68293,8.90004 6.0387,8.27385 16.95609,-3.16373 38.74463,2.05396 38.74463,2.05396 0,0 -25.80047,-3.48434 -38.20214,-0.58686 -2.52328,0.58951 -6.19998,1.06112 -6.91553,3.5516 -0.86885,3.02407 1.69815,8.42603 4.82874,8.11118 25.04549,-2.51904 36.18198,0.56103 36.04685,0.54893 0.0248,0.0229 -20.99035,-1.28716 -33.79529,1.63888 -2.75408,0.62934 -4.74121,4.41504 -4.43162,7.22309 0.42321,3.83853 3.51257,9.50357 8.06459,8.31853 18.75162,-4.88158 33.21577,-3.464 33.21577,-3.464 -1.23702,0.56703 -23.74536,2.03611 -31.08119,6.10023 -2.18776,1.21204 -2.84774,4.99197 -1.83143,7.27725 1.5008,3.37477 2.87482,6.11127 9.78891,5.18881 8.5727,-1.14371 26.41902,-3.46938 26.41901,-3.46937 -0.46886,-0.0679 -11.56786,2.32562 -25.02054,5.54562 -2.90621,0.69562 -4.44944,5.4031 -3.1882,7.97215 1.44229,2.93789 5.21058,4.01764 9.44363,2.6922 19.39151,-6.07177 23.68458,-5.69542 23.68458,-5.69542 0,0 -18.18516,5.50306 -21.10602,9.3668 -1.19453,1.58019 -3.63776,3.99857 -2.59338,5.86361 1.73694,3.10206 6.47847,3.74137 10.57065,1.42144 9.25381,-5.24612 16.67713,-7.49511 16.67713,-7.49511 0,0 -6.95875,4.16103 -12.7655,7.40625 -1.89058,1.05658 -4.03389,4.14903 -2.74622,5.89048 2.34836,3.17589 8.51749,0.64902 11.73522,-1.64162 3.78531,-2.69467 8.61764,-3.25556 8.61764,-3.25556 0,0 -8.38595,3.45188 -10.64052,7.06232 -0.63978,1.02449 -1.25291,2.66733 -0.47509,3.5914 1.56206,1.85581 4.92661,0.90648 7.27284,0.29058 6.52314,-1.71237 17.21234,-10.63149 17.21234,-10.63149 0,0 -2.83519,-1.23451 -3.96555,-2.25166 -0.91262,-0.82118 -2.26659,-1.77264 -2.14689,-2.99448 0.59372,-6.06075 15.91206,-6.99165 13.32188,-12.50311 -0.56647,-1.20534 -3.12272,1.52644 -3.96661,0.49613 -1.4961,-1.82665 3.33059,-4.61567 2.25017,-6.7151 -1.93066,-3.75159 -10.05824,-0.0161 -12.10375,-3.70632 -2.86322,-5.16541 7.61992,-12.05426 4.57852,-17.11683 -1.47281,-2.45158 -7.10722,0.63867 -8.35835,-1.93313 -1.59816,-3.28515 5.68995,-6.42515 4.64639,-9.92618 -0.81476,-2.7334 -6.72282,-1.70228 -7.27899,-4.4998 -0.82784,-4.16442 7.89219,-6.10975 7.45129,-10.33274 -0.20035,-1.91884 -4.22986,-1.96418 -4.28215,-3.89276 -0.0861,-3.17403 5.95034,-3.69501 6.68872,-6.78316 0.83349,-3.48593 -4.70762,-6.95809 -3.27145,-10.24195 1.47079,-3.36301 8.48698,-1.30568 9.97583,-4.66073 1.27724,-2.87776 -4.7044,-6.53941 -2.7751,-9.0275 2.13464,-2.75288 8.35407,3.2792 10.43932,0.48869 2.48973,-3.33186 -7.12752,-8.94411 -4.09289,-11.7886 4.06013,-3.80569 10.80752,9.64569 15.38512,6.48125 2.56864,-1.77571 -2.99206,-7.69179 -0.3528,-9.36074 7.11921,-4.50188 14.11638,10.19311 22.40656,11.684 1.3108,0.23576 3.96403,-0.49785 3.96403,-0.49785 l -27.88551,-38.92173 c 0,0 -19.86454,-43.320093 -35.27184,-61.078788 -4.69232,-5.408436 -10.51982,-16.17467 -16.71531,-15.296376 z m 59.34593,109.814073 c -0.76819,0.11838 -1.44455,0.42944 -1.98431,0.98416 -2.14963,2.20921 7.43456,9.8604 3.60369,8.51711 -5.44387,-1.90886 -9.00688,-3.7155 -15.32269,-5.61413 -3.25626,-0.97888 5.42289,7.14521 3.17342,9.69498 -2.30096,2.60816 -7.91601,-4.56666 -10.24565,-1.98409 -1.83663,2.03604 3.48357,5.3614 2.38504,7.87379 -1.5482,3.54083 -9.04519,1.45653 -10.42802,5.06518 -0.91656,2.39181 3.43296,4.61228 2.89829,7.11729 -0.60665,2.84214 -6.05137,3.13442 -6.29879,6.03003 -0.16939,1.98281 3.49603,2.81011 3.54973,4.79943 0.1027,3.80472 -7.22291,5.84362 -6.28385,9.53207 0.70512,2.76959 6.66868,1.31927 7.56803,4.03195 1.0344,3.12002 -5.64169,5.95712 -4.21092,8.9164 0.92291,1.90891 4.95383,-0.2752 6.19543,1.44361 3.49786,4.84232 -5.21207,13.07129 -1.62349,17.84681 2.08942,2.78051 8.33754,-0.92486 10.24348,1.98451 1.28573,1.96266 -2.94901,4.99743 -1.53332,6.86852 0.71409,0.94384 3.04591,-0.8754 3.54504,0.19772 3.10664,6.67928 -15.85033,10.76777 -13.27446,17.66911 0.89953,2.41008 7.5438,1.62263 7.5438,1.62263 l 4.96208,-2.46518 c -12.41484,6.97584 -28.14983,15.89985 -41.63618,23.78713 -6.5207,0.0855 -16.82695,0.32584 -23.21353,1.10626 -12.10006,1.47858 -20.95523,0.59241 -35.81916,7.38197 -7.82144,3.57269 25.60309,3.16706 25.60309,3.16706 3e-5,0 -30.04298,9.67423 -59.31887,23.33808 -13.746487,6.41584 29.52507,-0.33241 33.28903,-2.81088 -8.00627,8.04925 -44.56533,15.04833 -54.196702,26.86256 -6.845329,8.39675 19.376142,-1.09387 29.528632,-4.87421 13.12764,-4.88813 38.14518,-22.4084 38.14518,-22.4084 l 11.78808,-7.49626 c -3.30389,3.85584 -5.07529,6.48979 -2.42964,4.91924 11.95651,-7.0978 41.22978,-20.70006 31.70397,-14.13319 -13.67537,9.4275 -71.17747,61.60711 -54.89274,53.29287 16.28473,-8.31425 58.76782,-40.5582 52.32304,-31.10175 -6.44476,9.45648 -9.80072,7.35082 -14.26902,14.51251 -4.46832,7.16169 6.45512,-3.80495 5.08323,-0.97371 -1.8615,3.8417 -15.14914,27.63636 -3.17415,15.79972 11.97505,-11.83663 21.85829,-25.85956 38.95325,-39.39353 7.03023,-5.56578 18.59679,-14.06203 29.81873,-22.17483 -0.37461,0.51846 -0.71246,1.03358 -0.98982,1.53971 -4.76727,8.69922 18.9474,-7.75903 28.85571,-7.281 3.2454,0.15657 5.96502,2.79763 9.17793,3.2818 3.44216,0.5187 7.55499,-2.42211 10.43272,-0.4635 0.83899,0.57104 0.12674,2.34529 0.98903,2.88045 4.03165,2.50218 9.92531,-4.04921 14.11811,-1.82758 1.3849,0.73382 0.72361,3.48117 2.11798,4.19688 1.85255,0.95093 4.14571,-1.43642 6.17377,-0.96399 3.01506,0.70234 4.50389,5.23158 7.59776,5.34033 2.90437,0.10208 4.56498,-4.62282 7.46855,-4.50053 5.02148,0.21147 7.22033,9.40127 12.21483,8.83985 3.25237,-0.36558 3.25597,-6.80236 6.47778,-7.37838 3.01201,-0.53854 5.16362,5.3279 8.07059,4.37293 1.85465,-0.60925 0.75465,-4.40879 2.4922,-5.29861 5.42062,-2.77596 13.25866,7.22505 17.95952,3.35324 1.41223,-1.16319 -1.24929,-4.19395 0.0442,-5.48787 4.79656,-4.79813 17.42681,5.94749 20.35392,-0.17306 0.80326,-1.6795 -4.2093,-2.66754 -3.4685,-4.37548 2.67101,-6.15805 18.61804,4.9006 20.06816,-1.65327 0.97865,-4.42315 -5.12152,-5.06858 -11.80959,-6.72437 -7.00427,-1.73406 18.65153,-1.88242 20.52709,-8.43546 1.65977,1.76326 3.36799,4.09145 2.7185,5.79035 -1.22136,3.19464 -12.3545,0.3007 -9.90334,2.68591 1.77533,1.72755 5.3094,4.66291 4.22673,7.23926 -2.44637,5.82126 -13.2463,2.24322 -18.37001,4.62329 -1.12862,0.52427 1.23017,2.78991 0.39571,3.71311 -4.66152,5.1573 -15.12076,-4.04076 -20.85439,-0.10973 -2.35367,1.61366 -0.44849,6.81877 -3.04476,8.00328 -5.20822,2.37618 -10.65605,-7.59262 -16.12741,-5.90853 -2.65493,0.81717 -2.18676,6.0107 -4.85862,6.77068 -2.97747,0.84691 -5.59429,-4.40453 -8.57429,-3.56646 -3.27282,0.92041 -2.61984,7.84315 -5.99512,8.25064 -5.14356,0.62096 -6.84014,-8.78511 -11.8673,-10.03793 -4.11261,-1.02491 -8.29873,3.66053 -12.42587,2.69579 -2.31944,-0.54219 -3.30255,-3.7816 -5.5883,-4.45175 -3.43431,-1.0069 -8.32446,3.79199 -10.67884,1.09666 -1.23223,-1.41071 2.62833,-4.12102 1.32044,-5.46185 -3.10383,-3.18192 -8.87226,4.37539 -13.03424,2.81457 -1.77438,-0.66542 -1.6992,-3.72141 -3.39972,-4.55767 -3.76592,-1.85192 -8.58128,1.44713 -12.58837,0.20022 -1.50055,-0.46697 -2.28991,-2.46219 -3.83742,-2.73604 -1.2761,-0.22583 -3.74867,1.03361 -3.74867,1.03361 l -27.54408,11.11621 0.60709,-3.43187 c 0,0 -18.24589,9.10995 -14.62517,15.11266 2.54679,4.22222 16.27269,-4.85267 16.27269,-4.85267 0.93006,0.94531 -8.43347,5.38942 -7.65638,6.99108 -0.30129,5.66181 6.69609,2.82181 6.69609,2.82181 0,0 -1.31796,3.89351 0.41159,5.44336 1.62359,1.45488 5.45197,-1.20212 5.45197,-1.20212 l 20.72793,-10.16542 -16.58739,9.53006 c 0,0 -1.78558,5.16253 -0.14665,6.65925 1.4925,1.36295 6.02517,-0.68081 6.02517,-0.68081 l 19.81729,-14.09547 -17.21156,15.33188 c 0,0 -0.0671,3.06445 1.03362,3.74868 2.28192,1.41867 7.91622,-1.51637 7.91622,-1.51637 l 18.61221,-15.44464 -16.03137,15.73914 c 0,0 -1.6682,3.36842 -0.4887,4.03805 3.5771,2.03084 4.64888,-0.50141 7.15548,-3.76327 3.08198,-4.01062 -2.72819,4.90482 -0.18417,6.37457 6.2435,3.60707 22.90039,-26.55126 23.80825,-26.50063 l -13.185,22.27847 c 0,0 -1.58651,5.94995 0.44571,7.26761 3.16533,2.05232 8.89333,-5.13373 8.89333,-5.13373 l 15.98759,-22.00253 -12.90429,24.09638 c 0,0 -0.42041,4.44269 1.17298,5.29977 2.5887,1.39244 8.23521,-3.15751 8.23521,-3.15751 l 13.91176,-24.60269 -11.14315,24.23012 c 0,0 -1.25,3.591 1.4838,4.45135 2.47528,0.77897 7.13895,-3.10303 7.13895,-3.10303 l 4.16239,-7.11069 c 0,0 -2.40603,5.45611 -1.75014,8.15932 0.63698,2.62525 2.49092,5.74557 5.14213,6.264 4.09826,0.80141 8.33234,-2.77169 11.01068,-5.97551 2.65579,-3.17682 3.89616,-11.79524 3.89616,-11.79524 l -1.31311,12.08936 c 0,0 0.90571,7.24354 3.97259,8.25776 2.85431,0.94389 6.42158,-4.25102 6.42158,-4.25102 l 4.1285,-32.83317 -0.91782,30.63812 c 0,0 3.94465,7.52327 7.53104,7.70275 3.81672,0.191 8.79313,-7.35634 8.79313,-7.35634 l -0.61396,-32.86916 3.80999,32.25694 c 0,0 5.56556,5.7637 8.83668,4.93621 4.67784,-1.18338 8.08468,-7.40571 7.76146,-12.2201 -2.19533,-12.01116 -3.15688,-14.0485 -4.60484,-25.83611 4.42325,10.3082 4.40307,19.67789 8.45769,26.99366 1.83111,3.3039 3.90929,5.90891 7.0542,6.70616 2.73438,0.69317 6.51594,0.0801 8.17036,-2.20471 2.2113,-3.05385 -0.60815,-11.29482 -0.60815,-11.29482 l -8.7064,-14.3446 c -2.33354,-3.84471 11.67933,12.41485 12.48531,13.35199 0.81493,0.94755 6.78576,7.60398 11.45269,8.69734 3.57202,0.83685 9.17173,1.21341 10.80789,-2.07028 2.70026,-5.41925 -8.7239,-14.64307 -8.7239,-14.64307 l -10.51989,-11.06288 15.10968,10.71334 c 0,0 12.405,13.88251 18.94535,10.73546 3.41719,-1.64426 6.05077,-3.35562 3.54719,-6.20394 -7.40566,-6.84166 -22.04056,-15.67878 -22.04056,-15.67878 0,0 16.41642,8.31465 25.10329,12.72319 6.11087,3.10124 13.23857,4.44307 20.09085,4.36044 5.32814,-0.0642 13.44457,-1.20891 15.53623,-3.76715 1.82842,-2.23625 -2.72158,-4.9642 -5.18406,-5.63588 -5.70214,-1.55536 -9.76249,-2.02364 -15.07965,-4.09908 -6.04523,-2.6835 -10.60445,-4.75181 -10.60445,-4.75181 0,0 8.13293,2.43819 12.30072,3.19856 5.41713,0.98829 10.47767,1.93775 16.42598,1.75617 9.71661,-0.2966 22.61841,-2.44015 28.41907,-6.54821 3.60312,-2.55176 -11.88269,-4.35273 -11.88269,-4.35273 0,0 -19.30241,-2.22085 -29.51833,-4.13236 -10.09754,-1.88938 -31.58131,-8.31273 -31.58131,-8.31273 0,0 22.08295,5.13405 33.21215,6.81736 10.2927,1.5568 23.2628,3.72466 33.59798,2.4805 9.47142,-1.1402 18.3338,-3.15612 24.21635,-9.5321 2.33527,-2.53115 5.53616,-7.5562 2.99968,-9.88572 -5.23213,-4.80528 -12.75146,6.96497 -19.79414,7.89613 -26.53773,3.5087 -63.23114,-4.50524 -79.76116,-9.34373 -9.77495,-2.86124 -15.16298,-5.83653 -17.99097,-7.81231 0.0489,-0.24816 0.0741,-0.50334 0.0532,-0.76977 -0.31665,-4.02754 -7.64521,-2.97611 -11.6759,-3.24957 -5.37746,-0.36484 -11.31208,-0.43114 -16.0205,2.192 -2.35987,1.31471 -2.75016,5.02676 -5.15918,6.249 -2.45283,1.24447 -5.7372,-0.66198 -8.23819,0.48263 -2.38956,1.09363 -2.99671,4.82921 -5.49167,5.65454 -3.7719,1.24775 -8.00546,-3.19783 -11.76449,-1.91177 -2.1865,0.74805 -2.43961,4.75535 -4.72887,5.07115 -2.01321,0.27773 -3.19076,-2.93167 -5.20932,-3.16746 -3.44796,-0.40275 -6.43759,3.06694 -9.90589,3.21382 -1.41229,0.0598 -2.83376,-1.52378 -4.13101,-0.96227 -1.30723,0.56583 -0.84913,3.09747 -2.14053,3.69858 -2.92408,1.36099 -6.30513,-1.54223 -9.52741,-1.68217 -4.25181,-0.18466 -8.96363,3.12292 -12.71868,1.12 -2.46292,-1.31365 -1.55183,-6.06318 -4.03575,-7.3367 -1.85629,-0.95176 -4.19342,1.26714 -6.2146,0.75092 -2.01638,-0.51499 -3.0233,-3.30697 -5.07921,-3.62966 -5.92682,-0.93021 -12.67562,9.47961 -17.14482,5.47726 -1.27068,-1.13794 2.31063,-3.91002 1.01335,-5.01757 -4.26194,-3.63864 -11.42,9.41708 -15.75606,5.86714 -1.30901,-1.07169 -0.98937,-3.49376 -0.30485,-5.75684 0.0795,0.5404 0.28951,0.99805 0.75616,1.29995 5.47399,3.54135 12.43863,-6.93738 18.932,-4.91351 1.36297,0.42481 1.24596,2.26992 2.37146,2.60211 4.09676,1.20918 8.36633,-4.70027 12.3906,-3.26828 1.40539,0.50009 1.24459,3.07432 2.6337,3.61799 2.88052,1.12739 6.16271,-2.76209 9.10335,-1.8024 2.95878,0.96566 3.24525,6.40857 6.32366,6.86687 2.21265,0.32939 3.55191,-3.44086 5.78853,-3.39884 2.96461,0.0557 4.55333,5.16543 7.49459,4.78983 1.95126,-0.24919 2.12979,-3.76378 4.01552,-4.32369 2.19954,-0.6531 4.43034,2.12937 6.67855,1.67114 1.77508,-0.36184 2.59175,-2.78631 4.33526,-3.27825 3.73946,-1.05511 8.17368,2.96544 11.59936,1.132 0.86716,-0.46411 0.53559,-2.11513 1.39051,-2.60145 3.96483,-2.25548 9.46555,2.39264 13.67052,0.62482 1.31183,-0.5515 1.59974,-2.49486 2.84574,-3.18226 2.74205,-1.51272 6.67435,0.20461 9.26288,-1.55796 1.43966,-0.98029 1.30615,-3.42508 2.69477,-4.47639 3.9839,-3.01625 18.95808,-1.77717 14.46104,-3.95568 -16.36873,-7.92945 -44.72318,-0.0863 -62.4746,-11.64523 -4.98377,-3.24521 -10.08388,-14.71842 -10.08388,-14.71842 0,0 7.68547,12.44934 14.04917,13.0505 4.12576,0.38975 8.37974,-3.06584 10.53393,-6.60688 1.39897,-2.29964 0.92954,-5.36852 0.66503,-8.04782 -0.29992,-3.03789 -2.52468,-8.80271 -2.52468,-8.80271 0,0 4.52913,-4.64312 7.24533,-6.3601 6.03979,-3.81794 24.36102,-3.17784 19.68348,-8.48576 -5.32628,-6.04408 -15.97933,-4.84164 -24.10541,-4.16169 -18.67425,1.56254 -53.04088,18.63509 -53.04088,18.63509 0,0 -19.97525,-11.51942 -26.36371,-20.68116 -5.08347,-7.29026 -8.18938,-25.37292 -8.18938,-25.37292 0,0 0.54725,-15.14824 2.0107,-17.94352 2.5286,-4.82988 -13.65626,7.00074 -12.90982,10.04173 0.78534,3.19946 -7.31553,0.47235 -9.41234,3.01335 -0.92861,1.12534 0.22762,3.09307 -0.51988,4.34606 -2.0916,3.50601 -7.78644,3.63111 -10.01092,7.05442 -0.72538,1.1163 -0.25272,2.69483 -0.77516,3.91934 -0.75649,1.77321 -3.23864,2.80958 -3.31903,4.73575 -0.0689,1.65142 2.63875,2.63734 2.49761,4.2842 -0.19132,2.23216 -4.46,2.91258 -4.32184,5.14868 0.11487,1.85891 3.43012,2.062 4.09143,3.80311 0.76438,2.01255 -1.5487,4.48793 -0.61891,6.42963 0.96819,2.02186 4.62009,1.68854 5.61924,3.69526 0.74119,1.48867 -1.47019,3.77275 -0.32444,4.97804 2.35747,2.47997 7.34012,-1.93103 10.2626,-0.15141 2.19757,1.3382 2.82484,4.41177 3.44442,6.90901 0.58066,2.34043 0.80061,4.90539 0.173,7.23364 -0.80334,2.98029 -5.00235,4.8079 -4.84471,7.89052 0.10908,2.13338 1.60281,4.22909 3.44786,5.52667 -2.95646,-0.32405 -6.16991,-1.12206 -7.32053,-3.02224 -1.06441,-1.75782 0.79147,-4.04778 1.48442,-5.98237 1.02125,-2.85112 3.81309,-5.17546 3.90819,-8.20248 0.0941,-2.99626 -0.75142,-6.85336 -3.35202,-8.34447 -2.99084,-1.71484 -7.38547,3.46765 -10.23031,1.52015 -1.77746,-1.21683 -0.46536,-4.37359 -1.42575,-6.3017 -1.17469,-2.3584 -4.69041,-3.43459 -5.10305,-6.03681 -0.26814,-1.69069 2.1262,-3.05399 1.94028,-4.75563 -0.28961,-2.65106 -4.91354,-3.94058 -4.5494,-6.5824 0.22366,-1.62266 3.27263,-1.58003 3.78316,-3.13644 0.80647,-2.45853 -2.76028,-5.09797 -1.87986,-7.53102 0.51336,-1.41868 2.96672,-1.32719 3.6513,-2.67163 1.19421,-2.34531 -1.56958,-5.79982 0.0225,-7.89544 2.0478,-2.69536 7.34809,-0.39094 9.77621,-2.74948 2.39512,-2.32651 0.081,-7.92029 2.99009,-9.5593 2.54582,-1.43431 5.93387,3.46793 8.51333,2.09506 1.84692,-0.98299 0.84831,-4.26072 2.15751,-5.89267 1.93458,-2.41155 7.81174,-5.00355 7.81174,-5.00355 0,0 -9.93841,-8.5823 -15.31574,-7.75448 z m 131.98059,63.44659 c -18.22793,4.13183 -1.22341,3.23619 -19.25234,17.40697 -1.02869,1.84884 0.50617,1.19416 3.24372,2.60182 2.50661,1.28896 -0.30602,3.11559 -1.21644,5.487 7.18626,-1.05656 13.20688,-2.29189 16.89161,-7.17557 2.5238,-3.34503 2.08572,-8.31916 1.55026,-12.47513 -0.28994,-2.25045 -1.21681,-5.84509 -1.21681,-5.84509 z m -15.41705,2.84656 c -0.69223,0.11407 -1.41693,0.40756 -2.07909,0.84229 -1.81574,1.1922 -2.71287,3.12259 -2.0031,4.31012 0.70792,1.18684 2.7514,1.18382 4.56525,-0.007 1.81429,-1.19157 2.71129,-3.12026 2.0035,-4.30792 -0.42221,-0.71054 -1.35269,-1.02402 -2.48656,-0.83774 z m -94.14466,29.32838 c 5.05308,-0.96568 12.62298,-1.25493 12.62298,-1.25493 0,0 -14.53723,2.51757 -20.57445,6.41146 -2.12313,1.36941 -3.926,7.01039 -5.03932,5.66256 0.52796,-6.14407 6.18799,-8.90468 11.00904,-10.36285 0.58967,-0.16672 1.25989,-0.31818 1.98175,-0.45623 z m -109.81094,68.08164 c 0,0 -13.35782,4.7389 -19.5237,8.16661 -13.60132,7.56117 -27.51441,15.60528 -38.0338,27.07307 -1.91877,2.09177 -5.93369,4.99974 -4.32399,7.33772 2.22401,3.23022 8.63469,0.60174 11.60153,-1.96312 9.49608,-8.2095 15.52701,-10.00436 15.52701,-10.00436 0,0 -32.32673,23.01836 -46.288762,36.9872 -8.803686,8.80799 -19.239898,16.47248 -23.307456,29.19737 -1.328643,4.15657 13.248177,-3.17871 16.549311,-6.03262 14.846917,-12.83536 41.603347,-34.26624 41.603347,-34.26624 0,0 -11.2069,12.36211 -26.63615,25.41044 -1.723189,1.45727 -1.896512,5.53733 -0.006,6.76981 3.81057,2.48421 12.4831,-5.51518 12.4831,-5.51518 l 39.50798,-35.68607 -12.76035,14.94026 c 0,0 -3.85593,5.30866 -2.06068,6.90417 2.93696,2.6102 7.54513,-2.50545 10.82037,-4.676 10.74092,-7.1181 27.95047,-26.70356 27.95047,-26.70356 l 3.99681,-10.39902 -6.07691,0.90484 4.33333,-8.64231 c 0,0 -17.10102,12.42495 -26.32035,17.53999 -6.05605,3.36002 -10.33795,6.66649 -18.92745,8.57308 -7.36645,1.63509 5.13573,-11.55384 11.52664,-17.30952 9.97852,-8.98673 28.36579,-28.60656 28.36579,-28.60656 z m 56.71482,-1.66778 c -4.77489,0.96104 -12.05776,8.25341 -12.05776,8.25341 0,0 -12.68369,15.32473 -19.44844,22.60912 -6.11493,6.58465 -12.60317,15.38484 -19.0834,19.04328 -1.13668,0.64173 -1.72191,-3.51766 -1.72191,-3.51766 0,0 -19.41619,16.79772 -29.99888,27.77663 -3.93265,4.07988 -11.76064,9.19795 -16.07803,5.52761 -1.49048,-1.26712 0.99047,-5.78407 0.99047,-5.78407 0,0 -13.42893,13.61853 -21.70099,18.14498 -4.34766,2.37905 -14.182981,4.4659 -14.182981,4.4659 l -4.355536,-2.66383 -18.402285,9.82035 c 0,0 -11.168588,4.69607 -13.479191,0.8329 -5.988831,-10.01297 18.430747,-29.75758 18.430747,-29.75758 l 28.152376,-24.62574 c 0,0 -4.34343,-1.11909 -4.75706,-2.93627 -0.70092,-3.07945 5.11717,-7.97427 5.11717,-7.97427 l -43.500336,23.02172 c 0,0 -5.386301,5.35564 -3.767006,7.71565 1.888412,2.75217 9.975316,-0.86273 9.975316,-0.86273 l 20.412644,-8.45639 -58.13208,41.55943 c 0,0 -7.251635,4.77523 -5.5833,7.36479 1.861159,2.88883 10.053707,-2.27741 10.053707,-2.27741 l 21.675548,-14.642 -47.454698,37.06633 c 0,0 -3.4414862,7.08597 -1.083088,8.94833 6.558285,5.17893 23.512763,-8.69859 23.512763,-8.69859 l 36.765885,-23.47853 -6.38681,6.81774 c 0,0 -5.438993,6.24157 -3.300896,8.32508 3.859735,3.76123 14.871215,-6.34454 14.871215,-6.34454 l 21.156126,-17.34189 -5.776958,6.35382 c 0,0 -2.351896,5.75049 -0.393099,7.06708 2.650248,1.78136 8.655387,-4.10577 8.655387,-4.10577 l 16.27488,-13.60744 c 0,0 -6.12726,8.6987 -3.12107,11.08777 3.20287,2.54538 10.75834,-5.90606 10.75834,-5.90606 l 42.19954,-37.10773 c 0,0 -3.78163,5.61128 -1.80783,6.98872 4.41351,3.08003 13.27665,-9.18562 13.27665,-9.18562 0,0 18.39885,-19.16817 27.31412,-29.01368 4.98065,-5.50037 14.62009,-16.78638 14.62009,-16.78638 0,0 -6.09582,12.11474 -10.31316,17.36108 -4.83565,6.01548 -12.43887,10.26299 -15.56612,17.31921 -1.13719,2.56591 -3.20646,5.32744 -1.47038,6.92635 3.30142,3.04061 8.91873,-1.78835 12.89519,-3.86985 6.75995,-3.53872 12.43695,-8.60807 17.89966,-14.26807 8.84785,-9.16741 16.81469,-36.67023 16.81469,-36.67023 -5.59713,1.50922 -5.37682,-1.22396 -8.89922,-0.51495 z"
       id="path4155"
       inkscape:connector-curvature="0"
       sodipodi:nodetypes="csscsssscssssscssssscsssscssscssccssscssscssscssscscscssscsssccsssssssscsssssssssssccssccssssssscsssssssssscccsscscssccssssssssccssssssssssssssssssscsssssssssssssssssssscccscscccccscccscccsssccscccscccscccaaacscccsaccssccsaacssscccssccssssccascscsssssscssssssssssssssssssssccssssssssscssssssssscsascssscscsssscsssssssssssscsssssssscssssssssccccscssccsscccscsscscsssccssscsscccssccccssscscssccscscccsccsccscccscccscccscccsccsccscscssssscsccscc" />
  </g>
</svg>
