<?xml version="1.0" encoding="UTF-8" standalone="no"?>
<!-- Created with Inkscape (http://www.inkscape.org/) -->

<svg
   xmlns:dc="http://purl.org/dc/elements/1.1/"
   xmlns:cc="http://creativecommons.org/ns#"
   xmlns:rdf="http://www.w3.org/1999/02/22-rdf-syntax-ns#"
   xmlns:svg="http://www.w3.org/2000/svg"
   xmlns="http://www.w3.org/2000/svg"
   xmlns:sodipodi="http://sodipodi.sourceforge.net/DTD/sodipodi-0.dtd"
   xmlns:inkscape="http://www.inkscape.org/namespaces/inkscape"
   id="svg2"
   version="1.1"
   inkscape:version="0.92.2 (unknown)"
   width="967.33325"
   height="823.0285"
   viewBox="0 0 906.87496 771.5892"
   sodipodi:docname="logoNicaragua_MozillaCOLOR.svg"
   inkscape:export-filename="/home/keik/Escritorio/IMAGEN MOZILLA CENTROAMERICA/Nicaragua/LogoNicaragua_MozillaCOLOR.png"
   inkscape:export-xdpi="300"
   inkscape:export-ydpi="300">
  <title
     id="title4536">LogoMozillaHonduras</title>
  <metadata
     id="metadata8">
    <rdf:RDF>
      <cc:Work
         rdf:about="">
        <dc:format>image/svg+xml</dc:format>
        <dc:type
           rdf:resource="http://purl.org/dc/dcmitype/StillImage" />
        <dc:title>LogoMozillaHonduras</dc:title>
        <cc:license
           rdf:resource="http://creativecommons.org/licenses/by-nd/4.0/" />
        <dc:creator>
          <cc:Agent>
            <dc:title>KarlaLHdz</dc:title>
          </cc:Agent>
        </dc:creator>
        <dc:source>Mozilla El Salvador</dc:source>
        <dc:description>Hecho para Mozilla Centroamerica en el año 2017</dc:description>
      </cc:Work>
      <cc:License
         rdf:about="http://creativecommons.org/licenses/by-nd/4.0/">
        <cc:permits
           rdf:resource="http://creativecommons.org/ns#Reproduction" />
        <cc:permits
           rdf:resource="http://creativecommons.org/ns#Distribution" />
        <cc:requires
           rdf:resource="http://creativecommons.org/ns#Notice" />
        <cc:requires
           rdf:resource="http://creativecommons.org/ns#Attribution" />
      </cc:License>
    </rdf:RDF>
  </metadata>
  <defs
     id="defs6" />
  <sodipodi:namedview
     pagecolor="#ffffff"
     bordercolor="#666666"
     borderopacity="1"
     objecttolerance="10"
     gridtolerance="10"
     guidetolerance="10"
     inkscape:pageopacity="0"
     inkscape:pageshadow="2"
     inkscape:window-width="1366"
     inkscape:window-height="708"
     id="namedview4"
     showgrid="false"
     showborder="true"
     inkscape:zoom="0.62816779"
     inkscape:cx="519.9652"
     inkscape:cy="398.77879"
     inkscape:window-x="0"
     inkscape:window-y="0"
     inkscape:window-maximized="1"
     inkscape:current-layer="layer2"
     borderlayer="true"
     inkscape:showpageshadow="false"
     units="px"
     showguides="true"
     fit-margin-top="100"
     fit-margin-left="100"
     fit-margin-right="100"
     fit-margin-bottom="100"
     inkscape:guide-bbox="true" />
  <g
     inkscape:groupmode="layer"
     id="layer2"
     inkscape:label="Layer 2"
     style="opacity:1"
     transform="translate(-41.54831,387.95176)">
    <rect
       style="opacity:1;fill:#0055d4;fill-opacity:1;stroke:none;stroke-width:2.74499345;stroke-linecap:round;stroke-linejoin:round;stroke-miterlimit:4;stroke-dasharray:none;stroke-opacity:1;paint-order:stroke markers fill"
       id="rect4489"
       width="635.04407"
       height="112.28425"
       x="282.00345"
       y="95.056343" />
    <rect
       x="524.21808"
       id="rect4"
       height="112.28382"
       width="392.82971"
       y="-32.503437"
       style="opacity:1;stroke-width:1.09119368" />
    <path
       style="opacity:1;fill:#ffffff;stroke-width:1.09119368"
       inkscape:connector-curvature="0"
       id="path6"
       d="m 899.37049,48.135791 c -0.76378,0.218238 -1.41849,0.327358 -2.0732,0.327358 -2.29157,0 -3.38276,-0.982074 -3.38276,-3.819179 V 23.365694 c 0,-11.239294 -8.9478,-16.6952623 -19.53231,-16.6952623 -8.07489,0 -12.43965,0.9820739 -21.06009,4.4738933 l -1.74591,11.348415 11.2393,1.200313 1.63679,-5.565088 c 2.29151,-1.200314 4.583,-1.418552 7.52928,-1.418552 7.96565,0 8.07483,6.001565 8.07483,11.021056 v 1.636791 c -2.5098,-0.327358 -5.3469,-0.436478 -8.07483,-0.436478 -11.23935,0 -22.91511,2.837103 -22.91511,14.949354 0,10.257219 8.07483,14.076397 15.16758,14.076397 7.96577,0 12.98526,-4.801252 15.82236,-9.820742 0.65471,6.001564 4.2556,9.820742 10.80276,9.820742 3.05535,0 6.21986,-0.872954 8.83873,-2.291506 z m -30.11695,-0.327358 c -4.25564,0 -5.7833,-2.509746 -5.7833,-5.674208 0,-5.346849 4.36482,-6.765401 9.38431,-6.765401 2.29144,0 4.80125,0.327358 7.09269,0.654716 -0.32729,8.183954 -5.6742,11.784893 -10.6937,11.784893 z M 850.3759,-18.208784 829.09762,56.756221 h -13.85816 l 21.27827,-74.965005 z m -28.58928,0 -21.27828,74.965005 h -13.85816 l 21.27828,-74.965005 z M 762.86217,7.6525056 h 14.73111 V 25.329843 h -14.73111 z m 0,31.5354974 h 14.73111 v 17.677336 h -14.73111 z m -21.49653,-0.654717 11.13019,1.091194 -3.05535,17.240859 h -42.88392 l -1.41855,-7.420116 27.0616,-31.09902 h -15.38582 l -2.1824,7.638356 -10.1481,-1.091194 1.74592,-17.2408594 h 43.10216 l 1.09119,7.4201164 -27.27986,31.09902 h 15.93143 z m -70.382,-31.8628543 c -17.67733,0 -26.40688,11.8940113 -26.40688,26.2977673 0,15.713188 10.47546,24.988334 25.64305,24.988334 15.71319,0 27.0616,-9.929862 27.0616,-25.64305 0,-13.74904 -8.62043,-25.6430513 -26.29777,-25.6430513 z m -0.32735,40.3741653 c -7.63836,0 -11.56665,-6.547162 -11.56665,-15.058472 0,-9.275147 4.47389,-14.621996 11.67577,-14.621996 6.65628,0 12.00313,4.473895 12.00313,14.403756 0,9.493386 -4.80125,15.276712 -12.11225,15.276712 z m -38.73738,-0.982075 h 6.54716 V 56.756221 H 617.95164 V 29.14902 c 0,-8.51131 -2.83711,-11.784891 -8.4022,-11.784891 -6.7654,0 -9.49338,4.801253 -9.49338,11.675773 v 17.13174 h 6.54716 V 56.865339 H 585.97966 V 29.14902 c 0,-8.51131 -2.8371,-11.784891 -8.40219,-11.784891 -6.7654,0 -9.49338,4.801253 -9.49338,11.675773 v 17.13174 h 9.38427 V 56.865339 H 547.56964 V 46.171642 h 6.54716 V 18.346203 h -6.54716 V 7.6525056 h 20.62356 v 7.4201164 c 2.94623,-5.237729 8.07483,-8.4021903 14.94936,-8.4021903 7.09276,0 13.63992,3.3826993 16.04054,10.5845773 2.72799,-6.547161 8.29307,-10.5845773 16.04055,-10.5845773 8.83867,0 16.91351,5.3468483 16.91351,17.0226213 v 22.369469 z"
       class="st0" />
    <text
       xml:space="preserve"
       style="font-style:normal;font-weight:normal;font-size:95.39891815px;line-height:1;font-family:sans-serif;text-align:center;letter-spacing:0px;word-spacing:0px;text-anchor:middle;fill:#ffffff;fill-opacity:1;stroke:none;stroke-width:10.22131062"
       x="902.94141"
       y="177.02899"
       id="text4512"><tspan
         sodipodi:role="line"
         id="tspan4510"
         x="902.94141"
         y="177.02899"
         style="font-style:normal;font-variant:normal;font-weight:normal;font-stretch:normal;font-family:'Zilla Slab';-inkscape-font-specification:'Zilla Slab';text-align:end;text-anchor:end;fill:#ffffff;stroke-width:10.22131062">nicaragua</tspan></text>
    <path
       style="display:inline;opacity:1;fill:#808080;fill-opacity:1;fill-rule:nonzero;stroke:none;stroke-width:2.89264607;stroke-linecap:round;stroke-linejoin:round;stroke-miterlimit:4;stroke-dasharray:none;stroke-dashoffset:0;stroke-opacity:1"
       d="m 626.61705,-290.16479 c -1.29107,0.23438 -6.73271,7.21115 -8.87316,9.94469 -6.29224,8.03594 -15.98954,28.76272 -15.98954,28.76272 0,0 9.41743,-20.68418 12.82057,-30.55802 2.11458,-6.13509 -8.14597,9.52304 -11.44915,14.93937 -3.81167,6.25021 -9.53296,20.05643 -9.53296,20.05643 0,0 4.77475,-15.77273 6.93704,-24.0715 1.59124,-6.10715 -8.29714,8.98634 -10.75147,14.6982 -3.08802,7.18669 -5.40311,12.84878 -6.37726,14.63045 -0.9741,1.78168 6.13522,-22.79078 2.36361,-15.84404 -4.29718,7.91477 -11.50819,29.12054 -12.7991,30.72273 -1.29091,1.60223 -0.52837,-4.58117 -1.78183,-12.67702 -1.19249,-7.70236 -6.27543,10.27556 -9.44911,20.31507 -0.85458,2.70332 -0.64614,-10.71752 -2.23114,-8.47627 -3.86597,5.4666 -1.94959,11.36526 -5.42621,15.17077 -2.68584,2.94006 -8.13437,1.46774 -10.67754,4.55807 -1.58821,1.92993 -0.84152,6.50216 -1.93181,7.60189 -3.20748,3.23524 -12.30445,5.12048 -12.30445,5.12048 0,0 -10.18536,1.10264 -13.80498,4.48454 -1.38798,1.29686 -0.9081,4.25274 -2.37418,5.44345 -1.76849,1.43633 -4.7173,-0.099 -6.61432,1.13182 -3.50827,2.27609 -4.42523,7.62155 -7.40949,10.65219 -8.99144,9.131 -21.66696,13.1165 -30.90073,21.95312 -5.98734,5.72989 -9.96199,13.63321 -15.55425,19.82448 -4.24436,4.699 -16.61765,7.01015 -13.60447,13.08336 1.27192,2.56371 9.51924,-4.81246 7.63191,-1.19178 -3.00863,5.77178 -9.80472,8.87663 -11.59847,15.27854 -1.48614,5.30434 1.33312,16.879674 1.33312,16.879674 1e-5,-1.7e-5 -32.17253,6.431398 -46.14985,14.796464 -12.91041,7.726561 -33.17345,31.696701 -33.17345,31.696701 0,0 -41.86626,0.221276 -61.84069,5.483292 -9.38388,2.472084 -26.59963,12.085817 -26.59963,12.085817 0,0 13.26334,1.265279 13.51757,6.596407 0.44947,9.4250107 -9.86897,3.850069 -22.77447,11.9181751 -5.19978,3.2507415 23.70013,-1.432353 18.32205,1.4695624 -9.98333,5.3868477 -12.09646,3.84427114 -19.15789,9.5133556 -2.60245,2.0892896 8.13355,2.7593003 8.2774,6.3861989 0.50384,12.702097 -38.73398,22.560621 -27.22254,22.12602 27.26964,-1.029568 44.62975,-8.948028 65.8694,-16.99053 17.86929,-6.766328 32.25993,-24.2417449 51.27767,-26.1063629 7.36902,-0.7225257 14.43637,5.2362173 21.86514,6.024208 3.73487,0.3961831 11.15907,-0.6791181 11.15907,-0.6791181 0,0 -10.86422,1.8374794 -14.39758,5.844024 -1.99487,2.2620129 -1.13532,6.4419843 -2.75862,9.044463 -2.39592,3.840836 -8.33743,4.470636 -9.79398,8.877454 -0.30989,0.937465 1.30354,2.649623 0.4619,3.018679 -5.03445,2.207933 -12.20977,2.444467 -19.22105,10.112519 -1.26686,1.385475 4.5387,3.63315 4.5387,3.63315 l 25.19616,-5.241791 c 0,0 -26.12864,5.91535 -35.03428,15.576771 -1.7032,1.847732 -4.26421,5.091727 -2.79727,7.325831 2.03431,3.098112 10.1438,-0.61785 10.1438,-0.61785 0,0 -6.85982,4.92155 -8.23026,8.914227 -0.80646,2.349553 -1.80213,8.308936 0.41302,7.660432 6.47479,-1.895542 15.34973,-5.306138 15.34973,-5.306138 0,0 -16.93655,6.790336 -18.86864,15.19282 -0.56047,2.43747 0.58105,7.620637 2.82477,7.114295 8.25404,-1.862636 16.97491,-5.867922 16.97491,-5.867922 0,0 -10.0056,7.943596 -17.80868,13.66965 -2.78157,2.041187 -2.33495,12.586562 0.81174,11.278342 6.67081,-2.7734 20.61711,-10.593036 20.61711,-10.593036 0,0 -9.13147,9.595606 -21.34517,19.514926 -2.7831,2.26029 -3.44405,8.74269 -0.90066,11.58261 1.03411,1.15472 4.28974,-0.32821 4.28974,-0.32821 l 35.10287,-19.3583 -28.89468,24.14839 c 0,0 -6.89752,7.62428 -5.0434,11.57038 0.79403,1.68987 5.02834,1.15035 5.02834,1.15035 l 22.37682,-15.5385 -22.51553,26.27832 c 0,0 -2.13492,4.24704 -0.80981,5.48209 1.996,1.86031 7.1264,-2.75108 7.1264,-2.75108 l 17.86012,-14.60063 -21.4614,21.04557 c 0,0 -6.64225,7.10069 -4.44808,10.20789 0.83396,1.18086 3.88835,-0.7668 3.88835,-0.7668 l 23.01462,-18.35795 -19.38109,19.99267 c 0,0 -15.65234,11.61003 -11.9181,18.27988 1.21164,2.1641 6.69877,-0.87135 6.69877,-0.87135 l 12.73847,-13.36132 -17.48016,21.06959 c 0,0 -3.67741,5.66432 -1.93125,7.60379 1.42619,1.58402 5.66619,-1.66901 5.66619,-1.66901 l 18.25739,-17.87227 -20.14569,24.01477 c -2e-5,0 -9.60268,11.99557 -5.78731,16.45029 1.61992,1.89139 6.51085,-2.25071 6.51085,-2.25071 l 25.03236,-28.88243 -22.79426,30.99953 c 0,0 -8.50007,9.84048 -5.08756,13.02788 2.66731,2.49136 8.37693,-6.07415 8.37693,-6.07415 l 27.57698,-34.65767 -20.40931,30.44587 c 0,0 -11.34694,16.59649 -5.68593,20.75031 5.02287,3.68561 12.98892,-12.58297 12.98892,-12.58297 l 23.92921,-39.29789 c 0,0 -15.40516,29.21721 -18.23084,45.70859 -0.44492,2.59528 -1.96892,6.85069 0.26599,8.00099 3.44563,1.77343 6.71778,-4.21327 8.3029,-7.84981 7.87832,-18.07408 24.82583,-52.62583 24.82583,-52.62583 0,0 -12.91951,33.63228 -16.1069,53.14712 -0.53744,3.29042 -0.66552,8.54236 2.18584,9.93627 2.04439,0.99941 4.09489,-1.90355 5.5408,-3.64943 8.12323,-9.8083 15.72173,-36.06816 15.72173,-36.06816 0,0 7.78179,-28.31564 12.76956,-41.98172 7.17182,-19.64998 18.46778,-37.22494 24.5989,-57.34221 5.21365,-17.10696 10.97252,-34.899271 10.16206,-53.218699 -1.06011,-23.962206 -16.49787,-45.701789 -19.44903,-69.5706071 -0.91197,-7.3760319 0.6138,-22.1459239 0.6138,-22.1459239 l 18.12222,-12.186762 -1.94101,-15.254556 c 0,0 -7.8008,1.473672 -11.64868,2.437604 -3.65976,0.916599 -10.86541,3.178702 -10.86541,3.178702 0,0 1.55142,-6.574806 2.55839,-9.957691 1.43034,-4.805199 5.66565,-12.537063 5.66565,-12.537063 l -3.61162,-0.773212 c 0,0 6.67142,-22.125888 13.74792,-30.183732 5.69005,-6.47918 13.80914,-10.11572 21.65514,-12.97764 6.39955,-2.33429 20.16514,-3.21297 20.16514,-3.21297 0,0 18.16103,-14.55443 27.39083,-21.60689 16.92545,-12.93268 35.32952,-23.69104 51.31235,-37.96695 7.63022,-6.81535 14.93677,-14.20822 21.11577,-22.61611 7.19978,-9.79688 11.56343,-21.86729 18.31662,-32.05063 9.8173,-14.80379 23.70123,-26.20266 32.14822,-42.03413 2.14402,-4.01838 4.74364,-10.63521 4.5379,-13.1297 -0.25764,-3.12362 -4.78108,3.19722 -6.83215,5.25257 -3.81535,3.8232 -6.62988,8.70676 -10.0102,12.99761 -5.52365,7.0115 -16.78246,20.82842 -16.78246,20.82842 0,0 9.77992,-13.59228 13.88755,-20.98442 2.91546,-5.24676 5.62807,-10.69803 7.58417,-16.49412 0.61054,-1.80907 1.23457,-2.8584 1.27333,-5.64021 0.0404,-2.8972 -4.77339,2.50274 -6.53482,4.57035 -4.44107,5.21314 -6.72076,12.61905 -10.21287,18.66028 -4.00836,6.93439 -10.33524,14.96789 -10.33524,14.96789 0,0 6.14449,-10.73401 9.79669,-18.92998 2.39123,-5.3662 4.71332,-10.13946 6.56951,-16.43096 0.23574,-0.79915 0.1587,-1.10385 -0.13933,-1.04979 z M 100.84548,2.9196025 c -1.370712,0.5093892 -2.703816,1.113675 -3.97851,1.8098639 -0.984861,0.537895 -2.111094,1.6514718 -2.838675,2.7992917 -0.917865,1.4480243 -2.209688,3.2416559 -1.793137,4.9465809 0.249421,1.020236 1.895664,1.040439 2.261983,2.02273 0.596053,1.598542 -1.116752,3.403731 -0.580421,5.024936 0.879232,2.657553 5.631559,5.908965 5.631559,5.908965 0,0 -6.809696,-2.279826 -7.896935,-5.461725 -0.260687,-0.76272 0.744844,-1.45098 0.67494,-2.252888 -0.136576,-1.566807 -2.07053,-2.654784 -2.071176,-4.221677 -7.18e-4,-1.989537 1.173407,-4.4519091 2.469753,-6.5974991 -5.170157,2.7214844 -10.701175,6.1545341 -9.93989,11.6612311 0.92446,6.687106 10.434692,8.505199 16.501047,9.656652 4.031712,0.765223 8.254092,-0.385725 11.940512,-2.070295 7.81225,-3.569924 20.31884,-16.4625045 20.31884,-16.4625045 L 253.17699,-24.465087 c 1.02746,-1.157015 1.36908,-1.948804 4.765,-4.367922 -4e-5,8e-6 -108.14785,28.93325337 -127.21646,35.9467132 0,0 -11.08291,-5.6884882 -16.94826,-6.0927611 -4.35411,-0.3000964 -8.81966,0.3702251 -12.93179,1.8986594 z M 476.00975,-112.80174 c -6.13493,2.16722 -11.92314,5.34179 -16.81626,9.63177 -7.71908,6.767516 -16.24042,27.287522 -16.24042,27.287522 l 6.04363,1.089169 c -10.60638,9.446229 -8.67768,14.560455 -11.45722,21.301038 7.57795,-2.214053 15.17739,-4.494698 21.43258,-2.496438 l 1.82535,11.217618 c 0,0 9.65455,-9.791339 15.31516,-13.387132 4.9744,-3.160195 16.09099,-7.006723 16.09099,-7.006723 0,0 -10.1146,5.101045 -14.48575,8.765302 -7.13245,5.979026 -11.78001,14.978611 -18.72691,21.210855 -4.70546,4.221407 -15.37572,10.807004 -15.37572,10.807004 -1.97348,13.581941 -0.75086,25.8605478 4.01479,37.913687 0,0 27.82912,-10.1516397 37.95627,-20.9240779 6.71519,-7.1430921 8.63069,-18.8431191 13.42996,-27.1830001 7.2348,-12.572284 17.83157,-19.806528 24.23321,-32.941267 2.86824,-5.885 5.24754,-16.568091 5.24754,-16.568091 0,0 -5.82712,-1.939283 -8.22816,-0.606961 -7.90008,4.383773 -6.58654,17.204646 -13.95506,24.763464 -6.51553,6.683819 -20.98399,18.235439 -20.98399,18.235439 l 13.39754,-27.717645 c 0,0 -9.22481,-5.017902 -13.63448,-5.722568 -6.27062,-1.002055 -18.34806,4.031279 -18.34806,4.031279 0,0 6.4784,-8.974916 10.98025,-11.598873 4.013,-2.339058 13.44448,-3.203074 13.44448,-3.203074 0,0 6.79489,-6.129024 11.01909,-6.697814 2.48133,-0.334096 7.39382,2.066783 7.39382,2.066783 l 10.78363,-6.618515 c 0,0 12.25417,-8.814851 8.46778,-12.174671 -8.81791,-7.82445 -25.47219,-8.09041 -38.13705,-6.75609 -4.9336,0.51979 -9.91532,1.59652 -14.68697,3.28212 z m -213.38053,74.568279 c 0,0 9.67511,7.868969 6.52254,7.880838 -7.31664,0.0276 -11.32338,3.446378 -14.62562,8.223735 -1.63096,2.359438 -1.67688,8.817439 -1.67688,8.817439 0,0 -11.05388,4.480629 -13.56325,9.7563617 -1.25923,2.64739133 1.24869,6.41489 0.12866,9.1421895 -1.49173,3.6321792 -8.30205,7.6206688 -8.30205,7.6206688 0,0 5.00335,6.597585 4.78448,10.383639 -0.3645,6.304264 -9.84002,15.122099 -9.84002,15.122099 0,0 3.09844,-1.024104 4.49594,-1.871218 14.74541,-8.937806 35.11737,-27.2566908 30.7694,-24.890886 -1.06562,0.579828 -11.39435,-3.6628458 -11.39435,-3.6628458 l 13.8399,-8.90311658 -11.88129,-2.54558662 c 0,0 13.50757,-9.486753 27.42076,-14.229704 5.71821,-1.949227 -17.45889,-6.636305 -17.45889,-6.636305 l 30.08402,-13.884405 -20.7071,-2.660469 z m 271.06085,-67.281269 c 0,0 -4.67261,7.251328 -5.04232,11.567932 -0.23949,2.795987 1.91408,8.298271 1.91408,8.298271 0,0 4.81781,-1.12193 7.06101,-2.153301 5.73127,-2.633579 16.09361,-10.185982 16.09361,-10.185982 l -13.19232,3.980937 -9.02508,1.67551 c 0,0 6.98485,-2.560894 10.31704,-3.276751 8.18142,-1.75769 24.14165,-6.901036 24.14165,-6.901036 z m -3.91756,2.61806 c 0,0 -0.20096,0.29877 -0.27543,0.40322 0.18769,-0.21257 0.30392,-0.36899 0.27543,-0.40322 z m -0.27543,0.40322 c -1.70821,1.93389 -11.7287,10.500295 -18.57881,12.928201 -2.18926,0.775992 1.29925,5.368681 0.25015,7.546668 -1.54,3.197249 -5.1121,5.158997 -8.41724,5.63676 -3.10016,0.448095 -7.05627,-0.175159 -9.20696,-2.815095 -1.13535,-1.393569 1.24651,-5.716411 -0.79203,-5.451071 -6.43431,0.837564 -10.07317,1.095434 -14.51547,3.382415 -2.20824,1.136822 -5.70802,4.970956 -5.70802,4.970956 l -2.75304,2.043354 c 0,0 8.36905,-4.26385 12.88125,-3.909104 6.45141,0.507241 18.1119,8.459511 18.1119,8.459511 l -7.5549,17.332098 c 0,0 7.94889,-6.261324 11.03549,-10.356316 3.40078,-4.511797 5.01899,-10.407914 7.97277,-15.29532 1.8211,-3.013217 3.08688,-6.893946 5.98868,-8.613822 2.74981,-1.629778 8.09044,2.247798 9.49004,-0.826414 0.72977,-1.602915 -2.46428,-3.016465 -2.5456,-4.844908 -0.16108,-3.623573 3.61452,-9.154063 4.34179,-10.187913 z M 82.240628,54.173757 c -0.590365,0.193855 -1.169175,0.422453 -1.734027,0.689719 -0.96949,0.458701 -2.010045,0.975821 -3.066117,1.52386 -2.35978,2.75241 -4.647962,6.235326 -4.353405,9.161181 0.167686,1.665948 2.987194,1.91559 3.360592,3.551287 0.213122,0.93202 -1.045447,1.715323 -0.848448,2.650823 0.525146,2.493424 4.925262,5.590475 4.925262,5.590475 0,0 -6.015722,-2.749054 -6.779299,-5.734718 -0.130449,-0.509558 0.581693,-0.899305 0.543982,-1.422462 -0.126782,-1.759851 -2.603554,-2.881196 -2.506558,-4.631681 0.159343,-2.874986 2.469295,-6.111354 4.875205,-8.745296 -5.489226,2.949854 -11.211913,7.153973 -10.83806,13.254436 0.273743,4.464486 5.824671,7.139256 9.732152,8.555718 6.915024,2.506733 14.710285,1.234932 21.459733,-1.120302 6.81387,-2.377688 17.8917,-12.671795 17.8917,-12.671795 L 230.68017,28.900704 c 1.43372,-0.995475 2.47963,-2.414786 2.61268,-4.835211 L 114.16039,60.64383 c 0,0 -12.25347,-5.918259 -18.720115,-6.84691 -4.367909,-0.627249 -9.066194,-0.977404 -13.199645,0.376908 z M 500.82087,-89.239909 a 5.5976023,7.260708 69.304596 0 0 -5.13365,7.698898 5.5976023,7.260708 69.304596 0 0 8.58757,2.955729 5.5976023,7.260708 69.304596 0 0 5.13361,-7.698919 5.5976023,7.260708 69.304596 0 0 -8.58753,-2.955708 z"
       id="path4175"
       inkscape:connector-curvature="0" />
  </g>
</svg>
