<?xml version="1.0" encoding="UTF-8" standalone="no"?>
<!-- Created with Inkscape (http://www.inkscape.org/) -->

<svg
   xmlns:dc="http://purl.org/dc/elements/1.1/"
   xmlns:cc="http://creativecommons.org/ns#"
   xmlns:rdf="http://www.w3.org/1999/02/22-rdf-syntax-ns#"
   xmlns:svg="http://www.w3.org/2000/svg"
   xmlns="http://www.w3.org/2000/svg"
   xmlns:sodipodi="http://sodipodi.sourceforge.net/DTD/sodipodi-0.dtd"
   xmlns:inkscape="http://www.inkscape.org/namespaces/inkscape"
   id="svg2"
   version="1.1"
   inkscape:version="0.92.2 (unknown)"
   width="967.33325"
   height="823.0285"
   viewBox="0 0 906.87496 771.5892"
   sodipodi:docname="logoNI_MozillaCOLOR.svg"
   inkscape:export-filename="/home/keik/Escritorio/IMAGEN MOZILLA CENTROAMERICA/Nicaragua/LogoNi_MozillaCOLOR.png"
   inkscape:export-xdpi="100"
   inkscape:export-ydpi="100">
  <title
     id="title4536">LogoMozillaHonduras</title>
  <metadata
     id="metadata8">
    <rdf:RDF>
      <cc:Work
         rdf:about="">
        <dc:format>image/svg+xml</dc:format>
        <dc:type
           rdf:resource="http://purl.org/dc/dcmitype/StillImage" />
        <dc:title>LogoMozillaHonduras</dc:title>
        <cc:license
           rdf:resource="http://creativecommons.org/licenses/by-nd/4.0/" />
        <dc:creator>
          <cc:Agent>
            <dc:title>KarlaLHdz</dc:title>
          </cc:Agent>
        </dc:creator>
        <dc:source>Mozilla El Salvador</dc:source>
        <dc:description>Hecho para Mozilla Centroamerica en el año 2017</dc:description>
      </cc:Work>
      <cc:License
         rdf:about="http://creativecommons.org/licenses/by-nd/4.0/">
        <cc:permits
           rdf:resource="http://creativecommons.org/ns#Reproduction" />
        <cc:permits
           rdf:resource="http://creativecommons.org/ns#Distribution" />
        <cc:requires
           rdf:resource="http://creativecommons.org/ns#Notice" />
        <cc:requires
           rdf:resource="http://creativecommons.org/ns#Attribution" />
      </cc:License>
    </rdf:RDF>
  </metadata>
  <defs
     id="defs6" />
  <sodipodi:namedview
     pagecolor="#ffffff"
     bordercolor="#666666"
     borderopacity="1"
     objecttolerance="10"
     gridtolerance="10"
     guidetolerance="10"
     inkscape:pageopacity="0"
     inkscape:pageshadow="2"
     inkscape:window-width="1366"
     inkscape:window-height="708"
     id="namedview4"
     showgrid="false"
     showborder="true"
     inkscape:zoom="0.62816779"
     inkscape:cx="213.51841"
     inkscape:cy="392.41106"
     inkscape:window-x="0"
     inkscape:window-y="0"
     inkscape:window-maximized="1"
     inkscape:current-layer="layer2"
     borderlayer="true"
     inkscape:showpageshadow="false"
     units="px"
     showguides="true"
     fit-margin-top="100"
     fit-margin-left="100"
     fit-margin-right="100"
     fit-margin-bottom="100"
     inkscape:guide-bbox="true" />
  <g
     inkscape:groupmode="layer"
     id="layer2"
     inkscape:label="Layer 2"
     style="opacity:1"
     transform="translate(-41.54831,387.95176)">
    <path
       style="display:inline;opacity:1;fill:#808080;fill-opacity:1;fill-rule:nonzero;stroke:none;stroke-width:3.73242021;stroke-linecap:round;stroke-linejoin:round;stroke-miterlimit:4;stroke-dasharray:none;stroke-dashoffset:0;stroke-opacity:1"
       d="m 891.24519,-305.26282 c -1.65754,-0.20282 -10.88034,6.43511 -14.5041,9.03267 -10.65274,7.63625 -30.18566,29.8419 -30.18566,29.8419 0,0 19.17669,-22.25989 27.00251,-33.30563 4.86263,-6.86324 -13.46232,8.78452 -19.50193,14.29183 -6.96933,6.35518 -19.08272,21.4301 -19.08272,21.4301 0,0 11.69675,-17.89894 17.42542,-27.45085 4.21578,-7.02935 -13.44572,8.05497 -18.56343,14.25816 -6.4391,7.80488 -11.36891,13.9993 -13.2189,15.85407 -1.84993,1.85483 15.9721,-26.15658 8.79132,-18.91456 -8.18139,8.25121 -24.86975,32.01142 -27.03791,33.51994 -2.16817,1.50859 1.06833,-5.93459 2.56753,-16.54505 1.42638,-10.09473 -11.4687,10.44474 -19.07737,21.78592 -2.04878,3.05382 3.21678,-13.65712 0.45235,-11.46205 -6.74275,5.35394 -6.61524,13.47018 -12.26416,16.8955 -4.3641,2.64638 -10.43991,-1.28913 -14.68663,1.60008 -2.6521,1.80434 -3.45161,7.81163 -5.18816,8.7686 -5.10866,2.81526 -16.87509,1.67862 -16.87509,1.67862 0,0 -12.79766,-2.53395 -18.46228,0.30644 -2.17218,1.08922 -2.6925,4.97175 -4.92002,5.89817 -2.68697,1.11751 -5.69949,-1.93638 -8.46601,-1.12537 -5.11624,1.49969 -8.22761,7.83516 -12.98843,10.48021 -14.34405,7.9692 -31.2465,8.08525 -45.77528,15.59303 -9.42077,4.86826 -17.20568,13.22907 -26.31831,18.82636 -6.91622,4.24821 -22.82584,2.38559 -21.42974,11.14161 0.58927,3.69622 13.37308,-2.36339 9.72583,1.44134 -5.81414,6.06517 -15.23804,7.33846 -19.81017,14.65879 -3.78815,6.06534 -4.68268,21.63066 -4.68268,21.63066 1e-5,-2e-5 -41.52517,-4.31511 -61.64626,0.7801 -18.58521,4.70631 -52.17785,26.910147 -52.17785,26.910147 0,0 -50.99399,-15.809277 -77.24899,-16.900587 -12.33446,-0.51267 -36.85995,4.90047 -36.85995,4.90047 0,0 15.65633,6.67914 13.97455,13.446686 -2.97326,11.964481 -13.43899,1.024966 -32.14578,6.160464 -7.53718,2.069165 29.35542,7.314184 21.73168,8.87841 -14.15197,2.903718 -16.14555,0.161853 -26.84974,4.541349 -3.94496,1.614016 8.86031,6.57733 7.68075,11.170274 -4.13099,16.085389 -55.52779,13.343342 -41.36703,17.222604 33.54569,9.189607 57.61362,5.952906 86.44556,4.051635 24.25684,-1.59961 48.28287,-17.934125 72.1057,-12.95986 9.2309,1.927408 15.59981,12.097951 24.33927,15.93815 4.39383,1.930706 13.82358,3.437952 13.82358,3.437952 0,0 -13.89763,-1.87542 -19.69063,1.779624 -3.27062,2.06356 -3.78641,7.62345 -6.73233,10.255739 -4.34794,3.884757 -11.8083,2.389826 -15.22529,7.343621 -0.72694,1.05381 0.59565,3.815841 -0.56566,3.954193 -6.94668,0.828012 -15.76055,-1.633004 -27.15029,5.2667019 -2.05798,1.2466294 4.16244,6.2893806 4.16244,6.2893806 l 32.59732,3.1229416 c 0,0 -33.9828,-2.6385242 -48.42061,6.0272558 -2.76122,1.6573116 -7.08702,4.7319191 -6.13749,8.0906801 1.3168,4.657733 12.56609,3.124514 12.56609,3.124514 0,0 -10.17986,3.521707 -13.33747,7.990451 -1.85816,2.6297 -5.29451,9.703019 -2.35859,9.742784 8.58156,0.116246 20.64762,-0.740824 20.64762,-0.740824 0,0 -23.13155,1.988029 -28.61903,11.758153 -1.59184,2.834211 -2.13938,9.757562 0.77818,9.986155 10.73292,0.841054 22.83372,-0.819237 22.83372,-0.819237 0,0 -15.13388,6.093947 -26.76124,10.259755 -4.14481,1.485014 -7.53993,14.850091 -3.22485,14.422407 9.14777,-0.906754 29.02743,-5.331472 29.02743,-5.331472 0,0 -14.68784,8.496653 -33.24472,16.214056 -4.22851,1.758538 -7.45314,9.614817 -5.42085,14.145127 0.82629,1.84203 5.3391,1.2376 5.3391,1.2376 l 49.91626,-10.732032 -44.15568,19.110352 c 0,0 -11.23507,6.88865 -10.45406,12.53808 0.33449,2.4193 5.68509,3.37124 5.68509,3.37124 L 421.04536,120.01 383.85159,144.23617 c 0,0 -4.18226,4.49325 -3.03209,6.54759 1.73248,3.09437 9.69345,-0.70376 9.69345,-0.70376 l 27.17146,-11.40477 -33.9577,18.08442 c 0,0 -10.72909,6.33166 -9.22128,11.06219 0.57313,1.79783 5.01479,0.53466 5.01479,0.53466 l 34.84277,-14.12511 -31.03472,17.56642 c 0,0 -23.36984,8.51146 -21.31972,18.29102 0.66521,3.17307 8.47143,1.48367 8.47143,1.48367 l 20.48046,-11.82211 -29.12529,19.64417 c 0,0 -6.58729,5.67377 -5.18818,8.7712 1.14276,2.52976 7.51366,0.089 7.51366,0.089 l 28.87638,-15.34533 -33.46659,22.30477 c -3e-5,-1e-5 -16.15714,11.31826 -13.18111,18.3576 1.26353,2.98876 8.75803,-0.31427 8.75803,-0.31427 l 41.22689,-26.51718 -39.29588,30.02586 c 0,0 -14.01149,9.04563 -11.05208,14.34462 2.31317,4.14184 12.45519,-4.38084 12.45519,-4.38084 l 46.47805,-32.76497 -36.18891,30.24954 c 0,0 -19.99649,16.40434 -14.66369,23.77637 4.73162,6.54103 20.49433,-10.75207 20.49433,-10.75207 l 43.77512,-39.972 c 0,0 -29.64476,30.63504 -39.23974,50.18198 -1.51028,3.07606 -4.95273,7.8145 -2.66457,10.11238 3.52776,3.54265 9.74262,-2.69015 13.02829,-6.63084 16.33029,-19.58572 49.84285,-56.30229 49.84285,-56.30229 0,0 -28.27093,37.11388 -39.4349,60.30454 -1.88238,3.91019 -3.9995,10.43177 -1.05268,13.27127 2.11284,2.0359 5.69049,-0.80819 8.10079,-2.43693 13.5412,-9.15017 32.58825,-39.08476 32.58825,-39.08476 0,0 20.0377,-32.43619 31.20676,-47.61762 16.05969,-21.8288 36.3596,-39.47691 51.32827,-62.29022 12.72875,-19.39956 26.37645,-39.447108 32.23241,-62.678236 7.6597,-30.386827 -2.99455,-63.517168 2.33066,-94.513747 1.64564,-9.578676 9.01695,-27.471287 9.01695,-27.471287 l 26.58872,-8.284019 3.33656,-19.831015 c 0,0 -10.0365,-1.153529 -15.0757,-1.426001 -4.79274,-0.259402 -14.39996,-0.197855 -14.39996,-0.197855 0,0 4.342,-7.629741 6.82989,-11.475223 3.53389,-5.462287 11.57174,-13.508427 11.57174,-13.508427 l -4.10314,-2.35507 c 0,0 16.37583,-25.11872 27.99045,-32.48104 9.33906,-5.91994 20.57035,-7.3501 31.18027,-7.91606 8.65392,-0.46159 25.72167,3.72819 25.72167,3.72819 0,0 27.52013,-11.23135 41.37779,-16.50846 25.41196,-9.67708 51.80996,-16.06571 76.57728,-27.78552 11.82395,-5.59505 23.47,-12.03702 34.12393,-20.18214 12.41398,-9.49068 22.22817,-22.91555 34.2434,-33.06132 17.46689,-14.7492 38.60739,-23.67595 54.7917,-40.2374 4.10792,-4.20367 9.74028,-11.48325 10.42166,-14.68319 0.85324,-4.00701 -7.00804,2.16307 -10.26982,3.94647 -6.06744,3.31732 -11.31384,8.34581 -17.02693,12.41534 -9.3355,6.64987 -28.18678,19.61052 -28.18678,19.61052 0,0 16.96899,-13.24783 24.7247,-20.91799 5.50477,-5.4441 10.83926,-11.22202 15.38256,-17.72202 1.41804,-2.02877 2.56878,-3.10184 3.6548,-6.56731 1.13111,-3.60921 -6.73934,1.29715 -9.65349,3.20719 -7.34743,4.81586 -12.88543,13.2056 -19.38813,19.42212 -7.46406,7.13561 -18.158,14.7555 -18.158,14.7555 0,0 11.48067,-11.06861 18.98277,-19.91946 4.91188,-5.79497 9.51826,-10.87466 14.12507,-18.03286 0.58513,-0.90925 0.60524,-1.32006 0.22262,-1.36695 z m -748.81764,164.66733 c -1.85707,0.11063 -3.70387,0.35446 -5.51396,0.73571 -1.39853,0.29455 -3.18394,1.25504 -4.49738,2.41155 -1.65694,1.45897 -3.8977,3.20666 -4.02788,5.49977 -0.0777,1.37226 1.91666,2.03006 1.99528,3.39978 0.12785,2.22898 -2.62916,3.82938 -2.58241,6.06376 0.0767,3.66274 4.6415,9.5566 4.6415,9.5566 0,0 -7.4295,-5.4688 -7.56333,-9.86746 -0.0322,-1.05441 1.44764,-1.52915 1.66212,-2.5593 0.41905,-2.01273 -1.5264,-4.11699 -0.94203,-6.07761 0.74212,-2.48941 3.08951,-5.11901 5.46721,-7.30529 -7.3035,1.41839 -15.31158,3.58836 -16.44235,10.77039 -1.37315,8.72155 9.51276,14.65028 16.45972,18.42172 4.61699,2.50649 10.18142,2.68886 15.2934,1.99769 10.83328,-1.46471 30.85672,-12.78947 30.85672,-12.78947 l 160.66278,4.01052 c 1.68154,-1.05278 2.39266,-1.91215 7.4257,-3.63394 -6e-5,0 -142.31827,-5.3544 -168.12583,-3.9064 0,0 -11.35295,-11.37531 -18.33451,-14.13473 -5.18275,-2.04842 -10.8634,-2.92555 -16.43475,-2.59329 z m 499.43456,-0.63282 c -8.26972,0.35424 -16.49402,2.10201 -24.04641,5.5892 -11.91415,5.50108 -29.93984,27.89987 -29.93984,27.89987 l 6.94258,3.68479 c -16.42561,7.743087 -15.99017,14.882639 -21.88753,22.247912 10.042,0.141611 20.135,0.208168 26.99536,5.111635 l -1.96959,14.735889 c 0,0 15.39703,-8.540571 23.62347,-10.864369 7.22931,-2.042475 22.18413,-2.583643 22.18413,-2.583643 0,0 -14.20486,2.495705 -20.88882,5.400606 -10.90632,4.73998 -19.91892,14.213791 -30.69416,19.341871 -7.29858,3.473509 -22.73356,7.61306 -22.73356,7.61306 -7.4721,16.234323 -10.57086,32.066051 -9.27693,48.9770166 0,0 37.63273,-2.0081979 53.97087,-11.5946524 10.83362,-6.3566842 17.53241,-20.2587912 26.48314,-28.8489462 13.49307,-12.949587 29.08093,-17.928909 41.77087,-31.902315 5.68571,-6.260765 12.56872,-18.712358 12.56872,-18.712358 0,0 -6.36182,-4.665205 -9.77915,-3.92086 -11.24402,2.449195 -14.43474,18.994289 -26.2181,25.620068 -10.41931,5.858797 -32.32769,14.752051 -32.32769,14.752051 l 26.64339,-29.530309 c 0,0 -9.34384,-9.822393 -14.44304,-12.398324 -7.25116,-3.663027 -23.81763,-2.006206 -23.81763,-2.006206 0,0 11.22979,-8.739486 17.68418,-10.292646 5.75353,-1.38452 17.54534,1.15831 17.54534,1.15831 0,0 10.55184,-5.05734 15.90109,-4.14592 3.14218,0.5354 8.21938,5.42669 8.21938,5.42669 l 15.58514,-4.13718 c 0,0 18.19362,-6.32002 14.84394,-11.97838 -7.80091,-13.17738 -27.95399,-19.90914 -43.85337,-23.10592 -6.19361,-1.24529 -12.65374,-1.81228 -19.08579,-1.5368 z m -287.32893,11.30715 c 0,0 8.82669,13.56242 4.98858,12.36597 -8.90769,-2.77672 -15.05685,-0.0389 -20.85667,4.6693 -2.86446,2.32527 -5.33208,10.38734 -5.33208,10.38734 0,0 -15.11538,1.35859 -20.13714,6.994984 -2.51997,2.828362 -0.87723,8.505554 -3.25777,11.487374 -3.17046,3.971119 -12.94166,6.344476 -12.94166,6.344476 0,0 3.6204,10.176763 1.94031,14.829461 -2.79762,7.747316 -17.61338,15.138708 -17.61338,15.138708 0,0 4.15031,-0.09078 6.16609,-0.613652 21.269,-5.516659 52.8836,-20.608267 46.71273,-19.318976 -1.51238,0.315992 -12.48817,-8.960652 -12.48817,-8.960652 l 20.15491,-5.821177 -13.49754,-7.749932 c 0,0 19.96873,-6.679067 38.65912,-7.267242 7.68157,-0.241614 -18.75246,-15.010952 -18.75246,-15.010952 l 41.76883,-5.81193 -24.18726,-11.28477 z m 354.74959,19.97204 c 0,0 -8.39019,7.27692 -10.45183,12.53544 -1.33541,3.40608 -0.77143,11.117532 -0.77143,11.117532 0,0 6.27767,0.447473 9.39068,0.01906 7.95302,-1.092812 23.37462,-6.560255 23.37462,-6.560255 l -17.52918,-0.08821 -11.60067,-1.371415 c 0,0 9.45029,-0.520205 13.76973,-0.135513 10.60542,0.944443 31.93465,0.641865 31.93465,0.641865 z m -5.74169,1.77026 c 0,0 -0.35594,0.29659 -0.48552,0.39865 0.30764,-0.19383 0.50739,-0.34487 0.48552,-0.39865 z m -0.48552,0.39865 c -2.79948,1.76319 -18.18406,8.630621 -27.42083,9.036218 -2.95205,0.129684 -0.42502,7.216052 -2.51417,9.537872 -3.06675,3.408422 -8.14321,4.490305 -12.34085,3.818121 -3.93728,-0.630544 -8.51535,-2.93035 -10.14478,-7.059568 -0.8602,-2.17975 3.65065,-6.672958 1.07259,-7.124241 -8.13723,-1.424342 -12.65856,-2.499872 -18.91469,-1.345432 -3.10988,0.57383 -8.79766,4.026064 -8.79766,4.026064 l -4.11094,1.498688 c 0,0 11.76953,-2.118965 17.1241,0.05851 7.65579,3.113421 18.86567,17.542901 18.86567,17.542901 l -15.65991,18.781682 c 0,0 12.00458,-4.779471 17.28733,-8.716829 5.82048,-4.338113 9.99024,-11.09308 15.4074,-16.072879 3.33986,-3.070167 6.32839,-7.439059 10.49942,-8.475884 3.95254,-0.982484 8.99891,5.920823 11.84897,2.612394 1.48606,-1.725037 -1.87017,-4.720789 -1.2862,-7.039639 1.15735,-4.595398 7.81406,-10.063998 9.08455,-11.078028 z m -602.39359,24.161152 c -0.790317,0.01569 -1.579554,0.07936 -2.366247,0.196656 -1.350247,0.201386 -2.808737,0.44856 -4.297629,0.728451 -3.897516,2.536892 -7.980782,6.015245 -8.715256,9.789005 -0.418242,2.148725 2.91717,3.544383 2.760383,5.7343 -0.08892,1.247952 -1.911904,1.744382 -2.021724,2.990491 -0.292585,3.321339 3.90156,8.886752 3.90156,8.886752 0,0 -6.288761,-5.750788 -6.102284,-9.779584 0.03168,-0.68764 1.043212,-0.901635 1.192736,-1.570654 0.503052,-2.25049 -2.090038,-4.605064 -1.318368,-6.757858 1.267445,-3.535724 5.285111,-6.697241 9.194482,-9.0682 -7.776814,1.58151 -16.305936,4.642542 -18.129557,12.418574 -1.334409,5.690768 4.416876,11.170031 8.639566,14.443546 7.472845,5.793149 17.427218,7.197122 26.514448,6.843767 9.17395,-0.356695 26.48953,-8.979425 26.48953,-8.979425 l 154.20632,-0.460957 c 2.11523,-0.694582 3.91715,-2.068438 4.98288,-5.045551 l -158.53118,-0.01009 c 0,0 -12.69061,-12.112536 -20.20752,-15.759041 -5.07735,-2.463027 -10.65993,-4.706319 -16.19218,-4.600094 z M 663.2343,-102.21664 a 7.3251299,9.2375365 85.924339 0 0 -9.11797,7.659736 7.3251299,9.2375365 85.924339 0 0 9.33906,6.997528 7.3251299,9.2375365 85.924339 0 0 9.11793,-7.65977 7.3251299,9.2375365 85.924339 0 0 -9.33902,-6.997494 z"
       id="path4175"
       inkscape:connector-curvature="0" />
    <g
       style="opacity:1"
       id="g4515"
       transform="matrix(1.2721014,0,0,1.3087863,-139.29933,-236.27093)">
      <rect
         y="166.3864"
         x="599.8244"
         height="131.74529"
         width="231.20776"
         id="rect4489-3"
         style="opacity:1;fill:#0055d4;fill-opacity:1;stroke:none;stroke-width:1.9074316;stroke-linecap:round;stroke-linejoin:round;stroke-miterlimit:4;stroke-dasharray:none;stroke-opacity:1;paint-order:stroke markers fill" />
      <g
         transform="matrix(1.2363301,0,0,1.2363301,-513.54273,146.28707)"
         id="g4491">
        <rect
           x="550.74927"
           id="rect4-6"
           height="106.92123"
           width="374.06848"
           y="16.193968"
           style="opacity:1;stroke-width:1.03907907" />
        <path
           style="opacity:1;fill:#ffffff;stroke-width:1.03907907"
           inkscape:connector-curvature="0"
           id="path6-7"
           d="m 907.98463,96.566727 c -0.7273,0.207819 -1.35075,0.311723 -1.97419,0.311723 -2.18212,0 -3.2212,-0.935168 -3.2212,-3.636774 V 72.979634 c 0,-10.702513 -8.52046,-15.897909 -18.59946,-15.897909 -7.68924,0 -11.84554,0.935171 -20.05428,4.260224 l -1.66252,10.806422 10.70252,1.142988 1.55861,-5.299304 c 2.18207,-1.142987 4.36413,-1.350803 7.16969,-1.350803 7.58522,0 7.68918,5.714935 7.68918,10.494698 v 1.558619 c -2.38993,-0.311723 -5.09153,-0.415631 -7.68918,-0.415631 -10.70256,0 -21.8207,2.701605 -21.8207,14.235383 0,9.767349 7.68918,13.404119 14.44319,13.404119 7.58533,0 12.3651,-4.57195 15.06669,-9.351713 0.62345,5.714943 4.05236,9.351713 10.28683,9.351713 2.90943,0 5.92281,-0.83126 8.4166,-2.18206 z m -28.67858,-0.311722 c -4.0524,0 -5.50711,-2.389881 -5.50711,-5.403211 0,-5.091487 4.15636,-6.44229 8.93613,-6.44229 2.182,0 4.57194,0.311724 6.75395,0.623447 -0.31166,7.793094 -5.40321,11.222054 -10.18297,11.222054 z M 861.32999,33.390723 841.06794,104.77545 h -13.19631 l 20.26204,-71.384727 z m -27.22388,0 -20.26204,71.384727 H 800.64776 L 820.9098,33.390723 Z m -56.11027,24.626173 h 14.02757 v 16.833081 h -14.02757 z m 0,30.029385 h 14.02757 v 16.833079 h -14.02757 z m -20.46987,-0.623448 10.59862,1.039079 -2.90942,16.417448 h -40.83582 l -1.3508,-7.065732 25.76916,-29.613758 H 734.1467 l -2.07817,7.273554 -9.66343,-1.039079 1.66253,-16.417449 h 41.04363 l 1.03908,7.065737 -25.97699,29.613753 h 15.17056 z m -67.0206,-30.341108 c -16.83308,0 -25.14571,11.325962 -25.14571,25.041805 0,14.962738 9.97516,23.79491 24.41836,23.79491 14.96274,0 25.76915,-9.455617 25.76915,-24.418357 0,-13.092396 -8.20872,-24.418358 -25.0418,-24.418358 z m -0.31172,38.445925 c -7.27356,0 -11.01424,-6.234474 -11.01424,-14.339291 0,-8.832172 4.26022,-13.923659 11.11815,-13.923659 6.33838,0 11.42986,4.260224 11.42986,13.715843 0,9.039988 -4.57194,14.547107 -11.53377,14.547107 z m -36.88731,-0.935172 h 6.23448 V 104.77545 H 640.00614 V 78.486753 c 0,-8.104816 -2.70161,-11.222053 -8.00092,-11.222053 -6.44229,0 -9.03998,4.571948 -9.03998,11.118146 v 16.31354 h 6.23447 v 10.182974 h -19.6386 V 78.486753 c 0,-8.104816 -2.7016,-11.222053 -8.0009,-11.222053 -6.44229,0 -9.03999,4.571948 -9.03999,11.118146 v 16.31354 h 8.93608 V 104.87936 H 572.98553 V 94.696386 H 579.22 V 68.19987 h -6.23447 V 58.016896 h 19.6386 v 7.065737 c 2.80551,-4.987579 7.68918,-8.000908 14.23538,-8.000908 6.75402,0 12.98849,3.221145 15.27446,10.079066 2.5977,-6.234473 7.897,-10.079066 15.27446,-10.079066 8.41654,0 16.10573,5.091487 16.10573,16.209634 v 21.301119 z"
           class="st0" />
      </g>
      <text
         id="text4512-5"
         y="282.82849"
         x="729.74506"
         style="font-style:normal;font-weight:normal;font-size:152.50526428px;line-height:1;font-family:sans-serif;text-align:center;letter-spacing:0px;word-spacing:0px;text-anchor:middle;fill:#ffffff;fill-opacity:1;stroke:none;stroke-width:16.33984756"
         xml:space="preserve"><tspan
           style="font-style:normal;font-variant:normal;font-weight:normal;font-stretch:normal;font-family:'Zilla Slab';-inkscape-font-specification:'Zilla Slab';fill:#ffffff;stroke-width:16.33984756"
           y="282.82849"
           x="729.74506"
           id="tspan4510-3"
           sodipodi:role="line">ni</tspan></text>
    </g>
  </g>
</svg>
