<?xml version="1.0" encoding="UTF-8" standalone="no"?>
<!-- Created with Inkscape (http://www.inkscape.org/) -->

<svg
   xmlns:dc="http://purl.org/dc/elements/1.1/"
   xmlns:cc="http://creativecommons.org/ns#"
   xmlns:rdf="http://www.w3.org/1999/02/22-rdf-syntax-ns#"
   xmlns:svg="http://www.w3.org/2000/svg"
   xmlns="http://www.w3.org/2000/svg"
   xmlns:sodipodi="http://sodipodi.sourceforge.net/DTD/sodipodi-0.dtd"
   xmlns:inkscape="http://www.inkscape.org/namespaces/inkscape"
   id="svg2"
   version="1.1"
   inkscape:version="0.92.2 (unknown)"
   width="1340.2804"
   height="685.28052"
   viewBox="0 0 1256.5129 642.4505"
   sodipodi:docname="logoNicaragua_MozillaCOLOR.svg"
   inkscape:export-filename="/media/keik/Datos/GITHUB/logosMozCA/PorPais/Nicaragua/logoNicaragua_MozillaCOLOR.png"
   inkscape:export-xdpi="300"
   inkscape:export-ydpi="300">
  <title
     id="title4536">LogoMozillaHonduras</title>
  <metadata
     id="metadata8">
    <rdf:RDF>
      <cc:Work
         rdf:about="">
        <dc:format>image/svg+xml</dc:format>
        <dc:type
           rdf:resource="http://purl.org/dc/dcmitype/StillImage" />
        <dc:title>LogoMozillaHonduras</dc:title>
        <cc:license
           rdf:resource="http://creativecommons.org/licenses/by-nd/4.0/" />
        <dc:creator>
          <cc:Agent>
            <dc:title>KarlaLHdz</dc:title>
          </cc:Agent>
        </dc:creator>
        <dc:source>Mozilla El Salvador</dc:source>
        <dc:description>Hecho para Mozilla Centroamerica en el año 2017</dc:description>
      </cc:Work>
      <cc:License
         rdf:about="http://creativecommons.org/licenses/by-nd/4.0/">
        <cc:permits
           rdf:resource="http://creativecommons.org/ns#Reproduction" />
        <cc:permits
           rdf:resource="http://creativecommons.org/ns#Distribution" />
        <cc:requires
           rdf:resource="http://creativecommons.org/ns#Notice" />
        <cc:requires
           rdf:resource="http://creativecommons.org/ns#Attribution" />
      </cc:License>
    </rdf:RDF>
  </metadata>
  <defs
     id="defs6" />
  <sodipodi:namedview
     pagecolor="#ffffff"
     bordercolor="#666666"
     borderopacity="1"
     objecttolerance="10"
     gridtolerance="10"
     guidetolerance="10"
     inkscape:pageopacity="0"
     inkscape:pageshadow="2"
     inkscape:window-width="1332"
     inkscape:window-height="715"
     id="namedview4"
     showgrid="false"
     showborder="true"
     inkscape:zoom="0.53794714"
     inkscape:cx="670.1402"
     inkscape:cy="342.64026"
     inkscape:window-x="34"
     inkscape:window-y="0"
     inkscape:window-maximized="1"
     inkscape:current-layer="layer2"
     borderlayer="true"
     inkscape:showpageshadow="false"
     units="px"
     showguides="true"
     fit-margin-top="0"
     fit-margin-left="0"
     fit-margin-right="0"
     fit-margin-bottom="0"
     inkscape:guide-bbox="true"
     inkscape:measure-start="0,0"
     inkscape:measure-end="0,0">
    <sodipodi:guide
       position="1090.1971,627.5121"
       orientation="1,0"
       id="guide1228"
       inkscape:locked="false" />
    <sodipodi:guide
       position="166.31595,476.13455"
       orientation="1,0"
       id="guide1321"
       inkscape:locked="false" />
    <sodipodi:guide
       position="1090.197,476.13455"
       orientation="0,1"
       id="guide1343"
       inkscape:locked="false" />
    <sodipodi:guide
       position="1090.197,166.31595"
       orientation="0,1"
       id="guide1345"
       inkscape:locked="false" />
  </sodipodi:namedview>
  <g
     inkscape:groupmode="layer"
     id="layer2"
     inkscape:label="Layer 2"
     style="opacity:1"
     transform="translate(-29.083954,391.35416)">
    <g
       id="g1034"
       transform="matrix(1.1376263,0,0,1.1376263,-26.892158,-11.686007)">
      <rect
         ry="1.5164651"
         rx="16.224092"
         y="-38.989079"
         x="195.3999"
         height="123.76946"
         width="521.78937"
         id="rect945"
         style="opacity:1;fill:#ffffff;fill-opacity:1;stroke:none;stroke-width:30.83403587;stroke-linecap:round;stroke-linejoin:round;stroke-miterlimit:4;stroke-dasharray:none;stroke-dashoffset:0;stroke-opacity:1;paint-order:stroke markers fill" />
      <g
         aria-label="nicaragua"
         style="font-style:normal;font-weight:normal;font-size:122.21278381px;line-height:1;font-family:sans-serif;text-align:center;letter-spacing:0px;word-spacing:0px;text-anchor:middle;fill:#0055d4;fill-opacity:1;stroke:none;stroke-width:13.09422493"
         id="text4512">
        <path
           style="font-style:normal;font-variant:normal;font-weight:normal;font-stretch:normal;font-family:'Zilla Slab Highlight';-inkscape-font-specification:'Zilla Slab Highlight';fill:#0055d4;fill-opacity:1;stroke-width:15.88942337"
           d="M 177.4043 340.43555 L 177.4043 508.01562 L 261.98242 508.01562 L 265.49414 508.01562 L 306.62109 508.01562 L 374.44531 508.01562 L 445.48633 508.01562 L 507.10742 508.01562 L 578.14648 508.01562 L 609.51367 508.01562 C 602.98841 507.71902 597.20435 505.98993 592.16211 502.82617 C 587.11987 499.66241 583.75888 494.91737 582.07812 488.58984 L 590.38281 484.43555 C 591.27262 487.0061 592.46034 489.18132 593.94336 490.96094 C 595.52524 492.83942 597.25433 494.37218 599.13281 495.55859 C 601.11017 496.745 603.18624 497.58574 605.36133 498.08008 C 607.53641 498.67328 609.7612 498.9707 612.03516 498.9707 C 618.36267 498.9707 623.50428 496.79548 627.45898 492.44531 C 631.51256 488.19401 633.53906 481.9162 633.53906 473.61133 L 633.53906 462.93359 C 631.56171 466.78943 628.69446 470.15042 624.9375 473.01758 C 621.18053 475.88474 616.18763 477.31836 609.95898 477.31836 C 606.00428 477.31836 602.2963 476.62633 598.83594 475.24219 C 595.47444 473.85804 592.51001 471.78196 589.93945 469.01367 C 587.3689 466.24538 585.34043 462.88244 583.85742 458.92773 C 582.3744 454.97303 581.63281 450.3767 581.63281 445.13672 C 581.63281 440.68768 582.17807 436.33724 583.26562 432.08594 C 584.45203 427.73577 586.23069 423.88103 588.60352 420.51953 C 591.0752 417.05917 594.14073 414.28911 597.79883 412.21289 C 601.55579 410.13667 606.00537 409.09961 611.14648 409.09961 C 616.18873 409.09961 620.63635 410.13667 624.49219 412.21289 C 628.34802 414.19024 631.36398 417.05749 633.53906 420.81445 L 633.53906 410.43359 L 654.74609 410.43359 L 654.74609 418.88672 L 644.06836 418.88672 L 644.06836 474.05469 C 644.06836 484.23804 641.34983 492.34603 635.91211 498.37695 C 630.57326 504.40787 622.96097 507.62015 613.07422 508.01562 L 658.89844 508.01562 L 741.63867 508.01562 L 812.76367 508.01562 L 812.76367 340.43555 L 741.63867 340.43555 L 658.89844 340.43555 L 578.14648 340.43555 L 507.10742 340.43555 L 445.48633 340.43555 L 374.44531 340.43555 L 306.62109 340.43555 L 265.49414 340.43555 L 261.98242 340.43555 L 177.4043 340.43555 z M 279.03711 379.88477 L 290.30664 379.88477 L 290.30664 393.37891 L 279.03711 393.37891 L 279.03711 379.88477 z M 228.41992 409.09961 C 231.68255 409.09961 234.69655 409.59336 237.46484 410.58203 C 240.23314 411.57071 242.60663 413.10347 244.58398 415.17969 C 246.6602 417.15704 248.24254 419.72686 249.33008 422.89062 C 250.51649 426.05439 251.10938 429.81194 251.10938 434.16211 L 251.10938 467.97461 L 261.98242 467.97461 L 261.98242 476.42773 L 229.16016 476.42773 L 229.16016 467.97461 L 240.58008 467.97461 L 240.58008 437.27734 C 240.58008 430.15888 239.14645 425.16599 236.2793 422.29883 C 233.41214 419.3328 229.75373 417.84961 225.30469 417.84961 C 222.33866 417.84961 219.62013 418.39293 217.14844 419.48047 C 214.77561 420.56801 212.69954 422.00163 210.91992 423.78125 C 209.23918 425.56087 207.90469 427.63694 206.91602 430.00977 C 205.92734 432.28372 205.38402 434.65722 205.28516 437.12891 L 205.28516 467.97461 L 216.85156 467.97461 L 216.85156 476.42773 L 183.33594 476.42773 L 183.33594 467.97461 L 194.90234 467.97461 L 194.90234 418.88672 L 183.03906 418.88672 L 183.03906 410.43359 L 205.28516 410.43359 L 205.28516 422.15039 C 207.55911 417.99795 210.62268 414.78372 214.47852 412.50977 C 218.43322 410.23581 223.08108 409.09961 228.41992 409.09961 z M 341.07812 409.09961 C 345.52716 409.09961 349.53061 409.59336 353.08984 410.58203 C 356.74794 411.57071 360.25764 413.35132 363.61914 415.92188 L 366.14062 431.78906 L 357.53906 432.82812 L 355.01758 421.70508 C 351.06288 419.23339 346.36741 417.99805 340.92969 417.99805 C 337.37046 417.99805 334.3545 418.69007 331.88281 420.07422 C 329.41112 421.3595 327.38461 423.18773 325.80273 425.56055 C 324.22085 427.93337 323.03313 430.70147 322.24219 433.86523 C 321.55011 436.93013 321.20508 440.2435 321.20508 443.80273 C 321.20508 451.81101 322.93612 458.03924 326.39648 462.48828 C 329.85685 466.83845 334.84779 469.01367 341.37305 469.01367 C 346.51416 469.01367 350.51956 467.58005 353.38672 464.71289 C 356.25388 461.84573 358.18124 457.69357 359.16992 452.25586 L 368.06836 454.18359 C 367.57402 457.05075 366.68372 459.918 365.39844 462.78516 C 364.21203 465.65232 362.48294 468.22214 360.20898 470.49609 C 358.0339 472.67118 355.26579 474.45179 351.9043 475.83594 C 348.64167 477.22008 344.73541 477.91211 340.1875 477.91211 C 330.99282 477.91211 323.67599 474.99529 318.23828 469.16211 C 312.89943 463.32892 310.23047 455.07223 310.23047 444.39453 C 310.23047 439.84662 310.87293 435.44662 312.1582 431.19531 C 313.44348 426.94401 315.37281 423.18841 317.94336 419.92578 C 320.51391 416.66315 323.7262 414.0418 327.58203 412.06445 C 331.43787 410.0871 335.93701 409.09961 341.07812 409.09961 z M 407.66992 409.09961 C 415.38159 409.09961 421.21327 410.92784 425.16797 414.58594 C 429.22153 418.24404 431.25 423.78025 431.25 431.19531 L 431.25 462.63672 C 431.25 467.38236 433.1278 469.75391 436.88477 469.75391 C 438.46664 469.75391 439.94984 469.45844 441.33398 468.86523 L 441.48242 475.6875 C 440.29601 476.37957 438.96153 476.92289 437.47852 477.31836 C 435.9955 477.71383 434.46274 477.91211 432.88086 477.91211 C 429.02502 477.91211 426.05864 476.72438 423.98242 474.35156 C 422.00508 471.97874 420.96605 468.71689 420.86719 464.56445 L 420.86719 464.26758 C 418.79097 467.82681 415.82654 470.98952 411.9707 473.75781 C 408.21373 476.5261 403.66502 477.91211 398.32617 477.91211 C 396.15109 477.91211 393.87673 477.61469 391.50391 477.02148 C 389.13109 476.42828 386.95587 475.43883 384.97852 474.05469 C 383.10003 472.57167 381.51966 470.64431 380.23438 468.27148 C 378.9491 465.89866 378.30469 462.93228 378.30469 459.37305 C 378.30469 455.22061 379.19499 451.85962 380.97461 449.28906 C 382.85309 446.61964 385.22659 444.54356 388.09375 443.06055 C 391.05977 441.47867 394.37119 440.43965 398.0293 439.94531 C 401.68739 439.35211 405.39537 439.05664 409.15234 439.05664 C 411.12969 439.05664 413.10663 439.10621 415.08398 439.20508 C 417.1602 439.30395 419.08757 439.45266 420.86719 439.65039 L 420.86719 433.7168 C 420.86719 428.97115 419.83013 425.11642 417.75391 422.15039 C 415.77655 419.18436 411.82268 417.70117 405.89062 417.70117 C 403.61667 417.70117 401.39188 417.89945 399.2168 418.29492 C 397.14058 418.69039 395.11406 419.38242 393.13672 420.37109 L 390.61523 431.78906 L 382.01367 430.75195 L 384.38672 415.47656 C 387.84708 413.20261 391.50354 411.57071 395.35938 410.58203 C 399.21521 409.59336 403.31975 409.09961 407.66992 409.09961 z M 540.33008 409.09961 C 548.04175 409.09961 553.87342 410.92784 557.82812 414.58594 C 561.88169 418.24404 563.91016 423.78025 563.91016 431.19531 L 563.91016 462.63672 C 563.91016 467.38236 565.78795 469.75391 569.54492 469.75391 C 571.1268 469.75391 572.60999 469.45844 573.99414 468.86523 L 574.14258 475.6875 C 572.95617 476.37957 571.62168 476.92289 570.13867 477.31836 C 568.65566 477.71383 567.1229 477.91211 565.54102 477.91211 C 561.68518 477.91211 558.7188 476.72438 556.64258 474.35156 C 554.66523 471.97874 553.62621 468.71689 553.52734 464.56445 L 553.52734 464.26758 C 551.45112 467.82681 548.48669 470.98952 544.63086 473.75781 C 540.87389 476.5261 536.32517 477.91211 530.98633 477.91211 C 528.81124 477.91211 526.53688 477.61469 524.16406 477.02148 C 521.79124 476.42828 519.61603 475.43883 517.63867 474.05469 C 515.76019 472.57167 514.17981 470.64431 512.89453 468.27148 C 511.60926 465.89866 510.96484 462.93228 510.96484 459.37305 C 510.96484 455.22061 511.85515 451.85962 513.63477 449.28906 C 515.51325 446.61964 517.88675 444.54356 520.75391 443.06055 C 523.71993 441.47867 527.03135 440.43965 530.68945 439.94531 C 534.34755 439.35211 538.05553 439.05664 541.8125 439.05664 C 543.78985 439.05664 545.76679 439.10621 547.74414 439.20508 C 549.82036 439.30395 551.74773 439.45266 553.52734 439.65039 L 553.52734 433.7168 C 553.52734 428.97115 552.49028 425.11642 550.41406 422.15039 C 548.43671 419.18436 544.48283 417.70117 538.55078 417.70117 C 536.27682 417.70117 534.05204 417.89945 531.87695 418.29492 C 529.80073 418.69039 527.77422 419.38242 525.79688 420.37109 L 523.27539 431.78906 L 514.67383 430.75195 L 517.04688 415.47656 C 520.50724 413.20261 524.1637 411.57071 528.01953 410.58203 C 531.87537 409.59336 535.97991 409.09961 540.33008 409.09961 z M 774.94727 409.09961 C 782.65894 409.09961 788.49257 410.92784 792.44727 414.58594 C 796.50083 418.24404 798.52734 423.78025 798.52734 431.19531 L 798.52734 462.63672 C 798.52734 467.38236 800.40514 469.75391 804.16211 469.75391 C 805.74399 469.75391 807.22718 469.45844 808.61133 468.86523 L 808.75977 475.6875 C 807.57335 476.37957 806.23887 476.92289 804.75586 477.31836 C 803.27285 477.71383 801.74009 477.91211 800.1582 477.91211 C 796.30238 477.91211 793.33599 476.72438 791.25977 474.35156 C 789.28241 471.97874 788.24535 468.71689 788.14648 464.56445 L 788.14648 464.26758 C 786.07026 467.82681 783.10388 470.98952 779.24805 473.75781 C 775.49109 476.5261 770.94236 477.91211 765.60352 477.91211 C 763.42842 477.91211 761.15407 477.61469 758.78125 477.02148 C 756.40843 476.42828 754.23321 475.43883 752.25586 474.05469 C 750.37738 472.57167 748.79699 470.64431 747.51172 468.27148 C 746.22644 465.89866 745.58398 462.93228 745.58398 459.37305 C 745.58398 455.22061 746.47234 451.85962 748.25195 449.28906 C 750.13043 446.61964 752.50394 444.54356 755.37109 443.06055 C 758.33713 441.47867 761.64854 440.43965 765.30664 439.94531 C 768.96474 439.35211 772.67272 439.05664 776.42969 439.05664 C 778.40703 439.05664 780.38397 439.10621 782.36133 439.20508 C 784.43755 439.30395 786.36687 439.45266 788.14648 439.65039 L 788.14648 433.7168 C 788.14648 428.97115 787.10747 425.11642 785.03125 422.15039 C 783.0539 419.18436 779.10002 417.70117 773.16797 417.70117 C 770.89401 417.70117 768.66923 417.89945 766.49414 418.29492 C 764.41792 418.69039 762.39141 419.38242 760.41406 420.37109 L 757.89258 431.78906 L 749.29102 430.75195 L 751.66406 415.47656 C 755.12443 413.20261 758.78284 411.57071 762.63867 410.58203 C 766.49451 409.59336 770.5971 409.09961 774.94727 409.09961 z M 485.45508 409.24805 C 487.72904 409.24805 489.75554 409.49394 491.53516 409.98828 C 493.31477 410.38375 495.04581 411.27406 496.72656 412.6582 L 499.24805 429.26758 L 490.79492 430.30664 L 488.27344 419.03516 C 486.59269 418.44195 484.91122 418.14648 483.23047 418.14648 C 479.37463 418.14648 476.16235 419.77643 473.5918 423.03906 C 471.02124 426.20282 469.73633 430.35498 469.73633 435.49609 L 469.73633 467.97461 L 485.01172 467.97461 L 485.01172 476.42773 L 447.78711 476.42773 L 447.78711 467.97461 L 459.35547 467.97461 L 459.35547 418.88672 L 447.49023 418.88672 L 447.49023 410.43359 L 469.14258 410.43359 L 469.14258 422.29883 C 470.42785 418.54186 472.50394 415.42677 475.37109 412.95508 C 478.33713 410.48339 481.69812 409.24805 485.45508 409.24805 z M 268.21094 410.43359 L 290.45508 410.43359 L 290.45508 467.97461 L 302.02344 467.97461 L 302.02344 476.42773 L 268.50781 476.42773 L 268.50781 467.97461 L 280.07422 467.97461 L 280.07422 418.88672 L 268.21094 418.88672 L 268.21094 410.43359 z M 658.89844 410.43359 L 680.09375 410.43359 L 680.09375 449.73438 C 680.09375 456.85284 681.52737 461.84573 684.39453 464.71289 C 687.36056 467.58005 691.21725 469.01367 695.96289 469.01367 C 698.73118 469.01367 701.30101 468.42079 703.67383 467.23438 C 706.04665 466.04796 708.07316 464.5152 709.75391 462.63672 C 711.53352 460.75824 712.91757 458.63259 713.90625 456.25977 C 714.89492 453.88694 715.44019 451.51345 715.53906 449.14062 L 715.53906 418.88672 L 701.74609 418.88672 L 701.74609 410.43359 L 725.91992 410.43359 L 725.91992 467.97461 L 737.7832 467.97461 L 737.7832 476.42773 L 715.53906 476.42773 L 715.53906 463.9707 C 713.46284 468.12314 710.44689 471.48413 706.49219 474.05469 C 702.53749 476.62524 697.88963 477.91211 692.55078 477.91211 C 689.28815 477.91211 686.27414 477.41641 683.50586 476.42773 C 680.73757 475.43906 678.3145 473.95587 676.23828 471.97852 C 674.26093 469.9023 672.6786 467.2829 671.49219 464.11914 C 670.30578 460.95538 669.71289 457.14826 669.71289 452.69922 L 669.71289 418.88672 L 658.89844 418.88672 L 658.89844 410.43359 z M 613.96289 418.14648 C 610.20593 418.14648 606.99365 418.88808 604.32422 420.37109 C 601.6548 421.75524 599.43001 423.68261 597.65039 426.1543 C 595.96964 428.52712 594.7343 431.29522 593.94336 434.45898 C 593.15241 437.62275 592.75586 440.93417 592.75586 444.39453 C 592.75586 448.4481 593.25156 451.9578 594.24023 454.92383 C 595.22891 457.88985 596.61296 460.36249 598.39258 462.33984 C 600.17219 464.31719 602.24827 465.80039 604.62109 466.78906 C 606.99391 467.77774 609.51417 468.27148 612.18359 468.27148 C 615.24848 468.27148 618.06616 467.6786 620.63672 466.49219 C 623.30614 465.30578 625.5805 463.77301 627.45898 461.89453 C 629.33747 459.91718 630.77109 457.74196 631.75977 455.36914 C 632.84731 452.89745 633.4402 450.42677 633.53906 447.95508 L 633.53906 436.53516 C 633.53906 433.76687 632.99575 431.24661 631.9082 428.97266 C 630.91953 426.6987 629.53547 424.76938 627.75586 423.1875 C 625.97624 421.60562 623.90017 420.37028 621.52734 419.48047 C 619.15453 418.59066 616.63232 418.14648 613.96289 418.14648 z M 408.55859 445.87891 C 406.08691 445.87891 403.66579 446.07523 401.29297 446.4707 C 399.01901 446.76731 396.94293 447.36019 395.06445 448.25 C 393.28484 449.13981 391.85121 450.3771 390.76367 451.95898 C 389.67613 453.54087 389.13086 455.61694 389.13086 458.1875 C 389.13086 460.26372 389.47785 462.04238 390.16992 463.52539 C 390.96086 464.90954 391.9503 466.04769 393.13672 466.9375 C 394.32313 467.82731 395.60804 468.46976 396.99219 468.86523 C 398.4752 469.16184 399.95839 469.31055 401.44141 469.31055 C 403.71536 469.31055 405.98777 468.91399 408.26172 468.12305 C 410.53567 467.23324 412.56413 466.04747 414.34375 464.56445 C 416.12337 462.98257 417.6046 461.10282 418.79102 458.92773 C 419.97742 456.75265 420.66945 454.33153 420.86719 451.66211 L 420.86719 446.61914 C 418.9887 446.42141 417.01177 446.2727 414.93555 446.17383 C 412.9582 445.97609 410.83255 445.87891 408.55859 445.87891 z M 541.21875 445.87891 C 538.74706 445.87891 536.32595 446.07523 533.95312 446.4707 C 531.67917 446.76731 529.60309 447.36019 527.72461 448.25 C 525.94499 449.13981 524.51137 450.3771 523.42383 451.95898 C 522.33629 453.54087 521.79102 455.61694 521.79102 458.1875 C 521.79102 460.26372 522.138 462.04238 522.83008 463.52539 C 523.62102 464.90954 524.61046 466.04769 525.79688 466.9375 C 526.98328 467.82731 528.2682 468.46976 529.65234 468.86523 C 531.13536 469.16184 532.61855 469.31055 534.10156 469.31055 C 536.37552 469.31055 538.64792 468.91399 540.92188 468.12305 C 543.19583 467.23324 545.22429 466.04747 547.00391 464.56445 C 548.78352 462.98257 550.26476 461.10282 551.45117 458.92773 C 552.63758 456.75265 553.32961 454.33153 553.52734 451.66211 L 553.52734 446.61914 C 551.64885 446.42141 549.67192 446.2727 547.5957 446.17383 C 545.61836 445.97609 543.4927 445.87891 541.21875 445.87891 z M 775.83594 445.87891 C 773.36425 445.87891 770.94314 446.07523 768.57031 446.4707 C 766.29636 446.76731 764.22029 447.36019 762.3418 448.25 C 760.56218 449.13981 759.12856 450.3771 758.04102 451.95898 C 756.95347 453.54087 756.4082 455.61694 756.4082 458.1875 C 756.4082 460.26372 756.75519 462.04238 757.44727 463.52539 C 758.2382 464.90954 759.22765 466.04769 760.41406 466.9375 C 761.60047 467.82731 762.88538 468.46976 764.26953 468.86523 C 765.75254 469.16184 767.23574 469.31055 768.71875 469.31055 C 770.99271 469.31055 773.26511 468.91399 775.53906 468.12305 C 777.81302 467.23324 779.84148 466.04747 781.62109 464.56445 C 783.40071 462.98257 784.8839 461.10282 786.07031 458.92773 C 787.25672 456.75265 787.94875 454.33153 788.14648 451.66211 L 788.14648 446.61914 C 786.268 446.42141 784.28911 446.2727 782.21289 446.17383 C 780.23554 445.97609 778.10989 445.87891 775.83594 445.87891 z "
           transform="matrix(0.82408434,0,0,0.82408434,49.204305,-333.73714)"
           id="path1055" />
      </g>
    </g>
    <g
       transform="matrix(1.1818182,0,0,1.1818182,-455.48565,-248.41313)"
       style="opacity:1"
       id="g824">
      <rect
         style="opacity:1;stroke-width:1.03907907"
         y="19.778772"
         width="374.06848"
         height="106.92123"
         id="rect4"
         x="550.74927" />
      <path
         class="st0"
         d="m 907.98463,96.566727 c -0.7273,0.207819 -1.35075,0.311723 -1.97419,0.311723 -2.18212,0 -3.2212,-0.935168 -3.2212,-3.636774 V 72.979634 c 0,-10.702513 -8.52046,-15.897909 -18.59946,-15.897909 -7.68924,0 -11.84554,0.935171 -20.05428,4.260224 l -1.66252,10.806422 10.70252,1.142988 1.55861,-5.299304 c 2.18207,-1.142987 4.36413,-1.350803 7.16969,-1.350803 7.58522,0 7.68918,5.714935 7.68918,10.494698 v 1.558619 c -2.38993,-0.311723 -5.09153,-0.415631 -7.68918,-0.415631 -10.70256,0 -21.8207,2.701605 -21.8207,14.235383 0,9.767349 7.68918,13.404119 14.44319,13.404119 7.58533,0 12.3651,-4.57195 15.06669,-9.351713 0.62345,5.714943 4.05236,9.351713 10.28683,9.351713 2.90943,0 5.92281,-0.83126 8.4166,-2.18206 z m -28.67858,-0.311722 c -4.0524,0 -5.50711,-2.389881 -5.50711,-5.403211 0,-5.091487 4.15636,-6.44229 8.93613,-6.44229 2.182,0 4.57194,0.311724 6.75395,0.623447 -0.31166,7.793094 -5.40321,11.222054 -10.18297,11.222054 z M 861.32999,33.390723 841.06794,104.77545 h -13.19631 l 20.26204,-71.384727 z m -27.22388,0 -20.26204,71.384727 H 800.64776 L 820.9098,33.390723 Z m -56.11027,24.626173 h 14.02757 v 16.833081 h -14.02757 z m 0,30.029385 h 14.02757 v 16.833079 h -14.02757 z m -20.46987,-0.623448 10.59862,1.039079 -2.90942,16.417448 h -40.83582 l -1.3508,-7.065732 25.76916,-29.613758 H 734.1467 l -2.07817,7.273554 -9.66343,-1.039079 1.66253,-16.417449 h 41.04363 l 1.03908,7.065737 -25.97699,29.613753 h 15.17056 z m -67.0206,-30.341108 c -16.83308,0 -25.14571,11.325962 -25.14571,25.041805 0,14.962738 9.97516,23.79491 24.41836,23.79491 14.96274,0 25.76915,-9.455617 25.76915,-24.418357 0,-13.092396 -8.20872,-24.418358 -25.0418,-24.418358 z m -0.31172,38.445925 c -7.27356,0 -11.01424,-6.234474 -11.01424,-14.339291 0,-8.832172 4.26022,-13.923659 11.11815,-13.923659 6.33838,0 11.42986,4.260224 11.42986,13.715843 0,9.039988 -4.57194,14.547107 -11.53377,14.547107 z m -36.88731,-0.935172 h 6.23448 V 104.77545 H 640.00614 V 78.486753 c 0,-8.104816 -2.70161,-11.222053 -8.00092,-11.222053 -6.44229,0 -9.03998,4.571948 -9.03998,11.118146 v 16.31354 h 6.23447 v 10.182974 h -19.6386 V 78.486753 c 0,-8.104816 -2.7016,-11.222053 -8.0009,-11.222053 -6.44229,0 -9.03999,4.571948 -9.03999,11.118146 v 16.31354 h 8.93608 V 104.87936 H 572.98553 V 94.696386 H 579.22 V 68.19987 h -6.23447 V 58.016896 h 19.6386 v 7.065737 c 2.80551,-4.987579 7.68918,-8.000908 14.23538,-8.000908 6.75402,0 12.98849,3.221145 15.27446,10.079066 2.5977,-6.234473 7.897,-10.079066 15.27446,-10.079066 8.41654,0 16.10573,5.091487 16.10573,16.209634 v 21.301119 z"
         id="path6"
         inkscape:connector-curvature="0"
         style="opacity:1;fill:#ffffff;stroke-width:1.03907907" />
    </g>
    <path
       style="display:inline;opacity:1;fill:#808080;fill-opacity:1;fill-rule:nonzero;stroke:none;stroke-width:1.69315207;stroke-linecap:round;stroke-linejoin:round;stroke-miterlimit:4;stroke-dasharray:none;stroke-dashoffset:0;stroke-opacity:1"
       d="m 746.86133,-198.71764 c 0.74669,-0.12772 5.06917,2.68077 6.76717,3.77948 4.99207,3.22996 14.32258,12.8697 14.32258,12.8697 0,0 -9.17029,-9.67202 -12.95497,-14.50796 -2.35162,-3.0048 6.28977,3.68955 9.14542,6.05451 3.29534,2.72906 9.10979,9.29807 9.10979,9.29807 0,0 -5.68669,-7.85763 -8.48885,-12.06199 -2.06216,-3.09405 6.26656,3.35933 8.7195,6.05955 3.0863,3.3974 5.45395,6.09769 6.33233,6.89815 0.87836,0.80049 -7.80242,-11.50694 -4.39227,-8.3806 3.88541,3.56201 11.96061,13.96762 12.97574,14.60431 1.01489,0.63674 -0.61241,-2.66599 -1.5209,-7.44139 -0.86444,-4.5433 5.42224,4.4849 9.11496,9.4594 0.99435,1.33948 -1.75265,-6.11879 -0.45254,-5.18389 3.17092,2.28028 3.2885,5.96066 5.92218,7.39067 2.03453,1.10484 4.7026,-0.80971 6.68939,0.40769 1.2407,0.76028 1.73271,3.46501 2.54022,3.86112 2.37576,1.16526 7.68276,0.396 7.68276,0.396 0,0 5.7441,-1.4247 8.37219,-0.26007 1.0078,0.44662 1.32748,2.19462 2.35681,2.56627 1.24169,0.4483 2.54064,-1.00056 3.81171,-0.69286 2.35072,0.569 3.89733,3.37248 6.11177,4.46816 6.67179,3.30105 14.33311,2.98841 21.07857,6.07642 4.37395,2.00233 8.0821,5.62257 12.33216,7.9619 3.2257,1.77551 10.39437,0.58776 9.95096,4.58545 -0.18713,1.68755 -6.11064,-0.78195 -4.37584,0.86325 2.76554,2.6226 7.06319,2.99594 9.29313,6.21413 1.84754,2.66647 2.58915,9.70009 2.58915,9.70009 0,-1e-5 18.72262,-2.85251 27.94991,-0.97853 8.52306,1.73095 24.22425,11.06609 24.22425,11.06609 0,0 22.76477,-8.26531 34.63785,-9.3271 5.57785,-0.49881 16.8078,1.42405 16.8078,1.42405 0,0 -6.94987,3.36474 -6.04156,6.39491 1.60574,5.35708 6.11157,0.17405 14.6989,2.09684 3.46,0.77472 -13.14343,3.94848 -9.65516,4.49253 6.47524,1.00996 7.31934,-0.2755 12.26426,1.47763 1.8224,0.6461 -3.8727,3.17176 -3.2389,5.22742 2.2193,7.19935 25.4489,4.84634 19.1162,6.91009 -15.0015,4.888798 -25.97712,3.94222 -39.08253,3.7037 -11.02575,-0.2007 -22.26533,-7.08305 -32.95248,-4.31437 -4.14104,1.07281 -6.80718,5.818882 -10.68418,7.747779 -1.94923,0.969783 -6.18946,1.856489 -6.18946,1.856489 0,0 6.25671,-1.150072 8.96062,0.380931 1.52659,0.864369 1.88043,3.372512 3.27222,4.5016 2.05405,1.666306 5.40215,0.827733 7.05745,2.998565 0.35223,0.461786 -0.18744,1.741894 0.34181,1.779492 3.16554,0.225089 7.10617,-1.080484 12.41611,1.799803 0.95945,0.520399 -1.75019,2.939774 -1.75019,2.939774 l -14.703,2.119398 c 0,0 15.34123,-1.929831 22.07051,1.684834 1.28699,0.691296 3.31358,1.990991 2.9558,3.533428 -0.49596,2.138958 -5.62636,1.687298 -5.62636,1.687298 0,0 4.68876,1.37579 6.21612,3.332434 0.89876,1.151424 2.60867,4.282223 1.27918,4.363683 -3.8859,0.238073 -9.37178,0.110448 -9.37178,0.110448 0,0 10.52423,0.401013 13.22189,4.709469 0.78253,1.249843 1.1802,4.375112 -0.13685,4.541729 -4.84515,0.613007 -10.36411,0.122159 -10.36411,0.122159 0,0 6.9891,2.43428 12.34772,4.070657 1.91019,0.583331 3.73735,6.565942 1.77289,6.465388 -4.16466,-0.213209 -13.26812,-1.788594 -13.26812,-1.788594 0,0 6.83892,3.532637 15.41418,6.628573 1.95402,0.705462 3.58488,4.195619 2.76195,6.292294 -0.33463,0.852513 -2.39256,0.676149 -2.39256,0.676149 l -22.84985,-3.784346 20.42069,7.705185 c 0,0 5.23966,2.878621 5.00781,5.455361 -0.0992,1.103459 -2.50315,1.650409 -2.50315,1.650409 l -15.19366,-4.199694 17.37667,10.173684 c 0,0 1.99213,1.945611 1.51536,2.901328 -0.71817,1.439552 -4.40751,-0.109443 -4.40751,-0.109443 l -12.55832,-4.580622 15.7776,7.46066694 c 0,0 4.99837,2.63717096 4.41736,4.81324696 -0.22085,0.8270148 -2.26073,0.3506186 -2.26073,0.3506186 L 972.87402,-0.81615596 987.316,6.4729565 c 0,0 10.77316,3.3517525 10.05559,7.8273485 -0.23292,1.45216 -3.80657,0.855326 -3.80657,0.855326 l -9.53546,-4.914302 13.62167,8.271833 c 0,0 3.10737,2.428562 2.54037,3.862299 -0.46315,1.170975 -3.40271,0.202685 -3.40271,0.202685 l -13.41595,-6.329322 15.64623,9.383596 c 8e-5,-9e-6 7.56573,4.779411 6.36933,8.033372 -0.508,1.381563 -3.9752,0.04683 -3.9752,0.04683 l -19.25368,-11.124643 18.45448,12.756217 c 0,0 6.5443,3.796002 5.3178,6.261017 -0.9586,1.926728 -5.7383,-1.715924 -5.7383,-1.715924 l -21.76804,-13.842167 17.05146,12.924704 c 0,0 9.41528,7.001044 7.15818,10.456676 -2.0027,3.066107 -9.51871,-4.42914 -9.51871,-4.42914 L 972.4175,27.833146 c 0,0 14.09448,13.240781 18.86454,21.890546 0.75083,1.361192 2.41303,3.433885 1.42584,4.524541 -1.52195,1.681467 -4.47271,-1.008446 -6.04662,-2.723054 -7.82276,-8.521811 -23.80128,-24.434675 -23.80128,-24.434675 0,0 13.61203,16.206151 19.17169,26.473054 0.93745,1.731106 2.0377,4.640413 0.76376,5.99072 -0.91336,0.968149 -2.59588,-0.243258 -3.72322,-0.9292 -6.33348,-3.853517 -15.61089,-17.005893 -15.61089,-17.005893 0,0 -9.78036,-14.264495 -15.16925,-20.902163 -7.7486,-9.544039 -17.32826,-17.1021059 -24.60372,-27.115822 -6.1868,-8.515275 -12.80406,-17.304314 -15.95944,-27.704251 -4.1273,-13.60334 -0.0155,-28.845535 -3.09822,-42.775609 -0.95265,-4.304721 -4.67931,-12.25293 -4.67931,-12.25293 l -12.22685,-3.17914 -1.94036,-8.91371 c 0,0 4.52284,-0.73956 6.80026,-0.9719 2.16609,-0.22108 6.52061,-0.40079 6.52061,-0.40079 0,0 -2.13224,-3.36338 -3.34267,-5.05207 -1.71932,-2.39871 -5.53525,-5.8709 -5.53525,-5.8709 l 1.80838,-1.15578 c 0,0 -7.96299,-11.02794 -13.38489,-14.11298 -4.3596,-2.48065 -9.47963,-2.88602 -14.29941,-2.91322 -3.9312,-0.0222 -11.5744,2.2451 -11.5744,2.2451 0,0 -12.71264,-4.49451 -19.1058,-6.58626 -11.72369,-3.83578 -23.82315,-6.1602 -35.29892,-10.93553 -5.47858,-2.27973 -10.89481,-4.94707 -15.89824,-8.40757 -5.83014,-4.03219 -10.56719,-9.9032 -16.23077,-14.24081 -8.23325,-6.30574 -18.00528,-9.89383 -25.69654,-17.04845 -1.95225,-1.816 -4.66162,-4.99282 -5.03955,-6.42805 -0.47315,-1.79721 3.22223,0.82871 4.73872,1.56632 2.82103,1.37204 5.30693,3.53718 7.98342,5.25773 4.3738,2.81147 13.19579,8.27685 13.19579,8.27685 0,0 -7.97524,-5.63617 -11.65527,-8.9441 -2.61183,-2.34788 -5.15396,-4.8507 -7.35306,-7.6978 -0.68635,-0.88863 -1.23093,-1.35001 -1.79795,-2.89681 -0.5904,-1.61097 3.08188,0.44214 4.44349,1.24465 3.43336,2.0234 6.12404,5.70529 9.20484,8.38161 3.53616,3.07201 8.54651,6.29366 8.54651,6.29366 0,0 -5.44127,-4.76734 -9.03176,-8.61573 -2.35097,-2.51967 -4.54789,-4.72186 -6.79003,-7.86583 -0.28481,-0.39935 -0.30284,-0.58505 -0.13044,-0.61458 z m 342.86137,58.43411 c 0.8439,0.0101 1.6859,0.0806 2.5145,0.21422 0.64,0.10324 1.4698,0.49988 2.0898,0.99554 0.7824,0.62529 1.8355,1.36878 1.944,2.40502 0.065,0.62011 -0.8246,0.96127 -0.8307,1.58362 -0.01,1.01275 1.2741,1.67835 1.3013,2.69181 0.044,1.6613 -1.8967,4.43056 -1.8967,4.43056 0,0 3.2483,-2.63855 3.2139,-4.63455 -0.01,-0.47848 -0.689,-0.66162 -0.8085,-1.12377 -0.2333,-0.90295 0.6027,-1.89846 0.2955,-2.77422 -0.39,-1.11197 -1.5105,-2.25276 -2.6351,-3.19204 3.34,0.4849 7.0155,1.29511 7.683,4.52499 0.8107,3.92223 -3.9938,6.84387 -7.0602,8.70288 -2.0378,1.23551 -4.5552,1.43837 -6.8865,1.23564 -4.9404,-0.42962 -14.2581,-5.12841 -14.2581,-5.12841 l -72.7127,5.28868 c -0.7847,-0.44071 -1.1255,-0.81473 -3.44324,-1.48615 9e-5,0 64.37144,-5.50127 76.09664,-5.40278 0,0 4.8984,-5.39967 8.0022,-6.80087 2.3042,-1.04016 4.8592,-1.56034 7.3909,-1.53017 z m -226.31686,10.50459 c 3.75481,-0.0182 7.51913,0.59606 11.01667,2.01299 5.51733,2.23521 14.16911,11.99505 14.16911,11.99505 l -3.06623,1.81966 c 7.6101,3.15363 7.56704,6.3981 10.39845,9.60803 -4.54722,0.28116 -9.11909,0.52937 -12.12174,2.89947 l 1.21087,6.63456 c 0,0 -7.1612,-3.53723 -10.93897,-4.41243 -3.31989,-0.76928 -10.10789,-0.69136 -10.10789,-0.69136 0,0 6.49044,0.82393 9.58181,1.99577 5.0443,1.91212 9.33275,6.01015 14.32601,8.100956 3.38221,1.416214 10.46548,2.958418 10.46548,2.958418 3.73658,7.194628 5.48278,14.301332 5.26184,21.991972 0,0 -17.09552,-0.09682 -24.70572,-4.087611 -5.04626,-2.646252 -8.382,-8.800809 -12.6234,-12.499771 -6.3937,-5.576169 -13.56448,-7.495577 -19.61643,-13.553004 -2.71156,-2.71402 -6.09954,-8.20736 -6.09954,-8.20736 0,0 2.78189,-2.25135 4.34649,-1.98791 5.14775,0.86683 6.951,8.29478 12.43343,11.04246 4.84784,2.42959 14.96707,5.985914 14.96707,5.985914 l -12.7107,-12.805054 c 0,0 4.02165,-4.65261 6.27652,-5.93 3.20649,-1.81646 10.74891,-1.42367 10.74891,-1.42367 0,0 -5.27728,-3.71738 -8.23543,-4.28171 -2.63698,-0.50302 -7.92509,0.90396 -7.92509,0.90396 0,0 -4.89054,-2.06357 -7.29472,-1.53502 -1.41216,0.31051 -3.6071,2.63654 -3.6071,2.63654 l -7.15127,-1.53788 c 0,0 -8.38046,-2.47061 -6.98497,-5.10689 3.25003,-6.13948 12.23637,-9.62522 19.3716,-11.41728 2.77952,-0.6981 5.69452,-1.0946 8.61494,-1.10875 z m 130.43843,-1.08485 c 0,0 -3.70645,6.33609 -1.99317,5.71103 3.97619,-1.45066 6.82165,-0.343 9.5514,1.66509 1.3482,0.99173 2.6405,4.59149 2.6405,4.59149 0,0 6.8784,0.28901 9.2757,2.73446 1.2029,1.22712 0.5812,3.83507 1.7243,5.13476 1.5224,1.73089 6.0012,2.59516 6.0012,2.59516 0,0 -1.4206,4.68952 -0.5587,6.76144 1.435,3.45001 8.3081,6.47907 8.3081,6.47907 0,0 -1.8826,0.0486 -2.8073,-0.14484 -9.7566,-2.04014 -24.4079,-8.19533 -21.5838,-7.74446 0.6921,0.11051 5.465,-4.33007 5.465,-4.33007 l -9.2584,-2.2022 5.9485,-3.80329 c 0,0 -9.19249,-2.59494 -17.67411,-2.45762 -3.48592,0.0565 8.17269,-7.20691 8.17269,-7.20691 l -19.05178,-1.731 10.71583,-5.63597 z m -160.31221,16.7148 c 0,0 3.959,3.11602 5.00676,5.45422 0.67868,1.5145 0.58981,5.0209 0.58981,5.0209 0,0 -2.8348,0.33839 -4.25465,0.21148 -3.62738,-0.32333 -10.73318,-2.46752 -10.73318,-2.46752 l 7.94086,-0.41877 5.22681,-0.87207 c 0,0 -4.29345,-0.0315 -6.2422,0.23609 -4.78512,0.6571 -14.45634,0.98085 -14.45634,0.98085 z m 2.63994,0.67808 c 0,0 0.16765,0.1267 0.22865,0.17014 -0.14361,-0.0812 -0.23742,-0.1453 -0.22865,-0.17014 z m 0.22865,0.17014 c 1.30653,0.73846 8.42601,3.5178 12.62011,3.50201 1.34045,-0.005 0.34854,3.26054 1.34528,4.26746 1.46334,1.47815 3.78689,1.8587 5.6744,1.46341 1.77041,-0.37079 3.79514,-1.5118 4.44424,-3.41803 0.34268,-1.00626 -1.79837,-2.94475 -0.63992,-3.20494 3.65636,-0.82123 5.6818,-1.40626 8.54153,-1.01834 1.42154,0.19282 4.0734,1.6342 4.0734,1.6342 l 1.89506,0.59025 c 0,0 -5.37874,-0.70584 -7.758,0.39651 -3.40164,1.57616 -8.16926,8.35665 -8.16926,8.35665 l 7.50161,8.17198 c 0,0 -5.54276,-1.90629 -8.02161,-3.57624 -2.73104,-1.83991 -4.76642,-4.81062 -7.32866,-6.95003 -1.57965,-1.31897 -3.02818,-3.23403 -4.94061,-3.61372 -1.81218,-0.35977 -3.94968,2.87728 -5.31255,1.43975 -0.71054,-0.74953 0.74545,-2.17949 0.43068,-3.21758 -0.62368,-2.05725 -3.75813,-4.39134 -4.3557,-4.82337 z m 273.47795,-2.06809 c 0.3584,-0.0105 0.7174,0.002 1.0764,0.038 0.6162,0.0621 1.2824,0.14256 1.9631,0.23721 1.8209,1.06531 3.7462,2.55318 4.1605,4.24728 0.236,0.96459 -1.2451,1.66905 -1.1268,2.65796 0.067,0.56355 0.904,0.7491 0.9807,1.31136 0.2043,1.49864 -1.5759,4.11106 -1.5759,4.11106 0,0 2.7254,-2.74167 2.5537,-4.56316 -0.029,-0.31091 -0.4921,-0.38601 -0.5743,-0.68593 -0.2765,-1.00887 0.8475,-2.1318 0.4514,-3.0906 -0.6507,-1.57471 -2.5395,-2.92045 -4.3621,-3.9103 3.5579,0.54858 7.4888,1.7513 8.4832,5.23536 0.7275,2.54977 -1.7602,5.15678 -3.6028,6.73132 -3.2609,2.78645 -7.741,3.63771 -11.8663,3.67394 -4.1646,0.0366 -12.1969,-3.49637 -12.1969,-3.49637 l -69.8837,3.12307 c -0.9736,-0.26903 -1.8197,-0.85261 -2.367,-2.17857 l 71.8333,-3.43039 c 0,0 5.4887,-5.76263 8.8159,-7.57734 2.2474,-1.22576 4.7286,-2.36286 7.2376,-2.43427 z m -255.314,3.72864 a 4.1904589,3.3229267 1.345564 0 1 4.29698,3.27376 4.1904589,3.3229267 1.345564 0 1 -4.08041,3.37249 4.1904589,3.3229267 1.345564 0 1 -4.29705,-3.27378 4.1904589,3.3229267 1.345564 0 1 4.08048,-3.37247 z"
       id="path4175"
       inkscape:connector-curvature="0" />
  </g>
</svg>
