<?xml version="1.0" encoding="UTF-8" standalone="no"?>
<!-- Created with Inkscape (http://www.inkscape.org/) -->

<svg
   xmlns:dc="http://purl.org/dc/elements/1.1/"
   xmlns:cc="http://creativecommons.org/ns#"
   xmlns:rdf="http://www.w3.org/1999/02/22-rdf-syntax-ns#"
   xmlns:svg="http://www.w3.org/2000/svg"
   xmlns="http://www.w3.org/2000/svg"
   xmlns:sodipodi="http://sodipodi.sourceforge.net/DTD/sodipodi-0.dtd"
   xmlns:inkscape="http://www.inkscape.org/namespaces/inkscape"
   id="svg2"
   version="1.1"
   inkscape:version="0.92.2 (unknown)"
   width="967.33325"
   height="823.0285"
   viewBox="0 0 906.87496 771.5892"
   sodipodi:docname="logoCR_MozillaCOLOR.svg"
   inkscape:export-filename="/home/keik/Escritorio/IMAGEN MOZILLA CENTROAMERICA/Costa Rica/logoCR_MozillaCOLOR.png"
   inkscape:export-xdpi="100"
   inkscape:export-ydpi="100">
  <title
     id="title4536">LogoMozillaHonduras</title>
  <metadata
     id="metadata8">
    <rdf:RDF>
      <cc:Work
         rdf:about="">
        <dc:format>image/svg+xml</dc:format>
        <dc:type
           rdf:resource="http://purl.org/dc/dcmitype/StillImage" />
        <dc:title>LogoMozillaHonduras</dc:title>
        <cc:license
           rdf:resource="http://creativecommons.org/licenses/by-nd/4.0/" />
        <dc:creator>
          <cc:Agent>
            <dc:title>KarlaLHdz</dc:title>
          </cc:Agent>
        </dc:creator>
        <dc:source>Mozilla El Salvador</dc:source>
        <dc:description>Hecho para Mozilla Centroamerica en el año 2017</dc:description>
      </cc:Work>
      <cc:License
         rdf:about="http://creativecommons.org/licenses/by-nd/4.0/">
        <cc:permits
           rdf:resource="http://creativecommons.org/ns#Reproduction" />
        <cc:permits
           rdf:resource="http://creativecommons.org/ns#Distribution" />
        <cc:requires
           rdf:resource="http://creativecommons.org/ns#Notice" />
        <cc:requires
           rdf:resource="http://creativecommons.org/ns#Attribution" />
      </cc:License>
    </rdf:RDF>
  </metadata>
  <defs
     id="defs6" />
  <sodipodi:namedview
     pagecolor="#ffffff"
     bordercolor="#666666"
     borderopacity="1"
     objecttolerance="10"
     gridtolerance="10"
     guidetolerance="10"
     inkscape:pageopacity="0"
     inkscape:pageshadow="2"
     inkscape:window-width="1366"
     inkscape:window-height="708"
     id="namedview4"
     showgrid="false"
     showborder="true"
     inkscape:zoom="0.62816779"
     inkscape:cx="445.80849"
     inkscape:cy="405.14652"
     inkscape:window-x="0"
     inkscape:window-y="0"
     inkscape:window-maximized="1"
     inkscape:current-layer="layer2"
     borderlayer="true"
     inkscape:showpageshadow="false"
     units="px"
     showguides="true"
     fit-margin-top="100"
     fit-margin-left="100"
     fit-margin-right="100"
     fit-margin-bottom="100"
     inkscape:guide-bbox="true" />
  <g
     inkscape:groupmode="layer"
     id="layer2"
     inkscape:label="Layer 2"
     style="opacity:1"
     transform="translate(-41.54831,387.95176)">
    <path
       style="display:inline;opacity:1;fill:#808080;fill-opacity:1;fill-rule:nonzero;stroke:none;stroke-width:8.09901237;stroke-linecap:round;stroke-linejoin:round;stroke-miterlimit:4;stroke-dasharray:none;stroke-dashoffset:0;stroke-opacity:1"
       d="m 630.50039,-337.36447 c 6.52408,0.84917 12.68936,2.88615 17.37874,7.1345 13.96819,12.65455 9.36973,10.62727 8.22209,20.44171 -0.49521,4.23582 -1.41052,14.29067 -2.4176,18.46303 -0.96728,4.00761 3.62824,9.18435 4.03454,13.34351 0.6921,7.08536 -14.60473,15.66185 -18.14976,21.70844 -6.03634,10.29587 -17.59315,16.54587 -23.81473,26.73089 -8.07268,13.21535 -16.75377,43.33455 -16.75377,43.33455 0,0 -27.73335,-28.89573 -45.54219,-36.95919 -11.68504,-5.29074 -37.93453,-6.45487 -37.93453,-6.45487 0,0 37.34513,14.23854 53.203,25.98981 19.05877,14.12328 48.4935,52.08305 48.4935,52.08305 0,0 76.44479,130.65028 87.06073,189.119772 2.05976,11.344513 -22.98216,-25.852492 -22.98216,-25.852462 0,0 52.71277,105.86435 86.12709,154.41329 27.69351,40.23707 51.60284,66.41514 94.04977,112.37802 5.10435,5.52716 12.03325,16.78564 6.30916,21.66807 -5.21257,4.44618 -12.95301,-4.87842 -18.57938,-8.78783 -35.53038,-24.68774 -117.4078,-126.2867 -92.93634,-90.60702 28.30694,41.27177 38.08665,55.28865 60.82553,79.82477 7.41415,8.00012 18.7997,12.41785 24.4448,21.75088 2.71152,4.48296 7.38391,11.43201 3.80082,15.25438 -5.85008,6.24075 -17.45161,-1.06935 -25.24739,-4.59013 -19.77936,-8.93283 -34.90127,-25.90465 -51.08396,-40.36628 -15.93669,-14.24179 -30.20482,-30.25169 -45.14089,-45.53959 -11.07377,-11.33459 -14.18536,-19.91625 -32.97521,-34.24347 -5.23174,-3.9892 8.74784,15.97796 3.17805,19.47973 -5.9341,3.73078 -10.5104,-10.06945 -17.2361,-12.04352 -8.90256,-2.61299 -19.97819,6.05954 -27.81098,1.08661 -6.47789,-4.11268 -3.20729,-16.1401 -8.97336,-21.20266 -6.90601,-6.06346 -19.18607,-1.89838 -26.56984,-7.36999 -6.65564,-4.93206 -6.05116,-17.00925 -13.32399,-20.97519 -6.58152,-3.58901 -15.51967,2.89564 -22.49073,0.13872 -17.49806,-6.92055 -40.93278,-38.87005 -40.93278,-38.87005 0,0 1.63207,16.98578 -4.56252,19.20221 -17.77378,6.35939 -31.62382,-21.04027 -45.06636,-34.293481 -5.59808,-5.519256 -7.12889,-15.94988 -14.54271,-18.564549 -8.08485,-2.851338 -16.49108,6.222709 -25.05433,5.815395 -8.09634,-0.385135 -17.0649,-2.265085 -23.05904,-7.721268 -4.73591,-4.310812 -6.91833,-11.222628 -7.78223,-17.568089 -1.15332,-8.47107 10.566,-20.225625 3.73987,-25.372734 -3.78702,-2.855495 -8.27652,5.146777 -12.96388,5.870616 -10.1428,1.566226 -23.65999,3.94268 -30.5729,-3.642913 -4.48112,-4.917194 -1.79158,-13.421555 -0.51306,-19.950338 0.62445,-3.188624 5.75391,-6.259259 3.90688,-8.9324194 -2.47807,-3.58643 -8.77885,1.48658 -13.06004,0.66527 -6.99681,-1.34229 -16.60274,-2.37078 -19.42446,-8.91240003 -2.52386,-5.85110997 8.97324,-12.40962957 6.12286,-18.10878957 -3.75127,-7.50041 -19.35893,-0.79347 -23.90491,-7.84064 -4.01939,-6.23082 6.72801,-16.0989 2.39658,-22.117 -4.83913,-6.72352 -21.07272,2.33293 -24.27857,-5.30544 -3.01217,-7.17699 14.59329,-12.30085 12.4232,-19.77577 -2.16134,-7.44468 -20.29512,-2.28684 -20.99526,-10.00731 -1.36509,-15.05257 22.54047,-21.40802 36.75104,-26.5563 20.02339,-7.25403 43.12859,0.92443 63.74141,-4.4301 27.46311,-7.13394 77.05445,-36.17324 77.05445,-36.17324 0,0 -53.10009,22.59121 -81.13283,28.65943 -22.90158,4.95746 -48.54213,-3.25055 -70.0305,6.09336 -17.63386,7.66787 -42.85223,38.62433 -42.85223,38.62433 0,0 25.72628,0.7706 27.15976,9.18908 -42.72122,43.67698 -128.32113,172.92545 -128.32113,172.92545 0,0 -16.00582,4.61641 -20.67679,-0.4521 -4.45855,-4.838001 4.80381,-14.216674 1.17779,-19.706405 -1.6017,-2.424947 -6.71164,-0.444368 -8.20671,-2.936479 -3.37184,-5.620553 6.77649,-14.191152 2.86719,-19.452103 -2.54954,-3.431064 -9.96909,1.42985 -12.68635,-1.869918 -5.46168,-6.632514 -2.25346,-17.879724 1.19946,-25.747188 26.86893,-61.221097 93.05423,-96.061297 141.12969,-142.523247 28.41845,-27.46458 55.17232,-57.13418 87.04697,-80.49906 44.69103,-32.7595 98.4401,-51.41532 144.36429,-82.42241 27.90231,-18.83907 47.10168,-52.57546 79.22877,-62.6402 10.0638,-3.15275 22.27105,-5.41999 33.14447,-4.00464 z m -2.41035,10.96514 c -4.20405,-0.61851 -8.07936,2.05527 -8.65648,5.97254 -0.57765,3.91719 2.3614,7.59537 6.5651,8.21616 4.20565,0.6213 8.08429,-2.05261 8.66169,-5.97178 0.57794,-3.91908 -2.36423,-7.59857 -6.57031,-8.21692 z m 36.7462,9.23771 c 5.76963,0.74971 9.39771,2.28224 14.26757,3.47275 6.15633,1.50497 12.06952,2.55527 18.37777,4.65953 6.41833,2.14095 18.54598,8.25523 18.54598,8.25523 0,0 -16.62332,4.23382 -24.71749,7.03759 -10.32255,3.57566 -30.31628,12.44281 -30.31628,12.44281 0,0 -3.96723,-3.95317 -4.5569,-6.54507 -0.92478,-4.06485 2.00113,-12.34723 2.00113,-12.34723 0,0 13.26782,0.4252 19.89989,0.26296 9.35839,-0.22892 28.03017,-1.74183 28.03017,-1.74183 0,0 -18.40198,0.0918 -27.60118,0.0249 -6.75027,-0.0491 -20.2494,-0.31451 -20.2494,-0.31451 0,0 -0.98685,-7.29142 0.14807,-10.659 0.63743,-1.89158 1.82268,-4.95184 3.55598,-4.81629 0.92164,0.0719 1.79045,0.16108 2.61472,0.26801 z"
       id="path4186"
       inkscape:connector-curvature="0" />
    <g
       style="opacity:1"
       id="g4515"
       transform="translate(6.4971317,-241.27623)">
      <rect
         y="166.3864"
         x="599.8244"
         height="131.74529"
         width="231.20776"
         id="rect4489-3"
         style="opacity:1;fill:#d40000;fill-opacity:1;stroke:none;stroke-width:1.9074316;stroke-linecap:round;stroke-linejoin:round;stroke-miterlimit:4;stroke-dasharray:none;stroke-opacity:1;paint-order:stroke markers fill" />
      <g
         transform="matrix(1.2363301,0,0,1.2363301,-513.54273,146.28707)"
         id="g4491">
        <rect
           x="550.74927"
           id="rect4-6"
           height="106.92123"
           width="374.06848"
           y="16.193968"
           style="opacity:1;fill:#214478;fill-opacity:1;stroke-width:1.03907907" />
        <path
           style="opacity:1;fill:#ffffff;stroke-width:1.03907907"
           inkscape:connector-curvature="0"
           id="path6-7"
           d="m 907.98463,96.566727 c -0.7273,0.207819 -1.35075,0.311723 -1.97419,0.311723 -2.18212,0 -3.2212,-0.935168 -3.2212,-3.636774 V 72.979634 c 0,-10.702513 -8.52046,-15.897909 -18.59946,-15.897909 -7.68924,0 -11.84554,0.935171 -20.05428,4.260224 l -1.66252,10.806422 10.70252,1.142988 1.55861,-5.299304 c 2.18207,-1.142987 4.36413,-1.350803 7.16969,-1.350803 7.58522,0 7.68918,5.714935 7.68918,10.494698 v 1.558619 c -2.38993,-0.311723 -5.09153,-0.415631 -7.68918,-0.415631 -10.70256,0 -21.8207,2.701605 -21.8207,14.235383 0,9.767349 7.68918,13.404119 14.44319,13.404119 7.58533,0 12.3651,-4.57195 15.06669,-9.351713 0.62345,5.714943 4.05236,9.351713 10.28683,9.351713 2.90943,0 5.92281,-0.83126 8.4166,-2.18206 z m -28.67858,-0.311722 c -4.0524,0 -5.50711,-2.389881 -5.50711,-5.403211 0,-5.091487 4.15636,-6.44229 8.93613,-6.44229 2.182,0 4.57194,0.311724 6.75395,0.623447 -0.31166,7.793094 -5.40321,11.222054 -10.18297,11.222054 z M 861.32999,33.390723 841.06794,104.77545 h -13.19631 l 20.26204,-71.384727 z m -27.22388,0 -20.26204,71.384727 H 800.64776 L 820.9098,33.390723 Z m -56.11027,24.626173 h 14.02757 v 16.833081 h -14.02757 z m 0,30.029385 h 14.02757 v 16.833079 h -14.02757 z m -20.46987,-0.623448 10.59862,1.039079 -2.90942,16.417448 h -40.83582 l -1.3508,-7.065732 25.76916,-29.613758 H 734.1467 l -2.07817,7.273554 -9.66343,-1.039079 1.66253,-16.417449 h 41.04363 l 1.03908,7.065737 -25.97699,29.613753 h 15.17056 z m -67.0206,-30.341108 c -16.83308,0 -25.14571,11.325962 -25.14571,25.041805 0,14.962738 9.97516,23.79491 24.41836,23.79491 14.96274,0 25.76915,-9.455617 25.76915,-24.418357 0,-13.092396 -8.20872,-24.418358 -25.0418,-24.418358 z m -0.31172,38.445925 c -7.27356,0 -11.01424,-6.234474 -11.01424,-14.339291 0,-8.832172 4.26022,-13.923659 11.11815,-13.923659 6.33838,0 11.42986,4.260224 11.42986,13.715843 0,9.039988 -4.57194,14.547107 -11.53377,14.547107 z m -36.88731,-0.935172 h 6.23448 V 104.77545 H 640.00614 V 78.486753 c 0,-8.104816 -2.70161,-11.222053 -8.00092,-11.222053 -6.44229,0 -9.03998,4.571948 -9.03998,11.118146 v 16.31354 h 6.23447 v 10.182974 h -19.6386 V 78.486753 c 0,-8.104816 -2.7016,-11.222053 -8.0009,-11.222053 -6.44229,0 -9.03999,4.571948 -9.03999,11.118146 v 16.31354 h 8.93608 V 104.87936 H 572.98553 V 94.696386 H 579.22 V 68.19987 h -6.23447 V 58.016896 h 19.6386 v 7.065737 c 2.80551,-4.987579 7.68918,-8.000908 14.23538,-8.000908 6.75402,0 12.98849,3.221145 15.27446,10.079066 2.5977,-6.234473 7.897,-10.079066 15.27446,-10.079066 8.41654,0 16.10573,5.091487 16.10573,16.209634 v 21.301119 z"
           class="st0" />
      </g>
      <text
         id="text4512-5"
         y="267.82849"
         x="729.74506"
         style="font-style:normal;font-weight:normal;font-size:152.50526428px;line-height:1;font-family:sans-serif;text-align:center;letter-spacing:0px;word-spacing:0px;text-anchor:middle;fill:#ffffff;fill-opacity:1;stroke:none;stroke-width:16.33984756"
         xml:space="preserve"><tspan
           style="font-style:normal;font-variant:normal;font-weight:normal;font-stretch:normal;font-family:'Zilla Slab';-inkscape-font-specification:'Zilla Slab';fill:#ffffff;stroke-width:16.33984756"
           y="267.82849"
           x="729.74506"
           id="tspan4510-3"
           sodipodi:role="line">cr</tspan></text>
    </g>
  </g>
</svg>
