<?xml version="1.0" encoding="UTF-8" standalone="no"?>
<!-- Created with Inkscape (http://www.inkscape.org/) -->

<svg
   xmlns:dc="http://purl.org/dc/elements/1.1/"
   xmlns:cc="http://creativecommons.org/ns#"
   xmlns:rdf="http://www.w3.org/1999/02/22-rdf-syntax-ns#"
   xmlns:svg="http://www.w3.org/2000/svg"
   xmlns="http://www.w3.org/2000/svg"
   xmlns:sodipodi="http://sodipodi.sourceforge.net/DTD/sodipodi-0.dtd"
   xmlns:inkscape="http://www.inkscape.org/namespaces/inkscape"
   id="svg2"
   version="1.1"
   inkscape:version="0.92.1 unknown"
   width="967.33325"
   height="823.0285"
   viewBox="0 0 906.87496 771.5892"
   sodipodi:docname="logoCostaRica_MozillaCOLOR.svg"
   inkscape:export-filename="/home/keik/Escritorio/IMAGEN MOZILLA CENTROAMERICA/Nicaragua/logoCostaRica_MozillaCOLOR.png"
   inkscape:export-xdpi="300"
   inkscape:export-ydpi="300">
  <title
     id="title4536">LogoMozillaHonduras</title>
  <metadata
     id="metadata8">
    <rdf:RDF>
      <cc:Work
         rdf:about="">
        <dc:format>image/svg+xml</dc:format>
        <dc:type
           rdf:resource="http://purl.org/dc/dcmitype/StillImage" />
        <dc:title>LogoMozillaHonduras</dc:title>
        <cc:license
           rdf:resource="http://creativecommons.org/licenses/by-nd/4.0/" />
        <dc:creator>
          <cc:Agent>
            <dc:title>KarlaLHdz</dc:title>
          </cc:Agent>
        </dc:creator>
        <dc:source>Mozilla El Salvador</dc:source>
        <dc:description>Hecho para Mozilla Centroamerica en el año 2017</dc:description>
      </cc:Work>
      <cc:License
         rdf:about="http://creativecommons.org/licenses/by-nd/4.0/">
        <cc:permits
           rdf:resource="http://creativecommons.org/ns#Reproduction" />
        <cc:permits
           rdf:resource="http://creativecommons.org/ns#Distribution" />
        <cc:requires
           rdf:resource="http://creativecommons.org/ns#Notice" />
        <cc:requires
           rdf:resource="http://creativecommons.org/ns#Attribution" />
      </cc:License>
    </rdf:RDF>
  </metadata>
  <defs
     id="defs6" />
  <sodipodi:namedview
     pagecolor="#ffffff"
     bordercolor="#666666"
     borderopacity="1"
     objecttolerance="10"
     gridtolerance="10"
     guidetolerance="10"
     inkscape:pageopacity="0"
     inkscape:pageshadow="2"
     inkscape:window-width="1366"
     inkscape:window-height="708"
     id="namedview4"
     showgrid="false"
     showborder="true"
     inkscape:zoom="0.62816779"
     inkscape:cx="483.66663"
     inkscape:cy="411.51425"
     inkscape:window-x="0"
     inkscape:window-y="0"
     inkscape:window-maximized="1"
     inkscape:current-layer="layer2"
     borderlayer="true"
     inkscape:showpageshadow="false"
     units="px"
     showguides="true"
     fit-margin-top="100"
     fit-margin-left="100"
     fit-margin-right="100"
     fit-margin-bottom="100"
     inkscape:guide-bbox="true" />
  <g
     inkscape:groupmode="layer"
     id="layer2"
     inkscape:label="Layer 2"
     style="opacity:1"
     transform="translate(-41.54831,387.95176)">
    <rect
       style="opacity:1;fill:#d40000;fill-opacity:1;stroke:none;stroke-width:2.79295754;stroke-linecap:round;stroke-linejoin:round;stroke-miterlimit:4;stroke-dasharray:none;stroke-opacity:1;paint-order:stroke markers fill"
       id="rect4489"
       width="657.4306"
       height="112.28425"
       x="259.61691"
       y="95.056343" />
    <rect
       x="524.21808"
       id="rect4"
       height="112.28382"
       width="392.82971"
       y="-32.503437"
       style="opacity:1;stroke-width:1.09119368;fill:#214478;fill-opacity:1" />
    <path
       style="opacity:1;fill:#ffffff;stroke-width:1.09119368"
       inkscape:connector-curvature="0"
       id="path6"
       d="m 899.37049,48.135791 c -0.76378,0.218238 -1.41849,0.327358 -2.0732,0.327358 -2.29157,0 -3.38276,-0.982074 -3.38276,-3.819179 V 23.365694 c 0,-11.239294 -8.9478,-16.6952623 -19.53231,-16.6952623 -8.07489,0 -12.43965,0.9820739 -21.06009,4.4738933 l -1.74591,11.348415 11.2393,1.200313 1.63679,-5.565088 c 2.29151,-1.200314 4.583,-1.418552 7.52928,-1.418552 7.96565,0 8.07483,6.001565 8.07483,11.021056 v 1.636791 c -2.5098,-0.327358 -5.3469,-0.436478 -8.07483,-0.436478 -11.23935,0 -22.91511,2.837103 -22.91511,14.949354 0,10.257219 8.07483,14.076397 15.16758,14.076397 7.96577,0 12.98526,-4.801252 15.82236,-9.820742 0.65471,6.001564 4.2556,9.820742 10.80276,9.820742 3.05535,0 6.21986,-0.872954 8.83873,-2.291506 z m -30.11695,-0.327358 c -4.25564,0 -5.7833,-2.509746 -5.7833,-5.674208 0,-5.346849 4.36482,-6.765401 9.38431,-6.765401 2.29144,0 4.80125,0.327358 7.09269,0.654716 -0.32729,8.183954 -5.6742,11.784893 -10.6937,11.784893 z M 850.3759,-18.208784 829.09762,56.756221 h -13.85816 l 21.27827,-74.965005 z m -28.58928,0 -21.27828,74.965005 h -13.85816 l 21.27828,-74.965005 z M 762.86217,7.6525056 h 14.73111 V 25.329843 h -14.73111 z m 0,31.5354974 h 14.73111 v 17.677336 h -14.73111 z m -21.49653,-0.654717 11.13019,1.091194 -3.05535,17.240859 h -42.88392 l -1.41855,-7.420116 27.0616,-31.09902 h -15.38582 l -2.1824,7.638356 -10.1481,-1.091194 1.74592,-17.2408594 h 43.10216 l 1.09119,7.4201164 -27.27986,31.09902 h 15.93143 z m -70.382,-31.8628543 c -17.67733,0 -26.40688,11.8940113 -26.40688,26.2977673 0,15.713188 10.47546,24.988334 25.64305,24.988334 15.71319,0 27.0616,-9.929862 27.0616,-25.64305 0,-13.74904 -8.62043,-25.6430513 -26.29777,-25.6430513 z m -0.32735,40.3741653 c -7.63836,0 -11.56665,-6.547162 -11.56665,-15.058472 0,-9.275147 4.47389,-14.621996 11.67577,-14.621996 6.65628,0 12.00313,4.473895 12.00313,14.403756 0,9.493386 -4.80125,15.276712 -12.11225,15.276712 z m -38.73738,-0.982075 h 6.54716 V 56.756221 H 617.95164 V 29.14902 c 0,-8.51131 -2.83711,-11.784891 -8.4022,-11.784891 -6.7654,0 -9.49338,4.801253 -9.49338,11.675773 v 17.13174 h 6.54716 V 56.865339 H 585.97966 V 29.14902 c 0,-8.51131 -2.8371,-11.784891 -8.40219,-11.784891 -6.7654,0 -9.49338,4.801253 -9.49338,11.675773 v 17.13174 h 9.38427 V 56.865339 H 547.56964 V 46.171642 h 6.54716 V 18.346203 h -6.54716 V 7.6525056 h 20.62356 v 7.4201164 c 2.94623,-5.237729 8.07483,-8.4021903 14.94936,-8.4021903 7.09276,0 13.63992,3.3826993 16.04054,10.5845773 2.72799,-6.547161 8.29307,-10.5845773 16.04055,-10.5845773 8.83867,0 16.91351,5.3468483 16.91351,17.0226213 v 22.369469 z"
       class="st0" />
    <text
       xml:space="preserve"
       style="font-style:normal;font-weight:normal;font-size:95.39891815px;line-height:1;font-family:sans-serif;text-align:center;letter-spacing:0px;word-spacing:0px;text-anchor:middle;fill:#ffffff;fill-opacity:1;stroke:none;stroke-width:10.22131062"
       x="902.94141"
       y="177.02899"
       id="text4512"><tspan
         sodipodi:role="line"
         id="tspan4510"
         x="902.94141"
         y="177.02899"
         style="font-style:normal;font-variant:normal;font-weight:normal;font-stretch:normal;font-family:'Zilla Slab';-inkscape-font-specification:'Zilla Slab';text-align:end;text-anchor:end;fill:#ffffff;stroke-width:10.22131062">cota rica</tspan></text>
    <path
       style="display:inline;opacity:1;fill:#808080;fill-opacity:1;fill-rule:nonzero;stroke:none;stroke-width:5.82062864;stroke-linecap:round;stroke-linejoin:round;stroke-miterlimit:4;stroke-dasharray:none;stroke-dashoffset:0;stroke-opacity:1"
       d="m 407.73282,-178.34495 c 4.68875,0.61029 9.11964,2.07423 12.48982,5.12745 10.03871,9.09462 6.73387,7.63765 5.90908,14.69113 -0.3559,3.04421 -1.01372,10.27047 -1.73749,13.26908 -0.69517,2.8802 2.60756,6.60064 2.89956,9.58976 0.4974,5.09213 -10.49618,11.25592 -13.04394,15.6015 -4.33822,7.39948 -12.64391,11.89125 -17.11526,19.21106 -5.8017,9.497654 -12.04066,31.143834 -12.04066,31.143834 0,0 -19.93151,-20.76689 -32.73043,-26.56197 -8.39785,-3.802364 -27.26293,-4.639004 -27.26293,-4.639004 0,0 26.83934,10.233004 38.23613,18.678454 13.69723,10.15017 34.85149,37.43124 34.85149,37.43124 0,0 54.93963,93.896237 62.56913,135.917315 1.48032,8.153117 -16.5169,-18.57977 -16.5169,-18.57975 0,0 37.88381,76.082991 61.89814,110.974331 19.90287,28.91773 37.08612,47.73147 67.59204,80.76424 3.66841,3.97228 8.6481,12.06357 4.53429,15.57249 -3.74619,3.1954 -9.30912,-3.50604 -13.3527,-6.31567 -25.53511,-17.74268 -84.37908,-90.76018 -66.79184,-65.11778 20.34374,29.66134 27.37226,39.73504 43.71432,57.36875 5.32843,5.74956 13.51104,8.92451 17.56808,15.63201 1.94873,3.22183 5.3067,8.216 2.73159,10.96307 -4.20436,4.48513 -12.54219,-0.76852 -18.14489,-3.29885 -14.2151,-6.41988 -25.08297,-18.61725 -36.71321,-29.01059 -11.45344,-10.23534 -21.70771,-21.7414 -32.44202,-32.72856 -7.95854,-8.14599 -10.19479,-14.31347 -23.69875,-24.61021 -3.75997,-2.86698 6.28693,11.4831 2.28401,13.99976 -4.26474,2.68124 -7.55365,-7.23675 -12.3873,-8.65548 -6.39813,-1.87791 -14.358,4.35489 -19.9873,0.78093 -4.65556,-2.95572 -2.30503,-11.59963 -6.44901,-15.23801 -4.96324,-4.35771 -13.78872,-1.36433 -19.09531,-5.29669 -4.7833,-3.54459 -4.34887,-12.22427 -9.57574,-15.07453 -4.73003,-2.57936 -11.15373,2.08105 -16.16372,0.0997 -12.57557,-4.97369 -29.41772,-27.93528 -29.41772,-27.93528 0,0 1.17294,12.20741 -3.27901,13.80032 -12.77373,4.57039 -22.72753,-15.1213 -32.38846,-24.64617 -4.02325,-3.9666 -5.12342,-11.46292 -10.45161,-13.34204 -5.81045,-2.04921 -11.85187,4.47216 -18.00614,4.17943 -5.81871,-0.27679 -12.26427,-1.62788 -16.57216,-5.54915 -3.40362,-3.09811 -4.97209,-8.06552 -5.59296,-12.6259 -0.82887,-6.08802 7.59361,-14.535828 2.68778,-18.234971 -2.72167,-2.052198 -5.9482,3.698905 -9.31693,4.219116 -7.28946,1.125621 -17.00405,2.83354 -21.97224,-2.618102 -3.22051,-3.533908 -1.28758,-9.645854 -0.36873,-14.337984 0.44878,-2.291612 4.13524,-4.498432 2.80781,-6.419589 -1.78095,-2.577512 -6.30922,1.068378 -9.38604,0.478113 -5.02849,-0.964678 -11.93212,-1.703839 -13.96004,-6.405194 -1.81386,-4.205098 6.44892,-8.918599 4.4004,-13.014491 -2.69598,-5.390427 -13.91295,-0.570255 -17.18007,-5.634942 -2.88867,-4.477992 4.83531,-11.570019 1.72238,-15.89513 -3.4778,-4.83208 -15.14462,1.676642 -17.44861,-3.812936 -2.1648,-5.15798 10.48796,-8.840418 8.92835,-14.212519 -1.55332,-5.3503736 -14.58577,-1.6435166 -15.08895,-7.1920976 -0.98107,-10.818035 16.19947,-15.3855964 26.41237,-19.0855774 14.39049,-5.213354 30.99582,0.664371 45.80992,-3.183843 19.73729,-5.127044 55.37778,-25.997119 55.37778,-25.997119 0,0 -38.16217,16.235936 -58.30885,20.597065 -16.45899,3.56285 -34.88644,-2.336119 -50.32978,4.379198 -12.67317,5.510775 -30.7972,27.7586764 -30.7972,27.7586764 0,0 18.48906,0.553822 19.51928,6.6040486 -30.70305,31.389935 -92.222313,124.278718 -92.222313,124.278718 0,0 -11.50312,3.31774 -14.86007,-0.32492 -3.20429,-3.47699 3.45242,-10.21729 0.84646,-14.16267 -1.15112,-1.74277 -4.82355,-0.31936 -5.89803,-2.1104 -2.42329,-4.0394 4.87015,-10.19895 2.0606,-13.97991 -1.83231,-2.46585 -7.16462,1.02761 -9.11747,-1.34388 -3.92522,-4.76668 -1.61953,-12.849867 0.86203,-18.504085 19.31026,-43.998616 66.876563,-69.037699 101.427613,-102.429155 20.42388,-19.738346 39.65145,-41.061406 62.55924,-57.853366 32.11872,-23.54372 70.7473,-36.951354 103.75227,-59.235644 20.05294,-13.53933 33.85121,-37.78513 56.94043,-45.01849 7.23269,-2.26583 16.00584,-3.89526 23.82039,-2.87807 z m -1.73228,7.88047 c -3.02138,-0.44451 -5.8065,1.47709 -6.22127,4.29237 -0.41515,2.81522 1.6971,5.45867 4.71823,5.90482 3.02253,0.44652 5.81005,-1.47518 6.22502,-4.29182 0.41535,-2.81658 -1.69914,-5.46097 -4.72198,-5.90537 z m 26.4089,6.63899 c 4.14654,0.53881 6.75398,1.64021 10.25387,2.49581 4.42445,1.0816 8.67417,1.83643 13.2078,3.34873 4.61275,1.53867 13.3287,5.9329 13.3287,5.9329 0,0 -11.94691,3.04278 -17.76406,5.0578 -7.41865,2.56977 -21.78782,8.94245 -21.78782,8.94245 0,0 -2.85118,-2.84108 -3.27497,-4.70384 -0.66462,-2.92134 1.43818,-8.87375 1.43818,-8.87375 0,0 9.53537,0.30558 14.30173,0.18898 6.72572,-0.16452 20.14483,-1.25182 20.14483,-1.25182 0,0 -13.22521,0.066 -19.83652,0.0179 -4.85131,-0.0353 -14.55292,-0.22603 -14.55292,-0.22603 0,0 -0.70923,-5.24023 0.10642,-7.66045 0.45811,-1.35945 1.30993,-3.55881 2.55562,-3.46139 0.66237,0.0517 1.28677,0.11576 1.87916,0.19261 z"
       id="path4186"
       inkscape:connector-curvature="0" />
  </g>
</svg>
