<?xml version="1.0" encoding="UTF-8" standalone="no"?>
<!-- Created with Inkscape (http://www.inkscape.org/) -->

<svg
   xmlns:dc="http://purl.org/dc/elements/1.1/"
   xmlns:cc="http://creativecommons.org/ns#"
   xmlns:rdf="http://www.w3.org/1999/02/22-rdf-syntax-ns#"
   xmlns:svg="http://www.w3.org/2000/svg"
   xmlns="http://www.w3.org/2000/svg"
   xmlns:sodipodi="http://sodipodi.sourceforge.net/DTD/sodipodi-0.dtd"
   xmlns:inkscape="http://www.inkscape.org/namespaces/inkscape"
   id="svg2"
   version="1.1"
   inkscape:version="0.92.2 (unknown)"
   width="1340.2804"
   height="685.28052"
   viewBox="0 0 1256.5129 642.4505"
   sodipodi:docname="logoCostaRica_MozillaCOLOR.svg"
   inkscape:export-filename="/media/keik/Datos/GITHUB/logosMozCA/PorPais/Costa Rica/logoCostaRica_MozillaCOLOR.png"
   inkscape:export-xdpi="300"
   inkscape:export-ydpi="300">
  <title
     id="title4536">LogoMozillaHonduras</title>
  <metadata
     id="metadata8">
    <rdf:RDF>
      <cc:Work
         rdf:about="">
        <dc:format>image/svg+xml</dc:format>
        <dc:type
           rdf:resource="http://purl.org/dc/dcmitype/StillImage" />
        <dc:title>LogoMozillaHonduras</dc:title>
        <cc:license
           rdf:resource="http://creativecommons.org/licenses/by-nd/4.0/" />
        <dc:creator>
          <cc:Agent>
            <dc:title>KarlaLHdz</dc:title>
          </cc:Agent>
        </dc:creator>
        <dc:source>Mozilla El Salvador</dc:source>
        <dc:description>Hecho para Mozilla Centroamerica en el año 2017</dc:description>
      </cc:Work>
      <cc:License
         rdf:about="http://creativecommons.org/licenses/by-nd/4.0/">
        <cc:permits
           rdf:resource="http://creativecommons.org/ns#Reproduction" />
        <cc:permits
           rdf:resource="http://creativecommons.org/ns#Distribution" />
        <cc:requires
           rdf:resource="http://creativecommons.org/ns#Notice" />
        <cc:requires
           rdf:resource="http://creativecommons.org/ns#Attribution" />
      </cc:License>
    </rdf:RDF>
  </metadata>
  <defs
     id="defs6" />
  <sodipodi:namedview
     pagecolor="#ffffff"
     bordercolor="#666666"
     borderopacity="1"
     objecttolerance="10"
     gridtolerance="10"
     guidetolerance="10"
     inkscape:pageopacity="0"
     inkscape:pageshadow="2"
     inkscape:window-width="1332"
     inkscape:window-height="715"
     id="namedview4"
     showgrid="false"
     showborder="true"
     inkscape:zoom="0.57226831"
     inkscape:cx="676.24398"
     inkscape:cy="342.64026"
     inkscape:window-x="34"
     inkscape:window-y="0"
     inkscape:window-maximized="1"
     inkscape:current-layer="layer2"
     borderlayer="true"
     inkscape:showpageshadow="false"
     units="px"
     showguides="true"
     fit-margin-top="0"
     fit-margin-left="0"
     fit-margin-right="0"
     fit-margin-bottom="0"
     inkscape:guide-bbox="true"
     inkscape:measure-start="0,0"
     inkscape:measure-end="0,0">
    <sodipodi:guide
       position="1090.1971,627.5121"
       orientation="1,0"
       id="guide1228"
       inkscape:locked="false" />
    <sodipodi:guide
       position="166.31595,476.13455"
       orientation="1,0"
       id="guide1321"
       inkscape:locked="false" />
    <sodipodi:guide
       position="1090.197,476.13455"
       orientation="0,1"
       id="guide1343"
       inkscape:locked="false" />
    <sodipodi:guide
       position="1090.197,166.31595"
       orientation="0,1"
       id="guide1345"
       inkscape:locked="false" />
  </sodipodi:namedview>
  <g
     inkscape:groupmode="layer"
     id="layer2"
     inkscape:label="Layer 2"
     style="opacity:1"
     transform="translate(-29.083954,391.35416)">
    <rect
       style="opacity:1;fill:#d40000;fill-opacity:1;stroke:none;stroke-width:2.41950822;stroke-linecap:round;stroke-linejoin:round;stroke-miterlimit:4;stroke-dasharray:none;stroke-opacity:1;paint-order:stroke markers fill"
       id="rect4489-4-9"
       width="422.89352"
       height="115.89453"
       x="695.80072"
       y="-31.247391" />
    <rect
       style="opacity:1;fill:#ffffff;fill-opacity:1;stroke:none;stroke-width:1.30675137;stroke-linecap:round;stroke-linejoin:round;stroke-miterlimit:4;stroke-dasharray:none;stroke-opacity:1;paint-order:stroke markers fill"
       id="rect4489"
       width="160.46526"
       height="89.093208"
       x="954.68121"
       y="-12.581976" />
    <rect
       style="opacity:1;fill:#ffffff;fill-opacity:1;stroke:none;stroke-width:1.63171554;stroke-linecap:round;stroke-linejoin:round;stroke-miterlimit:4;stroke-dasharray:none;stroke-opacity:1;paint-order:stroke markers fill"
       id="rect4489-4"
       width="228.58051"
       height="97.519043"
       x="697.06464"
       y="-12.738653" />
    <text
       xml:space="preserve"
       style="font-style:normal;font-weight:normal;font-size:102.51811218px;line-height:1;font-family:sans-serif;text-align:center;letter-spacing:0px;word-spacing:0px;text-anchor:middle;fill:#d40000;fill-opacity:1;stroke:none;stroke-width:10.98408127"
       x="906.92566"
       y="62.847569"
       id="text4512-5"><tspan
         sodipodi:role="line"
         id="tspan4510-3"
         x="906.92566"
         y="62.847569"
         style="font-style:normal;font-variant:normal;font-weight:normal;font-stretch:normal;font-family:'Zilla Slab Highlight';-inkscape-font-specification:'Zilla Slab Highlight';fill:#d40000;fill-opacity:1;stroke-width:10.98408127">costa rica</tspan></text>
    <rect
       x="560.50665"
       id="rect4"
       height="159.71632"
       width="558.77441"
       y="-225.03821"
       style="opacity:1;stroke-width:1.55215108;fill:#214478;fill-opacity:1" />
    <path
       style="opacity:1;fill:#ffffff;stroke-width:1.55215108"
       inkscape:connector-curvature="0"
       id="path6"
       d="m 1094.1361,-110.33423 c -1.0864,0.31044 -2.0177,0.46564 -2.949,0.46564 -3.2595,0 -4.8117,-1.39693 -4.8117,-5.43252 v -30.26695 c 0,-15.98715 -12.7277,-23.74791 -27.7834,-23.74791 -11.486,0 -17.6946,1.39694 -29.9566,6.36382 l -2.4835,16.14237 15.9872,1.70737 2.3282,-7.91597 c 3.2596,-1.70737 6.5191,-2.0178 10.7099,-2.0178 11.3307,0 11.4859,8.53683 11.4859,15.67673 v 2.32822 c -3.57,-0.46564 -7.6056,-0.62085 -11.4859,-0.62085 -15.9872,0 -32.5952,4.03559 -32.5952,21.26446 0,14.59023 11.4859,20.022752 21.5749,20.022752 11.3308,0 18.4707,-6.829472 22.5062,-13.969362 0.9313,8.53684 6.0534,13.969362 15.3663,13.969362 4.346,0 8.8473,-1.241716 12.5725,-3.259508 z m -42.8393,-0.46564 c -6.0534,0 -8.2264,-3.56995 -8.2264,-8.07119 0,-7.60554 6.2087,-9.62333 13.3486,-9.62333 3.2594,0 6.8294,0.46564 10.0889,0.93129 -0.4656,11.64113 -8.0712,16.76323 -15.2111,16.76323 z m -26.8522,-93.90514 -30.26698,106.632771 h -19.71233 l 30.26691,-106.632771 z m -40.66639,0 -30.26694,106.632771 h -19.71233 l 30.26694,-106.632771 z m -83.81616,36.78598 h 20.95404 v 25.14485 h -20.95404 z m 0,44.85717 h 20.95404 v 25.144839 h -20.95404 z m -30.57739,-0.9313 15.83196,1.55215 -4.34602,24.523989 h -60.99956 l -2.01779,-10.554619 38.49334,-44.23631 h -21.88532 l -3.10432,10.86506 -14.435,-1.55215 2.48345,-24.52399 h 61.30998 l 1.55215,10.55463 -38.8038,44.2363 h 22.66142 z m -100.11375,-45.32281 c -25.14484,0 -37.56205,16.91845 -37.56205,37.40684 0,22.35098 14.90065,35.544262 36.47555,35.544262 22.35098,0 38.49333,-14.124572 38.49333,-36.475552 0,-19.5571 -12.26198,-36.47555 -37.40683,-36.47555 z m -0.46564,57.42959 c -10.86506,0 -16.4528,-9.3129 -16.4528,-21.41968 0,-13.19329 6.36381,-20.79883 16.60802,-20.79883 9.46812,0 17.07365,6.36382 17.07365,20.4884 0,13.50371 -6.82945,21.73011 -17.22887,21.73011 z m -55.10136,-1.39693 h 9.31291 v 15.211071 h -29.18043 v -39.269421 c 0,-12.10677 -4.0356,-16.76323 -11.95158,-16.76323 -9.62334,0 -13.5037,6.82947 -13.5037,16.60802 v 24.36877 h 9.3129 v 15.211079 h -29.33567 v -39.424639 c 0,-12.10677 -4.03558,-16.76323 -11.95155,-16.76323 -9.62333,0 -13.50371,6.82947 -13.50371,16.60802 v 24.36877 h 13.3485 v 15.211079 H 593.72263 V -113.1281 h 9.3129 v -39.57985 h -9.3129 v -15.21108 h 29.33566 v 10.55463 c 4.19081,-7.45033 11.48591,-11.95157 21.26447,-11.95157 10.08899,0 19.40189,4.81167 22.81662,15.05587 3.88038,-9.31291 11.79634,-15.05587 22.81661,-15.05587 12.57243,0 24.05835,7.60554 24.05835,24.21356 v 31.8191 z"
       class="st0" />
    <path
       style="display:inline;opacity:1;fill:#808080;fill-opacity:1;fill-rule:nonzero;stroke:none;stroke-width:4.03210592;stroke-linecap:round;stroke-linejoin:round;stroke-miterlimit:4;stroke-dasharray:none;stroke-dashoffset:0;stroke-opacity:1"
       d="m 407.8424,-225.03825 c 3.27482,-0.0631 6.46058,0.48527 9.08273,2.23116 7.81057,5.20051 5.39697,4.54147 5.55568,9.45834 0.0685,2.12206 0.35938,7.14017 0.17122,9.26874 -0.18071,2.04451 2.46369,4.25444 2.97045,6.27227 0.86327,3.43751 -6.03581,8.78828 -7.33533,12.02681 -2.21279,5.51442 -7.44198,9.44391 -9.75416,14.91742 -3.00009,7.10201 -5.05319,22.57166 -5.05319,22.57166 0,0 -15.78569,-12.18189 -25.14867,-14.83871 -6.14341,-1.74325 -19.15344,-0.38067 -19.15344,-0.38067 0,0 19.43724,4.2565 28.11161,8.87292 10.42529,5.54825 27.71706,22.06745 27.71706,22.06745 0,0 47.27307,58.689542 56.81173,86.694687 1.85074,5.433688 -13.22198,-11.033912 -13.22198,-11.033897 0,0 33.76056,48.2360553 53.79263,69.67547 16.60241,17.768867 30.30488,28.894715 54.59357,48.394749 2.92073,2.344938 7.16249,7.377185 4.70423,10.203223 -2.23854,2.57351 -6.73728,-1.446727 -9.79575,-2.956658 -19.31431,-9.535075 -67.11982,-53.520289 -52.43988,-37.757692 16.98074,18.233074 22.82958,24.413214 35.83464,34.816953 4.24042,3.392179 10.17197,4.727668 13.63965,8.906585 1.66566,2.007265 4.47858,5.084138 2.99632,7.230339 -2.42012,3.50411 -8.67132,0.760454 -12.76927,-0.398135 C 538.7549,78.265217 530.05792,71.024139 521.02376,65.097201 512.12691,59.260362 503.92124,52.429926 495.43992,46.004233 489.15179,41.24017 486.9869,37.244367 476.679,31.575873 c -2.87008,-1.578314 5.48536,7.221794 3.00126,9.356663 -2.64659,2.274493 -5.91746,-4.182707 -9.3745,-4.658676 -4.57595,-0.630016 -9.38961,4.456754 -13.61286,2.585907 -3.49276,-1.547204 -2.7694,-7.710213 -5.98171,-9.777597 -3.84738,-2.476123 -9.58644,0.480181 -13.6254,-1.669308 -3.6407,-1.93753 -4.2337,-7.928427 -8.10701,-9.344764 -3.50514,-1.281733 -7.42772,2.570185 -11.06329,1.726861 -9.12569,-2.117015 -23.0201,-16.1194808 -23.0201,-16.1194808 0,0 2.05617,8.2427598 -0.83035,9.7908568 -8.28211,4.441823 -17.1219,-8.0272979 -24.71781,-13.5613298 -3.16327,-2.3046355 -4.68618,-7.3273661 -8.52926,-8.0679978 -4.19092,-0.8076707 -7.66066,4.2799411 -11.90688,4.7108857 -4.01471,0.4074374 -8.56911,0.1432074 -11.92275,-2.1011651 -2.64968,-1.7732219 -4.23391,-5.015377 -5.1272,-8.075923 -1.19255,-4.085754 3.71074,-10.737464 -0.0297,-12.768304 -2.07514,-1.126655 -3.69546,3.144419 -5.94996,3.84647 -4.87841,1.519119 -11.35848,3.686009 -15.32149,0.460959 -2.56895,-2.090572 -1.87188,-6.476113 -1.72384,-9.784905 0.0723,-1.615997 2.37141,-3.506121 1.26487,-4.686073 -1.48457,-1.58307 -4.21272,1.379323 -6.38118,1.290663 -3.54394,-0.144918 -8.34935,0.05708 -10.22105,-2.955667 -1.67413,-2.694728 3.50291,-6.771723 1.67921,-9.36756 -2.40008,-3.416263 -9.59006,1.03694 -12.348,-2.097562 -2.43847,-2.771396 2.12539,-8.422599 -0.45103,-11.066251 -2.87842,-2.953529 -10.20332,2.702636 -12.34502,-0.821775 -2.01235,-3.311528 6.27802,-7.132614 4.65832,-10.652936 -1.61317,-3.50607 -10.16114,0.370714 -11.07521,-3.378908 -1.78215,-7.310605 9.5193,-12.202682 16.13636,-15.78542 9.32375,-5.048209 21.30295,-2.725344 31.057,-6.881786 12.99562,-5.53771 35.27091,-23.49257 35.27091,-23.49257 0,0 -24.47836,15.03883 -37.83304,20.09383 -10.91024,4.129728 -24.13991,1.979279 -34.03084,8.164494 -8.11674,5.07573 -18.25038,22.177166 -18.25038,22.177166 0,0 12.72341,-1.517767 14.05001,2.521437 -17.81327,24.655238 -50.42786,94.604472 -50.42786,94.604472 0,0 -7.54018,3.453274 -10.21375,1.302201 -2.55198,-2.053237 1.3168,-7.353966 -0.87334,-9.789488 -0.96743,-1.075827 -3.33732,0.276156 -4.2572,-0.840604 -2.07464,-2.518679 2.28996,-7.486879 -0.0229,-9.7888676 -1.50831,-1.5013063 -4.80294,1.4391653 -6.38414,0.014876 -3.17822,-2.8628172 -2.42805,-8.6370718 -1.30815,-12.7653284 8.71445,-32.124227 38.73215,-54.158927 58.97626,-80.580224 11.96673,-15.618134 22.95129,-32.199184 36.92206,-46.053704 19.58822,-19.42516 44.67633,-32.57422 65.00095,-51.22751 12.3487,-11.33324 19.31382,-29.35952 34.38967,-36.68418 4.72251,-2.29444 10.56567,-4.31097 16.02368,-4.41596 z m -0.37814,5.57655 c -2.11551,0.005 -3.82637,1.60774 -3.82166,3.579 0.004,1.97127 1.72278,3.56551 3.8383,3.56117 2.1165,-0.004 3.829,-1.60681 3.82428,-3.57901 -0.004,-1.97222 -1.72441,-3.56689 -3.84092,-3.56116 z m 18.77357,1.83844 c 2.89602,-0.0563 4.79537,0.43067 7.28088,0.6577 3.14212,0.28699 6.13098,0.36805 9.39209,0.93891 3.318,0.58079 9.74006,2.69687 9.74006,2.69687 0,0 -7.87242,3.31044 -11.65091,5.28781 -4.81871,2.52174 -14.00892,8.36199 -14.00892,8.36199 0,0 -2.24483,-1.65381 -2.72629,-2.88648 -0.75509,-1.93317 0.0748,-6.22685 0.0748,-6.22685 0,0 6.56388,-0.76908 9.8173,-1.33804 4.5908,-0.80284 13.67246,-2.92467 13.67246,-2.92467 0,0 -9.05362,1.40222 -13.58787,2.04773 -3.32718,0.47361 -9.99317,1.33843 -9.99317,1.33843 0,0 -1.02359,-3.51723 -0.71307,-5.25899 0.17434,-0.97834 0.53223,-2.57251 1.39563,-2.63359 0.45909,-0.0325 0.89342,-0.0528 1.30715,-0.0608 z"
       id="path4186"
       inkscape:connector-curvature="0" />
  </g>
</svg>
