<?xml version="1.0" encoding="UTF-8" standalone="no"?>
<!-- Created with Inkscape (http://www.inkscape.org/) -->

<svg
   xmlns:dc="http://purl.org/dc/elements/1.1/"
   xmlns:cc="http://creativecommons.org/ns#"
   xmlns:rdf="http://www.w3.org/1999/02/22-rdf-syntax-ns#"
   xmlns:svg="http://www.w3.org/2000/svg"
   xmlns="http://www.w3.org/2000/svg"
   xmlns:sodipodi="http://sodipodi.sourceforge.net/DTD/sodipodi-0.dtd"
   xmlns:inkscape="http://www.inkscape.org/namespaces/inkscape"
   id="svg2"
   version="1.1"
   inkscape:version="0.92.2 (unknown)"
   width="1340.2804"
   height="685.28052"
   viewBox="0 0 1256.5129 642.4505"
   sodipodi:docname="logoElSalvador_MozillaCOLOR.svg"
   inkscape:export-filename="/media/keik/Datos/GITHUB/logosMozCA/PorPais/El Salvador/LogoElSalvador_MozillaCOLOR.png"
   inkscape:export-xdpi="300"
   inkscape:export-ydpi="300">
  <title
     id="title4536">LogoMozillaHonduras</title>
  <metadata
     id="metadata8">
    <rdf:RDF>
      <cc:Work
         rdf:about="">
        <dc:format>image/svg+xml</dc:format>
        <dc:type
           rdf:resource="http://purl.org/dc/dcmitype/StillImage" />
        <dc:title>LogoMozillaHonduras</dc:title>
        <cc:license
           rdf:resource="http://creativecommons.org/licenses/by-nd/4.0/" />
        <dc:creator>
          <cc:Agent>
            <dc:title>KarlaLHdz</dc:title>
          </cc:Agent>
        </dc:creator>
        <dc:source>Mozilla El Salvador</dc:source>
        <dc:description>Hecho para Mozilla Centroamerica en el año 2017</dc:description>
      </cc:Work>
      <cc:License
         rdf:about="http://creativecommons.org/licenses/by-nd/4.0/">
        <cc:permits
           rdf:resource="http://creativecommons.org/ns#Reproduction" />
        <cc:permits
           rdf:resource="http://creativecommons.org/ns#Distribution" />
        <cc:requires
           rdf:resource="http://creativecommons.org/ns#Notice" />
        <cc:requires
           rdf:resource="http://creativecommons.org/ns#Attribution" />
      </cc:License>
    </rdf:RDF>
  </metadata>
  <defs
     id="defs6" />
  <sodipodi:namedview
     pagecolor="#ffffff"
     bordercolor="#666666"
     borderopacity="1"
     objecttolerance="10"
     gridtolerance="10"
     guidetolerance="10"
     inkscape:pageopacity="0"
     inkscape:pageshadow="2"
     inkscape:window-width="1332"
     inkscape:window-height="715"
     id="namedview4"
     showgrid="false"
     showborder="true"
     inkscape:zoom="0.53943936"
     inkscape:cx="670.1402"
     inkscape:cy="342.64026"
     inkscape:window-x="34"
     inkscape:window-y="0"
     inkscape:window-maximized="1"
     inkscape:current-layer="layer2"
     borderlayer="true"
     inkscape:showpageshadow="false"
     units="px"
     showguides="false"
     fit-margin-top="0"
     fit-margin-left="0"
     fit-margin-right="0"
     fit-margin-bottom="0"
     inkscape:guide-bbox="true"
     inkscape:measure-start="0,0"
     inkscape:measure-end="0,0">
    <sodipodi:guide
       position="1090.1971,627.5121"
       orientation="1,0"
       id="guide1228"
       inkscape:locked="false" />
    <sodipodi:guide
       position="166.31595,476.13455"
       orientation="1,0"
       id="guide1321"
       inkscape:locked="false" />
    <sodipodi:guide
       position="1090.197,476.13455"
       orientation="0,1"
       id="guide1343"
       inkscape:locked="false" />
    <sodipodi:guide
       position="1090.197,166.31595"
       orientation="0,1"
       id="guide1345"
       inkscape:locked="false" />
  </sodipodi:namedview>
  <g
     inkscape:groupmode="layer"
     id="layer2"
     inkscape:label="Layer 2"
     style="opacity:1"
     transform="translate(-29.083954,391.35416)">
    <path
       style="display:inline;opacity:1;fill:#808080;fill-opacity:1;fill-rule:nonzero;stroke:none;stroke-width:11.52409744;stroke-linecap:round;stroke-linejoin:round;stroke-miterlimit:4;stroke-dasharray:none;stroke-dashoffset:0;stroke-opacity:1"
       d="m 884.2305,-202.21308 c -1.0478,-0.008 -2.02401,0.24748 -2.8882,0.9493 -1.98821,1.61503 -0.0958,4.56002 1.24708,6.69781 1.54798,2.4647 6.45387,3.39593 9.34689,3.81394 4.43416,0.64065 23.54527,-0.51685 41.61736,-1.94157 -12.9539,1.61491 -30.85608,3.57504 -43.09255,3.79915 -5.3545,0.0982 -12.12064,-4.66383 -16.03843,-1.01264 -2.25347,2.10012 -0.37892,6.22039 2.14324,7.98877 6.88913,4.83029 29.84725,1.03864 33.29194,1.46274 -4.87417,1.15165 -33.64396,4.34258 -38.43272,4.77176 -6.10677,0.76086 -4.90238,13.39934 4.77009,12.35233 18.57903,-2.01112 57.19224,-11.79034 57.19224,-11.79034 1.02753,3.47331 -54.69121,14.90901 -56.32424,14.88475 -2.12306,-0.0317 3.31848,6.54283 5.81763,7.50547 4.6551,1.79307 10.43237,0.9483 15.59622,0.33662 13.82287,-1.63733 52.7754,-16.97146 40.38295,-10.62979 -6.41976,3.28522 -23.69947,8.13639 -35.46929,12.09472 -10.86668,3.94304 5.49994,5.48595 16.03109,3.30335 9.58731,-0.4857 25.21583,-9.38095 27.46911,-8.63685 0.89308,0.29484 -25.4761,10.19746 -24.55059,10.50979 -7.95447,4.39841 7.25518,3.14569 19.66741,0.88027 2.24682,-0.35195 11.27245,-4.75331 10.75273,-3.89076 -1.5477,2.5687 -12.0346,5.62669 -14.67024,6.23571 -5.60961,1.29622 -0.0908,4.06898 10.60302,2.45365 5.78414,0.52109 6.86323,-0.11068 9.50612,-0.54837 2.95678,-0.48991 5.14558,1.03588 -7.94541,4.214 -4.56275,0.80121 -1.5088,3.73139 8.82259,3.31813 0,0 18.6166,-20.96506 29.75514,-29.32546 6.55216,-4.91795 15.15182,-6.75699 21.45332,-11.99214 2.7451,-2.28039 6.8506,-8.2299 6.8506,-8.2299 0,0 -9.5985,-18.16715 -18.44669,-21.36574 -1.07313,-0.38788 -2.16654,-0.6339 -3.26292,-0.79193 0.0499,-0.0175 0.79901,-0.28208 0.79901,-0.28208 -0.10829,0.0126 -2.10125,0.1493 -2.48541,0.18108 -2.05226,-0.10542 -4.12695,0.047 -6.22826,0.46113 -19.73902,1.44062 -79.31367,5.43779 -93.04658,4.83483 -3.30786,-0.14526 -7.09099,-2.58569 -10.23426,-2.61206 z m 168.8123,-6.71682 c -1.1059,0.10829 -0.663,0.84499 2.1152,1.35154 0,0 1.876,1.32284 3.1809,1.86176 1.3048,0.53896 -4.307,-2.00922 -7.0788,-1.6954 -2.7719,0.31363 -13.5234,1.87544 -9.0766,2.16715 4.447,0.29173 9.3818,1.8149 9.3818,1.8149 0,0 -8.9468,-1.60288 -11.9889,-0.26179 -3.0421,1.3411 -6.7842,2.24631 -8.9324,5.36756 1.1251,0.89367 2.5299,0.008 4.5156,-0.47071 3.614,-1.51048 5.9979,-1.86915 9.2862,-0.95203 -0.059,0.61069 -1.0841,0.6266 -1.6273,0.93306 -1.1623,0.65543 -3.4991,1.94408 -3.4991,1.94408 3.9586,-0.60477 7.7753,-1.77519 11.6715,-1.36925 1.996,0.2078 5.7064,1.91918 5.7064,1.91918 0,0 -5.0738,-1.04562 -7.6437,-1.03299 -4.4654,0.0218 -13.2546,1.92495 -13.2546,1.92495 l 5.7016,-3.8254 c 0,0 -4.1856,0.58001 -5.9451,1.64302 -8.8639,5.35568 -11.8937,14.94404 -21.2612,22.65493 -7.8429,6.45596 -18.54854,8.8185 -26.29465,15.39034 -16.29837,13.82751 -23.32362,25.38845 -43.8696,46.47125 -5.95141,6.10689 -8.54178,5.62492 -21.88082,6.02528 -4.92207,0.1478 -9.94785,-1.2256 -15.9608,-2.36011 -6.013,-1.13457 0.0111,7.86162 3.17266,13.809708 1.70775,3.213018 3.06242,8.773997 5.33073,10.533598 3.3252,1.399077 5.45312,1.861832 6.90683,1.890503 -1.42644,2.374287 -2.8693,5.021804 -3.29143,6.808885 -0.50119,2.121956 3.6171,0.904499 6.77691,-0.273887 1.51942,4.098095 4.16718,12.463247 7.90673,17.752937 2.19203,3.100673 4.97043,9.728785 8.26464,7.840123 2.87481,-1.64819 5.00163,-12.108284 5.62224,-15.364076 2.3994,-12.588956 14.02594,-25.905677 14.02594,-25.905677 l 17.57421,-3.648703 -15.60813,-2.014755 14.13207,-10.575766 -21.50167,6.63991 15.73041,-25.03214 -8.94139,19.76361 17.6115,-2.59901 -9.55379,9.63693 c 0,0 9.60272,2.834752 14.53791,2.803869 2.89954,-0.01805 8.52354,-1.753035 8.52354,-1.753035 1.52738,-23.887904 1.85607,-23.880504 6.23162,-32.932264 0,0 -8.74184,40.047039 -1.97523,31.84193 4.31637,-5.23394 10.28847,-11.72594 10.37427,-11.0011 0.079,0.67045 -10.19909,13.157719 -10.09091,13.76754 0.10776,4.548545 -1.14289,18.500267 3.10381,10.260653 3.0699,-5.059638 9.8282,-16.364953 10.0635,-15.816463 0.2659,0.62009 -9.3455,17.802641 -9.1179,18.441988 -2.0231,6.232489 0.6917,14.198883 3.8314,9.013079 2.3385,-6.907021 8.9389,-16.892091 9.1419,-16.475503 0.1377,0.283249 -8.2587,18.29892 -8.1209,18.579666 -0.6081,6.406594 0.6689,17.28602 5.1897,10.922573 4.6844,-9.543299 9.2416,-17.298956 9.3687,-16.965796 0.1606,0.421352 -8.6606,18.828084 -8.5125,19.257198 -1.6626,12.230373 -0.048,23.696349 3.1146,16.320391 5.9461,-14.539292 19.0959,-38.170938 14.9285,-28.339694 -6.0304,14.226001 -14.6979,31.533939 -14.6495,32.412957 -1.0501,6.747546 -4.6093,27.57283 1.8483,16.381931 4.1433,-11.767093 18.171,-39.60477 13.8302,-29.434241 -7.4543,17.465669 -14.8561,33.918264 -14.7908,34.90462 -0.843,7.873869 -3.4419,27.7353234 2.833,16.4074962 5.2713,-9.5163922 11.3828,-21.7707862 14.6742,-32.8871142 -0.2136,0.509208 1.3706,5.505962 -9.732,29.9400874 -1.4424,3.1100542 -1.2384,12.9977428 3.4578,13.9578953 5.6971,1.1648323 9.1627,-10.10787449 10.5045,-13.927882 0.7585,-2.1592841 1.4599,-4.0654339 2.2074,-6.1694077 -0.4863,4.3298063 -0.3965,8.37962 0.5993,11.7568077 0.5676,1.9250864 2.4249,4.1042386 4.4317,4.0687775 7.3948,-3.3497084 5.6283,-12.451731 6.3146,-18.4950852 1.3055,-10.340577 4.3633,-30.960162 4.3633,-30.960162 0,0 -1.3592,19.149367 1.4326,28.107002 0.672,2.156778 1.3042,5.608022 3.5577,5.76564 2.2274,0.155625 3.5463,-3.044496 4.2782,-5.153887 1.4476,-4.171837 -0.6042,-8.833402 -0.3247,-13.240427 1.3153,-20.73554 3.2728,-40.819723 7.5586,-60.781539 1.3251,-6.171654 5.3028,-11.789631 5.5806,-18.095801 0.3696,-8.38378 0.7861,-18.81444 -5.2783,-24.61611 -6.1122,-5.84749 -17.7488,0.10086 -25.0215,-4.21877 -5.9644,-3.54265 -6.8706,-12.86414 -12.8565,-16.37021 -5.4219,-3.17549 -18.6272,-2.89963 -18.6272,-2.89963 0,0 15.0038,-3.20579 21.6553,-0.39859 6.9574,2.93625 15.5065,16.51991 15.5065,16.51991 l 11.1895,-22.68315 c -1.6772,-2.14387 -3.0283,0.0985 -5.2512,-14.83244 -8.2907,6.05736 -18.3394,7.04163 -28.2628,9.92478 0,0 2.3161,-4.92307 8.208,-11.43431 2.3216,-2.56561 9.868,-9.66537 9.868,-9.66537 0,0 -3.9961,1.31498 -5.8823,2.23355 -2.3351,1.13727 -3.1585,1.44831 -6.669,4.03187 0,0 4.1926,-5.82505 6.0887,-9.00843 4.2841,-4.54161 16.1705,-3.66859 21.4783,-1.02935 0.079,-0.15755 0.1232,-0.3117 0.1977,-0.46651 1.0341,-1.333 2.936,-3.91458 2.4405,-7.56874 -6.773,-7.36508 -12.9119,-8.94504 -14.7547,-8.76464 z m 66.2383,-1.82828 -48.8789,12.50182 c 0,0 -3.9218,11.91582 -4.7783,12.61715 0,0 10.8467,-4.44522 16.1578,-6.92253 8.4582,-3.9451 24.9854,-12.6385 24.9854,-12.6385 0,0 -16.1399,9.57015 -24.2951,14.20857 -6.4557,3.6719 -19.5001,10.78236 -19.5001,10.78236 0,0 0.058,6.02558 1.0447,8.81662 0.7929,2.24392 3.8024,6.04057 3.8024,6.04057 10.9331,-25.53703 32.9125,-32.60162 51.4621,-45.40606 z m -59.8616,21.20849 c -0.7247,1.4e-4 -1.4159,0.0565 -1.9514,0.20323 -3.7466,1.02601 -6.8113,3.82241 -9.7619,6.34915 -4.4007,3.76881 -11.613,12.9389 -11.613,12.9389 0,0 12.6394,-2.13805 18.1633,-5.15323 2.4982,-1.36364 5.4195,-3.32071 6.4048,-5.65019 1.5837,-3.74459 3.4646,-8.2056 3.4646,-8.2056 0,0 -2.5328,-0.48592 -4.7064,-0.48244 z m -4.8262,3.93068 c 1.7829,0.23265 3.3361,2.38347 3.2091,4.10593 -0.1334,1.80843 -2.1063,4.19928 -3.9768,3.947 -2.1249,-0.28649 -3.3808,-3.47418 -2.8622,-5.47993 0.3594,-1.38975 2.1565,-2.76537 3.6299,-2.573 z m -38.7409,16.19938 c 0,0 -6.8853,6.00274 -9.5682,9.65257 -2.0932,2.84751 -2.466,6.87108 -4.9617,9.37332 -1.90146,1.90636 -7.12227,3.79591 -7.12227,3.79591 l -0.33003,-1.93084 -7.64874,3.24761 1.04827,-3.94217 c -2.04663,0.97951 -1.85838,1.86806 -7.17172,2.98701 l 3.39407,-5.9873 0.17189,2.79374 c 0.3454,1.03866 6.07965,-3.1561 6.8225,-4.30876 0.58889,-0.91384 -1.93989,5.92519 -1.93989,5.92519 0.48685,0.63593 5.73232,-4.4685 7.75082,-6.66132 1.51797,-1.64902 -0.53751,4.64878 -0.53751,4.64878 0,0 3.62547,-0.83477 4.77451,-2.14874 1.6362,-1.87121 2.1279,-7.14975 2.1279,-7.14975 z m -106.77018,80.583109 c 0,0 -24.76282,20.226828 -37.71175,29.582409 -26.03667,18.811549 -80.27717,53.2968568 -80.27717,53.2968568 0,0 -10.70145,1.793558 -15.27053,4.4890707 -5.15514,3.0413516 -11.09901,6.8796086 -12.76776,12.6277315 -1.30234,4.4857 -2.2451,10.795502 3.13624,13.66109 6.73911,3.58864 14.77333,-2.19705 19.52889,-8.170271 6.21354,-7.8044146 6.90533,-19.9621225 6.90533,-19.9621225 0,0 56.57704,-32.6845875 82.82472,-52.0237655 12.38106,-9.122309 35.01109,-30.045423 35.01109,-30.045423 z m 17.72343,22.192594 c 0,0 -25.11636,22.709468 -37.87548,33.83978 -23.72203,20.693705 -71.90318,61.237436 -71.90318,61.237436 0,0 -17.81013,4.721345 -22.30091,11.840569 -4.39105,6.960903 -10.98768,21.737563 -1.05736,24.668778 8.56323,2.527667 16.61783,-4.961618 21.33052,-11.52881 4.34914,-6.060424 3.78203,-22.059103 3.78203,-22.059103 0,0 47.79975,-38.6265973 71.01832,-58.74408 13.19524,-11.432819 38.7864,-35.192841 38.7864,-35.192841 z M 761.3691,8.2577253 c 0,0 -8.18327,9.5033797 -10.7246,15.6344297 -1.7098,4.124851 -3.22158,9.877469 2.22348,13.211956 4.58488,2.807659 17.21836,-3.799661 21.71485,-6.74665 5.56565,-3.647703 10.49553,-8.685881 10.49553,-8.685881 -6.71769,4.304126 -16.9207,10.167748 -23.54895,5.82615 C 755.69133,23.673646 761.3691,8.2577253 761.3691,8.2577253 Z m 27.91619,39.6677397 c -3.113,4.274009 -10.72432,14.827818 -12.70871,23.513975 -0.86934,3.805026 -2.68191,9.502344 0.54425,11.699096 6.38268,4.345998 16.24414,-2.251236 21.91591,-7.49117 5.03998,-4.656316 11.39763,-13.237598 11.39763,-13.237598 4.92272,-9.059006 -2.64962,1.600281 -9.65181,7.162993 -3.41381,2.711944 -10.20141,2.302185 -13.0419,-1.005368 -4.49536,-5.234494 -1.38978,-12.392609 1.54454,-20.641928 z"
       id="path4155"
       inkscape:connector-curvature="0"
       sodipodi:nodetypes="ccccccccccscccacccccccsccccccccccccccccccccccccccccccccscccccccccccccccccccccccccccccccccccccccccccsccacccccccccccsccccccccccccccccccccccccsccccccccccccccccccccccccccccccccccccccccsccscccsccsccccccccccscccccccccc" />
    <g
       id="g1712">
      <g
         id="g824"
         style="opacity:1"
         transform="matrix(1.4937757,0,0,1.4937757,-627.29597,-254.58326)">
        <rect
           x="550.74927"
           id="rect4"
           height="106.92123"
           width="374.06848"
           y="19.778772"
           style="opacity:1;stroke-width:1.03907907" />
        <path
           style="opacity:1;fill:#ffffff;stroke-width:1.03907907"
           inkscape:connector-curvature="0"
           id="path6"
           d="m 907.98463,96.566727 c -0.7273,0.207819 -1.35075,0.311723 -1.97419,0.311723 -2.18212,0 -3.2212,-0.935168 -3.2212,-3.636774 V 72.979634 c 0,-10.702513 -8.52046,-15.897909 -18.59946,-15.897909 -7.68924,0 -11.84554,0.935171 -20.05428,4.260224 l -1.66252,10.806422 10.70252,1.142988 1.55861,-5.299304 c 2.18207,-1.142987 4.36413,-1.350803 7.16969,-1.350803 7.58522,0 7.68918,5.714935 7.68918,10.494698 v 1.558619 c -2.38993,-0.311723 -5.09153,-0.415631 -7.68918,-0.415631 -10.70256,0 -21.8207,2.701605 -21.8207,14.235383 0,9.767349 7.68918,13.404119 14.44319,13.404119 7.58533,0 12.3651,-4.57195 15.06669,-9.351713 0.62345,5.714943 4.05236,9.351713 10.28683,9.351713 2.90943,0 5.92281,-0.83126 8.4166,-2.18206 z m -28.67858,-0.311722 c -4.0524,0 -5.50711,-2.389881 -5.50711,-5.403211 0,-5.091487 4.15636,-6.44229 8.93613,-6.44229 2.182,0 4.57194,0.311724 6.75395,0.623447 -0.31166,7.793094 -5.40321,11.222054 -10.18297,11.222054 z M 861.32999,33.390723 841.06794,104.77545 h -13.19631 l 20.26204,-71.384727 z m -27.22388,0 -20.26204,71.384727 H 800.64776 L 820.9098,33.390723 Z m -56.11027,24.626173 h 14.02757 v 16.833081 h -14.02757 z m 0,30.029385 h 14.02757 v 16.833079 h -14.02757 z m -20.46987,-0.623448 10.59862,1.039079 -2.90942,16.417448 h -40.83582 l -1.3508,-7.065732 25.76916,-29.613758 H 734.1467 l -2.07817,7.273554 -9.66343,-1.039079 1.66253,-16.417449 h 41.04363 l 1.03908,7.065737 -25.97699,29.613753 h 15.17056 z m -67.0206,-30.341108 c -16.83308,0 -25.14571,11.325962 -25.14571,25.041805 0,14.962738 9.97516,23.79491 24.41836,23.79491 14.96274,0 25.76915,-9.455617 25.76915,-24.418357 0,-13.092396 -8.20872,-24.418358 -25.0418,-24.418358 z m -0.31172,38.445925 c -7.27356,0 -11.01424,-6.234474 -11.01424,-14.339291 0,-8.832172 4.26022,-13.923659 11.11815,-13.923659 6.33838,0 11.42986,4.260224 11.42986,13.715843 0,9.039988 -4.57194,14.547107 -11.53377,14.547107 z m -36.88731,-0.935172 h 6.23448 V 104.77545 H 640.00614 V 78.486753 c 0,-8.104816 -2.70161,-11.222053 -8.00092,-11.222053 -6.44229,0 -9.03998,4.571948 -9.03998,11.118146 v 16.31354 h 6.23447 v 10.182974 h -19.6386 V 78.486753 c 0,-8.104816 -2.7016,-11.222053 -8.0009,-11.222053 -6.44229,0 -9.03999,4.571948 -9.03999,11.118146 v 16.31354 h 8.93608 V 104.87936 H 572.98553 V 94.696386 H 579.22 V 68.19987 h -6.23447 V 58.016896 h 19.6386 v 7.065737 c 2.80551,-4.987579 7.68918,-8.000908 14.23538,-8.000908 6.75402,0 12.98849,3.221145 15.27446,10.079066 2.5977,-6.234473 7.897,-10.079066 15.27446,-10.079066 8.41654,0 16.10573,5.091487 16.10573,16.209634 v 21.301119 z"
           class="st0" />
      </g>
      <g
         transform="matrix(1.138935,0,0,1.138935,-599.64117,-95.528179)"
         id="g1546">
        <rect
           style="opacity:1;fill:#0044a9;fill-opacity:1;stroke:none;stroke-width:2.32342005;stroke-linecap:round;stroke-linejoin:round;stroke-miterlimit:4;stroke-dasharray:none;stroke-opacity:1;paint-order:stroke markers fill"
           id="rect4489-4-9"
           width="441.00497"
           height="102.48298"
           x="698.05658"
           y="55.713337" />
        <rect
           style="opacity:1;fill:#ffffff;fill-opacity:1;stroke:none;stroke-width:0.79108757;stroke-linecap:round;stroke-linejoin:round;stroke-miterlimit:4;stroke-dasharray:none;stroke-opacity:1;paint-order:stroke markers fill"
           id="rect4489-4"
           width="61.192524"
           height="85.623009"
           x="702.31274"
           y="65.622009" />
        <rect
           style="opacity:1;fill:#ffffff;fill-opacity:1;stroke:none;stroke-width:1.83023834;stroke-linecap:round;stroke-linejoin:round;stroke-miterlimit:4;stroke-dasharray:none;stroke-opacity:1;paint-order:stroke markers fill"
           id="rect4489"
           width="327.5401"
           height="85.623009"
           x="808.43781"
           y="67.708443" />
        <g
           aria-label="el  salvador"
           style="font-style:normal;font-weight:normal;font-size:90.84273529px;line-height:1;font-family:sans-serif;text-align:center;letter-spacing:0px;word-spacing:0px;text-anchor:middle;opacity:1;fill:#0044a9;fill-opacity:1;stroke:none;stroke-width:9.73314953"
           id="text4512">
          <path
             inkscape:connector-curvature="0"
             d="m 733.15354,126.15498 q -0.99927,3.8154 -3.72455,6.08646 -2.63444,2.18023 -7.44911,2.18023 -5.99562,0 -9.26596,-3.63371 -3.27033,-3.72455 -3.54286,-10.53776 h 28.43377 q 0.54506,-2.45275 0.54506,-4.81466 0,-3.54287 -1.18096,-6.72236 -1.09011,-3.27034 -3.27033,-5.7231 -2.18023,-2.45275 -5.35973,-3.815392 -3.17949,-1.453484 -7.35826,-1.453484 -4.26961,0 -7.72163,1.63517 -3.45202,1.635166 -5.90478,4.542136 -2.36191,2.81613 -3.63371,6.81321 -1.27179,3.90623 -1.27179,8.63006 0,4.9055 1.36264,8.7209 1.36264,3.81539 3.81539,6.44983 2.5436,2.63444 6.08646,3.99708 3.54287,1.36264 7.81248,1.36264 3.72455,0 6.72236,-0.99927 2.99781,-0.99927 5.0872,-2.63444 2.18022,-1.72601 3.45202,-3.99708 1.2718,-2.27106 1.72601,-4.9055 z m -23.89164,-10.6286 q 0.27253,-2.5436 1.09011,-4.81466 0.81759,-2.27107 2.18023,-3.99708 1.36264,-1.72602 3.36118,-2.72529 2.08938,-0.99927 4.90551,-0.99927 2.99781,0 5.08719,1.18096 2.08938,1.09011 3.36118,2.90697 1.36264,1.72601 1.9077,3.99708 0.54506,2.18022 0.27253,4.45129 z M 698.08824,55.661018 h 44.51294 V 158.31331 h -44.51294 z"
             style="font-style:normal;font-variant:normal;font-weight:normal;font-stretch:normal;font-family:'Zilla Slab Highlight';-inkscape-font-specification:'Zilla Slab Highlight';fill:#0044a9;fill-opacity:1;stroke-width:9.73314953"
             id="path1510" />
          <path
             inkscape:connector-curvature="0"
             d="m 763.74909,138.96381 v -5.17804 h -7.08573 V 76.464004 h -13.53557 v 5.178036 h 7.17658 v 52.14373 h -7.08574 v 5.17804 z M 740.49335,55.661018 h 25.98102 V 158.31331 h -25.98102 z"
             style="font-style:normal;font-variant:normal;font-weight:normal;font-stretch:normal;font-family:'Zilla Slab Highlight';-inkscape-font-specification:'Zilla Slab Highlight';fill:#0044a9;fill-opacity:1;stroke-width:9.73314953"
             id="path1512" />
          <path
             inkscape:connector-curvature="0"
             d="m 844.71552,127.24509 q 0,-3.99708 -1.9077,-6.1773 -1.81685,-2.18023 -4.63298,-3.36118 -2.72528,-1.18096 -5.99562,-1.63517 -3.27034,-0.54506 -6.08646,-1.18096 -2.72528,-0.72674 -4.63298,-1.99854 -1.81686,-1.2718 -1.81686,-3.90624 0,-3.17949 2.45276,-4.54213 2.45275,-1.45349 6.26815,-1.45349 2.45275,0 4.45129,0.54506 1.99854,0.45421 3.81539,1.45348 l 0.99927,6.54068 5.26888,-0.6359 -0.99927,-9.44764 q -2.54359,-1.54433 -6.26815,-2.634443 -3.6337,-1.090113 -7.81247,-1.090113 -2.72528,0 -5.45056,0.635899 -2.72529,0.6359 -4.81467,2.089387 -2.08938,1.36264 -3.45202,3.63371 -1.2718,2.18022 -1.2718,5.35972 0,3.90623 1.81685,6.08646 1.9077,2.08938 4.72382,3.1795 2.81613,1.09011 6.08647,1.63517 3.36118,0.54505 6.1773,1.27179 2.81613,0.72675 4.63298,2.08939 1.9077,1.36264 1.9077,4.08792 0,1.72601 -0.90843,2.99781 -0.90842,1.2718 -2.45275,2.18023 -1.45348,0.81758 -3.45202,1.27179 -1.99854,0.36337 -4.08793,0.36337 -4.81466,0 -8.99343,-1.99854 l 0.27253,-5.35972 -5.08719,-0.54505 -1.2718,9.17511 q 2.63444,1.72602 6.8132,2.90697 4.17877,1.09011 8.53922,1.09011 3.63371,0 6.72236,-0.90842 3.1795,-0.81759 5.45057,-2.45276 2.36191,-1.63517 3.63371,-3.90624 1.36264,-2.36191 1.36264,-5.35972 z M 807.56084,55.661018 h 41.51513 V 158.31331 h -41.51513 z"
             style="font-style:normal;font-variant:normal;font-weight:normal;font-stretch:normal;font-family:'Zilla Slab Highlight';-inkscape-font-specification:'Zilla Slab Highlight';fill:#0044a9;fill-opacity:1;stroke-width:9.73314953"
             id="path1514" />
          <path
             inkscape:connector-curvature="0"
             d="m 846.94968,55.661018 h 45.69389 V 158.31331 h -45.69389 z m 6.8132,55.323222 5.26888,0.6359 1.54433,-6.99489 q 1.81685,-0.90843 3.72455,-1.2718 1.99854,-0.36337 4.08792,-0.36337 5.45057,0 7.26742,2.72529 1.9077,2.72528 1.9077,7.08573 v 3.63371 q -1.63517,-0.18169 -3.54287,-0.27253 -1.81685,-0.0908 -3.63371,-0.0908 -3.45202,0 -6.8132,0.54505 -3.36118,0.45422 -6.08646,1.9077 -2.63444,1.36264 -4.36046,3.8154 -1.63516,2.36191 -1.63516,6.1773 0,3.27034 1.18095,5.45057 1.18096,2.18022 2.90697,3.54286 1.81685,1.2718 3.99708,1.81686 2.18022,0.54505 4.17876,0.54505 4.90551,0 8.35754,-2.54359 3.54286,-2.5436 5.45056,-5.81394 v 0.18169 q 0.0908,3.81539 1.9077,5.99562 1.9077,2.18022 5.45056,2.18022 1.45349,0 2.81613,-0.36337 1.36264,-0.36337 2.45275,-0.99927 l -0.0908,-4.17876 q -1.2718,0.54505 -2.72528,0.54505 -3.45203,0 -3.45203,-4.36045 v -19.25866 q 0,-6.8132 -3.72455,-10.17438 -3.63371,-3.361186 -10.71944,-3.361186 -3.99708,0 -7.53995,0.908428 -3.54287,0.908427 -6.72236,2.997808 z m 23.8008,12.80883 q -0.18168,2.45275 -1.2718,4.45129 -1.09011,1.99854 -2.72528,3.45203 -1.63517,1.36264 -3.72455,2.18022 -2.08938,0.72674 -4.17877,0.72674 -1.36264,0 -2.72528,-0.27252 -1.2718,-0.36337 -2.36191,-1.18096 -1.09011,-0.81758 -1.81686,-2.08938 -0.63589,-1.36264 -0.63589,-3.27034 0,-2.36191 0.99927,-3.8154 0.99927,-1.45348 2.63443,-2.27106 1.72602,-0.81759 3.8154,-1.09012 2.18023,-0.36337 4.45129,-0.36337 2.08939,0 3.90624,0.18169 1.9077,0.0908 3.63371,0.27253 z"
             style="font-style:normal;font-variant:normal;font-weight:normal;font-stretch:normal;font-family:'Zilla Slab Highlight';-inkscape-font-specification:'Zilla Slab Highlight';fill:#0044a9;fill-opacity:1;stroke-width:9.73314953"
             id="path1516" />
          <path
             inkscape:connector-curvature="0"
             d="m 913.67508,138.96381 v -5.17804 h -7.08573 V 76.464004 h -13.53557 v 5.178036 h 7.17658 v 52.14373 h -7.08573 v 5.17804 z M 890.41934,55.661018 h 25.98103 V 158.31331 h -25.98103 z"
             style="font-style:normal;font-variant:normal;font-weight:normal;font-stretch:normal;font-family:'Zilla Slab Highlight';-inkscape-font-specification:'Zilla Slab Highlight';fill:#0044a9;fill-opacity:1;stroke-width:9.73314953"
             id="path1518" />
          <path
             inkscape:connector-curvature="0"
             d="m 960.52439,103.71682 v -5.178031 h -17.71433 v 5.178031 h 5.54141 l -9.17512,26.61693 h -0.54506 l -10.35607,-26.61693 h 6.08647 v -5.178031 h -18.62277 v 5.178031 h 5.63225 l 14.53484,35.24699 h 4.90551 l 13.89894,-35.24699 z M 914.1946,55.661018 h 48.0558 V 158.31331 h -48.0558 z"
             style="font-style:normal;font-variant:normal;font-weight:normal;font-stretch:normal;font-family:'Zilla Slab Highlight';-inkscape-font-specification:'Zilla Slab Highlight';fill:#0044a9;fill-opacity:1;stroke-width:9.73314953"
             id="path1520" />
          <path
             inkscape:connector-curvature="0"
             d="m 960.14824,55.661018 h 45.69386 V 158.31331 h -45.69386 z m 6.81321,55.323222 5.26888,0.6359 1.54432,-6.99489 q 1.81686,-0.90843 3.72455,-1.2718 1.99854,-0.36337 4.08793,-0.36337 5.45056,0 7.26742,2.72529 1.90769,2.72528 1.90769,7.08573 v 3.63371 q -1.63517,-0.18169 -3.54286,-0.27253 -1.81686,-0.0908 -3.63371,-0.0908 -3.45203,0 -6.81321,0.54505 -3.36118,0.45422 -6.08646,1.9077 -2.63444,1.36264 -4.36045,3.8154 -1.63517,2.36191 -1.63517,6.1773 0,3.27034 1.18095,5.45057 1.18096,2.18022 2.90697,3.54286 1.81686,1.2718 3.99708,1.81686 2.18023,0.54505 4.17877,0.54505 4.90551,0 8.35753,-2.54359 3.54287,-2.5436 5.45056,-5.81394 v 0.18169 q 0.0908,3.81539 1.9077,5.99562 1.9077,2.18022 5.45056,2.18022 1.45349,0 2.8161,-0.36337 1.3627,-0.36337 2.4528,-0.99927 l -0.091,-4.17876 q -1.2718,0.54505 -2.7252,0.54505 -3.45207,0 -3.45207,-4.36045 v -19.25866 q 0,-6.8132 -3.72455,-10.17438 -3.63371,-3.361186 -10.71944,-3.361186 -3.99708,0 -7.53995,0.908428 -3.54286,0.908427 -6.72236,2.997808 z m 23.80079,12.80883 q -0.18168,2.45275 -1.27179,4.45129 -1.09012,1.99854 -2.72529,3.45203 -1.63517,1.36264 -3.72455,2.18022 -2.08938,0.72674 -4.17876,0.72674 -1.36265,0 -2.72529,-0.27252 -1.2718,-0.36337 -2.36191,-1.18096 -1.09011,-0.81758 -1.81685,-2.08938 -0.6359,-1.36264 -0.6359,-3.27034 0,-2.36191 0.99927,-3.8154 0.99927,-1.45348 2.63444,-2.27106 1.72601,-0.81759 3.81539,-1.09012 2.18023,-0.36337 4.4513,-0.36337 2.08938,0 3.90623,0.18169 1.9077,0.0908 3.63371,0.27253 z"
             style="font-style:normal;font-variant:normal;font-weight:normal;font-stretch:normal;font-family:'Zilla Slab Highlight';-inkscape-font-specification:'Zilla Slab Highlight';fill:#0044a9;fill-opacity:1;stroke-width:9.73314953"
             id="path1522" />
          <path
             inkscape:connector-curvature="0"
             d="m 1053.1272,138.96381 v -5.17804 h -6.9949 V 76.464004 h -16.17 v 5.178036 h 9.811 v 23.43743 q -1.9985,-3.54287 -5.5414,-5.450568 -3.5429,-1.907698 -7.9942,-1.907698 -4.9055,0 -8.4483,1.907698 -3.4521,1.907698 -5.6323,5.087188 -2.1802,3.08866 -3.1795,7.08574 -0.9992,3.90624 -0.9992,7.99416 0,9.53849 4.7238,14.80736 4.7238,5.26888 12.6271,5.26888 2.7253,0 4.9055,-0.72674 2.2711,-0.72674 3.9971,-1.99854 1.8169,-1.2718 3.1795,-2.90697 1.3626,-1.63517 2.3619,-3.45202 v 8.17585 z m -13.3539,-17.89602 q -0.091,2.27107 -1.0901,4.63298 -0.9993,2.36191 -2.7253,4.36045 -1.6351,1.9077 -3.9971,3.17949 -2.271,1.18096 -4.9963,1.18096 -5.2689,0 -8.8118,-3.8154 -3.452,-3.81539 -3.452,-11.26449 0,-3.1795 0.7268,-6.08647 0.8175,-2.99781 2.3619,-5.17803 1.6351,-2.27107 4.0879,-3.54287 2.4528,-1.36264 5.8139,-1.36264 2.4528,0 4.5422,0.90843 2.1802,0.81758 3.8154,2.36191 1.6351,1.45348 2.6344,3.54286 0.9993,2.08939 1.0901,4.63298 z m -36.1554,-65.406772 h 51.7804 V 158.31331 h -51.7804 z"
             style="font-style:normal;font-variant:normal;font-weight:normal;font-stretch:normal;font-family:'Zilla Slab Highlight';-inkscape-font-specification:'Zilla Slab Highlight';fill:#0044a9;fill-opacity:1;stroke-width:9.73314953"
             id="path1524" />
          <path
             inkscape:connector-curvature="0"
             d="m 1077.5525,97.630362 q -4.9055,0 -8.63,1.726012 -3.7246,1.635166 -6.2682,4.542136 -2.5436,2.90697 -3.8154,6.81321 -1.2718,3.90623 -1.2718,8.35753 0,4.54213 1.3627,8.35753 1.3626,3.81539 3.8154,6.63152 2.5436,2.72528 6.1773,4.26961 3.6337,1.54432 8.2667,1.54432 4.633,0 8.3575,-1.54432 3.8154,-1.63517 6.4498,-4.4513 2.6345,-2.81612 3.9971,-6.63152 1.4535,-3.90623 1.4535,-8.53921 0,-4.26961 -1.2718,-8.08501 -1.2718,-3.90623 -3.8154,-6.72236 -2.4527,-2.90697 -6.1773,-4.542136 -3.7245,-1.726012 -8.6301,-1.726012 z m -0.1816,36.791308 q -3.2704,0 -5.7231,-1.18096 -2.4528,-1.27179 -4.088,-3.36118 -1.6351,-2.08938 -2.5436,-4.99635 -0.8175,-2.90697 -0.8175,-6.1773 0,-3.36119 0.8175,-6.17731 0.9085,-2.90697 2.5436,-4.99635 1.7261,-2.08938 4.1788,-3.27034 2.4528,-1.18095 5.6323,-1.18095 6.3589,0 9.811,4.2696 3.5428,4.26961 3.5428,11.2645 0,3.45203 -0.9084,6.35899 -0.8176,2.81613 -2.5436,4.99636 -1.726,2.08938 -4.1787,3.27033 -2.4528,1.18096 -5.7231,1.18096 z m -24.0734,-78.760652 h 48.4192 V 158.31331 h -48.4192 z"
             style="font-style:normal;font-variant:normal;font-weight:normal;font-stretch:normal;font-family:'Zilla Slab Highlight';-inkscape-font-specification:'Zilla Slab Highlight';fill:#0044a9;fill-opacity:1;stroke-width:9.73314953"
             id="path1526" />
          <path
             inkscape:connector-curvature="0"
             d="m 1126.3138,97.812047 q -3.452,0 -6.1773,2.271073 -2.6344,2.27106 -3.8154,5.72309 v -7.267421 h -13.263 v 5.178031 h 7.2674 v 30.06895 h -7.0858 v 5.17804 h 22.8016 v -5.17804 h -9.3568 v -19.89456 q 0,-4.72382 2.3619,-7.63079 2.3619,-2.99781 5.9048,-2.99781 1.5443,0 3.0886,0.54506 l 1.5443,6.90405 5.1781,-0.6359 -1.5444,-10.17439 q -1.5443,-1.271798 -3.1794,-1.635169 -1.6352,-0.454214 -3.7246,-0.454214 z M 1099.606,55.661018 h 39.9708 V 158.31331 h -39.9708 z"
             style="font-style:normal;font-variant:normal;font-weight:normal;font-stretch:normal;font-family:'Zilla Slab Highlight';-inkscape-font-specification:'Zilla Slab Highlight';fill:#0044a9;fill-opacity:1;stroke-width:9.73314953"
             id="path1528" />
        </g>
      </g>
    </g>
  </g>
</svg>
