<?xml version="1.0" encoding="UTF-8" standalone="no"?>
<!-- Created with Inkscape (http://www.inkscape.org/) -->

<svg
   xmlns:dc="http://purl.org/dc/elements/1.1/"
   xmlns:cc="http://creativecommons.org/ns#"
   xmlns:rdf="http://www.w3.org/1999/02/22-rdf-syntax-ns#"
   xmlns:svg="http://www.w3.org/2000/svg"
   xmlns="http://www.w3.org/2000/svg"
   xmlns:sodipodi="http://sodipodi.sourceforge.net/DTD/sodipodi-0.dtd"
   xmlns:inkscape="http://www.inkscape.org/namespaces/inkscape"
   id="svg2"
   version="1.1"
   inkscape:version="0.92.1 unknown"
   width="967.33325"
   height="823.0285"
   viewBox="0 0 906.87496 771.5892"
   sodipodi:docname="logoElSalvador_MozillaCOLOR.svg"
   inkscape:export-filename="/home/keik/Escritorio/IMAGEN MOZILLA CENTROAMERICA/El Salvador/LogoElSalvador_MozillaCOLOR.png"
   inkscape:export-xdpi="300"
   inkscape:export-ydpi="300">
  <title
     id="title4536">LogoMozillaHonduras</title>
  <metadata
     id="metadata8">
    <rdf:RDF>
      <cc:Work
         rdf:about="">
        <dc:format>image/svg+xml</dc:format>
        <dc:type
           rdf:resource="http://purl.org/dc/dcmitype/StillImage" />
        <dc:title>LogoMozillaHonduras</dc:title>
        <cc:license
           rdf:resource="http://creativecommons.org/licenses/by-nd/4.0/" />
        <dc:creator>
          <cc:Agent>
            <dc:title>KarlaLHdz</dc:title>
          </cc:Agent>
        </dc:creator>
        <dc:source>Mozilla El Salvador</dc:source>
        <dc:description>Hecho para Mozilla Centroamerica en el año 2017</dc:description>
      </cc:Work>
      <cc:License
         rdf:about="http://creativecommons.org/licenses/by-nd/4.0/">
        <cc:permits
           rdf:resource="http://creativecommons.org/ns#Reproduction" />
        <cc:permits
           rdf:resource="http://creativecommons.org/ns#Distribution" />
        <cc:requires
           rdf:resource="http://creativecommons.org/ns#Notice" />
        <cc:requires
           rdf:resource="http://creativecommons.org/ns#Attribution" />
      </cc:License>
    </rdf:RDF>
  </metadata>
  <defs
     id="defs6" />
  <sodipodi:namedview
     pagecolor="#ffffff"
     bordercolor="#666666"
     borderopacity="1"
     objecttolerance="10"
     gridtolerance="10"
     guidetolerance="10"
     inkscape:pageopacity="0"
     inkscape:pageshadow="2"
     inkscape:window-width="1366"
     inkscape:window-height="708"
     id="namedview4"
     showgrid="false"
     showborder="true"
     inkscape:zoom="0.62816779"
     inkscape:cx="483.66663"
     inkscape:cy="411.51425"
     inkscape:window-x="0"
     inkscape:window-y="0"
     inkscape:window-maximized="1"
     inkscape:current-layer="layer2"
     borderlayer="true"
     inkscape:showpageshadow="false"
     units="px"
     showguides="true"
     fit-margin-top="100"
     fit-margin-left="100"
     fit-margin-right="100"
     fit-margin-bottom="100"
     inkscape:guide-bbox="true" />
  <g
     inkscape:groupmode="layer"
     id="layer2"
     inkscape:label="Layer 2"
     style="opacity:1"
     transform="translate(-41.54831,387.95176)">
    <rect
       style="opacity:1;fill:#0044a9;fill-opacity:1;stroke:none;stroke-width:2.9164207;stroke-linecap:round;stroke-linejoin:round;stroke-miterlimit:4;stroke-dasharray:none;stroke-opacity:1;paint-order:stroke markers fill"
       id="rect4489"
       width="660.36145"
       height="107.83463"
       x="264.45599"
       y="140.33342" />
    <path
       style="display:inline;opacity:1;fill:#808080;fill-opacity:1;fill-rule:nonzero;stroke:none;stroke-width:19.56212234;stroke-linecap:round;stroke-linejoin:round;stroke-miterlimit:4;stroke-dasharray:none;stroke-dashoffset:0;stroke-opacity:1"
       d="m 286.96676,-225.33314 c -1.77862,-0.0148 -3.43576,0.42012 -4.9027,1.61146 -3.375,2.74149 -0.16239,7.7406 2.11691,11.3695 2.62769,4.18383 10.95541,5.76458 15.86631,6.47415 7.52699,1.08751 39.96802,-0.87735 70.64535,-3.29582 -21.98919,2.74131 -52.3781,6.06861 -73.1495,6.44907 -9.08924,0.16667 -20.57473,-7.91685 -27.22517,-1.71896 -3.82525,3.56494 -0.6432,10.55911 3.63814,13.56092 11.69431,8.19939 50.66563,1.7631 56.51296,2.48298 -8.27388,1.95493 -57.11051,7.37152 -65.23942,8.10006 -10.36621,1.29154 -8.32176,22.74534 8.0972,20.96804 31.53788,-3.41387 97.08369,-20.01406 97.08369,-20.01406 1.74422,5.89592 -92.83819,25.30799 -95.61025,25.2668 -3.60388,-0.0537 5.63312,11.10645 9.87541,12.74051 7.90204,3.04375 17.70892,1.60974 26.47454,0.57143 23.46429,-2.77939 89.58609,-28.80902 68.54995,-18.04403 -10.89754,5.57665 -40.22979,13.81147 -60.20901,20.53072 -18.44616,6.69332 9.33611,9.31239 27.21271,5.60742 16.27444,-0.82446 42.80379,-15.9241 46.62873,-14.661 1.51603,0.50049 -43.24558,17.31015 -41.67455,17.84034 -13.5027,7.46626 12.31566,5.33979 33.38537,1.49427 3.81398,-0.59744 19.13497,-8.06875 18.25273,-6.60457 -2.62722,4.36033 -20.42869,9.55128 -24.90267,10.58509 -9.52231,2.20033 -0.15406,6.90708 17.99856,4.16506 9.81859,0.88455 11.65033,-0.18788 16.13662,-0.93086 5.01912,-0.83163 8.73462,1.75843 -13.48731,7.15326 -7.74524,1.36005 -2.56117,6.33401 14.97632,5.63251 0,0 31.60165,-35.58812 50.50926,-49.77986 11.1222,-8.3482 25.72027,-11.46997 36.41715,-20.35665 4.65947,-3.87095 11.6285,-13.97022 11.6285,-13.97022 0,0 -16.29336,-30.83868 -31.31305,-36.26826 -1.82153,-0.65846 -3.67773,-1.07606 -5.53877,-1.34429 0.0856,-0.0297 1.35631,-0.47887 1.35631,-0.47887 -0.18381,0.0213 -3.56685,0.25342 -4.21897,0.30739 -3.48372,-0.17895 -7.00548,0.0797 -10.57245,0.78277 -33.50693,2.44545 -134.63472,9.23064 -157.94628,8.20713 -5.61509,-0.24659 -12.03696,-4.3892 -17.37264,-4.43398 z m 286.55822,-11.40177 c -1.87711,0.18383 -1.1252,1.43435 3.59067,2.29424 0,0 3.18463,2.24551 5.39952,3.16032 2.21497,0.91489 -7.31091,-3.41062 -12.01609,-2.87792 -4.70523,0.53237 -22.95615,3.18356 -15.40754,3.67871 7.54866,0.49523 15.92545,3.08079 15.92545,3.08079 0,0 -15.18705,-2.72089 -20.35097,-0.4444 -5.16395,2.27655 -11.51616,3.81313 -15.16287,9.11144 1.90976,1.51701 4.2945,0.0131 7.66526,-0.79903 6.1348,-2.56404 10.18144,-3.17286 15.76329,-1.61608 -0.1006,1.03664 -1.84008,1.06366 -2.76235,1.58386 -1.97285,1.11258 -5.93965,3.30007 -5.93965,3.30007 6.71963,-1.02658 13.19861,-3.01336 19.81217,-2.32426 3.38827,0.35273 9.68679,3.2578 9.68679,3.2578 0,0 -8.61286,-1.77496 -12.97514,-1.75352 -7.57995,0.037 -22.49982,3.2676 -22.49982,3.2676 l 9.67851,-6.49358 c 0,0 -7.10509,0.98452 -10.09158,2.78899 -15.04651,9.09126 -20.1896,25.36748 -36.0908,38.4567 -13.31341,10.95896 -31.48623,14.96937 -44.63525,26.12502 -27.66644,23.47217 -39.59177,43.09683 -74.46851,78.884821 -10.10252,10.366439 -14.49966,9.548286 -37.14263,10.227917 -8.35521,0.250872 -16.88645,-2.080466 -27.09341,-4.006299 -10.20705,-1.925904 0.0187,13.345071 5.38556,23.441949 2.89892,5.45408 5.19845,14.893836 9.04893,17.880756 5.6445,2.374908 9.25664,3.160445 11.7243,3.209096 -2.42136,4.030356 -4.87061,8.524517 -5.5872,11.55807 -0.85076,3.6020159 6.14002,1.535387 11.50381,-0.464912 2.57921,6.9565079 7.07376,21.1563228 13.42165,30.135541 3.72095,5.263393 8.43728,16.514597 14.02919,13.308596 4.88,-2.797792 8.49027,-20.553781 9.54374,-26.0804672 4.07298,-21.3697168 23.80901,-43.9747988 23.80901,-43.9747988 l 29.83215,-6.193685 -26.49475,-3.420029 23.98915,-17.952353 -36.49902,11.271263 26.70233,-42.492008 -15.178,33.548672 29.89548,-4.411794 -16.21756,16.358649 c 0,0 16.3006,4.811991 24.67806,4.759565 4.92199,-0.03059 14.46871,-2.975799 14.46871,-2.975799 2.59264,-40.549615 3.15063,-40.537069 10.57816,-55.90241 0,0 -14.83927,67.97974 -3.35291,54.051598 7.32706,-8.884623 17.46461,-19.904737 17.61013,-18.674349 0.13466,1.138106 -17.31292,22.335191 -17.12925,23.370372 0.183,7.721139 -1.93996,31.404137 5.26869,17.417428 5.21115,-8.588719 16.68334,-27.779462 17.08282,-26.848394 0.45154,1.052594 -15.86405,30.219928 -15.47762,31.305208 -3.43413,10.579629 1.17414,24.1025694 6.504,15.299674 3.96961,-11.724648 15.17363,-28.674264 15.51815,-27.967115 0.23394,0.480817 -14.01918,31.0623599 -13.78502,31.5389279 -1.03242,10.8751646 1.13531,29.3429481 8.80936,18.5410331 7.95177,-16.1997151 15.68754,-29.364911 15.90329,-28.799381 0.27266,0.715237 -14.70118,31.960619 -14.44976,32.689032 -2.82227,20.761012 -0.0804,40.22448 5.28707,27.703811 10.09331,-24.680397 32.41506,-64.795041 25.34084,-48.1065371 -10.23648,24.1485821 -24.94957,53.5287551 -24.86731,55.0208871 -1.78271,11.453942 -7.82444,46.804795 3.13724,27.808292 7.03337,-19.974619 30.84535,-67.228989 23.47689,-49.964546 -12.65361,29.647913 -25.21816,57.576159 -25.1074,59.250482 -1.43094,13.365877 -5.84262,47.080637 4.80896,27.851687 8.94829,-16.154061 19.32228,-36.955852 24.90943,-55.825792 -0.36254,0.864392 2.32675,9.346356 -16.52001,50.823222 -2.44838,5.2793 -2.10214,22.06363 5.86951,23.69349 9.67096,1.97729 15.55375,-17.1581 17.83153,-23.64255 1.28746,-3.66537 2.47811,-6.90106 3.74686,-10.472552 -0.82547,7.349842 -0.67285,14.224382 1.01755,19.957152 0.96358,3.26782 4.11621,6.96693 7.5225,6.90674 12.55307,-5.68613 9.55409,-21.13678 10.71908,-31.395363 2.21626,-17.553094 7.40673,-52.554783 7.40673,-52.554783 0,0 -2.30719,32.505997 2.43183,47.71157 1.14095,3.661119 2.21386,9.519586 6.03932,9.787136 3.78087,0.26418 6.01976,-5.168017 7.26225,-8.748702 2.4573,-7.081673 -1.02569,-14.994661 -0.55135,-22.475572 2.2328,-35.198523 5.55562,-69.29135335 12.83088,-103.176484 2.24929,-10.47636 9.00146,-20.012875 9.47321,-30.717577 0.62717,-14.231431 1.3341,-31.937458 -8.9602,-41.785765 -10.37547,-9.92611 -30.12842,0.17127 -42.47382,-7.16135 -10.12469,-6.01364 -11.66273,-21.83686 -21.82405,-27.78838 -9.20335,-5.39039 -31.61949,-4.92212 -31.61949,-4.92212 0,0 25.46908,-5.4418 36.75992,-0.6766 11.81012,4.98427 26.3219,28.04252 26.3219,28.04252 l 18.99458,-38.50461 c -2.84709,-3.6392 -5.14062,0.16715 -8.9142,-25.17801 -14.07347,10.28235 -31.13095,11.95314 -47.97587,16.8473 0,0 3.93154,-8.35691 13.93303,-19.40973 3.94081,-4.3551 16.7509,-16.40694 16.7509,-16.40694 0,0 -6.78329,2.23217 -9.98509,3.79144 -3.96406,1.93053 -5.36165,2.45852 -11.32068,6.84411 0,0 7.11682,-9.88802 10.33554,-15.2918 7.27228,-7.70937 27.44933,-6.22741 36.45934,-1.74733 0.13418,-0.26742 0.20912,-0.52909 0.33561,-0.79189 1.75537,-2.26278 4.98366,-6.64498 4.14262,-12.84791 -11.49718,-12.5022 -21.91767,-15.18417 -25.04614,-14.87795 z m 112.43934,-3.1035 -82.97181,21.2218 c 0,0 -6.65719,20.22707 -8.11099,21.41758 0,0 18.41217,-7.54575 27.42787,-11.75098 14.35761,-6.69679 42.41266,-21.4538 42.41266,-21.4538 0,0 -27.39753,16.24528 -41.24088,24.119 -10.95874,6.23304 -33.10123,18.303 -33.10123,18.303 0,0 0.0992,10.22844 1.77328,14.9662 1.34592,3.80903 6.45434,10.25384 6.45434,10.25384 18.55908,-43.34902 55.86902,-55.34115 87.35676,-77.07664 z m -101.61496,36.00134 c -1.23008,2.5e-4 -2.40326,0.0959 -3.31236,0.34501 -6.35976,1.74162 -11.56214,6.48852 -16.57052,10.77764 -7.47035,6.39755 -19.71328,21.96374 -19.71328,21.96374 0,0 21.45542,-3.62931 30.83218,-8.74761 4.24058,-2.31474 9.19963,-5.63686 10.87209,-9.59114 2.6884,-6.35642 5.88119,-13.92898 5.88119,-13.92898 0,0 -4.29942,-0.82486 -7.98933,-0.81897 z m -8.19224,6.67233 c 3.02631,0.39493 5.66317,4.04592 5.4474,6.96979 -0.22664,3.06982 -3.57533,7.12828 -6.75061,6.70003 -3.60709,-0.48631 -5.73892,-5.89742 -4.85856,-9.30216 0.60999,-2.35911 3.66074,-4.69421 6.16177,-4.36766 z m -65.76269,27.49838 c 0,0 -11.68764,10.18965 -16.24196,16.38521 -3.55318,4.83365 -4.18603,11.66365 -8.42251,15.91121 -3.22754,3.23601 -12.08991,6.44356 -12.08991,6.44356 l -0.56021,-3.27765 -12.98371,5.51283 1.77943,-6.69181 c -3.47418,1.66271 -3.15461,3.17102 -12.17397,5.07043 l 5.76139,-10.16341 0.2918,4.74234 c 0.58631,1.76315 10.32017,-5.35745 11.58116,-7.3141 0.99965,-1.55124 -3.29294,10.05798 -3.29294,10.05798 0.82639,1.07953 9.73061,-7.58523 13.15703,-11.30755 2.57661,-2.7992 -0.91247,7.8913 -0.91247,7.8913 0,0 6.1542,-1.41703 8.10463,-3.64748 2.77756,-3.17636 3.61215,-12.13669 3.61215,-12.13669 z M 329.15246,-32.876761 c 0,0 -42.03481,34.3349826 -64.01555,50.216066 -44.19712,31.932525 -136.27027,90.471245 -136.27027,90.471245 0,0 -18.16562,3.04455 -25.92162,7.62019 -8.750902,5.16267 -18.840672,11.6781 -21.673366,21.43553 -2.210613,7.61446 -3.810944,18.32532 5.323824,23.18965 11.43967,6.09172 25.077702,-3.72948 33.150282,-13.869 10.54736,-13.24799 11.72179,-33.88564 11.72179,-33.88564 0,0 96.03932,-55.481996 140.59465,-88.310193 21.01683,-15.4850936 59.43121,-51.002022 59.43121,-51.002022 z m 30.08547,37.6718509 c 0,0 -42.63493,38.5492641 -64.2935,57.4429391 -40.26808,35.1275 -122.05535,103.950351 -122.05535,103.950351 0,0 -30.23273,8.01448 -37.85587,20.09934 -7.4537,11.81612 -18.65157,36.89944 -1.79478,41.87518 14.53601,4.29071 28.20863,-8.42234 36.20855,-19.57013 7.38257,-10.28755 6.41992,-37.44526 6.41992,-37.44526 0,0 81.13992,-65.56853 120.55338,-99.717883 22.39885,-19.407195 65.83979,-59.739745 65.83979,-59.739745 z M 78.409965,131.94044 c 0,0 -13.891101,16.13195 -18.205027,26.5394 -2.902338,7.00192 -5.468703,16.76697 3.774348,22.42725 7.782738,4.76598 29.228032,-6.44991 36.860914,-11.45242 9.4477,-6.19197 17.81613,-14.74425 17.81613,-14.74425 -11.40323,7.30624 -28.722942,17.25971 -39.974253,9.88986 -9.910163,-6.49137 -0.272112,-32.65984 -0.272112,-32.65984 z M 125.7976,199.2763 c -5.2844,7.25513 -18.20458,25.17018 -21.57312,39.91491 -1.47562,6.45901 -4.552412,16.13019 0.92391,19.85917 10.83459,7.37732 27.57437,-3.82146 37.20223,-12.71624 8.55542,-7.90408 19.34744,-22.47078 19.34744,-22.47078 8.35631,-15.37764 -4.49775,2.71648 -16.38402,12.15916 -5.79485,4.60352 -17.31671,3.90796 -22.13852,-1.7066 -7.63091,-8.88554 -2.35906,-21.03642 2.62191,-35.03962 z"
       id="path4155"
       inkscape:connector-curvature="0"
       sodipodi:nodetypes="ccccccccccscccacccccccsccccccccccccccccccccccccccccccccscccccccccccccccccccccccccccccccccccccccccccsccacccccccccccsccccccccccccccccccccccccsccccccccccccccccccccccccccccccccccccccccsccscccsccsccccccccccscccccccccc" />
    <rect
       x="550.74927"
       id="rect4"
       height="106.92123"
       width="374.06848"
       y="19.778772"
       style="opacity:1;stroke-width:1.03907907" />
    <path
       style="opacity:1;fill:#ffffff;stroke-width:1.03907907"
       inkscape:connector-curvature="0"
       id="path6"
       d="m 907.98463,96.566727 c -0.7273,0.207819 -1.35075,0.311723 -1.97419,0.311723 -2.18212,0 -3.2212,-0.935168 -3.2212,-3.636774 V 72.979634 c 0,-10.702513 -8.52046,-15.897909 -18.59946,-15.897909 -7.68924,0 -11.84554,0.935171 -20.05428,4.260224 l -1.66252,10.806422 10.70252,1.142988 1.55861,-5.299304 c 2.18207,-1.142987 4.36413,-1.350803 7.16969,-1.350803 7.58522,0 7.68918,5.714935 7.68918,10.494698 v 1.558619 c -2.38993,-0.311723 -5.09153,-0.415631 -7.68918,-0.415631 -10.70256,0 -21.8207,2.701605 -21.8207,14.235383 0,9.767349 7.68918,13.404119 14.44319,13.404119 7.58533,0 12.3651,-4.57195 15.06669,-9.351713 0.62345,5.714943 4.05236,9.351713 10.28683,9.351713 2.90943,0 5.92281,-0.83126 8.4166,-2.18206 z m -28.67858,-0.311722 c -4.0524,0 -5.50711,-2.389881 -5.50711,-5.403211 0,-5.091487 4.15636,-6.44229 8.93613,-6.44229 2.182,0 4.57194,0.311724 6.75395,0.623447 -0.31166,7.793094 -5.40321,11.222054 -10.18297,11.222054 z M 861.32999,33.390723 841.06794,104.77545 h -13.19631 l 20.26204,-71.384727 z m -27.22388,0 -20.26204,71.384727 H 800.64776 L 820.9098,33.390723 Z m -56.11027,24.626173 h 14.02757 v 16.833081 h -14.02757 z m 0,30.029385 h 14.02757 v 16.833079 h -14.02757 z m -20.46987,-0.623448 10.59862,1.039079 -2.90942,16.417448 h -40.83582 l -1.3508,-7.065732 25.76916,-29.613758 H 734.1467 l -2.07817,7.273554 -9.66343,-1.039079 1.66253,-16.417449 h 41.04363 l 1.03908,7.065737 -25.97699,29.613753 h 15.17056 z m -67.0206,-30.341108 c -16.83308,0 -25.14571,11.325962 -25.14571,25.041805 0,14.962738 9.97516,23.79491 24.41836,23.79491 14.96274,0 25.76915,-9.455617 25.76915,-24.418357 0,-13.092396 -8.20872,-24.418358 -25.0418,-24.418358 z m -0.31172,38.445925 c -7.27356,0 -11.01424,-6.234474 -11.01424,-14.339291 0,-8.832172 4.26022,-13.923659 11.11815,-13.923659 6.33838,0 11.42986,4.260224 11.42986,13.715843 0,9.039988 -4.57194,14.547107 -11.53377,14.547107 z m -36.88731,-0.935172 h 6.23448 V 104.77545 H 640.00614 V 78.486753 c 0,-8.104816 -2.70161,-11.222053 -8.00092,-11.222053 -6.44229,0 -9.03998,4.571948 -9.03998,11.118146 v 16.31354 h 6.23447 v 10.182974 h -19.6386 V 78.486753 c 0,-8.104816 -2.7016,-11.222053 -8.0009,-11.222053 -6.44229,0 -9.03999,4.571948 -9.03999,11.118146 v 16.31354 h 8.93608 V 104.87936 H 572.98553 V 94.696386 H 579.22 V 68.19987 h -6.23447 V 58.016896 h 19.6386 v 7.065737 c 2.80551,-4.987579 7.68918,-8.000908 14.23538,-8.000908 6.75402,0 12.98849,3.221145 15.27446,10.079066 2.5977,-6.234473 7.897,-10.079066 15.27446,-10.079066 8.41654,0 16.10573,5.091487 16.10573,16.209634 v 21.301119 z"
       class="st0" />
    <text
       xml:space="preserve"
       style="font-style:normal;font-weight:normal;font-size:90.84273529px;line-height:1;font-family:sans-serif;text-align:center;letter-spacing:0px;word-spacing:0px;text-anchor:middle;fill:#ffffff;fill-opacity:1;stroke:none;stroke-width:9.73314857"
       x="689.62585"
       y="223.15733"
       id="text4512"><tspan
         sodipodi:role="line"
         id="tspan4510"
         x="689.62585"
         y="223.15733"
         style="font-style:normal;font-variant:normal;font-weight:normal;font-stretch:normal;font-family:'Zilla Slab';-inkscape-font-specification:'Zilla Slab';fill:#ffffff;stroke-width:9.73314857">el  salvador</tspan></text>
  </g>
</svg>
