<?xml version="1.0" encoding="UTF-8" standalone="no"?>
<!-- Created with Inkscape (http://www.inkscape.org/) -->

<svg
   xmlns:dc="http://purl.org/dc/elements/1.1/"
   xmlns:cc="http://creativecommons.org/ns#"
   xmlns:rdf="http://www.w3.org/1999/02/22-rdf-syntax-ns#"
   xmlns:svg="http://www.w3.org/2000/svg"
   xmlns="http://www.w3.org/2000/svg"
   xmlns:sodipodi="http://sodipodi.sourceforge.net/DTD/sodipodi-0.dtd"
   xmlns:inkscape="http://www.inkscape.org/namespaces/inkscape"
   id="svg2"
   version="1.1"
   inkscape:version="0.92.2 (unknown)"
   width="967.33325"
   height="823.0285"
   viewBox="0 0 906.87496 771.5892"
   sodipodi:docname="logoElSalvador_Mozilla.svg"
   inkscape:export-filename="/home/keik/Escritorio/IMAGEN MOZILLA CENTROAMERICA/El Salvador/logoElSalvador_Mozilla.png"
   inkscape:export-xdpi="100"
   inkscape:export-ydpi="100">
  <title
     id="title4536">LogoMozillaHonduras</title>
  <metadata
     id="metadata8">
    <rdf:RDF>
      <cc:Work
         rdf:about="">
        <dc:format>image/svg+xml</dc:format>
        <dc:type
           rdf:resource="http://purl.org/dc/dcmitype/StillImage" />
        <dc:title>LogoMozillaHonduras</dc:title>
        <cc:license
           rdf:resource="http://creativecommons.org/licenses/by-nd/4.0/" />
        <dc:creator>
          <cc:Agent>
            <dc:title>KarlaLHdz</dc:title>
          </cc:Agent>
        </dc:creator>
        <dc:source>Mozilla El Salvador</dc:source>
        <dc:description>Hecho para Mozilla Centroamerica en el año 2017</dc:description>
      </cc:Work>
      <cc:License
         rdf:about="http://creativecommons.org/licenses/by-nd/4.0/">
        <cc:permits
           rdf:resource="http://creativecommons.org/ns#Reproduction" />
        <cc:permits
           rdf:resource="http://creativecommons.org/ns#Distribution" />
        <cc:requires
           rdf:resource="http://creativecommons.org/ns#Notice" />
        <cc:requires
           rdf:resource="http://creativecommons.org/ns#Attribution" />
      </cc:License>
    </rdf:RDF>
  </metadata>
  <defs
     id="defs6" />
  <sodipodi:namedview
     pagecolor="#ffffff"
     bordercolor="#666666"
     borderopacity="1"
     objecttolerance="10"
     gridtolerance="10"
     guidetolerance="10"
     inkscape:pageopacity="0"
     inkscape:pageshadow="2"
     inkscape:window-width="1366"
     inkscape:window-height="708"
     id="namedview4"
     showgrid="false"
     showborder="true"
     inkscape:zoom="0.62816779"
     inkscape:cx="483.66663"
     inkscape:cy="411.51425"
     inkscape:window-x="0"
     inkscape:window-y="0"
     inkscape:window-maximized="1"
     inkscape:current-layer="layer2"
     borderlayer="true"
     inkscape:showpageshadow="false"
     units="px"
     showguides="true"
     fit-margin-top="100"
     fit-margin-left="100"
     fit-margin-right="100"
     fit-margin-bottom="100"
     inkscape:guide-bbox="true" />
  <g
     inkscape:groupmode="layer"
     id="layer2"
     inkscape:label="Layer 2"
     style="opacity:1"
     transform="translate(-41.54831,387.95176)">
    <path
       style="display:inline;opacity:1;fill:#808080;fill-opacity:1;fill-rule:nonzero;stroke:none;stroke-width:21.74145508;stroke-linecap:round;stroke-linejoin:round;stroke-miterlimit:4;stroke-dasharray:none;stroke-dashoffset:0;stroke-opacity:1"
       d="m 385.7395,-254.87819 c -1.97277,0.12669 -3.77473,0.74199 -5.30501,2.18057 -3.5207,3.31031 0.44245,8.59344 3.26088,12.43274 3.24921,4.42645 12.60756,5.509 18.10831,5.90064 8.43105,0.6002 44.2337,-4.18666 78.0448,-9.3345 -24.1544,4.80702 -57.5727,10.93911 -80.56705,13.03122 -10.06196,0.91568 -23.44359,-7.1212 -30.31714,0.28392 -3.95356,4.25934 0.13615,11.75643 5.12338,14.73961 13.62244,8.14855 56.30427,-2.12001 62.84389,-1.79226 -9.01434,2.8324 -62.7138,12.76396 -71.66604,14.22524 -11.387,2.26529 -7.39549,25.88227 10.66187,22.59175 34.68497,-6.32042 106.00709,-29.99262 106.00709,-29.99262 2.40758,6.39531 -100.87526,35.5195 -103.95138,35.69677 -3.99919,0.23033 7.13743,11.85842 11.97138,13.3286 9.00412,2.73852 19.75966,0.36029 29.39278,-1.49558 25.7865,-4.96787 96.98878,-39.13885 74.53607,-25.51428 -11.63139,7.05803 -43.48374,18.54509 -65.09023,27.6 -19.90917,8.90289 11.0979,9.57194 30.61604,4.02742 17.97378,-2.22266 46.1671,-21.09391 50.5086,-20.00137 1.72075,0.43288 -46.54538,22.66586 -44.76126,23.12724 -14.36723,9.36216 14.08121,4.92872 37.12759,-1.02837 4.17972,-0.96897 20.56212,-10.48294 19.7019,-8.78896 -2.56161,5.04466 -21.87696,12.23034 -26.7532,13.7361 -10.37847,3.20482 0.38468,7.66883 20.28621,3.16956 10.95497,0.19092 12.89919,-1.14518 17.81245,-2.32953 5.49679,-1.3255 9.82369,1.24678 -14.37531,9.01396 -8.47617,2.13045 -2.32968,7.22716 17.05408,5.03923 0,0 32.1683,-41.99049 51.98598,-59.24242 11.65754,-10.14834 27.58834,-14.78273 38.73112,-25.49376 4.85369,-4.66564 11.76665,-16.42102 11.76665,-16.42102 0,0 -20.54103,-32.87419 -37.62688,-37.68499 -2.07211,-0.58342 -4.16328,-0.89705 -6.24778,-1.04472 0.0924,-0.0399 1.46493,-0.63991 1.46493,-0.63991 -0.20203,0.0385 -3.93343,0.56777 -4.65197,0.68003 -3.87605,0.0817 -7.75911,0.65171 -11.65652,1.71791 -36.94554,5.40529 -148.49929,21.05904 -174.42229,21.79915 -6.24411,0.17821 -13.69585,-3.89742 -19.61401,-3.51797 z m 316.73075,-35.68301 c -2.06597,0.35473 -1.13192,1.68046 4.16473,2.2544 0,0 3.71072,2.23303 6.23946,3.06897 2.52886,0.83603 -8.37835,-3.19273 -13.55117,-2.22384 -5.1729,0.9685 -25.19071,5.37501 -16.7833,5.31684 8.40744,-0.0581 17.90098,2.13435 17.90098,2.13435 0,0 -17.05354,-1.79478 -22.59465,1.14396 -5.54112,2.93881 -12.45892,5.15293 -16.0752,11.31933 2.23896,1.52802 4.76147,-0.33078 8.43264,-1.50214 6.59418,-3.33556 11.03089,-4.33586 17.34351,-3.05906 -0.0281,1.1572 -1.95418,1.32703 -2.93467,1.97783 -2.09741,1.39195 -6.31868,4.13577 -6.31868,4.13577 7.36612,-1.67833 14.38826,-4.40169 21.77475,-4.16966 3.78422,0.11852 10.99971,2.83225 10.99971,2.83225 0,0 -9.69002,-1.27491 -14.52385,-0.90033 -8.39936,0.65054 -24.67812,5.43148 -24.67812,5.43148 l 10.20635,-7.9764 c 0,0 -7.79676,1.6627 -10.96214,3.90311 -15.94786,11.28758 -20.34004,29.74324 -36.9138,45.53128 -13.87652,13.21856 -33.69847,19.12548 -47.37695,32.54884 -28.78048,28.24358 -40.42145,50.95638 -76.20408,93.431781 -10.36493,12.303546 -15.30492,11.750244 -40.34983,14.324487 -9.24151,0.949993 -18.88581,-0.948221 -30.35502,-2.262173 -11.46932,-1.314023 1.09392,14.791398 7.85499,25.552132 3.65204,5.812685 6.96017,16.091661 11.46859,19.092994 6.44788,2.178653 10.51507,2.758937 13.25437,2.614423 -2.35996,4.662339 -4.71351,9.841044 -5.26391,13.26134 -0.6534,4.061225 6.92965,1.208202 12.71451,-1.440455 3.41846,7.503825 9.54254,22.8827756 17.30122,32.3256896 4.54791,5.5352034 10.68072,17.6278064 16.62149,13.6242904 5.18446,-3.493768 7.75852,-23.4664777 8.48185,-29.6774835 2.79637,-24.0157125 22.85576,-50.6603915 22.85576,-50.6603915 l 32.57065,-9.264677 -29.64427,-1.660447 25.14812,-21.829189 -39.55247,15.429269 26.18223,-49.24941 -14.12682,38.409033 32.78414,-7.294555 -16.66152,19.437606 c 0,0 18.45606,4.023218 27.73819,3.291398 5.45354,-0.429731 15.79915,-4.462179 15.79915,-4.462179 -0.38697,-45.157433 0.23257,-45.188403 7.23029,-62.818073 0,0 -10.98248,76.548367 0.63002,60.185423 7.40749,-10.437755 17.7587,-23.468703 18.01894,-22.116533 0.2408,1.250755 -17.39509,26.150659 -17.10826,27.283373 0.82377,8.544107 0.375,34.96726 7.24096,18.883396 5.08584,-9.939598 16.25941,-32.134958 16.77711,-31.134993 0.58517,1.130469 -15.15497,34.774304 -14.63934,35.946253 -2.95593,12.003603 3.23978,26.623097 8.44,16.436541 3.45742,-13.315911 14.51395,-33.005435 14.95271,-32.249271 0.29799,0.514176 -13.04222,35.559782 -12.74433,36.069225 -0.26988,12.138063 3.61817,32.4351399 11.25614,19.8441719 7.51174,-18.5967239 15.02808,-33.8123339 15.3127,-33.2027969 0.35978,0.770907 -13.72596,36.6103348 -13.38868,37.3975572 -1.45892,23.2403868 3.14558,44.5950048 8.08853,30.2842978 9.20364,-28.169713 30.72122,-74.431552 24.22156,-55.363581 -9.4051,27.5917139 -23.35179,61.342603 -23.1406,62.990004 -1.05503,12.839971 -4.90943,52.51198 5.71387,30.572999 6.19013,-22.707323 28.78546,-77.003334 22.00594,-57.2732774 -11.64223,33.8820614 -23.32403,65.8507194 -23.0666,67.6977874 -0.51135,14.931047 -2.69041,52.658384 7.57044,30.486674 8.62005,-18.626269 18.44674,-42.519141 23.12256,-63.885633 -0.33235,0.987326 3.3308,10.173256 -14.22524,57.665662 -2.28946,6.048961 -0.55591,24.626421 8.41168,25.792031 10.87919,1.41411 15.86142,-20.27041 17.86485,-27.641541 1.13239,-4.166568 2.192,-7.849055 3.31119,-11.910062 -0.32397,8.213628 0.39804,15.821732 2.73285,22.040533 1.33091,3.54486 5.12304,7.39176 8.89405,7.05112 13.45773,-7.31251 8.89087,-24.198282 9.3573,-35.663511 1.04512,-19.635707 3.98398,-58.852222 3.98398,-58.852222 0,0 0.0566,36.218192 6.53251,52.692359 1.55914,3.966572 3.21958,10.374362 7.48159,10.363301 4.21232,-0.01123 6.25727,-6.212803 7.34661,-10.281885 2.15441,-8.047592 -2.34279,-16.538984 -2.41859,-24.869664 -0.35553,-39.1968554 0.58613,-77.255715 5.92575,-115.40219 1.65084,-11.793845 8.36869,-22.90799 8.03078,-34.812008 -0.44925,-15.82586 -1.08951,-35.50972 -13.29263,-45.59866 -12.29936,-10.16866 -33.38335,2.6127 -47.6578,-4.52267 -11.70675,-5.85187 -14.68411,-23.2681 -26.42647,-29.04818 -10.63533,-5.2351 -35.44579,-2.91339 -35.44579,-2.91339 0,0 27.79467,-8.08035 40.6937,-3.70612 13.49224,4.57527 31.43272,28.96817 31.43272,28.96817 l 17.95892,-44.20955 c -3.44865,-3.80508 -5.6849,0.59868 -11.90607,-27.1928 -14.77346,12.52967 -33.54721,15.75344 -51.8261,22.53321 0,0 3.68605,-9.57975 13.8838,-22.63599 4.01813,-5.14452 17.24883,-19.53404 17.24883,-19.53404 0,0 -7.33971,3.01983 -10.76349,5.00574 -4.23888,2.45876 -5.74563,3.15643 -11.9985,8.49704 0,0 7.09376,-11.5331 10.22714,-17.78201 7.44131,-9.1306 29.92659,-9.11043 40.2744,-4.86886 0.12722,-0.30723 0.18924,-0.60331 0.30834,-0.90479 1.76383,-2.64945 4.98997,-7.76669 3.55886,-14.57495 -13.74993,-12.93403 -25.51665,-15.06899 -28.95991,-14.47796 z m 124.3886,-12.48226 -90.26704,30.19656 c 0,0 -5.75285,22.95692 -7.26862,24.3935 0,0 19.80293,-9.84507 29.45861,-15.23156 15.37676,-8.57794 45.28885,-27.19207 45.28885,-27.19207 0,0 -29.06354,20.21099 -43.77562,30.0522 -11.64644,7.79054 -35.2206,22.95066 -35.2206,22.95066 0,0 0.93252,11.33016 3.16923,16.44731 1.79824,4.11405 7.97917,10.84727 7.97917,10.84727 17.08658,-49.54455 57.48,-65.8381 90.63602,-92.46387 z m -109.7443,48.07881 c -1.36351,0.0992 -2.65628,0.29957 -3.64397,0.64879 -6.9097,2.44204 -12.29477,8.12228 -17.5016,13.2795 -7.76635,7.69238 -20.08577,25.93194 -20.08577,25.93194 0,0 23.49132,-5.74845 33.47379,-12.1761 4.51452,-2.9069 9.74442,-6.98823 11.28034,-11.506 2.46889,-7.26225 5.39914,-15.91315 5.39914,-15.91315 0,0 -4.83223,-0.56859 -8.92198,-0.26533 z m -8.54447,8.05502 c 3.38641,0.19441 6.60296,4.02945 6.5989,7.28789 -0.004,3.4211 -3.38999,8.18918 -6.94421,7.96981 -4.03753,-0.24902 -6.83579,-6.07573 -6.13373,-9.92067 0.48647,-2.66411 3.68042,-5.49788 6.47904,-5.33703 z m -70.68611,35.77021 c 0,0 -12.13624,12.23503 -16.68643,19.469 -3.54996,5.64381 -3.70223,13.26571 -8.05675,18.31479 -3.31747,3.84664 -12.88341,8.11487 -12.88341,8.11487 l -0.88455,-3.58819 -13.94903,7.15504 1.43433,-7.56091 c -3.71739,2.12247 -3.24185,3.76873 -13.08699,6.59951 l 5.56914,-11.72937 0.70483,5.2334 c 0.7917,1.90727 11.009,-6.76863 12.24946,-9.03897 0.98335,-1.79992 -2.84137,11.41401 -2.84137,11.41401 1.00286,1.1302 10.17632,-9.19068 13.67514,-13.59238 2.63106,-3.31011 -0.37687,8.82082 -0.37687,8.82082 0,0 6.70793,-2.06567 8.6906,-4.69497 2.82347,-3.74433 3.02806,-13.74391 3.02806,-13.74391 z M 447.97885,-44.934187 c 0,0 -43.83415,41.4403977 -66.92253,60.812092 C 334.63208,54.829082 237.2772,127.12309 237.2772,127.12309 c 0,0 -19.89161,4.83569 -28.12112,10.53147 -9.28515,6.4265 -19.94564,14.4602 -22.30098,25.50404 -1.83812,8.61834 -2.75074,20.61994 7.76627,25.27742 13.17066,5.83268 27.49852,-6.15078 35.63154,-18.03954 10.62628,-15.53349 10.26852,-38.50461 10.26852,-38.50461 0,0 101.99715,-69.224599 148.74646,-109.197428 22.05172,-18.855228 61.7776,-61.314659 61.7776,-61.314659 z m 36.37899,39.339574 c 0,0 -44.16047,46.160155 -66.64946,68.845384 -41.81202,42.176819 -126.93804,125.043539 -126.93804,125.043539 0,0 -32.86826,11.31522 -40.34661,25.32425 -7.31217,13.69748 -17.70778,42.40265 1.37798,46.56265 16.4581,3.58727 30.59175,-11.60456 38.56313,-24.60514 7.35623,-11.99735 4.10519,-42.02407 4.10519,-42.02407 0,0 84.67014,-79.20726 125.61347,-120.2311 C 443.3518,50.006913 488.26233,1.80518 488.26233,1.80518 Z M 183.2868,157.92849 c 0,0 -14.10089,18.99923 -18.04589,30.88273 -2.65415,7.99496 -4.71368,19.02583 5.98737,24.55691 9.01036,4.65719 31.88037,-9.50012 39.93906,-15.65917 9.97478,-7.62353 18.56336,-17.77663 18.56336,-17.77663 -12.05284,9.01595 -30.45119,21.44208 -43.51582,14.17745 -11.50738,-6.39868 -2.92808,-36.18129 -2.92808,-36.18129 z m 57.94382,70.83051 c -5.27427,8.46722 -18.15551,29.36491 -20.7038,45.98023 -1.1163,7.27843 -3.74916,18.2463 2.62118,21.93944 12.60331,7.30642 30.25868,-6.45351 40.21578,-17.08756 8.84799,-9.4496 19.63946,-26.46455 19.63946,-26.46455 8.02627,-17.718 -4.76727,3.37289 -17.18376,14.7959 -6.05334,5.56896 -18.88118,5.7245 -24.67762,-0.11143 -9.17336,-9.23592 -4.30669,-23.12901 0.0886,-39.05202 z"
       id="path4155"
       inkscape:connector-curvature="0"
       sodipodi:nodetypes="ccccccccccscccacccccccsccccccccccccccccccccccccccccccccscccccccccccccccccccccccccccccccccccccccccccsccacccccccccccsccccccccccccccccccccccccsccccccccccccccccccccccccccccccccccccccccsccscccsccsccccccccccscccccccccc" />
    <g
       id="g4515"
       transform="translate(-4.2128902,-172.53864)">
      <rect
         y="166.3864"
         x="599.8244"
         height="131.74529"
         width="231.20776"
         id="rect4489"
         style="opacity:1;fill:#0044a9;fill-opacity:1;stroke:none;stroke-width:1.9074316;stroke-linecap:round;stroke-linejoin:round;stroke-miterlimit:4;stroke-dasharray:none;stroke-opacity:1;paint-order:stroke markers fill" />
      <g
         transform="matrix(1.2363301,0,0,1.2363301,-513.54273,146.28707)"
         id="g4491">
        <rect
           x="550.74927"
           id="rect4"
           height="106.92123"
           width="374.06848"
           y="16.193968"
           style="opacity:1;stroke-width:1.03907907" />
        <path
           style="opacity:1;fill:#ffffff;stroke-width:1.03907907"
           inkscape:connector-curvature="0"
           id="path6"
           d="m 907.98463,96.566727 c -0.7273,0.207819 -1.35075,0.311723 -1.97419,0.311723 -2.18212,0 -3.2212,-0.935168 -3.2212,-3.636774 V 72.979634 c 0,-10.702513 -8.52046,-15.897909 -18.59946,-15.897909 -7.68924,0 -11.84554,0.935171 -20.05428,4.260224 l -1.66252,10.806422 10.70252,1.142988 1.55861,-5.299304 c 2.18207,-1.142987 4.36413,-1.350803 7.16969,-1.350803 7.58522,0 7.68918,5.714935 7.68918,10.494698 v 1.558619 c -2.38993,-0.311723 -5.09153,-0.415631 -7.68918,-0.415631 -10.70256,0 -21.8207,2.701605 -21.8207,14.235383 0,9.767349 7.68918,13.404119 14.44319,13.404119 7.58533,0 12.3651,-4.57195 15.06669,-9.351713 0.62345,5.714943 4.05236,9.351713 10.28683,9.351713 2.90943,0 5.92281,-0.83126 8.4166,-2.18206 z m -28.67858,-0.311722 c -4.0524,0 -5.50711,-2.389881 -5.50711,-5.403211 0,-5.091487 4.15636,-6.44229 8.93613,-6.44229 2.182,0 4.57194,0.311724 6.75395,0.623447 -0.31166,7.793094 -5.40321,11.222054 -10.18297,11.222054 z M 861.32999,33.390723 841.06794,104.77545 h -13.19631 l 20.26204,-71.384727 z m -27.22388,0 -20.26204,71.384727 H 800.64776 L 820.9098,33.390723 Z m -56.11027,24.626173 h 14.02757 v 16.833081 h -14.02757 z m 0,30.029385 h 14.02757 v 16.833079 h -14.02757 z m -20.46987,-0.623448 10.59862,1.039079 -2.90942,16.417448 h -40.83582 l -1.3508,-7.065732 25.76916,-29.613758 H 734.1467 l -2.07817,7.273554 -9.66343,-1.039079 1.66253,-16.417449 h 41.04363 l 1.03908,7.065737 -25.97699,29.613753 h 15.17056 z m -67.0206,-30.341108 c -16.83308,0 -25.14571,11.325962 -25.14571,25.041805 0,14.962738 9.97516,23.79491 24.41836,23.79491 14.96274,0 25.76915,-9.455617 25.76915,-24.418357 0,-13.092396 -8.20872,-24.418358 -25.0418,-24.418358 z m -0.31172,38.445925 c -7.27356,0 -11.01424,-6.234474 -11.01424,-14.339291 0,-8.832172 4.26022,-13.923659 11.11815,-13.923659 6.33838,0 11.42986,4.260224 11.42986,13.715843 0,9.039988 -4.57194,14.547107 -11.53377,14.547107 z m -36.88731,-0.935172 h 6.23448 V 104.77545 H 640.00614 V 78.486753 c 0,-8.104816 -2.70161,-11.222053 -8.00092,-11.222053 -6.44229,0 -9.03998,4.571948 -9.03998,11.118146 v 16.31354 h 6.23447 v 10.182974 h -19.6386 V 78.486753 c 0,-8.104816 -2.7016,-11.222053 -8.0009,-11.222053 -6.44229,0 -9.03999,4.571948 -9.03999,11.118146 v 16.31354 h 8.93608 V 104.87936 H 572.98553 V 94.696386 H 579.22 V 68.19987 h -6.23447 V 58.016896 h 19.6386 v 7.065737 c 2.80551,-4.987579 7.68918,-8.000908 14.23538,-8.000908 6.75402,0 12.98849,3.221145 15.27446,10.079066 2.5977,-6.234473 7.897,-10.079066 15.27446,-10.079066 8.41654,0 16.10573,5.091487 16.10573,16.209634 v 21.301119 z"
           class="st0" />
      </g>
      <text
         id="text4512"
         y="267.82849"
         x="729.74506"
         style="font-style:normal;font-weight:normal;font-size:152.50526428px;line-height:1;font-family:sans-serif;text-align:center;letter-spacing:0px;word-spacing:0px;text-anchor:middle;fill:#ffffff;fill-opacity:1;stroke:none;stroke-width:16.33984756"
         xml:space="preserve"><tspan
           style="font-style:normal;font-variant:normal;font-weight:normal;font-stretch:normal;font-family:'Zilla Slab';-inkscape-font-specification:'Zilla Slab';fill:#ffffff;stroke-width:16.33984756"
           y="267.82849"
           x="729.74506"
           id="tspan4510"
           sodipodi:role="line">sv</tspan></text>
    </g>
  </g>
</svg>
