<?xml version="1.0" encoding="UTF-8" standalone="no"?>
<!-- Created with Inkscape (http://www.inkscape.org/) -->

<svg
   xmlns:dc="http://purl.org/dc/elements/1.1/"
   xmlns:cc="http://creativecommons.org/ns#"
   xmlns:rdf="http://www.w3.org/1999/02/22-rdf-syntax-ns#"
   xmlns:svg="http://www.w3.org/2000/svg"
   xmlns="http://www.w3.org/2000/svg"
   xmlns:sodipodi="http://sodipodi.sourceforge.net/DTD/sodipodi-0.dtd"
   xmlns:inkscape="http://www.inkscape.org/namespaces/inkscape"
   version="1.1"
   id="svg2"
   width="563"
   height="563"
   viewBox="0 0 563 563"
   sodipodi:docname="perfil_facebook.svg"
   inkscape:version="0.92.1 unknown"
   inkscape:export-filename="/home/keik/Escritorio/IMAGEN MOZILLA CENTROAMERICA/Guatemala/perfil_facebook.png"
   inkscape:export-xdpi="300"
   inkscape:export-ydpi="300">
  <metadata
     id="metadata8">
    <rdf:RDF>
      <cc:Work
         rdf:about="">
        <dc:format>image/svg+xml</dc:format>
        <dc:type
           rdf:resource="http://purl.org/dc/dcmitype/StillImage" />
        <dc:title></dc:title>
      </cc:Work>
    </rdf:RDF>
  </metadata>
  <defs
     id="defs6" />
  <sodipodi:namedview
     pagecolor="#ffffff"
     bordercolor="#666666"
     borderopacity="1"
     objecttolerance="10"
     gridtolerance="10"
     guidetolerance="10"
     inkscape:pageopacity="0"
     inkscape:pageshadow="2"
     inkscape:window-width="1366"
     inkscape:window-height="708"
     id="namedview4"
     showgrid="false"
     borderlayer="true"
     inkscape:showpageshadow="false"
     inkscape:zoom="0.91829485"
     inkscape:cx="281.5"
     inkscape:cy="281.5"
     inkscape:window-x="0"
     inkscape:window-y="0"
     inkscape:window-maximized="1"
     inkscape:current-layer="layer2"
     showguides="true"
     inkscape:guide-bbox="true" />
  <g
     inkscape:groupmode="layer"
     id="layer1"
     inkscape:label="Layer 1"
     style="display:inline">
    <rect
       style="opacity:1;fill:#37abc8;fill-opacity:1;stroke:#f2f2f2;stroke-width:1.00558317;stroke-linecap:round;stroke-linejoin:round;stroke-miterlimit:4;stroke-dasharray:none;stroke-opacity:0.97254902;paint-order:stroke markers fill"
       id="rect4488"
       width="593.48572"
       height="576.06213"
       x="-13.43144"
       y="-7.0755544" />
  </g>
  <g
     inkscape:groupmode="layer"
     id="layer2"
     inkscape:label="Layer 2">
    <rect
       style="opacity:1;fill:#ffffff;fill-opacity:1;stroke:none;stroke-width:0.92477041;stroke-linecap:round;stroke-linejoin:round;stroke-miterlimit:4;stroke-dasharray:none;stroke-opacity:0.97254902;paint-order:stroke markers fill"
       id="rect4506"
       width="588.76605"
       height="102.90536"
       x="-12.711799"
       y="463.01355" />
    <path
       style="opacity:1;fill:#ffffff;stroke-width:1.21537626"
       inkscape:connector-curvature="0"
       id="path6"
       d="m 550.46127,428.49459 c -0.85069,0.24308 -1.5799,0.36462 -2.30913,0.36462 -2.55236,0 -3.76773,-1.09385 -3.76773,-4.25383 v -23.69983 c 0,-12.51837 -9.96609,-18.59526 -21.75518,-18.59526 -8.99382,0 -13.85534,1.09384 -23.4568,4.98305 l -1.94462,12.63991 12.5184,1.33692 1.82305,-6.19842 c 2.55229,-1.33692 5.10458,-1.58 8.38614,-1.58 8.87218,0 8.99379,6.68458 8.99379,12.2753 v 1.82307 c -2.79543,-0.36461 -5.95539,-0.48615 -8.99379,-0.48615 -12.51842,0 -25.52294,3.15998 -25.52294,16.65065 0,11.42453 8.99377,15.67836 16.89372,15.67836 8.8723,0 14.46303,-5.34766 17.62301,-10.93839 0.72922,6.68456 4.73991,10.93839 12.03216,10.93839 3.40306,0 6.92772,-0.97232 9.84461,-2.55229 z m -33.54437,-0.3646 c -4.73995,0 -6.44147,-2.79538 -6.44147,-6.31997 0,-5.95534 4.86155,-7.53534 10.45228,-7.53534 2.55221,0 5.34765,0.36462 7.89987,0.72923 -0.36454,9.11533 -6.31995,13.12608 -11.91068,13.12608 z m -21.026,-73.53027 -23.69983,83.49634 h -15.4353 l 23.69984,-83.49634 z m -31.84287,0 -23.69984,83.49634 h -15.43527 l 23.69984,-83.49634 z m -65.63031,28.80441 h 16.40759 v 19.6891 h -16.40759 z m 0,35.12438 h 16.40759 v 19.68908 h -16.40759 z m -23.94292,-0.72923 12.39685,1.21538 -3.40306,19.20293 H 335.7043 l -1.57998,-8.26456 30.14133,-34.63821 h -17.1368 l -2.43078,8.50764 -11.30297,-1.21538 1.94459,-19.20295 h 48.00737 l 1.21538,8.26457 -30.38442,34.63821 h 17.74449 z m -78.39176,-35.48899 c -19.68911,0 -29.41209,13.24761 -29.41209,29.29057 0,17.50141 11.6676,27.83212 28.56133,27.83212 17.50141,0 30.14132,-11.05992 30.14132,-28.56133 0,-15.31375 -9.60146,-28.56136 -29.29056,-28.56136 z m -0.3646,44.96893 c -8.50766,0 -12.883,-7.29226 -12.883,-16.77219 0,-10.3307 4.98304,-16.28605 13.00454,-16.28605 7.41377,0 13.36912,4.98305 13.36912,16.04297 0,10.57377 -5.34765,17.01527 -13.49066,17.01527 z m -43.14587,-1.09385 h 7.29226 v 11.91069 h -22.84906 v -30.74902 c 0,-9.47993 -3.15998,-13.12606 -9.3584,-13.12606 -7.53535,0 -10.57378,5.34765 -10.57378,13.00453 v 19.0814 h 7.29226 v 11.91068 h -22.97062 v -30.87055 c 0,-9.47993 -3.15996,-13.12606 -9.35838,-13.12606 -7.53534,0 -10.57377,5.34765 -10.57377,13.00453 v 19.0814 h 10.45224 v 11.91068 H 158.624 v -11.91068 h 7.29225 V 395.31482 H 158.624 v -11.91069 h 22.97061 v 8.26457 c 3.28151,-5.83381 8.99377,-9.35841 16.65066,-9.35841 7.89994,0 15.19219,3.76767 17.86602,11.78915 3.03845,-7.29225 9.23685,-11.78915 17.86603,-11.78915 9.84454,0 18.83834,5.95534 18.83834,18.95988 v 24.9152 z"
       class="st0" />
    <text
       xml:space="preserve"
       style="font-style:normal;font-weight:normal;font-size:99.6545639px;line-height:1;font-family:sans-serif;text-align:end;letter-spacing:0px;word-spacing:0px;text-anchor:end;opacity:1;fill:#000000;fill-opacity:1;stroke:none;stroke-width:10.67727375"
       x="555.72473"
       y="535.37726"
       id="text4512"><tspan
         sodipodi:role="line"
         id="tspan4510"
         x="555.72473"
         y="535.37726"
         style="font-style:normal;font-variant:normal;font-weight:normal;font-stretch:normal;font-family:'Zilla Slab';-inkscape-font-specification:'Zilla Slab';text-align:end;text-anchor:end;fill:#000000;stroke-width:10.67727375">guatemala</tspan></text>
    <path
       style="display:inline;opacity:1;fill:#ffffff;fill-opacity:1;fill-rule:nonzero;stroke:none;stroke-width:1.83082211;stroke-linecap:round;stroke-linejoin:round;stroke-miterlimit:4;stroke-dasharray:none;stroke-dashoffset:0;stroke-opacity:1"
       d="m 351.10051,14.11356 c -2.55792,0.346489 -7.10093,3.491615 -8.02607,4.666156 -7.42831,9.430901 -10.05497,15.970457 -12.32612,24.970175 -3.26645,12.943887 -1.43753,40.023984 -1.43753,40.023984 0,0 -1.83872,-14.167061 -2.53827,-21.274205 -0.6685,-6.791502 -1.57612,-13.585858 -1.58479,-20.410102 -0.005,-4.279169 -0.19143,-8.810316 0.96217,-12.802537 3.99408,-13.822282 -5.4972,-2.147372 -6.97893,0.75474 -3.61509,7.080608 -6.15932,14.975992 -6.626,22.912353 -0.55826,9.493965 4.6593,28.146912 4.6593,28.146912 0,0 -5.34413,-10.767855 -6.84858,-16.543967 -1.93136,-7.414806 -3.67863,-15.233303 -2.68466,-22.830722 1.96775,-15.03846 -5.46267,-4.45366 -7.37849,-0.148152 -3.01567,6.777152 -3.39865,14.673452 -2.84242,22.070384 0.56777,7.550483 6.23871,21.842608 6.23871,21.842608 0,0 -5.16943,-5.929871 -7.04081,-9.354818 -2.5014,-4.577863 -5.43989,-14.674339 -5.43989,-14.674339 -5.27823,-15.389577 -6.79829,-5.611238 -8.13687,5.378508 0,0 0.39777,9.180823 1.80328,13.496392 1.01947,3.130289 4.70708,8.682151 4.70708,8.682151 -11.54125,-10.218218 -18.70563,-13.070143 -13.3493,5.147798 -5.56409,-1.694171 -9.87471,-1.642312 -3.36747,13.453511 -8.83602,2.8653 -3.17345,4.73342 -1.44909,6.87277 -11.72165,3.90637 -11.79444,7.93806 -5.07039,12.04339 -10.97105,2.52322 -9.91806,5.92622 -2.18952,9.81691 -2.21227,4.16479 -11.60423,8.28813 -0.98992,12.52948 -1.49681,4.78248 -6.267,12.49178 2.0796,8.47092 -2.22999,11.55778 0.17657,10.93621 2.89935,9.48174 -0.71332,8.04065 0.64944,12.02856 6.1357,7.96878 -1.05293,3.60541 -6.17512,9.94792 2.54079,6.97866 -2.18617,9.73795 1.75593,5.85396 4.43645,4.77175 -0.76691,1.72269 -5.09784,5.78874 0.18683,3.53278 l 15.35207,-5.06887 c 1.78023,-0.41318 11.14003,-2.55254 17.4875,-3.2641 7.08341,-0.79418 14.19993,-2.32938 20.76696,-5.10072 4.65453,-1.96425 12.85712,-8.02153 12.85712,-8.02153 0,0 -1.06637,-16.06655 -0.48399,-24.07064 0.33875,-4.65543 3.47823,-9.31076 2.40408,-13.81654 l 22.92855,-29.22078 c 10.58842,-20.342611 7.50116,-21.33884 -1.50947,-13.957836 l -6.09721,4.726583 c 0,0 8.27227,-15.301186 11.06212,-23.496789 1.92795,-5.663684 3.85248,-17.529621 3.85249,-17.529611 1.24317,-8.664754 5.90061,-23.03645 -8.85042,-4.984678 l -9.65278,16.435742 c 0,0 4.02342,-16.110147 6.67689,-23.968619 2.31205,-6.847239 3.01657,-7.661774 3.15975,-16.84 0.0456,-2.91928 -6.22764,1.980596 -9.14781,4.810472 -4.0283,3.90375 -7.1489,9.049863 -9.70074,14.175786 -2.78967,5.603612 -5.97359,17.805435 -5.97359,17.805445 0,0 0.15883,-16.944149 1.32861,-25.31065 0.60422,-4.321265 0.76902,-8.964046 2.92451,-12.757756 3.04789,-5.364433 2.26073,-6.788421 0.27122,-6.518919 z m -43.31188,94.42389 c 7.84449,6.7293 12.52927,8.51783 17.09867,10.12356 -2.22292,-0.33355 -4.51489,-0.39781 -6.56305,-1.28382 -2.96596,-1.28305 -7.89532,-5.62988 -7.89532,-5.62988 -0.23264,-0.29079 -2.1749,-1.74345 -2.81629,-1.67211 -0.49888,0.0555 -0.51439,1.13419 0.66697,4.73395 l 1.30221,3.64651 c 0,0 -4.48845,-1.31333 -5.95246,-2.98168 -5.33635,-6.08113 -2.7296,1.62242 -2.13661,2.56425 2.15505,3.42115 2.42095,3.75196 3.90611,5.40682 1.93651,2.1578 6.46052,5.82522 6.46052,5.82522 0,0 -3.65643,-2.17106 -5.66643,-2.80293 -2.33342,-0.73355 -4.93339,-0.33156 -7.25655,-1.09703 -2.34665,-0.77318 -4.6494,-1.88659 -6.55039,-3.46485 -5.53685,-4.59679 -3.10115,4.54764 -1.70785,6.16036 2.59778,3.00687 3.84297,3.63708 5.86108,5.34443 1.54184,1.30445 4.76537,3.73793 4.76537,3.73793 0,0 -6.50512,-0.5425 -9.57335,-1.56404 -2.18367,-0.72703 -4.52099,-1.5394 -6.12242,-3.19237 -4.37087,-4.51131 -3.77366,0.0363 -0.96358,4.51903 0,0 2.29692,3.12708 3.88028,4.18077 3.08787,2.05489 10.44675,3.83374 10.44675,3.83374 -10e-6,1e-5 -7.35275,1.59325 -11.08641,1.59882 -2.0523,0.003 -3.53943,0.13552 -6.09575,-0.86199 -1.21428,-0.47383 -7.432,-6.86615 -2.24306,3.20378 l 2.51385,3.01006 -3.63199,-1.40687 c -3.9296,-1.57988 -3.71789,0.32096 0.34964,5.4593 l 2.81195,2.69753 -4.81953,-0.65259 c 0,0 -4.03258,1.28816 1.65372,4.67504 1.50748,0.89792 3.18549,1.51609 4.87335,1.99561 2.367,0.6725 7.27825,1.21332 7.27825,1.21332 0,0 0.86319,3.04921 2.15004,3.58147 1.33229,0.5511 4.19665,-1.05272 4.19665,-1.05272 0,0 2.38362,1.63867 2.22498,2.82781 -0.32471,2.43359 -4.60424,2.31134 -5.91366,4.38816 -0.90839,1.44077 -1.40568,3.36835 -0.97826,5.01705 0.33761,1.30207 1.93494,2.87305 2.95995,3.7897 -2.42573,-0.60237 -6.20687,-1.85296 -6.97895,-3.97122 -0.63253,-1.73594 1.03281,-3.67234 2.24912,-5.06309 1.17009,-1.33792 4.54245,-2.79655 4.54245,-2.79655 0,0 -3.64641,-0.93378 -4.68784,-2.33445 -0.46196,-0.62122 -0.39101,-2.28852 -0.39101,-2.28852 0,0 -8.29707,0.45606 -11.65851,-1.56103 -2.90022,-1.7403 -5.39392,-4.69259 -5.92087,-8.24025 -0.22293,-1.5018 4.24983,-1.64553 4.24983,-1.64553 0,0 -6.39171,-10.26564 -3.17343,-8.71877 1.7202,0.8268 5.07604,1.65087 5.07604,1.65087 -2.23024,-2.98798 -5.24636,-9.98576 -2.63782,-8.54409 3.00737,1.66211 5.05202,3.93032 8.08383,4.42604 1.90641,0.31165 5.70314,-1.01763 5.70314,-1.01763 0,0 -4.14126,-2.31473 -6.66834,-7.77868 -1.096,-2.36973 -3.48606,-10.1023 -0.13305,-7.83139 1.56928,1.06281 5.53257,5.79425 10.95004,6.52642 0,0 -4.29403,-5.20804 -5.21258,-8.36053 -0.74114,-2.5436 -1.21887,-6.19848 -0.0761,-7.94462 1.64615,-2.51547 5.11798,2.4749 8.15701,3.84934 3.03899,1.37447 9.47569,2.77029 9.47569,2.77029 0,0 -4.63927,-4.74664 -5.89097,-7.73569 -0.72951,-1.74271 -0.80223,-5.61136 -0.80223,-5.61136 1.0902,-0.57433 3.54255,1.39144 5.1332,2.70369 0.99766,0.82305 3.2997,2.03698 3.2997,2.03698 0,0 -1.71598,-4.33522 -1.31027,-6.51274 0.13578,-0.72961 1.19452,-1.87883 1.19452,-1.87883 z m 17.56898,0.79301 c 0.18377,-0.0377 0.4118,-0.0459 0.68999,-0.0177 2.90544,0.29541 6.10434,2.6431 9.15457,3.96867 1.07666,-1.65343 2.19898,-1.20541 3.30502,-1.4625 0,0 0.31569,-1.60085 0.95106,-1.93975 1.09172,-0.58239 3.67894,0.49929 3.67894,0.49929 0,0 1.57011,-2.16492 2.67995,-2.02175 1.53977,0.19861 2.88565,3.65839 2.88565,3.65839 1.65617,-1.2531 4.00943,0.65179 3.48907,1.86354 -2.80739,6.53739 -3.70262,11.91671 -3.33198,15.13935 -0.84075,-0.99568 -1.91953,-1.87733 -1.91952,-1.87732 0,0 0.20727,-5.89636 1.73481,-8.25835 1.62809,-2.51751 3.64501,-8.87969 -0.003,-5.19141 -1.87449,-4.42894 -3.53477,-4.33996 -5.46819,-1.71573 -1.36022,-0.45692 -3.15203,-2.28125 -3.37359,0.87619 -4.04517,-0.32066 -2.53219,1.63633 -2.2676,3.08398 0,0 -4.62703,-2.66411 -6.22621,-3.65998 -0.66832,-0.41619 -9.04585,-4.49919 -2.62091,2.38023 1.40542,1.50485 2.79535,2.43966 3.63681,3.2966 1.48019,1.50746 4.03751,4.88904 4.03751,4.88904 0,0 -2.40257,-1.0731 -4.96942,-2.11387 -2.27921,-3.94993 -8.66534,-10.84919 -6.0632,-11.39695 z m 49.21893,41.94255 c -0.27178,0.0677 -0.53692,0.14567 -0.79417,0.242 l 9e-4,0.004 c -0.29361,0.11163 -0.57906,0.23882 -0.85854,0.39589 -0.22808,0.46034 2.61239,0.82506 1.35683,1.36789 -2.12254,0.91752 -3.80915,-0.37942 -5.55456,0.51245 -0.69974,0.35761 0.0395,1.45386 -0.32806,2.08269 -0.0245,1.16804 -5.95081,1.2548 -7.82794,0.35197 -2.38783,1.12039 -3.66346,3.78114 -5.79412,3.47471 -0.52725,1.12377 -0.95149,5.1728 -1.19988,6.49721 -2.23005,1.80853 -10.14421,8.10523 -15.28849,10.46028 -15.86831,7.26435 -34.8689,5.75157 -50.68109,13.13737 -30.42459,14.21106 -32.40481,28.6508 -50.27071,40.73294 -6.68419,4.52034 -21.14798,11.78156 -21.14799,11.78156 0,0 12.92286,-0.51091 18.85344,-2.78924 8.86971,-3.40754 23.73753,-15.78285 23.73753,-15.78285 0,0 -5.81778,12.70148 -9.82864,18.37174 -3.75886,5.31414 -8.1611,10.2612 -13.16702,14.42177 -4.29501,3.56967 -14.23271,8.84424 -14.23271,8.84424 0,0 18.64723,-5.35495 26.66477,-10.55907 6.79643,-4.4115 17.37401,-17.00011 17.37401,-17.00011 0,0 13.74966,-2.10559 20.64229,-1.70409 6.01328,0.35028 11.72974,3.35815 17.68852,3.89319 0.5351,-1.05263 1.61906,-3.14394 2.5957,-4.39889 0.86537,-1.11182 3.02645,-2.94861 3.02645,-2.94861 l -7.92155,2.92666 c 0,0 3.1498,-9.3567 5.79807,-13.46342 4.3072,-6.67933 12.97089,-10.29893 16.05962,-17.6219 1.57669,-3.73809 0.72116,-12.14956 0.72116,-12.14956 0,0 1.83913,9.22754 0.36938,13.47391 -2.48846,7.18998 -10.22153,11.32403 -14.59788,17.54787 -2.13224,3.03239 -5.63634,9.58637 -5.63634,9.58637 l 11.73429,-2.96212 c 0,0 -5.9409,4.35931 -8.13708,7.25499 -0.5335,0.70344 -1.08342,1.76396 -1.58819,2.82436 l -4.07176,7.41393 c -4.87768,7.5705 -0.72035,4.90136 0.99799,4.99511 l 2.78048,-1.46717 c 0.1909,1.30174 -2.26404,2.70735 1.9352,3.85293 -0.10699,1.91208 0.40234,3.45989 3.28651,3.59609 -1.64322,2.6494 -2.72395,4.94458 1.87545,3.66706 -0.49264,3.59348 1.08244,5.98142 2.40762,8.51514 1.70111,1.10385 1.96952,4.76481 7.54398,-1.04853 1.12089,3.15949 0.21305,8.97435 5.33856,6.89342 l 2.07883,6.06292 c 2.98577,6.62359 5.12286,1.93335 7.56973,1.40729 2.80938,2.82084 5.32563,10.15806 8.63997,5.14638 0,0 3.52105,6.72279 6.78628,7.21872 1.92046,0.29163 5.074,-2.87142 5.074,-2.87142 0,0 2.15064,10.96616 6.54663,11.61402 2.43533,0.35885 5.33145,-5.11501 5.33144,-5.11501 2.83097,2.75049 5.31488,9.72281 8.56905,7.32391 l 1.90769,-6.39769 c 1.34485,-0.23453 1.59777,3.94362 4.13797,-1.11363 l 1.88547,-5.26772 c 0,0 2.6239,7.6131 5.25254,10.5196 5.0204,5.55556 22.88349,18.27951 16.20361,9.53187 0,0 -5.28946,-8.25653 -6.27873,-12.95044 -0.46275,-2.20059 0.24366,-6.7448 0.24366,-6.7448 0,0 6.02204,5.58216 9.60051,7.50349 4.31511,2.31685 9.06306,4.16418 13.93626,4.65427 12.11328,1.21814 8.06465,-0.40095 6.1967,-1.40229 -3.85548,-2.06256 -5.51475,-3.0105 -7.72716,-5.18683 -3.46016,-3.40378 -8.31476,-11.95849 -8.31476,-11.95851 0,0 8.17322,7.29324 13.11043,9.44246 5.00253,2.17767 10.59787,3.36601 16.05153,3.20545 3.07384,-0.0905 8.92553,-2.33449 8.92553,-2.33449 0,0 -10.3245,-0.98376 -14.7937,-3.34711 -4.81507,-2.54619 -11.95074,-11.14523 -11.95074,-11.14523 0,0 9.02377,3.64962 13.72035,4.87467 6.10441,1.59234 12.3517,2.95127 18.65604,3.18362 4.51544,0.16643 9.21527,0.15826 13.4954,-1.2898 2.89302,-0.97659 7.77503,-4.84447 7.77503,-4.84447 0,0 -9.47496,1.27221 -14.23669,1.20594 -5.62672,-0.0783 -11.45162,-0.0724 -16.77637,-1.8928 -6.70431,-2.29191 -12.96264,-6.23169 -18.16148,-11.04551 -2.20996,-2.04631 -5.27434,-7.33468 -5.27434,-7.33468 0,0 12.70535,8.73361 19.88292,11.29979 5.58761,1.99769 11.61047,3.10477 17.54372,3.00969 5.35297,-0.0857 10.43684,-2.45558 15.73534,-3.22209 3.362,-0.48625 10.15388,-0.87033 10.15388,-0.87035 4.739,-2.05676 2.86128,-2.46476 0.23623,-2.69053 l -4.64303,0.42918 3.18928,-2.98271 c 4.79386,-3.5257 -1.42872,-2.92104 -2.40789,-2.36636 -5.92537,3.35654 -8.96569,5.43356 -14.01689,6.1172 -4.4831,0.60665 -9.05299,-0.80333 -13.43537,-1.92619 -4.59845,-1.17832 -13.33119,-5.00827 -13.33119,-5.00827 0,0 10.08496,1.80385 15.125,1.34376 3.05942,-0.27924 8.87796,-2.46559 8.87796,-2.4656 0,0 -5.51646,-0.86107 -8.30025,-0.92486 -7.13502,-0.16344 -12.35775,-0.45402 -18.34353,-1.84054 -6.33755,-1.46797 -12.07184,-4.89769 -18.29633,-6.78847 -7.75014,-2.35418 -9.21663,-0.95683 -23.6343,-5.64249 l -0.0272,6.06442 c -1.75941,4.14356 -4.29305,0.85694 -6.4627,1.05485 -0.0947,3.17462 -2.55957,2.47021 -4.09366,3.29228 l -4.05161,-1.22544 c -0.12019,1.72254 -1.68914,1.3677 -3.15452,1.16015 l 0.37053,3.42631 -3.11222,-1.42371 c 1.25923,-0.29498 0.14921,-3.63098 0.4909,-5.1039 2.06222,0.91611 4.25345,2.40575 4.23272,-5.87502 0,0 1.37282,4.51699 3.31488,5.11106 1.10192,0.33703 2.56552,2.41846 3.18197,-1.35101 l 0.0645,-10.43735 c 0,0 0.17677,3.9062 0.90547,5.67876 0.65176,1.58554 1.29963,3.94115 2.99726,4.17969 1.46566,0.20599 3.26894,0.42175 3.48139,-2.75806 l -0.52824,-6.84649 c 0,0 4.7677,2.94732 7.3559,3.9861 4.60675,1.8491 9.44478,3.28539 14.3675,3.92419 3.8618,0.50114 7.89006,0.7869 11.68127,-0.10286 6.86367,-1.61142 -0.61241,-2.81746 -2.27519,-2.82281 -5.67576,-0.0187 -8.93155,-0.56038 -13.11557,-1.99309 -3.05113,-1.04476 -5.83053,-2.82994 -8.44919,-4.71241 -10.65084,-7.65651 -20.74911,-16.36728 -29.12456,-26.46258 -2.39273,-2.88411 -3.85319,-4.29499 -5.89124,-9.42936 -0.80664,-3.72647 -2.11418,-8.71557 -3.88736,-11.51864 -1.4223,-2.24857 -3.4317,-4.44305 -5.9413,-5.32663 -5.42545,-1.91014 -17.23242,0.9266 -17.23242,0.9266 0,0 11.45074,-4.83345 16.98468,-3.22638 3.08132,0.89482 5.28225,3.88861 7.0249,6.5827 2.10591,3.25585 3.8516,9.48415 4.75092,13.05968 1.79714,-2.44931 3.5964,-5.56169 4.9645,-8.12742 0.69982,-1.10314 1.30172,-2.04467 2.04046,-3.2286 l -0.22378,2.33056 6.66138,-12.75584 0.81473,-1.84173 c 0.96477,-1.7643 1.8752,-3.48694 2.63518,-5.08105 1.99397,-4.18223 3.41138,-8.62801 4.79129,-13.05103 0.56204,-1.80152 -0.0152,-3.31535 1.41551,-5.47956 -0.46681,1.79095 0.0104,5.25336 0.0104,5.25336 0,0 5.27997,0.0396 9.09941,-3.22509 l -6.16626,-5.4245 c 1.63785,-2.47747 -1.93251,-3.55703 -3.22077,-4.99235 -2.0154,-2.24539 -1.72415,-1.48546 -4.05904,-3.98709 -0.67023,-0.8923 -1.79776,-1.55751 -2.50162,-1.19792 1.44789,0.9274 0.42182,1.41413 -1.05349,1.10843 -1.90793,-0.39545 -5.22108,-0.68896 -7.95481,0.002 -3.28074,0.21893 -5.58543,0.0495 -7.48907,0.51898 z m -20.36688,18.42614 c -0.54163,1.44765 -0.57358,2.82214 -0.55428,4.65196 l 2.05722,-1.44212 c 0.49815,2.96927 0.34528,7.45963 1.54478,8.78057 0.61725,-0.59989 1.06038,-1.4694 1.97747,-1.60713 0.52742,2.44541 3.77463,4.18222 5.97959,6.19269 -2.21558,-1.66935 -4.99437,-2.82641 -6.46828,-5.16652 -0.61007,0.60913 -1.00117,1.34911 -1.34014,2.74876 -1.0212,-1.06201 -3.09654,-4.44405 -2.6717,-8.75212 -1.40079,0.82027 -1.15028,2.00646 -2.08934,3.14706 0.13729,-3.06199 0.0171,-6.41382 1.56468,-8.55315 z m 24.51736,-0.4415 c 1.05034,-0.13835 2.37118,0.6433 2.80698,1.58384 0.47984,1.03643 0.0799,2.78098 -0.93941,3.29624 -1.0917,0.55196 -2.906,-0.18171 -3.43637,-1.28399 -0.52893,-1.09962 0.0218,-2.98883 1.13878,-3.4801 0.13553,-0.0596 0.27999,-0.0962 0.43002,-0.11596 z m -149.4524,54.91998 c -6.06234,1.37416 -24.51717,9.82938 -28.76663,11.76593 -31.67047,14.43272 -46.80437,31.19508 -76.29917,49.67155 -10.17643,6.37478 -31.949911,16.64101 -31.949921,16.64101 0,0 12.124241,-0.41174 17.854881,-2.17338 6.95478,-2.13792 13.53598,-5.25842 19.94625,-8.76995 0,0 29.71129,-22.83758 45.73029,-32.47999 11.84761,-7.13149 37.06066,-18.64396 37.06066,-18.64397 13.87741,-3.91405 26.7279,-13.46636 38.95258,-26.46293 0,0 -9.19178,7.42867 -22.52894,10.45173 z m -16.42364,16.0112 c 0,0 -24.82807,13.08105 -36.61199,20.66511 -16.4192,10.5673 -43.56419,31.105 -55.25762,40.04771 -7.0574,7.49449 -15.66428,16.75618 -21.29184,23.32258 -17.712829,20.66768 -35.278135,41.57947 -50.729323,63.98837 -11.707133,16.97893 -31.649533,53.1648 -31.649531,53.16481 0,0 13.005902,-12.51472 18.899066,-19.3321 10.875188,-12.58081 19.660162,-26.84978 30.251792,-39.67023 15.697708,-19.00097 49.278906,-55.1239 49.278906,-55.1239 14.96669,-16.87358 33.03574,-34.22275 57.42034,-52.53779 z m 110.53828,-29.21919 c -1.78655,4.81698 -5.03309,10.13536 -3.85385,13.93513 3.10459,2.67883 6.9077,1.24746 10.48471,1.15643 0,0 -3.26373,5.85011 -4.07365,9.06085 -0.17214,0.68199 -0.24932,1.6896 -0.29123,2.60009 -0.61301,3.58634 -1.65492,8.12379 -0.17395,7.04958 l 2.71016,-1.96891 c 0,0 -2.11846,4.01109 -2.43813,6.5606 -0.2428,1.93622 1.50701,6.36671 3.85872,4.40728 0,0 2.18376,-4.76747 3.59885,-6.96404 1.64032,-2.54606 5.6258,-7.13684 5.6258,-7.13684 0,0 -3.22695,5.7957 -4.52055,8.84183 -0.73177,1.72314 -1.82244,5.31119 -1.82244,5.31121 0.0581,3.01244 0.98787,4.17681 3.67586,1.60447 l 2.44036,-5.78302 -0.0912,7.32068 c 1.12314,8.19296 3.54941,4.87348 4.23265,3.23414 1.10906,-2.66119 1.83176,-5.43998 3.28168,-7.89345 0.43614,-0.73805 1.0421,-1.59283 1.69508,-2.4724 -1.31049,2.7915 -2.74116,6.71655 -2.6712,10.5972 0.0384,2.11151 -2.06646,4.60873 -4.17227,4.76941 -1.59678,0.12175 -2.89003,-1.69755 -3.67576,-3.09292 -1.10518,-1.96297 -1.03936,-6.67964 -1.03936,-6.67964 l -2.58565,4.14825 -2.4791,-5.74825 -2.71616,2.56151 c -1.91763,-0.89216 -2.90933,-2.66449 -3.33635,-4.33846 l -0.296,-4.25583 c -1.12591,0.37023 -2.07428,-0.14955 -2.25484,-4.45127 l 1.57353,-5.29497 1.42295,-4.58609 -0.0913,0.0139 c 1.14625,-2.92692 3.10912,-6.99698 3.10907,-6.99697 0,0 -6.03463,1.49447 -10.82412,0.12609 -0.58859,-5.59574 3.12832,-10.52785 5.69768,-15.63579 z m -107.19465,34.10831 c 0,0 -73.30235,54.50445 -102.9421,88.77775 -17.6102,20.36325 -25.574247,47.93409 -43.373226,68.13252 -5.834265,6.62084 -20.364149,16.91249 -20.364149,16.91249 0,0 20.437478,-3.50624 25.093474,-11.43178 18.293679,-31.13986 26.185731,-51.5341 45.234681,-72.84265 14.91803,-16.68761 34.34468,-28.80943 52.73256,-41.57303 14.01833,-9.73061 43.75271,-26.58208 43.75271,-26.58208 13.63442,-8.35621 23.22509,-16.62806 25.24339,-24.73971 -8.34518,1.8784 -16.68074,3.83958 -25.37734,3.34649 z m 137.85007,-2.81201 c 0,0 -2.12061,5.00246 -2.58099,7.65577 -0.49286,2.84035 -0.44877,5.94585 -0.15844,8.64541 0.75201,6.99381 5.54488,8.70234 5.98645,7.58312 l 3.24814,-6.64804 c -0.5024,3.30016 -0.74498,6.8136 -1.29833,9.2721 0,0 -3.86508,-0.30035 -5.47199,-1.26118 -1.37408,-0.82165 -2.57141,-2.12658 -3.16891,-3.61192 -1.8511,-4.60171 -1.20905,-13.50946 -0.92762,-16.53418 2.19275,-2.68936 4.37169,-5.10108 4.37169,-5.10108 z m 12.73632,4.48336 c 0,0 -0.25998,8.11879 0.95843,11.91016 0.71923,2.23824 2.18654,4.19332 3.63683,6.0435 1.44166,1.83915 4.63711,3.28345 3.73264,-0.49808 l -0.19864,-5.1397 2.92302,4.72379 c 0,0 -1.53099,4.97962 -3.66787,5.4232 -2.42452,0.50205 -4.73315,-2.04573 -6.27007,-3.98696 -2.20203,-2.7814 -3.72731,-8.89654 -4.3627,-11.83809 z m 66.75571,18.33264 c 12.71647,8.65674 23.2259,10.87464 33.83929,13.39979 0,0 -13.22994,-0.84926 -19.26186,-3.31396 -5.46874,-2.23467 -14.57743,-10.08583 -14.57743,-10.08583 z"
       id="path4157"
       inkscape:connector-curvature="0"
       sodipodi:nodetypes="ccccccsccccccsccccccccccccccccccccccccccccccccssccccccccccccscccsccccccccccccccccccccccccccccccccccccccccccccccccccccccccccccccccccccccscccccccccccccccccccccccsccccccccccccccccccccccccccccccccccccccccccccccccccccccccccccccccccccccccccccccccccccccccccccccccccccccccccccccscccccccccccccccccccccccccccccccccsccccscccccsccccccccccccccccccccccccccccccccccccccccccsscccccccccccccccccccccccccccc" />
  </g>
</svg>
