<?xml version="1.0" encoding="UTF-8" standalone="no"?>
<!-- Created with Inkscape (http://www.inkscape.org/) -->

<svg
   xmlns:dc="http://purl.org/dc/elements/1.1/"
   xmlns:cc="http://creativecommons.org/ns#"
   xmlns:rdf="http://www.w3.org/1999/02/22-rdf-syntax-ns#"
   xmlns:svg="http://www.w3.org/2000/svg"
   xmlns="http://www.w3.org/2000/svg"
   xmlns:sodipodi="http://sodipodi.sourceforge.net/DTD/sodipodi-0.dtd"
   xmlns:inkscape="http://www.inkscape.org/namespaces/inkscape"
   version="1.1"
   id="svg2"
   width="563"
   height="563"
   viewBox="0 0 563 563"
   sodipodi:docname="perfilfacebook.svg"
   inkscape:version="0.92.1 unknown"
   inkscape:export-filename="/home/keik/Escritorio/IMAGEN MOZILLA CENTROAMERICA/Nicaragua/perfil_facebook.png"
   inkscape:export-xdpi="300"
   inkscape:export-ydpi="300">
  <metadata
     id="metadata8">
    <rdf:RDF>
      <cc:Work
         rdf:about="">
        <dc:format>image/svg+xml</dc:format>
        <dc:type
           rdf:resource="http://purl.org/dc/dcmitype/StillImage" />
        <dc:title />
      </cc:Work>
    </rdf:RDF>
  </metadata>
  <defs
     id="defs6" />
  <sodipodi:namedview
     pagecolor="#ffffff"
     bordercolor="#666666"
     borderopacity="1"
     objecttolerance="10"
     gridtolerance="10"
     guidetolerance="10"
     inkscape:pageopacity="0"
     inkscape:pageshadow="2"
     inkscape:window-width="1366"
     inkscape:window-height="708"
     id="namedview4"
     showgrid="false"
     borderlayer="true"
     inkscape:showpageshadow="false"
     inkscape:zoom="0.91829485"
     inkscape:cx="281.5"
     inkscape:cy="281.5"
     inkscape:window-x="0"
     inkscape:window-y="0"
     inkscape:window-maximized="1"
     inkscape:current-layer="layer1" />
  <g
     inkscape:groupmode="layer"
     id="layer1"
     inkscape:label="Layer 1"
     style="display:inline">
    <rect
       style="opacity:1;fill:#0055d4;fill-opacity:1;stroke:#f2f2f2;stroke-width:1.00558317;stroke-linecap:round;stroke-linejoin:round;stroke-miterlimit:4;stroke-dasharray:none;stroke-opacity:0.97254902;paint-order:stroke markers fill"
       id="rect4488"
       width="593.48572"
       height="576.06213"
       x="-13.43144"
       y="-7.0755544" />
  </g>
  <g
     inkscape:groupmode="layer"
     id="layer2"
     inkscape:label="Layer 2">
    <rect
       style="opacity:1;fill:#ffffff;fill-opacity:1;stroke:none;stroke-width:0.92477041;stroke-linecap:round;stroke-linejoin:round;stroke-miterlimit:4;stroke-dasharray:none;stroke-opacity:0.97254902;paint-order:stroke markers fill"
       id="rect4506"
       width="588.76605"
       height="102.90536"
       x="-12.711799"
       y="463.01355" />
    <path
       style="opacity:1;fill:#ffffff;stroke-width:1.21537626"
       inkscape:connector-curvature="0"
       id="path6"
       d="m 550.46127,428.49459 c -0.85069,0.24308 -1.5799,0.36462 -2.30913,0.36462 -2.55236,0 -3.76773,-1.09385 -3.76773,-4.25383 v -23.69983 c 0,-12.51837 -9.96609,-18.59526 -21.75518,-18.59526 -8.99382,0 -13.85534,1.09384 -23.4568,4.98305 l -1.94462,12.63991 12.5184,1.33692 1.82305,-6.19842 c 2.55229,-1.33692 5.10458,-1.58 8.38614,-1.58 8.87218,0 8.99379,6.68458 8.99379,12.2753 v 1.82307 c -2.79543,-0.36461 -5.95539,-0.48615 -8.99379,-0.48615 -12.51842,0 -25.52294,3.15998 -25.52294,16.65065 0,11.42453 8.99377,15.67836 16.89372,15.67836 8.8723,0 14.46303,-5.34766 17.62301,-10.93839 0.72922,6.68456 4.73991,10.93839 12.03216,10.93839 3.40306,0 6.92772,-0.97232 9.84461,-2.55229 z m -33.54437,-0.3646 c -4.73995,0 -6.44147,-2.79538 -6.44147,-6.31997 0,-5.95534 4.86155,-7.53534 10.45228,-7.53534 2.55221,0 5.34765,0.36462 7.89987,0.72923 -0.36454,9.11533 -6.31995,13.12608 -11.91068,13.12608 z m -21.026,-73.53027 -23.69983,83.49634 h -15.4353 l 23.69984,-83.49634 z m -31.84287,0 -23.69984,83.49634 h -15.43527 l 23.69984,-83.49634 z m -65.63031,28.80441 h 16.40759 v 19.6891 h -16.40759 z m 0,35.12438 h 16.40759 v 19.68908 h -16.40759 z m -23.94292,-0.72923 12.39685,1.21538 -3.40306,19.20293 H 335.7043 l -1.57998,-8.26456 30.14133,-34.63821 h -17.1368 l -2.43078,8.50764 -11.30297,-1.21538 1.94459,-19.20295 h 48.00737 l 1.21538,8.26457 -30.38442,34.63821 h 17.74449 z m -78.39176,-35.48899 c -19.68911,0 -29.41209,13.24761 -29.41209,29.29057 0,17.50141 11.6676,27.83212 28.56133,27.83212 17.50141,0 30.14132,-11.05992 30.14132,-28.56133 0,-15.31375 -9.60146,-28.56136 -29.29056,-28.56136 z m -0.3646,44.96893 c -8.50766,0 -12.883,-7.29226 -12.883,-16.77219 0,-10.3307 4.98304,-16.28605 13.00454,-16.28605 7.41377,0 13.36912,4.98305 13.36912,16.04297 0,10.57377 -5.34765,17.01527 -13.49066,17.01527 z m -43.14587,-1.09385 h 7.29226 v 11.91069 h -22.84906 v -30.74902 c 0,-9.47993 -3.15998,-13.12606 -9.3584,-13.12606 -7.53535,0 -10.57378,5.34765 -10.57378,13.00453 v 19.0814 h 7.29226 v 11.91068 h -22.97062 v -30.87055 c 0,-9.47993 -3.15996,-13.12606 -9.35838,-13.12606 -7.53534,0 -10.57377,5.34765 -10.57377,13.00453 v 19.0814 h 10.45224 v 11.91068 H 158.624 v -11.91068 h 7.29225 V 395.31482 H 158.624 v -11.91069 h 22.97061 v 8.26457 c 3.28151,-5.83381 8.99377,-9.35841 16.65066,-9.35841 7.89994,0 15.19219,3.76767 17.86602,11.78915 3.03845,-7.29225 9.23685,-11.78915 17.86603,-11.78915 9.84454,0 18.83834,5.95534 18.83834,18.95988 v 24.9152 z"
       class="st0" />
    <text
       xml:space="preserve"
       style="font-style:normal;font-weight:normal;font-size:99.6545639px;line-height:1;font-family:sans-serif;text-align:end;letter-spacing:0px;word-spacing:0px;text-anchor:end;opacity:1;fill:#000000;fill-opacity:1;stroke:none;stroke-width:10.67727375"
       x="554.67786"
       y="535.39856"
       id="text4512"><tspan
         sodipodi:role="line"
         id="tspan4510"
         x="554.67786"
         y="535.39856"
         style="font-style:normal;font-variant:normal;font-weight:normal;font-stretch:normal;font-family:'Zilla Slab';-inkscape-font-specification:'Zilla Slab';text-align:end;text-anchor:end;fill:#000000;stroke-width:10.67727375">nicaragua</tspan></text>
    <path
       style="display:inline;opacity:1;fill:#ffffff;fill-opacity:1;fill-rule:nonzero;stroke:none;stroke-width:2.31884313;stroke-linecap:round;stroke-linejoin:round;stroke-miterlimit:4;stroke-dasharray:none;stroke-dashoffset:0;stroke-opacity:1"
       d="m 539.44286,9.9837099 c -1.10785,-0.051648 -6.93812,4.1619011 -9.22935,5.8113261 -6.73551,4.848904 -18.73305,18.493957 -18.73305,18.493957 0,0 11.75898,-13.662311 16.47335,-20.374566 2.92932,-4.1706357 -8.5492,5.626089 -12.31725,9.057785 -4.34814,3.96003 -11.73238,13.177725 -11.73238,13.177725 0,0 6.98652,-10.837639 10.3745,-16.60079 2.49325,-4.241196 -8.56956,5.202644 -11.6964,9.000941 -3.93418,4.779024 -6.93681,8.564751 -8.08378,9.713185 -1.14695,1.14844 9.46643,-15.792971 5.01623,-11.310622 -5.07034,5.106976 -15.11476,19.53975 -16.48762,20.500172 -1.37286,0.960464 0.45321,-3.481566 0.99111,-9.689921 0.51176,-5.906595 -7.15582,6.508865 -11.71351,13.383696 -1.22723,1.851177 1.54583,-8.042197 -0.1929,-6.660214 -4.24093,3.370794 -3.80738,8.069056 -7.40591,10.278719 -2.78008,1.70716 -6.97821,-0.331777 -9.66998,1.511429 -1.68103,1.151104 -1.95288,4.664089 -3.06326,5.287738 -3.26651,1.834646 -11.11775,1.643994 -11.11775,1.643994 0,0 -8.59516,-0.959379 -12.22927,0.911956 -1.39354,0.717612 -1.57162,2.988211 -3.00885,3.613668 -1.73369,0.754468 -3.86264,-0.895353 -5.66224,-0.315384 -3.32813,1.072565 -5.11887,4.867712 -8.16206,6.589861 -9.16892,5.188694 -20.37203,5.928268 -29.68331,10.856919 -6.03762,3.195857 -10.8403,8.350578 -16.64225,11.956673 -4.4035,2.736914 -15.03335,2.290372 -13.73109,7.308923 0.5497,2.1185 8.76614,-1.90152 6.51123,0.44838 -3.59458,3.74601 -9.78887,4.85874 -12.50588,9.28271 -2.25114,3.66551 -2.175,12.72114 -2.175,12.72114 10e-6,-1e-5 -27.7211,-0.84884 -40.84439,2.90417 -12.12156,3.46655 -33.44224,17.6698 -33.44224,17.6698 0,0 -34.49417,-7.13303 -51.95091,-6.7211 -8.20109,0.19354 -24.2313,4.30599 -24.2313,4.30599 0,0 10.669,3.24777 9.8448,7.23643 -1.45712,7.05164 -8.86738,1.12853 -21.05112,4.84863 -4.90896,1.49888 19.78024,3.07087 14.79216,4.28059 -9.25938,2.24561 -10.69923,0.73601 -17.60893,3.69969 -2.54651,1.09223 6.15815,3.4591 5.57348,6.16762 -2.04762,9.48573 -36.24699,9.94114 -26.69011,11.62588 22.63947,3.991 38.45985,1.158 57.4967,-1.09063 16.01605,-1.89183 31.24543,-12.3133 47.25635,-10.37834 6.20394,0.74975 10.86454,6.39021 16.82484,8.26796 2.99659,0.94406 9.31432,1.44242 9.31432,1.44242 0,0 -9.29624,-0.53399 -12.98044,1.81452 -2.08002,1.32592 -2.18297,4.56837 -4.02323,6.21095 -2.7161,2.42415 -7.72738,1.8546 -9.7802,4.86122 -0.43672,0.63959 0.55907,2.18757 -0.20504,2.31394 -4.57078,0.75615 -10.52113,-0.31941 -17.77703,4.13199 -1.31104,0.80428 3.03059,3.4791 3.03059,3.4791 l 21.74971,0.51311 c 0,0 -22.6476,-0.17728 -31.84876,5.4188 -1.75971,1.07024 -4.49596,3.02403 -3.7219,4.93265 1.07347,2.64676 8.467,1.31081 8.467,1.31081 0,0 -6.59889,2.44573 -8.50056,5.16096 -1.11907,1.59781 -3.09358,5.83346 -1.14505,5.73972 5.69547,-0.27399 13.65967,-1.2506 13.65967,-1.25061 0,1e-5 -15.25314,2.07217 -18.4718,7.95219 -0.9337,1.70573 -0.99907,5.73957 0.94542,5.756 7.15321,0.0605 15.10591,-1.38302 15.10591,-1.38302 0,0 -9.77331,4.13341 -17.30433,7.00998 -2.68458,1.02542 -4.36122,8.90548 -1.51826,8.48601 6.02695,-0.88933 19.01898,-4.24421 19.01898,-4.24421 0,0 -9.37421,5.50802 -21.34753,10.71837 -2.72832,1.18727 -4.52877,5.86821 -2.98636,8.41267 0.62714,1.03459 3.59362,0.50481 3.59362,0.50481 l 32.63822,-8.20468 -28.4581,12.83075 c 0,0 -7.1538,4.43884 -6.39299,7.6816 0.32582,1.38868 3.91477,1.72748 3.91477,1.72748 l 21.42567,-7.5965 -23.62165,15.51843 c 0,0 -2.58005,2.77018 -1.72904,3.9149 1.28186,1.72427 6.39752,-0.79341 6.39752,-0.79341 l 17.52711,-7.68981 -21.73988,11.83058 c 0,0 -6.84225,4.09595 -5.63899,6.7773 0.45734,1.01903 3.34831,0.11035 3.34831,0.11035 l 22.49703,-9.57138 -19.82392,11.41414 c 0,0 -15.13066,5.86195 -13.35069,11.44761 0.57754,1.81234 5.68125,0.52284 5.68125,0.52284 l 13.07234,-7.66552 -18.46842,12.54224 c 0,0 -4.12408,3.54996 -3.06314,5.28924 0.86652,1.42055 4.98616,-0.24731 4.98616,-0.24731 l 18.48821,-10.04117 -21.23275,14.25674 c -2e-5,0 -10.22719,7.20155 -7.95109,11.16244 0.96638,1.68173 5.794,-0.53047 5.794,-0.53047 l 26.19749,-17.00649 -24.76617,18.96294 c 0,0 -8.90213,5.79925 -6.71187,8.75227 1.71197,2.30817 8.07071,-3.0341 8.07071,-3.0341 l 29.41095,-20.83594 -22.69631,18.96897 c 0,0 -12.55438,10.30167 -8.7012,14.3616 3.41884,3.60231 13.12757,-7.04599 13.12757,-7.04599 l 27.30869,-24.90486 c 0,0 -18.34028,18.93208 -23.86223,30.64111 -0.8692,1.84263 -2.94817,4.72548 -1.33206,5.96606 2.49159,1.91265 6.3447,-1.94644 8.354,-4.36076 9.98651,-11.99942 30.63004,-34.60955 30.63004,-34.60955 0,0 -17.15071,22.63187 -23.55638,36.51484 -1.08008,2.34082 -2.20353,6.20426 -0.12738,7.73253 1.48858,1.09574 3.73863,-0.6947 5.26688,-1.73442 8.58579,-5.84111 19.92879,-23.94573 19.92879,-23.94573 0,0 11.89233,-19.59369 18.6458,-28.83554 9.71061,-13.28852 22.41271,-24.323 31.35753,-38.13863 7.60632,-11.7483 15.79413,-23.90863 18.6783,-37.60391 3.77255,-17.91374 -4.71694,-36.68885 -2.51861,-54.86307 0.67933,-5.61627 4.79791,-16.27818 4.79791,-16.27818 l 17.27489,-5.85818 1.35975,-11.62471 c 0,0 -6.70486,-0.26925 -10.05808,-0.2267 -3.18924,0.0403 -9.55719,0.45813 -9.55719,0.45813 0,0 2.55113,-4.59412 4.03549,-6.92152 2.10847,-3.30594 7.09242,-8.28837 7.09242,-8.28837 l -2.82207,-1.20154 c 0,0 9.77878,-15.20758 17.1639,-19.93602 5.93823,-3.80206 13.32426,-5.07758 20.33539,-5.82758 5.71861,-0.61172 17.21649,1.13734 17.21649,1.13734 0,0 17.76578,-7.60319 26.72795,-11.21247 16.43468,-6.618648 33.66462,-11.370861 49.58399,-19.147608 7.59993,-3.712638 15.04547,-7.908978 21.7599,-13.052822 7.82368,-5.993615 13.75423,-14.163642 21.28534,-20.52101 10.94814,-9.241892 24.58267,-15.255815 34.60242,-25.496868 2.54323,-2.599409 5.96504,-7.041948 6.27929,-8.923394 0.39349,-2.355991 -4.55406,1.53224 -6.64028,2.695458 -3.8807,2.163715 -7.1434,5.286391 -10.75678,7.871925 -5.90446,4.224908 -17.84753,12.485398 -17.84753,12.485398 0,0 10.68256,-8.352033 15.49559,-13.105366 3.41614,-3.373797 6.70501,-6.934267 9.4382,-10.881702 0.85307,-1.232087 1.56999,-1.899693 2.14112,-3.951113 0.59485,-2.1365241 -4.4131,1.019763 -6.26336,2.242536 -4.66504,3.083026 -7.97656,8.165129 -12.02122,12.026249 -4.64261,4.431962 -11.40617,9.273032 -11.40617,9.273032 0,0 7.13693,-6.870895 11.73102,-12.298333 3.00792,-3.553542 5.844,-6.68043 8.591,-11.011823 0.34891,-0.550187 0.34457,-0.7890569 0.0888,-0.800993 z M 49.978948,135.19349 c -1.226696,0.13798 -2.44083,0.35273 -3.624713,0.64566 -0.914696,0.22633 -2.057316,0.85394 -2.87853,1.57637 -1.035993,0.91138 -2.446701,2.01329 -2.43442,3.34732 0.0073,0.79832 1.358248,1.10018 1.469278,1.8908 0.180611,1.2866 -1.578761,2.32369 -1.451671,3.61665 0.208359,2.11948 3.488737,5.35338 3.488737,5.35338 0,0 -5.161697,-2.87362 -5.439588,-5.41731 -0.06664,-0.60975 0.894183,-0.94372 0.992104,-1.54922 0.19133,-1.18303 -1.189205,-2.32506 -0.885998,-3.48447 0.385063,-1.47213 1.828546,-3.08934 3.311202,-4.45086 -4.782002,1.11246 -9.998891,2.68849 -10.439864,6.89542 -0.535526,5.10873 6.93792,8.11139 11.706654,10.02061 3.169318,1.26884 6.86697,1.15319 10.227027,0.54932 7.120619,-1.27971 19.91128,-8.63884 19.91128,-8.63884 l 106.708734,-4.06659 c 1.06976,-0.67697 1.50435,-1.20325 4.76774,-2.40122 -2e-5,0 -94.602159,2.55813 -111.653017,4.42378 0,0 -8.017327,-6.14036 -12.765495,-7.46173 -3.524772,-0.98089 -7.329362,-1.26323 -11.00946,-0.84907 z M 381.12921,114.96077 c -5.46846,0.53423 -10.84687,1.8742 -15.70496,4.19543 -7.66378,3.66176 -18.65354,17.35878 -18.65354,17.35878 l 4.76209,1.85917 c -10.55895,5.14045 -9.9632,9.26047 -13.55708,13.7632 6.66501,-0.31738 13.36059,-0.68028 18.12056,1.88837 l -0.6724,8.61774 c 0,0 9.84262,-5.56167 15.19769,-7.23553 4.70595,-1.47117 14.5993,-2.37963 14.5993,-2.37963 0,0 -9.312,2.01128 -13.61926,3.96052 -7.02821,3.18062 -12.59714,9.02916 -19.52174,12.42947 -4.69036,2.3032 -14.74738,5.31601 -14.74738,5.31601 -4.2567,9.70495 -5.63075,19.00263 -4.04555,28.75101 0,0 24.86809,-2.66067 35.28976,-8.86586 6.91051,-4.1146 10.75471,-12.43728 16.3206,-17.77128 8.39049,-8.04095 18.51276,-11.54648 26.32668,-20.14878 3.501,-3.85426 7.52974,-11.3437 7.52974,-11.3437 0,0 -4.41915,-2.45041 -6.65321,-1.88313 -7.35065,1.86655 -8.75498,11.58129 -16.28368,15.88961 -6.65717,3.8096 -20.8023,9.83465 -20.8023,9.83465 l 16.39756,-18.17249 c 0,0 -6.61833,-5.32037 -10.11039,-6.61028 -4.96579,-1.83428 -15.87985,-0.2152 -15.87985,-0.2152 0,0 7.07072,-5.51119 11.28388,-6.66797 3.75566,-1.03119 11.6842,-0.0267 11.6842,-0.0267 0,0 6.77952,-3.35043 10.36582,-3.03504 2.10663,0.18528 5.68366,2.81781 5.68366,2.81781 l 10.15668,-3.01741 c 0,0 11.79252,-4.38612 9.32801,-7.53187 -5.73944,-7.32594 -19.3925,-10.42535 -30.07293,-11.64544 -4.16057,-0.47529 -8.46868,-0.54689 -12.72196,-0.1314 z M 191.08622,132.9423 c 0,0 6.43619,7.50827 3.83967,6.9676 -6.02612,-1.25477 -9.98593,0.57636 -13.62938,3.53546 -1.79944,1.46143 -3.08907,6.23152 -3.08907,6.23152 0,0 -9.96465,1.38854 -13.05226,4.85456 -1.54938,1.73926 -0.21594,4.96383 -1.66627,6.78647 -1.9316,2.42736 -8.30888,4.19138 -8.30888,4.19138 0,0 2.83831,5.75339 1.9243,8.51644 -1.52197,4.60082 -11.02855,9.47343 -11.02855,9.47343 0,0 2.7482,-0.21768 4.0624,-0.60087 13.86635,-4.04291 34.1812,-14.04597 30.1447,-13.05337 -0.98928,0.24328 -8.66626,-4.69592 -8.66626,-4.69592 l 13.11451,-4.17505 -9.28355,-3.95417 c 0,0 12.95417,-4.66479 25.32257,-5.74908 5.08329,-0.44557 -13.08032,-7.95287 -13.08032,-7.95287 l 27.44719,-5.02943 -16.52393,-5.57739 z m 236.09497,-2.53713 c 0,0 -5.25067,4.55067 -6.39164,7.67997 -0.73905,2.02694 -0.0335,6.47326 -0.0335,6.47326 0,0 4.182,0.01 6.22781,-0.36252 5.22672,-0.94963 15.21775,-4.73142 15.21775,-4.73142 l -11.6275,0.64614 -7.75141,-0.3333 c 0,0 6.24416,-0.67736 9.12495,-0.62625 7.07311,0.12546 21.2036,-0.8983 21.2036,-0.8983 z m -3.73123,1.25425 c 0,0 -0.22327,0.18602 -0.3048,0.25032 0.19564,-0.12456 0.32163,-0.22003 0.3048,-0.25032 z m -0.3048,0.25032 c -1.78054,1.13311 -11.68682,5.72472 -17.79434,6.32717 -1.95194,0.19258 0.0285,4.19858 -1.25702,5.62717 -1.88702,2.09715 -5.20673,2.92603 -8.01909,2.70346 -2.63796,-0.20878 -5.77259,-1.35941 -7.03063,-3.68746 -0.66413,-1.22894 2.13383,-4.01216 0.40489,-4.17114 -5.45706,-0.50173 -8.50143,-0.94514 -12.60028,-0.0273 -2.03749,0.45623 -5.66062,2.68304 -5.66062,2.68304 l -2.66155,1.032 c 0,0 7.71332,-1.69609 11.3576,-0.6472 5.21046,1.49969 13.26425,9.41562 13.26425,9.41562 l -9.57654,11.50682 c 0,0 7.75477,-3.24719 11.08848,-5.73901 3.67305,-2.74544 6.14756,-6.82578 9.52559,-9.92703 2.08266,-1.912 3.8765,-4.56263 6.59775,-5.32938 2.57871,-0.72657 6.22181,3.07315 7.96944,1.04255 0.91123,-1.05876 -1.44311,-2.66129 -1.1556,-4.02827 0.56985,-2.70906 4.74879,-6.14287 5.54767,-6.78104 z M 24.733959,169.87242 c -0.523383,0.0405 -1.043982,0.10879 -1.560602,0.20808 -0.886701,0.17042 -1.843205,0.37166 -2.818465,0.59308 -2.475371,1.62515 -5.03343,3.80327 -5.358195,6.01936 -0.184953,1.26182 2.086805,1.93792 2.076994,3.21321 -0.0056,0.72672 -1.192781,1.08691 -1.212013,1.81339 -0.05122,1.93635 2.969268,4.99465 2.969268,4.99465 0,0 -4.417393,-3.08241 -4.466983,-5.4245 -0.0085,-0.39975 0.652994,-0.56399 0.72338,-0.95763 0.236805,-1.32416 -1.583943,-2.58549 -1.164802,-3.86371 0.688408,-2.09935 3.216592,-4.09126 5.70696,-5.62072 -5.088832,1.22581 -10.6129026,3.33893 -11.4877977,7.91765 -0.6401501,3.35086 3.4091677,6.2973 6.3500137,8.02633 5.204385,3.05986 11.86555,3.4775 17.876144,2.91127 6.067954,-0.57161 17.179217,-6.25721 17.179217,-6.25721 l 102.235142,-6.40098 c 1.37275,-0.48665 2.50855,-1.35447 3.08721,-3.12208 l -105.123227,6.30004 c 0,0 -8.936036,-6.51438 -14.077353,-8.32851 -3.472708,-1.22536 -7.271003,-2.30328 -10.934895,-2.02167 z M 396.97872,136.71777 a 4.2602245,6.130567 84.768862 0 0 -5.7168,4.80148 4.2602245,6.130567 84.768862 0 0 6.49367,3.68356 4.2602245,6.130567 84.768862 0 0 5.71676,-4.80149 4.2602245,6.130567 84.768862 0 0 -6.49363,-3.68355 z"
       id="path4175"
       inkscape:connector-curvature="0" />
  </g>
</svg>
